G04 Layer_Physical_Order=1*
G04 Layer_Color=255*
%FSLAX25Y25*%
%MOIN*%
G70*
G01*
G75*
%ADD10R,0.07874X0.21654*%
G04:AMPARAMS|DCode=11|XSize=93.7mil|YSize=64.96mil|CornerRadius=16.24mil|HoleSize=0mil|Usage=FLASHONLY|Rotation=270.000|XOffset=0mil|YOffset=0mil|HoleType=Round|Shape=RoundedRectangle|*
%AMROUNDEDRECTD11*
21,1,0.09370,0.03248,0,0,270.0*
21,1,0.06122,0.06496,0,0,270.0*
1,1,0.03248,-0.01624,-0.03061*
1,1,0.03248,-0.01624,0.03061*
1,1,0.03248,0.01624,0.03061*
1,1,0.03248,0.01624,-0.03061*
%
%ADD11ROUNDEDRECTD11*%
%ADD12R,0.03543X0.00984*%
%ADD13R,0.05118X0.07480*%
%ADD14O,0.05118X0.07480*%
%ADD15R,0.05906X0.09055*%
%ADD16R,0.09055X0.05906*%
%ADD17R,0.10000X0.04500*%
%ADD18R,0.05500X0.10000*%
%ADD19R,0.04331X0.05512*%
%ADD20C,0.03937*%
%ADD21R,0.03543X0.02559*%
%ADD22R,0.02559X0.03543*%
%ADD23R,0.04724X0.04724*%
%ADD24R,0.04724X0.04724*%
%ADD25R,0.05512X0.05906*%
%ADD26R,0.05906X0.05512*%
%ADD27R,0.05906X0.09449*%
%ADD28R,0.03150X0.03150*%
%ADD29R,0.03150X0.03150*%
%ADD30R,0.02362X0.02165*%
%ADD31R,0.05512X0.04331*%
%ADD32R,0.04921X0.06890*%
%ADD33R,0.06890X0.04921*%
%ADD34R,0.13386X0.18504*%
%ADD35R,0.18504X0.13386*%
%ADD36R,0.07087X0.13386*%
%ADD37R,0.13386X0.07087*%
%ADD38R,0.12992X0.04685*%
%ADD39R,0.22400X0.06300*%
%ADD40R,0.07050X0.29500*%
%ADD41R,0.04331X0.01772*%
%ADD42R,0.04331X0.02756*%
%ADD43R,0.01772X0.04331*%
%ADD44R,0.02756X0.04331*%
%ADD45R,0.05000X0.12000*%
%ADD46R,0.05512X0.01693*%
%ADD47R,0.01693X0.05512*%
%ADD48O,0.02165X0.04724*%
%ADD49O,0.01142X0.05315*%
%ADD50R,0.07402X0.06614*%
%ADD51O,0.01161X0.06496*%
%ADD52O,0.06496X0.01161*%
%ADD53R,0.08465X0.07087*%
%ADD54R,0.07087X0.08465*%
%ADD55R,0.03150X0.02362*%
%ADD56R,0.02362X0.03150*%
%ADD57R,0.11614X0.06929*%
%ADD58O,0.01693X0.05315*%
%ADD59C,0.00800*%
%ADD60C,0.01000*%
%ADD61C,0.02500*%
%ADD62C,0.01200*%
%ADD63C,0.02000*%
%ADD64C,0.00787*%
%ADD65C,0.05000*%
%ADD66C,0.02953*%
%ADD67R,0.02559X0.01201*%
%ADD68C,0.06600*%
%ADD69R,0.06600X0.06600*%
%ADD70C,0.21000*%
%ADD71C,0.05906*%
%ADD72R,0.05906X0.05906*%
%ADD73R,0.07480X0.07480*%
%ADD74C,0.07480*%
%ADD75R,0.05906X0.05906*%
%ADD76C,0.25590*%
%ADD77R,0.06600X0.06600*%
%ADD78C,0.02000*%
%ADD79C,0.04724*%
%ADD80C,0.02400*%
G36*
X252067Y267224D02*
Y265158D01*
Y263090D01*
Y262008D01*
X251083Y261024D01*
X245866Y261024D01*
X243110Y258268D01*
X213779Y258268D01*
X211811Y260236D01*
Y261024D01*
Y265748D01*
X212205Y266142D01*
X214567Y268504D01*
X250787D01*
X252067Y267224D01*
D02*
G37*
G36*
X248524Y253642D02*
X250394Y251772D01*
X250394Y246063D01*
X249213Y244882D01*
X244291Y244882D01*
X243110Y246063D01*
X243110Y252953D01*
X243799Y253642D01*
X248524Y253642D01*
D02*
G37*
G36*
X279626Y240059D02*
X281496Y238189D01*
X281496Y232480D01*
X281496Y225984D01*
X271260D01*
Y232283D01*
X272047Y233071D01*
Y233353D01*
X272060D01*
Y237217D01*
X274902Y240059D01*
X279626Y240059D01*
D02*
G37*
G36*
X236220Y249508D02*
X237894Y247835D01*
X237894Y245768D01*
X246358Y237303D01*
X247468Y236194D01*
Y235657D01*
X250072D01*
X250492Y235236D01*
Y233366D01*
Y228642D01*
Y226378D01*
X248635Y224520D01*
X245165D01*
Y224409D01*
X223361D01*
X212894Y234877D01*
Y248228D01*
X214173Y249508D01*
X236220Y249508D01*
D02*
G37*
G36*
X124016Y267717D02*
X124016Y251575D01*
X124016Y246063D01*
X124016Y238189D01*
X129921Y232283D01*
Y222392D01*
X119636D01*
X116043Y225984D01*
X115182D01*
X115003Y226202D01*
X114864Y226904D01*
X114466Y227500D01*
X113870Y227898D01*
X113168Y228037D01*
X112466Y227898D01*
X111870Y227500D01*
X111594Y227086D01*
X111063Y227191D01*
X111046Y227277D01*
X110648Y227872D01*
X110053Y228270D01*
X109350Y228410D01*
X108648Y228270D01*
X108053Y227872D01*
X107655Y227277D01*
X107515Y226575D01*
X107655Y225872D01*
X108053Y225277D01*
X107874Y224803D01*
Y223984D01*
X107869Y223957D01*
Y220335D01*
X107874Y220307D01*
Y220079D01*
X107480Y219685D01*
X106693D01*
X106299Y220079D01*
X106299Y224803D01*
X105905Y225197D01*
X105905Y225984D01*
Y233465D01*
X110236Y237795D01*
X110236Y267717D01*
X112205Y269685D01*
X122047D01*
X124016Y267717D01*
D02*
G37*
G36*
X98425Y269685D02*
X100394Y267717D01*
Y232283D01*
X102756Y229921D01*
Y223984D01*
X102750Y223957D01*
Y220335D01*
X102756Y220307D01*
Y220079D01*
X102362Y219685D01*
X101181Y219685D01*
X87402D01*
X86614Y220472D01*
X86614Y238189D01*
X82677Y242126D01*
X74803D01*
X72835Y244094D01*
Y253937D01*
X74803Y255906D01*
X82677D01*
X86614Y259842D01*
X86614Y267717D01*
X88582Y269685D01*
X98425Y269685D01*
D02*
G37*
G36*
X177165Y226378D02*
X177165Y218504D01*
X175197Y216535D01*
X173031Y216535D01*
X155512Y216535D01*
X141732Y216535D01*
X139764Y214567D01*
X139764Y205691D01*
X138708Y204635D01*
X138420Y204205D01*
X138319Y203697D01*
Y197374D01*
X137888Y196943D01*
X137482Y196672D01*
X137210Y196265D01*
X133858Y192913D01*
X122047D01*
X120079Y194882D01*
Y198277D01*
X120498Y198695D01*
X120498Y198695D01*
X120807Y199159D01*
X120916Y199705D01*
X120916Y199705D01*
Y200963D01*
X121184Y201365D01*
X121324Y202067D01*
X121184Y202769D01*
X120786Y203365D01*
X120191Y203763D01*
X120079Y203785D01*
Y214567D01*
X121647Y216136D01*
X122061Y216218D01*
X122656Y216616D01*
X123054Y217211D01*
X123136Y217624D01*
X124016Y218504D01*
X127953D01*
X141732Y232283D01*
X171260D01*
X177165Y226378D01*
D02*
G37*
G36*
X63386Y222441D02*
X72835Y212992D01*
X84252Y212992D01*
X88583Y208661D01*
X100787Y208661D01*
X102756Y206693D01*
Y206465D01*
X102750Y206437D01*
Y202815D01*
X102756Y202787D01*
Y202362D01*
X101575Y201181D01*
X90024D01*
X89880Y201396D01*
X89285Y201794D01*
X88583Y201934D01*
X87880Y201794D01*
X87285Y201396D01*
X87141Y201181D01*
X82284D01*
X75800Y207665D01*
Y207817D01*
X75590Y207874D01*
X75324Y207874D01*
X65748Y207874D01*
X57087Y216535D01*
Y221654D01*
X57874Y222441D01*
X63386Y222441D01*
D02*
G37*
G36*
X218012Y150197D02*
X216437Y151772D01*
X218012Y153347D01*
Y150197D01*
D02*
G37*
G36*
X216437Y151772D02*
X214862Y150197D01*
Y153347D01*
X216437Y151772D01*
D02*
G37*
G36*
X239764Y146063D02*
X238189Y147638D01*
X239764Y149213D01*
Y146063D01*
D02*
G37*
G36*
X238189Y147638D02*
X236614Y146063D01*
Y149213D01*
X238189Y147638D01*
D02*
G37*
G36*
X218012Y142028D02*
X216437Y143602D01*
X218012Y145177D01*
Y142028D01*
D02*
G37*
G36*
X216437Y143602D02*
X214862Y142028D01*
Y145177D01*
X216437Y143602D01*
D02*
G37*
G36*
X70772Y95759D02*
X70931D01*
X71124Y95724D01*
X71353Y95706D01*
X71599Y95671D01*
X71863Y95618D01*
X72162Y95566D01*
X72479Y95495D01*
X72795Y95407D01*
X73147Y95319D01*
X73499Y95196D01*
X73868Y95073D01*
X74238Y94915D01*
Y92751D01*
X74220Y92769D01*
X74132Y92787D01*
X74027Y92839D01*
X73868Y92910D01*
X73675Y92980D01*
X73464Y93068D01*
X73217Y93156D01*
X72954Y93244D01*
X72391Y93420D01*
X71810Y93578D01*
X71230Y93701D01*
X70948Y93719D01*
X70702Y93736D01*
X70579D01*
X70438Y93719D01*
X70262Y93701D01*
X70086Y93666D01*
X69875Y93631D01*
X69682Y93560D01*
X69506Y93472D01*
X69488Y93455D01*
X69436Y93420D01*
X69365Y93367D01*
X69295Y93297D01*
X69207Y93209D01*
X69137Y93085D01*
X69084Y92962D01*
X69066Y92804D01*
Y92787D01*
Y92751D01*
X69084Y92681D01*
X69101Y92593D01*
X69137Y92505D01*
X69207Y92400D01*
X69277Y92276D01*
X69383Y92171D01*
X69401Y92153D01*
X69453Y92118D01*
X69541Y92065D01*
X69700Y91977D01*
X69893Y91872D01*
X70034Y91801D01*
X70174Y91749D01*
X70333Y91678D01*
X70509Y91590D01*
X70720Y91520D01*
X70931Y91432D01*
X70948D01*
X70984Y91414D01*
X71054Y91379D01*
X71142Y91362D01*
X71247Y91309D01*
X71371Y91274D01*
X71652Y91151D01*
X71969Y91027D01*
X72303Y90887D01*
X72619Y90728D01*
X72918Y90588D01*
X72954Y90570D01*
X73042Y90517D01*
X73182Y90429D01*
X73358Y90306D01*
X73552Y90148D01*
X73780Y89955D01*
X73991Y89743D01*
X74203Y89480D01*
X74220Y89444D01*
X74291Y89356D01*
X74378Y89198D01*
X74484Y88987D01*
X74572Y88741D01*
X74660Y88424D01*
X74730Y88072D01*
X74748Y87685D01*
Y87668D01*
Y87615D01*
Y87527D01*
X74730Y87422D01*
X74713Y87298D01*
X74677Y87140D01*
X74607Y86788D01*
X74449Y86384D01*
X74361Y86190D01*
X74238Y85979D01*
X74115Y85768D01*
X73939Y85575D01*
X73763Y85381D01*
X73552Y85205D01*
X73534Y85188D01*
X73499Y85170D01*
X73429Y85117D01*
X73341Y85065D01*
X73217Y84994D01*
X73077Y84924D01*
X72918Y84836D01*
X72725Y84748D01*
X72514Y84660D01*
X72285Y84572D01*
X72021Y84502D01*
X71758Y84431D01*
X71459Y84378D01*
X71142Y84326D01*
X70808Y84308D01*
X70456Y84290D01*
X70245D01*
X70104Y84308D01*
X69911Y84326D01*
X69700Y84343D01*
X69436Y84378D01*
X69172Y84431D01*
X68873Y84484D01*
X68556Y84554D01*
X68222Y84642D01*
X67870Y84748D01*
X67518Y84871D01*
X67149Y85012D01*
X66797Y85170D01*
X66428Y85364D01*
Y87756D01*
X66445D01*
X66480Y87721D01*
X66533Y87685D01*
X66621Y87633D01*
X66709Y87562D01*
X66832Y87492D01*
X67096Y87334D01*
X67395Y87158D01*
X67729Y86982D01*
X68064Y86806D01*
X68398Y86665D01*
X68415D01*
X68433Y86648D01*
X68486Y86630D01*
X68556Y86612D01*
X68714Y86560D01*
X68943Y86507D01*
X69225Y86436D01*
X69541Y86384D01*
X69875Y86349D01*
X70227Y86331D01*
X70385D01*
X70491Y86349D01*
X70614Y86366D01*
X70755Y86384D01*
X71054Y86454D01*
X71353Y86577D01*
X71494Y86665D01*
X71617Y86771D01*
X71722Y86894D01*
X71810Y87035D01*
X71863Y87193D01*
X71881Y87369D01*
Y87386D01*
Y87422D01*
X71863Y87492D01*
X71846Y87580D01*
X71793Y87685D01*
X71740Y87791D01*
X71652Y87914D01*
X71546Y88020D01*
X71529Y88037D01*
X71476Y88072D01*
X71371Y88143D01*
X71230Y88231D01*
X71019Y88354D01*
X70878Y88407D01*
X70737Y88477D01*
X70579Y88547D01*
X70385Y88635D01*
X70192Y88706D01*
X69963Y88794D01*
X69946D01*
X69911Y88811D01*
X69840Y88846D01*
X69752Y88864D01*
X69647Y88917D01*
X69524Y88952D01*
X69242Y89075D01*
X68925Y89198D01*
X68591Y89339D01*
X68275Y89497D01*
X67976Y89638D01*
X67940Y89656D01*
X67852Y89708D01*
X67712Y89796D01*
X67554Y89919D01*
X67360Y90078D01*
X67149Y90254D01*
X66938Y90482D01*
X66727Y90728D01*
X66709Y90764D01*
X66639Y90852D01*
X66568Y91010D01*
X66463Y91221D01*
X66375Y91485D01*
X66287Y91801D01*
X66217Y92153D01*
X66199Y92558D01*
Y92575D01*
Y92628D01*
Y92699D01*
X66217Y92804D01*
X66234Y92927D01*
X66252Y93068D01*
X66340Y93385D01*
X66480Y93754D01*
X66568Y93947D01*
X66674Y94141D01*
X66815Y94334D01*
X66973Y94528D01*
X67149Y94704D01*
X67342Y94880D01*
X67360Y94897D01*
X67395Y94915D01*
X67466Y94968D01*
X67554Y95020D01*
X67677Y95091D01*
X67817Y95161D01*
X67976Y95249D01*
X68169Y95337D01*
X68380Y95407D01*
X68609Y95495D01*
X68873Y95566D01*
X69154Y95636D01*
X69436Y95689D01*
X69770Y95742D01*
X70104Y95759D01*
X70456Y95777D01*
X70632D01*
X70772Y95759D01*
D02*
G37*
G36*
X12251D02*
X12409D01*
X12602Y95724D01*
X12831Y95706D01*
X13077Y95671D01*
X13341Y95618D01*
X13640Y95566D01*
X13957Y95495D01*
X14273Y95407D01*
X14625Y95319D01*
X14977Y95196D01*
X15346Y95073D01*
X15716Y94915D01*
Y92751D01*
X15698Y92769D01*
X15610Y92787D01*
X15505Y92839D01*
X15346Y92910D01*
X15153Y92980D01*
X14942Y93068D01*
X14696Y93156D01*
X14432Y93244D01*
X13869Y93420D01*
X13288Y93578D01*
X12708Y93701D01*
X12426Y93719D01*
X12180Y93736D01*
X12057D01*
X11916Y93719D01*
X11740Y93701D01*
X11564Y93666D01*
X11354Y93631D01*
X11160Y93560D01*
X10984Y93472D01*
X10966Y93455D01*
X10914Y93420D01*
X10843Y93367D01*
X10773Y93297D01*
X10685Y93209D01*
X10615Y93085D01*
X10562Y92962D01*
X10544Y92804D01*
Y92787D01*
Y92751D01*
X10562Y92681D01*
X10580Y92593D01*
X10615Y92505D01*
X10685Y92400D01*
X10755Y92276D01*
X10861Y92171D01*
X10879Y92153D01*
X10931Y92118D01*
X11019Y92065D01*
X11178Y91977D01*
X11371Y91872D01*
X11512Y91801D01*
X11653Y91749D01*
X11811Y91678D01*
X11987Y91590D01*
X12198Y91520D01*
X12409Y91432D01*
X12426D01*
X12462Y91414D01*
X12532Y91379D01*
X12620Y91362D01*
X12725Y91309D01*
X12849Y91274D01*
X13130Y91151D01*
X13447Y91027D01*
X13781Y90887D01*
X14097Y90728D01*
X14397Y90588D01*
X14432Y90570D01*
X14520Y90517D01*
X14660Y90429D01*
X14836Y90306D01*
X15030Y90148D01*
X15258Y89955D01*
X15470Y89743D01*
X15681Y89480D01*
X15698Y89444D01*
X15768Y89356D01*
X15856Y89198D01*
X15962Y88987D01*
X16050Y88741D01*
X16138Y88424D01*
X16208Y88072D01*
X16226Y87685D01*
Y87668D01*
Y87615D01*
Y87527D01*
X16208Y87422D01*
X16191Y87298D01*
X16156Y87140D01*
X16085Y86788D01*
X15927Y86384D01*
X15839Y86190D01*
X15716Y85979D01*
X15593Y85768D01*
X15417Y85575D01*
X15241Y85381D01*
X15030Y85205D01*
X15012Y85188D01*
X14977Y85170D01*
X14907Y85117D01*
X14819Y85065D01*
X14696Y84994D01*
X14555Y84924D01*
X14397Y84836D01*
X14203Y84748D01*
X13992Y84660D01*
X13763Y84572D01*
X13499Y84502D01*
X13236Y84431D01*
X12937Y84378D01*
X12620Y84326D01*
X12286Y84308D01*
X11934Y84290D01*
X11723D01*
X11582Y84308D01*
X11389Y84326D01*
X11178Y84343D01*
X10914Y84378D01*
X10650Y84431D01*
X10351Y84484D01*
X10034Y84554D01*
X9700Y84642D01*
X9348Y84748D01*
X8996Y84871D01*
X8627Y85012D01*
X8275Y85170D01*
X7906Y85364D01*
Y87756D01*
X7923D01*
X7959Y87721D01*
X8011Y87685D01*
X8099Y87633D01*
X8187Y87562D01*
X8310Y87492D01*
X8574Y87334D01*
X8873Y87158D01*
X9207Y86982D01*
X9542Y86806D01*
X9876Y86665D01*
X9894D01*
X9911Y86648D01*
X9964Y86630D01*
X10034Y86612D01*
X10193Y86560D01*
X10421Y86507D01*
X10703Y86436D01*
X11019Y86384D01*
X11354Y86349D01*
X11705Y86331D01*
X11864D01*
X11969Y86349D01*
X12092Y86366D01*
X12233Y86384D01*
X12532Y86454D01*
X12831Y86577D01*
X12972Y86665D01*
X13095Y86771D01*
X13200Y86894D01*
X13288Y87035D01*
X13341Y87193D01*
X13359Y87369D01*
Y87386D01*
Y87422D01*
X13341Y87492D01*
X13323Y87580D01*
X13271Y87685D01*
X13218Y87791D01*
X13130Y87914D01*
X13025Y88020D01*
X13007Y88037D01*
X12954Y88072D01*
X12849Y88143D01*
X12708Y88231D01*
X12497Y88354D01*
X12356Y88407D01*
X12215Y88477D01*
X12057Y88547D01*
X11864Y88635D01*
X11670Y88706D01*
X11441Y88794D01*
X11424D01*
X11389Y88811D01*
X11318Y88846D01*
X11230Y88864D01*
X11125Y88917D01*
X11002Y88952D01*
X10720Y89075D01*
X10404Y89198D01*
X10069Y89339D01*
X9753Y89497D01*
X9454Y89638D01*
X9419Y89656D01*
X9331Y89708D01*
X9190Y89796D01*
X9032Y89919D01*
X8838Y90078D01*
X8627Y90254D01*
X8416Y90482D01*
X8205Y90728D01*
X8187Y90764D01*
X8117Y90852D01*
X8046Y91010D01*
X7941Y91221D01*
X7853Y91485D01*
X7765Y91801D01*
X7695Y92153D01*
X7677Y92558D01*
Y92575D01*
Y92628D01*
Y92699D01*
X7695Y92804D01*
X7712Y92927D01*
X7730Y93068D01*
X7818Y93385D01*
X7959Y93754D01*
X8046Y93947D01*
X8152Y94141D01*
X8293Y94334D01*
X8451Y94528D01*
X8627Y94704D01*
X8821Y94880D01*
X8838Y94897D01*
X8873Y94915D01*
X8944Y94968D01*
X9032Y95020D01*
X9155Y95091D01*
X9295Y95161D01*
X9454Y95249D01*
X9647Y95337D01*
X9858Y95407D01*
X10087Y95495D01*
X10351Y95566D01*
X10632Y95636D01*
X10914Y95689D01*
X11248Y95742D01*
X11582Y95759D01*
X11934Y95777D01*
X12110D01*
X12251Y95759D01*
D02*
G37*
G36*
X64159Y84449D02*
X61819D01*
X55645Y91590D01*
Y84449D01*
X52866D01*
Y95618D01*
X55399D01*
X61379Y88776D01*
Y95618D01*
X64159D01*
Y84449D01*
D02*
G37*
G36*
X50597Y93578D02*
X45249D01*
Y91221D01*
X50350D01*
Y89180D01*
X45249D01*
Y86489D01*
X50702D01*
Y84449D01*
X42470D01*
Y95618D01*
X50597D01*
Y93578D01*
D02*
G37*
G36*
X35170Y86489D02*
X40905D01*
Y84449D01*
X32391D01*
Y95618D01*
X35170D01*
Y86489D01*
D02*
G37*
G36*
X24229Y95759D02*
X24423Y95742D01*
X24669Y95724D01*
X24950Y95689D01*
X25267Y95636D01*
X25601Y95566D01*
X25971Y95460D01*
X26340Y95355D01*
X26727Y95214D01*
X27114Y95038D01*
X27501Y94845D01*
X27871Y94616D01*
X28240Y94334D01*
X28574Y94035D01*
X28592Y94018D01*
X28644Y93965D01*
X28732Y93859D01*
X28855Y93736D01*
X28979Y93560D01*
X29137Y93367D01*
X29295Y93138D01*
X29471Y92892D01*
X29629Y92611D01*
X29788Y92294D01*
X29946Y91977D01*
X30069Y91625D01*
X30192Y91239D01*
X30280Y90852D01*
X30333Y90447D01*
X30351Y90025D01*
Y90007D01*
Y89919D01*
X30333Y89796D01*
X30316Y89638D01*
X30298Y89427D01*
X30263Y89198D01*
X30192Y88934D01*
X30122Y88653D01*
X30034Y88336D01*
X29911Y88020D01*
X29770Y87685D01*
X29594Y87351D01*
X29383Y86999D01*
X29155Y86665D01*
X28873Y86331D01*
X28556Y85997D01*
X28539Y85979D01*
X28468Y85926D01*
X28381Y85838D01*
X28240Y85733D01*
X28046Y85610D01*
X27835Y85452D01*
X27589Y85311D01*
X27308Y85152D01*
X26991Y84977D01*
X26639Y84836D01*
X26270Y84695D01*
X25848Y84554D01*
X25425Y84449D01*
X24950Y84361D01*
X24458Y84308D01*
X23948Y84290D01*
X23825D01*
X23684Y84308D01*
X23473Y84326D01*
X23244Y84343D01*
X22963Y84378D01*
X22646Y84431D01*
X22312Y84502D01*
X21960Y84589D01*
X21573Y84695D01*
X21204Y84836D01*
X20817Y85012D01*
X20430Y85205D01*
X20043Y85416D01*
X19691Y85680D01*
X19339Y85979D01*
X19322Y85997D01*
X19269Y86049D01*
X19181Y86155D01*
X19058Y86278D01*
X18935Y86454D01*
X18776Y86648D01*
X18618Y86876D01*
X18460Y87122D01*
X18284Y87404D01*
X18126Y87721D01*
X17967Y88055D01*
X17844Y88407D01*
X17721Y88776D01*
X17633Y89180D01*
X17580Y89603D01*
X17563Y90025D01*
Y90060D01*
Y90130D01*
X17580Y90254D01*
X17598Y90412D01*
X17616Y90605D01*
X17651Y90852D01*
X17704Y91115D01*
X17791Y91397D01*
X17879Y91696D01*
X17985Y92030D01*
X18143Y92347D01*
X18302Y92699D01*
X18513Y93050D01*
X18741Y93385D01*
X19005Y93719D01*
X19322Y94053D01*
X19339Y94071D01*
X19410Y94123D01*
X19498Y94211D01*
X19638Y94317D01*
X19814Y94458D01*
X20043Y94598D01*
X20289Y94757D01*
X20571Y94915D01*
X20887Y95073D01*
X21239Y95231D01*
X21608Y95372D01*
X22031Y95513D01*
X22470Y95618D01*
X22928Y95706D01*
X23420Y95759D01*
X23948Y95777D01*
X24071D01*
X24229Y95759D01*
D02*
G37*
G36*
X64524Y77838D02*
X64605D01*
X64705Y77825D01*
X64811Y77813D01*
X64924Y77794D01*
X65036Y77769D01*
X65043D01*
X65049Y77763D01*
X65068D01*
X65093Y77756D01*
X65155Y77738D01*
X65243Y77706D01*
X65355Y77675D01*
X65487Y77625D01*
X65636Y77569D01*
X65799Y77506D01*
Y76925D01*
X65793Y76931D01*
X65768Y76944D01*
X65730Y76963D01*
X65674Y76988D01*
X65611Y77019D01*
X65536Y77056D01*
X65449Y77094D01*
X65355Y77131D01*
X65249Y77169D01*
X65143Y77206D01*
X64905Y77275D01*
X64774Y77300D01*
X64649Y77319D01*
X64518Y77331D01*
X64386Y77338D01*
X64324D01*
X64280Y77331D01*
X64224Y77325D01*
X64155Y77313D01*
X64087Y77300D01*
X64005Y77281D01*
X63924Y77256D01*
X63836Y77231D01*
X63743Y77194D01*
X63649Y77150D01*
X63561Y77100D01*
X63468Y77038D01*
X63380Y76975D01*
X63293Y76894D01*
X63287Y76888D01*
X63274Y76875D01*
X63249Y76850D01*
X63224Y76813D01*
X63193Y76769D01*
X63155Y76719D01*
X63112Y76656D01*
X63074Y76594D01*
X63030Y76513D01*
X62986Y76431D01*
X62949Y76344D01*
X62918Y76244D01*
X62893Y76144D01*
X62868Y76031D01*
X62855Y75919D01*
X62849Y75800D01*
Y75794D01*
Y75769D01*
Y75738D01*
X62855Y75688D01*
X62862Y75631D01*
X62874Y75563D01*
X62887Y75488D01*
X62905Y75406D01*
X62930Y75325D01*
X62955Y75231D01*
X62993Y75144D01*
X63037Y75050D01*
X63086Y74956D01*
X63149Y74863D01*
X63218Y74775D01*
X63293Y74694D01*
X63299Y74688D01*
X63311Y74675D01*
X63336Y74656D01*
X63374Y74625D01*
X63418Y74594D01*
X63468Y74563D01*
X63530Y74519D01*
X63605Y74481D01*
X63680Y74444D01*
X63768Y74406D01*
X63862Y74369D01*
X63961Y74338D01*
X64074Y74306D01*
X64187Y74288D01*
X64311Y74275D01*
X64437Y74269D01*
X64499D01*
X64530Y74275D01*
X64568D01*
X64668Y74288D01*
X64786Y74306D01*
X64930Y74338D01*
X65087Y74375D01*
X65255Y74425D01*
X65311Y74438D01*
Y75269D01*
X64549D01*
Y75775D01*
X65880D01*
Y74088D01*
X65874Y74081D01*
X65849Y74075D01*
X65805Y74056D01*
X65755Y74038D01*
X65687Y74013D01*
X65611Y73988D01*
X65518Y73963D01*
X65424Y73931D01*
X65318Y73900D01*
X65199Y73875D01*
X64955Y73825D01*
X64693Y73788D01*
X64561Y73781D01*
X64424Y73775D01*
X64380D01*
X64330Y73781D01*
X64262D01*
X64180Y73794D01*
X64080Y73806D01*
X63974Y73825D01*
X63855Y73850D01*
X63736Y73875D01*
X63605Y73913D01*
X63474Y73963D01*
X63343Y74019D01*
X63212Y74081D01*
X63086Y74163D01*
X62962Y74250D01*
X62849Y74350D01*
X62843Y74356D01*
X62824Y74375D01*
X62793Y74406D01*
X62755Y74456D01*
X62712Y74506D01*
X62661Y74575D01*
X62612Y74656D01*
X62555Y74744D01*
X62499Y74844D01*
X62449Y74950D01*
X62399Y75069D01*
X62355Y75194D01*
X62318Y75325D01*
X62287Y75469D01*
X62268Y75613D01*
X62261Y75769D01*
Y75781D01*
Y75806D01*
X62268Y75856D01*
X62274Y75919D01*
X62280Y75994D01*
X62293Y76081D01*
X62312Y76181D01*
X62336Y76288D01*
X62368Y76400D01*
X62411Y76519D01*
X62462Y76644D01*
X62518Y76769D01*
X62586Y76894D01*
X62668Y77019D01*
X62761Y77138D01*
X62868Y77250D01*
X62874Y77256D01*
X62899Y77275D01*
X62930Y77306D01*
X62980Y77344D01*
X63037Y77388D01*
X63112Y77438D01*
X63193Y77494D01*
X63287Y77550D01*
X63393Y77600D01*
X63512Y77656D01*
X63636Y77706D01*
X63774Y77750D01*
X63918Y77788D01*
X64068Y77819D01*
X64230Y77838D01*
X64399Y77844D01*
X64455D01*
X64524Y77838D01*
D02*
G37*
G36*
X73499D02*
X73555Y77831D01*
X73624Y77825D01*
X73705Y77819D01*
X73793Y77806D01*
X73893Y77788D01*
X73999Y77763D01*
X74118Y77738D01*
X74237Y77706D01*
X74368Y77669D01*
X74499Y77625D01*
X74637Y77575D01*
X74780Y77519D01*
Y76906D01*
X74774Y76913D01*
X74749Y76925D01*
X74712Y76944D01*
X74661Y76969D01*
X74599Y77000D01*
X74524Y77031D01*
X74443Y77069D01*
X74349Y77106D01*
X74249Y77144D01*
X74143Y77181D01*
X73911Y77244D01*
X73793Y77269D01*
X73668Y77288D01*
X73543Y77300D01*
X73418Y77306D01*
X73349D01*
X73305Y77300D01*
X73249Y77294D01*
X73180Y77281D01*
X73105Y77269D01*
X73024Y77250D01*
X72936Y77231D01*
X72843Y77200D01*
X72749Y77169D01*
X72655Y77125D01*
X72555Y77075D01*
X72461Y77019D01*
X72374Y76950D01*
X72286Y76875D01*
X72280Y76869D01*
X72268Y76856D01*
X72243Y76831D01*
X72218Y76800D01*
X72180Y76756D01*
X72143Y76706D01*
X72105Y76644D01*
X72062Y76581D01*
X72018Y76506D01*
X71980Y76419D01*
X71943Y76331D01*
X71905Y76238D01*
X71880Y76138D01*
X71855Y76025D01*
X71843Y75913D01*
X71837Y75794D01*
Y75788D01*
Y75763D01*
Y75731D01*
X71843Y75688D01*
X71849Y75631D01*
X71861Y75563D01*
X71874Y75494D01*
X71893Y75413D01*
X71912Y75331D01*
X71943Y75244D01*
X71980Y75156D01*
X72024Y75063D01*
X72074Y74975D01*
X72130Y74888D01*
X72199Y74800D01*
X72274Y74719D01*
X72280Y74713D01*
X72293Y74700D01*
X72318Y74681D01*
X72355Y74656D01*
X72399Y74619D01*
X72449Y74588D01*
X72512Y74550D01*
X72580Y74513D01*
X72662Y74469D01*
X72749Y74431D01*
X72843Y74400D01*
X72943Y74369D01*
X73049Y74338D01*
X73162Y74319D01*
X73286Y74306D01*
X73412Y74300D01*
X73480D01*
X73536Y74306D01*
X73599Y74313D01*
X73674Y74325D01*
X73761Y74338D01*
X73855Y74356D01*
X73962Y74381D01*
X74074Y74406D01*
X74186Y74444D01*
X74312Y74488D01*
X74436Y74538D01*
X74562Y74600D01*
X74693Y74669D01*
X74824Y74744D01*
Y74119D01*
X74818Y74113D01*
X74793Y74106D01*
X74761Y74088D01*
X74712Y74063D01*
X74655Y74038D01*
X74580Y74013D01*
X74499Y73981D01*
X74405Y73950D01*
X74305Y73913D01*
X74193Y73881D01*
X74074Y73856D01*
X73949Y73831D01*
X73818Y73806D01*
X73674Y73788D01*
X73530Y73781D01*
X73380Y73775D01*
X73318D01*
X73268Y73781D01*
X73211D01*
X73143Y73788D01*
X73068Y73800D01*
X72987Y73806D01*
X72812Y73838D01*
X72624Y73888D01*
X72430Y73950D01*
X72249Y74038D01*
X72243Y74044D01*
X72230Y74050D01*
X72205Y74063D01*
X72174Y74088D01*
X72136Y74113D01*
X72087Y74150D01*
X71987Y74231D01*
X71868Y74338D01*
X71743Y74463D01*
X71624Y74606D01*
X71518Y74775D01*
Y74781D01*
X71505Y74794D01*
X71493Y74825D01*
X71474Y74856D01*
X71455Y74900D01*
X71430Y74950D01*
X71412Y75013D01*
X71386Y75081D01*
X71362Y75150D01*
X71337Y75231D01*
X71293Y75400D01*
X71262Y75594D01*
X71255Y75694D01*
X71249Y75794D01*
Y75806D01*
Y75831D01*
X71255Y75875D01*
X71262Y75938D01*
X71268Y76013D01*
X71280Y76100D01*
X71299Y76194D01*
X71324Y76300D01*
X71355Y76413D01*
X71399Y76531D01*
X71449Y76650D01*
X71505Y76775D01*
X71580Y76894D01*
X71662Y77019D01*
X71755Y77138D01*
X71861Y77250D01*
X71868Y77256D01*
X71893Y77275D01*
X71924Y77306D01*
X71974Y77344D01*
X72030Y77388D01*
X72105Y77438D01*
X72186Y77494D01*
X72286Y77550D01*
X72393Y77600D01*
X72505Y77656D01*
X72630Y77706D01*
X72768Y77750D01*
X72912Y77788D01*
X73062Y77819D01*
X73218Y77838D01*
X73387Y77844D01*
X73449D01*
X73499Y77838D01*
D02*
G37*
G36*
X44774Y75913D02*
Y73819D01*
X44193D01*
Y75913D01*
X42724Y77788D01*
X43405D01*
X44474Y76419D01*
X45543Y77788D01*
X46237D01*
X44774Y75913D01*
D02*
G37*
G36*
X12762Y72481D02*
X12186D01*
X13068Y74369D01*
X12061Y76431D01*
X12649D01*
X13349Y74950D01*
X14024Y76431D01*
X14605D01*
X12762Y72481D01*
D02*
G37*
G36*
X32055Y75531D02*
Y75525D01*
Y75513D01*
Y75488D01*
Y75456D01*
Y75419D01*
X32049Y75375D01*
Y75275D01*
X32037Y75163D01*
X32024Y75050D01*
X32012Y74938D01*
X31986Y74844D01*
Y74831D01*
X31974Y74806D01*
X31962Y74763D01*
X31943Y74706D01*
X31918Y74650D01*
X31887Y74581D01*
X31855Y74519D01*
X31818Y74456D01*
X31811Y74450D01*
X31799Y74431D01*
X31780Y74400D01*
X31755Y74363D01*
X31718Y74319D01*
X31680Y74275D01*
X31580Y74175D01*
X31574Y74169D01*
X31561Y74156D01*
X31530Y74138D01*
X31493Y74113D01*
X31449Y74081D01*
X31393Y74050D01*
X31324Y74013D01*
X31249Y73975D01*
X31168Y73938D01*
X31074Y73900D01*
X30974Y73869D01*
X30861Y73838D01*
X30749Y73813D01*
X30624Y73794D01*
X30487Y73781D01*
X30349Y73775D01*
X30274D01*
X30218Y73781D01*
X30155Y73788D01*
X30080Y73794D01*
X29993Y73806D01*
X29905Y73825D01*
X29705Y73875D01*
X29599Y73906D01*
X29499Y73944D01*
X29393Y73988D01*
X29293Y74044D01*
X29199Y74106D01*
X29105Y74175D01*
X29099Y74181D01*
X29080Y74200D01*
X29055Y74225D01*
X29024Y74256D01*
X28980Y74300D01*
X28943Y74344D01*
X28861Y74456D01*
X28855Y74463D01*
X28849Y74481D01*
X28830Y74519D01*
X28805Y74563D01*
X28780Y74619D01*
X28755Y74681D01*
X28730Y74750D01*
X28705Y74831D01*
Y74844D01*
X28693Y74875D01*
X28686Y74925D01*
X28674Y75006D01*
X28662Y75100D01*
X28655Y75225D01*
X28643Y75369D01*
Y75538D01*
Y77788D01*
X29212D01*
Y75531D01*
Y75525D01*
Y75506D01*
Y75481D01*
Y75444D01*
X29218Y75394D01*
Y75344D01*
X29230Y75225D01*
X29243Y75100D01*
X29261Y74969D01*
X29293Y74850D01*
X29318Y74800D01*
X29337Y74756D01*
X29343Y74744D01*
X29362Y74719D01*
X29393Y74681D01*
X29430Y74631D01*
X29487Y74575D01*
X29555Y74519D01*
X29630Y74456D01*
X29724Y74406D01*
X29737Y74400D01*
X29768Y74388D01*
X29824Y74363D01*
X29899Y74344D01*
X29993Y74319D01*
X30099Y74294D01*
X30211Y74281D01*
X30343Y74275D01*
X30393D01*
X30424Y74281D01*
X30468D01*
X30518Y74288D01*
X30637Y74306D01*
X30768Y74338D01*
X30905Y74388D01*
X31043Y74450D01*
X31168Y74538D01*
X31174Y74544D01*
X31193Y74563D01*
X31224Y74594D01*
X31262Y74631D01*
X31299Y74681D01*
X31343Y74738D01*
X31380Y74800D01*
X31411Y74869D01*
X31418Y74881D01*
X31424Y74906D01*
X31436Y74956D01*
X31449Y75025D01*
X31462Y75119D01*
X31474Y75231D01*
X31486Y75369D01*
Y75444D01*
Y75531D01*
Y77788D01*
X32055D01*
Y75531D01*
D02*
G37*
G36*
X219488Y73819D02*
X217913Y75394D01*
X219488Y76968D01*
Y73819D01*
D02*
G37*
G36*
X217913Y75394D02*
X216339Y73819D01*
Y76968D01*
X217913Y75394D01*
D02*
G37*
G36*
X68905Y73819D02*
X68336D01*
Y77788D01*
X68905D01*
Y73819D01*
D02*
G37*
G36*
X52099Y74338D02*
X53886D01*
Y73819D01*
X51530D01*
Y77788D01*
X52099D01*
Y74338D01*
D02*
G37*
G36*
X40930Y77281D02*
X39380D01*
Y76175D01*
X40930D01*
Y75669D01*
X39380D01*
Y73819D01*
X38811D01*
Y77788D01*
X40930D01*
Y77281D01*
D02*
G37*
G36*
X36580D02*
X35030D01*
Y76175D01*
X36580D01*
Y75669D01*
X35030D01*
Y73819D01*
X34462D01*
Y77788D01*
X36580D01*
Y77281D01*
D02*
G37*
G36*
X24824Y74338D02*
X26612D01*
Y73819D01*
X24255D01*
Y77788D01*
X24824D01*
Y74338D01*
D02*
G37*
G36*
X22024Y77281D02*
X20474D01*
Y76175D01*
X22024D01*
Y75669D01*
X20474D01*
Y73819D01*
X19905D01*
Y77788D01*
X22024D01*
Y77281D01*
D02*
G37*
G36*
X58030Y77838D02*
X58099D01*
X58174Y77825D01*
X58268Y77813D01*
X58368Y77794D01*
X58480Y77769D01*
X58599Y77738D01*
X58718Y77700D01*
X58849Y77650D01*
X58974Y77594D01*
X59105Y77531D01*
X59230Y77450D01*
X59355Y77363D01*
X59474Y77256D01*
X59480Y77250D01*
X59499Y77231D01*
X59530Y77200D01*
X59568Y77150D01*
X59618Y77094D01*
X59668Y77025D01*
X59724Y76944D01*
X59780Y76856D01*
X59837Y76756D01*
X59893Y76644D01*
X59943Y76525D01*
X59993Y76400D01*
X60030Y76263D01*
X60062Y76113D01*
X60080Y75963D01*
X60087Y75800D01*
Y75788D01*
Y75763D01*
X60080Y75713D01*
X60074Y75656D01*
X60068Y75581D01*
X60055Y75494D01*
X60036Y75394D01*
X60012Y75288D01*
X59974Y75175D01*
X59936Y75056D01*
X59886Y74938D01*
X59824Y74813D01*
X59755Y74694D01*
X59674Y74569D01*
X59574Y74456D01*
X59468Y74344D01*
X59461Y74338D01*
X59437Y74319D01*
X59405Y74294D01*
X59355Y74256D01*
X59293Y74213D01*
X59224Y74163D01*
X59136Y74113D01*
X59043Y74063D01*
X58937Y74006D01*
X58818Y73956D01*
X58687Y73906D01*
X58549Y73863D01*
X58405Y73825D01*
X58249Y73800D01*
X58087Y73781D01*
X57911Y73775D01*
X57874D01*
X57824Y73781D01*
X57762D01*
X57687Y73794D01*
X57599Y73806D01*
X57499Y73825D01*
X57393Y73844D01*
X57274Y73875D01*
X57155Y73913D01*
X57030Y73963D01*
X56905Y74013D01*
X56780Y74081D01*
X56655Y74156D01*
X56537Y74244D01*
X56418Y74344D01*
X56411Y74350D01*
X56393Y74369D01*
X56362Y74400D01*
X56324Y74450D01*
X56280Y74506D01*
X56230Y74569D01*
X56174Y74650D01*
X56124Y74738D01*
X56068Y74838D01*
X56011Y74950D01*
X55962Y75069D01*
X55918Y75194D01*
X55880Y75331D01*
X55849Y75475D01*
X55830Y75631D01*
X55824Y75788D01*
Y75800D01*
Y75825D01*
X55830Y75875D01*
X55836Y75938D01*
X55843Y76013D01*
X55855Y76100D01*
X55874Y76200D01*
X55899Y76306D01*
X55930Y76419D01*
X55968Y76538D01*
X56018Y76656D01*
X56080Y76781D01*
X56149Y76906D01*
X56224Y77025D01*
X56318Y77144D01*
X56424Y77256D01*
X56430Y77263D01*
X56449Y77281D01*
X56486Y77313D01*
X56530Y77350D01*
X56593Y77394D01*
X56661Y77444D01*
X56743Y77494D01*
X56836Y77550D01*
X56943Y77606D01*
X57061Y77656D01*
X57187Y77706D01*
X57318Y77750D01*
X57462Y77788D01*
X57612Y77819D01*
X57774Y77838D01*
X57943Y77844D01*
X57986D01*
X58030Y77838D01*
D02*
G37*
G36*
X8393Y76244D02*
X8399D01*
X8405Y76256D01*
X8424Y76269D01*
X8449Y76281D01*
X8518Y76319D01*
X8605Y76369D01*
X8711Y76413D01*
X8830Y76450D01*
X8968Y76475D01*
X9105Y76488D01*
X9155D01*
X9187Y76481D01*
X9230Y76475D01*
X9280Y76469D01*
X9393Y76444D01*
X9524Y76394D01*
X9593Y76369D01*
X9662Y76331D01*
X9724Y76288D01*
X9793Y76238D01*
X9855Y76181D01*
X9918Y76113D01*
X9924Y76106D01*
X9930Y76094D01*
X9949Y76075D01*
X9968Y76044D01*
X9993Y76006D01*
X10018Y75963D01*
X10049Y75913D01*
X10080Y75850D01*
X10105Y75788D01*
X10137Y75713D01*
X10161Y75631D01*
X10187Y75550D01*
X10224Y75363D01*
X10230Y75256D01*
X10237Y75150D01*
Y75144D01*
Y75125D01*
Y75088D01*
X10230Y75044D01*
X10224Y74994D01*
X10218Y74931D01*
X10205Y74863D01*
X10187Y74788D01*
X10143Y74625D01*
X10112Y74544D01*
X10074Y74463D01*
X10030Y74375D01*
X9980Y74294D01*
X9924Y74219D01*
X9855Y74144D01*
X9849Y74138D01*
X9837Y74125D01*
X9818Y74113D01*
X9787Y74088D01*
X9749Y74056D01*
X9705Y74025D01*
X9649Y73994D01*
X9586Y73963D01*
X9518Y73925D01*
X9443Y73894D01*
X9362Y73863D01*
X9274Y73831D01*
X9174Y73806D01*
X9074Y73794D01*
X8962Y73781D01*
X8849Y73775D01*
X8755D01*
X8687Y73781D01*
X8612Y73788D01*
X8518Y73794D01*
X8424Y73806D01*
X8318Y73825D01*
X8305D01*
X8274Y73838D01*
X8218Y73850D01*
X8155Y73863D01*
X8087Y73881D01*
X8011Y73906D01*
X7943Y73931D01*
X7874Y73963D01*
Y77788D01*
X8393D01*
Y76244D01*
D02*
G37*
%LPC*%
G36*
X235039Y237824D02*
X235039Y237824D01*
X230709Y237824D01*
X230397Y237761D01*
X230132Y237585D01*
X230132Y237585D01*
X229345Y236797D01*
X229168Y236533D01*
X229106Y236221D01*
X229106Y236220D01*
Y231890D01*
X229106Y231890D01*
X229168Y231578D01*
X229345Y231313D01*
X229345Y231313D01*
X232888Y227770D01*
X233152Y227593D01*
X233465Y227531D01*
X233465Y227531D01*
X247975D01*
X248031Y227520D01*
X248566Y227626D01*
X249020Y227929D01*
X249323Y228382D01*
X249429Y228917D01*
Y233091D01*
X249323Y233625D01*
X249020Y234079D01*
X248566Y234382D01*
X248031Y234488D01*
X247497Y234382D01*
X247043Y234079D01*
X246740Y233625D01*
X246634Y233091D01*
X246134Y232705D01*
X237346Y232705D01*
X237302Y232749D01*
X237037Y232926D01*
X237023Y232929D01*
Y235839D01*
X236962Y236152D01*
X236785Y236416D01*
X236785Y236416D01*
X235616Y237585D01*
X235616Y237585D01*
X235351Y237761D01*
X235039Y237824D01*
D02*
G37*
%LPD*%
G36*
X236208Y235839D02*
Y232172D01*
X236725D01*
X237008Y231890D01*
X246457Y231890D01*
X247342D01*
X247925Y232472D01*
X248425Y232461D01*
Y228740D01*
X248031Y228346D01*
X233465D01*
X229921Y231890D01*
Y236221D01*
X230709Y237008D01*
X235039Y237008D01*
X236208Y235839D01*
D02*
G37*
%LPC*%
G36*
X133477Y207591D02*
Y207591D01*
X128334D01*
Y203432D01*
X133477D01*
Y203432D01*
X133977Y203731D01*
X134252Y203677D01*
X134954Y203816D01*
X135550Y204214D01*
X135948Y204809D01*
X136087Y205512D01*
X135948Y206214D01*
X135550Y206809D01*
X134954Y207207D01*
X134252Y207347D01*
X133977Y207292D01*
X133477Y207591D01*
D02*
G37*
G36*
X88583Y206560D02*
X87880Y206420D01*
X87285Y206022D01*
X86887Y205427D01*
X86747Y204724D01*
X86887Y204022D01*
X87285Y203427D01*
X87880Y203029D01*
X88583Y202889D01*
X89285Y203029D01*
X89880Y203427D01*
X90278Y204022D01*
X90418Y204724D01*
X90278Y205427D01*
X89880Y206022D01*
X89285Y206420D01*
X88583Y206560D01*
D02*
G37*
G36*
X23948Y93455D02*
X23790D01*
X23684Y93437D01*
X23543Y93420D01*
X23403Y93402D01*
X23227Y93385D01*
X23033Y93332D01*
X22629Y93226D01*
X22207Y93050D01*
X21995Y92945D01*
X21784Y92822D01*
X21591Y92681D01*
X21397Y92505D01*
X21380Y92488D01*
X21362Y92470D01*
X21309Y92417D01*
X21239Y92329D01*
X21169Y92241D01*
X21098Y92136D01*
X21010Y91995D01*
X20922Y91854D01*
X20817Y91678D01*
X20729Y91485D01*
X20588Y91063D01*
X20465Y90570D01*
X20448Y90306D01*
X20430Y90025D01*
Y90007D01*
Y89955D01*
Y89884D01*
X20448Y89779D01*
X20465Y89638D01*
X20483Y89497D01*
X20553Y89145D01*
X20659Y88741D01*
X20834Y88336D01*
X20958Y88125D01*
X21081Y87932D01*
X21221Y87738D01*
X21397Y87545D01*
X21415Y87527D01*
X21450Y87510D01*
X21503Y87457D01*
X21573Y87404D01*
X21679Y87334D01*
X21784Y87246D01*
X21925Y87158D01*
X22083Y87087D01*
X22259Y86999D01*
X22453Y86911D01*
X22875Y86753D01*
X23385Y86648D01*
X23666Y86630D01*
X23948Y86612D01*
X24106D01*
X24212Y86630D01*
X24352Y86648D01*
X24493Y86665D01*
X24669Y86683D01*
X24863Y86735D01*
X25267Y86841D01*
X25689Y86999D01*
X25900Y87105D01*
X26112Y87246D01*
X26305Y87386D01*
X26498Y87545D01*
X26516Y87562D01*
X26534Y87597D01*
X26586Y87650D01*
X26657Y87721D01*
X26727Y87809D01*
X26815Y87932D01*
X26903Y88055D01*
X26991Y88213D01*
X27079Y88389D01*
X27167Y88565D01*
X27325Y88987D01*
X27448Y89480D01*
X27466Y89743D01*
X27483Y90025D01*
Y90042D01*
Y90095D01*
Y90183D01*
X27466Y90289D01*
X27448Y90412D01*
X27431Y90570D01*
X27360Y90922D01*
X27237Y91309D01*
X27061Y91731D01*
X26956Y91925D01*
X26833Y92136D01*
X26674Y92329D01*
X26498Y92505D01*
X26481Y92523D01*
X26446Y92540D01*
X26393Y92593D01*
X26323Y92646D01*
X26235Y92734D01*
X26112Y92804D01*
X25971Y92892D01*
X25812Y92980D01*
X25637Y93068D01*
X25443Y93156D01*
X25021Y93314D01*
X24511Y93420D01*
X24229Y93437D01*
X23948Y93455D01*
D02*
G37*
G36*
X57961Y77306D02*
X57899D01*
X57849Y77300D01*
X57793Y77294D01*
X57724Y77281D01*
X57649Y77269D01*
X57568Y77250D01*
X57486Y77231D01*
X57393Y77200D01*
X57299Y77169D01*
X57205Y77125D01*
X57112Y77075D01*
X57024Y77019D01*
X56937Y76950D01*
X56849Y76875D01*
X56843Y76869D01*
X56830Y76856D01*
X56811Y76831D01*
X56780Y76800D01*
X56749Y76756D01*
X56712Y76706D01*
X56674Y76644D01*
X56630Y76581D01*
X56593Y76506D01*
X56549Y76425D01*
X56511Y76331D01*
X56480Y76238D01*
X56449Y76131D01*
X56430Y76025D01*
X56418Y75906D01*
X56411Y75788D01*
Y75781D01*
Y75763D01*
Y75725D01*
X56418Y75681D01*
X56424Y75625D01*
X56437Y75563D01*
X56449Y75494D01*
X56468Y75419D01*
X56486Y75331D01*
X56518Y75250D01*
X56555Y75163D01*
X56599Y75069D01*
X56649Y74981D01*
X56705Y74894D01*
X56774Y74806D01*
X56849Y74725D01*
X56855Y74719D01*
X56868Y74706D01*
X56893Y74688D01*
X56930Y74656D01*
X56974Y74625D01*
X57024Y74594D01*
X57080Y74550D01*
X57149Y74513D01*
X57224Y74475D01*
X57311Y74438D01*
X57399Y74400D01*
X57499Y74369D01*
X57599Y74338D01*
X57711Y74319D01*
X57830Y74306D01*
X57949Y74300D01*
X58012D01*
X58061Y74306D01*
X58118Y74313D01*
X58180Y74325D01*
X58255Y74338D01*
X58337Y74356D01*
X58424Y74375D01*
X58512Y74406D01*
X58605Y74438D01*
X58693Y74481D01*
X58786Y74531D01*
X58880Y74588D01*
X58968Y74656D01*
X59055Y74731D01*
X59061Y74738D01*
X59074Y74750D01*
X59099Y74775D01*
X59124Y74806D01*
X59155Y74850D01*
X59193Y74900D01*
X59237Y74963D01*
X59280Y75031D01*
X59318Y75100D01*
X59361Y75188D01*
X59399Y75275D01*
X59430Y75369D01*
X59455Y75469D01*
X59480Y75581D01*
X59493Y75694D01*
X59499Y75813D01*
Y75819D01*
Y75844D01*
Y75875D01*
X59493Y75919D01*
X59487Y75975D01*
X59474Y76038D01*
X59461Y76106D01*
X59443Y76181D01*
X59418Y76263D01*
X59393Y76350D01*
X59355Y76438D01*
X59311Y76525D01*
X59262Y76619D01*
X59199Y76706D01*
X59136Y76794D01*
X59055Y76875D01*
X59049Y76881D01*
X59036Y76894D01*
X59012Y76913D01*
X58974Y76944D01*
X58930Y76975D01*
X58880Y77013D01*
X58818Y77050D01*
X58755Y77094D01*
X58674Y77131D01*
X58593Y77169D01*
X58505Y77206D01*
X58405Y77238D01*
X58305Y77269D01*
X58193Y77288D01*
X58080Y77300D01*
X57961Y77306D01*
D02*
G37*
G36*
X8974Y76006D02*
X8962D01*
X8924Y76000D01*
X8868Y75994D01*
X8793Y75975D01*
X8705Y75944D01*
X8605Y75900D01*
X8505Y75838D01*
X8393Y75750D01*
Y74331D01*
X8405D01*
X8437Y74319D01*
X8493Y74306D01*
X8562Y74294D01*
X8636Y74281D01*
X8730Y74269D01*
X8830Y74263D01*
X8930Y74256D01*
X8962D01*
X8986Y74263D01*
X9049Y74269D01*
X9130Y74288D01*
X9218Y74319D01*
X9312Y74356D01*
X9405Y74419D01*
X9493Y74500D01*
X9505Y74513D01*
X9530Y74544D01*
X9561Y74600D01*
X9605Y74669D01*
X9643Y74763D01*
X9680Y74869D01*
X9705Y74988D01*
X9712Y75125D01*
Y75131D01*
Y75144D01*
Y75163D01*
Y75188D01*
X9699Y75263D01*
X9686Y75350D01*
X9662Y75450D01*
X9624Y75556D01*
X9574Y75656D01*
X9505Y75756D01*
X9499Y75769D01*
X9468Y75794D01*
X9424Y75838D01*
X9362Y75881D01*
X9286Y75925D01*
X9199Y75969D01*
X9093Y75994D01*
X8974Y76006D01*
D02*
G37*
%LPD*%
D10*
X192913Y88583D02*
D03*
Y51181D02*
D03*
D11*
X177559Y209547D02*
D03*
D12*
X171653Y212598D02*
D03*
Y210630D02*
D03*
Y208661D02*
D03*
Y206693D02*
D03*
X183465D02*
D03*
Y208661D02*
D03*
Y210630D02*
D03*
Y212598D02*
D03*
D13*
X191043Y192520D02*
D03*
X200787Y153543D02*
D03*
D14*
X169390Y192520D02*
D03*
X191043Y179921D02*
D03*
X169390D02*
D03*
X179134Y140945D02*
D03*
X200787D02*
D03*
X179134Y153543D02*
D03*
D15*
X511811Y179724D02*
D03*
Y206102D02*
D03*
D16*
X252362Y193898D02*
D03*
X225984D02*
D03*
X70276Y61024D02*
D03*
X43898D02*
D03*
D17*
X463287Y238856D02*
D03*
Y231056D02*
D03*
Y223056D02*
D03*
Y215256D02*
D03*
Y207356D02*
D03*
X463387Y199456D02*
D03*
Y191656D02*
D03*
Y183756D02*
D03*
X401887Y183856D02*
D03*
Y191756D02*
D03*
Y199556D02*
D03*
Y207356D02*
D03*
Y215356D02*
D03*
Y223156D02*
D03*
Y231056D02*
D03*
Y238856D02*
D03*
D18*
X444287Y175656D02*
D03*
X452287D02*
D03*
X436487D02*
D03*
X428487D02*
D03*
X420687D02*
D03*
X412887D02*
D03*
D19*
X219882Y151772D02*
D03*
X212992D02*
D03*
X219882Y143602D02*
D03*
X212992D02*
D03*
X234744Y147638D02*
D03*
X241634D02*
D03*
X476870Y237402D02*
D03*
X483760D02*
D03*
X388484Y208651D02*
D03*
X381594D02*
D03*
X476870Y229921D02*
D03*
X483760D02*
D03*
Y185529D02*
D03*
X476870D02*
D03*
X388484Y216036D02*
D03*
X381594D02*
D03*
X483760Y215152D02*
D03*
X476870D02*
D03*
X483760Y222537D02*
D03*
X476870D02*
D03*
X483760Y192913D02*
D03*
X476870D02*
D03*
X483760Y200383D02*
D03*
X476870D02*
D03*
X388484Y223420D02*
D03*
X381594D02*
D03*
X388484Y230804D02*
D03*
X381594D02*
D03*
X353248Y105905D02*
D03*
X360138D02*
D03*
X262697Y221654D02*
D03*
X269587D02*
D03*
X38484Y110630D02*
D03*
X31594D02*
D03*
X38484Y125591D02*
D03*
X31594D02*
D03*
X38484Y140157D02*
D03*
X31594D02*
D03*
X221358Y67028D02*
D03*
X214469D02*
D03*
X259842Y38091D02*
D03*
X252953D02*
D03*
X360138Y127559D02*
D03*
X353248D02*
D03*
X464075Y45827D02*
D03*
X470965D02*
D03*
X464075Y53307D02*
D03*
X470965D02*
D03*
X353248Y119291D02*
D03*
X360138D02*
D03*
X304134Y224508D02*
D03*
X297244D02*
D03*
X221358Y75394D02*
D03*
X214469D02*
D03*
D20*
X119685Y64567D02*
D03*
X113583Y69193D02*
D03*
D21*
X156890Y64961D02*
D03*
X162008D02*
D03*
X141142D02*
D03*
X146260D02*
D03*
X125394D02*
D03*
X130512D02*
D03*
X89961D02*
D03*
X95079D02*
D03*
X162008Y133858D02*
D03*
X156890D02*
D03*
X146260D02*
D03*
X141142D02*
D03*
X130512D02*
D03*
X125394D02*
D03*
X95079D02*
D03*
X89961D02*
D03*
X269488Y235433D02*
D03*
X274606D02*
D03*
X238779Y234252D02*
D03*
X233661D02*
D03*
X389075Y116831D02*
D03*
X394193D02*
D03*
X401575D02*
D03*
X406693D02*
D03*
X202461Y188878D02*
D03*
X207579D02*
D03*
X202461Y184055D02*
D03*
X207579D02*
D03*
X130905Y205512D02*
D03*
X125787D02*
D03*
X352756Y69882D02*
D03*
X357874D02*
D03*
X352953Y142126D02*
D03*
X358071D02*
D03*
X352953Y112598D02*
D03*
X358071D02*
D03*
X352854Y95374D02*
D03*
X357972D02*
D03*
X233465Y81988D02*
D03*
X238583D02*
D03*
X233465Y104921D02*
D03*
X238583D02*
D03*
X235630Y155512D02*
D03*
X240748D02*
D03*
X42717Y43307D02*
D03*
X47835D02*
D03*
X233465Y70866D02*
D03*
X238583D02*
D03*
X233465Y76870D02*
D03*
X238583D02*
D03*
X220276Y158661D02*
D03*
X215158D02*
D03*
X220276Y137008D02*
D03*
X215158D02*
D03*
X221752Y60039D02*
D03*
X216634D02*
D03*
X221654Y81988D02*
D03*
X216535D02*
D03*
D22*
X69882Y157874D02*
D03*
Y162992D02*
D03*
X216142Y183661D02*
D03*
Y188779D02*
D03*
X262795Y196457D02*
D03*
Y191339D02*
D03*
X288583Y165059D02*
D03*
Y170177D02*
D03*
X307087Y165059D02*
D03*
Y170177D02*
D03*
X332874Y51673D02*
D03*
Y46555D02*
D03*
X309744Y51673D02*
D03*
Y46555D02*
D03*
X290846Y51673D02*
D03*
Y46555D02*
D03*
X264665Y51673D02*
D03*
Y46555D02*
D03*
D23*
X380906Y237795D02*
D03*
X388386D02*
D03*
X248327Y221358D02*
D03*
X255807D02*
D03*
X312402Y246850D02*
D03*
X319882D02*
D03*
X360827Y135458D02*
D03*
X353346D02*
D03*
X241929Y139764D02*
D03*
X234449D02*
D03*
D24*
X284252Y249803D02*
D03*
Y242323D02*
D03*
X248819Y264370D02*
D03*
Y256890D02*
D03*
X255512Y264370D02*
D03*
Y256890D02*
D03*
X89567Y214764D02*
D03*
Y222244D02*
D03*
X339370Y47146D02*
D03*
Y54626D02*
D03*
D25*
X388878Y188583D02*
D03*
Y199606D02*
D03*
X381496Y188583D02*
D03*
Y199606D02*
D03*
X132283Y196457D02*
D03*
Y185433D02*
D03*
X124409Y196457D02*
D03*
Y185433D02*
D03*
X478346Y37559D02*
D03*
Y26535D02*
D03*
X486221Y37559D02*
D03*
Y26535D02*
D03*
D26*
X323721Y238681D02*
D03*
X334744D02*
D03*
X274803Y229525D02*
D03*
X263779D02*
D03*
D27*
X49606Y222239D02*
D03*
X60630D02*
D03*
X49606Y234151D02*
D03*
X60630D02*
D03*
X49606Y246063D02*
D03*
X60630D02*
D03*
D28*
X395079Y99508D02*
D03*
X400984D02*
D03*
X395079Y105610D02*
D03*
X400984D02*
D03*
X35433Y165354D02*
D03*
X29528D02*
D03*
X35433Y148622D02*
D03*
X29528D02*
D03*
X329626Y225984D02*
D03*
X335531D02*
D03*
D29*
X360039Y53642D02*
D03*
Y47736D02*
D03*
D30*
X394685Y126969D02*
D03*
X391339D02*
D03*
X404429D02*
D03*
X401083D02*
D03*
D31*
X281890Y165453D02*
D03*
Y172343D02*
D03*
X284252Y257579D02*
D03*
Y264469D02*
D03*
X276772Y257579D02*
D03*
Y264469D02*
D03*
X269291Y257579D02*
D03*
Y264469D02*
D03*
X352362Y54232D02*
D03*
Y47343D02*
D03*
X106299Y194390D02*
D03*
Y187500D02*
D03*
X98425Y194390D02*
D03*
Y187500D02*
D03*
X114173D02*
D03*
Y194390D02*
D03*
X90551D02*
D03*
Y187500D02*
D03*
X82677Y194390D02*
D03*
Y187500D02*
D03*
X313779Y165453D02*
D03*
Y172343D02*
D03*
X270669Y197343D02*
D03*
Y190453D02*
D03*
X72146Y24311D02*
D03*
Y31201D02*
D03*
X62205Y24213D02*
D03*
Y31102D02*
D03*
X278543Y197343D02*
D03*
Y190453D02*
D03*
D32*
X309744Y238484D02*
D03*
X298917D02*
D03*
X172146Y222441D02*
D03*
X182973D02*
D03*
D33*
X126378Y214272D02*
D03*
Y225098D02*
D03*
D34*
X511811Y161713D02*
D03*
X66634Y132874D02*
D03*
X359252Y17717D02*
D03*
D35*
X17618Y226279D02*
D03*
X92520Y39370D02*
D03*
D36*
X478346Y164173D02*
D03*
X492126D02*
D03*
X427165Y153543D02*
D03*
X452756D02*
D03*
X369587Y50689D02*
D03*
X364173Y198327D02*
D03*
X407480Y50689D02*
D03*
X393701D02*
D03*
D37*
X14764Y103347D02*
D03*
Y118110D02*
D03*
Y132874D02*
D03*
Y148622D02*
D03*
Y165354D02*
D03*
X197638Y222441D02*
D03*
X147638Y208268D02*
D03*
Y192913D02*
D03*
Y222441D02*
D03*
X14961Y44882D02*
D03*
Y59055D02*
D03*
D38*
X43307Y194675D02*
D03*
X68504Y184675D02*
D03*
Y204675D02*
D03*
D39*
X225179Y263581D02*
D03*
Y245081D02*
D03*
D40*
X94290Y250000D02*
D03*
X116340D02*
D03*
D41*
X219882Y98819D02*
D03*
Y101969D02*
D03*
X213189Y98819D02*
D03*
Y101969D02*
D03*
X219882Y118504D02*
D03*
Y121653D02*
D03*
X213189Y118504D02*
D03*
Y121653D02*
D03*
X255315Y167717D02*
D03*
Y170866D02*
D03*
X248622Y167717D02*
D03*
Y170866D02*
D03*
X485630Y100354D02*
D03*
Y103504D02*
D03*
X478937Y100354D02*
D03*
Y103504D02*
D03*
X485630Y82638D02*
D03*
Y85787D02*
D03*
X478937Y82638D02*
D03*
Y85787D02*
D03*
X485630Y64921D02*
D03*
Y68071D02*
D03*
X478937Y64921D02*
D03*
Y68071D02*
D03*
D42*
X219882Y95295D02*
D03*
Y105492D02*
D03*
X213189Y95295D02*
D03*
Y105492D02*
D03*
X219882Y114980D02*
D03*
Y125177D02*
D03*
X213189Y114980D02*
D03*
Y125177D02*
D03*
X255315Y164193D02*
D03*
Y174390D02*
D03*
X248622Y164193D02*
D03*
Y174390D02*
D03*
X485630Y96831D02*
D03*
Y107027D02*
D03*
X478937Y96831D02*
D03*
Y107027D02*
D03*
X485630Y79114D02*
D03*
Y89311D02*
D03*
X478937Y79114D02*
D03*
Y89311D02*
D03*
X485630Y61398D02*
D03*
Y71595D02*
D03*
X478937Y61398D02*
D03*
Y71595D02*
D03*
D43*
X296850Y36811D02*
D03*
X293701D02*
D03*
X296850Y30118D02*
D03*
X293701D02*
D03*
X277165Y36811D02*
D03*
X274016D02*
D03*
X277165Y30118D02*
D03*
X274016D02*
D03*
D44*
X300374Y36811D02*
D03*
X290177D02*
D03*
X300374Y30118D02*
D03*
X290177D02*
D03*
X280689Y36811D02*
D03*
X270492D02*
D03*
X280689Y30118D02*
D03*
X270492D02*
D03*
D45*
X294291Y187992D02*
D03*
Y208992D02*
D03*
X304291Y187992D02*
D03*
Y208992D02*
D03*
X314291Y187992D02*
D03*
Y208992D02*
D03*
X324291Y187992D02*
D03*
Y208992D02*
D03*
X334291Y187992D02*
D03*
Y208992D02*
D03*
X344291Y187992D02*
D03*
Y208992D02*
D03*
D46*
X389173Y145177D02*
D03*
Y142618D02*
D03*
Y140059D02*
D03*
Y137500D02*
D03*
X406496Y145177D02*
D03*
Y142618D02*
D03*
Y140059D02*
D03*
Y137500D02*
D03*
X197047Y207579D02*
D03*
Y205020D02*
D03*
Y202461D02*
D03*
Y199902D02*
D03*
X214370Y207579D02*
D03*
Y205020D02*
D03*
Y202461D02*
D03*
Y199902D02*
D03*
D47*
X84547Y169095D02*
D03*
X81988D02*
D03*
X79429D02*
D03*
X76870D02*
D03*
X84547Y151772D02*
D03*
X81988D02*
D03*
X79429D02*
D03*
X76870D02*
D03*
D48*
X82087Y76772D02*
D03*
X85236D02*
D03*
X88386D02*
D03*
X91535D02*
D03*
X94685D02*
D03*
X97835D02*
D03*
X100984D02*
D03*
X104134D02*
D03*
X107283D02*
D03*
X110433D02*
D03*
X113583D02*
D03*
X116732D02*
D03*
X119882D02*
D03*
X123031D02*
D03*
X126181D02*
D03*
X129331D02*
D03*
X132480D02*
D03*
X135630D02*
D03*
X138779D02*
D03*
X141929D02*
D03*
X145079D02*
D03*
X148228D02*
D03*
X151378D02*
D03*
X154528D02*
D03*
X157677D02*
D03*
X160827D02*
D03*
X163976D02*
D03*
X82087Y122047D02*
D03*
X85236D02*
D03*
X88386D02*
D03*
X91535D02*
D03*
X94685D02*
D03*
X97835D02*
D03*
X100984D02*
D03*
X104134D02*
D03*
X107283D02*
D03*
X110433D02*
D03*
X113583D02*
D03*
X116732D02*
D03*
X119882D02*
D03*
X123031D02*
D03*
X126181D02*
D03*
X129331D02*
D03*
X132480D02*
D03*
X135630D02*
D03*
X138779D02*
D03*
X141929D02*
D03*
X145079D02*
D03*
X148228D02*
D03*
X151378D02*
D03*
X154528D02*
D03*
X157677D02*
D03*
X160827D02*
D03*
X163976D02*
D03*
D49*
X248031Y231004D02*
D03*
X250000D02*
D03*
X251969D02*
D03*
X253937D02*
D03*
X255906D02*
D03*
X248031Y248524D02*
D03*
X250000D02*
D03*
X251969D02*
D03*
X253937D02*
D03*
X255906D02*
D03*
D50*
X251969Y239764D02*
D03*
D51*
X260827Y150886D02*
D03*
X262795D02*
D03*
X264764D02*
D03*
X266732D02*
D03*
X268701D02*
D03*
X270669D02*
D03*
X272638D02*
D03*
X274606D02*
D03*
X276575D02*
D03*
X278543D02*
D03*
X280512D02*
D03*
X282480D02*
D03*
X284449D02*
D03*
X286417D02*
D03*
X288386D02*
D03*
X290354D02*
D03*
X292323D02*
D03*
X294291D02*
D03*
X296260D02*
D03*
X298228D02*
D03*
X300197D02*
D03*
X302165D02*
D03*
X304134D02*
D03*
X306102D02*
D03*
X308071D02*
D03*
X310039D02*
D03*
X312008D02*
D03*
X313976D02*
D03*
X315945D02*
D03*
X317913D02*
D03*
X319882D02*
D03*
X321850D02*
D03*
X323819D02*
D03*
X325787D02*
D03*
X327756D02*
D03*
X329724D02*
D03*
Y65650D02*
D03*
X327756D02*
D03*
X325787D02*
D03*
X323819D02*
D03*
X321850D02*
D03*
X319882D02*
D03*
X317913D02*
D03*
X315945D02*
D03*
X313976D02*
D03*
X312008D02*
D03*
X310039D02*
D03*
X308071D02*
D03*
X306102D02*
D03*
X304134D02*
D03*
X302165D02*
D03*
X300197D02*
D03*
X298228D02*
D03*
X296260D02*
D03*
X294291D02*
D03*
X292323D02*
D03*
X290354D02*
D03*
X288386D02*
D03*
X286417D02*
D03*
X284449D02*
D03*
X282480D02*
D03*
X280512D02*
D03*
X278543D02*
D03*
X276575D02*
D03*
X274606D02*
D03*
X272638D02*
D03*
X270669D02*
D03*
X268701D02*
D03*
X266732D02*
D03*
X264764D02*
D03*
X262795D02*
D03*
X260827D02*
D03*
D52*
X337894Y142717D02*
D03*
Y140748D02*
D03*
Y138779D02*
D03*
Y136811D02*
D03*
Y134843D02*
D03*
Y132874D02*
D03*
Y130905D02*
D03*
Y128937D02*
D03*
Y126969D02*
D03*
Y125000D02*
D03*
Y123031D02*
D03*
Y121063D02*
D03*
Y119095D02*
D03*
Y117126D02*
D03*
Y115157D02*
D03*
Y113189D02*
D03*
Y111221D02*
D03*
Y109252D02*
D03*
Y107283D02*
D03*
Y105315D02*
D03*
Y103347D02*
D03*
Y101378D02*
D03*
Y99410D02*
D03*
Y97441D02*
D03*
Y95472D02*
D03*
Y93504D02*
D03*
Y91535D02*
D03*
Y89567D02*
D03*
Y87598D02*
D03*
Y85630D02*
D03*
Y83661D02*
D03*
Y81693D02*
D03*
Y79724D02*
D03*
Y77756D02*
D03*
Y75787D02*
D03*
Y73819D02*
D03*
X252658D02*
D03*
Y75787D02*
D03*
Y77756D02*
D03*
Y79724D02*
D03*
Y81693D02*
D03*
Y83661D02*
D03*
Y85630D02*
D03*
Y87598D02*
D03*
Y89567D02*
D03*
Y91535D02*
D03*
Y93504D02*
D03*
Y95472D02*
D03*
Y97441D02*
D03*
Y99410D02*
D03*
Y101378D02*
D03*
Y103347D02*
D03*
Y105315D02*
D03*
Y107283D02*
D03*
Y109252D02*
D03*
Y111221D02*
D03*
Y113189D02*
D03*
Y115157D02*
D03*
Y117126D02*
D03*
Y119095D02*
D03*
Y121063D02*
D03*
Y123031D02*
D03*
Y125000D02*
D03*
Y126969D02*
D03*
Y128937D02*
D03*
Y130905D02*
D03*
Y132874D02*
D03*
Y134843D02*
D03*
Y136811D02*
D03*
Y138779D02*
D03*
Y140748D02*
D03*
Y142717D02*
D03*
D53*
X50394Y260827D02*
D03*
X65748D02*
D03*
D54*
X77756Y249505D02*
D03*
Y234151D02*
D03*
D55*
X358071Y222244D02*
D03*
Y229724D02*
D03*
X348228Y225984D02*
D03*
X358071Y236417D02*
D03*
Y243898D02*
D03*
X348228Y240158D02*
D03*
D56*
X81496Y225394D02*
D03*
X74016D02*
D03*
X77756Y215551D02*
D03*
D57*
X108268Y213386D02*
D03*
D58*
X114665Y222146D02*
D03*
X112106D02*
D03*
X109547D02*
D03*
X106988D02*
D03*
X104429D02*
D03*
X101870D02*
D03*
X114665Y204626D02*
D03*
X112106D02*
D03*
X109547D02*
D03*
X106988D02*
D03*
X104429D02*
D03*
X101870D02*
D03*
D59*
X8268Y80709D02*
X74410D01*
X24508Y55905D02*
X45079Y35335D01*
X18110Y55905D02*
X24508D01*
X14961Y59055D02*
X18110Y55905D01*
X497638Y157752D02*
Y173425D01*
X491732Y179331D02*
X497638Y173425D01*
X491732Y179331D02*
Y202756D01*
X158858Y187303D02*
Y191535D01*
X147244Y175689D02*
X158858Y187303D01*
X116027Y175689D02*
X147244D01*
X281472Y246161D02*
X286835D01*
X276772Y250862D02*
Y253937D01*
Y250862D02*
X281472Y246161D01*
X288976Y183110D02*
Y244020D01*
X286835Y246161D02*
X288976Y244020D01*
X329724Y150886D02*
Y169193D01*
X319069Y179848D02*
X329724Y169193D01*
X301648Y179848D02*
X319069D01*
X334055Y128937D02*
X337894D01*
X331505Y131487D02*
X334055Y128937D01*
X331505Y131487D02*
Y136705D01*
X334252Y136811D02*
X337894D01*
X333071Y137992D02*
X334252Y136811D01*
X333071Y137992D02*
Y145866D01*
X323819Y145935D02*
Y150886D01*
X268701Y143210D02*
X303643Y108268D01*
X271358Y190453D02*
X274803Y187008D01*
X271063Y183268D02*
X274803Y187008D01*
X271063Y169980D02*
Y183268D01*
X274724Y187087D02*
X285550D01*
X263681Y190453D02*
X271358D01*
X234842Y151181D02*
X236694Y153032D01*
X234842Y149606D02*
Y151181D01*
X233858Y148622D02*
X234842Y149606D01*
X236694Y153032D02*
X238268D01*
X240748Y155512D01*
X233858Y148622D02*
X234842Y147638D01*
X397853Y102639D02*
X400984Y99508D01*
X397853Y102639D02*
Y113170D01*
X68701Y61024D02*
X70276D01*
X50984Y43307D02*
X68701Y61024D01*
X47835Y43307D02*
X50984D01*
X386319Y145177D02*
X389173D01*
X382347Y141206D02*
X386319Y145177D01*
X382347Y135960D02*
Y141206D01*
Y135960D02*
X391339Y126969D01*
X415128Y142520D02*
X433465D01*
X413519Y140910D02*
X415128Y142520D01*
X411811Y142618D02*
X413519Y140910D01*
X406496Y142618D02*
X411811D01*
X404429Y126969D02*
X413519Y136058D01*
Y140910D01*
X433465Y142520D02*
X444488Y153543D01*
X410138Y137500D02*
X411319Y138681D01*
X406496Y137500D02*
X410138D01*
X384547Y138681D02*
Y138779D01*
Y138681D02*
X385728Y137500D01*
X389173D01*
X117520Y9449D02*
X224410D01*
X104994Y21974D02*
X117520Y9449D01*
X89050Y21974D02*
X104994D01*
X118307Y11614D02*
X223464D01*
X102913Y27008D02*
X118307Y11614D01*
X101831Y27008D02*
X102913D01*
X119120Y13484D02*
X223071D01*
X101969Y30636D02*
X119120Y13484D01*
X116473Y7249D02*
X225950D01*
X103348Y20374D02*
X116473Y7249D01*
X83661Y20374D02*
X103348D01*
X45079Y35335D02*
X62205D01*
X32579Y44882D02*
X49803Y27657D01*
X14961Y44882D02*
X32579D01*
X49803Y27657D02*
X68602D01*
X154232Y36909D02*
X247933D01*
X144685Y46457D02*
X154232Y36909D01*
X208071Y102953D02*
X209055Y101969D01*
X176673Y102953D02*
X208071D01*
X163386Y89665D02*
X176673Y102953D01*
X209055Y101969D02*
X213189D01*
X209764Y105492D02*
X213189D01*
X208465Y106791D02*
X209764Y105492D01*
X175000Y106791D02*
X208465D01*
X209862Y114980D02*
X213189D01*
X206102Y111221D02*
X209862Y114980D01*
X174016Y111221D02*
X206102D01*
X209252Y118504D02*
X213189D01*
X205906Y115157D02*
X209252Y118504D01*
X172736Y115157D02*
X205906D01*
X208661Y121653D02*
X213189D01*
X207382Y120374D02*
X208661Y121653D01*
X172835Y120374D02*
X207382D01*
X158071Y105610D02*
X172835Y120374D01*
X172716Y125177D02*
X213189D01*
X156791Y109252D02*
X172716Y125177D01*
X106122Y109252D02*
X156791D01*
X105512Y105610D02*
X158071D01*
X159843Y102264D02*
X172736Y115157D01*
X104921Y102264D02*
X159843D01*
X160433Y97638D02*
X174016Y111221D01*
X105217Y97638D02*
X160433D01*
X161811Y93602D02*
X175000Y106791D01*
X95669Y93602D02*
X161811D01*
X98425Y89665D02*
X163386D01*
X279232Y23327D02*
X280689Y24783D01*
X143247Y23327D02*
X279232D01*
X94685Y71889D02*
X143247Y23327D01*
X272933Y26280D02*
X274016Y27362D01*
X254823Y26280D02*
X272933D01*
X253346Y27756D02*
X254823Y26280D01*
X274016Y27362D02*
Y30118D01*
X389075Y95374D02*
Y116831D01*
X406693D02*
X406988Y116535D01*
Y94980D02*
Y116535D01*
X364011Y79690D02*
X369365Y74336D01*
X364011Y79690D02*
Y115478D01*
X347631Y93609D02*
X368504Y72736D01*
X347631Y93609D02*
Y100597D01*
X368504Y72736D02*
X387303D01*
X444488Y153543D02*
X452756D01*
X389075Y116831D02*
X391339Y119095D01*
Y126969D01*
X404429Y119095D02*
X406693Y116831D01*
X404429Y119095D02*
Y126969D01*
X389173Y137500D02*
Y140059D01*
X394685Y126969D02*
Y139961D01*
X392028Y142618D02*
X394685Y139961D01*
X389173Y142618D02*
X392028D01*
X401083Y126969D02*
Y137894D01*
X403248Y140059D01*
X406496D01*
X401673Y114961D02*
Y116732D01*
X399803Y113091D02*
X401673Y114961D01*
X399803Y106791D02*
Y113091D01*
Y106791D02*
X400984Y105610D01*
X394193Y116831D02*
X397853Y113170D01*
X401083Y117323D02*
X401575Y116831D01*
X401083Y117323D02*
Y126969D01*
X394193Y116831D02*
X394685Y117323D01*
Y126969D01*
X401575Y116831D02*
X401673Y116732D01*
X394882Y99508D02*
X395079D01*
X391831Y102559D02*
X394882Y99508D01*
X391831Y102559D02*
X392028D01*
X395079Y105610D01*
X408465Y49705D02*
X412303D01*
X407480Y50689D02*
X408465Y49705D01*
X393701Y50689D02*
X398524D01*
X474902Y45827D02*
X490748D01*
X470965D02*
X474902D01*
Y53307D02*
X490158D01*
X470965D02*
X474902D01*
X342932Y29940D02*
Y57757D01*
X334646Y21654D02*
X342932Y29940D01*
X344685Y28150D02*
Y58858D01*
X334252Y17717D02*
X344685Y28150D01*
X341634Y61910D02*
X344685Y58858D01*
X341634Y61910D02*
Y72835D01*
X274508Y126181D02*
X342932Y57757D01*
X340650Y73819D02*
X341634Y72835D01*
X337894Y73819D02*
X340650D01*
X369587Y50689D02*
X374410D01*
X360039Y44882D02*
Y47736D01*
X369587Y50689D02*
Y53937D01*
X366732Y56791D02*
X369587Y53937D01*
X355610Y56791D02*
X366732D01*
X353051Y54232D02*
X355610Y56791D01*
X352362Y54232D02*
X353051D01*
X353740Y47343D02*
X360039Y53642D01*
X352362Y47343D02*
X353740D01*
X247146Y93504D02*
X252658D01*
X246260Y94390D02*
X247146Y93504D01*
X360198Y119291D02*
X364011Y115478D01*
X360138Y119291D02*
X360198D01*
X337894Y75787D02*
X342647D01*
X346584Y71850D01*
Y66508D02*
Y71850D01*
Y66508D02*
X351627Y61465D01*
X409128Y63065D02*
X413071Y67008D01*
X352290Y63065D02*
X409128D01*
X348184Y67171D02*
X352290Y63065D01*
X348184Y67171D02*
Y72781D01*
X343210Y77756D02*
X348184Y72781D01*
X337894Y77756D02*
X343210D01*
X349784Y67834D02*
Y73444D01*
X343692Y79537D02*
X349784Y73444D01*
X338082Y79537D02*
X343692D01*
X349784Y67834D02*
X352953Y64665D01*
X400787D02*
X403071Y66949D01*
X352953Y64665D02*
X400787D01*
X337894Y79724D02*
X338082Y79537D01*
X387303Y72736D02*
X393071Y66969D01*
X367520Y70965D02*
X379134D01*
X346949Y91535D02*
X367520Y70965D01*
X337894Y91535D02*
X346949D01*
X346654Y89567D02*
X369232Y66988D01*
X337894Y89567D02*
X346654D01*
X363071Y67008D02*
Y70886D01*
X346358Y87598D02*
X363071Y70886D01*
X337894Y87598D02*
X346358D01*
X369232Y66988D02*
X373071D01*
X379134Y70965D02*
X383071Y67027D01*
X474843Y71653D02*
X474902Y71595D01*
X478937D01*
X226810Y14961D02*
X232283D01*
X223464Y11614D02*
X226810Y14961D01*
X227303Y17717D02*
X236221D01*
X223071Y13484D02*
X227303Y17717D01*
X225950Y7249D02*
X228346Y9646D01*
X62205Y35335D02*
X75689D01*
X62205Y31102D02*
Y35335D01*
X75689D02*
X89050Y21974D01*
X228346Y9646D02*
Y12205D01*
X72835Y31201D02*
X83661Y20374D01*
X72146Y31201D02*
X72835D01*
X72146D02*
X72538Y30809D01*
X244094Y41339D02*
Y45669D01*
X240158Y60631D02*
X246212Y66685D01*
X236221Y58957D02*
X244612Y67348D01*
Y70959D01*
X246212Y66685D02*
Y69850D01*
X250181Y73819D01*
X244612Y70959D02*
X249253Y75600D01*
X243012Y71653D02*
X248927Y77568D01*
X243012Y68209D02*
Y71653D01*
X232283Y57480D02*
X243012Y68209D01*
X232283Y41339D02*
Y57480D01*
X240158Y41339D02*
Y60631D01*
X236221Y41339D02*
Y58957D01*
X244094Y45669D02*
X260827Y62402D01*
X249114Y38091D02*
X252953D01*
X247933Y36909D02*
X249114Y38091D01*
X351181Y17815D02*
X351279Y17717D01*
X359252D01*
X89518Y153297D02*
X113666Y177446D01*
X31594Y110039D02*
Y110630D01*
Y124902D02*
X34941Y121555D01*
X31594Y124902D02*
Y125591D01*
Y139567D02*
X34960Y136202D01*
X31594Y139567D02*
Y140157D01*
X89567Y149229D02*
X116027Y175689D01*
X86554Y146216D02*
X89567Y149229D01*
X89468Y158366D02*
X110148Y179046D01*
X84547Y153445D02*
X89468Y158366D01*
X86594Y150373D02*
X89518Y153297D01*
X143898Y167224D02*
X241142D01*
X107283Y130610D02*
X143898Y167224D01*
X113666Y177446D02*
X146367D01*
X86594Y148519D02*
Y150373D01*
X82499Y147816D02*
X85891D01*
X81988Y148327D02*
X82499Y147816D01*
X81988Y148327D02*
Y151772D01*
X81147Y146216D02*
X86554D01*
X79429Y147933D02*
X81147Y146216D01*
X85891Y147816D02*
X86594Y148519D01*
X79429Y147933D02*
Y151772D01*
X84547Y150394D02*
Y153445D01*
X157131Y188210D02*
Y194335D01*
X146367Y177446D02*
X157131Y188210D01*
X155531Y188873D02*
Y196954D01*
X145704Y179046D02*
X155531Y188873D01*
X110148Y179046D02*
X145704D01*
X158858Y191535D02*
X170472Y203150D01*
X165270Y206693D02*
X171653D01*
X155531Y196954D02*
X165270Y206693D01*
X111320Y182480D02*
X115945D01*
X106694Y177854D02*
X111320Y182480D01*
X140454Y192913D02*
X147638D01*
X45079Y177854D02*
X106694D01*
X140349Y192809D02*
X140454Y192913D01*
X140250Y192809D02*
X140349D01*
X138386Y190945D02*
X140250Y192809D01*
X157131Y194335D02*
X166043Y203248D01*
X171653Y205512D02*
X173622Y203543D01*
X171653Y205512D02*
Y206693D01*
X173622Y203543D02*
X185336D01*
X193018Y211225D01*
X209055Y201279D02*
X210433Y199902D01*
X208957Y206299D02*
X210236Y205020D01*
X214370D01*
X210433Y199902D02*
X214370D01*
X185828Y208661D02*
X191592Y214425D01*
X193018Y211225D02*
X200963D01*
X192254Y212825D02*
X201626D01*
X186122Y206693D02*
X192254Y212825D01*
X191592Y214425D02*
X202288D01*
X336910Y149705D02*
Y165177D01*
X319193Y182894D02*
X336910Y165177D01*
X333071Y145866D02*
X336910Y149705D01*
X333366Y149342D02*
Y152953D01*
X331471Y147447D02*
X333366Y149342D01*
X281988Y179429D02*
Y182185D01*
Y179429D02*
X285531Y175886D01*
X275261Y182972D02*
X276772Y184484D01*
X275261Y165464D02*
Y182972D01*
X285742Y178852D02*
X288529D01*
X245768Y167717D02*
X248622D01*
X241043Y162992D02*
X245768Y167717D01*
X147343Y162992D02*
X241043D01*
X244783Y170866D02*
X248622D01*
X241142Y167224D02*
X244783Y170866D01*
X119587Y135236D02*
X147343Y162992D01*
X244528Y174409D02*
X244547Y174390D01*
X248622D01*
X41634Y174409D02*
X45079Y177854D01*
X41634Y149114D02*
Y174409D01*
X38091Y145571D02*
X41634Y149114D01*
X32579Y145571D02*
X38091D01*
X29528Y148622D02*
X32579Y145571D01*
X29528Y177264D02*
X31201Y178937D01*
X29528Y165354D02*
Y177264D01*
X38880Y152069D02*
Y180324D01*
X35433Y148622D02*
X38880Y152069D01*
X35433Y181004D02*
X36319Y181890D01*
X35433Y165354D02*
Y181004D01*
X92520Y47343D02*
X92618Y47441D01*
X92520Y39370D02*
Y47343D01*
X68602Y27657D02*
X72146Y31201D01*
Y13799D02*
X72165Y13780D01*
X72146Y13799D02*
Y24311D01*
X62165Y13780D02*
X62205Y13819D01*
Y24213D01*
X43898Y47244D02*
Y61024D01*
X42717Y46063D02*
X43898Y47244D01*
X42717Y43307D02*
Y46063D01*
X295383Y175008D02*
X295388D01*
X295276Y174902D02*
X295383Y175008D01*
X295276Y155908D02*
Y174902D01*
X288976Y183110D02*
X293838Y178248D01*
X293170Y156065D02*
Y174212D01*
X291339Y161576D02*
Y173781D01*
X289233Y175886D02*
X291339Y173781D01*
X285531Y175886D02*
X289233D01*
X288529Y178852D02*
X293170Y174212D01*
X285742Y178847D02*
Y178852D01*
X42126Y110630D02*
X42224Y110531D01*
X38484Y110630D02*
X42126D01*
Y140157D02*
X42224Y140059D01*
X38484Y140157D02*
X42126D01*
X38484Y125591D02*
X42028D01*
X25197Y110630D02*
X31594D01*
X17913Y103347D02*
X25197Y110630D01*
X14764Y103347D02*
X17913D01*
X25295Y125591D02*
X31594D01*
X17815Y118110D02*
X25295Y125591D01*
X14764Y118110D02*
X17815D01*
X25098Y140157D02*
X31594D01*
X17815Y132874D02*
X25098Y140157D01*
X14764Y132874D02*
X17815D01*
X81988Y172539D02*
X83169Y173721D01*
X81988Y169095D02*
Y172539D01*
X78248Y173721D02*
X79429Y172539D01*
Y169095D02*
Y172539D01*
X14764Y148622D02*
X29528D01*
X14764Y165354D02*
X29528D01*
X278321Y158392D02*
Y159376D01*
X263307Y174390D02*
X278321Y159376D01*
X255315Y174390D02*
X263307D01*
X276575Y150886D02*
Y158131D01*
X263840Y170866D02*
X276575Y158131D01*
X255315Y170866D02*
X263840D01*
X271654Y159941D02*
X274606Y156988D01*
X277461Y172441D02*
X280610D01*
X281201Y173031D01*
X281890Y172343D01*
X278543Y190453D02*
X282776D01*
X274606Y201279D02*
X278543Y197343D01*
X270669D02*
X274606Y201279D01*
X259941Y196358D02*
X260039Y196457D01*
X262795D01*
X260236Y193898D02*
X262795Y191339D01*
X252362Y193898D02*
X260236D01*
X262795Y191339D02*
X263681Y190453D01*
X319193Y182894D02*
Y190945D01*
X299311Y182185D02*
X301648Y179848D01*
X299311Y182185D02*
Y191240D01*
X313779Y172343D02*
X318504D01*
X374645Y194095D02*
X391634D01*
X369252Y172402D02*
Y188702D01*
X374645Y194095D01*
X470866Y216533D02*
X476870Y222537D01*
X359941Y227854D02*
X361319D01*
X358071Y229724D02*
X359941Y227854D01*
X360143Y224625D02*
X362598Y222169D01*
X359825Y224625D02*
X360143D01*
X358466Y225984D02*
X359825Y224625D01*
X348228Y225984D02*
X358466D01*
X362598Y220866D02*
Y222169D01*
Y220866D02*
X376969Y206496D01*
X384129Y204296D02*
X388484Y208651D01*
X358071Y222244D02*
X376019Y204296D01*
X384129D01*
X353839Y189665D02*
X358760D01*
X364173Y195079D01*
Y198327D01*
X467440Y49351D02*
Y58938D01*
X465354Y61024D02*
X467440Y58938D01*
X465354Y61024D02*
Y68504D01*
X467440Y49351D02*
X470965Y45827D01*
X427165Y106693D02*
X465354Y68504D01*
X433071Y110787D02*
X471654Y72205D01*
Y66929D02*
Y72205D01*
Y66929D02*
X473661Y64921D01*
X478937D01*
X433071Y110787D02*
Y139764D01*
X473228Y75197D02*
X490158D01*
X437008Y111417D02*
X473228Y75197D01*
X437008Y111417D02*
Y124016D01*
X490158Y75197D02*
X503858Y61496D01*
X363386Y127559D02*
X366142Y124803D01*
X360138Y127559D02*
X363386D01*
X485630Y79114D02*
X490571D01*
X485630Y82638D02*
X491378D01*
X485630Y85787D02*
X491772D01*
X498465Y83031D02*
X523465D01*
X492185Y89311D02*
X498465Y83031D01*
X485630Y89311D02*
X492185D01*
X485630Y96831D02*
X489390D01*
X485630Y100354D02*
X490984D01*
X485630Y103504D02*
X492165D01*
X474803Y68110D02*
X474843Y68071D01*
X478937D01*
X475630Y82638D02*
X478937D01*
X444882Y113386D02*
X475630Y82638D01*
X444882Y113386D02*
Y124016D01*
X440945Y112205D02*
Y124016D01*
Y112205D02*
X474035Y79114D01*
X478937D01*
X485630Y107027D02*
X493169D01*
X475020Y96831D02*
X478937D01*
X460630Y111221D02*
X475020Y96831D01*
X460630Y111221D02*
Y124016D01*
X477205Y85787D02*
X478937D01*
X452756Y110236D02*
X477205Y85787D01*
X452756Y110236D02*
Y131890D01*
X478012Y89311D02*
X478937D01*
X456693Y110630D02*
X478012Y89311D01*
X456693Y110630D02*
Y127953D01*
X146063Y27756D02*
X253346D01*
X258366Y30118D02*
X270492D01*
X256176Y32309D02*
X258366Y30118D01*
X200787Y153543D02*
X202559Y151772D01*
X212992D01*
X207579Y143602D02*
X212992D01*
X204921Y140945D02*
X207579Y143602D01*
X200787Y140945D02*
X204921D01*
X303643Y108268D02*
X322835D01*
X301969Y112205D02*
X322835D01*
X270704Y143469D02*
X301969Y112205D01*
X292382Y59311D02*
Y65590D01*
X280689Y47618D02*
X292382Y59311D01*
X13780Y186693D02*
X13780Y186693D01*
X364961Y131658D02*
Y131890D01*
X361392Y135458D02*
X364961Y131890D01*
X360827Y135458D02*
X361392D01*
X353321Y135433D02*
X353346Y135458D01*
X353248Y119291D02*
Y119547D01*
X347795Y125000D02*
X353248Y119547D01*
X337894Y125000D02*
X347795D01*
X352658Y126969D02*
X353248Y127559D01*
X337894Y126969D02*
X352658D01*
X514961Y188878D02*
X517126Y186713D01*
X509842Y188878D02*
X514961D01*
X493405Y205315D02*
X509842Y188878D01*
X483760Y200197D02*
Y200383D01*
Y200197D02*
X487402Y196555D01*
X483760Y192913D02*
X487402Y196555D01*
X466069Y207356D02*
X470472Y202953D01*
Y200295D02*
Y202953D01*
X463287Y207356D02*
X466069D01*
X474026Y197539D02*
X476870Y200383D01*
X463387Y199456D02*
X466784D01*
X476673Y193110D02*
X476870Y192913D01*
X471951Y185529D02*
X476870D01*
X465824Y191656D02*
X471951Y185529D01*
X463387Y191656D02*
X465824D01*
X381506Y208563D02*
X381594Y208651D01*
X401623Y223420D02*
X401887Y223156D01*
X388484Y223420D02*
X401623D01*
X388386Y230903D02*
X388484Y230804D01*
X388386Y230903D02*
Y237795D01*
X394761Y238856D02*
X401887D01*
X393701Y237795D02*
X394761Y238856D01*
X388386Y237795D02*
X393701D01*
X377756Y223524D02*
X377859Y223420D01*
X381594D01*
X377854Y230709D02*
X377950Y230804D01*
X381594D01*
X377067Y237795D02*
X380906D01*
X514843Y229921D02*
X538386Y206378D01*
X483760Y229921D02*
X514843D01*
X517362Y237402D02*
X538386Y216378D01*
X483760Y237402D02*
X517362D01*
X473130Y215158D02*
X473135Y215152D01*
X476870D01*
X487699Y185529D02*
X487795Y185433D01*
X483760Y185529D02*
X487699D01*
X472047Y229921D02*
X476870D01*
X470913Y231056D02*
X472047Y229921D01*
X463287Y231056D02*
X470913D01*
X472441Y237402D02*
X476870D01*
X470987Y238856D02*
X472441Y237402D01*
X463287Y238856D02*
X470987D01*
X117126Y222146D02*
X121358Y217913D01*
X114665Y222146D02*
X117126D01*
X68504Y204675D02*
X70866Y202312D01*
Y200787D02*
Y202312D01*
X183465Y212598D02*
Y221949D01*
X115458Y199424D02*
Y200289D01*
X114665Y201082D02*
X115458Y200289D01*
X177559Y209547D02*
Y215551D01*
X169488Y208661D02*
X171653D01*
X168504Y209646D02*
X169488Y208661D01*
X168504Y209646D02*
Y209744D01*
X169390Y210630D01*
X171653D01*
X182973Y222441D02*
X183465Y221949D01*
X112106Y225098D02*
X113210Y226202D01*
X114665Y201082D02*
Y204626D01*
X112598Y198819D02*
X112598Y198819D01*
X112598Y198818D02*
Y198819D01*
X112106Y199310D02*
X112598Y198818D01*
X112106Y199310D02*
Y204626D01*
X109547Y200688D02*
X109842Y200393D01*
X109547Y200688D02*
Y204626D01*
X113168Y226202D02*
X113210D01*
X112106Y222146D02*
Y225098D01*
X106988Y198916D02*
X107086Y198818D01*
X106988Y198916D02*
Y204626D01*
X274606Y104861D02*
X309370Y70098D01*
X274606Y104861D02*
Y105118D01*
X309370Y70098D02*
X310777D01*
X248100Y83661D02*
X252658D01*
X247902Y83464D02*
X248100Y83661D01*
X247441Y85630D02*
X252658D01*
X246457Y86614D02*
X247441Y85630D01*
X248927Y77568D02*
X252470D01*
X237090Y128756D02*
X252477D01*
X337894Y126969D02*
X338082Y127156D01*
X113583Y122047D02*
Y127264D01*
X274606Y70669D02*
X274803Y70866D01*
X274606Y65650D02*
Y70669D01*
X276575Y69095D02*
X278346Y70866D01*
X276575Y65650D02*
Y69095D01*
X270669Y60039D02*
X271654Y59055D01*
X270669Y60039D02*
Y65650D01*
X91535Y119587D02*
X105512Y105610D01*
X91535Y119587D02*
Y122047D01*
X88386Y118799D02*
X104921Y102264D01*
X88386Y118799D02*
Y122047D01*
X85236Y117618D02*
X105217Y97638D01*
X85236Y117618D02*
Y122047D01*
X300197Y146258D02*
Y150886D01*
Y146258D02*
X300787Y145668D01*
X321815Y65685D02*
Y74139D01*
Y65685D02*
X321850Y65650D01*
X321815Y74139D02*
X321850Y74174D01*
Y75000D01*
X342520Y143412D02*
Y143701D01*
X317913Y78937D02*
X321850Y75000D01*
X328642Y88227D02*
Y88484D01*
X332776Y97441D02*
X337894D01*
X266732Y59644D02*
X267322Y59054D01*
X262795Y60039D02*
Y65650D01*
X261811Y59055D02*
X262795Y60039D01*
X266732Y59644D02*
Y65650D01*
X264576Y65462D02*
X264764Y65650D01*
X296260Y145077D02*
X298031Y143306D01*
X296260Y145077D02*
Y150886D01*
X311122Y140157D02*
X317913Y146949D01*
X299213Y140157D02*
X311122D01*
X301181Y137795D02*
X312697D01*
X319882Y144980D01*
X164862Y85728D02*
X170965Y91831D01*
X117263Y85728D02*
X164862D01*
X116732Y81791D02*
X118012Y83071D01*
X116732Y76772D02*
Y81791D01*
X113583Y82048D02*
X117263Y85728D01*
X113583Y76772D02*
Y82048D01*
X17618Y226279D02*
X28543D01*
X91240Y72047D02*
Y75492D01*
X91732Y75984D01*
X91339Y76378D02*
X91732Y75984D01*
X91339Y76378D02*
X91634Y76673D01*
X91535Y76772D02*
X91634Y76673D01*
X91535Y76772D02*
Y78168D01*
X110433Y118209D02*
Y122047D01*
X252477Y128756D02*
X252658Y128937D01*
X252470Y127156D02*
X252658Y126969D01*
X273755Y102918D02*
X306102Y70571D01*
X273695Y102918D02*
X273755D01*
X272406Y104207D02*
X273695Y102918D01*
X272406Y104207D02*
Y104267D01*
X270965Y105709D02*
X272406Y104267D01*
X270866Y105709D02*
X270965D01*
X267323Y106102D02*
X304134Y69291D01*
X263583Y106398D02*
X299883Y70098D01*
X263583Y106398D02*
Y106595D01*
X299883Y70098D02*
X300934D01*
X301978Y68987D02*
Y69055D01*
X300934Y70098D02*
X301978Y69055D01*
X306102Y65650D02*
Y70571D01*
X313789Y65837D02*
Y69349D01*
X312008Y65650D02*
Y68867D01*
X310777Y70098D02*
X312008Y68867D01*
X311440Y71698D02*
X313789Y69349D01*
X317913Y65650D02*
Y71850D01*
X298041Y62580D02*
Y64585D01*
Y62580D02*
X298157Y62464D01*
X328543Y91437D02*
Y100295D01*
X337706Y85442D02*
X337894Y85630D01*
X332767Y107471D02*
X337706D01*
X326343Y101048D02*
X332767Y107471D01*
X326343Y90526D02*
Y101048D01*
X333563Y105315D02*
X337894D01*
X328543Y100295D02*
X333563Y105315D01*
X332793Y100314D02*
X333014D01*
X135335Y121752D02*
X135630Y122047D01*
X145079D02*
Y127264D01*
X141831Y121949D02*
X141929Y122047D01*
X85236Y83169D02*
X95669Y93602D01*
X126181Y122047D02*
Y127264D01*
X151378Y122047D02*
Y127264D01*
X154528Y122047D02*
Y127165D01*
X160827Y122047D02*
Y127165D01*
X138484Y122933D02*
X138681Y122736D01*
X138583Y122638D02*
X138681Y122736D01*
X129331Y122047D02*
X129528Y122244D01*
X138681Y122146D02*
X138779Y122047D01*
X148130Y122146D02*
X148228Y122047D01*
X157579Y122736D02*
X157677Y122835D01*
X157579Y122736D02*
X157677Y122638D01*
X157480Y122441D02*
X157677Y122638D01*
Y122047D02*
X157776Y122146D01*
X163976Y122047D02*
X164075Y122146D01*
X129331Y75057D02*
X129429Y75155D01*
X129064Y75520D02*
X129331Y75787D01*
X135630Y71653D02*
Y76772D01*
X132480Y71752D02*
Y76772D01*
X141929Y71752D02*
Y76772D01*
X145079Y71752D02*
Y76772D01*
X154626Y71752D02*
Y75699D01*
X151378Y71752D02*
Y75197D01*
X126181Y71752D02*
Y76772D01*
X129232Y75886D02*
X129331Y75787D01*
X129232Y75886D02*
X129331Y75984D01*
X129035Y76279D02*
X129331Y75984D01*
Y76772D02*
X129429Y76673D01*
X138779Y76772D02*
X139075Y76476D01*
X151181Y75394D02*
X151378Y75197D01*
X151181Y75394D02*
X151673Y75886D01*
X151279Y76279D02*
X151673Y75886D01*
X154237Y76087D02*
X154626Y75699D01*
X154237Y76087D02*
X154724Y76575D01*
X154528Y76772D02*
X154724Y76575D01*
X160728Y76673D02*
X160827Y76575D01*
X160728Y76673D02*
X160827Y76772D01*
X163583Y76378D02*
X163976Y76772D01*
X148130Y76673D02*
X148228Y76772D01*
X151279Y76279D02*
X151476Y76476D01*
X151378Y76575D02*
X151476Y76476D01*
X151378Y76575D02*
X151476Y76673D01*
X151378Y76772D02*
X151476Y76673D01*
X122933Y122146D02*
X123031Y122047D01*
X85236Y76772D02*
Y83169D01*
X116732Y119193D02*
Y122047D01*
X110335Y76870D02*
Y82382D01*
Y76870D02*
X110433Y76772D01*
X106988Y85728D02*
Y85925D01*
Y85728D02*
X110335Y82382D01*
X337795Y105413D02*
X337894Y105315D01*
X334775Y105413D02*
X337795D01*
X337706Y107471D02*
X337894Y107283D01*
X310941Y59269D02*
Y61531D01*
X310227Y62245D02*
X310941Y61531D01*
X310227Y62245D02*
Y65462D01*
X310039Y65650D02*
X310227Y65462D01*
X308071Y59350D02*
Y65650D01*
X252470Y97253D02*
X252658Y97441D01*
X219882Y152264D02*
X220007Y152139D01*
X219882Y98819D02*
X224114D01*
X219882Y101969D02*
X224311D01*
X252094Y113001D02*
X252470Y113377D01*
X224193Y105492D02*
X235827Y117126D01*
X219882Y105492D02*
X224193D01*
X339970Y140560D02*
X340088Y140679D01*
X338082Y140560D02*
X339970D01*
X337894Y140748D02*
X338082Y140560D01*
X308071Y150886D02*
X308259Y151074D01*
X262697Y150984D02*
X262983Y151270D01*
X260827Y150886D02*
Y153740D01*
X262697Y150984D02*
X262795Y150886D01*
X252470Y113377D02*
X252658Y113189D01*
X219882Y114980D02*
X223346D01*
X227461Y119095D01*
X219882Y118504D02*
X223031D01*
X219882Y121653D02*
X223130D01*
X219882Y125177D02*
X220059Y125000D01*
X252658D01*
X97835Y76772D02*
Y78582D01*
X100984Y122047D02*
X101282Y122345D01*
X104035Y122146D02*
X104134Y122047D01*
X104035Y122146D02*
Y126378D01*
X101083Y122544D02*
X101282Y122345D01*
X101083Y122544D02*
Y128150D01*
X110433Y122047D02*
Y124016D01*
X119587Y122343D02*
X119882Y122047D01*
X246456Y83464D02*
X247902D01*
X252470Y79912D02*
X252658Y79724D01*
X209842Y98819D02*
X213189D01*
X141929Y76772D02*
Y78130D01*
X125689Y122539D02*
X126181Y122047D01*
X333918Y99410D02*
X337894D01*
X333014Y100314D02*
X333918Y99410D01*
X319882Y144980D02*
Y150886D01*
X317913Y146949D02*
Y150886D01*
X301978Y68987D02*
X302165Y68799D01*
Y65650D02*
Y68799D01*
X304134Y65650D02*
Y69291D01*
X313789Y65837D02*
X313976Y65650D01*
X315945D02*
Y69455D01*
X223130Y121653D02*
X224508Y123031D01*
X223031Y118504D02*
X225591Y121063D01*
X224508Y123031D02*
X252658D01*
X225591Y121063D02*
X252658D01*
X227461Y119095D02*
X252658D01*
X235827Y117126D02*
X252658D01*
X224311Y101969D02*
X237500Y115157D01*
X252658D01*
X245965Y112894D02*
X246072Y113001D01*
X252094D01*
X247244Y110138D02*
X248327Y111221D01*
X252658D01*
X224114Y98819D02*
X224213Y98721D01*
X132480Y118110D02*
Y122047D01*
X135335Y121752D02*
X135531Y121555D01*
Y115551D02*
Y121555D01*
X141831Y113386D02*
Y121949D01*
X123327Y112598D02*
X123524D01*
X116732Y119193D02*
X123327Y112598D01*
X97835Y122047D02*
Y126279D01*
X104134Y75000D02*
Y76772D01*
Y75000D02*
X107579Y71555D01*
X292323Y65650D02*
X292382Y65590D01*
X88386Y76772D02*
Y79626D01*
X98425Y89665D01*
X259252Y155315D02*
X260827Y153740D01*
X259055Y155118D02*
X259252Y155315D01*
X246949Y159449D02*
X248622Y161122D01*
Y164193D01*
X252470Y133062D02*
X252658Y132874D01*
X249253Y133062D02*
X252470D01*
X241634Y140681D02*
Y147638D01*
X234744D02*
X234842D01*
X119587Y122343D02*
Y135236D01*
X94685Y120689D02*
X106122Y109252D01*
X94685Y120689D02*
Y122047D01*
Y71889D02*
Y76772D01*
X160827Y71653D02*
Y76575D01*
X97835Y71850D02*
Y76772D01*
X100984Y69685D02*
Y76772D01*
X113583Y69193D02*
Y76772D01*
X255315Y167717D02*
X259055D01*
X262983Y151270D02*
Y155619D01*
X241634Y140681D02*
X249253Y133062D01*
X264567Y57480D02*
X264576Y57489D01*
Y65462D01*
X272638Y150886D02*
Y155315D01*
X271654Y156299D02*
X272638Y155315D01*
X331471Y136739D02*
X331505Y136705D01*
X331471Y136739D02*
Y147447D01*
X326343Y90526D02*
X328642Y88227D01*
X252470Y75600D02*
X252658Y75787D01*
X252470Y77568D02*
X252658Y77756D01*
X249253Y75600D02*
X252470D01*
X288386Y150886D02*
X288574Y151074D01*
X286417Y150886D02*
X286605Y151074D01*
Y157373D02*
X287106Y157874D01*
X286605Y151074D02*
Y157373D01*
X288386Y150886D02*
Y156042D01*
X289370Y157027D01*
Y160433D01*
X290354Y150886D02*
Y155512D01*
X291339Y161576D02*
X291570Y161344D01*
X292323Y150886D02*
Y155218D01*
X337901Y121070D02*
X343915D01*
X347638Y117317D02*
Y117323D01*
X337894Y101245D02*
Y101378D01*
X300492Y89272D02*
X300689D01*
X300492D02*
X317913Y71850D01*
X319882Y65650D02*
Y73819D01*
X307382Y86319D02*
X319882Y73819D01*
X310881Y71698D02*
X311440D01*
X288681Y93898D02*
X310881Y71698D01*
X294980Y90420D02*
Y91240D01*
Y90420D02*
X315945Y69455D01*
X337894Y91535D02*
X337934Y91576D01*
X274606Y150886D02*
Y156988D01*
X291570Y156728D02*
Y161344D01*
X290354Y155512D02*
X291570Y156728D01*
X292323Y155218D02*
X293170Y156065D01*
X294291Y150886D02*
Y154923D01*
X268701Y143210D02*
Y150886D01*
X270669D02*
X270704Y150851D01*
Y143469D02*
Y150851D01*
X250181Y73819D02*
X252658D01*
X260827Y62402D02*
Y65650D01*
X268341Y45900D02*
X284449Y62008D01*
Y65650D01*
X277165Y51772D02*
X286382Y60988D01*
Y64808D01*
X286229Y64961D02*
X286382Y64808D01*
X287598Y58268D02*
X287982Y58651D01*
Y61369D01*
X290182Y60458D02*
Y65477D01*
X290354Y65650D01*
X287982Y61369D02*
X288198Y61585D01*
Y65462D01*
X107283Y122047D02*
Y130610D01*
X98425Y183858D02*
Y187500D01*
X90551Y183858D02*
Y187500D01*
X251969Y248524D02*
Y252756D01*
X280807Y261024D02*
X284252Y264469D01*
X272736Y261024D02*
X280807D01*
X269291Y257579D02*
X272736Y261024D01*
X248819Y264370D02*
X255512D01*
X276673D01*
X255906Y248524D02*
Y256496D01*
X268209D01*
X269291Y257579D01*
X276772Y253937D02*
Y257579D01*
X253937Y245669D02*
Y248524D01*
Y245669D02*
X255118Y244488D01*
X282087D01*
X284252Y242323D01*
X298917Y236319D02*
Y237795D01*
X485630Y71595D02*
X489685D01*
X485630Y68071D02*
X489724D01*
X460532Y45827D02*
X464075D01*
X460433Y53307D02*
X464075D01*
X487628Y226197D02*
X491716D01*
X511811Y206102D01*
X476870Y229921D02*
X480235Y226556D01*
Y218677D02*
Y226556D01*
Y218677D02*
X483760Y215152D01*
Y222537D02*
X487497D01*
X511811Y161713D02*
X512697Y162598D01*
Y172933D01*
X511811Y179724D02*
X512697Y178839D01*
Y172933D02*
Y178839D01*
X476870Y184787D02*
Y185529D01*
Y184787D02*
X480640Y181018D01*
X483760Y207002D02*
Y215152D01*
Y221771D02*
Y222537D01*
Y221771D02*
X487125Y218405D01*
Y207363D02*
Y218405D01*
Y207363D02*
X491732Y202756D01*
X483760Y207002D02*
X489899Y200862D01*
Y166400D02*
Y200862D01*
Y166400D02*
X492126Y164173D01*
X478346Y161024D02*
Y164173D01*
Y161024D02*
X483858Y155512D01*
X495398D01*
X497638Y157752D01*
X337894Y138779D02*
X341968D01*
X345314Y135433D01*
X353321D01*
X294291Y154923D02*
X295276Y155908D01*
X278321Y158392D02*
X278543Y158170D01*
Y150886D02*
Y158170D01*
X248296Y81595D02*
X252559D01*
X252658Y81693D01*
X251369Y79912D02*
X252470D01*
X236122Y73327D02*
Y73917D01*
Y74511D01*
X238583Y70866D02*
X239272D01*
X250993Y79537D02*
X251369Y79912D01*
X247942Y79537D02*
X250993D01*
X239272Y70866D02*
X247942Y79537D01*
X238583Y76870D02*
X243571D01*
X248296Y81595D01*
X238583Y81988D02*
X239075D01*
X238583Y102165D02*
X238681Y102067D01*
X221358Y67028D02*
Y67777D01*
X229724Y76143D01*
X221358Y75394D02*
X227362Y81398D01*
Y83169D01*
X243602Y99410D01*
X252658D01*
X229724Y76143D02*
Y83269D01*
X243709Y97253D01*
X252470D01*
X212992Y139173D02*
Y143602D01*
Y139173D02*
X215158Y137008D01*
X212992Y151772D02*
Y156496D01*
X215158Y158661D01*
X219882Y143602D02*
X236328Y127156D01*
X252470D01*
X220007Y151056D02*
Y152139D01*
X224311Y141535D02*
X237090Y128756D01*
X224311Y141535D02*
Y146752D01*
X220007Y151056D02*
X224311Y146752D01*
X198819Y75394D02*
X214469D01*
X192913Y81299D02*
X198819Y75394D01*
X192913Y81299D02*
Y88583D01*
X191732Y89764D02*
X192913Y88583D01*
X193356Y88140D01*
X214469Y75394D02*
Y79921D01*
X216535Y81988D01*
X201772Y67028D02*
X214469D01*
X192913Y58169D02*
X201772Y67028D01*
X192913Y51181D02*
Y58169D01*
X214469Y62205D02*
X216634Y60039D01*
X214469Y62205D02*
Y67028D01*
X336024Y57972D02*
X339370Y54626D01*
X331458Y57972D02*
X336024D01*
X327756Y61674D02*
Y65650D01*
Y61674D02*
X331458Y57972D01*
X268341Y42357D02*
Y45900D01*
X264075Y38091D02*
X268341Y42357D01*
X259842Y38091D02*
X264075D01*
X280689Y36811D02*
Y47618D01*
X277165Y36811D02*
Y51772D01*
X274016Y36811D02*
Y46457D01*
X270866Y37185D02*
Y43701D01*
X270492Y36811D02*
X270866Y37185D01*
X300197Y36988D02*
Y65650D01*
Y36988D02*
X300374Y36811D01*
X298228Y64773D02*
Y65650D01*
X298041Y64585D02*
X298228Y64773D01*
X298416Y64961D01*
X290177Y36811D02*
X290551Y37185D01*
Y40551D01*
X294104Y44104D01*
Y64961D01*
X293701Y36811D02*
Y40551D01*
X296850Y36811D02*
Y40945D01*
X298228Y42323D01*
Y64773D01*
X293701Y40551D02*
X296072Y42922D01*
Y64961D01*
X300374Y26043D02*
Y30118D01*
Y26043D02*
X300394Y26024D01*
X296850D02*
Y30118D01*
X293701Y26024D02*
Y30118D01*
X136811Y37008D02*
X146063Y27756D01*
X288189Y25984D02*
X289764D01*
X290177Y26398D01*
Y30118D01*
X277165Y26024D02*
Y30118D01*
X280689Y24783D02*
Y30118D01*
X297244Y224508D02*
X298917Y226181D01*
Y236319D01*
Y238484D01*
X182973Y222441D02*
X197638D01*
X399583Y191756D02*
X401887D01*
X393307Y220858D02*
Y220866D01*
X387500Y215051D02*
X388484Y216036D01*
X393307Y220858D01*
X358071Y236417D02*
X361614D01*
X358071Y243898D02*
X374705Y227264D01*
X348228Y240158D02*
X348917D01*
X355315Y246555D01*
X361221D01*
X366339Y241437D01*
X384744D01*
X388386Y237795D01*
X374617Y215453D02*
X374705D01*
X470472Y200295D02*
X473228Y197539D01*
X474026D01*
X466784Y199456D02*
X473130Y193110D01*
X476673D01*
X395669Y195669D02*
X399583Y191756D01*
X395472Y199606D02*
X395523Y199556D01*
X401887D01*
X344291Y187992D02*
X344390Y188091D01*
Y198425D01*
X334291Y187992D02*
Y198268D01*
X324291Y187992D02*
Y198307D01*
X314291Y187992D02*
Y198307D01*
X314272Y198327D02*
X314291Y198307D01*
X304291Y187992D02*
Y198268D01*
X294291Y187992D02*
Y198327D01*
Y208992D02*
X298165D01*
X304291D02*
X308205D01*
X314291D02*
X318173D01*
X324291D02*
X328114D01*
X334291D02*
X338154D01*
X344291D02*
X348193D01*
X197736Y186417D02*
X200098Y188779D01*
X197736Y186417D02*
X200098Y184055D01*
X197047Y197736D02*
Y199902D01*
X183465Y210630D02*
X185457D01*
X187115Y212288D01*
Y213594D01*
X183465Y206693D02*
X186122D01*
X183465Y208661D02*
X185828D01*
X217623Y197855D02*
X219193Y199425D01*
X214370Y202461D02*
X218110D01*
X219193Y201378D01*
Y199425D02*
Y201378D01*
X31594Y110039D02*
X34960Y106674D01*
X60550D01*
X60630Y106595D01*
X34941Y121555D02*
X50591D01*
X34960Y136202D02*
X41147D01*
X41166Y136221D01*
X55413D01*
X122933Y122146D02*
X123031Y122244D01*
X129429Y122343D02*
X129528Y122244D01*
X138681Y123524D02*
X138779Y123622D01*
X138878Y123721D01*
X138681Y123524D02*
X138779Y123425D01*
X138878Y123327D01*
X138484Y122933D02*
X138779Y123228D01*
X138878Y123327D01*
X138583Y122638D02*
X138779Y122441D01*
X138878Y122343D01*
X138681Y122146D02*
X138779Y122244D01*
X138878Y122343D01*
X157480Y122441D02*
X157677Y122244D01*
X157776Y122146D01*
X163976Y122244D02*
X164075Y122146D01*
X138779Y76181D02*
X139075Y76476D01*
X129064Y75520D02*
X129331Y75253D01*
X129429Y75155D01*
X129035Y76279D02*
X129331Y76575D01*
X129429Y76673D01*
X148130D02*
X148228Y76575D01*
X163878Y75492D02*
X163976Y75591D01*
X164173Y75787D01*
X163583Y76378D02*
X163976Y75984D01*
X164173Y75787D01*
X143898Y41043D02*
X152632Y32309D01*
X256176D01*
X328642Y88227D02*
X328680Y88189D01*
X328642Y88151D02*
Y88227D01*
Y88151D02*
X328680Y88189D01*
X321455Y82776D02*
X322538Y81693D01*
X337894D01*
X326763Y85442D02*
X337706D01*
X323130Y89075D02*
X323780Y88425D01*
X323860D01*
X325149Y87136D01*
Y87056D02*
Y87136D01*
Y87056D02*
X326763Y85442D01*
X322555Y85634D02*
X324528Y83661D01*
X337894D01*
X263938Y126181D02*
X274508D01*
X252658Y134843D02*
X260531D01*
X265846Y129528D01*
X271654D01*
X252658Y136811D02*
X263583D01*
X266535Y133858D01*
X271654D01*
X255315Y164193D02*
X258248D01*
X259055Y167717D02*
X266732Y160039D01*
Y150886D02*
Y160039D01*
X264764Y150886D02*
Y157677D01*
X258248Y164193D02*
X264764Y157677D01*
X262500Y156102D02*
X262983Y155619D01*
X329724Y65650D02*
X331791D01*
X70276Y61024D02*
X76378D01*
X337894Y95472D02*
X341634D01*
X343602Y97441D01*
X337894Y93504D02*
X342926D01*
X344013Y94591D01*
X337894Y101378D02*
X338082Y101190D01*
X343889D01*
X345431Y99572D02*
X345507D01*
X343889Y101190D02*
X345507Y99572D01*
X337894Y103347D02*
X344882D01*
X347631Y100597D01*
X337894Y119095D02*
X342780D01*
X343034Y118841D01*
X346120D01*
X347638Y117323D01*
X337894Y113189D02*
X341142D01*
X348425Y105905D01*
X353248D01*
X431102Y108268D02*
X468307Y71063D01*
X427165Y106693D02*
Y108268D01*
X360138Y101772D02*
Y105905D01*
X325787Y14764D02*
Y65650D01*
Y14764D02*
X326772Y13780D01*
X330709Y17717D02*
X334252D01*
X322835Y9843D02*
X323819Y10827D01*
Y65650D01*
X470965Y53307D02*
Y59350D01*
X468307Y62008D02*
Y71063D01*
Y62008D02*
X470965Y59350D01*
X369365Y74336D02*
X425664D01*
X433071Y66929D01*
X351627Y61465D02*
X417568D01*
X423071Y66969D01*
X490748Y45827D02*
X500079Y36496D01*
X530433D01*
X533465Y39528D01*
Y43031D01*
X522756Y42323D02*
X523465Y43031D01*
X533465Y49528D02*
Y53031D01*
X530433Y46496D02*
X533465Y49528D01*
Y59527D02*
Y63032D01*
X489685Y71595D02*
X504783Y56496D01*
X530433D01*
X533465Y59527D01*
Y69528D02*
Y73032D01*
X503189Y66496D02*
X530433D01*
X533465Y69528D01*
X490571Y79114D02*
X503189Y66496D01*
X533465Y79527D02*
Y83031D01*
X491772Y85787D02*
X501063Y76496D01*
X530433D01*
X533465Y79527D01*
Y89567D02*
Y93032D01*
X489390Y96831D02*
X499724Y86496D01*
X530394D01*
X533465Y89567D01*
Y99528D02*
Y103032D01*
X492165Y103504D02*
X499173Y96496D01*
X530433D01*
X533465Y99528D01*
X493169Y107027D02*
X498701Y101496D01*
X525433D01*
X490984Y100354D02*
X499843Y91496D01*
X525433D01*
X491378Y82638D02*
X502520Y71496D01*
X525433D01*
X503858Y61496D02*
X525433D01*
X489724Y68071D02*
X506299Y51496D01*
X525433D01*
X490158Y53307D02*
X501968Y41496D01*
X525433D01*
X507953Y46496D02*
X530433D01*
X485630Y64921D02*
X489528D01*
X507953Y46496D01*
X200098Y184055D02*
X202461D01*
X200098Y188779D02*
X202362D01*
X202461Y188878D01*
X204921Y181398D02*
X207579Y184055D01*
X192520Y181398D02*
X204921D01*
X191043Y179921D02*
X192520Y181398D01*
X205020Y191437D02*
X207579Y188878D01*
X192126Y191437D02*
X205020D01*
X191043Y192520D02*
X192126Y191437D01*
X197047Y205020D02*
X200295D01*
X201083Y204232D01*
X209368Y197855D02*
X217623D01*
X204724Y202499D02*
X209368Y197855D01*
X204724Y202499D02*
Y207464D01*
X200963Y211225D02*
X204724Y207464D01*
X206324Y204010D02*
Y208126D01*
Y204010D02*
X209055Y201279D01*
X207924Y207331D02*
X208957Y206299D01*
X207924Y207331D02*
Y208789D01*
X201626Y212825D02*
X206324Y208126D01*
X202288Y214425D02*
X207924Y208789D01*
X197047Y207579D02*
X200197D01*
X202953Y204823D01*
X207579Y184055D02*
X210550Y187027D01*
X201083Y199508D02*
Y204232D01*
Y199508D02*
X205020Y195571D01*
Y191437D02*
Y195571D01*
X202953Y199900D02*
Y204823D01*
Y199900D02*
X210550Y192303D01*
Y187027D02*
Y192303D01*
X389173Y145177D02*
X391142D01*
X402854Y156890D01*
X423819D01*
X427165Y153543D01*
X406496Y145177D02*
Y152953D01*
X405315Y154134D02*
X406496Y152953D01*
X252658Y130905D02*
X259214D01*
X263938Y126181D01*
X255875Y95472D02*
X258760Y98358D01*
X252658Y95472D02*
X255875D01*
X258760Y98358D02*
Y127657D01*
X252658Y91535D02*
X256594D01*
X260433Y95374D01*
Y123942D01*
X261497Y125006D01*
X281890Y162992D02*
Y165453D01*
Y162992D02*
X284449Y160433D01*
Y150886D02*
Y160433D01*
X282480Y150886D02*
Y158244D01*
X258957Y155118D02*
X259055D01*
X275261Y165464D02*
X282480Y158244D01*
X307677Y156741D02*
X308071Y156348D01*
X310236Y161909D02*
X313779Y165453D01*
X309941Y161909D02*
X310236D01*
X310039Y150886D02*
X310227Y151074D01*
X327756Y150886D02*
Y168110D01*
X293838Y178248D02*
X317618D01*
X327756Y168110D01*
X470866Y216533D02*
X470935Y216464D01*
Y212529D02*
X474016Y209449D01*
X470935Y212529D02*
Y216464D01*
X463287Y215256D02*
X466142D01*
X469335Y212063D01*
Y210828D02*
Y212063D01*
Y210828D02*
X470768Y209395D01*
Y209252D02*
Y209395D01*
X395393Y208770D02*
X399459D01*
X400873Y207356D01*
X401887D01*
X391634Y194095D02*
X393193Y195654D01*
Y211433D01*
X376495Y213575D02*
X381506Y208563D01*
X376495Y213495D02*
Y213575D01*
Y213495D02*
Y213575D01*
X374617Y215453D02*
X376495Y213575D01*
X378634Y218996D02*
X381594Y216036D01*
X394685Y216043D02*
X394787D01*
X401199D01*
X401887Y215356D01*
X374705Y215453D02*
Y227264D01*
X378044Y218406D02*
X378634Y218996D01*
X376969Y218406D02*
X378044D01*
X310227Y154912D02*
X321949Y166634D01*
Y169783D01*
X310227Y151074D02*
Y154912D01*
X312008Y150886D02*
Y154430D01*
X316141Y158563D01*
X313976Y150886D02*
Y154136D01*
X316140Y156299D01*
X317126D01*
X316141Y158563D02*
X317028D01*
X325197Y166732D01*
D60*
X109350Y226082D02*
X109547Y225885D01*
Y222146D02*
Y225885D01*
X138779Y195374D02*
X139132D01*
X220768Y158661D02*
X223819Y155610D01*
X13780Y206693D02*
X13780Y206693D01*
X19685D01*
X109350Y226082D02*
Y226575D01*
X144215Y208268D02*
X147638D01*
X171653Y212598D02*
Y221949D01*
X118110Y214567D02*
X126083D01*
X83661Y227559D02*
X84646D01*
X81496Y225394D02*
X83661Y227559D01*
X104429Y200492D02*
Y204626D01*
X88702Y214448D02*
X89645D01*
X93347Y218150D01*
X88779Y215551D02*
X89567Y214764D01*
X77756Y215551D02*
X88779D01*
X53543Y213386D02*
X60630Y220472D01*
X26378Y213386D02*
X53543D01*
X19685Y206693D02*
X26378Y213386D01*
X60630Y220472D02*
Y222239D01*
X72835Y184704D02*
Y188976D01*
X72806Y184675D02*
X72835Y184704D01*
X68504Y184675D02*
X72806D01*
X93347Y218150D02*
X102796D01*
X104429Y219783D02*
Y222146D01*
X102796Y218150D02*
X104429Y219783D01*
X251969Y225197D02*
Y231004D01*
Y225197D02*
X255807Y221358D01*
Y221358D02*
Y221358D01*
X253937Y231004D02*
X254035Y230906D01*
X258366Y225984D02*
X262697Y221654D01*
X254035Y227461D02*
Y230906D01*
Y227461D02*
X255512Y225984D01*
X258366D01*
X338169Y140748D02*
X343110D01*
X338082Y140660D02*
X338169Y140748D01*
X341535Y142717D02*
X342520Y143701D01*
X337894Y142717D02*
X341535D01*
X288583Y161221D02*
Y165059D01*
Y161221D02*
X289370Y160433D01*
X288583Y170177D02*
Y173425D01*
X307087Y161811D02*
Y165059D01*
Y170177D02*
Y173425D01*
X230610Y73917D02*
Y74016D01*
X233465Y70866D02*
Y71063D01*
X235728Y84252D02*
Y84664D01*
X235642Y84750D02*
X235648Y84744D01*
X235925D01*
X235648D02*
X235728Y84664D01*
X233465Y102165D02*
X233465Y102165D01*
X220276Y137008D02*
X223425D01*
X224618Y135815D01*
Y135638D02*
Y135815D01*
X220276Y158661D02*
X220768D01*
X221654Y81988D02*
X225689Y86024D01*
Y86122D01*
X221752Y60039D02*
X222933D01*
X226870Y63976D02*
Y65847D01*
X222933Y60039D02*
X226870Y63976D01*
X287992Y51772D02*
X288090Y51673D01*
X304134Y224508D02*
X320276D01*
X321752Y225984D01*
X329626D01*
X337894Y117126D02*
X343135D01*
X343620Y116641D01*
X337894Y115157D02*
X341851D01*
X342667Y114341D01*
X345797D01*
X345965Y114173D01*
X304134Y156693D02*
X306015Y154812D01*
Y150974D02*
Y154812D01*
Y150974D02*
X306102Y150886D01*
X308071D02*
Y156348D01*
X139645Y203697D02*
X144215Y208268D01*
X139132Y195374D02*
X139645Y195887D01*
Y203697D01*
D61*
X69488Y262402D02*
X71260Y264173D01*
X69488Y260827D02*
Y262402D01*
X71260Y264173D02*
X72441D01*
X69488Y259252D02*
X71260Y257480D01*
X69488Y259252D02*
Y260827D01*
X71260Y257480D02*
X72441D01*
X69488Y260827D02*
X72539D01*
X132283Y185039D02*
X135827Y181496D01*
X65748Y260827D02*
X69488D01*
X132283Y185039D02*
Y185433D01*
X128347Y181496D02*
X132283Y185433D01*
X124409Y185433D02*
X128347Y181496D01*
X120472D02*
X124409Y185433D01*
X115453Y187500D02*
X124409Y196457D01*
X114173Y187500D02*
X115453D01*
X72047Y230315D02*
X73920D01*
X81592D02*
X83071D01*
X77756Y234151D02*
X81592Y230315D01*
X73920D02*
X77756Y234151D01*
X44690Y222239D02*
X49606D01*
X44589Y234151D02*
X49606D01*
X44488Y246063D02*
X49606D01*
X50394Y260827D02*
X60630Y250591D01*
Y222239D02*
Y234151D01*
Y246063D01*
Y250591D01*
X478346Y22205D02*
Y26535D01*
X486221Y22205D02*
Y26535D01*
X478346Y37559D02*
Y41890D01*
X486221Y37559D02*
Y41890D01*
X381496Y199606D02*
X388878D01*
X377067D02*
X381496D01*
X377067Y201782D02*
X378237D01*
X380413Y199606D01*
D62*
X261910Y46555D02*
X264665D01*
X261910Y51673D02*
X264665D01*
X288090Y46555D02*
X290846D01*
X288090Y51673D02*
X290846D01*
X238583Y70866D02*
Y71457D01*
X236122Y73917D02*
X238583Y71457D01*
X236122Y73917D02*
X238583Y76378D01*
Y76870D01*
X230610Y73917D02*
X233465Y71063D01*
X233465Y76772D02*
Y76870D01*
X230610Y73917D02*
X233465Y76772D01*
X239075Y81988D02*
X241634Y84547D01*
X233465Y82561D02*
X235648Y84744D01*
X233465Y81988D02*
Y82561D01*
X238583Y102165D02*
Y104921D01*
X233465Y102165D02*
Y104921D01*
X240748Y155512D02*
X244094D01*
X232480D02*
X235630D01*
X356791Y66929D02*
X357874Y68012D01*
Y69882D01*
X352756Y68012D02*
X353839Y66929D01*
X352756Y68012D02*
Y69882D01*
X69882Y154724D02*
Y157874D01*
X212795Y185433D02*
X216142Y188779D01*
X212795Y174705D02*
Y185433D01*
X224508Y193898D02*
X225984D01*
X219302Y188692D02*
X224508Y193898D01*
X219302Y186525D02*
Y188692D01*
X219202Y186525D02*
X219302D01*
X216339Y183661D02*
X219202Y186525D01*
X216142Y183661D02*
X216339D01*
X216142Y188779D02*
X218110Y190748D01*
Y195768D01*
X221358Y199016D01*
Y204232D01*
X218012Y207579D02*
X221358Y204232D01*
X214370Y207579D02*
X218012D01*
X58661Y132874D02*
X58662Y132874D01*
X66634D01*
X86910Y169095D02*
X87008Y169193D01*
X84547Y169095D02*
X86910D01*
X74410Y151673D02*
X74508Y151772D01*
X76870D01*
X69882Y162992D02*
Y166240D01*
X114173Y194390D02*
X119488Y199705D01*
Y202067D01*
X106299Y183858D02*
Y187500D01*
Y194390D02*
X114173D01*
X130905Y205512D02*
X134252D01*
X90551Y194390D02*
X98425D01*
X82677D02*
X90551D01*
X78248Y187500D02*
X82677D01*
X71073Y194675D02*
X78248Y187500D01*
X43307Y194675D02*
X71073D01*
X309744Y51181D02*
Y51378D01*
X463387Y183756D02*
X465850D01*
X469685Y179921D01*
X460732Y183756D02*
X463387D01*
X457480Y187008D02*
X460732Y183756D01*
X230315Y139764D02*
X234449D01*
X259449Y229134D02*
X263386D01*
X258268Y230315D02*
X259449Y229134D01*
X258268Y230315D02*
Y230709D01*
X255935Y231004D02*
X256230Y230709D01*
X258268D01*
X266929Y235433D02*
X269488D01*
X265748Y234252D02*
X266929Y235433D01*
X263386Y229134D02*
X265748Y231496D01*
Y234252D01*
X244587Y221358D02*
X248327D01*
X269587Y221654D02*
X273228D01*
X280906Y253150D02*
X284252Y249803D01*
X280709Y253150D02*
X280906D01*
X284252Y256693D02*
Y257579D01*
X280709Y253150D02*
X284252Y256693D01*
Y257579D02*
X288189Y253642D01*
X288090D02*
X288189D01*
X284252Y249803D02*
X288090Y253642D01*
X349606Y142126D02*
X352953D01*
X358071D02*
X361417D01*
X309744Y51673D02*
Y54921D01*
Y43307D02*
Y46555D01*
X309646Y43209D02*
X309744Y43307D01*
X332874Y51673D02*
Y54921D01*
Y43307D02*
Y46555D01*
X339370Y43307D02*
Y47146D01*
Y43307D02*
X339469Y43209D01*
X320079Y246654D02*
X322933Y243799D01*
X319685Y246654D02*
X320079D01*
X319685D02*
X322933Y249902D01*
X308465Y246850D02*
X312402D01*
X309744Y237500D02*
Y238484D01*
Y237500D02*
X313386Y233858D01*
Y233760D02*
Y233858D01*
X319587Y234547D02*
X323721Y238681D01*
X309744Y238484D02*
X313090Y241831D01*
X313976D01*
X323524Y238681D02*
X323721D01*
X319882Y242323D02*
X323524Y238681D01*
X334744D02*
X334941D01*
X338976Y242717D01*
X334744Y238681D02*
X338681Y234744D01*
X294094Y241732D02*
X295669D01*
X298917Y238484D01*
X294094Y237008D02*
X297441D01*
X298917Y238484D01*
X296457Y242421D02*
Y244488D01*
Y242421D02*
X298917Y239961D01*
Y238484D02*
Y239961D01*
X335531Y225984D02*
X338779D01*
X338878Y225886D01*
X398915Y183856D02*
X399018D01*
X401887D01*
X398915D02*
X400687Y182084D01*
Y179756D02*
Y182084D01*
X101870Y197835D02*
Y204626D01*
X98425Y194390D02*
X101870Y197835D01*
X82087Y122047D02*
Y126476D01*
X89468Y133858D01*
X89961D01*
X95079D02*
X98425D01*
X82087Y72342D02*
Y76772D01*
X89468Y64961D02*
X89961D01*
X82087Y72342D02*
X89468Y64961D01*
X123031Y122047D02*
Y122244D01*
Y125886D01*
Y131496D02*
X125394Y133858D01*
X123031Y125886D02*
Y131496D01*
X129331Y122047D02*
Y125886D01*
X130512Y133858D02*
X133858D01*
X141142Y128543D02*
Y133858D01*
X138779Y122047D02*
Y122244D01*
Y122441D01*
Y123228D01*
Y123425D01*
Y123622D01*
Y126181D01*
X138976Y126378D01*
X141142Y128543D01*
X146260Y133858D02*
Y136811D01*
X146457Y137008D01*
X157677Y122047D02*
Y122244D01*
Y122638D01*
Y122835D01*
Y125787D01*
X156890Y129331D02*
Y133858D01*
Y129331D02*
X157677Y128543D01*
Y125787D02*
Y128543D01*
X162008Y133858D02*
X162598D01*
X164961Y131496D01*
X163976Y122244D02*
Y125689D01*
X148130Y122146D02*
Y125886D01*
X123031Y73228D02*
Y76772D01*
X138779Y73228D02*
Y76181D01*
Y76772D01*
X130512Y64961D02*
Y67913D01*
X129331Y69095D02*
X130512Y67913D01*
X129331Y69095D02*
Y72933D01*
Y75057D01*
Y75253D01*
Y75787D01*
Y75984D01*
Y76575D01*
X119685Y64567D02*
X125000D01*
X125394Y64961D01*
Y65551D01*
X126378Y66535D01*
Y68110D01*
X95079Y64961D02*
Y67913D01*
X94882Y68110D02*
X95079Y67913D01*
X138189Y64961D02*
X141142D01*
X146260D02*
X146752D01*
X148228Y66437D01*
Y73032D01*
Y76575D01*
Y76772D01*
X157677Y73032D02*
Y76772D01*
X153543Y64961D02*
X156890D01*
X163878Y73032D02*
X163976Y73130D01*
Y75591D01*
Y75984D01*
Y76772D01*
X162008Y64961D02*
Y67913D01*
X162205Y68110D01*
X352854Y92716D02*
Y95374D01*
X357972Y92716D02*
Y95374D01*
X347539Y112598D02*
X352953D01*
X345965Y114173D02*
X347539Y112598D01*
X358071D02*
X358563D01*
X360531Y114567D01*
X361811D01*
D63*
X378051Y186417D02*
X378543Y186909D01*
X373524Y186417D02*
X378051D01*
X373524Y189862D02*
X378642D01*
X378543Y189764D02*
X378642Y189862D01*
X378543Y186909D02*
Y189764D01*
Y188583D02*
X381496D01*
X245079Y256890D02*
X248819D01*
X381496Y188583D02*
X388878D01*
X394291D01*
X399018Y183856D01*
D64*
X476516Y103504D02*
X478937D01*
X468504Y111516D02*
X476516Y103504D01*
X468504Y111516D02*
Y116142D01*
X475728Y100354D02*
X478937D01*
X464567Y111516D02*
X475728Y100354D01*
X464567Y111516D02*
Y120079D01*
X477618Y107027D02*
X478937D01*
X472441Y112205D02*
X477618Y107027D01*
X209055Y98819D02*
X209842D01*
X347637Y122046D02*
Y122440D01*
X337894Y123031D02*
X342774D01*
X343007Y123264D01*
X346813D01*
X347637Y122440D01*
D65*
X182973Y222441D02*
Y232185D01*
X194882Y244094D01*
D66*
X399606Y13780D02*
X405512Y7874D01*
X407480Y5906D01*
Y5906D02*
Y5906D01*
X379921Y33465D02*
X385827Y27559D01*
X401575D02*
X407480Y33465D01*
X379921Y5906D02*
X385827Y11811D01*
X517717Y242126D02*
X523622Y248031D01*
X517717Y269685D02*
X523622Y263779D01*
X545276Y242126D02*
Y242126D01*
X543307Y244094D02*
X545276Y242126D01*
X537402Y250000D02*
X543307Y244094D01*
X25591Y250000D02*
X31496Y244094D01*
X33465Y242126D01*
Y242126D02*
Y242126D01*
X27559Y263779D02*
X33465Y269685D01*
X5906Y242126D02*
X11811Y248031D01*
X27559Y27559D02*
X33465Y33465D01*
X5906D02*
X11811Y27559D01*
X33465Y5906D02*
Y5906D01*
X31496Y7874D02*
X33465Y5906D01*
X25591Y13780D02*
X31496Y7874D01*
D67*
X216437Y151781D02*
D03*
Y143612D02*
D03*
X238189Y147628D02*
D03*
X217913Y75403D02*
D03*
D68*
X525433Y121496D02*
D03*
Y111496D02*
D03*
X535433Y121496D02*
D03*
Y111496D02*
D03*
X525433Y101496D02*
D03*
Y91496D02*
D03*
X535433Y101496D02*
D03*
Y91496D02*
D03*
Y41496D02*
D03*
Y51496D02*
D03*
Y61496D02*
D03*
Y71496D02*
D03*
Y81496D02*
D03*
X525433Y31496D02*
D03*
Y41496D02*
D03*
Y51496D02*
D03*
Y61496D02*
D03*
Y71496D02*
D03*
Y81496D02*
D03*
X13780Y186693D02*
D03*
Y196693D02*
D03*
X62165Y13780D02*
D03*
X72165D02*
D03*
X82165D02*
D03*
X92165D02*
D03*
X102165D02*
D03*
D69*
X535433Y31496D02*
D03*
X13780Y206693D02*
D03*
D70*
X443433Y31496D02*
D03*
X505433Y121496D02*
D03*
D71*
X369252Y172402D02*
D03*
Y162402D02*
D03*
X359252Y172402D02*
D03*
X300394Y261811D02*
D03*
X310394D02*
D03*
X320394D02*
D03*
X538386Y156378D02*
D03*
Y166378D02*
D03*
Y176378D02*
D03*
Y186378D02*
D03*
Y196378D02*
D03*
Y206378D02*
D03*
Y216378D02*
D03*
D72*
X359252Y162402D02*
D03*
X330394Y261811D02*
D03*
D73*
X194882Y244094D02*
D03*
D74*
X181103D02*
D03*
X167323D02*
D03*
X153543D02*
D03*
X139764D02*
D03*
D75*
X538386Y226378D02*
D03*
D76*
X393701Y19685D02*
D03*
X531496Y255906D02*
D03*
X19685D02*
D03*
Y19685D02*
D03*
D77*
X52165Y13780D02*
D03*
D78*
X323819Y145935D02*
D03*
X411319Y138681D02*
D03*
X384547Y138779D02*
D03*
X366795Y80646D02*
D03*
X72539Y260827D02*
D03*
X144685Y46457D02*
D03*
X389075Y95374D02*
D03*
X406988Y94980D02*
D03*
X328248Y75787D02*
D03*
Y79232D02*
D03*
X391831Y102559D02*
D03*
X412303Y49705D02*
D03*
X398524Y50689D02*
D03*
X474902Y45827D02*
D03*
Y53307D02*
D03*
X374410Y50689D02*
D03*
X360039Y44882D02*
D03*
X246260Y94390D02*
D03*
X356791Y66929D02*
D03*
X353839D02*
D03*
X433071D02*
D03*
X423071Y66969D02*
D03*
X413071Y67008D02*
D03*
X403071Y66949D02*
D03*
X393071Y66969D02*
D03*
X383071Y67027D02*
D03*
X373071Y66988D02*
D03*
X363071Y67008D02*
D03*
X69882Y154724D02*
D03*
X101969Y30636D02*
D03*
X101831Y27008D02*
D03*
X224410Y9449D02*
D03*
X228346Y12205D02*
D03*
X232283Y14961D02*
D03*
X236221Y17717D02*
D03*
X232283Y41339D02*
D03*
X236221D02*
D03*
X240158D02*
D03*
X244094D02*
D03*
X351279Y17717D02*
D03*
X212795Y174705D02*
D03*
X285550Y187087D02*
D03*
X89567Y149229D02*
D03*
X89468Y158366D02*
D03*
X89518Y153297D02*
D03*
X135827Y181496D02*
D03*
X138779Y195374D02*
D03*
X170472Y203150D02*
D03*
X166043Y203248D02*
D03*
X209055Y201279D02*
D03*
X208957Y206299D02*
D03*
X281988Y182185D02*
D03*
X276772Y184484D02*
D03*
X244528Y174409D02*
D03*
X223819Y155610D02*
D03*
X115945Y182480D02*
D03*
X31201Y178937D02*
D03*
X38880Y180324D02*
D03*
X36319Y181890D02*
D03*
X92520Y47343D02*
D03*
X56756Y31953D02*
D03*
X42717Y46063D02*
D03*
X219302Y186525D02*
D03*
X295388Y175008D02*
D03*
X285742Y178847D02*
D03*
X58662Y132874D02*
D03*
X42126Y110630D02*
D03*
Y140157D02*
D03*
X42028Y125591D02*
D03*
X88583Y204724D02*
D03*
Y200098D02*
D03*
X83169Y173721D02*
D03*
X78248D02*
D03*
X86910Y169095D02*
D03*
X74508Y151772D02*
D03*
X69882Y166240D02*
D03*
X98032Y152756D02*
D03*
X271063Y169980D02*
D03*
X271654Y159941D02*
D03*
X277461Y172441D02*
D03*
X282776Y190453D02*
D03*
X274606Y201279D02*
D03*
X260039Y196457D02*
D03*
X333366Y152953D02*
D03*
X319193Y190945D02*
D03*
X299311Y191240D02*
D03*
X318504Y172343D02*
D03*
X278839Y237008D02*
D03*
X280413Y233465D02*
D03*
X373524Y186417D02*
D03*
Y189862D02*
D03*
X361319Y227854D02*
D03*
X376969Y206496D02*
D03*
X353839Y186024D02*
D03*
Y189665D02*
D03*
X437008Y124016D02*
D03*
X366142Y124803D02*
D03*
X474843Y68071D02*
D03*
X474843Y71653D02*
D03*
X433071Y139764D02*
D03*
X440945Y124016D02*
D03*
X444882D02*
D03*
X452756Y131890D02*
D03*
X456693Y127953D02*
D03*
X460630Y124016D02*
D03*
X464567Y120079D02*
D03*
X468504Y116142D02*
D03*
X472441Y112205D02*
D03*
X322835Y108268D02*
D03*
Y112205D02*
D03*
X271654Y133858D02*
D03*
Y129528D02*
D03*
X364961Y131658D02*
D03*
X361417Y142126D02*
D03*
X349606D02*
D03*
X493405Y205315D02*
D03*
X494390Y198524D02*
D03*
X487402Y196555D02*
D03*
X393701Y237795D02*
D03*
X501244Y165784D02*
D03*
X517126Y186713D02*
D03*
X493976Y181968D02*
D03*
X493937Y191969D02*
D03*
X377859Y223420D02*
D03*
X377950Y230804D02*
D03*
X377067Y237795D02*
D03*
X473135Y215152D02*
D03*
X487699Y185529D02*
D03*
X121358Y217913D02*
D03*
X109350Y226575D02*
D03*
X70866Y200787D02*
D03*
X119488Y202067D02*
D03*
X115458Y199424D02*
D03*
X138386Y190945D02*
D03*
X177559Y215551D02*
D03*
X168504Y209646D02*
D03*
X118110Y214567D02*
D03*
X72441Y257480D02*
D03*
Y264173D02*
D03*
X112598Y198818D02*
D03*
X109842Y200393D02*
D03*
X106299Y183858D02*
D03*
X128347Y181496D02*
D03*
X120472D02*
D03*
X84646Y227559D02*
D03*
X113168Y226202D02*
D03*
X134252Y205512D02*
D03*
X107086Y198818D02*
D03*
X104429Y200492D02*
D03*
X83071Y230315D02*
D03*
X72047D02*
D03*
X72835Y188976D02*
D03*
X44690Y222239D02*
D03*
X44589Y234151D02*
D03*
X44488Y246063D02*
D03*
X113583Y127264D02*
D03*
X274803Y70866D02*
D03*
X278346D02*
D03*
X271654Y59055D02*
D03*
X300787Y145668D02*
D03*
X342520Y143701D02*
D03*
X287598Y58268D02*
D03*
X317913Y78937D02*
D03*
X328642Y88484D02*
D03*
X332776Y97441D02*
D03*
X267322Y59054D02*
D03*
X261811Y59055D02*
D03*
X298031Y143306D02*
D03*
X299213Y140157D02*
D03*
X301181Y137795D02*
D03*
X170965Y91831D02*
D03*
X209055Y98819D02*
D03*
X123031Y73228D02*
D03*
X118012Y83071D02*
D03*
X28543Y226279D02*
D03*
X91240Y72047D02*
D03*
X110433Y118209D02*
D03*
X274606Y105118D02*
D03*
X270866Y105709D02*
D03*
X267323Y106102D02*
D03*
X263583Y106595D02*
D03*
X328543Y91437D02*
D03*
X332793Y100314D02*
D03*
X163976Y125689D02*
D03*
X145079Y127264D02*
D03*
X126181D02*
D03*
X151378Y127264D02*
D03*
X154528Y127165D02*
D03*
X160827Y127165D02*
D03*
X138976Y126378D02*
D03*
X123031Y125886D02*
D03*
X129429Y125984D02*
D03*
X148130Y125886D02*
D03*
X129331Y72933D02*
D03*
X135630Y71653D02*
D03*
X138779Y73228D02*
D03*
X132480Y71752D02*
D03*
X141929D02*
D03*
X145079D02*
D03*
X148228Y73032D02*
D03*
X157677D02*
D03*
X154626Y71752D02*
D03*
X151378D02*
D03*
X126181D02*
D03*
X106988Y85925D02*
D03*
X310941Y59269D02*
D03*
X308071Y59350D02*
D03*
X304134Y156693D02*
D03*
X82087Y126476D02*
D03*
Y72342D02*
D03*
X104035Y126378D02*
D03*
X101083Y128150D02*
D03*
X246457Y86614D02*
D03*
X246456Y83464D02*
D03*
X245965Y112894D02*
D03*
X247244Y110138D02*
D03*
X224114Y98819D02*
D03*
X132480Y118110D02*
D03*
X135531Y115551D02*
D03*
X141831Y113386D02*
D03*
X123524Y112598D02*
D03*
X97835Y126279D02*
D03*
X107579Y71555D02*
D03*
X290182Y60458D02*
D03*
X246949Y159449D02*
D03*
X244094Y155512D02*
D03*
X232480D02*
D03*
X157677Y125787D02*
D03*
X163878Y73032D02*
D03*
X160827Y71653D02*
D03*
X97835Y71850D02*
D03*
X100984Y69685D02*
D03*
X469685Y179921D02*
D03*
X457480Y187008D02*
D03*
X230315Y139764D02*
D03*
X264567Y57480D02*
D03*
X271654Y156299D02*
D03*
X287106Y157874D02*
D03*
X289370Y160433D02*
D03*
X347637Y122046D02*
D03*
X343620Y116641D02*
D03*
X343915Y121070D02*
D03*
X347638Y117317D02*
D03*
X300689Y89272D02*
D03*
X307382Y86516D02*
D03*
X288681Y93898D02*
D03*
X294980Y91240D02*
D03*
X98425Y183858D02*
D03*
X90551D02*
D03*
X166831Y230477D02*
D03*
Y226806D02*
D03*
X166831Y223031D02*
D03*
Y219094D02*
D03*
X245866Y252362D02*
D03*
X244488Y249606D02*
D03*
X245768Y246850D02*
D03*
X258268Y230315D02*
D03*
X265748Y234252D02*
D03*
X244587Y221358D02*
D03*
X273228Y221654D02*
D03*
X245079Y256890D02*
D03*
X251969Y252756D02*
D03*
X276772Y253937D02*
D03*
X288189Y253642D02*
D03*
X280709Y253248D02*
D03*
X280413Y227953D02*
D03*
X244094Y266929D02*
D03*
X239370D02*
D03*
X241732Y263779D02*
D03*
X294094Y237008D02*
D03*
Y241732D02*
D03*
X296457Y244488D02*
D03*
X478346Y22205D02*
D03*
X486221D02*
D03*
X478346Y41890D02*
D03*
X486221D02*
D03*
X460532Y45827D02*
D03*
X460433Y53307D02*
D03*
X487628Y226197D02*
D03*
X487497Y222537D02*
D03*
X472441Y237402D02*
D03*
X512697Y172933D02*
D03*
X480640Y181018D02*
D03*
X343110Y140748D02*
D03*
X288583Y173425D02*
D03*
X307087Y161811D02*
D03*
Y173425D02*
D03*
X236122Y73917D02*
D03*
X230610Y73917D02*
D03*
X235642Y84750D02*
D03*
X241634Y84547D02*
D03*
X233465Y102165D02*
D03*
X238583D02*
D03*
X224618Y135638D02*
D03*
X225689Y86122D02*
D03*
X226870Y65847D02*
D03*
X261910Y51673D02*
D03*
Y46555D02*
D03*
X288090Y51673D02*
D03*
Y46555D02*
D03*
X309744Y54921D02*
D03*
Y43307D02*
D03*
X332874Y54921D02*
D03*
Y43307D02*
D03*
X339370Y43307D02*
D03*
X274016Y46457D02*
D03*
X270866Y43701D02*
D03*
X300394Y26024D02*
D03*
X296850D02*
D03*
X293701D02*
D03*
X136811Y37008D02*
D03*
X288189Y25984D02*
D03*
X277165Y26024D02*
D03*
X154075Y223878D02*
D03*
X322933Y243799D02*
D03*
Y249902D02*
D03*
X308465Y246850D02*
D03*
X313386Y233858D02*
D03*
X319587Y234547D02*
D03*
X313976Y241831D02*
D03*
X319882Y242323D02*
D03*
X338976Y242717D02*
D03*
X338681Y234744D02*
D03*
X338779Y225984D02*
D03*
X393307Y220866D02*
D03*
X361614Y236417D02*
D03*
X473228Y197539D02*
D03*
X473130Y193110D02*
D03*
X395669Y195669D02*
D03*
X395523Y199556D02*
D03*
X377067Y201782D02*
D03*
X377067Y199606D02*
D03*
X400687Y179756D02*
D03*
X344390Y198425D02*
D03*
X334291Y198268D02*
D03*
X324291Y198307D02*
D03*
X314291Y198307D02*
D03*
X304291Y198268D02*
D03*
X294291Y198327D02*
D03*
X298165Y208992D02*
D03*
X308205D02*
D03*
X318173D02*
D03*
X328114D02*
D03*
X338154D02*
D03*
X348193D02*
D03*
X197736Y186417D02*
D03*
X197047Y197736D02*
D03*
X187115Y213594D02*
D03*
X60630Y106595D02*
D03*
X50591Y121555D02*
D03*
X55413Y136221D02*
D03*
X98425Y133858D02*
D03*
X133858D02*
D03*
X146260Y136811D02*
D03*
X164961Y131496D02*
D03*
X126378Y68110D02*
D03*
X95079Y67913D02*
D03*
X138189Y64961D02*
D03*
X153543D02*
D03*
X162008Y67913D02*
D03*
X143898Y41043D02*
D03*
X323130Y89075D02*
D03*
X321455Y82776D02*
D03*
X322555Y85634D02*
D03*
X338107Y71362D02*
D03*
X338330Y68071D02*
D03*
X262500Y156102D02*
D03*
X331791Y65650D02*
D03*
X76378Y61024D02*
D03*
X345965Y114173D02*
D03*
X373071Y88032D02*
D03*
X383071Y87992D02*
D03*
X393071Y88032D02*
D03*
X403071Y88071D02*
D03*
X413071Y88071D02*
D03*
X423071Y88150D02*
D03*
X433071Y87992D02*
D03*
X343602Y97441D02*
D03*
X344013Y94591D02*
D03*
X345431Y99572D02*
D03*
X352854Y92716D02*
D03*
X357972Y92716D02*
D03*
X361811Y114567D02*
D03*
X431102Y108268D02*
D03*
X427165D02*
D03*
X360138Y101772D02*
D03*
X322835Y9843D02*
D03*
X326772Y13780D02*
D03*
X330709Y17717D02*
D03*
X334646Y21654D02*
D03*
X405315Y154134D02*
D03*
X391043Y156398D02*
D03*
X258760Y127657D02*
D03*
X261497Y125006D02*
D03*
X265354Y144291D02*
D03*
X262941Y145838D02*
D03*
X258957Y155118D02*
D03*
X49606Y152756D02*
D03*
X307677Y156741D02*
D03*
X317126Y156299D02*
D03*
X309941Y161909D02*
D03*
X474016Y209449D02*
D03*
X470768Y209395D02*
D03*
X395393Y208770D02*
D03*
X393193Y211433D02*
D03*
X376495Y213495D02*
D03*
X394787Y216043D02*
D03*
X376969Y218406D02*
D03*
X321949Y169783D02*
D03*
X325197Y166732D02*
D03*
D79*
X379921Y33465D02*
D03*
X407480D02*
D03*
Y5906D02*
D03*
X379921D02*
D03*
X517717Y242126D02*
D03*
X545276D02*
D03*
X517717Y269685D02*
D03*
X33465D02*
D03*
Y242126D02*
D03*
X5906D02*
D03*
X33465Y5906D02*
D03*
Y33465D02*
D03*
X5906D02*
D03*
D80*
X253937Y241732D02*
D03*
X250000D02*
D03*
X253937Y237795D02*
D03*
X250000D02*
D03*
X112598Y215551D02*
D03*
Y211221D02*
D03*
X108268Y215551D02*
D03*
Y211221D02*
D03*
X103937Y215551D02*
D03*
Y211221D02*
D03*
M02*
