G04 Layer_Color=128*
%FSLAX25Y25*%
%MOIN*%
G70*
G01*
G75*
%ADD19R,0.04331X0.05512*%
%ADD24R,0.04724X0.04724*%
%ADD31R,0.05512X0.04331*%
%ADD32R,0.04921X0.06890*%
%ADD41R,0.04331X0.01772*%
%ADD42R,0.04331X0.02756*%
%ADD45R,0.05000X0.12000*%
%ADD82R,0.12000X0.05000*%
%ADD83R,0.02559X0.03740*%
%ADD84O,0.02362X0.05709*%
D19*
X91240Y37008D02*
D03*
X98130D02*
D03*
X91240Y27008D02*
D03*
X98130D02*
D03*
X361713Y209646D02*
D03*
X354823D02*
D03*
X361713Y217520D02*
D03*
X354823D02*
D03*
D24*
X53150Y156496D02*
D03*
Y163976D02*
D03*
D31*
X133858Y187500D02*
D03*
Y194390D02*
D03*
X313780Y172343D02*
D03*
Y165453D02*
D03*
X45669Y163681D02*
D03*
Y156791D02*
D03*
X37795Y163681D02*
D03*
Y156791D02*
D03*
D32*
X358760Y187992D02*
D03*
X369587D02*
D03*
D41*
X219882Y58661D02*
D03*
Y55512D02*
D03*
X213189Y58661D02*
D03*
Y55512D02*
D03*
X213189Y75197D02*
D03*
Y78347D02*
D03*
X219882Y75197D02*
D03*
Y78347D02*
D03*
X219882Y129528D02*
D03*
Y126378D02*
D03*
X213189Y129528D02*
D03*
Y126378D02*
D03*
X219882Y149213D02*
D03*
Y146063D02*
D03*
X213189Y149213D02*
D03*
Y146063D02*
D03*
D42*
X219882Y62185D02*
D03*
Y51988D02*
D03*
X213189Y62185D02*
D03*
Y51988D02*
D03*
X213189Y71673D02*
D03*
Y81870D02*
D03*
X219882Y71673D02*
D03*
Y81870D02*
D03*
X219882Y133051D02*
D03*
Y122854D02*
D03*
X213189Y133051D02*
D03*
Y122854D02*
D03*
X219882Y152736D02*
D03*
Y142539D02*
D03*
X213189Y152736D02*
D03*
Y142539D02*
D03*
D45*
X363071Y80646D02*
D03*
X373071D02*
D03*
X363071Y59646D02*
D03*
X373071D02*
D03*
X383071Y80646D02*
D03*
Y59646D02*
D03*
X393071Y80646D02*
D03*
Y59646D02*
D03*
X403071Y80646D02*
D03*
Y59646D02*
D03*
X413071Y80646D02*
D03*
Y59646D02*
D03*
X423071Y80646D02*
D03*
Y59646D02*
D03*
X433071Y80646D02*
D03*
Y59646D02*
D03*
D82*
X522244Y201969D02*
D03*
X501244D02*
D03*
X522244Y191969D02*
D03*
X501244D02*
D03*
X522244Y181968D02*
D03*
X501244D02*
D03*
X522244Y171968D02*
D03*
X501244D02*
D03*
X522244Y161969D02*
D03*
X501244D02*
D03*
X522244Y151969D02*
D03*
X501244D02*
D03*
X77756Y37008D02*
D03*
X56756D02*
D03*
X77756Y27008D02*
D03*
X56756D02*
D03*
D83*
X92126Y200098D02*
D03*
X85039D02*
D03*
X88583Y209350D02*
D03*
D84*
X144075Y219390D02*
D03*
X149075D02*
D03*
X154075D02*
D03*
X159075D02*
D03*
X144075Y197933D02*
D03*
X149075D02*
D03*
X154075D02*
D03*
X159075D02*
D03*
M02*
