M48
;Layer_Color=9474304
;FILE_FORMAT=2:5
INCH,LZ
;TYPE=PLATED
T1F00S00C0.00800
T2F00S00C0.01000
T3F00S00C0.02362
T4F00S00C0.03543
T5F00S00C0.04000
T6F00S00C0.05512
T7F00S00C0.12200
%
T01
X025Y0237795
Y0241732
X0253937
Y0237795
X0112598Y0215551
Y0211221
X0108268
Y0215551
X0103937
Y0211221
T02
X0478346Y0022205
X0486221
X0351279Y0017717
X0334646Y0021654
X0330709Y0017717
X0326772Y001378
X0322835Y0009843
X0300394Y0026024
X029685
X0293701
X0288189Y0025984
X0277165Y0026024
X0236221Y0017717
X0232283Y0014961
X0228346Y0012205
X022441Y0009449
X0101831Y0027008
X0101969Y0030636
X0056756Y0031953
X0042717Y0046063
X0076378Y0061024
X006063Y0106595
X0042126Y011063
X0042028Y0125591
X0050591Y0121555
X0058662Y0132874
X0055413Y0136221
X0042126Y0140157
X0049606Y0152756
X0069882Y0154724
X0074508Y0151772
X0069882Y016624
X0072835Y0188976
X003888Y0180324
X0036319Y018189
X0031201Y0178937
X0078248Y0173721
X0083169
X008691Y0169095
X0089468Y0158366
X0089518Y0153297
X0089567Y0149229
X0098032Y0152756
X0098425Y0133858
X0097835Y0126279
X0101083Y012815
X0104035Y0126378
X0113583Y0127264
X0123031Y0125886
X0126181Y0127264
X0129429Y0125984
X0138976Y0126378
X0145079Y0127264
X014813Y0125886
X0151378Y0127264
X0154528Y0127165
X0157677Y0125787
X0160827Y0127165
X0163976Y0125689
X0164961Y0131496
X014626Y0136811
X0133858Y0133858
X013248Y011811
X0135531Y0115551
X0141831Y0113386
X0123524Y0112598
X0110433Y0118209
X0106988Y0085925
X0118012Y0083071
X0123031Y0073228
X0126181Y0071752
X0126378Y006811
X0129331Y0072933
X013248Y0071752
X013563Y0071653
X0138779Y0073228
X0141929Y0071752
X0145079
X0148228Y0073032
X0151378Y0071752
X0154626
X0157677Y0073032
X0160827Y0071653
X0163878Y0073032
X0162008Y0067913
X0153543Y0064961
X0138189
X0144685Y0046457
X0143898Y0041043
X0136811Y0037008
X009252Y0047343
X0095079Y0067913
X0097835Y007185
X0100984Y0069685
X0107579Y0071555
X009124Y0072047
X0082087Y0072342
Y0126476
X0090551Y0183858
X0098425
X0106299
X0115945Y018248
X0120472Y0181496
X0128347
X0135827
X0138386Y0190945
X0197736Y0186417
X0219302Y0186525
X0212795Y0174705
X0223819Y015561
X023248Y0155512
X0230315Y0139764
X0224618Y0135638
X0224114Y0098819
X0233465Y0102165
X0225689Y0086122
X023061Y0073917
X022687Y0065847
X0232283Y0041339
X0209055Y0098819
X0170965Y0091831
X0235642Y008475
X0241634Y0084547
X0246456Y0083464
X0246457Y0086614
X024626Y009439
X0238583Y0102165
X0247244Y0110138
X0245965Y0112894
X0263583Y0106595
X0267323Y0106102
X0270866Y0105709
X0274606Y0105118
X0288681Y0093898
X029498Y009124
X0300689Y0089272
X0307382Y0086516
X0322555Y0085634
X0321455Y0082776
X0317913Y0078937
X0328248Y0079232
Y0075787
X0328642Y0088484
X0328543Y0091437
X032313Y0089075
X0332776Y0097441
X0332793Y0100314
X0345431Y0099572
X0343602Y0097441
X0344013Y0094591
X0352854Y0092716
X0357972Y0092716
X0360138Y0101772
X0361811Y0114567
X0366142Y0124803
X0364961Y0131658
X0361417Y0142126
X0349606
X034311Y0140748
X034252Y0143701
X0333366Y0152953
X0323622Y0145669
X0317126Y0156299
X0307677Y0156741
X0304134Y0156693
X0307087Y0161811
X0309941Y0161909
X0307087Y0173425
X0318504Y0172343
X0321949Y0169783
X0325197Y0166732
X0319193Y0190945
X0299311Y019124
X0282776Y0190453
X028555Y0187087
X0285742Y0178847
X0281988Y0182185
X0276772Y0184484
X0277461Y0172441
X0271063Y016998
X0271654Y0159941
Y0156299
X02625Y0156102
X0258957Y0155118
X0262941Y0145838
X0265354Y0144291
X0271654Y0133858
Y0129528
X0261497Y0125006
X025876Y0127657
X0244094Y0155512
X0246949Y0159449
X0244528Y0174409
X0288583Y0173425
X0295388Y0175008
X028937Y0160433
X0287106Y0157874
X0298031Y0143306
X0299213Y0140157
X0301181Y0137795
X0300787Y0145668
X0322835Y0112205
Y0108268
X0345965Y0114173
X034362Y0116641
X0347638Y0117317
X0347637Y0122046
X0343915Y012107
X0338107Y0071362
X033833Y0068071
X0331791Y006565
X0332874Y0054921
Y0043307
X033937Y0043307
X0360039Y0044882
X037441Y0050689
X0373071Y0066988
X0363071Y0067008
X0356791Y0066929
X0353839
X0366795Y0080646
X0373071Y0088032
X0383071Y0087992
X0389075Y0095374
X0383071Y0067027
X0384547Y0138779
X0373524Y0186417
Y0189862
X0353839Y0189665
Y0186024
X0310941Y0059269
X0308071Y005935
X0309744Y0054921
Y0043307
X028809Y0046555
Y0051673
X0287598Y0058268
X0290182Y0060458
X0271654Y0059055
X0267322Y0059054
X0264567Y005748
X0261811Y0059055
X026191Y0051673
Y0046555
X0270866Y0043701
X0274016Y0046457
X0274803Y0070866
X0278346
X0236122Y0073917
X0236221Y0041339
X0240158
X0244094
X0398524Y0050689
X0412303Y0049705
X0413071Y0067008
X0423071Y0066969
X0433071Y0066929
Y0087992
X0423071Y008815
X0413071Y0088071
X0403071Y0088071
X0393071Y0088032
X0391831Y0102559
X0406988Y009498
X0403071Y0066949
X0393071Y0066969
X0427165Y0108268
X0431102
X0437008Y0124016
X0440945
X0444882
X0452756Y013189
X0456693Y0127953
X046063Y0124016
X0464567Y0120079
X0468504Y0116142
X0472441Y0112205
X0474843Y0071653
X0474843Y0068071
X0474902Y0053307
Y0045827
X0478346Y004189
X0486221
X0460532Y0045827
X0460433Y0053307
X0433071Y0139764
X0411319Y0138681
X0405315Y0154134
X0391043Y0156398
X0400687Y0179756
X045748Y0187008
X0469685Y0179921
X048064Y0181018
X0487699Y0185529
X0493976Y0181968
X0501244Y0165784
X0512697Y0172933
X0517126Y0186713
X0493937Y0191969
X049439Y0198524
X0493405Y0205315
X0487402Y0196555
X0473228Y0197539
X047313Y019311
X0474016Y0209449
X0470768Y0209395
X0473135Y0215152
X0487497Y0222537
X0487628Y0226197
X0472441Y0237402
X0393701Y0237795
X0393307Y0220866
X0394787Y0216043
X0393193Y0211433
X0395393Y020877
X0395523Y0199556
X0395669Y0195669
X0377067Y0199606
X0377067Y0201782
X0376969Y0206496
X0376495Y0213495
X0376969Y0218406
X0377859Y022342
X037795Y0230804
X0377067Y0237795
X0361614Y0236417
X0361319Y0227854
X0338779Y0225984
X0338681Y0234744
X0338976Y0242717
X0322933Y0243799
X0319882Y0242323
X0313976Y0241831
X0313386Y0233858
X0319587Y0234547
X0322933Y0249902
X0308465Y024685
X0296457Y0244488
X0294094Y0241732
Y0237008
X0278839Y0237008
X0280413Y0233465
Y0227953
X0273228Y0221654
X0265748Y0234252
X0258268Y0230315
X0244587Y0221358
X0245768Y024685
X0244488Y0249606
X0245866Y0252362
X0245079Y025689
X0241732Y0263779
X023937Y0266929
X0244094
X0251969Y0252756
X0276772Y0253937
X0280709Y0253248
X0288189Y0253642
X0298165Y0208992
X0308205
X0318173
X0328114
X0338154
X0348193
X034439Y0198425
X0334291Y0198268
X0324291Y0198307
X0314291Y0198307
X0304291Y0198268
X0294291Y0198327
X0274606Y0201279
X0260039Y0196457
X0209055Y0201279
X0208957Y0206299
X0197047Y0197736
X0187115Y0213594
X0177559Y0215551
X0166831Y0219094
Y0223031
X0166831Y0226806
Y0230477
X0154075Y0223878
X0168504Y0209646
X0170472Y020315
X0166043Y0203248
X0134252Y0205512
X0138779Y0195374
X0119488Y0202067
X0115458Y0199424
X0112598Y0198818
X0109842Y0200393
X0107086Y0198818
X0104429Y0200492
X0088583Y0200098
Y0204724
X0084646Y0227559
X0083071Y0230315
X010935Y0226575
X0113168Y0226202
X0121358Y0217913
X011811Y0214567
X0070866Y0200787
X0072047Y0230315
X0072441Y025748
X0072539Y0260827
X0072441Y0264173
X0044488Y0246063
X0044589Y0234151
X004469Y0222239
X0028543Y0226279
T03
X040748Y0005906
Y0033465
X0379921
Y0005906
X0033465
Y0033465
X0005906
X0517717Y0242126
X0545276
X0517717Y0269685
X0033465
Y0242126
X0005906
T04
X0359252Y0162402
X0369252
Y0172402
X0359252
X0538386Y0176378
Y0166378
Y0156378
Y0186378
Y0196378
Y0206378
Y0216378
Y0226378
X0330394Y0261811
X0320394
X0310394
X0300394
T05
X0525433Y0031496
X0535433
X0102165Y001378
X0092165
X0082165
X0072165
X0062165
X0052165
X001378Y0186693
X0525433Y0121496
Y0111496
X0535433
Y0121496
Y0101496
X0525433
Y0091496
X0535433
Y0081496
Y0071496
Y0061496
Y0051496
Y0041496
X0525433
Y0051496
Y0061496
Y0071496
Y0081496
X001378Y0196693
Y0206693
T06
X0139764Y0244094
X0153543
X0167323
X0181103
X0194882
T07
X0443433Y0031496
X0505433Y0121496
M30
