M48
;Layer_Color=9474304
;FILE_FORMAT=2:5
INCH,LZ
;TYPE=PLATED
T1F00S00C0.00800
T2F00S00C0.01000
T3F00S00C0.02362
T4F00S00C0.03543
T5F00S00C0.04000
T6F00S00C0.05512
T7F00S00C0.11811
;TYPE=NON_PLATED
T8F00S00C0.13780
%
T01
X0393701Y0318898
Y0322835
X0389764
Y0318898
X0120276Y0319291
Y0314961
Y031063
X0115945
Y0314961
Y0319291
T02
X055315Y0029528
X0562992
X0572835
Y0023228
X0582992Y002315
X0583071Y0029528
X0592913
X0592992Y002315
X0602992Y0022992
X060315Y0029528
X0616142Y0031496
Y0019685
X0615748Y0046457
X0608366Y0066732
X0599803Y0069193
X0601968Y0077953
X0615748Y0091732
X0625591Y0070472
X0630315Y0062992
X063937Y0056299
X0646654Y007441
X063937Y008189
X0553937Y0065748
X0544095
X0534252
X0521654Y0086614
X0509842Y0111024
Y0116929
Y0122835
Y012874
X0413386Y0130905
X0418602Y0052461
X0406791Y0052362
X0395177Y0052461
X0399606Y0024409
X0411417
X0423228
X0492126Y0028543
X0533071Y0029528
X0543307
X0387795Y0024409
X0383563Y0052165
X0365354Y0072047
X0351574Y0075984
X0351969Y0081496
X0347128Y0081379
X034941Y0088878
X0351969Y0097244
X0355511Y0097244
X0352362Y0108661
X0352165Y0117717
X0348327Y0118012
X0348228Y0120965
X0352461Y0126969
X0352478Y0129842
X0364665Y0133858
X0363878Y0125
X0366535Y0123327
X0367126Y0118209
X0363484
X037185Y0121063
X0381299Y0120866
X0381398Y0132972
X0373721Y0111516
X0371555Y0109055
X0368602Y0106496
X0377953Y0097244
X0379921Y0094488
X0330626Y0088796
X0327756Y0088878
X0332283Y0081496
Y0075984
X0334646Y0066929
X0330709Y0043307
X032874Y0027559
X0332677
X0324803
X0344488Y0023622
X0358268Y0015748
X0320177Y0051575
X0316929Y0051181
X0313484
X0309941Y005187
X0295177Y0048425
X02937Y0071259
X0291339Y0073228
X0285826Y0075196
X0285827Y0081496
X0284252Y0087008
X0287007Y0088582
X0291339Y0088583
X0281496
X0279134Y0085433
X0279921Y0075984
X0262992Y0077953
X0260236Y0075984
X0261417Y0071653
X0254724Y0070472
X0248031Y009685
X0248223Y0103937
X0259651Y0106501
X0266141Y0112991
X0266142Y0116142
X0266043Y0123031
X0255906Y0127559
X0250787
X0243799Y0128347
X0308366Y0123425
X0314665Y0120768
X0320374Y0118799
X0327067Y0116043
X0339602Y0115847
X0337697Y0113646
X0339583Y0110746
X0337598Y0108465
X0309867Y0089985
X0307283Y0087795
X0311417Y0081496
Y007559
X0298031Y0100394
X0294488
X0289763Y0029528
X0249213Y0033071
X0251692Y0036338
X0192028Y0080413
X0194291Y0114173
X0165748Y0121358
X0158661Y0102559
X015561Y0101181
X0152461Y0102559
X0149409Y0101279
X0146161
X0143012Y0102559
X0139862Y0101279
X0136713
X0133563Y0102756
X0130413Y0101181
X0127264Y0101279
X0124114Y0102461
X0120965Y0101279
X0117815Y0102756
X0112795Y0112598
X0101772Y0115453
X0102362Y0101083
X0095768Y0099213
X0092618Y0101378
X0086024Y0101575
X0089468Y0094587
X0079724Y0090551
X0129921
X0137894Y0079331
X0138878Y007185
X0138779Y0060236
X0161417Y0092224
X022874Y0128347
X0113189Y0028543
X007687Y010187
Y0156004
X0043307Y0160433
Y0176181
X0035827Y0176772
X0036417Y017126
X0035433Y0191929
X003937Y0190945
X0043307Y0191929
X0061417Y0200394
Y0209055
X0066929Y0228346
X0055118
Y0248031
X0059842Y0254331
X0049606Y0253543
X0070965Y0259842
X0070965Y0273622
Y0287402
X0026378Y015748
X0082677Y0167717
X009124Y0165354
X0092618Y0155807
X0095866Y0157677
X0098819Y0155905
X0108366Y0156791
X0117815Y0155413
X0120965Y0156791
X0124213Y0155512
X0133661Y0155315
X0139862Y0156791
X0142913Y0155413
X0146161Y0156791
X0149311Y0156693
X0152461Y0155315
X015561Y0156693
X015876Y0155217
X0161614Y0165354
X0153543Y0168012
X0142323Y016811
X0137205Y016811
X0129035Y0165354
X0120866Y0168012
X0127264Y0147638
X0130315Y0145079
X0136614Y0142913
X0118307Y0142126
X0105217Y0147736
X0088976Y0204724
X0087795Y0212598
X0096457Y0215354
X009685Y0220472
X01Y0217815
X0098032Y027559
X008937Y0282283
X0083661Y0287402
X0120276Y0288583
X0119095Y0281496
X0143701Y0283465
X0156496Y0248031
X017815
X0165748Y0229527
X0166339Y022451
X016624Y0211617
X0181496Y0214173
X0217815Y0186122
Y0168504
X0221457Y0245079
X0225394Y0242126
X0229331Y0239173
X0240158Y0278543
X025Y0286024
X0259055Y0279626
X0276378Y0245276
X0309055Y0228935
X0312008Y0225394
X0314961Y0220472
X0313386Y0206693
X0305512Y0204724
X030315Y0208661
X0294685Y020374
X0305118Y019685
X0309055Y0189961
X0306791Y0187402
X0301969Y0186221
X0291339Y0185827
X0282185Y018563
X0278642Y0184646
X0277558Y0181102
X0273622Y0183858
X0263779Y0185039
X0266634Y0188976
X0263878Y0204528
X0283465Y019685
X0288189Y0175591
X0290551Y0172835
X0278346Y0157874
X0280315Y0155118
X0283268Y0136122
X0287008Y013563
X0290551Y0135236
X0294291Y0134646
X0266929Y0139665
X026565Y0142421
X025Y0169291
X0252165Y0185039
X0325787Y0186811
X0328658Y0186833
X0333661Y018563
X0329921Y019685
X0332677Y0199803
Y0207087
X0326772Y0205118
X0320866Y0196457
X0320472Y0175196
X0317716Y0172834
X0318898Y0169685
X0320866Y0167323
X034252Y0163386
Y0159449
X0343307Y0175197
X0362205Y0173228
X0363878Y0170206
X0370866Y017126
Y0179528
X0382283
Y017126
X0384842Y0161024
X0382087Y0144685
X0365963Y01442
X0367323Y0146844
X0363305Y0146169
X03636Y0150598
X0367322Y0151574
X0351969Y0205906
X035Y0217323
X0345275Y0216141
X0341339Y0224803
X0349606Y0242126
X0383858Y026063
Y0265748
Y0270472
Y027559
X0382677Y0222244
X0311024Y026752
X0304724Y0267323
X0399213Y0265748
Y0270472
Y027559
Y026063
X0417717Y0263386
X0419291Y026811
X0419291Y0275984
X0423228Y0242126
X0425984Y0226378
X0434646Y0223228
X044685Y0207874
X0446063Y0195669
X046063Y0226378
X0477559Y0242126
X0473228Y0264961
Y0272047
X0483465Y0264173
X0491339Y0263779
X0499606Y0264173
X0520354Y0261929
X0530315Y0261811
X0540158
X0541339Y0265748
X0530709Y0240945
X0523622Y0212598
Y0202756
X050315
Y0212598
X0488976Y0211417
X0472441Y0168898
X0505512Y0163386
X0509842Y0152362
Y0146457
Y0140551
Y0134646
X0424409Y0154331
X0423622Y0163386
X0415354Y0159449
X0403858Y0192244
Y0202244
X040378Y0212244
X0403543Y0222244
X040378Y0232244
X0403622Y0242244
X0391535Y01375
X050315Y0290158
X0565748Y0285433
X0577559Y0286614
X0577953Y0278346
X0588189Y0284646
X0601575Y0283858
X0615354Y0268898
X055315Y0265748
X0547244
X0550394Y0240945
X0560236
X0570472
X0587795Y0293307
X0601575Y0292913
X0582283Y0314961
Y032874
X050315Y0305906
Y0298031
X0492618Y0299508
X0486221Y0299213
X0497244Y0291339
X0482677Y0319291
X0466929Y0318898
X0481496Y0335433
X0455709Y0348425
X0423228Y0340551
X0420079Y032874
X0422835Y0318898
X0424213Y0308858
X0412992Y0300394
X0394783Y030187
X0394882Y0308465
X0394488Y0293996
X0399606Y0328346
Y0331496
Y0334646
Y0337795
X0407087Y032126
X0389764Y035
X0279528Y0328937
X027559
X0268701Y0325787
X0259449Y0312992
Y0305118
X0269685Y0303346
X0274606
X0279528
X0240158Y0301181
X0236221Y0297244
Y0305118
X0133858Y030315
X0130315Y0305905
X0135827Y0309055
X0133858Y0312992
Y0291929
X0143701Y0291339
X0091339Y0292913
X0094488Y0311221
X0099606Y0311024
X0098327Y0316929
X0103051Y034685
X0140453Y0361319
X0145669Y036191
X0150787Y0361221
X003061Y0318898
T03
X0635827Y0005906
X0663386
Y0033465
X0635827
X0033465
X0005906
Y0005906
X0033465
X0635827Y0340551
Y036811
X0663386
Y0340551
X0033465
X0005906
Y036811
X0033465
T04
X0019685Y0255748
Y0265748
Y0275748
X0278543Y0285276
X0656496Y0284803
Y0274803
Y0264803
Y0254803
Y0294803
Y0304803
Y0314803
Y0324803
X0278543Y0320866
Y0310866
Y0295276
X0070866Y0318898
X0060866
T05
X0547244Y0114724
Y0124724
X0557244
Y0114724
X032559Y001378
X0315591
X0305591
X029559
X0285591
X027559
X0237008
X0227008
X0217008
X0207008
X0197008
X0187008
X0547244Y0134724
Y0144724
Y0154724
X0557244
Y0164724
Y0174724
Y0184724
Y0194724
Y0204724
X0547244
Y0194724
Y0184724
Y0174724
Y0164724
X0557244Y0144724
Y0134724
T06
X0246063Y034252
X0259842
X0273622
X0068898
X0055118
T07
X057874Y0114724
X0637795Y0204724
T08
X0649606Y0019685
X0019685
X0649606Y0354331
X0019685
M30
