G04 Layer_Physical_Order=1*
G04 Layer_Color=255*
%FSLAX25Y25*%
%MOIN*%
G70*
G01*
G75*
%ADD10C,0.00800*%
%ADD11R,0.05512X0.04331*%
%ADD12R,0.03150X0.03150*%
%ADD13O,0.02165X0.04724*%
%ADD14R,0.05118X0.07480*%
%ADD15O,0.05118X0.07480*%
%ADD16R,0.07874X0.21654*%
%ADD17R,0.06614X0.07402*%
%ADD18O,0.05315X0.01142*%
%ADD19R,0.05512X0.01693*%
%ADD20R,0.02756X0.00984*%
G04:AMPARAMS|DCode=21|XSize=93.7mil|YSize=64.96mil|CornerRadius=16.24mil|HoleSize=0mil|Usage=FLASHONLY|Rotation=270.000|XOffset=0mil|YOffset=0mil|HoleType=Round|Shape=RoundedRectangle|*
%AMROUNDEDRECTD21*
21,1,0.09370,0.03248,0,0,270.0*
21,1,0.06122,0.06496,0,0,270.0*
1,1,0.03248,-0.01624,-0.03061*
1,1,0.03248,-0.01624,0.03061*
1,1,0.03248,0.01624,0.03061*
1,1,0.03248,0.01624,-0.03061*
%
%ADD21ROUNDEDRECTD21*%
%ADD22O,0.05709X0.02362*%
%ADD23O,0.05315X0.01693*%
%ADD24R,0.06929X0.11614*%
%ADD25O,0.01161X0.06496*%
%ADD26O,0.06496X0.01161*%
%ADD27R,0.07087X0.13386*%
%ADD28C,0.03937*%
%ADD29R,0.13386X0.07087*%
%ADD30R,0.09055X0.05906*%
%ADD31R,0.04331X0.01772*%
%ADD32R,0.04331X0.02756*%
%ADD33R,0.01772X0.04331*%
%ADD34R,0.02756X0.04331*%
%ADD35R,0.04331X0.05512*%
%ADD36R,0.04921X0.06890*%
%ADD37R,0.02362X0.02165*%
%ADD38R,0.03150X0.02362*%
%ADD39R,0.11417X0.21260*%
%ADD40R,0.27559X0.15748*%
%ADD41R,0.05000X0.12000*%
%ADD42R,0.12000X0.05000*%
%ADD43R,0.03150X0.03150*%
%ADD44R,0.02362X0.03150*%
%ADD45R,0.08465X0.07087*%
%ADD46R,0.07087X0.08465*%
%ADD47R,0.05512X0.05906*%
%ADD48R,0.04724X0.04724*%
%ADD49R,0.03150X0.02362*%
%ADD50R,0.05906X0.05512*%
%ADD51R,0.04724X0.04724*%
%ADD52R,0.02362X0.03150*%
%ADD53R,0.05906X0.09449*%
%ADD54R,0.06890X0.04921*%
%ADD55R,0.18504X0.13386*%
%ADD56R,0.13386X0.18504*%
%ADD57R,0.10000X0.04500*%
%ADD58R,0.05500X0.10000*%
%ADD59R,0.03740X0.03740*%
%ADD60C,0.01200*%
%ADD61C,0.02953*%
%ADD62C,0.01000*%
%ADD63C,0.02500*%
%ADD64C,0.00787*%
%ADD65C,0.01500*%
%ADD66C,0.02000*%
%ADD67C,0.05000*%
%ADD68R,0.02559X0.01201*%
%ADD69R,0.01201X0.02559*%
%ADD70R,0.01969X0.01181*%
%ADD71C,0.05906*%
%ADD72R,0.05906X0.05906*%
%ADD73R,0.06600X0.06600*%
%ADD74C,0.06600*%
%ADD75P,0.09334X4X360.0*%
%ADD76R,0.05906X0.05906*%
%ADD77C,0.25590*%
%ADD78R,0.07480X0.07480*%
%ADD79C,0.07480*%
%ADD80R,0.06600X0.06600*%
%ADD81C,0.21654*%
%ADD82C,0.02000*%
%ADD83C,0.02400*%
%ADD84C,0.04724*%
G36*
X226378Y349410D02*
Y329724D01*
X221457Y324803D01*
X167323D01*
X162402Y329724D01*
X143701D01*
X142717Y328740D01*
X142717Y320472D01*
X128709D01*
X128681Y320478D01*
X125059D01*
X125031Y320472D01*
X124016D01*
X123622Y320866D01*
X123622Y325394D01*
X127953Y329724D01*
X132874Y334646D01*
Y339567D01*
X137795Y344488D01*
X142717Y349410D01*
X162402D01*
X167323Y354331D01*
X221457D01*
X226378Y349410D01*
D02*
G37*
G36*
X413386Y338583D02*
X413386Y326772D01*
X411417Y324803D01*
X405512D01*
X403150Y322441D01*
X398031D01*
X397638Y322835D01*
X396654Y323819D01*
X396654Y339567D01*
X397638Y340551D01*
X411417D01*
X413386Y338583D01*
D02*
G37*
G36*
X128709Y314539D02*
X134252D01*
X135461Y314539D01*
X139987Y310013D01*
X140945Y309055D01*
Y306299D01*
X136135Y301489D01*
X136011D01*
Y301365D01*
X135827Y301181D01*
Y300142D01*
X135799Y300000D01*
X135799Y300000D01*
X135799Y293701D01*
X135799Y293701D01*
X135827Y293559D01*
Y291339D01*
X135898Y291192D01*
X136011Y290821D01*
X136011Y290559D01*
Y283846D01*
X141301D01*
X141911Y283236D01*
X142005Y282762D01*
X142403Y282167D01*
X142999Y281769D01*
X143701Y281629D01*
X144403Y281769D01*
X144999Y282167D01*
X145669Y281496D01*
X226378Y281496D01*
X232283Y287402D01*
X232283Y310236D01*
X234252Y312205D01*
X247638Y312205D01*
X250000Y309842D01*
X250000Y287859D01*
X249298Y287719D01*
X248702Y287321D01*
X248304Y286726D01*
X248165Y286024D01*
X248175Y285971D01*
X243123Y280918D01*
X242310D01*
Y280850D01*
X241240D01*
X240772Y280756D01*
X240375Y280491D01*
X240245Y280361D01*
X240158Y280379D01*
X239455Y280239D01*
X238860Y279841D01*
X238462Y279246D01*
X238322Y278543D01*
X238462Y277841D01*
X238860Y277246D01*
X238886Y277228D01*
X238935Y276730D01*
X213189Y250984D01*
X177375Y250984D01*
Y255524D01*
X157271D01*
Y250984D01*
X137795Y250984D01*
X131890Y256890D01*
X131890Y273622D01*
X125591Y279921D01*
X125591Y284646D01*
Y301181D01*
X129017Y304607D01*
X129017Y304607D01*
X129612Y304209D01*
X130315Y304070D01*
X131017Y304209D01*
X131612Y304607D01*
X132010Y305203D01*
X132150Y305905D01*
X132010Y306607D01*
X131951Y306696D01*
Y309430D01*
X131858Y309898D01*
X131593Y310295D01*
X130709Y311179D01*
Y312205D01*
X129921Y312992D01*
X124016D01*
Y314173D01*
X124386Y314543D01*
X124409Y314539D01*
X124409Y314539D01*
X125031D01*
X125059Y314544D01*
X128681D01*
X128709Y314539D01*
D02*
G37*
G36*
X370073Y338589D02*
X370073Y328746D01*
X374016Y324803D01*
X378740D01*
X379921Y323622D01*
X380190D01*
X380228Y323599D01*
X380316Y323555D01*
X380406Y323518D01*
X380499Y323487D01*
X380594Y323463D01*
X380691Y323445D01*
X380788Y323435D01*
X380886Y323431D01*
X385039D01*
Y322238D01*
X380886D01*
X380788Y322234D01*
X380691Y322224D01*
X380594Y322206D01*
X380499Y322182D01*
X380406Y322151D01*
X380316Y322114D01*
X380228Y322070D01*
X380190Y322047D01*
X379921D01*
X379736Y321863D01*
X379670Y321855D01*
X379578Y321836D01*
X379487Y321811D01*
X379398Y321778D01*
X379313Y321739D01*
X379260Y321709D01*
X379231Y321692D01*
X379191Y321666D01*
X379152Y321640D01*
X379115Y321611D01*
X379078Y321582D01*
X379045Y321551D01*
X379009Y321518D01*
X379009Y321518D01*
X378357Y320866D01*
X374016D01*
X370073Y316923D01*
Y303150D01*
X366138Y299215D01*
X342520Y299215D01*
X338585Y303150D01*
X338585Y338585D01*
X344488Y344488D01*
X364173D01*
X370073Y338589D01*
D02*
G37*
G36*
X92520Y296850D02*
X90945Y298425D01*
X92520Y300000D01*
Y296850D01*
D02*
G37*
G36*
X90945Y298425D02*
X89370Y296850D01*
Y300000D01*
X90945Y298425D01*
D02*
G37*
G36*
X283465Y345472D02*
Y291535D01*
X282283Y290354D01*
X275591Y290354D01*
X269685Y284449D01*
X253937D01*
X251969Y286417D01*
Y294291D01*
X253937Y296260D01*
X257874D01*
X263779Y302165D01*
X263779Y340193D01*
X263808Y340230D01*
X264265Y341335D01*
X264370Y342125D01*
X269685Y347441D01*
X281496D01*
X283465Y345472D01*
D02*
G37*
G36*
X141326Y315367D02*
Y315243D01*
X145288D01*
Y315354D01*
X161024D01*
X165354Y311024D01*
X220472D01*
X226378Y305118D01*
X226378Y288386D01*
X221457Y283465D01*
X154331Y283465D01*
X152756Y285039D01*
X144488Y293307D01*
X137008D01*
X136614Y293701D01*
X136614Y300000D01*
X142520Y305906D01*
Y309055D01*
X141548Y310027D01*
Y310150D01*
X141424D01*
X136221Y315354D01*
X134252Y315354D01*
X128709D01*
X128681Y315360D01*
X125059D01*
X125031Y315354D01*
X124409D01*
X124016Y315748D01*
Y316535D01*
X124409Y316929D01*
X139764D01*
X141326Y315367D01*
D02*
G37*
G36*
X331693Y338583D02*
Y307087D01*
X331693Y304134D01*
X340551Y295276D01*
X346457Y289370D01*
X346457Y265748D01*
X344488Y263779D01*
X336614D01*
X334646Y265748D01*
X318898D01*
X314961Y269685D01*
X311036Y273609D01*
Y273832D01*
X306877D01*
X305118Y275591D01*
X301181Y279528D01*
X301181Y338583D01*
X307087Y344488D01*
X325787D01*
X331693Y338583D01*
D02*
G37*
G36*
X409449Y279528D02*
Y260236D01*
Y259842D01*
X407480Y257874D01*
X350394D01*
X348425Y259842D01*
Y281496D01*
Y281496D01*
X350154Y283225D01*
X390354D01*
X390823Y283318D01*
X391041Y283465D01*
X405512D01*
X409449Y279528D01*
D02*
G37*
G36*
X101378Y250984D02*
X101378Y241142D01*
X82284Y222047D01*
Y221570D01*
X82005Y221454D01*
X81783Y221405D01*
X81353Y221693D01*
X80807Y221801D01*
X80807Y221801D01*
X78556D01*
Y222021D01*
X71444D01*
X71105Y222380D01*
Y223608D01*
X94365Y246868D01*
X94573Y246729D01*
X95275Y246589D01*
X95978Y246729D01*
X96573Y247127D01*
X96971Y247722D01*
X97111Y248425D01*
X96971Y249127D01*
X96573Y249722D01*
X95978Y250120D01*
X95275Y250260D01*
X95190Y250243D01*
X94697Y250655D01*
X94609Y251096D01*
X94211Y251691D01*
X93616Y252089D01*
X92913Y252229D01*
X92211Y252089D01*
X91616Y251691D01*
X91218Y251096D01*
X91078Y250394D01*
X91218Y249691D01*
X91317Y249543D01*
X67417Y225643D01*
X67151Y225246D01*
X67058Y224778D01*
Y219120D01*
X67151Y218652D01*
X67417Y218254D01*
X71280Y214391D01*
X71444Y214281D01*
Y211050D01*
X78556D01*
Y213610D01*
Y216168D01*
Y218947D01*
X80216D01*
X81250Y217913D01*
Y211565D01*
X78347Y208661D01*
X68898D01*
X62008Y215551D01*
Y231299D01*
X65706Y234997D01*
X66929D01*
X67397Y235090D01*
X67794Y235355D01*
X88344Y255906D01*
X96457Y255906D01*
X101378Y250984D01*
D02*
G37*
G36*
X358858Y232677D02*
X357283Y234252D01*
X358858Y235827D01*
Y232677D01*
D02*
G37*
G36*
X357283Y234252D02*
X355709Y232677D01*
Y235827D01*
X357283Y234252D01*
D02*
G37*
G36*
X358858Y224803D02*
X357283Y226378D01*
X358858Y227953D01*
Y224803D01*
D02*
G37*
G36*
X357283Y226378D02*
X355709Y224803D01*
Y227953D01*
X357283Y226378D01*
D02*
G37*
G36*
X358858Y216929D02*
X357283Y218504D01*
X358858Y220079D01*
Y216929D01*
D02*
G37*
G36*
X357283Y218504D02*
X355709Y216929D01*
Y220079D01*
X357283Y218504D01*
D02*
G37*
G36*
X358858Y209055D02*
X357283Y210630D01*
X358858Y212205D01*
Y209055D01*
D02*
G37*
G36*
X357283Y210630D02*
X355709Y209055D01*
Y212205D01*
X357283Y210630D01*
D02*
G37*
G36*
X70472Y203150D02*
X68898Y204724D01*
X70472Y206299D01*
Y203150D01*
D02*
G37*
G36*
X68898Y204724D02*
X67323Y203150D01*
Y206299D01*
X68898Y204724D01*
D02*
G37*
G36*
X514370Y185433D02*
X512795Y187008D01*
X514370Y188583D01*
Y185433D01*
D02*
G37*
G36*
X512795Y187008D02*
X511221Y185433D01*
Y188583D01*
X512795Y187008D01*
D02*
G37*
G36*
X237697Y180217D02*
X236122Y181791D01*
X237697Y183366D01*
Y180217D01*
D02*
G37*
G36*
X236122Y181791D02*
X234547Y180217D01*
Y183366D01*
X236122Y181791D01*
D02*
G37*
G36*
X514370Y177559D02*
X512795Y179134D01*
X514370Y180709D01*
Y177559D01*
D02*
G37*
G36*
X512795Y179134D02*
X511221Y177559D01*
Y180709D01*
X512795Y179134D01*
D02*
G37*
G36*
X259449Y175591D02*
X257874Y177165D01*
X259449Y178740D01*
Y175591D01*
D02*
G37*
G36*
X257874Y177165D02*
X256299Y175591D01*
Y178740D01*
X257874Y177165D01*
D02*
G37*
G36*
X237697Y171358D02*
X236122Y172933D01*
X237697Y174508D01*
Y171358D01*
D02*
G37*
G36*
X236122Y172933D02*
X234547Y171358D01*
Y174508D01*
X236122Y172933D01*
D02*
G37*
G36*
X514370Y169685D02*
X512795Y171260D01*
X514370Y172835D01*
Y169685D01*
D02*
G37*
G36*
X512795Y171260D02*
X511221Y169685D01*
Y172835D01*
X512795Y171260D01*
D02*
G37*
G36*
X517913Y151378D02*
X516732Y152559D01*
X517913Y153740D01*
Y151378D01*
D02*
G37*
G36*
X516732Y152559D02*
X515551Y151378D01*
Y153740D01*
X516732Y152559D01*
D02*
G37*
G36*
X517913Y145472D02*
X516732Y146653D01*
X517913Y147835D01*
Y145472D01*
D02*
G37*
G36*
X516732Y146653D02*
X515551Y145472D01*
Y147835D01*
X516732Y146653D01*
D02*
G37*
G36*
X517913Y139567D02*
X516732Y140748D01*
X517913Y141929D01*
Y139567D01*
D02*
G37*
G36*
X516732Y140748D02*
X515551Y139567D01*
Y141929D01*
X516732Y140748D01*
D02*
G37*
G36*
X517913Y133661D02*
X516732Y134843D01*
X517913Y136024D01*
Y133661D01*
D02*
G37*
G36*
X516732Y134843D02*
X515551Y133661D01*
Y136024D01*
X516732Y134843D01*
D02*
G37*
G36*
X517913Y127756D02*
X516732Y128937D01*
X517913Y130118D01*
Y127756D01*
D02*
G37*
G36*
X516732Y128937D02*
X515551Y127756D01*
Y130118D01*
X516732Y128937D01*
D02*
G37*
G36*
X517913Y121850D02*
X516732Y123031D01*
X517913Y124213D01*
Y121850D01*
D02*
G37*
G36*
X516732Y123031D02*
X515551Y121850D01*
Y124213D01*
X516732Y123031D01*
D02*
G37*
G36*
X517913Y115945D02*
X516732Y117126D01*
X517913Y118307D01*
Y115945D01*
D02*
G37*
G36*
X516732Y117126D02*
X515551Y115945D01*
Y118307D01*
X516732Y117126D01*
D02*
G37*
G36*
X517913Y110039D02*
X516732Y111221D01*
X517913Y112402D01*
Y110039D01*
D02*
G37*
G36*
X516732Y111221D02*
X515551Y110039D01*
Y112402D01*
X516732Y111221D01*
D02*
G37*
G36*
X275197Y78150D02*
X273622Y79724D01*
X275197Y81299D01*
Y78150D01*
D02*
G37*
G36*
X273622Y79724D02*
X272047Y78150D01*
Y81299D01*
X273622Y79724D01*
D02*
G37*
G36*
X661024Y44488D02*
X587205D01*
Y90333D01*
X587667Y90524D01*
X600151Y78040D01*
X600133Y77953D01*
X600273Y77250D01*
X600671Y76655D01*
X601202Y76300D01*
X601199Y76050D01*
X601119Y75800D01*
X600381D01*
Y71050D01*
X603461D01*
X604149Y70486D01*
X605431Y69801D01*
X606821Y69379D01*
X608268Y69237D01*
Y69249D01*
X609239D01*
Y68826D01*
X616351D01*
Y69306D01*
X617373Y69406D01*
X619120Y69936D01*
X620729Y70797D01*
X622140Y71954D01*
X622140Y71954D01*
X622979Y73047D01*
X623506Y74320D01*
X623686Y75686D01*
X623665D01*
Y78186D01*
X623659Y78214D01*
X623797Y79264D01*
X624105Y80007D01*
X626391D01*
Y83969D01*
X624814D01*
X624353Y84127D01*
Y85027D01*
X625111D01*
Y88540D01*
X625984D01*
X626043Y88552D01*
X626980Y88366D01*
X627448Y88053D01*
Y77160D01*
X636135D01*
Y92146D01*
X627448D01*
Y91277D01*
X626948Y90880D01*
X625984Y91007D01*
Y90987D01*
X622373D01*
Y90997D01*
X621358Y90864D01*
X620412Y90472D01*
X619600Y89849D01*
X619602Y89847D01*
X619033Y89104D01*
X618903Y88792D01*
X617802D01*
Y85027D01*
X618560D01*
Y84127D01*
X618100Y83969D01*
X616523D01*
Y80007D01*
X617674D01*
Y75459D01*
X617655Y74966D01*
X617626Y74894D01*
X617291Y74533D01*
X617217Y74459D01*
X617199Y74452D01*
X616351D01*
Y74678D01*
X609239D01*
Y74678D01*
X608739Y74527D01*
X608277Y74718D01*
X607564Y75266D01*
X607558Y75275D01*
X607212Y75621D01*
X607202Y75627D01*
X606855Y76147D01*
X606824Y76303D01*
X606747Y76772D01*
X606747D01*
X606607Y77829D01*
X606199Y78815D01*
X605550Y79661D01*
X605542Y79653D01*
X591956Y93239D01*
X592147Y93701D01*
X661024D01*
Y44488D01*
D02*
G37*
G36*
X275197Y70276D02*
X273622Y71850D01*
X275197Y73425D01*
Y70276D01*
D02*
G37*
G36*
X273622Y71850D02*
X272047Y70276D01*
Y73425D01*
X273622Y71850D01*
D02*
G37*
G36*
X99388Y69406D02*
X99588D01*
X99833Y69361D01*
X100121Y69339D01*
X100433Y69295D01*
X100766Y69228D01*
X101144Y69161D01*
X101543Y69072D01*
X101944Y68961D01*
X102388Y68850D01*
X102832Y68695D01*
X103299Y68539D01*
X103765Y68339D01*
Y65606D01*
X103743Y65628D01*
X103632Y65650D01*
X103499Y65717D01*
X103299Y65806D01*
X103054Y65895D01*
X102788Y66006D01*
X102477Y66117D01*
X102144Y66228D01*
X101432Y66450D01*
X100699Y66650D01*
X99966Y66806D01*
X99610Y66828D01*
X99299Y66850D01*
X99144D01*
X98966Y66828D01*
X98744Y66806D01*
X98522Y66761D01*
X98255Y66717D01*
X98010Y66628D01*
X97788Y66517D01*
X97766Y66495D01*
X97699Y66450D01*
X97611Y66384D01*
X97522Y66295D01*
X97411Y66184D01*
X97322Y66028D01*
X97255Y65873D01*
X97233Y65673D01*
Y65650D01*
Y65606D01*
X97255Y65517D01*
X97277Y65406D01*
X97322Y65295D01*
X97411Y65162D01*
X97500Y65006D01*
X97633Y64873D01*
X97655Y64850D01*
X97722Y64806D01*
X97833Y64739D01*
X98033Y64628D01*
X98277Y64495D01*
X98455Y64406D01*
X98633Y64339D01*
X98833Y64250D01*
X99055Y64139D01*
X99322Y64051D01*
X99588Y63939D01*
X99610D01*
X99655Y63917D01*
X99744Y63873D01*
X99855Y63851D01*
X99988Y63784D01*
X100144Y63740D01*
X100499Y63584D01*
X100899Y63428D01*
X101321Y63251D01*
X101721Y63051D01*
X102099Y62873D01*
X102144Y62851D01*
X102255Y62784D01*
X102432Y62673D01*
X102655Y62517D01*
X102899Y62317D01*
X103188Y62073D01*
X103454Y61806D01*
X103721Y61473D01*
X103743Y61429D01*
X103832Y61317D01*
X103943Y61118D01*
X104077Y60851D01*
X104188Y60540D01*
X104299Y60140D01*
X104388Y59695D01*
X104410Y59207D01*
Y59184D01*
Y59118D01*
Y59007D01*
X104388Y58873D01*
X104366Y58718D01*
X104321Y58518D01*
X104232Y58073D01*
X104032Y57562D01*
X103921Y57318D01*
X103765Y57051D01*
X103610Y56785D01*
X103388Y56540D01*
X103166Y56296D01*
X102899Y56074D01*
X102877Y56051D01*
X102832Y56029D01*
X102743Y55963D01*
X102632Y55896D01*
X102477Y55807D01*
X102299Y55718D01*
X102099Y55607D01*
X101855Y55496D01*
X101588Y55385D01*
X101299Y55274D01*
X100966Y55185D01*
X100633Y55096D01*
X100255Y55029D01*
X99855Y54963D01*
X99433Y54940D01*
X98988Y54918D01*
X98722D01*
X98544Y54940D01*
X98299Y54963D01*
X98033Y54985D01*
X97699Y55029D01*
X97366Y55096D01*
X96988Y55163D01*
X96588Y55251D01*
X96166Y55362D01*
X95722Y55496D01*
X95278Y55651D01*
X94811Y55829D01*
X94367Y56029D01*
X93900Y56274D01*
Y59295D01*
X93922D01*
X93967Y59251D01*
X94033Y59207D01*
X94144Y59140D01*
X94255Y59051D01*
X94411Y58962D01*
X94744Y58762D01*
X95122Y58540D01*
X95544Y58318D01*
X95966Y58096D01*
X96389Y57918D01*
X96411D01*
X96433Y57896D01*
X96500Y57873D01*
X96588Y57851D01*
X96788Y57784D01*
X97077Y57718D01*
X97433Y57629D01*
X97833Y57562D01*
X98255Y57518D01*
X98699Y57496D01*
X98899D01*
X99033Y57518D01*
X99188Y57540D01*
X99366Y57562D01*
X99744Y57651D01*
X100121Y57807D01*
X100299Y57918D01*
X100455Y58051D01*
X100588Y58207D01*
X100699Y58385D01*
X100766Y58584D01*
X100788Y58807D01*
Y58829D01*
Y58873D01*
X100766Y58962D01*
X100744Y59073D01*
X100677Y59207D01*
X100610Y59340D01*
X100499Y59496D01*
X100366Y59629D01*
X100344Y59651D01*
X100277Y59695D01*
X100144Y59784D01*
X99966Y59895D01*
X99699Y60051D01*
X99521Y60118D01*
X99344Y60207D01*
X99144Y60295D01*
X98899Y60407D01*
X98655Y60495D01*
X98366Y60606D01*
X98344D01*
X98299Y60629D01*
X98211Y60673D01*
X98099Y60695D01*
X97966Y60762D01*
X97811Y60806D01*
X97455Y60962D01*
X97055Y61118D01*
X96633Y61295D01*
X96233Y61495D01*
X95855Y61673D01*
X95811Y61695D01*
X95700Y61762D01*
X95522Y61873D01*
X95322Y62028D01*
X95078Y62229D01*
X94811Y62451D01*
X94544Y62740D01*
X94278Y63051D01*
X94255Y63095D01*
X94166Y63206D01*
X94078Y63406D01*
X93944Y63673D01*
X93833Y64006D01*
X93722Y64406D01*
X93633Y64850D01*
X93611Y65361D01*
Y65384D01*
Y65450D01*
Y65539D01*
X93633Y65673D01*
X93655Y65828D01*
X93678Y66006D01*
X93789Y66406D01*
X93967Y66873D01*
X94078Y67117D01*
X94211Y67361D01*
X94389Y67606D01*
X94589Y67850D01*
X94811Y68072D01*
X95055Y68295D01*
X95078Y68317D01*
X95122Y68339D01*
X95211Y68406D01*
X95322Y68472D01*
X95477Y68561D01*
X95655Y68650D01*
X95855Y68761D01*
X96100Y68872D01*
X96366Y68961D01*
X96655Y69072D01*
X96988Y69161D01*
X97344Y69250D01*
X97699Y69317D01*
X98122Y69383D01*
X98544Y69406D01*
X98988Y69428D01*
X99210D01*
X99388Y69406D01*
D02*
G37*
G36*
X25462D02*
X25662D01*
X25907Y69361D01*
X26195Y69339D01*
X26507Y69295D01*
X26840Y69228D01*
X27218Y69161D01*
X27618Y69072D01*
X28018Y68961D01*
X28462Y68850D01*
X28906Y68695D01*
X29373Y68539D01*
X29840Y68339D01*
Y65606D01*
X29817Y65628D01*
X29706Y65650D01*
X29573Y65717D01*
X29373Y65806D01*
X29129Y65895D01*
X28862Y66006D01*
X28551Y66117D01*
X28218Y66228D01*
X27507Y66450D01*
X26773Y66650D01*
X26040Y66806D01*
X25684Y66828D01*
X25373Y66850D01*
X25218D01*
X25040Y66828D01*
X24818Y66806D01*
X24596Y66761D01*
X24329Y66717D01*
X24085Y66628D01*
X23862Y66517D01*
X23840Y66495D01*
X23774Y66450D01*
X23685Y66384D01*
X23596Y66295D01*
X23485Y66184D01*
X23396Y66028D01*
X23329Y65873D01*
X23307Y65673D01*
Y65650D01*
Y65606D01*
X23329Y65517D01*
X23351Y65406D01*
X23396Y65295D01*
X23485Y65162D01*
X23573Y65006D01*
X23707Y64873D01*
X23729Y64850D01*
X23796Y64806D01*
X23907Y64739D01*
X24107Y64628D01*
X24351Y64495D01*
X24529Y64406D01*
X24707Y64339D01*
X24907Y64250D01*
X25129Y64139D01*
X25396Y64051D01*
X25662Y63939D01*
X25684D01*
X25729Y63917D01*
X25818Y63873D01*
X25929Y63851D01*
X26062Y63784D01*
X26218Y63740D01*
X26573Y63584D01*
X26973Y63428D01*
X27395Y63251D01*
X27795Y63051D01*
X28173Y62873D01*
X28218Y62851D01*
X28329Y62784D01*
X28506Y62673D01*
X28729Y62517D01*
X28973Y62317D01*
X29262Y62073D01*
X29528Y61806D01*
X29795Y61473D01*
X29817Y61429D01*
X29906Y61317D01*
X30017Y61118D01*
X30151Y60851D01*
X30262Y60540D01*
X30373Y60140D01*
X30462Y59695D01*
X30484Y59207D01*
Y59184D01*
Y59118D01*
Y59007D01*
X30462Y58873D01*
X30439Y58718D01*
X30395Y58518D01*
X30306Y58073D01*
X30106Y57562D01*
X29995Y57318D01*
X29840Y57051D01*
X29684Y56785D01*
X29462Y56540D01*
X29240Y56296D01*
X28973Y56074D01*
X28951Y56051D01*
X28906Y56029D01*
X28817Y55963D01*
X28706Y55896D01*
X28551Y55807D01*
X28373Y55718D01*
X28173Y55607D01*
X27929Y55496D01*
X27662Y55385D01*
X27373Y55274D01*
X27040Y55185D01*
X26707Y55096D01*
X26329Y55029D01*
X25929Y54963D01*
X25507Y54940D01*
X25062Y54918D01*
X24796D01*
X24618Y54940D01*
X24374Y54963D01*
X24107Y54985D01*
X23774Y55029D01*
X23440Y55096D01*
X23063Y55163D01*
X22662Y55251D01*
X22240Y55362D01*
X21796Y55496D01*
X21351Y55651D01*
X20885Y55829D01*
X20440Y56029D01*
X19974Y56274D01*
Y59295D01*
X19996D01*
X20041Y59251D01*
X20107Y59207D01*
X20218Y59140D01*
X20329Y59051D01*
X20485Y58962D01*
X20818Y58762D01*
X21196Y58540D01*
X21618Y58318D01*
X22040Y58096D01*
X22463Y57918D01*
X22485D01*
X22507Y57896D01*
X22574Y57873D01*
X22662Y57851D01*
X22862Y57784D01*
X23151Y57718D01*
X23507Y57629D01*
X23907Y57562D01*
X24329Y57518D01*
X24773Y57496D01*
X24973D01*
X25107Y57518D01*
X25262Y57540D01*
X25440Y57562D01*
X25818Y57651D01*
X26195Y57807D01*
X26373Y57918D01*
X26529Y58051D01*
X26662Y58207D01*
X26773Y58385D01*
X26840Y58584D01*
X26862Y58807D01*
Y58829D01*
Y58873D01*
X26840Y58962D01*
X26818Y59073D01*
X26751Y59207D01*
X26684Y59340D01*
X26573Y59496D01*
X26440Y59629D01*
X26418Y59651D01*
X26351Y59695D01*
X26218Y59784D01*
X26040Y59895D01*
X25773Y60051D01*
X25596Y60118D01*
X25418Y60207D01*
X25218Y60295D01*
X24973Y60407D01*
X24729Y60495D01*
X24440Y60606D01*
X24418D01*
X24374Y60629D01*
X24285Y60673D01*
X24173Y60695D01*
X24040Y60762D01*
X23885Y60806D01*
X23529Y60962D01*
X23129Y61118D01*
X22707Y61295D01*
X22307Y61495D01*
X21929Y61673D01*
X21885Y61695D01*
X21774Y61762D01*
X21596Y61873D01*
X21396Y62028D01*
X21152Y62229D01*
X20885Y62451D01*
X20618Y62740D01*
X20352Y63051D01*
X20329Y63095D01*
X20241Y63206D01*
X20152Y63406D01*
X20018Y63673D01*
X19907Y64006D01*
X19796Y64406D01*
X19707Y64850D01*
X19685Y65361D01*
Y65384D01*
Y65450D01*
Y65539D01*
X19707Y65673D01*
X19729Y65828D01*
X19752Y66006D01*
X19863Y66406D01*
X20041Y66873D01*
X20152Y67117D01*
X20285Y67361D01*
X20463Y67606D01*
X20663Y67850D01*
X20885Y68072D01*
X21129Y68295D01*
X21152Y68317D01*
X21196Y68339D01*
X21285Y68406D01*
X21396Y68472D01*
X21552Y68561D01*
X21729Y68650D01*
X21929Y68761D01*
X22174Y68872D01*
X22440Y68961D01*
X22729Y69072D01*
X23063Y69161D01*
X23418Y69250D01*
X23774Y69317D01*
X24196Y69383D01*
X24618Y69406D01*
X25062Y69428D01*
X25284D01*
X25462Y69406D01*
D02*
G37*
G36*
X91034Y55118D02*
X88078D01*
X80279Y64139D01*
Y55118D01*
X76768D01*
Y69228D01*
X79968D01*
X87523Y60584D01*
Y69228D01*
X91034D01*
Y55118D01*
D02*
G37*
G36*
X557972Y58858D02*
X559547Y57284D01*
X556398D01*
X557972Y58858D01*
X556398Y60433D01*
X559547D01*
X557972Y58858D01*
D02*
G37*
G36*
X548130D02*
X549705Y57284D01*
X546555D01*
X548130Y58858D01*
X546555Y60433D01*
X549705D01*
X548130Y58858D01*
D02*
G37*
G36*
X538287D02*
X539862Y57284D01*
X536713D01*
X538287Y58858D01*
X536713Y60433D01*
X539862D01*
X538287Y58858D01*
D02*
G37*
G36*
X73902Y66650D02*
X67147D01*
Y63673D01*
X73591D01*
Y61095D01*
X67147D01*
Y57696D01*
X74035D01*
Y55118D01*
X63636D01*
Y69228D01*
X73902D01*
Y66650D01*
D02*
G37*
G36*
X54415Y57696D02*
X61659D01*
Y55118D01*
X50904D01*
Y69228D01*
X54415D01*
Y57696D01*
D02*
G37*
G36*
X40594Y69406D02*
X40839Y69383D01*
X41150Y69361D01*
X41505Y69317D01*
X41905Y69250D01*
X42327Y69161D01*
X42794Y69028D01*
X43260Y68894D01*
X43749Y68717D01*
X44238Y68495D01*
X44727Y68250D01*
X45194Y67961D01*
X45660Y67606D01*
X46082Y67228D01*
X46105Y67206D01*
X46171Y67139D01*
X46282Y67006D01*
X46438Y66850D01*
X46593Y66628D01*
X46793Y66384D01*
X46993Y66095D01*
X47216Y65784D01*
X47416Y65428D01*
X47616Y65028D01*
X47816Y64628D01*
X47971Y64184D01*
X48127Y63695D01*
X48238Y63206D01*
X48304Y62695D01*
X48327Y62162D01*
Y62140D01*
Y62028D01*
X48304Y61873D01*
X48282Y61673D01*
X48260Y61406D01*
X48215Y61118D01*
X48127Y60784D01*
X48038Y60429D01*
X47927Y60029D01*
X47771Y59629D01*
X47593Y59207D01*
X47371Y58784D01*
X47104Y58340D01*
X46816Y57918D01*
X46460Y57496D01*
X46060Y57073D01*
X46038Y57051D01*
X45949Y56985D01*
X45838Y56874D01*
X45660Y56740D01*
X45416Y56585D01*
X45149Y56385D01*
X44838Y56207D01*
X44483Y56007D01*
X44083Y55785D01*
X43638Y55607D01*
X43172Y55429D01*
X42638Y55251D01*
X42105Y55118D01*
X41505Y55007D01*
X40883Y54940D01*
X40238Y54918D01*
X40083D01*
X39905Y54940D01*
X39639Y54963D01*
X39350Y54985D01*
X38994Y55029D01*
X38594Y55096D01*
X38172Y55185D01*
X37728Y55296D01*
X37239Y55429D01*
X36772Y55607D01*
X36283Y55829D01*
X35794Y56074D01*
X35306Y56340D01*
X34861Y56674D01*
X34417Y57051D01*
X34395Y57073D01*
X34328Y57140D01*
X34217Y57274D01*
X34061Y57429D01*
X33906Y57651D01*
X33706Y57896D01*
X33506Y58184D01*
X33306Y58496D01*
X33084Y58851D01*
X32884Y59251D01*
X32684Y59673D01*
X32528Y60118D01*
X32373Y60584D01*
X32262Y61095D01*
X32195Y61629D01*
X32173Y62162D01*
Y62206D01*
Y62295D01*
X32195Y62451D01*
X32217Y62651D01*
X32239Y62895D01*
X32284Y63206D01*
X32350Y63539D01*
X32462Y63895D01*
X32573Y64273D01*
X32706Y64695D01*
X32906Y65095D01*
X33106Y65539D01*
X33373Y65984D01*
X33661Y66406D01*
X33995Y66828D01*
X34395Y67250D01*
X34417Y67273D01*
X34506Y67339D01*
X34617Y67450D01*
X34795Y67584D01*
X35017Y67761D01*
X35306Y67939D01*
X35617Y68139D01*
X35972Y68339D01*
X36372Y68539D01*
X36817Y68739D01*
X37283Y68917D01*
X37817Y69095D01*
X38372Y69228D01*
X38950Y69339D01*
X39572Y69406D01*
X40238Y69428D01*
X40394D01*
X40594Y69406D01*
D02*
G37*
%LPC*%
G36*
X150197Y275268D02*
X146850D01*
X146077Y275114D01*
X145422Y274676D01*
X144984Y274021D01*
X144831Y273248D01*
X144984Y272475D01*
X145422Y271820D01*
X146077Y271382D01*
X146850Y271228D01*
X150197D01*
X150970Y271382D01*
X151625Y271820D01*
X152063Y272475D01*
X152217Y273248D01*
X152063Y274021D01*
X151625Y274676D01*
X150970Y275114D01*
X150197Y275268D01*
D02*
G37*
G36*
Y270268D02*
X146850D01*
X146077Y270114D01*
X145422Y269676D01*
X144984Y269021D01*
X144831Y268248D01*
X144984Y267475D01*
X145422Y266820D01*
X146077Y266382D01*
X146850Y266228D01*
X150197D01*
X150970Y266382D01*
X151625Y266820D01*
X152063Y267475D01*
X152217Y268248D01*
X152063Y269021D01*
X151625Y269676D01*
X150970Y270114D01*
X150197Y270268D01*
D02*
G37*
G36*
Y265268D02*
X146850D01*
X146077Y265114D01*
X145422Y264676D01*
X144984Y264021D01*
X144831Y263248D01*
X144984Y262475D01*
X145422Y261820D01*
X146077Y261382D01*
X146850Y261228D01*
X150197D01*
X150970Y261382D01*
X151625Y261820D01*
X152063Y262475D01*
X152217Y263248D01*
X152063Y264021D01*
X151625Y264676D01*
X150970Y265114D01*
X150197Y265268D01*
D02*
G37*
G36*
Y260268D02*
X146850D01*
X146077Y260114D01*
X145422Y259676D01*
X144984Y259021D01*
X144831Y258248D01*
X144984Y257475D01*
X145422Y256820D01*
X146077Y256382D01*
X146850Y256228D01*
X150197D01*
X150970Y256382D01*
X151625Y256820D01*
X152063Y257475D01*
X152217Y258248D01*
X152063Y259021D01*
X151625Y259676D01*
X150970Y260114D01*
X150197Y260268D01*
D02*
G37*
G36*
X282296Y324619D02*
X274791D01*
Y317113D01*
X282296D01*
Y324619D01*
D02*
G37*
G36*
X278543Y314651D02*
X277564Y314522D01*
X276651Y314144D01*
X275867Y313543D01*
X275265Y312759D01*
X274887Y311846D01*
X274758Y310866D01*
X274887Y309887D01*
X275265Y308974D01*
X275867Y308190D01*
X276651Y307588D01*
X277564Y307210D01*
X278543Y307081D01*
X279523Y307210D01*
X280436Y307588D01*
X281220Y308190D01*
X281821Y308974D01*
X282200Y309887D01*
X282328Y310866D01*
X282200Y311846D01*
X281821Y312759D01*
X281220Y313543D01*
X280436Y314144D01*
X279523Y314522D01*
X278543Y314651D01*
D02*
G37*
G36*
X149028Y310150D02*
X145066D01*
Y305401D01*
X149028D01*
Y310150D01*
D02*
G37*
G36*
X646654Y76245D02*
X645951Y76105D01*
X645356Y75707D01*
X644958Y75112D01*
X644818Y74410D01*
X644958Y73707D01*
X645041Y73584D01*
X644805Y73142D01*
X643590D01*
Y71220D01*
X643363Y70993D01*
X642858D01*
X642631Y71220D01*
Y73142D01*
X636700D01*
Y73064D01*
X636671Y73027D01*
X636200Y72726D01*
X636012Y72764D01*
X635618Y73020D01*
X635618Y73020D01*
X634736Y73697D01*
X633708Y74123D01*
X633674Y74127D01*
Y74678D01*
X626562D01*
Y72585D01*
X626515Y72513D01*
X626062Y72214D01*
X625591Y72308D01*
X624888Y72168D01*
X624293Y71770D01*
X623895Y71175D01*
X623755Y70472D01*
X623895Y69770D01*
X624293Y69175D01*
X624888Y68777D01*
X625311Y68693D01*
X625348Y68571D01*
X625384Y68086D01*
X624909Y67374D01*
X624742Y66535D01*
X624761D01*
Y59449D01*
X624765Y59425D01*
X624627Y58731D01*
X624349Y58315D01*
X623857Y58287D01*
X622396Y59747D01*
X622404Y59755D01*
X621064Y60900D01*
X619561Y61821D01*
X617932Y62496D01*
X616218Y62907D01*
X614460Y63046D01*
Y63034D01*
X609842D01*
X609790Y63024D01*
X608131Y63187D01*
X606486Y63687D01*
X605131Y64411D01*
Y67139D01*
X600381D01*
Y62389D01*
X603788D01*
X604751Y61799D01*
X606377Y61125D01*
X608088Y60715D01*
X609842Y60576D01*
Y60588D01*
X614460D01*
X614513Y60598D01*
X616176Y60434D01*
X617825Y59934D01*
X619345Y59122D01*
X619796Y58751D01*
X619628Y58280D01*
X616621D01*
Y54318D01*
X617819D01*
X617924Y53788D01*
X618097Y53530D01*
X617901Y53162D01*
X617901D01*
Y49397D01*
X618637D01*
X618645Y48900D01*
X618645D01*
X618790Y48170D01*
X619204Y47551D01*
X619195Y47541D01*
X620037Y46979D01*
X621029Y46782D01*
Y46808D01*
X625197D01*
Y46789D01*
X626036Y46956D01*
X626747Y47432D01*
X626747Y47432D01*
X626973Y47657D01*
X626997Y47656D01*
X627448Y47520D01*
Y46444D01*
X636135D01*
Y59733D01*
X636259Y61312D01*
X636248D01*
Y65915D01*
X636700Y66031D01*
Y66031D01*
X642631D01*
Y67954D01*
X642838Y68161D01*
X643383D01*
X643590Y67954D01*
Y66031D01*
X649520D01*
Y73142D01*
X648502D01*
X648267Y73584D01*
X648349Y73707D01*
X648489Y74410D01*
X648349Y75112D01*
X647951Y75707D01*
X647356Y76105D01*
X646654Y76245D01*
D02*
G37*
%LPD*%
G36*
X644685Y68012D02*
X643110Y69587D01*
X644685Y71161D01*
Y68012D01*
D02*
G37*
G36*
X643110Y69587D02*
X641535Y68012D01*
Y71161D01*
X643110Y69587D01*
D02*
G37*
G36*
X633674Y66267D02*
X633801Y65819D01*
Y61430D01*
X627448D01*
X627208Y61830D01*
Y66267D01*
X633674D01*
D02*
G37*
%LPC*%
G36*
X40238Y66495D02*
X40039D01*
X39905Y66473D01*
X39728Y66450D01*
X39550Y66428D01*
X39327Y66406D01*
X39083Y66339D01*
X38572Y66206D01*
X38039Y65984D01*
X37772Y65850D01*
X37505Y65695D01*
X37261Y65517D01*
X37017Y65295D01*
X36994Y65273D01*
X36972Y65250D01*
X36906Y65184D01*
X36817Y65073D01*
X36728Y64962D01*
X36639Y64828D01*
X36528Y64650D01*
X36417Y64473D01*
X36283Y64250D01*
X36172Y64006D01*
X35994Y63473D01*
X35839Y62851D01*
X35817Y62517D01*
X35794Y62162D01*
Y62140D01*
Y62073D01*
Y61984D01*
X35817Y61851D01*
X35839Y61673D01*
X35861Y61495D01*
X35950Y61051D01*
X36083Y60540D01*
X36306Y60029D01*
X36461Y59762D01*
X36617Y59518D01*
X36794Y59273D01*
X37017Y59029D01*
X37039Y59007D01*
X37083Y58984D01*
X37150Y58918D01*
X37239Y58851D01*
X37372Y58762D01*
X37505Y58651D01*
X37683Y58540D01*
X37883Y58451D01*
X38105Y58340D01*
X38350Y58229D01*
X38883Y58029D01*
X39527Y57896D01*
X39883Y57873D01*
X40238Y57851D01*
X40439D01*
X40572Y57873D01*
X40750Y57896D01*
X40927Y57918D01*
X41150Y57940D01*
X41394Y58007D01*
X41905Y58140D01*
X42438Y58340D01*
X42705Y58473D01*
X42972Y58651D01*
X43216Y58829D01*
X43460Y59029D01*
X43483Y59051D01*
X43505Y59096D01*
X43571Y59162D01*
X43660Y59251D01*
X43749Y59362D01*
X43860Y59518D01*
X43971Y59673D01*
X44083Y59873D01*
X44194Y60095D01*
X44305Y60318D01*
X44505Y60851D01*
X44660Y61473D01*
X44682Y61806D01*
X44705Y62162D01*
Y62184D01*
Y62251D01*
Y62362D01*
X44682Y62495D01*
X44660Y62651D01*
X44638Y62851D01*
X44549Y63295D01*
X44394Y63784D01*
X44172Y64317D01*
X44038Y64562D01*
X43883Y64828D01*
X43683Y65073D01*
X43460Y65295D01*
X43438Y65317D01*
X43394Y65339D01*
X43327Y65406D01*
X43238Y65473D01*
X43127Y65584D01*
X42972Y65673D01*
X42794Y65784D01*
X42594Y65895D01*
X42372Y66006D01*
X42127Y66117D01*
X41594Y66317D01*
X40950Y66450D01*
X40594Y66473D01*
X40238Y66495D01*
D02*
G37*
%LPD*%
D10*
X638282Y70969D02*
G03*
X637106Y71457I-1176J-1176D01*
G01*
X634744Y72146D02*
G03*
X636407Y71457I1663J1663D01*
G01*
X634744Y72146D02*
G03*
X632606Y73032I-2139J-2139D01*
G01*
X633991Y56886D02*
G03*
X634547Y59646I-6573J2760D01*
G01*
X632459Y54605D02*
G03*
X633991Y56886I-5041J5041D01*
G01*
D02*
G03*
X634547Y59646I-6573J2760D01*
G01*
X632459Y54605D02*
G03*
X633991Y56886I-5041J5041D01*
G01*
D02*
G03*
X635024Y61312I-8967J4426D01*
G01*
X632095Y54241D02*
G03*
X633991Y56886I-7071J7071D01*
G01*
X635024Y68519D02*
G03*
X633071Y70472I-1953J0D01*
G01*
X605512Y76772D02*
G03*
X604677Y78788I-2851J0D01*
G01*
X605512Y76772D02*
G03*
X606347Y74755I2851J0D01*
G01*
X613271Y73228D02*
G03*
X612795Y73032I0J-672D01*
G01*
X606693Y74410D02*
G03*
X610019Y73032I3327J3327D01*
G01*
X630315Y64879D02*
G03*
X630118Y65354I-672J0D01*
G01*
X619882Y48900D02*
G03*
X620079Y48425I672J0D01*
G01*
D02*
G03*
X621029Y48031I950J950D01*
G01*
X625197D02*
G03*
X625869Y48310I0J950D01*
G01*
X626100Y48540D02*
G03*
X626378Y49213I-672J672D01*
G01*
X627559Y50000D02*
G03*
X626887Y49722I0J-950D01*
G01*
X627559Y50000D02*
G03*
X628063Y50209I0J713D01*
G01*
X618996Y54650D02*
G03*
X619291Y53937I1008J0D01*
G01*
X620079Y52756D02*
G03*
X619800Y53428I-950J0D01*
G01*
X619882Y51279D02*
G03*
X620079Y51755I-475J475D01*
G01*
X623622Y54331D02*
G03*
X624114Y55519I-1188J1188D01*
G01*
X623113Y53822D02*
G03*
X622835Y53150I672J-672D01*
G01*
Y52230D02*
G03*
X623228Y51279I1344J0D01*
G01*
X627247Y67913D02*
G03*
X626772Y67716I0J-672D01*
G01*
X626263Y67207D02*
G03*
X625984Y66535I672J-672D01*
G01*
X625079Y57265D02*
G03*
X625984Y59449I-2184J2184D01*
G01*
X626772Y67717D02*
G03*
X626772Y67716I475J-476D01*
G01*
X626772Y67717D02*
G03*
X626772Y67716I475J-476D01*
G01*
X626772Y67717D02*
G03*
X626772Y67716I475J-476D01*
G01*
X626772Y67717D02*
G03*
X626772Y67716I475J-476D01*
G01*
X626772Y67717D02*
G03*
X626772Y67716I475J-476D01*
G01*
X626772Y67717D02*
G03*
X626772Y67716I475J-476D01*
G01*
X626772Y67717D02*
G03*
X626772Y67716I475J-476D01*
G01*
X626772Y67717D02*
G03*
X626772Y67716I475J-476D01*
G01*
X602786Y64734D02*
G03*
X609842Y61811I7057J7057D01*
G01*
X621531Y58882D02*
G03*
X614460Y61811I-7071J-7071D01*
G01*
X626772Y67717D02*
G03*
X626772Y67716I475J-476D01*
G01*
X626772Y67717D02*
G03*
X626772Y67716I475J-476D01*
G01*
X626772Y67717D02*
G03*
X626772Y67716I475J-476D01*
G01*
X626772Y67717D02*
G03*
X626772Y67716I475J-476D01*
G01*
X626772Y67717D02*
G03*
X626772Y67716I475J-476D01*
G01*
X626772Y67717D02*
G03*
X626772Y67716I475J-476D01*
G01*
X626772Y67717D02*
G03*
X626772Y67716I475J-476D01*
G01*
X626772Y67717D02*
G03*
X626772Y67716I475J-476D01*
G01*
X597894Y67284D02*
G03*
X596850Y64764I2520J-2520D01*
G01*
Y73425D02*
G03*
X597755Y71241I3089J0D01*
G01*
X603899Y72282D02*
G03*
X608268Y70473I4369J4369D01*
G01*
X608268Y66634D02*
G03*
X611357Y65354I3089J3089D01*
G01*
Y67913D02*
G03*
X608268Y66634I0J-4369D01*
G01*
X618898Y81988D02*
G03*
X619783Y84127I-2139J2139D01*
G01*
X618899Y81990D02*
G03*
X619783Y84127I-2140J2137D01*
G01*
X623130Y84127D02*
G03*
X624016Y81988I3024J0D01*
G01*
X618504Y74016D02*
G03*
X618898Y74966I-950J950D01*
G01*
X617323Y73228D02*
G03*
X617995Y73507I0J950D01*
G01*
X615557Y70473D02*
G03*
X621260Y72835I0J8065D01*
G01*
D02*
G03*
X622441Y75686I-2851J2851D01*
G01*
X624016Y81988D02*
G03*
X622441Y78186I3802J-3802D01*
G01*
X631791Y84653D02*
G03*
X631170Y86153I-2121J0D01*
G01*
X628673Y88650D02*
G03*
X625984Y89764I-2688J-2688D01*
G01*
X622373D02*
G03*
X620472Y88976I0J-2688D01*
G01*
D02*
G03*
X619783Y87313I1663J-1663D01*
G01*
X626772Y67717D02*
G03*
X626772Y67716I475J-476D01*
G01*
X626772Y67717D02*
G03*
X626772Y67716I475J-476D01*
G01*
X626772Y67717D02*
G03*
X626772Y67716I475J-476D01*
G01*
X626772Y67717D02*
G03*
X626772Y67716I475J-476D01*
G01*
X626772Y67717D02*
G03*
X626772Y67716I475J-476D01*
G01*
X626772Y67717D02*
G03*
X626772Y67716I475J-476D01*
G01*
X626772Y67717D02*
G03*
X626772Y67716I475J-476D01*
G01*
X626772Y67717D02*
G03*
X626772Y67716I475J-476D01*
G01*
X626772Y67717D02*
G03*
X626772Y67716I475J-476D01*
G01*
X626772Y67717D02*
G03*
X626772Y67716I475J-476D01*
G01*
X626772Y67717D02*
G03*
X626772Y67716I475J-476D01*
G01*
X626772Y67717D02*
G03*
X626772Y67716I475J-476D01*
G01*
X626772Y67717D02*
G03*
X626772Y67716I475J-476D01*
G01*
X626772Y67717D02*
G03*
X626772Y67716I475J-476D01*
G01*
X626772Y67717D02*
G03*
X626772Y67716I475J-476D01*
G01*
X626772Y67717D02*
G03*
X626772Y67716I475J-476D01*
G01*
X51183Y243332D02*
X62230D01*
X50002Y242151D02*
X51183Y243332D01*
X62230D02*
X66142Y247244D01*
X55489Y241732D02*
X64567D01*
X52712Y238955D02*
X55489Y241732D01*
X64567D02*
X70472Y247638D01*
X55015Y238995D02*
X66161D01*
X54312Y238292D02*
X55015Y238995D01*
X54312Y227972D02*
Y238292D01*
X294291Y134389D02*
X329055Y99625D01*
X294291Y134389D02*
Y134646D01*
X329055Y99625D02*
X330462D01*
X221457Y231299D02*
Y245079D01*
X206991Y216833D02*
X221457Y231299D01*
X225394Y232087D02*
Y242126D01*
X210770Y217463D02*
X225394Y232087D01*
X229331Y232480D02*
Y239173D01*
X208661Y211811D02*
X229331Y232480D01*
X351574Y75590D02*
X352362D01*
X354331Y73622D01*
X349657Y44539D02*
Y68648D01*
X348057Y46876D02*
Y67986D01*
X347244Y71061D02*
X349657Y68648D01*
X347244Y71061D02*
Y81496D01*
X344928Y71115D02*
X348057Y67986D01*
X344928Y71115D02*
Y82291D01*
X346457Y49213D02*
Y67323D01*
X343327Y70452D02*
X346457Y67323D01*
X343327Y70452D02*
Y95001D01*
X328740Y27559D02*
X348057Y46876D01*
X332677Y27559D02*
X349657Y44539D01*
X324803Y27559D02*
X346457Y49213D01*
X26378Y157480D02*
X28051D01*
X296260Y180413D02*
Y187598D01*
X290920Y192939D02*
X296260Y187598D01*
X290920Y192939D02*
Y194120D01*
X298228Y180413D02*
Y187992D01*
X292520Y193701D02*
X298228Y187992D01*
X292520Y193701D02*
Y196457D01*
X257480Y181496D02*
Y182087D01*
X253839Y177854D02*
X257480Y181496D01*
X267785Y113189D02*
X272342D01*
X267587Y112991D02*
X267785Y113189D01*
X267126Y115157D02*
X272342D01*
X266142Y116142D02*
X267126Y115157D01*
X261392Y99875D02*
X268613Y107096D01*
X261392Y99844D02*
Y99875D01*
X268613Y107096D02*
X272155D01*
X268694Y109440D02*
X272155D01*
X260005Y98457D02*
X261392Y99844D01*
X259642Y100388D02*
X268694Y109440D01*
X259642Y100357D02*
Y100388D01*
X256135Y96850D02*
X259642Y100357D01*
X262992Y77953D02*
Y99213D01*
X263008Y99197D01*
X268938Y105127D01*
X258534Y101676D02*
X268260Y111401D01*
X255906Y101676D02*
X258534D01*
X256693Y73267D02*
Y96063D01*
X255906Y96850D02*
X256693Y96063D01*
X194095Y85433D02*
X196653D01*
X196850Y85236D01*
X255396Y158284D02*
X272162D01*
X242932Y170748D02*
X255396Y158284D01*
X242932Y170748D02*
Y178426D01*
X254733Y156684D02*
X272155D01*
X239567Y171850D02*
X254733Y156684D01*
X239567Y171850D02*
Y172933D01*
X239692Y181666D02*
X242932Y178426D01*
X369094Y293307D02*
Y293307D01*
X366142Y290354D02*
X369094Y293307D01*
X363011Y287579D02*
X375000D01*
X360236Y290354D02*
X363011Y287579D01*
X375000D02*
Y287894D01*
X390354Y284449D02*
X400000Y294094D01*
X349803Y284449D02*
X390354D01*
X345276Y288976D02*
X349803Y284449D01*
X52712Y237751D02*
Y238955D01*
X51181Y236221D02*
X52712Y237751D01*
X19685Y216535D02*
X51181D01*
X66929Y236221D02*
X95113Y264405D01*
X57087Y236221D02*
X66929D01*
X57087Y216535D02*
Y225197D01*
X54312Y227972D02*
X57087Y225197D01*
X66161Y238995D02*
X76772Y249606D01*
X13682Y242151D02*
X50002D01*
X11024Y239492D02*
X13682Y242151D01*
X94191Y248425D02*
X95275D01*
X69882Y224115D02*
X94191Y248425D01*
X68282Y224778D02*
X92913Y249410D01*
Y250394D01*
X76378Y263878D02*
X78740Y266240D01*
X76378Y257480D02*
Y263878D01*
X66142Y247244D02*
X76378Y257480D01*
X76772Y249606D02*
Y250000D01*
X95113Y264405D02*
Y275458D01*
X88583Y281988D02*
X95113Y275458D01*
X78740Y277559D02*
Y281988D01*
Y273130D02*
X88583D01*
X74784Y277086D02*
X78740Y273130D01*
X74784Y277086D02*
Y284922D01*
X78740Y288878D01*
X80019Y266240D02*
X83464Y269685D01*
X78740Y266240D02*
X80019D01*
X88583D02*
X89468D01*
X92913Y269685D01*
X83464Y269685D02*
Y269685D01*
X104527Y308563D02*
X109350D01*
X94390Y298425D02*
X104527Y308563D01*
X102855Y311122D02*
X109350D01*
X101143Y309411D02*
X102855Y311122D01*
X98819Y307086D02*
X101143Y309411D01*
X102264Y313681D02*
X109350D01*
X98819Y310236D02*
X102264Y313681D01*
X101674Y316240D02*
X109350D01*
X98819Y313385D02*
X101674Y316240D01*
X70866Y303150D02*
X78740Y295276D01*
Y288878D02*
Y295276D01*
Y288878D02*
X88583D01*
X69882Y219782D02*
Y224115D01*
Y219782D02*
X71849Y217815D01*
X68282Y219120D02*
Y224778D01*
Y219120D02*
X72146Y215256D01*
X71849Y217815D02*
X75000D01*
X72146Y215256D02*
X75000D01*
X97441Y286910D02*
X107283Y296752D01*
X83465Y298425D02*
X87500D01*
X525591Y86614D02*
X528445Y83760D01*
Y23720D02*
Y83760D01*
X395276Y136614D02*
Y139665D01*
X381398Y153543D02*
X395276Y139665D01*
X373524Y154528D02*
X374508Y153543D01*
X357579Y154528D02*
X373524D01*
X361799Y157499D02*
X377170D01*
X360984Y156684D02*
X361799Y157499D01*
X357767Y156684D02*
X360984D01*
X357579Y156496D02*
X357767Y156684D01*
X377189Y157480D02*
X378716D01*
X377170Y157499D02*
X377189Y157480D01*
X585039Y326378D02*
X590945Y332283D01*
X582677Y314961D02*
X591043Y306594D01*
X207581Y214274D02*
X210770Y217463D01*
X357579Y130772D02*
X413253D01*
X413386Y130905D01*
X108366Y151575D02*
Y156791D01*
X139739Y218529D02*
X170397D01*
X134744Y223524D02*
X139739Y218529D01*
X134744Y223524D02*
Y224412D01*
X173252Y214176D02*
X173917D01*
X170397Y218529D02*
X173917Y222050D01*
X170499Y216929D02*
X173252Y214176D01*
X139860Y216929D02*
X170499D01*
X134744Y211814D02*
X139860Y216929D01*
X270177Y79724D02*
Y81126D01*
X271550Y82499D01*
X271771D02*
X276790Y87519D01*
X271550Y82499D02*
X271771D01*
X276790Y87519D02*
Y109990D01*
X362735Y123031D02*
X362967Y122800D01*
X357579Y123031D02*
X362735D01*
X362967Y122800D02*
X366009D01*
X366535Y123327D01*
X585433Y94488D02*
X601968Y77953D01*
X586221Y97244D02*
X604677Y78788D01*
X638282Y70969D02*
X639665Y69587D01*
X636407Y71457D02*
X637106D01*
X630118Y73032D02*
X632606D01*
X628063Y50209D02*
X631791Y53937D01*
X632095Y54241D02*
X632459Y54605D01*
X631791Y53937D02*
X632095Y54241D01*
X635024Y61312D02*
Y68519D01*
X631128Y70472D02*
X633071D01*
X630118Y70473D02*
X631128D01*
X379921Y94488D02*
X585433D01*
X377953Y97244D02*
X586221D01*
X377953Y97244D02*
X377953Y97244D01*
X625591Y70472D02*
X625591Y70473D01*
X630118D01*
X613271Y73228D02*
X617323D01*
X610019Y73032D02*
X612795D01*
X606347Y74755D02*
X606693Y74410D01*
X294291Y100197D02*
X294488Y100394D01*
X294291Y95177D02*
Y100197D01*
X296260Y98622D02*
X298031Y100394D01*
X296260Y95177D02*
Y98622D01*
X352362Y105346D02*
Y108661D01*
X351969Y97244D02*
X356290Y101566D01*
X355511Y97244D02*
X357892Y99625D01*
X407893D01*
X356290Y101566D02*
X401172D01*
X343327Y95001D02*
X343504Y95177D01*
X345472Y82836D02*
Y95177D01*
X344928Y82291D02*
X345472Y82836D01*
X347128Y81379D02*
X347244Y81496D01*
X290354Y89567D02*
X291339Y88583D01*
X290354Y89567D02*
Y95177D01*
X354362Y103347D02*
X357579D01*
X352362Y105346D02*
X354362Y103347D01*
X401172Y101566D02*
X486614Y187008D01*
X407893Y99625D02*
X479528Y171260D01*
X100295Y135138D02*
X151673D01*
X86319Y149114D02*
X100295Y135138D01*
X86319Y149114D02*
Y151575D01*
X99705Y131791D02*
X153051D01*
X83169Y148327D02*
X99705Y131791D01*
X83169Y148327D02*
Y151575D01*
X100000Y127165D02*
X153543D01*
X80020Y147146D02*
X100000Y127165D01*
X80020Y147146D02*
Y151575D01*
X130315Y305905D02*
X130728Y306318D01*
X370866Y179528D02*
X374016D01*
X334646Y59055D02*
Y66929D01*
X171752Y32972D02*
X196850D01*
X154528Y15748D02*
X171752Y32972D01*
X147638Y15748D02*
X154528D01*
X167323D02*
X178150D01*
X192009Y29607D01*
X200103D01*
X203469Y32972D01*
X206693D01*
Y14095D02*
X207008Y13780D01*
X206693Y14095D02*
Y26083D01*
X196850Y13937D02*
X197008Y13780D01*
X196850Y13937D02*
Y26083D01*
X303150Y208661D02*
Y225197D01*
X293307Y235039D02*
X303150Y225197D01*
X254823Y51575D02*
X263681Y42717D01*
X139310Y51575D02*
X254823D01*
X89468Y101416D02*
X139310Y51575D01*
X268260Y111401D02*
X272162D01*
X275560Y111221D02*
X276790Y109990D01*
X272342Y111221D02*
X275560D01*
X347441Y90021D02*
Y95177D01*
X347210Y89789D02*
X347441Y90021D01*
X356496Y84252D02*
X361221Y79527D01*
X350924Y84252D02*
X356496D01*
X347210Y87967D02*
X350924Y84252D01*
X347210Y87967D02*
Y89789D01*
X319882Y175786D02*
Y180413D01*
Y175786D02*
X320472Y175196D01*
X341500Y95213D02*
Y103666D01*
Y95213D02*
X341535Y95177D01*
X341500Y103666D02*
X341535Y103702D01*
Y104528D01*
X343307Y175197D02*
X343504Y175394D01*
Y180413D01*
X362205Y172940D02*
Y173228D01*
X361221Y172244D02*
X362205Y173228D01*
X359773Y170206D02*
X363878D01*
X362666Y168307D02*
X366603Y164370D01*
X357579Y168307D02*
X362666D01*
X366603Y164370D02*
X374016D01*
X337697Y113351D02*
Y113646D01*
X337598Y108465D02*
X341535Y104528D01*
X348327Y117755D02*
Y118012D01*
X347432Y114970D02*
X357391D01*
X346555Y115847D02*
X347432Y114970D01*
X339602Y115847D02*
X346555D01*
X337859Y113189D02*
X357579D01*
X352461Y126969D02*
X357579D01*
X286417Y89172D02*
X287007Y88582D01*
X282480Y89567D02*
Y95177D01*
X281496Y88583D02*
X282480Y89567D01*
X286417Y89172D02*
Y95177D01*
X284261Y94989D02*
X284449Y95177D01*
X332087Y75984D02*
X332283D01*
X329724Y73622D02*
X332087Y75984D01*
X311024Y75590D02*
X311417D01*
X309055Y73622D02*
X311024Y75590D01*
X285039Y75196D02*
X285039Y75196D01*
X285826D01*
X285039D02*
X285039D01*
X283465Y73622D02*
X285039Y75196D01*
X278937Y75000D02*
X279921Y75984D01*
X278937Y73721D02*
Y75000D01*
X277067Y71850D02*
X278937Y73721D01*
X277192Y78713D02*
X279921Y75984D01*
X277192Y78713D02*
Y79599D01*
X277067Y79724D02*
X277192Y79599D01*
X333661Y180413D02*
Y185630D01*
X357579Y172244D02*
X361221D01*
X315945Y174605D02*
X317716Y172834D01*
X315945Y174605D02*
Y180413D01*
X330807Y169685D02*
X337598Y176476D01*
X318898Y169685D02*
X330807D01*
X320866Y167323D02*
X332382D01*
X339567Y174508D01*
X490139Y204251D02*
X493504Y200886D01*
X454134Y200394D02*
X484154D01*
X391732Y330709D02*
Y332677D01*
X385827Y324803D02*
X391732Y330709D01*
X382972Y324803D02*
X385827D01*
X378740Y322835D02*
Y325162D01*
X386256Y332677D01*
X386614D01*
X129035Y311122D02*
X130728Y309430D01*
Y306318D02*
Y309430D01*
X126870Y311122D02*
X129035D01*
X387795Y316929D02*
X389764Y318898D01*
X255413Y291339D02*
X255512Y291240D01*
Y281594D02*
Y291240D01*
X244488Y291240D02*
X244587Y291339D01*
X244488Y281594D02*
Y291240D01*
X159646Y115256D02*
X165748Y121358D01*
X112046Y115256D02*
X159646D01*
X117815Y102756D02*
Y106299D01*
X212598Y80709D02*
X230315Y98425D01*
X111516Y111319D02*
X112795Y112598D01*
X111516Y106299D02*
Y111319D01*
X108366Y111576D02*
X112046Y115256D01*
X108366Y106299D02*
Y111576D01*
X255512Y279626D02*
X259055D01*
X259842Y339567D02*
Y342520D01*
X19685Y275748D02*
Y299213D01*
Y318898D02*
X30610D01*
X86024Y101575D02*
Y105020D01*
X86516Y105512D01*
X86122Y105905D02*
X86516Y105512D01*
X86122Y105905D02*
X86417Y106201D01*
X86319Y106299D02*
X86417Y106201D01*
X86319Y106299D02*
Y107696D01*
X100906Y138779D02*
X150591D01*
X161909Y150098D01*
X151673Y135138D02*
X164075Y147539D01*
X105217Y147736D02*
Y151575D01*
X194291Y114173D02*
X196850D01*
X217815Y183760D02*
Y186122D01*
Y168504D02*
Y170965D01*
X272162Y158284D02*
X272342Y158465D01*
X272155Y156684D02*
X272342Y156496D01*
X231476Y154705D02*
X232874D01*
X226870Y150098D02*
X231476Y154705D01*
X231275Y151181D02*
X232874D01*
X227634Y147539D02*
X231275Y151181D01*
X231109Y147983D02*
Y148031D01*
X229065Y145939D02*
X231109Y147983D01*
X229016Y145939D02*
X229065D01*
X226876Y143799D02*
X229016Y145939D01*
X231109Y148031D02*
X232874D01*
X232293Y145089D02*
X232874Y144508D01*
X227658Y140453D02*
X232293Y145089D01*
X230728Y135020D02*
X232874D01*
X228937Y136811D02*
X230728Y135020D01*
X154232Y123130D02*
X167913Y136811D01*
X153051Y131791D02*
X165059Y143799D01*
X153543Y127165D02*
X166831Y140453D01*
X228642Y133563D02*
X230198Y132007D01*
X155020Y119193D02*
X169390Y133563D01*
X293440Y132446D02*
X325787Y100098D01*
X293380Y132446D02*
X293440D01*
X292091Y133734D02*
X293380Y132446D01*
X292091Y133734D02*
Y133794D01*
X290650Y135236D02*
X292091Y133794D01*
X290551Y135236D02*
X290650D01*
X287008Y135630D02*
X323819Y98819D01*
X283268Y135925D02*
X319568Y99625D01*
X283268Y135925D02*
Y136122D01*
X319568Y99625D02*
X320620D01*
X369700Y141619D02*
X374508Y136811D01*
X357579Y142717D02*
X357767Y142529D01*
X381398Y136811D02*
X382776D01*
X381398Y132972D02*
Y135433D01*
X321663Y98515D02*
Y98582D01*
X320620Y99625D02*
X321663Y98582D01*
X325787Y95177D02*
Y100098D01*
X333474Y95365D02*
Y98876D01*
X331693Y95177D02*
Y98394D01*
X330462Y99625D02*
X331693Y98394D01*
X331125Y101225D02*
X333474Y98876D01*
X337598Y95177D02*
Y101378D01*
X313789Y73631D02*
Y94488D01*
X317726Y92107D02*
Y94113D01*
Y92107D02*
X317842Y91991D01*
X337697Y113351D02*
X337859Y113189D01*
X348228Y120965D02*
Y129823D01*
X357391Y114970D02*
X357579Y115157D01*
X352452Y136999D02*
X357391D01*
X346028Y130576D02*
X352452Y136999D01*
X346028Y120053D02*
Y130576D01*
X353248Y134843D02*
X357579D01*
X348228Y129823D02*
X353248Y134843D01*
X348327Y117678D02*
Y117755D01*
X348365Y117717D01*
X348327Y117678D02*
X348365Y117717D01*
X352478Y129842D02*
X352699D01*
X130118Y151279D02*
X130413Y151575D01*
X196850Y80118D02*
X197441Y80709D01*
X212598D01*
X211417Y119291D02*
X212598Y118110D01*
X196850Y119291D02*
X211417D01*
X212598Y118110D02*
X220472Y110236D01*
X232776D01*
X230315Y98425D02*
X232776D01*
X158760Y151772D02*
Y155217D01*
X139862Y151575D02*
Y156791D01*
X136614Y151476D02*
X136713Y151575D01*
X90453Y123130D02*
X154232D01*
X80020Y112697D02*
X90453Y123130D01*
X120965Y151575D02*
Y156791D01*
X146161Y151575D02*
Y156791D01*
X149311Y151575D02*
Y156693D01*
X155610Y151575D02*
Y156693D01*
X133661Y153248D02*
Y155315D01*
X133465Y153051D02*
X133661Y153248D01*
X133465Y153051D02*
X133661Y152854D01*
X133268Y152461D02*
X133661Y152854D01*
X133268Y152461D02*
X133465Y152264D01*
X133366Y152165D02*
X133465Y152264D01*
X117815Y151772D02*
Y155413D01*
X117717Y151673D02*
X117815Y151772D01*
X124213Y151870D02*
Y155512D01*
Y151870D02*
X124311Y151772D01*
X124114Y151575D02*
X124311Y151772D01*
X133366Y152165D02*
X133661Y151870D01*
X133465Y151673D02*
X133661Y151870D01*
X133465Y151673D02*
X133563Y151575D01*
X142913Y151673D02*
Y155413D01*
Y151673D02*
X143012Y151575D01*
X152362Y152264D02*
X152461Y152362D01*
X152362Y152264D02*
X152461Y152165D01*
X152264Y151969D02*
X152461Y152165D01*
X152264Y151969D02*
X152559Y151673D01*
X152461Y151575D02*
X152559Y151673D01*
X158760Y151772D02*
X158858Y151673D01*
X158760Y151575D02*
X158858Y151673D01*
X124114Y102461D02*
Y104584D01*
X124213Y104683D01*
X123847Y105048D02*
X124213Y104683D01*
X123847Y105048D02*
X124114Y105315D01*
X130413Y101181D02*
Y106299D01*
X133563Y102756D02*
Y105709D01*
X127264Y101279D02*
Y106299D01*
X136713Y101279D02*
Y106299D01*
X139862Y101279D02*
Y106299D01*
X143012Y102559D02*
Y106102D01*
X152461Y102559D02*
Y106299D01*
X149409Y101279D02*
Y105226D01*
X146161Y101279D02*
Y104724D01*
X120965Y101279D02*
Y106299D01*
X133563Y105709D02*
X133858Y106004D01*
X124016Y105413D02*
X124114Y105315D01*
X124016Y105413D02*
X124114Y105512D01*
X123819Y105807D02*
X124114Y105512D01*
X123819Y105807D02*
X124213Y106201D01*
X124114Y106299D02*
X124213Y106201D01*
X133563Y106299D02*
X133858Y106004D01*
X145965Y104921D02*
X146161Y104724D01*
X145965Y104921D02*
X146457Y105413D01*
X146063Y105807D02*
X146457Y105413D01*
X149021Y105615D02*
X149409Y105226D01*
X149021Y105615D02*
X149508Y106102D01*
X149311Y106299D02*
X149508Y106102D01*
X155512Y106201D02*
X155610Y106102D01*
X155512Y106201D02*
X155610Y106299D01*
X158661Y105020D02*
X158957Y105315D01*
X158366Y105905D02*
X158957Y105315D01*
X158366Y105905D02*
X158760Y106299D01*
X142913Y106201D02*
X143012Y106102D01*
X142913Y106201D02*
X143012Y106299D01*
X146063Y105807D02*
X146260Y106004D01*
X146161Y106102D02*
X146260Y106004D01*
X146161Y106102D02*
X146260Y106201D01*
X146161Y106299D02*
X146260Y106201D01*
X117717Y151673D02*
X117815Y151575D01*
X250787Y127559D02*
Y129921D01*
X255906Y127559D02*
Y129921D01*
X80020Y106299D02*
Y112697D01*
X111516Y148721D02*
Y151575D01*
X105118Y106398D02*
Y111909D01*
Y106398D02*
X105217Y106299D01*
X101772Y115256D02*
Y115453D01*
Y115256D02*
X105118Y111909D01*
X646654Y69685D02*
Y74410D01*
X646555Y69587D02*
X646654Y69685D01*
X630118Y65354D02*
X631890D01*
X357480Y134941D02*
X357579Y134843D01*
X354460Y134941D02*
X357480D01*
X357391Y136999D02*
X357579Y136811D01*
X317726Y94113D02*
X318101Y94488D01*
X232874Y131496D02*
Y132007D01*
X349410Y88878D02*
Y95177D01*
X330626Y88796D02*
Y91058D01*
X329912Y91772D02*
X330626Y91058D01*
X329912Y91772D02*
Y94989D01*
X329724Y95177D02*
X329912Y94989D01*
X327756Y88878D02*
Y95177D01*
X272155Y126781D02*
X272342Y126969D01*
X266043Y123031D02*
X272342D01*
X239692Y180682D02*
Y181666D01*
X239567Y181791D02*
X239692Y181666D01*
X219587Y174311D02*
X222933Y170965D01*
X208760Y174311D02*
X219587D01*
X205610Y171161D02*
X208760Y174311D01*
X207972Y180413D02*
X219587D01*
X205610Y182776D02*
X207972Y180413D01*
X205610Y182776D02*
Y183760D01*
X219587Y180413D02*
X222933Y183760D01*
Y170965D02*
X224902Y172933D01*
X232677D01*
X224902Y181791D02*
X232677D01*
X222933Y183760D02*
X224902Y181791D01*
X239567Y128347D02*
X243799D01*
X239567Y131496D02*
X243996D01*
X271779Y142529D02*
X272155Y142904D01*
X243878Y135020D02*
X255512Y146653D01*
X239567Y135020D02*
X243878D01*
X359655Y170088D02*
X359773Y170206D01*
X357767Y170088D02*
X359655D01*
X357579Y170276D02*
X357767Y170088D01*
X328658Y184532D02*
Y186833D01*
X327944Y183818D02*
X328658Y184532D01*
X327944Y180601D02*
Y183818D01*
X327756Y180413D02*
X327944Y180601D01*
X325787Y180413D02*
Y186811D01*
X282382Y180512D02*
X282668Y180798D01*
X280512Y180413D02*
Y183268D01*
X282382Y180512D02*
X282480Y180413D01*
X272155Y142904D02*
X272342Y142717D01*
X239567Y144508D02*
X243032D01*
X247146Y148622D01*
X239567Y148031D02*
X242717D01*
X239567Y151181D02*
X242815D01*
X239567Y154705D02*
X239744Y154528D01*
X272342D01*
X76870Y151575D02*
Y156004D01*
Y101870D02*
Y106299D01*
X92618D02*
Y108109D01*
X320059Y52268D02*
Y55709D01*
X95768Y151575D02*
X96065Y151872D01*
X98819Y151673D02*
X98917Y151575D01*
X98819Y151673D02*
Y155905D01*
X95866Y152071D02*
X96065Y151872D01*
X95866Y152071D02*
Y157677D01*
X105217Y151575D02*
Y153543D01*
X114370Y151870D02*
X114665Y151575D01*
X266141Y112991D02*
X267587D01*
X272162Y111401D02*
X272342Y111221D01*
X272155Y109440D02*
X272342Y109252D01*
X255906Y106501D02*
X259651D01*
X248223Y103937D02*
X250787Y106501D01*
X250484Y101676D02*
X250787D01*
X248223Y103937D02*
X250484Y101676D01*
X254806D02*
X255906D01*
X174016Y221951D02*
X186319D01*
X173917Y222050D02*
X174016Y221951D01*
X179134Y219392D02*
X186319D01*
X173917Y214176D02*
X179134Y219392D01*
X166240Y211617D02*
X168799Y214176D01*
X166339Y224510D02*
X168799Y222050D01*
X230198Y132007D02*
X232874D01*
X229528Y128347D02*
X232874D01*
X136713Y106299D02*
Y107657D01*
X120472Y152067D02*
X120965Y151575D01*
X353603Y128937D02*
X357579D01*
X352699Y129842D02*
X353603Y128937D01*
X339567Y174508D02*
Y180413D01*
X337598Y176476D02*
Y180413D01*
X321663Y98515D02*
X321850Y98327D01*
Y95177D02*
Y98327D01*
X323819Y95177D02*
Y98819D01*
X333474Y95365D02*
X333661Y95177D01*
X335630D02*
Y98983D01*
X239665Y98425D02*
Y99902D01*
X266545Y126781D01*
X272155D01*
X239665Y110236D02*
X247737D01*
X266438Y128937D01*
X272342D01*
X242815Y151181D02*
X244193Y152559D01*
X242717Y148031D02*
X245276Y150591D01*
X244193Y152559D02*
X272342D01*
X245276Y150591D02*
X272342D01*
X247146Y148622D02*
X272342D01*
X255512Y146653D02*
X272342D01*
X243996Y131496D02*
X257185Y144685D01*
X250787Y129921D02*
X263287Y142421D01*
X257185Y144685D02*
X272342D01*
X263287Y142421D02*
X265650D01*
X265757Y142529D01*
X271779D01*
X266929Y139665D02*
X268012Y140748D01*
X272342D01*
X255906Y129921D02*
X265650Y139665D01*
X266929D01*
X243799Y128347D02*
X243898Y128248D01*
X127264Y147638D02*
Y151575D01*
X130118Y151279D02*
X130315Y151083D01*
Y145079D02*
Y151083D01*
X136614Y142913D02*
Y151476D01*
X118110Y142126D02*
X118307D01*
X111516Y148721D02*
X118110Y142126D01*
X382972Y318700D02*
Y318898D01*
X380152Y318700D02*
X382972D01*
X379115Y317663D02*
X380152Y318700D01*
X384350Y297244D02*
X387795Y300689D01*
X382972Y320669D02*
Y320866D01*
X379858Y320669D02*
X382972D01*
X377515Y318325D02*
X379858Y320669D01*
X377515Y311658D02*
Y318325D01*
Y311658D02*
X384055Y305118D01*
X387795Y300689D02*
Y307515D01*
X386914Y308680D02*
X387617Y307977D01*
Y307693D02*
Y307977D01*
Y307693D02*
X387795Y307515D01*
X379115Y312716D02*
Y317663D01*
Y312716D02*
X383150Y308680D01*
X386914D01*
X382972Y316929D02*
X387795D01*
X389764Y318898D02*
X391732Y320866D01*
X391535Y305118D02*
X394882Y308465D01*
X391535Y305118D02*
X394783Y301870D01*
X391240Y297244D02*
Y298327D01*
X394783Y301870D01*
X391240Y297244D02*
X394488Y293996D01*
X411417Y318898D02*
X411417Y318898D01*
X418898D02*
X422835D01*
X92618Y151575D02*
Y155807D01*
X138779Y60236D02*
X141732Y57284D01*
X268799Y66437D02*
X279626Y55610D01*
X280512D01*
X285827Y49114D02*
X290177Y53465D01*
Y55709D01*
X263065Y61836D02*
X275787Y49114D01*
X285827D01*
X270669Y46260D02*
X288189D01*
X295177Y48425D02*
X296850Y50098D01*
Y55709D01*
X300374Y49193D02*
Y55709D01*
X288189Y46260D02*
X293701Y51772D01*
Y55709D01*
X293898Y42717D02*
X300374Y49193D01*
X263681Y42717D02*
X293898D01*
X320059Y52268D02*
X320374Y51953D01*
X313386Y51083D02*
X313484Y51181D01*
X309941Y51870D02*
Y55630D01*
X309862Y55709D02*
X309941Y55630D01*
X138878Y71850D02*
X148892Y61836D01*
X98917Y104528D02*
Y106299D01*
Y104528D02*
X102362Y101083D01*
X316535Y55709D02*
X316929Y55315D01*
X320070Y63672D02*
Y94488D01*
X309862Y69705D02*
X313789Y73631D01*
X316535Y68405D02*
X317842Y69712D01*
Y91991D01*
X312008Y95177D02*
X312067Y95118D01*
X313386Y68996D02*
X315757Y71367D01*
Y94488D01*
X313386Y62402D02*
Y68996D01*
X319429Y63032D02*
X320059Y62402D01*
X319429Y63032D02*
X320070Y63672D01*
X309862Y62402D02*
Y69705D01*
X316535Y62402D02*
Y68405D01*
X83169Y106299D02*
Y109153D01*
X93209Y119193D01*
X155020D01*
X263878Y204528D02*
X264488Y203917D01*
X268307D01*
X260433Y185039D02*
X263779D01*
X252165D02*
X255315D01*
X278937Y184843D02*
X280512Y183268D01*
X278740Y184646D02*
X278937Y184843D01*
X266634Y188976D02*
X268307Y190650D01*
Y193720D01*
X262205Y197244D02*
X268307D01*
X255413Y190453D02*
X262205Y197244D01*
X252953Y196653D02*
X256693Y200394D01*
X268307D01*
X272155Y162589D02*
X272342Y162402D01*
X268938Y162589D02*
X272155D01*
X261319Y170208D02*
Y177165D01*
X254429D02*
X254528D01*
X152461Y152362D02*
Y155315D01*
X153543Y161713D02*
Y165354D01*
X152461Y160630D02*
X153543Y161713D01*
X152461Y155315D02*
Y160630D01*
X153543Y165354D02*
Y168012D01*
X158661Y165354D02*
X161614D01*
X142913Y155413D02*
Y164764D01*
X142323Y165354D02*
X142913Y164764D01*
X142323Y165354D02*
Y168110D01*
X137205Y165354D02*
Y168110D01*
X125984Y165354D02*
X129035D01*
X124213Y155512D02*
Y163583D01*
X125984Y165354D01*
X114370Y151870D02*
Y164764D01*
X140059Y190453D01*
X120866Y165354D02*
Y168012D01*
X117815Y155413D02*
Y162303D01*
X120866Y165354D01*
X76870Y156004D02*
Y159547D01*
X82677Y165354D01*
Y167717D01*
X87795Y165354D02*
X91240D01*
X89468Y150217D02*
X100906Y138779D01*
X89468Y150217D02*
Y151575D01*
Y101416D02*
Y106299D01*
X79724Y90551D02*
X82677D01*
X87795D02*
Y92913D01*
X89468Y94587D01*
X125984Y90551D02*
X129921D01*
X133563Y94193D02*
Y102756D01*
Y94193D02*
X137205Y90551D01*
X143012Y91240D02*
Y102559D01*
X142323Y90551D02*
X143012Y91240D01*
X152461Y91634D02*
Y102559D01*
Y91634D02*
X153543Y90551D01*
X158661Y102559D02*
Y105020D01*
X155610Y101181D02*
Y106102D01*
X92618Y101378D02*
Y106299D01*
X95768Y99213D02*
Y106299D01*
X108366Y98721D02*
Y106299D01*
X114665Y90551D02*
X120866D01*
X405512Y308268D02*
X409055Y304724D01*
X417323D01*
X408563Y296457D02*
Y304232D01*
X409055Y304724D01*
X424213D02*
Y308858D01*
X401575Y296555D02*
Y304724D01*
Y296555D02*
X401673Y296457D01*
X412992Y300394D02*
X416929Y296457D01*
X417323D01*
X400492Y318898D02*
X411417D01*
X406693Y320866D02*
X407087Y321260D01*
X400492Y320866D02*
X406693D01*
X401673Y296457D02*
X405629Y292501D01*
X419985D01*
X423941Y296457D01*
X424213D01*
X304724Y267520D02*
X307874Y270669D01*
X304724Y267323D02*
Y267520D01*
X307874Y270669D02*
X311024Y267520D01*
X400000Y294783D02*
X401673Y296457D01*
X400000Y294094D02*
Y294783D01*
X415354Y272047D02*
X415354D01*
X419291Y268110D01*
X415354Y272047D02*
X419291Y275984D01*
X413583Y263386D02*
X417717D01*
X571555Y337281D02*
X593329D01*
X571555Y329481D02*
X576523D01*
X591043Y314961D01*
X597910Y332677D02*
X597933D01*
X591043Y325810D02*
X597910Y332677D01*
X591043Y323819D02*
Y325810D01*
X571555Y305781D02*
X582506D01*
X591043Y297244D01*
X597933Y296555D02*
Y297244D01*
Y296555D02*
X601575Y292913D01*
X597933Y288386D02*
Y289272D01*
X601575Y292913D01*
X597933Y279528D02*
Y280217D01*
X601575Y283858D01*
X591043Y314075D02*
Y314961D01*
Y314075D02*
X597933Y307185D01*
Y306102D02*
Y307185D01*
X591043Y314961D02*
Y315846D01*
X594568Y319371D01*
Y327072D01*
X595842Y328346D01*
X593329Y337281D02*
X597933Y332677D01*
X492618Y322835D02*
X508901D01*
X510154Y321581D01*
X498502Y337281D02*
X510154D01*
X492913Y331693D02*
X498502Y337281D01*
X482436Y353346D02*
X498502Y337281D01*
X489253Y328032D02*
X492913Y331693D01*
X489253Y311928D02*
X494095Y307087D01*
X469980Y295276D02*
X475867Y301162D01*
X477067Y295079D02*
X484252D01*
X476870Y295276D02*
X477067Y295079D01*
X471039Y287598D02*
X484252D01*
X466615Y292023D02*
X471039Y287598D01*
X466615Y292023D02*
Y301753D01*
X469980Y305118D01*
X481693Y335433D02*
X485433Y331693D01*
X481496Y335433D02*
X481693D01*
X482677Y319783D02*
X485728Y322835D01*
X482677Y319291D02*
Y319783D01*
X469980Y314961D02*
Y315846D01*
X466929Y318898D02*
X469980Y315846D01*
X476870Y314961D02*
X489253D01*
Y311928D02*
Y314961D01*
Y328032D01*
X487205Y267913D02*
Y268110D01*
X491339Y263779D02*
Y263976D01*
Y263779D02*
X491732D01*
X496063Y267717D02*
Y268110D01*
X494095Y291339D02*
X497244D01*
X530315Y261811D02*
X530354Y261772D01*
Y253937D02*
Y261772D01*
X571655Y290081D02*
X574092D01*
X584646Y279528D02*
X591043D01*
Y287500D02*
Y288386D01*
X588189Y284646D02*
X591043Y287500D01*
X571655Y297881D02*
X574560D01*
X584055Y288386D01*
X591043D01*
X587795Y293996D02*
X591043Y297244D01*
X587795Y293307D02*
Y293996D01*
X520354Y253937D02*
Y261929D01*
X540354Y253937D02*
Y261614D01*
X540158Y261811D02*
X540354Y261614D01*
X574092Y290081D02*
X577559Y286614D01*
X584646Y279528D01*
X400492Y316929D02*
X403543D01*
X405512Y314961D01*
Y308268D02*
Y314961D01*
X597933D02*
X619291D01*
X597933Y323819D02*
X621063D01*
X568504Y255787D02*
X570354Y253937D01*
X568504Y255787D02*
Y259449D01*
X562205Y265748D02*
X568504Y259449D01*
X553150Y265748D02*
X562205D01*
X560354Y253937D02*
Y257756D01*
X559055Y259055D02*
X560354Y257756D01*
X556731Y259055D02*
X559055D01*
X550038Y265748D02*
X556731Y259055D01*
X547244Y265748D02*
X550038D01*
X541339D02*
X550354Y256732D01*
Y253937D02*
Y256732D01*
X275000Y197244D02*
X278740D01*
X282668Y180798D02*
Y185147D01*
X261319Y170208D02*
X268938Y162589D01*
X257480Y182087D02*
X260433Y185039D01*
X316929Y51181D02*
Y55315D01*
X320177Y51756D02*
X320374Y51953D01*
X320177Y51575D02*
Y51756D01*
X597933Y332677D02*
X605315Y340059D01*
Y354331D01*
X595842Y328346D02*
X606890D01*
X620079Y341535D01*
Y354331D01*
X481693Y353346D02*
X482436D01*
X140059Y190453D02*
X255413D01*
X161909Y150098D02*
X226870D01*
X164075Y147539D02*
X227634D01*
X165059Y143799D02*
X226876D01*
X166831Y140453D02*
X227658D01*
X167913Y136811D02*
X228937D01*
X169390Y133563D02*
X228642D01*
X148892Y61836D02*
X263065D01*
X313386Y51083D02*
Y55709D01*
X259646Y57284D02*
X270669Y46260D01*
X141732Y57284D02*
X259646D01*
X158661Y90551D02*
X159744D01*
X161417Y92224D01*
X381398Y135433D02*
X382776Y136811D01*
X396197Y222244D02*
X403543D01*
X396197Y232244D02*
X403780D01*
X396197Y242244D02*
X403622D01*
X396197Y192244D02*
X403858D01*
X396197Y202244D02*
X403858D01*
X375197Y222244D02*
X382677D01*
X360846Y242244D02*
X375197D01*
X360728Y242126D02*
X360846Y242244D01*
X371378Y202244D02*
X375197D01*
X371535Y192244D02*
X375197D01*
X360728Y209744D02*
Y210630D01*
X364173Y199606D02*
X371535Y192244D01*
X364173Y199606D02*
Y206299D01*
X360728Y209744D02*
X364173Y206299D01*
X366142Y207480D02*
X371378Y202244D01*
X366142Y207480D02*
Y213091D01*
X360728Y218504D02*
X366142Y213091D01*
X371614Y212244D02*
X375197D01*
X366142Y217717D02*
X371614Y212244D01*
X366142Y217717D02*
Y220965D01*
X360728Y226378D02*
X366142Y220965D01*
X360728Y232972D02*
Y234252D01*
Y232972D02*
X361457Y232244D01*
X375197D01*
X353506Y209050D02*
Y210503D01*
X353839Y210630D02*
X353965Y210503D01*
X351378Y218504D02*
X353839D01*
X294685Y203740D02*
X299213D01*
X275000Y193720D02*
X277933D01*
X278740Y197244D02*
X286417Y189567D01*
Y180413D02*
Y189567D01*
X284449Y180413D02*
Y187205D01*
X277933Y193720D02*
X284449Y187205D01*
X282185Y185630D02*
X282668Y185147D01*
X272342Y125000D02*
X277559D01*
X350197Y217323D02*
X351378Y218504D01*
X350000Y217323D02*
X350197D01*
X351969Y205906D02*
Y207512D01*
X353506Y209050D01*
X353346Y166339D02*
X357579D01*
X423228Y242126D02*
X429724D01*
X425984Y226378D02*
X429528D01*
X454331Y242126D02*
X456102D01*
X449311Y237106D02*
X454331Y242126D01*
X449311Y226378D02*
Y237106D01*
X456201Y226378D02*
X460630D01*
X434646D02*
X449311D01*
X375197Y202244D02*
X375709Y202756D01*
X379134D01*
X434646Y223228D02*
Y226378D01*
Y223228D02*
X434646Y223228D01*
X272342Y166339D02*
X286417D01*
X289370Y163386D01*
X342520D01*
X272342Y164370D02*
X283465D01*
X288386Y159449D01*
X342520D01*
X278642Y184646D02*
X278740D01*
X316929Y242126D02*
X318307D01*
X278150D02*
X281496D01*
X288583Y235039D01*
X293307D01*
X309842D01*
X316929Y242126D01*
X273031Y241534D02*
Y242126D01*
X283071Y245276D02*
X286221Y242126D01*
X291929D01*
X86221Y204724D02*
X88976D01*
X87894Y212697D02*
X92323D01*
X87795Y212598D02*
X87894Y212697D01*
X267717Y270079D02*
Y286614D01*
Y270079D02*
X269291Y268504D01*
X272835D01*
X275590Y265748D01*
X284252Y87008D02*
X284261Y87017D01*
Y94989D01*
X630315Y62992D02*
Y64879D01*
X619882Y48900D02*
Y51279D01*
X621029Y48031D02*
X625197D01*
X625869Y48310D02*
X626100Y48540D01*
X626378Y49213D02*
X626887Y49722D01*
X618996Y54650D02*
Y56299D01*
X619291Y53937D02*
X619800Y53428D01*
X620079Y51755D02*
Y52756D01*
X624114Y55519D02*
Y56299D01*
X623113Y53822D02*
X623622Y54331D01*
X622835Y52230D02*
Y53150D01*
X627247Y67913D02*
X630118D01*
X626263Y67207D02*
X626772Y67716D01*
X625984Y59449D02*
Y66535D01*
X624114Y56299D02*
X625079Y57265D01*
X626772Y67716D02*
X626772Y67717D01*
X602756Y64764D02*
X602786Y64734D01*
X609842Y61811D02*
X614460D01*
X621531Y58882D02*
X624114Y56299D01*
X597894Y67284D02*
X599803Y69193D01*
X597755Y71241D02*
X599803Y69193D01*
X602756Y73425D02*
X603899Y72282D01*
X608268Y70473D02*
X612795D01*
X611357Y65354D02*
X612795D01*
X611357Y67913D02*
X612795D01*
X619783Y84127D02*
Y86910D01*
X623130Y84127D02*
Y86910D01*
X618898Y74966D02*
Y81988D01*
X617995Y73507D02*
X618504Y74016D01*
X612795Y70473D02*
X615557D01*
X622441Y75686D02*
Y78186D01*
X628673Y88650D02*
X631170Y86153D01*
X622373Y89764D02*
X625984D01*
X619783Y86910D02*
Y87313D01*
X639636Y69587D02*
X639665D01*
X276181Y245276D02*
X276378D01*
X283071D01*
X273031Y242126D02*
X276181Y245276D01*
X255512Y277658D02*
X257912D01*
X258661Y276908D01*
X92323Y220374D02*
X96850D01*
Y220472D01*
X92323Y215256D02*
X92421Y215354D01*
X92815Y214961D01*
X93209Y215354D01*
X96457D01*
X92323Y217815D02*
X100000D01*
X292323Y180413D02*
Y184843D01*
X291339Y185827D02*
X292323Y184843D01*
X275000Y203917D02*
X285059D01*
X275000Y200394D02*
X284646D01*
X347800Y220339D02*
X353839Y226378D01*
X357391Y158652D02*
X357579Y158465D01*
X354174Y158652D02*
X357391D01*
X349410Y180413D02*
Y197441D01*
X347800Y205743D02*
Y220339D01*
X343075Y203776D02*
X349410Y197441D01*
X351190Y161636D02*
X354174Y158652D01*
X351190Y161636D02*
Y166232D01*
X352756Y166929D02*
X353346Y166339D01*
X352756Y166929D02*
Y176312D01*
X351156Y166266D02*
X351190Y166232D01*
X351156Y166266D02*
Y176974D01*
X351190Y177008D01*
Y183818D01*
X351156Y183853D02*
X351190Y183818D01*
X352756Y176312D02*
X352790Y176346D01*
Y184481D01*
X352756Y184515D02*
X352790Y184481D01*
X352756Y184515D02*
Y200787D01*
X347800Y205743D02*
X352756Y200787D01*
X351156Y183853D02*
Y198450D01*
X345275Y204331D02*
X351156Y198450D01*
X290177Y62402D02*
Y72067D01*
X291339Y73228D01*
X293700Y62402D02*
Y71259D01*
Y62402D02*
X293701Y62402D01*
X346028Y120053D02*
X348327Y117755D01*
X272155Y105127D02*
X272342Y105315D01*
X248031Y96850D02*
X250787D01*
X272155Y107096D02*
X272342Y107283D01*
X268938Y105127D02*
X272155D01*
X396197Y212244D02*
X403780D01*
X203642Y216833D02*
X206991D01*
X203642Y214274D02*
X207581D01*
X308071Y180413D02*
X308259Y180601D01*
X306102Y180413D02*
X306290Y180601D01*
Y186900D02*
X306791Y187402D01*
X306290Y180601D02*
Y186900D01*
X284646Y200394D02*
X290920Y194120D01*
X285059Y203917D02*
X292520Y196457D01*
X299213Y193209D02*
Y196850D01*
X302165Y180413D02*
Y186024D01*
X304134Y180413D02*
X304169Y180448D01*
Y188253D01*
X299213Y193209D02*
X304169Y188253D01*
X301969Y186221D02*
X302165Y186024D01*
X316929Y196850D02*
X317323Y196457D01*
X320866D01*
X353506Y210503D02*
X353965D01*
X19685Y196850D02*
X35925D01*
X19685Y181102D02*
X35925D01*
X19685Y165354D02*
X35925D01*
Y181102D02*
Y182579D01*
X39370Y186024D01*
Y190945D01*
X35433Y196358D02*
X35925Y196850D01*
X35433Y191929D02*
Y196358D01*
X36417Y165847D02*
Y171260D01*
X35925Y165354D02*
X36417Y165847D01*
X308071Y180413D02*
Y185570D01*
X309055Y186554D01*
Y189961D01*
X310039Y180413D02*
Y185039D01*
X311024Y191103D02*
X311255Y190872D01*
X312008Y180413D02*
Y184745D01*
X311024Y191103D02*
Y203681D01*
X311186Y205782D02*
X312855Y204112D01*
X241240Y279626D02*
X244488D01*
X240158Y278543D02*
X241240Y279626D01*
X240158Y278543D02*
X241043Y277658D01*
X309055Y205650D02*
Y228935D01*
Y205650D02*
X311024Y203681D01*
X311186Y205782D02*
Y224572D01*
X312008Y225394D01*
X314961Y220472D02*
X323066Y212367D01*
X253839Y177854D02*
X254528Y177165D01*
X285433Y32972D02*
X285925D01*
X289370Y29528D02*
X289763D01*
X285925Y32972D02*
X289370Y29528D01*
X344488Y15748D02*
Y23622D01*
X358268Y15748D02*
X364173D01*
X295276Y32972D02*
X297933Y30315D01*
X317717D01*
X330709Y43307D01*
X616142Y28150D02*
Y31496D01*
Y19685D02*
Y23031D01*
X532992Y29606D02*
Y36748D01*
Y29606D02*
X533071Y29528D01*
X542992Y29842D02*
Y36748D01*
Y29842D02*
X543307Y29528D01*
X552992Y29685D02*
Y36748D01*
Y29685D02*
X553150Y29528D01*
X562992D02*
Y36748D01*
X582992Y29606D02*
Y36748D01*
Y29606D02*
X583071Y29528D01*
X592992Y29606D02*
Y36748D01*
X592913Y29528D02*
X592992Y29606D01*
X572992Y29685D02*
Y36748D01*
X572835Y29528D02*
X572992Y29685D01*
X602992D02*
Y36748D01*
Y29685D02*
X603150Y29528D01*
X357579Y146653D02*
X357767Y146466D01*
X361894Y141619D02*
X369700D01*
X357579Y148622D02*
X362465D01*
X357586Y150598D02*
X363600D01*
X367323Y146844D02*
Y146850D01*
X362465Y148622D02*
X362719Y148369D01*
X365805D01*
X367323Y146850D01*
X361807Y143969D02*
X365731D01*
X357767Y142529D02*
X360984D01*
X361894Y141619D01*
X361090Y144685D02*
X361807Y143969D01*
X357579Y144685D02*
X361090D01*
X363189Y146285D02*
X363305Y146169D01*
X361294Y146285D02*
X363189D01*
X357767Y146466D02*
X361113D01*
X361294Y146285D01*
X357579Y109252D02*
X360925D01*
X357579Y105315D02*
X365650D01*
X357579Y130772D02*
Y130905D01*
X320177Y118799D02*
X320374D01*
X320177D02*
X337598Y101378D01*
X339567Y95177D02*
Y103347D01*
X327067Y115847D02*
X339567Y103347D01*
X330566Y101225D02*
X331125D01*
X308366Y123425D02*
X330566Y101225D01*
X314665Y119947D02*
Y120768D01*
Y119947D02*
X335630Y98983D01*
X357579Y132874D02*
X363681D01*
X364665Y133858D01*
X422342Y48720D02*
X423228D01*
X418602Y52461D02*
X422342Y48720D01*
X410433D02*
X411417D01*
X406791Y52362D02*
X410433Y48720D01*
X352756Y117126D02*
X357579D01*
X352165Y117717D02*
X352756Y117126D01*
X383563Y52165D02*
X387008Y48720D01*
X387795D01*
X357579Y125000D02*
X363878D01*
X357579Y121063D02*
X357619Y121103D01*
X357579Y119095D02*
X362598D01*
X363484Y118209D01*
X357579Y121063D02*
X364272D01*
X367126Y118209D01*
X365650Y105315D02*
X366831Y106496D01*
X368602D01*
X364764Y109055D02*
X371555D01*
X360925Y109252D02*
X363189Y111516D01*
X373721D01*
X362992Y107283D02*
X364764Y109055D01*
X357579Y107283D02*
X362992D01*
X397933Y50394D02*
X399606Y48720D01*
X345275Y204331D02*
Y216141D01*
X283465Y196850D02*
X294291Y186024D01*
Y180413D02*
Y186024D01*
X332677Y199803D02*
X335630Y196850D01*
X336614D01*
X311255Y186255D02*
Y190872D01*
X310039Y185039D02*
X311255Y186255D01*
X312855Y185592D02*
Y204112D01*
X312008Y184745D02*
X312855Y185592D01*
X323066Y193541D02*
Y212367D01*
X313976Y180413D02*
Y184451D01*
X323066Y193541D01*
X288386Y175787D02*
Y180413D01*
X288189Y175591D02*
X288386Y175787D01*
X451181Y200394D02*
X454134D01*
X446457Y195669D02*
X451181Y200394D01*
X446063Y195669D02*
X446457D01*
X451181Y212205D02*
X454134D01*
X446850Y207874D02*
X451181Y212205D01*
X290354Y180413D02*
X290389Y180379D01*
Y172997D02*
Y180379D01*
Y172997D02*
X290551Y172835D01*
X454134Y212205D02*
X457087D01*
X465040Y204251D01*
X490139D01*
X347441Y180413D02*
Y195472D01*
X341339Y201575D02*
X347441Y195472D01*
X343075Y203776D02*
Y223428D01*
X353839Y234192D02*
Y234252D01*
X343075Y223428D02*
X353839Y234192D01*
X341339Y201575D02*
Y224803D01*
X255906Y96850D02*
X256135D01*
X260005Y76216D02*
X260236Y75984D01*
X260005Y76216D02*
Y98457D01*
X137894Y79331D02*
X150787Y66437D01*
X267224Y68898D02*
X270177Y71850D01*
X150787Y66437D02*
X268799D01*
X269866Y103347D02*
X272342D01*
X196850Y32972D02*
X200075D01*
X203440Y36338D01*
X251692D01*
X265748Y99229D02*
X269866Y103347D01*
X265748Y75984D02*
Y99229D01*
X261417Y71653D02*
X265748Y75984D01*
X261062Y68898D02*
X267224D01*
X280512Y91929D02*
Y95177D01*
X279134Y90551D02*
X280512Y91929D01*
X279134Y85433D02*
Y90551D01*
X256693Y73267D02*
X261062Y68898D01*
X206693Y32972D02*
X249114D01*
X285433Y13937D02*
Y26083D01*
Y13937D02*
X285591Y13780D01*
X295276Y14095D02*
Y26083D01*
Y14095D02*
X295590Y13780D01*
X423228Y34449D02*
Y41831D01*
X411417Y34449D02*
Y41831D01*
X399606Y34449D02*
Y41831D01*
X387795Y34449D02*
Y41831D01*
Y24409D02*
Y28543D01*
X399606Y24409D02*
Y28543D01*
X411417Y24409D02*
Y28543D01*
X423228Y24409D02*
Y28543D01*
Y34449D02*
X427165Y30512D01*
Y22441D02*
Y30512D01*
X423228Y18504D02*
X427165Y22441D01*
X411417Y18898D02*
X415354Y22835D01*
Y30512D01*
X411417Y34449D02*
X415354Y30512D01*
X399606Y34252D02*
Y34449D01*
X387795Y15748D02*
Y18898D01*
X399606Y15748D02*
Y18898D01*
X387795Y18898D02*
X391732Y22835D01*
Y30512D01*
X387795Y34449D02*
X391732Y30512D01*
X399606Y18898D02*
X403543Y22835D01*
Y30315D01*
X399606Y34252D02*
X403543Y30315D01*
X395177Y52461D02*
X397244Y50394D01*
X397933D01*
X349016Y111221D02*
X357579D01*
X339583Y110746D02*
X348541D01*
X349016Y111221D01*
X532992Y15748D02*
Y19173D01*
X528445Y23720D02*
X532992Y19173D01*
X542992Y15748D02*
Y19016D01*
X538287Y23720D02*
X542992Y19016D01*
X538287Y23720D02*
Y55413D01*
X552992Y15748D02*
Y18858D01*
X548130Y23720D02*
X552992Y18858D01*
X548130Y23720D02*
Y55413D01*
X562992Y15748D02*
Y18701D01*
X557972Y23720D02*
X562992Y18701D01*
X557972Y23720D02*
Y55413D01*
X534252Y65748D02*
X537697Y62303D01*
X538287D01*
X544095Y65748D02*
X544432D01*
X547877Y62303D01*
X548130D01*
X557382D02*
X557972D01*
X553937Y65748D02*
X557382Y62303D01*
X572992Y15748D02*
Y23071D01*
X582992Y15748D02*
Y23150D01*
X592992Y15748D02*
Y23150D01*
X602992Y15748D02*
Y22992D01*
X113189Y17717D02*
Y28543D01*
X300374Y62402D02*
Y74980D01*
X312067Y86673D01*
Y95118D01*
X280512Y66216D02*
X288026Y73731D01*
X280512Y62500D02*
Y66216D01*
X296850Y62402D02*
Y81299D01*
X288026Y73731D02*
Y75428D01*
X304134Y91535D01*
Y95177D01*
X296850Y81299D02*
X306067Y90516D01*
Y94336D01*
X305915Y94488D02*
X306067Y94336D01*
X307283Y87795D02*
X307667Y88179D01*
Y90896D01*
X309867Y89985D02*
Y95005D01*
X310039Y95177D01*
X307667Y90896D02*
X307883Y91113D01*
Y94989D01*
X475867Y301162D02*
X479532D01*
X476870Y305118D02*
X480709Y308957D01*
X482382D01*
X484252Y310827D01*
X479532Y301162D02*
X481717Y303346D01*
X484252D01*
Y287598D02*
X488189Y291535D01*
X484252Y303346D02*
X485198D01*
X489037Y299508D02*
X492618D01*
X485198Y303346D02*
X489037Y299508D01*
X486221Y299213D02*
X488189Y297244D01*
Y291535D02*
Y297244D01*
X168402Y229527D02*
X168799Y229924D01*
X165748Y229527D02*
X168402D01*
X277559Y125000D02*
X280512Y127953D01*
X280315Y128150D02*
X280512Y127953D01*
X280315Y128150D02*
Y155118D01*
X272342Y160433D02*
X275787D01*
X278346Y157874D01*
X35925Y176870D02*
Y181102D01*
X35827Y176772D02*
X35925Y176870D01*
X28051Y157480D02*
X35925Y165354D01*
X621063Y323819D02*
X630079Y314803D01*
X656496D01*
X619291Y314961D02*
X629449Y304803D01*
X656496D01*
X241043Y277658D02*
X244488D01*
X255512Y272244D02*
Y275689D01*
X199314Y219392D02*
X203642D01*
X198425Y218504D02*
X199314Y219392D01*
X198425Y212992D02*
Y218504D01*
Y212992D02*
X199606Y211811D01*
X208661D01*
X516240Y179134D02*
X541653D01*
X547244Y184724D01*
X534980Y152461D02*
X547244Y164724D01*
X533366Y140650D02*
X547244Y154528D01*
Y154724D01*
X552126Y149606D02*
X557244Y154724D01*
X531358Y128839D02*
X547244Y144724D01*
X529547Y117028D02*
X547244Y134724D01*
X519488Y111122D02*
X525905D01*
X519488Y117028D02*
X529547D01*
X519488Y122933D02*
X527715D01*
X519488Y128839D02*
X531358D01*
X519488Y134744D02*
X530413D01*
X519488Y140650D02*
X533366D01*
X519488Y152461D02*
X534980D01*
X484154Y200394D02*
X484646Y200886D01*
X552362Y199606D02*
X557244Y194724D01*
X542913Y199606D02*
X552362D01*
X493504Y200886D02*
X495590Y198800D01*
X542107D01*
X542913Y199606D01*
X484646Y200886D02*
X488681Y196850D01*
X545118D01*
X547244Y194724D01*
X552205Y189764D02*
X557244Y184724D01*
X516240Y187008D02*
X540551D01*
X543307Y189764D01*
X552205D01*
X516240Y171260D02*
X539370D01*
X542835Y174724D01*
X547244D01*
X516240Y163386D02*
X537008D01*
X543307Y169685D01*
X552205D01*
X557244Y174724D01*
X551968Y159449D02*
X557244Y164724D01*
X519488Y146555D02*
X531988D01*
X544882Y159449D01*
X551968D01*
X530413Y134744D02*
X545276Y149606D01*
X552126D01*
X525905Y111122D02*
X544310Y129528D01*
X552047D01*
X557244Y134724D01*
X527715Y122933D02*
X544546Y139764D01*
X552283D01*
X557244Y144724D01*
X509842Y140551D02*
X513681D01*
X509842Y134646D02*
X513681D01*
X513779Y134744D01*
X509842Y128740D02*
X509941Y128839D01*
X513779D01*
X505512Y163386D02*
X509350D01*
X472441Y168898D02*
X482677Y179134D01*
X509350D01*
X486614Y187008D02*
X509350D01*
X479528Y171260D02*
X509350D01*
X509941Y146555D02*
X513779D01*
X509842Y152362D02*
X513681D01*
X513779Y152461D01*
X492126Y17717D02*
Y28543D01*
X11024Y222244D02*
Y239492D01*
Y222244D02*
X16732Y216535D01*
X19685D01*
Y275748D02*
X33307D01*
X35433Y273622D01*
X55118D01*
X117815Y97736D02*
Y102756D01*
Y97736D02*
X120866Y94685D01*
Y90551D02*
Y94685D01*
X124114Y92421D02*
Y102461D01*
Y92421D02*
X125984Y90551D01*
X133661Y155315D02*
Y161811D01*
X137205Y165354D01*
X102067Y151575D02*
Y160138D01*
X138583Y196653D01*
X252953D01*
X229331Y239173D02*
X258661Y268504D01*
Y276908D01*
X225394Y242126D02*
X255512Y272244D01*
X221457Y245079D02*
X244488Y268110D01*
Y275689D01*
X19685Y236221D02*
X51181D01*
X378716Y157480D02*
X378735Y157499D01*
X384060D01*
X384704Y156855D02*
X417091D01*
X384060Y157499D02*
X384704Y156855D01*
X417091D02*
X424016Y163779D01*
D11*
X375000Y287894D02*
D03*
Y281004D02*
D03*
X299213Y203740D02*
D03*
Y196850D02*
D03*
X387795Y41831D02*
D03*
Y48720D02*
D03*
X399606Y41831D02*
D03*
Y48720D02*
D03*
X411417Y41831D02*
D03*
Y48720D02*
D03*
X423228Y41831D02*
D03*
Y48720D02*
D03*
X88583Y266240D02*
D03*
Y273130D02*
D03*
X78740Y266240D02*
D03*
Y273130D02*
D03*
X108268Y296752D02*
D03*
Y289862D02*
D03*
X316929Y203740D02*
D03*
Y196850D02*
D03*
X336614D02*
D03*
Y203740D02*
D03*
X206693Y32972D02*
D03*
Y26083D02*
D03*
X196850Y32972D02*
D03*
Y26083D02*
D03*
X295276Y32972D02*
D03*
Y26083D02*
D03*
X285433Y32972D02*
D03*
Y26083D02*
D03*
X280512Y62500D02*
D03*
Y55610D02*
D03*
X484646Y200886D02*
D03*
Y207776D02*
D03*
X493504Y200886D02*
D03*
Y207776D02*
D03*
X88583Y281988D02*
D03*
Y288878D02*
D03*
X78740Y281988D02*
D03*
Y288878D02*
D03*
X557972Y55413D02*
D03*
Y62303D02*
D03*
X548130D02*
D03*
Y55413D02*
D03*
X538287D02*
D03*
Y62303D02*
D03*
D12*
X360236Y290354D02*
D03*
X366142D02*
D03*
X57087Y236221D02*
D03*
X51181D02*
D03*
X57087Y216535D02*
D03*
X51181D02*
D03*
X602756Y73425D02*
D03*
X596850D02*
D03*
X602756Y64764D02*
D03*
X596850D02*
D03*
D13*
X76870Y106299D02*
D03*
X80020D02*
D03*
X83169D02*
D03*
X86319D02*
D03*
X89468D02*
D03*
X92618D02*
D03*
X95768D02*
D03*
X98917D02*
D03*
X102067D02*
D03*
X105217D02*
D03*
X108366D02*
D03*
X111516D02*
D03*
X114665D02*
D03*
X117815D02*
D03*
X120965D02*
D03*
X124114D02*
D03*
X127264D02*
D03*
X130413D02*
D03*
X133563D02*
D03*
X136713D02*
D03*
X139862D02*
D03*
X143012D02*
D03*
X146161D02*
D03*
X149311D02*
D03*
X152461D02*
D03*
X155610D02*
D03*
X158760D02*
D03*
X76870Y151575D02*
D03*
X80020D02*
D03*
X83169D02*
D03*
X86319D02*
D03*
X89468D02*
D03*
X92618D02*
D03*
X95768D02*
D03*
X98917D02*
D03*
X102067D02*
D03*
X105217D02*
D03*
X108366D02*
D03*
X111516D02*
D03*
X114665D02*
D03*
X117815D02*
D03*
X120965D02*
D03*
X124114D02*
D03*
X127264D02*
D03*
X130413D02*
D03*
X133563D02*
D03*
X136713D02*
D03*
X139862D02*
D03*
X143012D02*
D03*
X146161D02*
D03*
X149311D02*
D03*
X152461D02*
D03*
X155610D02*
D03*
X158760D02*
D03*
D14*
X134744Y211814D02*
D03*
X205610Y183760D02*
D03*
D15*
X156398Y211814D02*
D03*
X134744Y224412D02*
D03*
X156398D02*
D03*
X183957Y183760D02*
D03*
X205610Y171161D02*
D03*
X183957D02*
D03*
D16*
X212598Y118110D02*
D03*
Y80709D02*
D03*
D17*
X391732Y320866D02*
D03*
D18*
X400492Y316929D02*
D03*
Y318898D02*
D03*
Y320866D02*
D03*
Y322835D02*
D03*
Y324803D02*
D03*
X382972Y316929D02*
D03*
Y318898D02*
D03*
Y320866D02*
D03*
Y322835D02*
D03*
Y324803D02*
D03*
D19*
X612795Y73032D02*
D03*
Y70473D02*
D03*
Y67913D02*
D03*
Y65354D02*
D03*
X630118Y73032D02*
D03*
Y70473D02*
D03*
Y67913D02*
D03*
Y65354D02*
D03*
X92323Y212697D02*
D03*
Y215256D02*
D03*
Y217815D02*
D03*
Y220374D02*
D03*
X75000Y212697D02*
D03*
Y215256D02*
D03*
Y217815D02*
D03*
Y220374D02*
D03*
X186319Y221951D02*
D03*
Y219392D02*
D03*
Y216833D02*
D03*
Y214274D02*
D03*
X203642Y221951D02*
D03*
Y219392D02*
D03*
Y216833D02*
D03*
Y214274D02*
D03*
D20*
X255512Y281594D02*
D03*
Y279626D02*
D03*
Y277658D02*
D03*
Y275689D02*
D03*
X244488D02*
D03*
Y277658D02*
D03*
Y279626D02*
D03*
Y281594D02*
D03*
D21*
X250000Y278543D02*
D03*
D22*
X127067Y273248D02*
D03*
Y268248D02*
D03*
Y263248D02*
D03*
Y258248D02*
D03*
X148524Y273248D02*
D03*
Y268248D02*
D03*
Y263248D02*
D03*
Y258248D02*
D03*
X107382Y351988D02*
D03*
Y346988D02*
D03*
Y341988D02*
D03*
Y336988D02*
D03*
X128839Y351988D02*
D03*
Y346988D02*
D03*
Y341988D02*
D03*
Y336988D02*
D03*
D23*
X109350Y321358D02*
D03*
Y318799D02*
D03*
Y316240D02*
D03*
Y313681D02*
D03*
Y311122D02*
D03*
Y308563D02*
D03*
X126870Y321358D02*
D03*
Y318799D02*
D03*
Y316240D02*
D03*
Y313681D02*
D03*
Y311122D02*
D03*
Y308563D02*
D03*
D24*
X118110Y314961D02*
D03*
D25*
X280512Y180413D02*
D03*
X282480D02*
D03*
X284449D02*
D03*
X286417D02*
D03*
X288386D02*
D03*
X290354D02*
D03*
X292323D02*
D03*
X294291D02*
D03*
X296260D02*
D03*
X298228D02*
D03*
X300197D02*
D03*
X302165D02*
D03*
X304134D02*
D03*
X306102D02*
D03*
X308071D02*
D03*
X310039D02*
D03*
X312008D02*
D03*
X313976D02*
D03*
X315945D02*
D03*
X317913D02*
D03*
X319882D02*
D03*
X321850D02*
D03*
X323819D02*
D03*
X325787D02*
D03*
X327756D02*
D03*
X329724D02*
D03*
X331693D02*
D03*
X333661D02*
D03*
X335630D02*
D03*
X337598D02*
D03*
X339567D02*
D03*
X341535D02*
D03*
X343504D02*
D03*
X345472D02*
D03*
X347441D02*
D03*
X349410D02*
D03*
Y95177D02*
D03*
X347441D02*
D03*
X345472D02*
D03*
X343504D02*
D03*
X341535D02*
D03*
X339567D02*
D03*
X337598D02*
D03*
X335630D02*
D03*
X333661D02*
D03*
X331693D02*
D03*
X329724D02*
D03*
X327756D02*
D03*
X325787D02*
D03*
X323819D02*
D03*
X321850D02*
D03*
X319882D02*
D03*
X317913D02*
D03*
X315945D02*
D03*
X313976D02*
D03*
X312008D02*
D03*
X310039D02*
D03*
X308071D02*
D03*
X306102D02*
D03*
X304134D02*
D03*
X302165D02*
D03*
X300197D02*
D03*
X298228D02*
D03*
X296260D02*
D03*
X294291D02*
D03*
X292323D02*
D03*
X290354D02*
D03*
X288386D02*
D03*
X286417D02*
D03*
X284449D02*
D03*
X282480D02*
D03*
X280512D02*
D03*
D26*
X357579Y172244D02*
D03*
Y170276D02*
D03*
Y168307D02*
D03*
Y166339D02*
D03*
Y164370D02*
D03*
Y162402D02*
D03*
Y160433D02*
D03*
Y158465D02*
D03*
Y156496D02*
D03*
Y154528D02*
D03*
Y152559D02*
D03*
Y150591D02*
D03*
Y148622D02*
D03*
Y146653D02*
D03*
Y144685D02*
D03*
Y142717D02*
D03*
Y140748D02*
D03*
Y138779D02*
D03*
Y136811D02*
D03*
Y134843D02*
D03*
Y132874D02*
D03*
Y130905D02*
D03*
Y128937D02*
D03*
Y126969D02*
D03*
Y125000D02*
D03*
Y123031D02*
D03*
Y121063D02*
D03*
Y119095D02*
D03*
Y117126D02*
D03*
Y115157D02*
D03*
Y113189D02*
D03*
Y111221D02*
D03*
Y109252D02*
D03*
Y107283D02*
D03*
Y105315D02*
D03*
Y103347D02*
D03*
X272342D02*
D03*
Y105315D02*
D03*
Y107283D02*
D03*
Y109252D02*
D03*
Y111221D02*
D03*
Y113189D02*
D03*
Y115157D02*
D03*
Y117126D02*
D03*
Y119095D02*
D03*
Y121063D02*
D03*
Y123031D02*
D03*
Y125000D02*
D03*
Y126969D02*
D03*
Y128937D02*
D03*
Y130905D02*
D03*
Y132874D02*
D03*
Y134843D02*
D03*
Y136811D02*
D03*
Y138779D02*
D03*
Y140748D02*
D03*
Y142717D02*
D03*
Y144685D02*
D03*
Y146653D02*
D03*
Y148622D02*
D03*
Y150591D02*
D03*
Y152559D02*
D03*
Y154528D02*
D03*
Y156496D02*
D03*
Y158465D02*
D03*
Y160433D02*
D03*
Y162402D02*
D03*
Y164370D02*
D03*
Y166339D02*
D03*
Y168307D02*
D03*
Y170276D02*
D03*
Y172244D02*
D03*
D27*
X620079Y354331D02*
D03*
X605315D02*
D03*
X631791Y84653D02*
D03*
Y53937D02*
D03*
X387795Y15748D02*
D03*
X399606D02*
D03*
X411417D02*
D03*
X423228D02*
D03*
X98425Y285433D02*
D03*
X167323Y15748D02*
D03*
X147638D02*
D03*
X364173D02*
D03*
X344488D02*
D03*
D28*
X114665Y90551D02*
D03*
X148819Y292126D02*
D03*
X108366Y98721D02*
D03*
D29*
X319685Y270866D02*
D03*
X19685Y165354D02*
D03*
Y181102D02*
D03*
Y196850D02*
D03*
Y236221D02*
D03*
Y216535D02*
D03*
X275590Y265748D02*
D03*
X110236Y360236D02*
D03*
X167323Y269685D02*
D03*
X19685Y299213D02*
D03*
X454134Y200394D02*
D03*
Y212205D02*
D03*
X486221Y242126D02*
D03*
D30*
X455315Y353346D02*
D03*
X481693D02*
D03*
X456102Y242126D02*
D03*
X429724D02*
D03*
X318307D02*
D03*
X291929D02*
D03*
D31*
X239567Y128347D02*
D03*
Y131496D02*
D03*
X232874Y128347D02*
D03*
Y131496D02*
D03*
X239567Y148031D02*
D03*
Y151181D02*
D03*
X232874Y148031D02*
D03*
Y151181D02*
D03*
X268307Y200394D02*
D03*
Y197244D02*
D03*
X275000Y200394D02*
D03*
Y197244D02*
D03*
D32*
X239567Y124823D02*
D03*
Y135020D02*
D03*
X232874Y124823D02*
D03*
Y135020D02*
D03*
X239567Y144508D02*
D03*
Y154705D02*
D03*
X232874Y144508D02*
D03*
Y154705D02*
D03*
X268307Y203917D02*
D03*
Y193720D02*
D03*
X275000Y203917D02*
D03*
Y193720D02*
D03*
D33*
X316535Y62402D02*
D03*
X313386D02*
D03*
X316535Y55709D02*
D03*
X313386D02*
D03*
X296850Y62402D02*
D03*
X293701D02*
D03*
X296850Y55709D02*
D03*
X293701D02*
D03*
D34*
X320059Y62402D02*
D03*
X309862D02*
D03*
X320059Y55709D02*
D03*
X309862D02*
D03*
X300374Y62402D02*
D03*
X290177D02*
D03*
X300374Y55709D02*
D03*
X290177D02*
D03*
D35*
X469980Y295276D02*
D03*
X476870D02*
D03*
X591043Y314961D02*
D03*
X597933D02*
D03*
X591043Y323819D02*
D03*
X597933D02*
D03*
X591043Y279528D02*
D03*
X597933D02*
D03*
X469980Y305118D02*
D03*
X476870D02*
D03*
X591043Y306102D02*
D03*
X597933D02*
D03*
X591043Y332677D02*
D03*
X597933D02*
D03*
X591043Y288386D02*
D03*
X597933D02*
D03*
X591043Y297244D02*
D03*
X597933D02*
D03*
X485728Y322835D02*
D03*
X492618D02*
D03*
X469980Y314961D02*
D03*
X476870D02*
D03*
X381398Y136811D02*
D03*
X374508D02*
D03*
X391240Y297244D02*
D03*
X384350D02*
D03*
X417323Y304724D02*
D03*
X424213D02*
D03*
Y296457D02*
D03*
X417323D02*
D03*
X401673D02*
D03*
X408563D02*
D03*
X35925Y165354D02*
D03*
X42815D02*
D03*
X35925Y181102D02*
D03*
X42815D02*
D03*
X35925Y196850D02*
D03*
X42815D02*
D03*
X115157Y281496D02*
D03*
X108268D02*
D03*
X94488Y307087D02*
D03*
X87598D02*
D03*
X108268Y271654D02*
D03*
X115157D02*
D03*
Y261811D02*
D03*
X108268D02*
D03*
X87598Y316929D02*
D03*
X94488D02*
D03*
X87598Y326772D02*
D03*
X94488D02*
D03*
X449311Y226378D02*
D03*
X456201D02*
D03*
X360728Y242126D02*
D03*
X353839D02*
D03*
X232776Y98425D02*
D03*
X239665D02*
D03*
X232776Y110236D02*
D03*
X239665D02*
D03*
X509350Y163386D02*
D03*
X516240D02*
D03*
X374508Y153543D02*
D03*
X381398D02*
D03*
X270177Y71850D02*
D03*
X277067D02*
D03*
Y79724D02*
D03*
X270177D02*
D03*
X646555Y69587D02*
D03*
X639665D02*
D03*
X65453Y204724D02*
D03*
X72342D02*
D03*
X87500Y298425D02*
D03*
X94390D02*
D03*
X353839Y210630D02*
D03*
X360728D02*
D03*
Y218504D02*
D03*
X353839D02*
D03*
X239567Y181791D02*
D03*
X232677D02*
D03*
Y172933D02*
D03*
X239567D02*
D03*
X254429Y177165D02*
D03*
X261319D02*
D03*
X360728Y226378D02*
D03*
X353839D02*
D03*
Y234252D02*
D03*
X360728D02*
D03*
X516240Y179134D02*
D03*
X509350D02*
D03*
Y187008D02*
D03*
X516240D02*
D03*
Y171260D02*
D03*
X509350D02*
D03*
D36*
X352559Y277953D02*
D03*
X341732D02*
D03*
X352559Y268110D02*
D03*
X341732D02*
D03*
X244587Y291339D02*
D03*
X255413D02*
D03*
X128445Y297244D02*
D03*
X139272D02*
D03*
D37*
X619783Y86910D02*
D03*
X623130D02*
D03*
X623228Y51279D02*
D03*
X619882D02*
D03*
D38*
X494095Y291339D02*
D03*
X484252Y287598D02*
D03*
Y295079D02*
D03*
X494095Y307087D02*
D03*
X484252Y303346D02*
D03*
Y310827D02*
D03*
D39*
X356299Y330709D02*
D03*
X318110D02*
D03*
D40*
X192913Y334646D02*
D03*
Y295276D02*
D03*
D41*
X570354Y253937D02*
D03*
Y232937D02*
D03*
X560354Y253937D02*
D03*
Y232937D02*
D03*
X550354Y253937D02*
D03*
Y232937D02*
D03*
X540354Y253937D02*
D03*
Y232937D02*
D03*
X530354Y253937D02*
D03*
Y232937D02*
D03*
X520354Y253937D02*
D03*
Y232937D02*
D03*
X532992Y15748D02*
D03*
Y36748D02*
D03*
X542992Y15748D02*
D03*
Y36748D02*
D03*
X552992Y15748D02*
D03*
Y36748D02*
D03*
X562992Y15748D02*
D03*
Y36748D02*
D03*
X572992Y15748D02*
D03*
Y36748D02*
D03*
X582992Y15748D02*
D03*
Y36748D02*
D03*
X592992Y15748D02*
D03*
X602992D02*
D03*
X592992Y36748D02*
D03*
X602992D02*
D03*
D42*
X375197Y242244D02*
D03*
X396197D02*
D03*
X375197Y232244D02*
D03*
X396197D02*
D03*
X375197Y222244D02*
D03*
X396197D02*
D03*
X375197Y212244D02*
D03*
X396197D02*
D03*
X375197Y202244D02*
D03*
X396197D02*
D03*
X375197Y192244D02*
D03*
X396197D02*
D03*
D43*
X387795Y28543D02*
D03*
Y34449D02*
D03*
X399606Y28543D02*
D03*
Y34449D02*
D03*
X411417Y28543D02*
D03*
Y34449D02*
D03*
X423228Y28543D02*
D03*
Y34449D02*
D03*
D44*
X143307Y317618D02*
D03*
X147047Y307776D02*
D03*
X139567D02*
D03*
D45*
X70866Y303150D02*
D03*
X55512D02*
D03*
D46*
X145669Y340748D02*
D03*
Y356102D02*
D03*
D47*
X496063Y268110D02*
D03*
Y279134D02*
D03*
X487205Y268110D02*
D03*
Y279134D02*
D03*
D48*
X492913Y331693D02*
D03*
X485433D02*
D03*
X411417Y318898D02*
D03*
X418898D02*
D03*
X384055Y305118D02*
D03*
X391535D02*
D03*
X413583Y263386D02*
D03*
X406102D02*
D03*
X409055Y304724D02*
D03*
X401575D02*
D03*
X139764Y324803D02*
D03*
X147244D02*
D03*
X374016Y164370D02*
D03*
X381496D02*
D03*
X254134Y169291D02*
D03*
X261614D02*
D03*
D49*
X158661Y90551D02*
D03*
X153543D02*
D03*
X142323D02*
D03*
X137205D02*
D03*
X125984D02*
D03*
X120866D02*
D03*
X87795D02*
D03*
X82677D02*
D03*
X153543Y165354D02*
D03*
X158661D02*
D03*
X137205D02*
D03*
X142323D02*
D03*
X120866D02*
D03*
X125984D02*
D03*
X82677D02*
D03*
X87795D02*
D03*
X411417Y328740D02*
D03*
X416535D02*
D03*
X391732Y332677D02*
D03*
X386614D02*
D03*
X624016Y81988D02*
D03*
X618898D02*
D03*
X618996Y56299D02*
D03*
X624114D02*
D03*
X81102Y204724D02*
D03*
X86221D02*
D03*
X173917Y229924D02*
D03*
X168799D02*
D03*
X173917Y214176D02*
D03*
X168799D02*
D03*
X173917Y222050D02*
D03*
X168799D02*
D03*
X434646Y226378D02*
D03*
X429528D02*
D03*
X379134Y179528D02*
D03*
X374016D02*
D03*
X379134Y171260D02*
D03*
X374016D02*
D03*
X379134Y144685D02*
D03*
X374016D02*
D03*
X379134Y123031D02*
D03*
X374016D02*
D03*
X255906Y106501D02*
D03*
X250787D02*
D03*
X255906Y129921D02*
D03*
X250787D02*
D03*
X260433Y185039D02*
D03*
X255315D02*
D03*
X278150Y242126D02*
D03*
X273031D02*
D03*
X255906Y96850D02*
D03*
X250787D02*
D03*
X255906Y101676D02*
D03*
X250787D02*
D03*
X222933Y183760D02*
D03*
X217815D02*
D03*
X222933Y170965D02*
D03*
X217815D02*
D03*
D50*
X415354Y272047D02*
D03*
X404331D02*
D03*
X419291Y336614D02*
D03*
X408268D02*
D03*
X139764Y287402D02*
D03*
X128740D02*
D03*
X255512Y309055D02*
D03*
X244488D02*
D03*
X518898Y212598D02*
D03*
X507874D02*
D03*
X518898Y202756D02*
D03*
X507874D02*
D03*
D51*
X307874Y270669D02*
D03*
Y278150D02*
D03*
X361221Y79527D02*
D03*
Y72047D02*
D03*
D52*
X118110Y295866D02*
D03*
Y290748D02*
D03*
X616142Y23031D02*
D03*
Y28150D02*
D03*
X308071Y201969D02*
D03*
Y196850D02*
D03*
X326772Y201969D02*
D03*
Y196850D02*
D03*
X354331Y73622D02*
D03*
Y78740D02*
D03*
X329724Y73622D02*
D03*
Y78740D02*
D03*
X309055Y73622D02*
D03*
Y78740D02*
D03*
X283465Y73622D02*
D03*
Y78740D02*
D03*
X196850Y80118D02*
D03*
Y85236D02*
D03*
Y119291D02*
D03*
Y114173D02*
D03*
D53*
X66142Y259842D02*
D03*
X55118D02*
D03*
X66142Y273622D02*
D03*
X55118D02*
D03*
X66142Y287402D02*
D03*
X55118D02*
D03*
D54*
X477559Y268602D02*
D03*
Y279429D02*
D03*
D55*
X629921Y253937D02*
D03*
X383858Y350394D02*
D03*
X167323Y248031D02*
D03*
X19685Y318898D02*
D03*
X334646Y59055D02*
D03*
D56*
X492126Y17717D02*
D03*
X113189D02*
D03*
D57*
X571555Y337281D02*
D03*
Y329481D02*
D03*
Y321481D02*
D03*
Y313681D02*
D03*
Y305781D02*
D03*
X571655Y297881D02*
D03*
Y290081D02*
D03*
Y282181D02*
D03*
X510154Y282281D02*
D03*
Y290181D02*
D03*
Y297981D02*
D03*
Y305781D02*
D03*
Y313781D02*
D03*
Y321581D02*
D03*
Y329481D02*
D03*
Y337281D02*
D03*
D58*
X552555Y274081D02*
D03*
X560555D02*
D03*
X544755D02*
D03*
X536755D02*
D03*
X528955D02*
D03*
X521154D02*
D03*
D59*
X513779Y152461D02*
D03*
X519488D02*
D03*
Y146555D02*
D03*
X513779D02*
D03*
Y140650D02*
D03*
X519488D02*
D03*
Y134744D02*
D03*
X513779D02*
D03*
Y128839D02*
D03*
X519488D02*
D03*
Y122933D02*
D03*
X513779D02*
D03*
Y117028D02*
D03*
X519488D02*
D03*
Y111122D02*
D03*
X513779D02*
D03*
D60*
X351969Y81102D02*
X354331Y78740D01*
X111713Y301181D02*
X116732D01*
X107283Y296752D02*
X111713Y301181D01*
X116732D02*
X124114Y308563D01*
X381496Y164370D02*
X384842Y161024D01*
X156496Y248031D02*
X167323D01*
X178150D01*
X379134Y179528D02*
X382283D01*
X349606Y242126D02*
X349606Y242126D01*
X353839D01*
X361221Y72047D02*
X365354D01*
X329724Y78937D02*
X332283Y81496D01*
X329724Y78740D02*
Y78937D01*
X309055Y79134D02*
X311417Y81496D01*
X309055Y78740D02*
Y79134D01*
X285827Y81102D02*
Y81496D01*
X283465Y78740D02*
X285827Y81102D01*
X370866Y171260D02*
X374016D01*
X379134D02*
X382283D01*
X379134Y123031D02*
X381299Y120866D01*
X372047Y121063D02*
X374016Y123031D01*
X379134Y144685D02*
X382087D01*
X489862Y211417D02*
X493504Y207776D01*
X488976Y211417D02*
X489862D01*
X488287D02*
X488976D01*
X484646Y207776D02*
X488287Y211417D01*
X503150Y202756D02*
X507874D01*
X518898D02*
X523622D01*
X518898Y212598D02*
X523622D01*
X503150D02*
X507874D01*
X419291Y336614D02*
X419291D01*
X423228Y340551D01*
X420079Y328740D02*
X420079Y328740D01*
X416535Y328740D02*
X420079D01*
X255512Y309055D02*
X259449Y305118D01*
X255512Y309055D02*
X259449Y312992D01*
X135689Y263248D02*
Y274547D01*
X128740Y281496D02*
X135689Y274547D01*
X128740Y281496D02*
Y287402D01*
X127067Y263248D02*
X135689D01*
X139764Y287402D02*
X143701Y283465D01*
X139764Y287402D02*
X143701Y291339D01*
X124469Y268248D02*
X127067D01*
X122050Y270667D02*
X124469Y268248D01*
X115157Y270667D02*
X122050D01*
X112412Y275810D02*
X117903D01*
X111592Y274989D02*
X112412Y275810D01*
X111592Y274978D02*
Y274989D01*
X108268Y271654D02*
X111592Y274978D01*
X108268Y272539D02*
Y281496D01*
X116595Y263248D02*
X127067D01*
X115157Y261811D02*
X116595Y263248D01*
X117903Y275810D02*
X120464Y273248D01*
X127067D01*
X115157Y270667D02*
Y271654D01*
X108268Y261811D02*
Y271654D01*
Y281496D02*
Y289862D01*
X115157Y281496D02*
X119095D01*
X118110Y290748D02*
X120276Y288583D01*
X127067Y295866D02*
X128445Y297244D01*
X118110Y295866D02*
X127067D01*
X124114Y308563D02*
X126870D01*
X128445Y287697D02*
X128740Y287402D01*
X128445Y297244D02*
X129035D01*
X143307Y317618D02*
X147244Y321555D01*
Y324803D01*
X142126Y318799D02*
X143307Y317618D01*
X126870Y318799D02*
X142126D01*
X146468Y324803D02*
X147244D01*
X94488Y307087D02*
Y311221D01*
X103189Y346988D02*
X107382D01*
X103051Y346850D02*
X103189Y346988D01*
X94488Y316929D02*
X98327D01*
X91743Y321085D02*
X97565D01*
X99851Y318799D01*
X109350D01*
X89468Y318811D02*
X91743Y321085D01*
X89468Y318799D02*
Y318811D01*
X87598Y316929D02*
X89468Y318799D01*
X87598Y307087D02*
Y316929D01*
Y326772D01*
X483465Y264173D02*
X487205Y267913D01*
Y268110D02*
X491339Y263976D01*
X491732Y263779D02*
X496063Y268110D01*
Y267717D02*
X499606Y264173D01*
X473228Y272047D02*
X476673Y268602D01*
X476870D02*
X477559D01*
X476673D02*
X476870D01*
X473228Y264961D02*
X476870Y268602D01*
X473228Y264961D02*
Y264961D01*
X550354Y232937D02*
X550394Y232976D01*
Y240945D01*
X560354Y232937D02*
Y240827D01*
X560236Y240945D02*
X560354Y240827D01*
X570354Y232937D02*
Y240827D01*
X570472Y240945D01*
X530354Y232937D02*
X530709Y233291D01*
Y240945D01*
X571655Y282181D02*
X574118D01*
X577953Y278346D01*
X569000Y282181D02*
X571655D01*
X565748Y285433D02*
X569000Y282181D01*
X503274Y305781D02*
X510154D01*
X503150Y305906D02*
X503274Y305781D01*
X503200Y297981D02*
X510154D01*
X503150Y298031D02*
X503200Y297981D01*
X503150Y290158D02*
X503173Y290181D01*
X510154D01*
X250000Y169291D02*
X254134D01*
X308071Y201969D02*
Y202165D01*
X316339Y203740D02*
X316929D01*
X313386Y206693D02*
X316339Y203740D01*
X326772Y201969D02*
Y205118D01*
X336024Y203740D02*
X336614D01*
X332677Y207087D02*
X336024Y203740D01*
X455315Y348819D02*
Y353346D01*
Y348819D02*
X455709Y348425D01*
X305512Y204724D02*
X308071Y202165D01*
X305118Y196850D02*
X308071D01*
X72342Y204724D02*
X81102D01*
X82677Y206299D01*
X75000Y220374D02*
X80807D01*
X82677Y218504D01*
X127165Y229921D02*
X160236D01*
X82677Y206299D02*
Y208661D01*
X173917Y229924D02*
X174407D01*
X177953Y226378D01*
X194882D01*
X199308Y221951D01*
X203642D01*
X186218Y214173D02*
X186319Y214274D01*
X181496Y214173D02*
X186218D01*
X326772Y196850D02*
X326773Y196850D01*
X327165Y196457D01*
X61417Y200689D02*
X65453Y204724D01*
X61417Y200394D02*
Y200689D01*
Y208760D02*
X65453Y204724D01*
X61417Y208760D02*
Y209055D01*
X42815Y160925D02*
Y165354D01*
Y160925D02*
X43307Y160433D01*
X42815Y176673D02*
Y181102D01*
Y176673D02*
X43307Y176181D01*
X42815Y192421D02*
Y196850D01*
X82677Y208661D02*
Y218504D01*
X105905Y208661D02*
X127165Y229921D01*
X82677Y208661D02*
X105905D01*
X42815Y192421D02*
X43307Y191929D01*
X477559Y242126D02*
X486221D01*
X365963Y144200D02*
X366268Y144505D01*
X366329Y144444D02*
X368317D01*
X368558Y144685D01*
X374016D01*
X366268Y144505D02*
X366329Y144444D01*
X371850Y121063D02*
X372047D01*
X326773Y196850D02*
X329921D01*
X163030Y227127D02*
X171121D01*
X160236Y229921D02*
X163030Y227127D01*
X171121D02*
X173917Y229924D01*
D61*
X655512Y13780D02*
X661417Y7874D01*
X663386Y5906D01*
Y5906D02*
Y5906D01*
X635827Y33465D02*
X641732Y27559D01*
X657480D02*
X663386Y33465D01*
X635827Y5906D02*
X641732Y11811D01*
X635827Y340551D02*
X641732Y346457D01*
X657480Y362205D02*
X663386Y368110D01*
X635827D02*
X641732Y362205D01*
X663386Y340551D02*
Y340551D01*
X661417Y342520D02*
X663386Y340551D01*
X655512Y348425D02*
X661417Y342520D01*
X25591Y348425D02*
X31496Y342520D01*
X33465Y340551D01*
Y340551D02*
Y340551D01*
X5906Y368110D02*
X11811Y362205D01*
X27559D02*
X33465Y368110D01*
X5906Y340551D02*
X11811Y346457D01*
X5906Y5906D02*
X11811Y11811D01*
X27559Y27559D02*
X33465Y33465D01*
X5906D02*
X11811Y27559D01*
X33465Y5906D02*
Y5906D01*
X31496Y7874D02*
X33465Y5906D01*
X25591Y13780D02*
X31496Y7874D01*
D62*
X250000Y278543D02*
Y286024D01*
X115157Y260827D02*
Y261811D01*
X104587Y341988D02*
X107382D01*
X97736Y335138D02*
X104587Y341988D01*
X97736Y331004D02*
Y335138D01*
X94488Y327702D02*
Y327756D01*
Y326772D02*
Y327702D01*
Y327756D02*
X97736Y331004D01*
X108976Y351988D02*
X109134D01*
X107382D02*
X108976D01*
X109134D02*
X113308Y347814D01*
Y320350D02*
Y347814D01*
X108976Y351988D02*
X110236Y353248D01*
Y360236D01*
X109350Y318799D02*
X111757D01*
X113308Y320350D01*
X381890Y350394D02*
X383858D01*
X374016Y358268D02*
X381890Y350394D01*
X383858D02*
X385827D01*
X393701Y358268D01*
X629921Y253937D02*
X640748D01*
D63*
X145669Y356102D02*
Y361910D01*
X273540Y342438D02*
X273622Y342520D01*
X145669Y356102D02*
X150787Y361221D01*
X140453Y361319D02*
X145669Y356102D01*
X66142Y259842D02*
X70965D01*
X66142Y273622D02*
X70965D01*
X66142Y287402D02*
X70965D01*
X84235Y331578D02*
X90613D01*
X80512Y327854D02*
X84235Y331578D01*
X55118Y259842D02*
Y273622D01*
Y287402D01*
X90613Y331578D02*
X94488Y327702D01*
X55118Y287402D02*
Y287402D01*
X70866Y303150D01*
X80512Y312795D02*
Y327854D01*
X70866Y303150D02*
X80512Y312795D01*
D64*
X228740Y128347D02*
X229528D01*
X367322Y151574D02*
Y151968D01*
X357579Y152559D02*
X362459D01*
X362692Y152792D01*
X366498D01*
X509842Y122835D02*
X513681D01*
X513779Y122933D01*
X509842Y116929D02*
X513681D01*
X513779Y111122D02*
X513878Y111024D01*
X509842D02*
X513878D01*
X366498Y152792D02*
X367322Y151968D01*
D65*
X107076Y323721D02*
X109350Y321446D01*
D66*
X97539Y323721D02*
X107076D01*
X94488Y326772D02*
X97539Y323721D01*
X499210Y282281D02*
X510154D01*
X496063Y279134D02*
X499210Y282281D01*
X487205Y279134D02*
X496063D01*
X477854D02*
X487205D01*
X477559Y279429D02*
X477854Y279134D01*
X496063D02*
X514961Y260236D01*
Y242126D02*
Y260236D01*
Y242126D02*
X520354Y236732D01*
Y232937D02*
Y236732D01*
Y236890D01*
X527559Y244094D01*
X533465D01*
X540354Y237205D01*
Y232937D02*
Y237205D01*
D67*
X70866Y318898D02*
Y327362D01*
X68898Y329331D02*
X70866Y327362D01*
X68898Y329331D02*
Y342520D01*
X55512Y303543D02*
X70866Y318898D01*
X55512Y303150D02*
Y303543D01*
D68*
X273622Y71860D02*
D03*
Y79734D02*
D03*
X643110Y69577D02*
D03*
X68898Y204715D02*
D03*
X90945Y298435D02*
D03*
X357283Y210620D02*
D03*
Y218494D02*
D03*
X236122Y181801D02*
D03*
Y172943D02*
D03*
X257874Y177155D02*
D03*
X357283Y226368D02*
D03*
Y234242D02*
D03*
X512795Y179144D02*
D03*
Y187018D02*
D03*
Y171270D02*
D03*
D69*
X557963Y58858D02*
D03*
X548120D02*
D03*
X538277D02*
D03*
D70*
X516634Y152559D02*
D03*
Y146653D02*
D03*
Y140748D02*
D03*
Y134843D02*
D03*
Y128937D02*
D03*
Y123031D02*
D03*
Y117126D02*
D03*
Y111221D02*
D03*
D71*
X393228Y364173D02*
D03*
X403228D02*
D03*
X413228D02*
D03*
X278543Y285276D02*
D03*
Y310866D02*
D03*
X60866Y318898D02*
D03*
X656496Y254803D02*
D03*
Y264803D02*
D03*
Y274803D02*
D03*
Y284803D02*
D03*
Y294803D02*
D03*
Y304803D02*
D03*
Y314803D02*
D03*
D72*
X423228Y364173D02*
D03*
X70866Y318898D02*
D03*
D73*
X19685Y275748D02*
D03*
X547244Y204724D02*
D03*
D74*
X19685Y265748D02*
D03*
Y255748D02*
D03*
X447653Y276394D02*
D03*
X455527Y268519D02*
D03*
X237008Y13780D02*
D03*
X227008D02*
D03*
X217008D02*
D03*
X207008D02*
D03*
X197008D02*
D03*
X325590D02*
D03*
X315591D02*
D03*
X305591D02*
D03*
X295590D02*
D03*
X285591D02*
D03*
X557244Y114724D02*
D03*
Y124724D02*
D03*
X547244Y114724D02*
D03*
Y124724D02*
D03*
X557244Y134724D02*
D03*
Y144724D02*
D03*
X547244Y134724D02*
D03*
Y144724D02*
D03*
Y194724D02*
D03*
Y184724D02*
D03*
Y174724D02*
D03*
Y164724D02*
D03*
Y154724D02*
D03*
X557244Y204724D02*
D03*
Y194724D02*
D03*
Y184724D02*
D03*
Y174724D02*
D03*
Y164724D02*
D03*
Y154724D02*
D03*
D75*
X454724Y283465D02*
D03*
X462598Y275590D02*
D03*
D76*
X278543Y295276D02*
D03*
Y320866D02*
D03*
X656496Y324803D02*
D03*
D77*
X649606Y19685D02*
D03*
Y354331D02*
D03*
X19685D02*
D03*
Y19685D02*
D03*
D78*
X273622Y342520D02*
D03*
X68898D02*
D03*
D79*
X259842D02*
D03*
X246063D02*
D03*
X55118D02*
D03*
D80*
X187008Y13780D02*
D03*
X275590D02*
D03*
D81*
X637795Y204724D02*
D03*
X578740Y114724D02*
D03*
D82*
X351574Y75590D02*
D03*
X351969Y81102D02*
D03*
X194095Y85433D02*
D03*
X369094Y293307D02*
D03*
X98425Y244094D02*
D03*
X95275Y248425D02*
D03*
X88583Y250984D02*
D03*
X92913Y250394D02*
D03*
X84646Y234252D02*
D03*
X76772Y250000D02*
D03*
X66142Y247244D02*
D03*
X70472Y247638D02*
D03*
X78740Y277559D02*
D03*
X92913Y269685D02*
D03*
X83464Y269685D02*
D03*
X98819Y313385D02*
D03*
Y310236D02*
D03*
Y307086D02*
D03*
X83465Y298425D02*
D03*
X525591Y86614D02*
D03*
X395276Y136614D02*
D03*
X384842Y161024D02*
D03*
X585039Y326378D02*
D03*
X582677Y314961D02*
D03*
X156496Y248031D02*
D03*
X178150D02*
D03*
X221457Y245079D02*
D03*
X225394Y242126D02*
D03*
X229331Y239173D02*
D03*
X413386Y130905D02*
D03*
X108366Y156791D02*
D03*
X601968Y77953D02*
D03*
X625591Y70472D02*
D03*
X294488Y100394D02*
D03*
X298031D02*
D03*
X352362Y108661D02*
D03*
X379921Y94488D02*
D03*
X377953Y97244D02*
D03*
X351969Y97244D02*
D03*
X355511Y97244D02*
D03*
X347128Y81379D02*
D03*
X291339Y88583D02*
D03*
X130315Y305905D02*
D03*
X382283Y179528D02*
D03*
X370866D02*
D03*
X334646Y66929D02*
D03*
X349606Y242126D02*
D03*
X303150Y208661D02*
D03*
X320472Y175196D02*
D03*
X343307Y175197D02*
D03*
X362205Y173228D02*
D03*
X363878Y170206D02*
D03*
X307283Y87795D02*
D03*
X337697Y113646D02*
D03*
X337598Y108465D02*
D03*
X348327Y118012D02*
D03*
X352461Y126969D02*
D03*
X287007Y88582D02*
D03*
X281496Y88583D02*
D03*
X365354Y72047D02*
D03*
X332283Y81496D02*
D03*
Y75984D02*
D03*
X311417Y75590D02*
D03*
Y81496D02*
D03*
X285827D02*
D03*
X285826Y75196D02*
D03*
X279921Y75984D02*
D03*
X342520Y159449D02*
D03*
Y163386D02*
D03*
X333661Y185630D02*
D03*
X317716Y172834D02*
D03*
X318898Y169685D02*
D03*
X320866Y167323D02*
D03*
X370866Y171260D02*
D03*
X382283D02*
D03*
X381299Y120866D02*
D03*
X382087Y144685D02*
D03*
X488976Y211417D02*
D03*
X503150Y202756D02*
D03*
X523622D02*
D03*
Y212598D02*
D03*
X503150D02*
D03*
X383858Y260630D02*
D03*
Y265748D02*
D03*
Y270472D02*
D03*
Y275590D02*
D03*
X399213D02*
D03*
Y270472D02*
D03*
Y265748D02*
D03*
Y260630D02*
D03*
X399606Y328346D02*
D03*
Y331496D02*
D03*
Y334646D02*
D03*
Y337795D02*
D03*
X423228Y340551D02*
D03*
X420079Y328740D02*
D03*
X259449Y305118D02*
D03*
Y312992D02*
D03*
X143701Y283465D02*
D03*
X143701Y291339D02*
D03*
X145669Y361910D02*
D03*
X165748Y121358D02*
D03*
X228740Y128347D02*
D03*
X138779Y60236D02*
D03*
X137894Y79331D02*
D03*
X117815Y102756D02*
D03*
X112795Y112598D02*
D03*
X250000Y286024D02*
D03*
X259055Y279626D02*
D03*
X119095Y281496D02*
D03*
X120276Y288583D02*
D03*
X150787Y361221D02*
D03*
X140453Y361319D02*
D03*
X94488Y311221D02*
D03*
X103051Y346850D02*
D03*
X98327Y316929D02*
D03*
X70965Y259842D02*
D03*
X70965Y273622D02*
D03*
Y287402D02*
D03*
X30610Y318898D02*
D03*
X86024Y101575D02*
D03*
X105217Y147736D02*
D03*
X194291Y114173D02*
D03*
X217815Y186122D02*
D03*
Y168504D02*
D03*
X294291Y134646D02*
D03*
X290551Y135236D02*
D03*
X287008Y135630D02*
D03*
X283268Y136122D02*
D03*
X381398Y132972D02*
D03*
X348228Y120965D02*
D03*
X352478Y129842D02*
D03*
X339583Y110746D02*
D03*
X339602Y115847D02*
D03*
X158760Y155217D02*
D03*
X139862Y156791D02*
D03*
X120965D02*
D03*
X146161Y156791D02*
D03*
X149311Y156693D02*
D03*
X155610Y156693D02*
D03*
X133661Y155315D02*
D03*
X117815Y155413D02*
D03*
X124213Y155512D02*
D03*
X142913Y155413D02*
D03*
X124114Y102461D02*
D03*
X130413Y101181D02*
D03*
X133563Y102756D02*
D03*
X127264Y101279D02*
D03*
X136713D02*
D03*
X139862D02*
D03*
X143012Y102559D02*
D03*
X152461D02*
D03*
X149409Y101279D02*
D03*
X146161D02*
D03*
X120965D02*
D03*
X250787Y127559D02*
D03*
X255906D02*
D03*
X101772Y115453D02*
D03*
X646654Y74410D02*
D03*
X599803Y69193D02*
D03*
X608366Y66732D02*
D03*
X630315Y62992D02*
D03*
X349410Y88878D02*
D03*
X330626Y88796D02*
D03*
X327756Y88878D02*
D03*
X266043Y123031D02*
D03*
X328658Y186833D02*
D03*
X325787Y186811D02*
D03*
X76870Y156004D02*
D03*
Y101870D02*
D03*
X98819Y155905D02*
D03*
X95866Y157677D02*
D03*
X266142Y116142D02*
D03*
X266141Y112991D02*
D03*
X259651Y106501D02*
D03*
X248223Y103937D02*
D03*
X166240Y211617D02*
D03*
X166339Y224510D02*
D03*
X265650Y142421D02*
D03*
X266929Y139665D02*
D03*
X243799Y128347D02*
D03*
X127264Y147638D02*
D03*
X130315Y145079D02*
D03*
X136614Y142913D02*
D03*
X118307Y142126D02*
D03*
X394882Y308465D02*
D03*
X394783Y301870D02*
D03*
X394488Y293996D02*
D03*
X422835Y318898D02*
D03*
X92618Y155807D02*
D03*
X295177Y48425D02*
D03*
X309941Y51870D02*
D03*
X138878Y71850D02*
D03*
X102362Y101083D02*
D03*
X309867Y89985D02*
D03*
X266634Y188976D02*
D03*
X263878Y204528D02*
D03*
X263779Y185039D02*
D03*
X252165D02*
D03*
X152461Y155315D02*
D03*
X153543Y168012D02*
D03*
X161614Y165354D02*
D03*
X142323Y168110D02*
D03*
X137205Y168110D02*
D03*
X129035Y165354D02*
D03*
X120866Y168012D02*
D03*
X82677Y167717D02*
D03*
X91240Y165354D02*
D03*
X79724Y90551D02*
D03*
X89468Y94587D02*
D03*
X129921Y90551D02*
D03*
X158661Y102559D02*
D03*
X155610Y101181D02*
D03*
X92618Y101378D02*
D03*
X95768Y99213D02*
D03*
X268701Y325787D02*
D03*
X275590Y328937D02*
D03*
X279528D02*
D03*
X269685Y303346D02*
D03*
X274606D02*
D03*
X279528D02*
D03*
X424213Y308858D02*
D03*
X412992Y300394D02*
D03*
X407087Y321260D02*
D03*
X304724Y267323D02*
D03*
X311024Y267520D02*
D03*
X419291Y268110D02*
D03*
X419291Y275984D02*
D03*
X417717Y263386D02*
D03*
X601575Y292913D02*
D03*
Y283858D02*
D03*
X481496Y335433D02*
D03*
X482677Y319291D02*
D03*
X466929Y318898D02*
D03*
X483465Y264173D02*
D03*
X491339Y263779D02*
D03*
X499606Y264173D02*
D03*
X473228Y272047D02*
D03*
Y264961D02*
D03*
X497244Y291339D02*
D03*
X530315Y261811D02*
D03*
X588189Y284646D02*
D03*
X587795Y293307D02*
D03*
X520354Y261929D02*
D03*
X540158Y261811D02*
D03*
X577559Y286614D02*
D03*
X550394Y240945D02*
D03*
X560236D02*
D03*
X570472D02*
D03*
X530709D02*
D03*
X577953Y278346D02*
D03*
X565748Y285433D02*
D03*
X503150Y305906D02*
D03*
Y298031D02*
D03*
Y290158D02*
D03*
X553150Y265748D02*
D03*
X547244D02*
D03*
X541339D02*
D03*
X250000Y169291D02*
D03*
X313386Y206693D02*
D03*
X326772Y205118D02*
D03*
X332677Y207087D02*
D03*
X316929Y51181D02*
D03*
X320177Y51575D02*
D03*
X313484Y51181D02*
D03*
X455709Y348425D02*
D03*
X161417Y92224D02*
D03*
X403622Y242244D02*
D03*
X403780Y232244D02*
D03*
X403543Y222244D02*
D03*
X403858Y202244D02*
D03*
Y192244D02*
D03*
X382677Y222244D02*
D03*
X294685Y203740D02*
D03*
X282185Y185630D02*
D03*
X305512Y204724D02*
D03*
X305118Y196850D02*
D03*
X350000Y217323D02*
D03*
X351969Y205906D02*
D03*
X423228Y242126D02*
D03*
X425984Y226378D02*
D03*
X460630D02*
D03*
X434646Y223228D02*
D03*
X277558Y181102D02*
D03*
X278642Y184646D02*
D03*
X273622Y183858D02*
D03*
X88976Y204724D02*
D03*
X87795Y212598D02*
D03*
X66929Y228346D02*
D03*
X284252Y87008D02*
D03*
X639370Y56299D02*
D03*
Y81890D02*
D03*
X615748Y46457D02*
D03*
X276378Y245276D02*
D03*
X96850Y220472D02*
D03*
X96457Y215354D02*
D03*
X100000Y217815D02*
D03*
X291339Y185827D02*
D03*
Y73228D02*
D03*
X293700Y71259D02*
D03*
X248031Y96850D02*
D03*
X403780Y212244D02*
D03*
X181496Y214173D02*
D03*
X306791Y187402D02*
D03*
X301969Y186221D02*
D03*
X320866Y196457D02*
D03*
X61417Y209055D02*
D03*
Y200394D02*
D03*
X43307Y160433D02*
D03*
Y176181D02*
D03*
Y191929D02*
D03*
X39370Y190945D02*
D03*
X35433Y191929D02*
D03*
X36417Y171260D02*
D03*
X309055Y189961D02*
D03*
X314961Y220472D02*
D03*
X240158Y278543D02*
D03*
X309055Y228935D02*
D03*
X312008Y225394D02*
D03*
X477559Y242126D02*
D03*
X289763Y29528D02*
D03*
X344488Y23622D02*
D03*
X358268Y15748D02*
D03*
X330709Y43307D02*
D03*
X616142Y31496D02*
D03*
Y19685D02*
D03*
X533071Y29528D02*
D03*
X543307D02*
D03*
X553150D02*
D03*
X562992D02*
D03*
X583071D02*
D03*
X592913D02*
D03*
X572835D02*
D03*
X603150D02*
D03*
X367322Y151574D02*
D03*
X365963Y144200D02*
D03*
X363305Y146169D02*
D03*
X363600Y150598D02*
D03*
X367323Y146844D02*
D03*
X320374Y118799D02*
D03*
X327067Y116043D02*
D03*
X308366Y123425D02*
D03*
X314665Y120768D02*
D03*
X364665Y133858D02*
D03*
X418602Y52461D02*
D03*
X406791Y52362D02*
D03*
X371850Y121063D02*
D03*
X352165Y117717D02*
D03*
X383563Y52165D02*
D03*
X363878Y125000D02*
D03*
X366535Y123327D02*
D03*
X363484Y118209D02*
D03*
X367126D02*
D03*
X368602Y106496D02*
D03*
X371555Y109055D02*
D03*
X373721Y111516D02*
D03*
X345275Y216141D02*
D03*
X283465Y196850D02*
D03*
X329921Y196850D02*
D03*
X332677Y199803D02*
D03*
X290551Y172835D02*
D03*
X288189Y175591D02*
D03*
X446063Y195669D02*
D03*
X446850Y207874D02*
D03*
X341339Y224803D02*
D03*
X260236Y75984D02*
D03*
X251692Y36338D02*
D03*
X262992Y77953D02*
D03*
X261417Y71653D02*
D03*
X279134Y85433D02*
D03*
X254724Y70472D02*
D03*
X249213Y33071D02*
D03*
X387795Y24409D02*
D03*
X399606D02*
D03*
X411417D02*
D03*
X423228D02*
D03*
X615748Y91732D02*
D03*
X395177Y52461D02*
D03*
X534252Y65748D02*
D03*
X544095D02*
D03*
X553937D02*
D03*
X572835Y23228D02*
D03*
X582992Y23150D02*
D03*
X592992D02*
D03*
X602992Y22992D02*
D03*
X113189Y28543D02*
D03*
X492618Y299508D02*
D03*
X486221Y299213D02*
D03*
X165748Y229527D02*
D03*
X280315Y155118D02*
D03*
X278346Y157874D02*
D03*
X324803Y27559D02*
D03*
X35827Y176772D02*
D03*
X328740Y27559D02*
D03*
X332677D02*
D03*
X26378Y157480D02*
D03*
X509842Y140551D02*
D03*
Y134646D02*
D03*
Y128740D02*
D03*
Y122835D02*
D03*
Y116929D02*
D03*
Y111024D02*
D03*
X505512Y163386D02*
D03*
X472441Y168898D02*
D03*
X424409Y154331D02*
D03*
X509842Y146457D02*
D03*
Y152362D02*
D03*
X492126Y28543D02*
D03*
X133858Y312992D02*
D03*
X135827Y309055D02*
D03*
X133858Y303150D02*
D03*
X240158Y301181D02*
D03*
X236221Y305118D02*
D03*
Y297244D02*
D03*
X133858Y291929D02*
D03*
X374016Y358268D02*
D03*
X393701D02*
D03*
X640748Y253937D02*
D03*
X424016Y163779D02*
D03*
X415354Y159055D02*
D03*
D83*
X389764Y322835D02*
D03*
Y318898D02*
D03*
X393701Y322835D02*
D03*
Y318898D02*
D03*
X115945Y319291D02*
D03*
X120276D02*
D03*
X115945Y314961D02*
D03*
X120276D02*
D03*
X115945Y310630D02*
D03*
X120276D02*
D03*
D84*
X635827Y33465D02*
D03*
X663386D02*
D03*
Y5906D02*
D03*
X635827D02*
D03*
Y340551D02*
D03*
X663386D02*
D03*
Y368110D02*
D03*
X635827D02*
D03*
X5906D02*
D03*
X33465D02*
D03*
Y340551D02*
D03*
X5906D02*
D03*
Y5906D02*
D03*
X33465D02*
D03*
Y33465D02*
D03*
X5906D02*
D03*
M02*
