G04 Layer_Color=16711935*
%FSLAX25Y25*%
%MOIN*%
G70*
G01*
G75*
%ADD115R,0.04931X0.02372*%
%ADD116R,0.04931X0.03356*%
%ADD144C,0.06506*%
%ADD145R,0.06506X0.06506*%
%ADD146R,0.07200X0.07200*%
%ADD147C,0.07200*%
%ADD148P,0.10182X4X360.0*%
%ADD149R,0.06506X0.06506*%
%ADD150C,0.26191*%
%ADD151R,0.08080X0.08080*%
%ADD152C,0.08080*%
%ADD153R,0.07200X0.07200*%
%ADD154C,0.22253*%
%ADD155C,0.00724*%
%ADD156R,0.04340X0.03159*%
D115*
X239567Y88189D02*
D03*
Y85039D02*
D03*
X232874Y88189D02*
D03*
Y85039D02*
D03*
X232874Y104724D02*
D03*
Y107874D02*
D03*
X239567Y104724D02*
D03*
Y107874D02*
D03*
X239567Y159055D02*
D03*
Y155905D02*
D03*
X232874Y159055D02*
D03*
Y155905D02*
D03*
X239567Y178740D02*
D03*
Y175591D02*
D03*
X232874Y178740D02*
D03*
Y175591D02*
D03*
D116*
X239567Y91713D02*
D03*
Y81516D02*
D03*
X232874Y91713D02*
D03*
Y81516D02*
D03*
X232874Y101201D02*
D03*
Y111398D02*
D03*
X239567Y101201D02*
D03*
Y111398D02*
D03*
X239567Y162579D02*
D03*
Y152382D02*
D03*
X232874Y162579D02*
D03*
Y152382D02*
D03*
X239567Y182264D02*
D03*
Y172067D02*
D03*
X232874Y182264D02*
D03*
Y172067D02*
D03*
D144*
X393228Y364173D02*
D03*
X403228D02*
D03*
X413228D02*
D03*
X278543Y285276D02*
D03*
Y310866D02*
D03*
X60866Y318898D02*
D03*
X656496Y254803D02*
D03*
Y264803D02*
D03*
Y274803D02*
D03*
Y284803D02*
D03*
Y294803D02*
D03*
Y304803D02*
D03*
Y314803D02*
D03*
D145*
X423228Y364173D02*
D03*
X70866Y318898D02*
D03*
D146*
X19685Y275748D02*
D03*
X547244Y204724D02*
D03*
D147*
X19685Y265748D02*
D03*
Y255748D02*
D03*
X447653Y276394D02*
D03*
X455527Y268519D02*
D03*
X237008Y13780D02*
D03*
X227008D02*
D03*
X217008D02*
D03*
X207008D02*
D03*
X197008D02*
D03*
X325590D02*
D03*
X315591D02*
D03*
X305591D02*
D03*
X295590D02*
D03*
X285591D02*
D03*
X557244Y114724D02*
D03*
Y124724D02*
D03*
X547244Y114724D02*
D03*
Y124724D02*
D03*
X557244Y134724D02*
D03*
Y144724D02*
D03*
X547244Y134724D02*
D03*
Y144724D02*
D03*
Y194724D02*
D03*
Y184724D02*
D03*
Y174724D02*
D03*
Y164724D02*
D03*
Y154724D02*
D03*
X557244Y204724D02*
D03*
Y194724D02*
D03*
Y184724D02*
D03*
Y174724D02*
D03*
Y164724D02*
D03*
Y154724D02*
D03*
D148*
X454724Y283465D02*
D03*
X462598Y275590D02*
D03*
D149*
X278543Y295276D02*
D03*
Y320866D02*
D03*
X656496Y324803D02*
D03*
D150*
X649606Y19685D02*
D03*
Y354331D02*
D03*
X19685D02*
D03*
Y19685D02*
D03*
D151*
X273622Y342520D02*
D03*
X68898D02*
D03*
D152*
X259842D02*
D03*
X246063D02*
D03*
X55118D02*
D03*
D153*
X187008Y13780D02*
D03*
X275590D02*
D03*
D154*
X637795Y204724D02*
D03*
X578740Y114724D02*
D03*
D155*
X635827Y33465D02*
D03*
X663386D02*
D03*
Y5906D02*
D03*
X635827D02*
D03*
Y340551D02*
D03*
X663386D02*
D03*
Y368110D02*
D03*
X635827D02*
D03*
X5906D02*
D03*
X33465D02*
D03*
Y340551D02*
D03*
X5906D02*
D03*
Y5906D02*
D03*
X33465D02*
D03*
Y33465D02*
D03*
X5906D02*
D03*
D156*
X108563Y266732D02*
D03*
X117815Y263189D02*
D03*
Y270276D02*
D03*
M02*
