G04 Layer_Color=8421504*
%FSLAX25Y25*%
%MOIN*%
G70*
G01*
G75*
%ADD10R,0.05512X0.04331*%
%ADD11R,0.04331X0.05512*%
%ADD12R,0.04331X0.02756*%
%ADD13R,0.04331X0.01772*%
%ADD14O,0.01693X0.05315*%
%ADD15R,0.11614X0.06929*%
%ADD16R,0.02362X0.03150*%
%ADD17R,0.03150X0.02362*%
%ADD18R,0.07087X0.08465*%
%ADD19R,0.08465X0.07087*%
%ADD20O,0.06496X0.01161*%
%ADD21O,0.01161X0.06496*%
%ADD22R,0.07402X0.06614*%
%ADD23O,0.01142X0.05315*%
%ADD24O,0.02165X0.04724*%
%ADD25R,0.05512X0.01693*%
%ADD26R,0.01693X0.05512*%
%ADD27R,0.05000X0.12000*%
%ADD28R,0.02756X0.04331*%
%ADD29R,0.01772X0.04331*%
%ADD30R,0.07050X0.29500*%
%ADD31R,0.22400X0.06300*%
%ADD32R,0.12992X0.04685*%
%ADD33R,0.07087X0.13386*%
%ADD34R,0.13386X0.07087*%
%ADD35R,0.18504X0.13386*%
%ADD36R,0.13386X0.18504*%
%ADD37R,0.06890X0.04921*%
%ADD38R,0.04921X0.06890*%
%ADD39R,0.02362X0.02165*%
%ADD40R,0.03150X0.03150*%
%ADD41R,0.03150X0.03150*%
%ADD42R,0.05906X0.09449*%
%ADD43R,0.05512X0.05906*%
%ADD44R,0.05906X0.05512*%
%ADD45R,0.04724X0.04724*%
%ADD46R,0.04724X0.04724*%
%ADD47R,0.03543X0.02559*%
%ADD48R,0.02559X0.03543*%
%ADD49C,0.03937*%
%ADD50R,0.10000X0.04500*%
%ADD51R,0.05500X0.10000*%
%ADD52R,0.09055X0.05906*%
%ADD53R,0.05906X0.09055*%
%ADD54R,0.05118X0.07480*%
%ADD55O,0.05118X0.07480*%
%ADD56R,0.03543X0.00984*%
G04:AMPARAMS|DCode=57|XSize=93.7mil|YSize=64.96mil|CornerRadius=16.24mil|HoleSize=0mil|Usage=FLASHONLY|Rotation=270.000|XOffset=0mil|YOffset=0mil|HoleType=Round|Shape=RoundedRectangle|*
%AMROUNDEDRECTD57*
21,1,0.09370,0.03248,0,0,270.0*
21,1,0.06122,0.06496,0,0,270.0*
1,1,0.03248,-0.01624,-0.03061*
1,1,0.03248,-0.01624,0.03061*
1,1,0.03248,0.01624,0.03061*
1,1,0.03248,0.01624,-0.03061*
%
%ADD57ROUNDEDRECTD57*%
%ADD58R,0.07874X0.21654*%
D10*
X278543Y190453D02*
D03*
Y197343D02*
D03*
X62205Y31102D02*
D03*
Y24213D02*
D03*
X72146Y31201D02*
D03*
Y24311D02*
D03*
X270669Y190453D02*
D03*
Y197343D02*
D03*
X313779Y172343D02*
D03*
Y165453D02*
D03*
X82677Y187500D02*
D03*
Y194390D02*
D03*
X90551Y187500D02*
D03*
Y194390D02*
D03*
X114173D02*
D03*
Y187500D02*
D03*
X98425D02*
D03*
Y194390D02*
D03*
X106299Y187500D02*
D03*
Y194390D02*
D03*
X352362Y47343D02*
D03*
Y54232D02*
D03*
X269291Y264469D02*
D03*
Y257579D02*
D03*
X276772Y264469D02*
D03*
Y257579D02*
D03*
X284252Y264469D02*
D03*
Y257579D02*
D03*
X281890Y172343D02*
D03*
Y165453D02*
D03*
D11*
X297244Y224508D02*
D03*
X304134D02*
D03*
X360138Y119291D02*
D03*
X353248D02*
D03*
X470965Y53307D02*
D03*
X464075D02*
D03*
X470965Y45827D02*
D03*
X464075D02*
D03*
X353248Y127559D02*
D03*
X360138D02*
D03*
X252953Y38091D02*
D03*
X259842D02*
D03*
X214469Y67028D02*
D03*
X221358D02*
D03*
X31594Y140157D02*
D03*
X38484D02*
D03*
X31594Y125591D02*
D03*
X38484D02*
D03*
X31594Y110630D02*
D03*
X38484D02*
D03*
X269587Y221654D02*
D03*
X262697D02*
D03*
X360138Y105905D02*
D03*
X353248D02*
D03*
X381594Y230804D02*
D03*
X388484D02*
D03*
X381594Y223420D02*
D03*
X388484D02*
D03*
X476870Y200383D02*
D03*
X483760D02*
D03*
X476870Y192913D02*
D03*
X483760D02*
D03*
X476870Y222537D02*
D03*
X483760D02*
D03*
X476870Y215152D02*
D03*
X483760D02*
D03*
X381594Y216036D02*
D03*
X388484D02*
D03*
X476870Y185529D02*
D03*
X483760D02*
D03*
Y229921D02*
D03*
X476870D02*
D03*
X381594Y208651D02*
D03*
X388484D02*
D03*
X483760Y237402D02*
D03*
X476870D02*
D03*
D12*
X478937Y71595D02*
D03*
Y61398D02*
D03*
X485630Y71595D02*
D03*
Y61398D02*
D03*
X478937Y89311D02*
D03*
Y79114D02*
D03*
X485630Y89311D02*
D03*
Y79114D02*
D03*
X478937Y107027D02*
D03*
Y96831D02*
D03*
X485630Y107027D02*
D03*
Y96831D02*
D03*
X248622Y174390D02*
D03*
Y164193D02*
D03*
X255315Y174390D02*
D03*
Y164193D02*
D03*
X213189Y125177D02*
D03*
Y114980D02*
D03*
X219882Y125177D02*
D03*
Y114980D02*
D03*
X213189Y105492D02*
D03*
Y95295D02*
D03*
X219882Y105492D02*
D03*
Y95295D02*
D03*
D13*
X478937Y68071D02*
D03*
Y64921D02*
D03*
X485630Y68071D02*
D03*
Y64921D02*
D03*
X478937Y85787D02*
D03*
Y82638D02*
D03*
X485630Y85787D02*
D03*
Y82638D02*
D03*
X478937Y103504D02*
D03*
Y100354D02*
D03*
X485630Y103504D02*
D03*
Y100354D02*
D03*
X248622Y170866D02*
D03*
Y167717D02*
D03*
X255315Y170866D02*
D03*
Y167717D02*
D03*
X213189Y121653D02*
D03*
Y118504D02*
D03*
X219882Y121653D02*
D03*
Y118504D02*
D03*
X213189Y101969D02*
D03*
Y98819D02*
D03*
X219882Y101969D02*
D03*
Y98819D02*
D03*
D14*
X101870Y204626D02*
D03*
X104429D02*
D03*
X106988D02*
D03*
X109547D02*
D03*
X112106D02*
D03*
X114665D02*
D03*
X101870Y222146D02*
D03*
X104429D02*
D03*
X106988D02*
D03*
X109547D02*
D03*
X112106D02*
D03*
X114665D02*
D03*
D15*
X108268Y213386D02*
D03*
D16*
X77756Y215551D02*
D03*
X74016Y225394D02*
D03*
X81496D02*
D03*
D17*
X348228Y240158D02*
D03*
X358071Y243898D02*
D03*
Y236417D02*
D03*
X348228Y225984D02*
D03*
X358071Y229724D02*
D03*
Y222244D02*
D03*
D18*
X77756Y234151D02*
D03*
Y249505D02*
D03*
D19*
X65748Y260827D02*
D03*
X50394D02*
D03*
D20*
X252658Y142717D02*
D03*
Y140748D02*
D03*
Y138779D02*
D03*
Y136811D02*
D03*
Y134843D02*
D03*
Y132874D02*
D03*
Y130905D02*
D03*
Y128937D02*
D03*
Y126969D02*
D03*
Y125000D02*
D03*
Y123031D02*
D03*
Y121063D02*
D03*
Y119095D02*
D03*
Y117126D02*
D03*
Y115157D02*
D03*
Y113189D02*
D03*
Y111221D02*
D03*
Y109252D02*
D03*
Y107283D02*
D03*
Y105315D02*
D03*
Y103347D02*
D03*
Y101378D02*
D03*
Y99410D02*
D03*
Y97441D02*
D03*
Y95472D02*
D03*
Y93504D02*
D03*
Y91535D02*
D03*
Y89567D02*
D03*
Y87598D02*
D03*
Y85630D02*
D03*
Y83661D02*
D03*
Y81693D02*
D03*
Y79724D02*
D03*
Y77756D02*
D03*
Y75787D02*
D03*
Y73819D02*
D03*
X337894D02*
D03*
Y75787D02*
D03*
Y77756D02*
D03*
Y79724D02*
D03*
Y81693D02*
D03*
Y83661D02*
D03*
Y85630D02*
D03*
Y87598D02*
D03*
Y89567D02*
D03*
Y91535D02*
D03*
Y93504D02*
D03*
Y95472D02*
D03*
Y97441D02*
D03*
Y99410D02*
D03*
Y101378D02*
D03*
Y103347D02*
D03*
Y105315D02*
D03*
Y107283D02*
D03*
Y109252D02*
D03*
Y111221D02*
D03*
Y113189D02*
D03*
Y115157D02*
D03*
Y117126D02*
D03*
Y119095D02*
D03*
Y121063D02*
D03*
Y123031D02*
D03*
Y125000D02*
D03*
Y126969D02*
D03*
Y128937D02*
D03*
Y130905D02*
D03*
Y132874D02*
D03*
Y134843D02*
D03*
Y136811D02*
D03*
Y138779D02*
D03*
Y140748D02*
D03*
Y142717D02*
D03*
D21*
X260827Y65650D02*
D03*
X262795D02*
D03*
X264764D02*
D03*
X266732D02*
D03*
X268701D02*
D03*
X270669D02*
D03*
X272638D02*
D03*
X274606D02*
D03*
X276575D02*
D03*
X278543D02*
D03*
X280512D02*
D03*
X282480D02*
D03*
X284449D02*
D03*
X286417D02*
D03*
X288386D02*
D03*
X290354D02*
D03*
X292323D02*
D03*
X294291D02*
D03*
X296260D02*
D03*
X298228D02*
D03*
X300197D02*
D03*
X302165D02*
D03*
X304134D02*
D03*
X306102D02*
D03*
X308071D02*
D03*
X310039D02*
D03*
X312008D02*
D03*
X313976D02*
D03*
X315945D02*
D03*
X317913D02*
D03*
X319882D02*
D03*
X321850D02*
D03*
X323819D02*
D03*
X325787D02*
D03*
X327756D02*
D03*
X329724D02*
D03*
Y150886D02*
D03*
X327756D02*
D03*
X325787D02*
D03*
X323819D02*
D03*
X321850D02*
D03*
X319882D02*
D03*
X317913D02*
D03*
X315945D02*
D03*
X313976D02*
D03*
X312008D02*
D03*
X310039D02*
D03*
X308071D02*
D03*
X306102D02*
D03*
X304134D02*
D03*
X302165D02*
D03*
X300197D02*
D03*
X298228D02*
D03*
X296260D02*
D03*
X294291D02*
D03*
X292323D02*
D03*
X290354D02*
D03*
X288386D02*
D03*
X286417D02*
D03*
X284449D02*
D03*
X282480D02*
D03*
X280512D02*
D03*
X278543D02*
D03*
X276575D02*
D03*
X274606D02*
D03*
X272638D02*
D03*
X270669D02*
D03*
X268701D02*
D03*
X266732D02*
D03*
X264764D02*
D03*
X262795D02*
D03*
X260827D02*
D03*
D22*
X251969Y239764D02*
D03*
D23*
X255906Y248524D02*
D03*
X253937D02*
D03*
X251969D02*
D03*
X250000D02*
D03*
X248031D02*
D03*
X255906Y231004D02*
D03*
X253937D02*
D03*
X251969D02*
D03*
X250000D02*
D03*
X248031D02*
D03*
D24*
X163976Y122047D02*
D03*
X160827D02*
D03*
X157677D02*
D03*
X154528D02*
D03*
X151378D02*
D03*
X148228D02*
D03*
X145079D02*
D03*
X141929D02*
D03*
X138779D02*
D03*
X135630D02*
D03*
X132480D02*
D03*
X129331D02*
D03*
X126181D02*
D03*
X123031D02*
D03*
X119882D02*
D03*
X116732D02*
D03*
X113583D02*
D03*
X110433D02*
D03*
X107283D02*
D03*
X104134D02*
D03*
X100984D02*
D03*
X97835D02*
D03*
X94685D02*
D03*
X91535D02*
D03*
X88386D02*
D03*
X85236D02*
D03*
X82087D02*
D03*
X163976Y76772D02*
D03*
X160827D02*
D03*
X157677D02*
D03*
X154528D02*
D03*
X151378D02*
D03*
X148228D02*
D03*
X145079D02*
D03*
X141929D02*
D03*
X138779D02*
D03*
X135630D02*
D03*
X132480D02*
D03*
X129331D02*
D03*
X126181D02*
D03*
X123031D02*
D03*
X119882D02*
D03*
X116732D02*
D03*
X113583D02*
D03*
X110433D02*
D03*
X107283D02*
D03*
X104134D02*
D03*
X100984D02*
D03*
X97835D02*
D03*
X94685D02*
D03*
X91535D02*
D03*
X88386D02*
D03*
X85236D02*
D03*
X82087D02*
D03*
D25*
X214370Y199902D02*
D03*
Y202461D02*
D03*
Y205020D02*
D03*
Y207579D02*
D03*
X197047Y199902D02*
D03*
Y202461D02*
D03*
Y205020D02*
D03*
Y207579D02*
D03*
X406496Y137500D02*
D03*
Y140059D02*
D03*
Y142618D02*
D03*
Y145177D02*
D03*
X389173Y137500D02*
D03*
Y140059D02*
D03*
Y142618D02*
D03*
Y145177D02*
D03*
D26*
X76870Y151772D02*
D03*
X79429D02*
D03*
X81988D02*
D03*
X84547D02*
D03*
X76870Y169095D02*
D03*
X79429D02*
D03*
X81988D02*
D03*
X84547D02*
D03*
D27*
X344291Y208992D02*
D03*
Y187992D02*
D03*
X334291Y208992D02*
D03*
Y187992D02*
D03*
X324291Y208992D02*
D03*
Y187992D02*
D03*
X314291Y208992D02*
D03*
Y187992D02*
D03*
X304291Y208992D02*
D03*
Y187992D02*
D03*
X294291Y208992D02*
D03*
Y187992D02*
D03*
D28*
X270492Y30118D02*
D03*
X280689D02*
D03*
X270492Y36811D02*
D03*
X280689D02*
D03*
X290177Y30118D02*
D03*
X300374D02*
D03*
X290177Y36811D02*
D03*
X300374D02*
D03*
D29*
X274016Y30118D02*
D03*
X277165D02*
D03*
X274016Y36811D02*
D03*
X277165D02*
D03*
X293701Y30118D02*
D03*
X296850D02*
D03*
X293701Y36811D02*
D03*
X296850D02*
D03*
D30*
X116340Y250000D02*
D03*
X94290D02*
D03*
D31*
X225179Y245081D02*
D03*
Y263581D02*
D03*
D32*
X68504Y204675D02*
D03*
Y184675D02*
D03*
X43307Y194675D02*
D03*
D33*
X393701Y50689D02*
D03*
X407480D02*
D03*
X364173Y198327D02*
D03*
X369587Y50689D02*
D03*
X452756Y153543D02*
D03*
X427165D02*
D03*
X492126Y164173D02*
D03*
X478346D02*
D03*
D34*
X14961Y59055D02*
D03*
Y44882D02*
D03*
X147638Y222441D02*
D03*
Y192913D02*
D03*
Y208268D02*
D03*
X197638Y222441D02*
D03*
X14764Y165354D02*
D03*
Y148622D02*
D03*
Y132874D02*
D03*
Y118110D02*
D03*
Y103347D02*
D03*
D35*
X92520Y39370D02*
D03*
X17618Y226279D02*
D03*
D36*
X359252Y17717D02*
D03*
X66634Y132874D02*
D03*
X511811Y161713D02*
D03*
D37*
X126378Y225098D02*
D03*
Y214272D02*
D03*
D38*
X182973Y222441D02*
D03*
X172146D02*
D03*
X298917Y238484D02*
D03*
X309744D02*
D03*
D39*
X401083Y126969D02*
D03*
X404429D02*
D03*
X391339D02*
D03*
X394685D02*
D03*
D40*
X335531Y225984D02*
D03*
X329626D02*
D03*
X29528Y148622D02*
D03*
X35433D02*
D03*
X29528Y165354D02*
D03*
X35433D02*
D03*
X400984Y105610D02*
D03*
X395079D02*
D03*
X400984Y99508D02*
D03*
X395079D02*
D03*
D41*
X360039Y47736D02*
D03*
Y53642D02*
D03*
D42*
X60630Y246063D02*
D03*
X49606D02*
D03*
X60630Y234151D02*
D03*
X49606D02*
D03*
X60630Y222239D02*
D03*
X49606D02*
D03*
D43*
X486221Y26535D02*
D03*
Y37559D02*
D03*
X478346Y26535D02*
D03*
Y37559D02*
D03*
X124409Y185433D02*
D03*
Y196457D02*
D03*
X132283Y185433D02*
D03*
Y196457D02*
D03*
X381496Y199606D02*
D03*
Y188583D02*
D03*
X388878Y199606D02*
D03*
Y188583D02*
D03*
D44*
X263779Y229525D02*
D03*
X274803D02*
D03*
X334744Y238681D02*
D03*
X323721D02*
D03*
D45*
X234449Y139764D02*
D03*
X241929D02*
D03*
X353346Y135458D02*
D03*
X360827D02*
D03*
X319882Y246850D02*
D03*
X312402D02*
D03*
X255807Y221358D02*
D03*
X248327D02*
D03*
X388386Y237795D02*
D03*
X380906D02*
D03*
D46*
X339370Y54626D02*
D03*
Y47146D02*
D03*
X89567Y222244D02*
D03*
Y214764D02*
D03*
X255512Y256890D02*
D03*
Y264370D02*
D03*
X248819Y256890D02*
D03*
Y264370D02*
D03*
X284252Y242323D02*
D03*
Y249803D02*
D03*
D47*
X216535Y81988D02*
D03*
X221654D02*
D03*
X216634Y60039D02*
D03*
X221752D02*
D03*
X215158Y137008D02*
D03*
X220276D02*
D03*
X215158Y158661D02*
D03*
X220276D02*
D03*
X238583Y76870D02*
D03*
X233465D02*
D03*
X238583Y70866D02*
D03*
X233465D02*
D03*
X47835Y43307D02*
D03*
X42717D02*
D03*
X240748Y155512D02*
D03*
X235630D02*
D03*
X238583Y104921D02*
D03*
X233465D02*
D03*
X238583Y81988D02*
D03*
X233465D02*
D03*
X357972Y95374D02*
D03*
X352854D02*
D03*
X358071Y112598D02*
D03*
X352953D02*
D03*
X358071Y142126D02*
D03*
X352953D02*
D03*
X357874Y69882D02*
D03*
X352756D02*
D03*
X125787Y205512D02*
D03*
X130905D02*
D03*
X207579Y184055D02*
D03*
X202461D02*
D03*
X207579Y188878D02*
D03*
X202461D02*
D03*
X406693Y116831D02*
D03*
X401575D02*
D03*
X394193D02*
D03*
X389075D02*
D03*
X233661Y234252D02*
D03*
X238779D02*
D03*
X274606Y235433D02*
D03*
X269488D02*
D03*
X89961Y133858D02*
D03*
X95079D02*
D03*
X125394D02*
D03*
X130512D02*
D03*
X141142D02*
D03*
X146260D02*
D03*
X156890D02*
D03*
X162008D02*
D03*
X95079Y64961D02*
D03*
X89961D02*
D03*
X130512D02*
D03*
X125394D02*
D03*
X146260D02*
D03*
X141142D02*
D03*
X162008D02*
D03*
X156890D02*
D03*
D48*
X264665Y46555D02*
D03*
Y51673D02*
D03*
X290846Y46555D02*
D03*
Y51673D02*
D03*
X309744Y46555D02*
D03*
Y51673D02*
D03*
X332874Y46555D02*
D03*
Y51673D02*
D03*
X307087Y170177D02*
D03*
Y165059D02*
D03*
X288583Y170177D02*
D03*
Y165059D02*
D03*
X262795Y191339D02*
D03*
Y196457D02*
D03*
X216142Y188779D02*
D03*
Y183661D02*
D03*
X69882Y162992D02*
D03*
Y157874D02*
D03*
D49*
X113583Y69193D02*
D03*
X119685Y64567D02*
D03*
D50*
X401887Y238856D02*
D03*
Y231056D02*
D03*
Y223156D02*
D03*
Y215356D02*
D03*
Y207356D02*
D03*
Y199556D02*
D03*
Y191756D02*
D03*
Y183856D02*
D03*
X463387Y183756D02*
D03*
Y191656D02*
D03*
Y199456D02*
D03*
X463287Y207356D02*
D03*
Y215256D02*
D03*
Y223056D02*
D03*
Y231056D02*
D03*
Y238856D02*
D03*
D51*
X412887Y175656D02*
D03*
X420687D02*
D03*
X428487D02*
D03*
X436487D02*
D03*
X452287D02*
D03*
X444287D02*
D03*
D52*
X43898Y61024D02*
D03*
X70276D02*
D03*
X225984Y193898D02*
D03*
X252362D02*
D03*
D53*
X511811Y206102D02*
D03*
Y179724D02*
D03*
D54*
X200787Y153543D02*
D03*
X191043Y192520D02*
D03*
D55*
X179134Y153543D02*
D03*
X200787Y140945D02*
D03*
X179134D02*
D03*
X169390Y179921D02*
D03*
X191043D02*
D03*
X169390Y192520D02*
D03*
D56*
X183465Y212598D02*
D03*
Y210630D02*
D03*
Y208661D02*
D03*
Y206693D02*
D03*
X171653D02*
D03*
Y208661D02*
D03*
Y210630D02*
D03*
Y212598D02*
D03*
D57*
X177559Y209547D02*
D03*
D58*
X192913Y51181D02*
D03*
Y88583D02*
D03*
M02*
