G04 Layer_Color=8388736*
%FSLAX25Y25*%
%MOIN*%
G70*
G01*
G75*
%ADD60C,0.00800*%
%ADD94C,0.00400*%
%ADD95R,0.06112X0.04931*%
%ADD96R,0.04931X0.06112*%
%ADD97R,0.04931X0.03356*%
%ADD98R,0.04931X0.02372*%
%ADD99O,0.02293X0.05915*%
%ADD100R,0.12214X0.07529*%
%ADD101R,0.02962X0.03750*%
%ADD102R,0.03750X0.02962*%
%ADD103R,0.07687X0.09065*%
%ADD104R,0.09065X0.07687*%
%ADD105O,0.07096X0.01761*%
%ADD106O,0.01761X0.07096*%
%ADD107R,0.08002X0.07214*%
%ADD108O,0.01742X0.05915*%
%ADD109O,0.02765X0.05324*%
%ADD110R,0.06112X0.02293*%
%ADD111R,0.02293X0.06112*%
%ADD112R,0.05600X0.12600*%
%ADD113R,0.03356X0.04931*%
%ADD114R,0.02372X0.04931*%
%ADD115R,0.07650X0.30100*%
%ADD116R,0.23000X0.06900*%
%ADD117R,0.13592X0.05285*%
%ADD118R,0.07687X0.13986*%
%ADD119R,0.13986X0.07687*%
%ADD120R,0.19104X0.13986*%
%ADD121R,0.13986X0.19104*%
%ADD122R,0.07490X0.05521*%
%ADD123R,0.05521X0.07490*%
%ADD124R,0.02962X0.02765*%
%ADD125R,0.03750X0.03750*%
%ADD126R,0.03750X0.03750*%
%ADD127R,0.06506X0.10049*%
%ADD128R,0.06112X0.06506*%
%ADD129R,0.06506X0.06112*%
%ADD130R,0.05324X0.05324*%
%ADD131R,0.05324X0.05324*%
%ADD132R,0.04143X0.03159*%
%ADD133R,0.03159X0.04143*%
%ADD134C,0.04537*%
%ADD135R,0.10600X0.05100*%
%ADD136R,0.06100X0.10600*%
%ADD137R,0.09655X0.06506*%
%ADD138R,0.06506X0.09655*%
%ADD139R,0.05718X0.08080*%
%ADD140O,0.05718X0.08080*%
%ADD141R,0.04143X0.01584*%
G04:AMPARAMS|DCode=142|XSize=99.7mil|YSize=70.96mil|CornerRadius=19.24mil|HoleSize=0mil|Usage=FLASHONLY|Rotation=270.000|XOffset=0mil|YOffset=0mil|HoleType=Round|Shape=RoundedRectangle|*
%AMROUNDEDRECTD142*
21,1,0.09970,0.03248,0,0,270.0*
21,1,0.06122,0.07096,0,0,270.0*
1,1,0.03848,-0.01624,-0.03061*
1,1,0.03848,-0.01624,0.03061*
1,1,0.03848,0.01624,0.03061*
1,1,0.03848,0.01624,-0.03061*
%
%ADD142ROUNDEDRECTD142*%
%ADD143R,0.08474X0.22253*%
%ADD144C,0.26191*%
%ADD145C,0.07200*%
%ADD146R,0.07200X0.07200*%
%ADD147R,0.07200X0.07200*%
%ADD148R,0.06506X0.06506*%
%ADD149C,0.06506*%
%ADD150R,0.06506X0.06506*%
%ADD151C,0.08080*%
%ADD152R,0.08080X0.08080*%
%ADD153C,0.21600*%
%ADD154C,0.00724*%
G36*
X70772Y95759D02*
X70931D01*
X71124Y95724D01*
X71353Y95706D01*
X71599Y95671D01*
X71863Y95618D01*
X72162Y95566D01*
X72479Y95495D01*
X72795Y95407D01*
X73147Y95319D01*
X73499Y95196D01*
X73868Y95073D01*
X74238Y94915D01*
Y92751D01*
X74220Y92769D01*
X74132Y92787D01*
X74027Y92839D01*
X73868Y92910D01*
X73675Y92980D01*
X73464Y93068D01*
X73217Y93156D01*
X72954Y93244D01*
X72391Y93420D01*
X71810Y93578D01*
X71230Y93701D01*
X70948Y93719D01*
X70702Y93736D01*
X70579D01*
X70438Y93719D01*
X70262Y93701D01*
X70086Y93666D01*
X69875Y93631D01*
X69682Y93560D01*
X69506Y93472D01*
X69488Y93455D01*
X69436Y93420D01*
X69365Y93367D01*
X69295Y93297D01*
X69207Y93209D01*
X69137Y93085D01*
X69084Y92962D01*
X69066Y92804D01*
Y92787D01*
Y92751D01*
X69084Y92681D01*
X69101Y92593D01*
X69137Y92505D01*
X69207Y92400D01*
X69277Y92276D01*
X69383Y92171D01*
X69401Y92153D01*
X69453Y92118D01*
X69541Y92065D01*
X69700Y91977D01*
X69893Y91872D01*
X70034Y91801D01*
X70174Y91749D01*
X70333Y91678D01*
X70509Y91590D01*
X70720Y91520D01*
X70931Y91432D01*
X70948D01*
X70984Y91414D01*
X71054Y91379D01*
X71142Y91362D01*
X71247Y91309D01*
X71371Y91274D01*
X71652Y91151D01*
X71969Y91027D01*
X72303Y90887D01*
X72619Y90728D01*
X72918Y90588D01*
X72954Y90570D01*
X73042Y90517D01*
X73182Y90429D01*
X73358Y90306D01*
X73552Y90148D01*
X73780Y89955D01*
X73991Y89743D01*
X74203Y89480D01*
X74220Y89444D01*
X74291Y89356D01*
X74378Y89198D01*
X74484Y88987D01*
X74572Y88741D01*
X74660Y88424D01*
X74730Y88072D01*
X74748Y87685D01*
Y87668D01*
Y87615D01*
Y87527D01*
X74730Y87422D01*
X74713Y87298D01*
X74677Y87140D01*
X74607Y86788D01*
X74449Y86384D01*
X74361Y86190D01*
X74238Y85979D01*
X74115Y85768D01*
X73939Y85575D01*
X73763Y85381D01*
X73552Y85205D01*
X73534Y85188D01*
X73499Y85170D01*
X73429Y85117D01*
X73341Y85065D01*
X73217Y84994D01*
X73077Y84924D01*
X72918Y84836D01*
X72725Y84748D01*
X72514Y84660D01*
X72285Y84572D01*
X72021Y84502D01*
X71758Y84431D01*
X71459Y84378D01*
X71142Y84326D01*
X70808Y84308D01*
X70456Y84290D01*
X70245D01*
X70104Y84308D01*
X69911Y84326D01*
X69700Y84343D01*
X69436Y84378D01*
X69172Y84431D01*
X68873Y84484D01*
X68556Y84554D01*
X68222Y84642D01*
X67870Y84748D01*
X67518Y84871D01*
X67149Y85012D01*
X66797Y85170D01*
X66428Y85364D01*
Y87756D01*
X66445D01*
X66480Y87721D01*
X66533Y87685D01*
X66621Y87633D01*
X66709Y87562D01*
X66832Y87492D01*
X67096Y87334D01*
X67395Y87158D01*
X67729Y86982D01*
X68064Y86806D01*
X68398Y86665D01*
X68415D01*
X68433Y86648D01*
X68486Y86630D01*
X68556Y86612D01*
X68714Y86560D01*
X68943Y86507D01*
X69225Y86436D01*
X69541Y86384D01*
X69875Y86349D01*
X70227Y86331D01*
X70385D01*
X70491Y86349D01*
X70614Y86366D01*
X70755Y86384D01*
X71054Y86454D01*
X71353Y86577D01*
X71494Y86665D01*
X71617Y86771D01*
X71722Y86894D01*
X71810Y87035D01*
X71863Y87193D01*
X71881Y87369D01*
Y87386D01*
Y87422D01*
X71863Y87492D01*
X71846Y87580D01*
X71793Y87685D01*
X71740Y87791D01*
X71652Y87914D01*
X71546Y88020D01*
X71529Y88037D01*
X71476Y88072D01*
X71371Y88143D01*
X71230Y88231D01*
X71019Y88354D01*
X70878Y88407D01*
X70737Y88477D01*
X70579Y88547D01*
X70385Y88635D01*
X70192Y88706D01*
X69963Y88794D01*
X69946D01*
X69911Y88811D01*
X69840Y88846D01*
X69752Y88864D01*
X69647Y88917D01*
X69524Y88952D01*
X69242Y89075D01*
X68925Y89198D01*
X68591Y89339D01*
X68275Y89497D01*
X67976Y89638D01*
X67940Y89656D01*
X67852Y89708D01*
X67712Y89796D01*
X67554Y89919D01*
X67360Y90078D01*
X67149Y90254D01*
X66938Y90482D01*
X66727Y90728D01*
X66709Y90764D01*
X66639Y90852D01*
X66568Y91010D01*
X66463Y91221D01*
X66375Y91485D01*
X66287Y91801D01*
X66217Y92153D01*
X66199Y92558D01*
Y92575D01*
Y92628D01*
Y92699D01*
X66217Y92804D01*
X66234Y92927D01*
X66252Y93068D01*
X66340Y93385D01*
X66480Y93754D01*
X66568Y93947D01*
X66674Y94141D01*
X66815Y94334D01*
X66973Y94528D01*
X67149Y94704D01*
X67342Y94880D01*
X67360Y94897D01*
X67395Y94915D01*
X67466Y94968D01*
X67554Y95020D01*
X67677Y95091D01*
X67817Y95161D01*
X67976Y95249D01*
X68169Y95337D01*
X68380Y95407D01*
X68609Y95495D01*
X68873Y95566D01*
X69154Y95636D01*
X69436Y95689D01*
X69770Y95742D01*
X70104Y95759D01*
X70456Y95777D01*
X70632D01*
X70772Y95759D01*
D02*
G37*
G36*
X12251D02*
X12409D01*
X12602Y95724D01*
X12831Y95706D01*
X13077Y95671D01*
X13341Y95618D01*
X13640Y95566D01*
X13957Y95495D01*
X14273Y95407D01*
X14625Y95319D01*
X14977Y95196D01*
X15346Y95073D01*
X15716Y94915D01*
Y92751D01*
X15698Y92769D01*
X15610Y92787D01*
X15505Y92839D01*
X15346Y92910D01*
X15153Y92980D01*
X14942Y93068D01*
X14696Y93156D01*
X14432Y93244D01*
X13869Y93420D01*
X13288Y93578D01*
X12708Y93701D01*
X12426Y93719D01*
X12180Y93736D01*
X12057D01*
X11916Y93719D01*
X11740Y93701D01*
X11564Y93666D01*
X11354Y93631D01*
X11160Y93560D01*
X10984Y93472D01*
X10966Y93455D01*
X10914Y93420D01*
X10843Y93367D01*
X10773Y93297D01*
X10685Y93209D01*
X10615Y93085D01*
X10562Y92962D01*
X10544Y92804D01*
Y92787D01*
Y92751D01*
X10562Y92681D01*
X10580Y92593D01*
X10615Y92505D01*
X10685Y92400D01*
X10755Y92276D01*
X10861Y92171D01*
X10879Y92153D01*
X10931Y92118D01*
X11019Y92065D01*
X11178Y91977D01*
X11371Y91872D01*
X11512Y91801D01*
X11653Y91749D01*
X11811Y91678D01*
X11987Y91590D01*
X12198Y91520D01*
X12409Y91432D01*
X12426D01*
X12462Y91414D01*
X12532Y91379D01*
X12620Y91362D01*
X12725Y91309D01*
X12849Y91274D01*
X13130Y91151D01*
X13447Y91027D01*
X13781Y90887D01*
X14097Y90728D01*
X14397Y90588D01*
X14432Y90570D01*
X14520Y90517D01*
X14660Y90429D01*
X14836Y90306D01*
X15030Y90148D01*
X15258Y89955D01*
X15470Y89743D01*
X15681Y89480D01*
X15698Y89444D01*
X15768Y89356D01*
X15856Y89198D01*
X15962Y88987D01*
X16050Y88741D01*
X16138Y88424D01*
X16208Y88072D01*
X16226Y87685D01*
Y87668D01*
Y87615D01*
Y87527D01*
X16208Y87422D01*
X16191Y87298D01*
X16156Y87140D01*
X16085Y86788D01*
X15927Y86384D01*
X15839Y86190D01*
X15716Y85979D01*
X15593Y85768D01*
X15417Y85575D01*
X15241Y85381D01*
X15030Y85205D01*
X15012Y85188D01*
X14977Y85170D01*
X14907Y85117D01*
X14819Y85065D01*
X14696Y84994D01*
X14555Y84924D01*
X14397Y84836D01*
X14203Y84748D01*
X13992Y84660D01*
X13763Y84572D01*
X13499Y84502D01*
X13236Y84431D01*
X12937Y84378D01*
X12620Y84326D01*
X12286Y84308D01*
X11934Y84290D01*
X11723D01*
X11582Y84308D01*
X11389Y84326D01*
X11178Y84343D01*
X10914Y84378D01*
X10650Y84431D01*
X10351Y84484D01*
X10034Y84554D01*
X9700Y84642D01*
X9348Y84748D01*
X8996Y84871D01*
X8627Y85012D01*
X8275Y85170D01*
X7906Y85364D01*
Y87756D01*
X7923D01*
X7959Y87721D01*
X8011Y87685D01*
X8099Y87633D01*
X8187Y87562D01*
X8310Y87492D01*
X8574Y87334D01*
X8873Y87158D01*
X9207Y86982D01*
X9542Y86806D01*
X9876Y86665D01*
X9894D01*
X9911Y86648D01*
X9964Y86630D01*
X10034Y86612D01*
X10193Y86560D01*
X10421Y86507D01*
X10703Y86436D01*
X11019Y86384D01*
X11354Y86349D01*
X11705Y86331D01*
X11864D01*
X11969Y86349D01*
X12092Y86366D01*
X12233Y86384D01*
X12532Y86454D01*
X12831Y86577D01*
X12972Y86665D01*
X13095Y86771D01*
X13200Y86894D01*
X13288Y87035D01*
X13341Y87193D01*
X13359Y87369D01*
Y87386D01*
Y87422D01*
X13341Y87492D01*
X13323Y87580D01*
X13271Y87685D01*
X13218Y87791D01*
X13130Y87914D01*
X13025Y88020D01*
X13007Y88037D01*
X12954Y88072D01*
X12849Y88143D01*
X12708Y88231D01*
X12497Y88354D01*
X12356Y88407D01*
X12215Y88477D01*
X12057Y88547D01*
X11864Y88635D01*
X11670Y88706D01*
X11441Y88794D01*
X11424D01*
X11389Y88811D01*
X11318Y88846D01*
X11230Y88864D01*
X11125Y88917D01*
X11002Y88952D01*
X10720Y89075D01*
X10404Y89198D01*
X10069Y89339D01*
X9753Y89497D01*
X9454Y89638D01*
X9419Y89656D01*
X9331Y89708D01*
X9190Y89796D01*
X9032Y89919D01*
X8838Y90078D01*
X8627Y90254D01*
X8416Y90482D01*
X8205Y90728D01*
X8187Y90764D01*
X8117Y90852D01*
X8046Y91010D01*
X7941Y91221D01*
X7853Y91485D01*
X7765Y91801D01*
X7695Y92153D01*
X7677Y92558D01*
Y92575D01*
Y92628D01*
Y92699D01*
X7695Y92804D01*
X7712Y92927D01*
X7730Y93068D01*
X7818Y93385D01*
X7959Y93754D01*
X8046Y93947D01*
X8152Y94141D01*
X8293Y94334D01*
X8451Y94528D01*
X8627Y94704D01*
X8821Y94880D01*
X8838Y94897D01*
X8873Y94915D01*
X8944Y94968D01*
X9032Y95020D01*
X9155Y95091D01*
X9295Y95161D01*
X9454Y95249D01*
X9647Y95337D01*
X9858Y95407D01*
X10087Y95495D01*
X10351Y95566D01*
X10632Y95636D01*
X10914Y95689D01*
X11248Y95742D01*
X11582Y95759D01*
X11934Y95777D01*
X12110D01*
X12251Y95759D01*
D02*
G37*
G36*
X64159Y84449D02*
X61819D01*
X55645Y91590D01*
Y84449D01*
X52866D01*
Y95618D01*
X55399D01*
X61379Y88776D01*
Y95618D01*
X64159D01*
Y84449D01*
D02*
G37*
G36*
X50597Y93578D02*
X45249D01*
Y91221D01*
X50350D01*
Y89180D01*
X45249D01*
Y86489D01*
X50702D01*
Y84449D01*
X42470D01*
Y95618D01*
X50597D01*
Y93578D01*
D02*
G37*
G36*
X35170Y86489D02*
X40905D01*
Y84449D01*
X32391D01*
Y95618D01*
X35170D01*
Y86489D01*
D02*
G37*
G36*
X24229Y95759D02*
X24423Y95742D01*
X24669Y95724D01*
X24950Y95689D01*
X25267Y95636D01*
X25601Y95566D01*
X25971Y95460D01*
X26340Y95355D01*
X26727Y95214D01*
X27114Y95038D01*
X27501Y94845D01*
X27871Y94616D01*
X28240Y94334D01*
X28574Y94035D01*
X28592Y94018D01*
X28644Y93965D01*
X28732Y93859D01*
X28855Y93736D01*
X28979Y93560D01*
X29137Y93367D01*
X29295Y93138D01*
X29471Y92892D01*
X29629Y92611D01*
X29788Y92294D01*
X29946Y91977D01*
X30069Y91625D01*
X30192Y91239D01*
X30280Y90852D01*
X30333Y90447D01*
X30351Y90025D01*
Y90007D01*
Y89919D01*
X30333Y89796D01*
X30316Y89638D01*
X30298Y89427D01*
X30263Y89198D01*
X30192Y88934D01*
X30122Y88653D01*
X30034Y88336D01*
X29911Y88020D01*
X29770Y87685D01*
X29594Y87351D01*
X29383Y86999D01*
X29155Y86665D01*
X28873Y86331D01*
X28556Y85997D01*
X28539Y85979D01*
X28468Y85926D01*
X28381Y85838D01*
X28240Y85733D01*
X28046Y85610D01*
X27835Y85452D01*
X27589Y85311D01*
X27308Y85152D01*
X26991Y84977D01*
X26639Y84836D01*
X26270Y84695D01*
X25848Y84554D01*
X25425Y84449D01*
X24950Y84361D01*
X24458Y84308D01*
X23948Y84290D01*
X23825D01*
X23684Y84308D01*
X23473Y84326D01*
X23244Y84343D01*
X22963Y84378D01*
X22646Y84431D01*
X22312Y84502D01*
X21960Y84589D01*
X21573Y84695D01*
X21204Y84836D01*
X20817Y85012D01*
X20430Y85205D01*
X20043Y85416D01*
X19691Y85680D01*
X19339Y85979D01*
X19322Y85997D01*
X19269Y86049D01*
X19181Y86155D01*
X19058Y86278D01*
X18935Y86454D01*
X18776Y86648D01*
X18618Y86876D01*
X18460Y87122D01*
X18284Y87404D01*
X18126Y87721D01*
X17967Y88055D01*
X17844Y88407D01*
X17721Y88776D01*
X17633Y89180D01*
X17580Y89603D01*
X17563Y90025D01*
Y90060D01*
Y90130D01*
X17580Y90254D01*
X17598Y90412D01*
X17616Y90605D01*
X17651Y90852D01*
X17704Y91115D01*
X17791Y91397D01*
X17879Y91696D01*
X17985Y92030D01*
X18143Y92347D01*
X18302Y92699D01*
X18513Y93050D01*
X18741Y93385D01*
X19005Y93719D01*
X19322Y94053D01*
X19339Y94071D01*
X19410Y94123D01*
X19498Y94211D01*
X19638Y94317D01*
X19814Y94458D01*
X20043Y94598D01*
X20289Y94757D01*
X20571Y94915D01*
X20887Y95073D01*
X21239Y95231D01*
X21608Y95372D01*
X22031Y95513D01*
X22470Y95618D01*
X22928Y95706D01*
X23420Y95759D01*
X23948Y95777D01*
X24071D01*
X24229Y95759D01*
D02*
G37*
G36*
X64536Y79021D02*
X64634Y79013D01*
X64747Y79005D01*
X64876Y78996D01*
X65022Y78972D01*
X65175Y78956D01*
X65337Y78924D01*
X65677Y78851D01*
X65855Y78802D01*
X66025Y78746D01*
X66203Y78673D01*
X66373Y78600D01*
Y77484D01*
X66365Y77492D01*
X66332Y77508D01*
X66276Y77524D01*
X66203Y77557D01*
X66114Y77597D01*
X66009Y77637D01*
X65895Y77678D01*
X65766Y77726D01*
X65620Y77767D01*
X65467Y77807D01*
X65143Y77888D01*
X64973Y77921D01*
X64803Y77937D01*
X64625Y77953D01*
X64447Y77961D01*
X64358D01*
X64302Y77953D01*
X64221Y77945D01*
X64132Y77937D01*
X64035Y77921D01*
X63938Y77904D01*
X63711Y77848D01*
X63598Y77815D01*
X63477Y77767D01*
X63363Y77710D01*
X63258Y77654D01*
X63153Y77581D01*
X63056Y77500D01*
X63048Y77492D01*
X63032Y77476D01*
X63007Y77451D01*
X62983Y77419D01*
X62943Y77370D01*
X62902Y77314D01*
X62862Y77257D01*
X62813Y77184D01*
X62765Y77103D01*
X62724Y77014D01*
X62643Y76812D01*
X62619Y76707D01*
X62595Y76586D01*
X62579Y76464D01*
X62571Y76335D01*
Y76327D01*
Y76302D01*
Y76270D01*
X62579Y76222D01*
X62587Y76165D01*
X62595Y76100D01*
X62635Y75947D01*
X62692Y75769D01*
X62732Y75680D01*
X62773Y75582D01*
X62829Y75494D01*
X62894Y75405D01*
X62967Y75315D01*
X63056Y75235D01*
X63064Y75227D01*
X63080Y75218D01*
X63104Y75194D01*
X63145Y75170D01*
X63193Y75138D01*
X63250Y75105D01*
X63323Y75065D01*
X63396Y75024D01*
X63485Y74984D01*
X63582Y74943D01*
X63687Y74911D01*
X63800Y74879D01*
X63930Y74854D01*
X64059Y74830D01*
X64197Y74822D01*
X64342Y74814D01*
X64415D01*
X64496Y74822D01*
X64609Y74838D01*
X64739Y74854D01*
X64876Y74887D01*
X65030Y74935D01*
X65192Y74992D01*
Y75599D01*
X64455D01*
Y76537D01*
X66478D01*
Y74434D01*
X66462Y74418D01*
X66421Y74385D01*
X66348Y74329D01*
X66243Y74256D01*
X66114Y74175D01*
X65952Y74094D01*
X65766Y74013D01*
X65548Y73932D01*
X65539D01*
X65523Y73924D01*
X65483Y73916D01*
X65443Y73900D01*
X65386Y73892D01*
X65321Y73875D01*
X65240Y73859D01*
X65159Y73843D01*
X64973Y73803D01*
X64763Y73778D01*
X64536Y73754D01*
X64310Y73746D01*
X64253D01*
X64180Y73754D01*
X64091D01*
X63970Y73770D01*
X63841Y73786D01*
X63695Y73811D01*
X63533Y73835D01*
X63363Y73875D01*
X63185Y73924D01*
X63007Y73989D01*
X62821Y74054D01*
X62635Y74142D01*
X62449Y74240D01*
X62279Y74353D01*
X62109Y74482D01*
X62101Y74490D01*
X62069Y74515D01*
X62028Y74555D01*
X61972Y74620D01*
X61907Y74693D01*
X61834Y74782D01*
X61761Y74879D01*
X61681Y75000D01*
X61600Y75129D01*
X61527Y75275D01*
X61454Y75429D01*
X61389Y75599D01*
X61333Y75777D01*
X61292Y75963D01*
X61260Y76165D01*
X61252Y76375D01*
Y76392D01*
Y76424D01*
X61260Y76489D01*
X61268Y76569D01*
X61276Y76667D01*
X61300Y76788D01*
X61325Y76917D01*
X61357Y77055D01*
X61406Y77201D01*
X61462Y77354D01*
X61527Y77516D01*
X61616Y77678D01*
X61713Y77832D01*
X61826Y77993D01*
X61956Y78139D01*
X62109Y78285D01*
X62117Y78293D01*
X62150Y78317D01*
X62198Y78357D01*
X62263Y78398D01*
X62352Y78455D01*
X62457Y78519D01*
X62579Y78584D01*
X62716Y78657D01*
X62870Y78729D01*
X63032Y78794D01*
X63218Y78859D01*
X63420Y78916D01*
X63630Y78964D01*
X63857Y78996D01*
X64091Y79021D01*
X64342Y79029D01*
X64455D01*
X64536Y79021D01*
D02*
G37*
G36*
X73152D02*
X73241Y79013D01*
X73355Y79005D01*
X73476Y78988D01*
X73613Y78972D01*
X73759Y78948D01*
X73905Y78916D01*
X74220Y78835D01*
X74374Y78786D01*
X74536Y78729D01*
X74689Y78657D01*
X74835Y78576D01*
Y77435D01*
X74827Y77443D01*
X74795Y77459D01*
X74746Y77484D01*
X74673Y77516D01*
X74592Y77557D01*
X74495Y77605D01*
X74382Y77645D01*
X74261Y77702D01*
X74131Y77751D01*
X73994Y77791D01*
X73694Y77880D01*
X73532Y77912D01*
X73379Y77937D01*
X73217Y77953D01*
X73063Y77961D01*
X72982D01*
X72926Y77953D01*
X72853Y77945D01*
X72772Y77937D01*
X72683Y77921D01*
X72586Y77904D01*
X72376Y77856D01*
X72149Y77775D01*
X72036Y77726D01*
X71931Y77662D01*
X71817Y77597D01*
X71720Y77516D01*
X71712Y77508D01*
X71696Y77500D01*
X71672Y77468D01*
X71639Y77435D01*
X71599Y77395D01*
X71558Y77338D01*
X71510Y77281D01*
X71461Y77209D01*
X71364Y77047D01*
X71283Y76853D01*
X71251Y76748D01*
X71227Y76634D01*
X71211Y76513D01*
X71202Y76392D01*
Y76383D01*
Y76359D01*
Y76327D01*
X71211Y76278D01*
X71219Y76222D01*
X71227Y76149D01*
X71267Y75995D01*
X71324Y75809D01*
X71372Y75720D01*
X71421Y75623D01*
X71478Y75526D01*
X71542Y75437D01*
X71623Y75348D01*
X71712Y75259D01*
X71720Y75251D01*
X71737Y75243D01*
X71761Y75218D01*
X71801Y75186D01*
X71858Y75154D01*
X71914Y75121D01*
X71987Y75081D01*
X72068Y75041D01*
X72157Y74992D01*
X72254Y74951D01*
X72368Y74919D01*
X72481Y74887D01*
X72602Y74854D01*
X72740Y74830D01*
X72877Y74822D01*
X73023Y74814D01*
X73096D01*
X73168Y74822D01*
X73274Y74830D01*
X73387Y74838D01*
X73516Y74854D01*
X73654Y74879D01*
X73791Y74911D01*
X73799D01*
X73808Y74919D01*
X73832Y74927D01*
X73856Y74935D01*
X73896Y74943D01*
X73945Y74968D01*
X74002Y74984D01*
X74066Y75008D01*
X74139Y75041D01*
X74220Y75073D01*
X74309Y75113D01*
X74406Y75154D01*
X74519Y75202D01*
X74633Y75259D01*
X74762Y75315D01*
X74892Y75380D01*
Y74256D01*
X74884Y74248D01*
X74851Y74231D01*
X74795Y74207D01*
X74722Y74175D01*
X74633Y74134D01*
X74528Y74094D01*
X74406Y74045D01*
X74277Y74005D01*
X74131Y73956D01*
X73969Y73908D01*
X73808Y73867D01*
X73629Y73827D01*
X73444Y73795D01*
X73257Y73770D01*
X73063Y73754D01*
X72869Y73746D01*
X72812D01*
X72740Y73754D01*
X72643D01*
X72529Y73770D01*
X72392Y73786D01*
X72246Y73811D01*
X72084Y73843D01*
X71914Y73884D01*
X71737Y73932D01*
X71558Y73989D01*
X71372Y74062D01*
X71194Y74151D01*
X71017Y74248D01*
X70855Y74369D01*
X70693Y74498D01*
X70685Y74507D01*
X70661Y74531D01*
X70620Y74579D01*
X70563Y74636D01*
X70507Y74709D01*
X70434Y74798D01*
X70361Y74903D01*
X70288Y75016D01*
X70216Y75146D01*
X70143Y75291D01*
X70070Y75445D01*
X70013Y75607D01*
X69957Y75785D01*
X69916Y75971D01*
X69892Y76165D01*
X69884Y76367D01*
Y76383D01*
Y76416D01*
X69892Y76472D01*
X69900Y76553D01*
X69908Y76650D01*
X69932Y76756D01*
X69957Y76885D01*
X69989Y77022D01*
X70038Y77160D01*
X70094Y77314D01*
X70159Y77468D01*
X70240Y77629D01*
X70337Y77791D01*
X70450Y77945D01*
X70588Y78107D01*
X70733Y78252D01*
X70741Y78260D01*
X70774Y78285D01*
X70822Y78325D01*
X70887Y78374D01*
X70976Y78430D01*
X71081Y78495D01*
X71194Y78568D01*
X71332Y78641D01*
X71486Y78713D01*
X71656Y78786D01*
X71842Y78851D01*
X72036Y78908D01*
X72246Y78956D01*
X72473Y78996D01*
X72715Y79021D01*
X72966Y79029D01*
X73071D01*
X73152Y79021D01*
D02*
G37*
G36*
X45541Y76189D02*
Y73819D01*
X44263D01*
Y76197D01*
X42240Y78956D01*
X43786D01*
X44902Y77338D01*
X46018Y78956D01*
X47564D01*
X45541Y76189D01*
D02*
G37*
G36*
X13335Y72152D02*
X12178D01*
X13189Y74377D01*
X11838Y77289D01*
X13003D01*
X13731Y75510D01*
X14516Y77289D01*
X15657D01*
X13335Y72152D01*
D02*
G37*
G36*
X32613Y76036D02*
Y76019D01*
Y75987D01*
X32605Y75930D01*
Y75849D01*
X32589Y75752D01*
X32581Y75647D01*
X32557Y75526D01*
X32532Y75397D01*
X32492Y75259D01*
X32451Y75121D01*
X32395Y74976D01*
X32330Y74838D01*
X32257Y74693D01*
X32160Y74563D01*
X32063Y74434D01*
X31942Y74321D01*
X31934Y74312D01*
X31909Y74296D01*
X31869Y74264D01*
X31820Y74231D01*
X31748Y74191D01*
X31667Y74142D01*
X31570Y74086D01*
X31456Y74037D01*
X31327Y73981D01*
X31189Y73924D01*
X31028Y73875D01*
X30858Y73835D01*
X30680Y73803D01*
X30477Y73770D01*
X30267Y73754D01*
X30041Y73746D01*
X29984D01*
X29927Y73754D01*
X29838D01*
X29733Y73762D01*
X29620Y73778D01*
X29491Y73795D01*
X29345Y73819D01*
X29199Y73851D01*
X29046Y73892D01*
X28884Y73932D01*
X28730Y73989D01*
X28568Y74062D01*
X28423Y74134D01*
X28277Y74223D01*
X28148Y74329D01*
X28139Y74337D01*
X28115Y74353D01*
X28083Y74393D01*
X28042Y74442D01*
X27994Y74498D01*
X27937Y74571D01*
X27872Y74660D01*
X27816Y74765D01*
X27751Y74879D01*
X27686Y75000D01*
X27630Y75146D01*
X27581Y75291D01*
X27541Y75461D01*
X27508Y75639D01*
X27484Y75825D01*
X27476Y76028D01*
Y78956D01*
X28762D01*
Y75995D01*
Y75987D01*
Y75971D01*
Y75947D01*
X28771Y75906D01*
Y75866D01*
X28779Y75809D01*
X28803Y75688D01*
X28851Y75550D01*
X28908Y75405D01*
X28997Y75267D01*
X29046Y75202D01*
X29110Y75138D01*
X29118D01*
X29126Y75121D01*
X29175Y75089D01*
X29248Y75032D01*
X29353Y74976D01*
X29491Y74919D01*
X29644Y74862D01*
X29830Y74830D01*
X30033Y74814D01*
X30089D01*
X30130Y74822D01*
X30178D01*
X30235Y74830D01*
X30372Y74854D01*
X30526Y74895D01*
X30680Y74951D01*
X30833Y75032D01*
X30979Y75138D01*
X30987Y75146D01*
X30995Y75154D01*
X31036Y75202D01*
X31092Y75275D01*
X31157Y75380D01*
X31222Y75518D01*
X31278Y75680D01*
X31319Y75866D01*
X31335Y75971D01*
Y76084D01*
Y78956D01*
X32613D01*
Y76036D01*
D02*
G37*
G36*
X68913Y73819D02*
X67635D01*
Y78956D01*
X68913D01*
Y73819D01*
D02*
G37*
G36*
X51528Y74757D02*
X54165D01*
Y73819D01*
X50249D01*
Y78956D01*
X51528D01*
Y74757D01*
D02*
G37*
G36*
X41812Y78018D02*
X39555D01*
Y76869D01*
X41812D01*
Y75930D01*
X39555D01*
Y73819D01*
X38276D01*
Y78956D01*
X41812D01*
Y78018D01*
D02*
G37*
G36*
X37265D02*
X35008D01*
Y76869D01*
X37265D01*
Y75930D01*
X35008D01*
Y73819D01*
X33730D01*
Y78956D01*
X37265D01*
Y78018D01*
D02*
G37*
G36*
X24175Y74757D02*
X26813D01*
Y73819D01*
X22897D01*
Y78956D01*
X24175D01*
Y74757D01*
D02*
G37*
G36*
X21886Y78018D02*
X19629D01*
Y76869D01*
X21886D01*
Y75930D01*
X19629D01*
Y73819D01*
X18351D01*
Y78956D01*
X21886D01*
Y78018D01*
D02*
G37*
G36*
X57725Y79021D02*
X57814Y79013D01*
X57927Y79005D01*
X58056Y78988D01*
X58202Y78964D01*
X58356Y78932D01*
X58526Y78883D01*
X58695Y78835D01*
X58873Y78770D01*
X59051Y78689D01*
X59229Y78600D01*
X59399Y78495D01*
X59569Y78365D01*
X59723Y78228D01*
X59731Y78220D01*
X59755Y78196D01*
X59796Y78147D01*
X59852Y78090D01*
X59909Y78009D01*
X59982Y77921D01*
X60054Y77815D01*
X60135Y77702D01*
X60208Y77573D01*
X60281Y77427D01*
X60354Y77281D01*
X60410Y77120D01*
X60467Y76942D01*
X60508Y76764D01*
X60532Y76578D01*
X60540Y76383D01*
Y76375D01*
Y76335D01*
X60532Y76278D01*
X60524Y76205D01*
X60516Y76108D01*
X60500Y76003D01*
X60467Y75882D01*
X60435Y75752D01*
X60394Y75607D01*
X60338Y75461D01*
X60273Y75308D01*
X60192Y75154D01*
X60095Y74992D01*
X59990Y74838D01*
X59860Y74685D01*
X59715Y74531D01*
X59707Y74523D01*
X59674Y74498D01*
X59634Y74458D01*
X59569Y74410D01*
X59480Y74353D01*
X59383Y74280D01*
X59270Y74215D01*
X59140Y74142D01*
X58995Y74062D01*
X58833Y73997D01*
X58663Y73932D01*
X58469Y73867D01*
X58275Y73819D01*
X58056Y73778D01*
X57830Y73754D01*
X57595Y73746D01*
X57538D01*
X57474Y73754D01*
X57377Y73762D01*
X57272Y73770D01*
X57142Y73786D01*
X56997Y73811D01*
X56843Y73843D01*
X56681Y73884D01*
X56503Y73932D01*
X56333Y73997D01*
X56155Y74078D01*
X55977Y74167D01*
X55799Y74264D01*
X55637Y74385D01*
X55476Y74523D01*
X55467Y74531D01*
X55443Y74555D01*
X55403Y74604D01*
X55346Y74660D01*
X55290Y74741D01*
X55217Y74830D01*
X55144Y74935D01*
X55071Y75049D01*
X54990Y75178D01*
X54917Y75324D01*
X54845Y75477D01*
X54788Y75639D01*
X54731Y75809D01*
X54691Y75995D01*
X54667Y76189D01*
X54659Y76383D01*
Y76400D01*
Y76432D01*
X54667Y76489D01*
X54675Y76561D01*
X54683Y76650D01*
X54699Y76764D01*
X54723Y76885D01*
X54764Y77014D01*
X54804Y77152D01*
X54853Y77306D01*
X54926Y77451D01*
X54998Y77613D01*
X55095Y77775D01*
X55200Y77929D01*
X55322Y78082D01*
X55467Y78236D01*
X55476Y78244D01*
X55508Y78268D01*
X55548Y78309D01*
X55613Y78357D01*
X55694Y78422D01*
X55799Y78487D01*
X55912Y78560D01*
X56042Y78632D01*
X56187Y78705D01*
X56349Y78778D01*
X56519Y78843D01*
X56713Y78908D01*
X56916Y78956D01*
X57126Y78996D01*
X57353Y79021D01*
X57595Y79029D01*
X57652D01*
X57725Y79021D01*
D02*
G37*
G36*
X8966Y77095D02*
X8974D01*
X8982Y77103D01*
X9007Y77120D01*
X9039Y77136D01*
X9128Y77176D01*
X9241Y77233D01*
X9371Y77281D01*
X9524Y77322D01*
X9686Y77354D01*
X9856Y77362D01*
X9929D01*
X9977Y77354D01*
X10042Y77346D01*
X10115Y77338D01*
X10196Y77322D01*
X10285Y77298D01*
X10479Y77241D01*
X10584Y77201D01*
X10681Y77152D01*
X10786Y77095D01*
X10883Y77022D01*
X10981Y76950D01*
X11070Y76861D01*
X11078Y76853D01*
X11094Y76837D01*
X11110Y76812D01*
X11142Y76772D01*
X11183Y76723D01*
X11223Y76658D01*
X11264Y76594D01*
X11312Y76513D01*
X11353Y76424D01*
X11393Y76319D01*
X11434Y76214D01*
X11474Y76100D01*
X11506Y75979D01*
X11523Y75841D01*
X11539Y75704D01*
X11547Y75558D01*
Y75550D01*
Y75526D01*
Y75477D01*
X11539Y75429D01*
X11531Y75356D01*
X11523Y75275D01*
X11506Y75186D01*
X11490Y75097D01*
X11434Y74887D01*
X11353Y74668D01*
X11304Y74555D01*
X11248Y74450D01*
X11175Y74345D01*
X11094Y74248D01*
X11086Y74240D01*
X11070Y74223D01*
X11045Y74199D01*
X11013Y74167D01*
X10964Y74134D01*
X10916Y74086D01*
X10851Y74045D01*
X10778Y73997D01*
X10697Y73948D01*
X10608Y73908D01*
X10414Y73827D01*
X10301Y73795D01*
X10180Y73770D01*
X10058Y73754D01*
X9929Y73746D01*
X9880D01*
X9840Y73754D01*
X9799D01*
X9743Y73762D01*
X9622Y73786D01*
X9468Y73827D01*
X9306Y73884D01*
X9136Y73965D01*
X8966Y74078D01*
Y73819D01*
X7874D01*
Y78956D01*
X8966D01*
Y77095D01*
D02*
G37*
%LPC*%
G36*
X23948Y93455D02*
X23790D01*
X23684Y93437D01*
X23543Y93420D01*
X23403Y93402D01*
X23227Y93385D01*
X23033Y93332D01*
X22629Y93226D01*
X22207Y93050D01*
X21995Y92945D01*
X21784Y92822D01*
X21591Y92681D01*
X21397Y92505D01*
X21380Y92488D01*
X21362Y92470D01*
X21309Y92417D01*
X21239Y92329D01*
X21169Y92241D01*
X21098Y92136D01*
X21010Y91995D01*
X20922Y91854D01*
X20817Y91678D01*
X20729Y91485D01*
X20588Y91063D01*
X20465Y90570D01*
X20448Y90306D01*
X20430Y90025D01*
Y90007D01*
Y89955D01*
Y89884D01*
X20448Y89779D01*
X20465Y89638D01*
X20483Y89497D01*
X20553Y89145D01*
X20659Y88741D01*
X20834Y88336D01*
X20958Y88125D01*
X21081Y87932D01*
X21221Y87738D01*
X21397Y87545D01*
X21415Y87527D01*
X21450Y87510D01*
X21503Y87457D01*
X21573Y87404D01*
X21679Y87334D01*
X21784Y87246D01*
X21925Y87158D01*
X22083Y87087D01*
X22259Y86999D01*
X22453Y86911D01*
X22875Y86753D01*
X23385Y86648D01*
X23666Y86630D01*
X23948Y86612D01*
X24106D01*
X24212Y86630D01*
X24352Y86648D01*
X24493Y86665D01*
X24669Y86683D01*
X24863Y86735D01*
X25267Y86841D01*
X25689Y86999D01*
X25900Y87105D01*
X26112Y87246D01*
X26305Y87386D01*
X26498Y87545D01*
X26516Y87562D01*
X26534Y87597D01*
X26586Y87650D01*
X26657Y87721D01*
X26727Y87809D01*
X26815Y87932D01*
X26903Y88055D01*
X26991Y88213D01*
X27079Y88389D01*
X27167Y88565D01*
X27325Y88987D01*
X27448Y89480D01*
X27466Y89743D01*
X27483Y90025D01*
Y90042D01*
Y90095D01*
Y90183D01*
X27466Y90289D01*
X27448Y90412D01*
X27431Y90570D01*
X27360Y90922D01*
X27237Y91309D01*
X27061Y91731D01*
X26956Y91925D01*
X26833Y92136D01*
X26674Y92329D01*
X26498Y92505D01*
X26481Y92523D01*
X26446Y92540D01*
X26393Y92593D01*
X26323Y92646D01*
X26235Y92734D01*
X26112Y92804D01*
X25971Y92892D01*
X25812Y92980D01*
X25637Y93068D01*
X25443Y93156D01*
X25021Y93314D01*
X24511Y93420D01*
X24229Y93437D01*
X23948Y93455D01*
D02*
G37*
G36*
X57595Y77961D02*
X57522D01*
X57474Y77953D01*
X57409Y77945D01*
X57344Y77937D01*
X57263Y77929D01*
X57174Y77904D01*
X56988Y77856D01*
X56794Y77775D01*
X56697Y77726D01*
X56600Y77670D01*
X56511Y77605D01*
X56422Y77524D01*
X56414Y77516D01*
X56406Y77508D01*
X56382Y77484D01*
X56349Y77443D01*
X56317Y77403D01*
X56285Y77354D01*
X56244Y77289D01*
X56204Y77225D01*
X56155Y77144D01*
X56115Y77055D01*
X56050Y76861D01*
X55993Y76634D01*
X55985Y76513D01*
X55977Y76383D01*
Y76375D01*
Y76351D01*
Y76319D01*
X55985Y76270D01*
X55993Y76205D01*
X56001Y76141D01*
X56034Y75979D01*
X56082Y75793D01*
X56163Y75607D01*
X56220Y75510D01*
X56277Y75421D01*
X56341Y75332D01*
X56422Y75243D01*
X56430Y75235D01*
X56446Y75227D01*
X56471Y75202D01*
X56503Y75178D01*
X56551Y75146D01*
X56600Y75105D01*
X56665Y75065D01*
X56738Y75032D01*
X56818Y74992D01*
X56907Y74951D01*
X57102Y74879D01*
X57336Y74830D01*
X57466Y74822D01*
X57595Y74814D01*
X57668D01*
X57717Y74822D01*
X57781Y74830D01*
X57846Y74838D01*
X57927Y74846D01*
X58016Y74871D01*
X58202Y74919D01*
X58396Y74992D01*
X58493Y75041D01*
X58590Y75105D01*
X58679Y75170D01*
X58768Y75243D01*
X58776Y75251D01*
X58784Y75267D01*
X58809Y75291D01*
X58841Y75324D01*
X58873Y75364D01*
X58914Y75421D01*
X58954Y75477D01*
X58995Y75550D01*
X59035Y75631D01*
X59076Y75712D01*
X59148Y75906D01*
X59205Y76133D01*
X59213Y76254D01*
X59221Y76383D01*
Y76392D01*
Y76416D01*
Y76456D01*
X59213Y76505D01*
X59205Y76561D01*
X59197Y76634D01*
X59165Y76796D01*
X59108Y76974D01*
X59027Y77168D01*
X58978Y77257D01*
X58922Y77354D01*
X58849Y77443D01*
X58768Y77524D01*
X58760Y77532D01*
X58744Y77540D01*
X58720Y77565D01*
X58687Y77589D01*
X58647Y77629D01*
X58590Y77662D01*
X58526Y77702D01*
X58453Y77743D01*
X58372Y77783D01*
X58283Y77824D01*
X58089Y77896D01*
X57854Y77945D01*
X57725Y77953D01*
X57595Y77961D01*
D02*
G37*
G36*
X9589Y76634D02*
X9541D01*
X9476Y76618D01*
X9403Y76602D01*
X9306Y76569D01*
X9201Y76529D01*
X9087Y76464D01*
X8966Y76383D01*
Y74765D01*
X8982Y74749D01*
X9023Y74717D01*
X9087Y74676D01*
X9168Y74620D01*
X9266Y74563D01*
X9371Y74523D01*
X9484Y74490D01*
X9605Y74474D01*
X9622D01*
X9670Y74482D01*
X9743Y74490D01*
X9824Y74515D01*
X9921Y74547D01*
X10026Y74595D01*
X10123Y74668D01*
X10212Y74765D01*
X10220Y74782D01*
X10244Y74822D01*
X10285Y74887D01*
X10325Y74976D01*
X10366Y75089D01*
X10406Y75227D01*
X10430Y75388D01*
X10439Y75574D01*
Y75582D01*
Y75599D01*
Y75623D01*
Y75655D01*
X10430Y75744D01*
X10406Y75858D01*
X10382Y75987D01*
X10341Y76117D01*
X10285Y76238D01*
X10204Y76351D01*
X10196Y76367D01*
X10164Y76400D01*
X10107Y76440D01*
X10042Y76497D01*
X9953Y76545D01*
X9848Y76594D01*
X9727Y76626D01*
X9589Y76634D01*
D02*
G37*
%LPD*%
D60*
X8268Y80709D02*
X74410D01*
D94*
X427391Y248148D02*
Y246149D01*
Y247148D01*
X428723D01*
Y248148D01*
Y246149D01*
X430723Y247815D02*
X430390Y248148D01*
X429723D01*
X429390Y247815D01*
Y246482D01*
X429723Y246149D01*
X430390D01*
X430723Y246482D01*
X434722Y247815D02*
X434388Y248148D01*
X433722D01*
X433389Y247815D01*
Y247481D01*
X433722Y247148D01*
X434388D01*
X434722Y246815D01*
Y246482D01*
X434388Y246149D01*
X433722D01*
X433389Y246482D01*
X435388Y248148D02*
Y246815D01*
X436055Y246149D01*
X436721Y246815D01*
Y248148D01*
X437387Y246149D02*
Y248148D01*
X438720Y246149D01*
Y248148D01*
X439387D02*
X440720D01*
X440053D01*
Y246149D01*
X426391Y244789D02*
Y242789D01*
X427391D01*
X427724Y243123D01*
Y244456D01*
X427391Y244789D01*
X426391D01*
X428390Y242789D02*
Y244789D01*
X429390D01*
X429723Y244456D01*
Y243789D01*
X429390Y243456D01*
X428390D01*
X429057D02*
X429723Y242789D01*
X430390D02*
Y244122D01*
X431056Y244789D01*
X431722Y244122D01*
Y242789D01*
Y243789D01*
X430390D01*
X433722Y244456D02*
X433389Y244789D01*
X432722D01*
X432389Y244456D01*
Y243123D01*
X432722Y242789D01*
X433389D01*
X433722Y243123D01*
X435388Y244789D02*
X434722D01*
X434388Y244456D01*
Y243123D01*
X434722Y242789D01*
X435388D01*
X435721Y243123D01*
Y244456D01*
X435388Y244789D01*
X436388Y242789D02*
Y244789D01*
X437721Y242789D01*
Y244789D01*
X439720D02*
X438387D01*
Y242789D01*
X439720D01*
X438387Y243789D02*
X439053D01*
X441719Y244456D02*
X441386Y244789D01*
X440720D01*
X440386Y244456D01*
Y244122D01*
X440720Y243789D01*
X441386D01*
X441719Y243456D01*
Y243123D01*
X441386Y242789D01*
X440720D01*
X440386Y243123D01*
D95*
X278543Y190453D02*
D03*
Y197343D02*
D03*
X62205Y31102D02*
D03*
Y24213D02*
D03*
X72146Y31201D02*
D03*
Y24311D02*
D03*
X270669Y190453D02*
D03*
Y197343D02*
D03*
X313779Y172343D02*
D03*
Y165453D02*
D03*
X82677Y187500D02*
D03*
Y194390D02*
D03*
X90551Y187500D02*
D03*
Y194390D02*
D03*
X114173D02*
D03*
Y187500D02*
D03*
X98425D02*
D03*
Y194390D02*
D03*
X106299Y187500D02*
D03*
Y194390D02*
D03*
X352362Y47343D02*
D03*
Y54232D02*
D03*
X269291Y264469D02*
D03*
Y257579D02*
D03*
X276772Y264469D02*
D03*
Y257579D02*
D03*
X284252Y264469D02*
D03*
Y257579D02*
D03*
X281890Y172343D02*
D03*
Y165453D02*
D03*
D96*
X214469Y75394D02*
D03*
X221358D02*
D03*
X297244Y224508D02*
D03*
X304134D02*
D03*
X360138Y119291D02*
D03*
X353248D02*
D03*
X470965Y53307D02*
D03*
X464075D02*
D03*
X470965Y45827D02*
D03*
X464075D02*
D03*
X353248Y127559D02*
D03*
X360138D02*
D03*
X252953Y38091D02*
D03*
X259842D02*
D03*
X214469Y67028D02*
D03*
X221358D02*
D03*
X31594Y140157D02*
D03*
X38484D02*
D03*
X31594Y125591D02*
D03*
X38484D02*
D03*
X31594Y110630D02*
D03*
X38484D02*
D03*
X269587Y221654D02*
D03*
X262697D02*
D03*
X360138Y105905D02*
D03*
X353248D02*
D03*
X381594Y230804D02*
D03*
X388484D02*
D03*
X381594Y223420D02*
D03*
X388484D02*
D03*
X476870Y200383D02*
D03*
X483760D02*
D03*
X476870Y192913D02*
D03*
X483760D02*
D03*
X476870Y222537D02*
D03*
X483760D02*
D03*
X476870Y215152D02*
D03*
X483760D02*
D03*
X381594Y216036D02*
D03*
X388484D02*
D03*
X476870Y185529D02*
D03*
X483760D02*
D03*
Y229921D02*
D03*
X476870D02*
D03*
X381594Y208651D02*
D03*
X388484D02*
D03*
X483760Y237402D02*
D03*
X476870D02*
D03*
X241634Y147638D02*
D03*
X234744D02*
D03*
X212992Y143602D02*
D03*
X219882D02*
D03*
X212992Y151772D02*
D03*
X219882D02*
D03*
D97*
X478937Y71595D02*
D03*
Y61398D02*
D03*
X485630Y71595D02*
D03*
Y61398D02*
D03*
X478937Y89311D02*
D03*
Y79114D02*
D03*
X485630Y89311D02*
D03*
Y79114D02*
D03*
X478937Y107027D02*
D03*
Y96831D02*
D03*
X485630Y107027D02*
D03*
Y96831D02*
D03*
X248622Y174390D02*
D03*
Y164193D02*
D03*
X255315Y174390D02*
D03*
Y164193D02*
D03*
X213189Y125177D02*
D03*
Y114980D02*
D03*
X219882Y125177D02*
D03*
Y114980D02*
D03*
X213189Y105492D02*
D03*
Y95295D02*
D03*
X219882Y105492D02*
D03*
Y95295D02*
D03*
D98*
X478937Y68071D02*
D03*
Y64921D02*
D03*
X485630Y68071D02*
D03*
Y64921D02*
D03*
X478937Y85787D02*
D03*
Y82638D02*
D03*
X485630Y85787D02*
D03*
Y82638D02*
D03*
X478937Y103504D02*
D03*
Y100354D02*
D03*
X485630Y103504D02*
D03*
Y100354D02*
D03*
X248622Y170866D02*
D03*
Y167717D02*
D03*
X255315Y170866D02*
D03*
Y167717D02*
D03*
X213189Y121653D02*
D03*
Y118504D02*
D03*
X219882Y121653D02*
D03*
Y118504D02*
D03*
X213189Y101969D02*
D03*
Y98819D02*
D03*
X219882Y101969D02*
D03*
Y98819D02*
D03*
D99*
X101870Y204626D02*
D03*
X104429D02*
D03*
X106988D02*
D03*
X109547D02*
D03*
X112106D02*
D03*
X114665D02*
D03*
X101870Y222146D02*
D03*
X104429D02*
D03*
X106988D02*
D03*
X109547D02*
D03*
X112106D02*
D03*
X114665D02*
D03*
D100*
X108268Y213386D02*
D03*
D101*
X77756Y215551D02*
D03*
X74016Y225394D02*
D03*
X81496D02*
D03*
D102*
X348228Y240158D02*
D03*
X358071Y243898D02*
D03*
Y236417D02*
D03*
X348228Y225984D02*
D03*
X358071Y229724D02*
D03*
Y222244D02*
D03*
D103*
X77756Y234151D02*
D03*
Y249505D02*
D03*
D104*
X65748Y260827D02*
D03*
X50394D02*
D03*
D105*
X252658Y142717D02*
D03*
Y140748D02*
D03*
Y138779D02*
D03*
Y136811D02*
D03*
Y134843D02*
D03*
Y132874D02*
D03*
Y130905D02*
D03*
Y128937D02*
D03*
Y126969D02*
D03*
Y125000D02*
D03*
Y123031D02*
D03*
Y121063D02*
D03*
Y119095D02*
D03*
Y117126D02*
D03*
Y115157D02*
D03*
Y113189D02*
D03*
Y111221D02*
D03*
Y109252D02*
D03*
Y107283D02*
D03*
Y105315D02*
D03*
Y103347D02*
D03*
Y101378D02*
D03*
Y99410D02*
D03*
Y97441D02*
D03*
Y95472D02*
D03*
Y93504D02*
D03*
Y91535D02*
D03*
Y89567D02*
D03*
Y87598D02*
D03*
Y85630D02*
D03*
Y83661D02*
D03*
Y81693D02*
D03*
Y79724D02*
D03*
Y77756D02*
D03*
Y75787D02*
D03*
Y73819D02*
D03*
X337894D02*
D03*
Y75787D02*
D03*
Y77756D02*
D03*
Y79724D02*
D03*
Y81693D02*
D03*
Y83661D02*
D03*
Y85630D02*
D03*
Y87598D02*
D03*
Y89567D02*
D03*
Y91535D02*
D03*
Y93504D02*
D03*
Y95472D02*
D03*
Y97441D02*
D03*
Y99410D02*
D03*
Y101378D02*
D03*
Y103347D02*
D03*
Y105315D02*
D03*
Y107283D02*
D03*
Y109252D02*
D03*
Y111221D02*
D03*
Y113189D02*
D03*
Y115157D02*
D03*
Y117126D02*
D03*
Y119095D02*
D03*
Y121063D02*
D03*
Y123031D02*
D03*
Y125000D02*
D03*
Y126969D02*
D03*
Y128937D02*
D03*
Y130905D02*
D03*
Y132874D02*
D03*
Y134843D02*
D03*
Y136811D02*
D03*
Y138779D02*
D03*
Y140748D02*
D03*
Y142717D02*
D03*
D106*
X260827Y65650D02*
D03*
X262795D02*
D03*
X264764D02*
D03*
X266732D02*
D03*
X268701D02*
D03*
X270669D02*
D03*
X272638D02*
D03*
X274606D02*
D03*
X276575D02*
D03*
X278543D02*
D03*
X280512D02*
D03*
X282480D02*
D03*
X284449D02*
D03*
X286417D02*
D03*
X288386D02*
D03*
X290354D02*
D03*
X292323D02*
D03*
X294291D02*
D03*
X296260D02*
D03*
X298228D02*
D03*
X300197D02*
D03*
X302165D02*
D03*
X304134D02*
D03*
X306102D02*
D03*
X308071D02*
D03*
X310039D02*
D03*
X312008D02*
D03*
X313976D02*
D03*
X315945D02*
D03*
X317913D02*
D03*
X319882D02*
D03*
X321850D02*
D03*
X323819D02*
D03*
X325787D02*
D03*
X327756D02*
D03*
X329724D02*
D03*
Y150886D02*
D03*
X327756D02*
D03*
X325787D02*
D03*
X323819D02*
D03*
X321850D02*
D03*
X319882D02*
D03*
X317913D02*
D03*
X315945D02*
D03*
X313976D02*
D03*
X312008D02*
D03*
X310039D02*
D03*
X308071D02*
D03*
X306102D02*
D03*
X304134D02*
D03*
X302165D02*
D03*
X300197D02*
D03*
X298228D02*
D03*
X296260D02*
D03*
X294291D02*
D03*
X292323D02*
D03*
X290354D02*
D03*
X288386D02*
D03*
X286417D02*
D03*
X284449D02*
D03*
X282480D02*
D03*
X280512D02*
D03*
X278543D02*
D03*
X276575D02*
D03*
X274606D02*
D03*
X272638D02*
D03*
X270669D02*
D03*
X268701D02*
D03*
X266732D02*
D03*
X264764D02*
D03*
X262795D02*
D03*
X260827D02*
D03*
D107*
X251969Y239764D02*
D03*
D108*
X255906Y248524D02*
D03*
X253937D02*
D03*
X251969D02*
D03*
X250000D02*
D03*
X248031D02*
D03*
X255906Y231004D02*
D03*
X253937D02*
D03*
X251969D02*
D03*
X250000D02*
D03*
X248031D02*
D03*
D109*
X163976Y122047D02*
D03*
X160827D02*
D03*
X157677D02*
D03*
X154528D02*
D03*
X151378D02*
D03*
X148228D02*
D03*
X145079D02*
D03*
X141929D02*
D03*
X138779D02*
D03*
X135630D02*
D03*
X132480D02*
D03*
X129331D02*
D03*
X126181D02*
D03*
X123031D02*
D03*
X119882D02*
D03*
X116732D02*
D03*
X113583D02*
D03*
X110433D02*
D03*
X107283D02*
D03*
X104134D02*
D03*
X100984D02*
D03*
X97835D02*
D03*
X94685D02*
D03*
X91535D02*
D03*
X88386D02*
D03*
X85236D02*
D03*
X82087D02*
D03*
X163976Y76772D02*
D03*
X160827D02*
D03*
X157677D02*
D03*
X154528D02*
D03*
X151378D02*
D03*
X148228D02*
D03*
X145079D02*
D03*
X141929D02*
D03*
X138779D02*
D03*
X135630D02*
D03*
X132480D02*
D03*
X129331D02*
D03*
X126181D02*
D03*
X123031D02*
D03*
X119882D02*
D03*
X116732D02*
D03*
X113583D02*
D03*
X110433D02*
D03*
X107283D02*
D03*
X104134D02*
D03*
X100984D02*
D03*
X97835D02*
D03*
X94685D02*
D03*
X91535D02*
D03*
X88386D02*
D03*
X85236D02*
D03*
X82087D02*
D03*
D110*
X214370Y199902D02*
D03*
Y202461D02*
D03*
Y205020D02*
D03*
Y207579D02*
D03*
X197047Y199902D02*
D03*
Y202461D02*
D03*
Y205020D02*
D03*
Y207579D02*
D03*
X406496Y137500D02*
D03*
Y140059D02*
D03*
Y142618D02*
D03*
Y145177D02*
D03*
X389173Y137500D02*
D03*
Y140059D02*
D03*
Y142618D02*
D03*
Y145177D02*
D03*
D111*
X76870Y151772D02*
D03*
X79429D02*
D03*
X81988D02*
D03*
X84547D02*
D03*
X76870Y169095D02*
D03*
X79429D02*
D03*
X81988D02*
D03*
X84547D02*
D03*
D112*
X344291Y208992D02*
D03*
Y187992D02*
D03*
X334291Y208992D02*
D03*
Y187992D02*
D03*
X324291Y208992D02*
D03*
Y187992D02*
D03*
X314291Y208992D02*
D03*
Y187992D02*
D03*
X304291Y208992D02*
D03*
Y187992D02*
D03*
X294291Y208992D02*
D03*
Y187992D02*
D03*
D113*
X270492Y30118D02*
D03*
X280689D02*
D03*
X270492Y36811D02*
D03*
X280689D02*
D03*
X290177Y30118D02*
D03*
X300374D02*
D03*
X290177Y36811D02*
D03*
X300374D02*
D03*
D114*
X274016Y30118D02*
D03*
X277165D02*
D03*
X274016Y36811D02*
D03*
X277165D02*
D03*
X293701Y30118D02*
D03*
X296850D02*
D03*
X293701Y36811D02*
D03*
X296850D02*
D03*
D115*
X116340Y250000D02*
D03*
X94290D02*
D03*
D116*
X225179Y245081D02*
D03*
Y263581D02*
D03*
D117*
X68504Y204675D02*
D03*
Y184675D02*
D03*
X43307Y194675D02*
D03*
D118*
X393701Y50689D02*
D03*
X407480D02*
D03*
X364173Y198327D02*
D03*
X369587Y50689D02*
D03*
X452756Y153543D02*
D03*
X427165D02*
D03*
X492126Y164173D02*
D03*
X478346D02*
D03*
D119*
X14961Y59055D02*
D03*
Y44882D02*
D03*
X147638Y222441D02*
D03*
Y192913D02*
D03*
Y208268D02*
D03*
X197638Y222441D02*
D03*
X14764Y165354D02*
D03*
Y148622D02*
D03*
Y132874D02*
D03*
Y118110D02*
D03*
Y103347D02*
D03*
D120*
X92520Y39370D02*
D03*
X17618Y226279D02*
D03*
D121*
X359252Y17717D02*
D03*
X66634Y132874D02*
D03*
X511811Y161713D02*
D03*
D122*
X126378Y225098D02*
D03*
Y214272D02*
D03*
D123*
X182973Y222441D02*
D03*
X172146D02*
D03*
X298917Y238484D02*
D03*
X309744D02*
D03*
D124*
X401083Y126969D02*
D03*
X404429D02*
D03*
X391339D02*
D03*
X394685D02*
D03*
D125*
X335531Y225984D02*
D03*
X329626D02*
D03*
X29528Y148622D02*
D03*
X35433D02*
D03*
X29528Y165354D02*
D03*
X35433D02*
D03*
X400984Y105610D02*
D03*
X395079D02*
D03*
X400984Y99508D02*
D03*
X395079D02*
D03*
D126*
X360039Y47736D02*
D03*
Y53642D02*
D03*
D127*
X60630Y246063D02*
D03*
X49606D02*
D03*
X60630Y234151D02*
D03*
X49606D02*
D03*
X60630Y222239D02*
D03*
X49606D02*
D03*
D128*
X486221Y26535D02*
D03*
Y37559D02*
D03*
X478346Y26535D02*
D03*
Y37559D02*
D03*
X124409Y185433D02*
D03*
Y196457D02*
D03*
X132283Y185433D02*
D03*
Y196457D02*
D03*
X381496Y199606D02*
D03*
Y188583D02*
D03*
X388878Y199606D02*
D03*
Y188583D02*
D03*
D129*
X263779Y229525D02*
D03*
X274803D02*
D03*
X334744Y238681D02*
D03*
X323721D02*
D03*
D130*
X234449Y139764D02*
D03*
X241929D02*
D03*
X353346Y135458D02*
D03*
X360827D02*
D03*
X319882Y246850D02*
D03*
X312402D02*
D03*
X255807Y221358D02*
D03*
X248327D02*
D03*
X388386Y237795D02*
D03*
X380906D02*
D03*
D131*
X339370Y54626D02*
D03*
Y47146D02*
D03*
X89567Y222244D02*
D03*
Y214764D02*
D03*
X255512Y256890D02*
D03*
Y264370D02*
D03*
X248819Y256890D02*
D03*
Y264370D02*
D03*
X284252Y242323D02*
D03*
Y249803D02*
D03*
D132*
X216535Y81988D02*
D03*
X221654D02*
D03*
X216634Y60039D02*
D03*
X221752D02*
D03*
X215158Y137008D02*
D03*
X220276D02*
D03*
X215158Y158661D02*
D03*
X220276D02*
D03*
X238583Y76870D02*
D03*
X233465D02*
D03*
X238583Y70866D02*
D03*
X233465D02*
D03*
X47835Y43307D02*
D03*
X42717D02*
D03*
X240748Y155512D02*
D03*
X235630D02*
D03*
X238583Y104921D02*
D03*
X233465D02*
D03*
X238583Y81988D02*
D03*
X233465D02*
D03*
X357972Y95374D02*
D03*
X352854D02*
D03*
X358071Y112598D02*
D03*
X352953D02*
D03*
X358071Y142126D02*
D03*
X352953D02*
D03*
X357874Y69882D02*
D03*
X352756D02*
D03*
X125787Y205512D02*
D03*
X130905D02*
D03*
X207579Y184055D02*
D03*
X202461D02*
D03*
X207579Y188878D02*
D03*
X202461D02*
D03*
X406693Y116831D02*
D03*
X401575D02*
D03*
X394193D02*
D03*
X389075D02*
D03*
X233661Y234252D02*
D03*
X238779D02*
D03*
X274606Y235433D02*
D03*
X269488D02*
D03*
X89961Y133858D02*
D03*
X95079D02*
D03*
X125394D02*
D03*
X130512D02*
D03*
X141142D02*
D03*
X146260D02*
D03*
X156890D02*
D03*
X162008D02*
D03*
X95079Y64961D02*
D03*
X89961D02*
D03*
X130512D02*
D03*
X125394D02*
D03*
X146260D02*
D03*
X141142D02*
D03*
X162008D02*
D03*
X156890D02*
D03*
D133*
X264665Y46555D02*
D03*
Y51673D02*
D03*
X290846Y46555D02*
D03*
Y51673D02*
D03*
X309744Y46555D02*
D03*
Y51673D02*
D03*
X332874Y46555D02*
D03*
Y51673D02*
D03*
X307087Y170177D02*
D03*
Y165059D02*
D03*
X288583Y170177D02*
D03*
Y165059D02*
D03*
X262795Y191339D02*
D03*
Y196457D02*
D03*
X216142Y188779D02*
D03*
Y183661D02*
D03*
X69882Y162992D02*
D03*
Y157874D02*
D03*
D134*
X113583Y69193D02*
D03*
X119685Y64567D02*
D03*
D135*
X401887Y238856D02*
D03*
Y231056D02*
D03*
Y223156D02*
D03*
Y215356D02*
D03*
Y207356D02*
D03*
Y199556D02*
D03*
Y191756D02*
D03*
Y183856D02*
D03*
X463387Y183756D02*
D03*
Y191656D02*
D03*
Y199456D02*
D03*
X463287Y207356D02*
D03*
Y215256D02*
D03*
Y223056D02*
D03*
Y231056D02*
D03*
Y238856D02*
D03*
D136*
X412887Y175656D02*
D03*
X420687D02*
D03*
X428487D02*
D03*
X436487D02*
D03*
X452287D02*
D03*
X444287D02*
D03*
D137*
X43898Y61024D02*
D03*
X70276D02*
D03*
X225984Y193898D02*
D03*
X252362D02*
D03*
D138*
X511811Y206102D02*
D03*
Y179724D02*
D03*
D139*
X200787Y153543D02*
D03*
X191043Y192520D02*
D03*
D140*
X179134Y153543D02*
D03*
X200787Y140945D02*
D03*
X179134D02*
D03*
X169390Y179921D02*
D03*
X191043D02*
D03*
X169390Y192520D02*
D03*
D141*
X183465Y212598D02*
D03*
Y210630D02*
D03*
Y208661D02*
D03*
Y206693D02*
D03*
X171653D02*
D03*
Y208661D02*
D03*
Y210630D02*
D03*
Y212598D02*
D03*
D142*
X177559Y209547D02*
D03*
D143*
X192913Y51181D02*
D03*
Y88583D02*
D03*
D144*
X19685Y19685D02*
D03*
Y255906D02*
D03*
X531496D02*
D03*
X393701Y19685D02*
D03*
D145*
X102165Y13780D02*
D03*
X92165D02*
D03*
X82165D02*
D03*
X72165D02*
D03*
X62165D02*
D03*
X13780Y196693D02*
D03*
Y186693D02*
D03*
X525433Y81496D02*
D03*
Y71496D02*
D03*
Y61496D02*
D03*
Y51496D02*
D03*
Y41496D02*
D03*
Y31496D02*
D03*
X535433Y81496D02*
D03*
Y71496D02*
D03*
Y61496D02*
D03*
Y51496D02*
D03*
Y41496D02*
D03*
Y91496D02*
D03*
Y101496D02*
D03*
X525433Y91496D02*
D03*
Y101496D02*
D03*
X535433Y111496D02*
D03*
Y121496D02*
D03*
X525433Y111496D02*
D03*
Y121496D02*
D03*
D146*
X52165Y13780D02*
D03*
D147*
X13780Y206693D02*
D03*
X535433Y31496D02*
D03*
D148*
X538386Y226378D02*
D03*
D149*
Y216378D02*
D03*
Y206378D02*
D03*
Y196378D02*
D03*
Y186378D02*
D03*
Y176378D02*
D03*
Y166378D02*
D03*
Y156378D02*
D03*
X320394Y261811D02*
D03*
X310394D02*
D03*
X300394D02*
D03*
X359252Y172402D02*
D03*
X369252Y162402D02*
D03*
Y172402D02*
D03*
D150*
X330394Y261811D02*
D03*
X359252Y162402D02*
D03*
D151*
X139764Y244094D02*
D03*
X153543D02*
D03*
X167323D02*
D03*
X181103D02*
D03*
D152*
X194882D02*
D03*
D153*
X505433Y121496D02*
D03*
X443433Y31496D02*
D03*
D154*
X5906Y33465D02*
D03*
X33465D02*
D03*
Y5906D02*
D03*
X5906Y242126D02*
D03*
X33465D02*
D03*
Y269685D02*
D03*
X517717D02*
D03*
X545276Y242126D02*
D03*
X517717D02*
D03*
X379921Y5906D02*
D03*
X407480D02*
D03*
Y33465D02*
D03*
X379921D02*
D03*
M02*
