G04 Layer_Color=8421504*
%FSLAX25Y25*%
%MOIN*%
G70*
G01*
G75*
%ADD11R,0.10000X0.04500*%
%ADD12R,0.05500X0.10000*%
%ADD13R,0.13386X0.07087*%
%ADD14R,0.13386X0.18504*%
%ADD15R,0.18504X0.13386*%
%ADD16R,0.06890X0.04921*%
%ADD17C,0.03937*%
%ADD18R,0.05906X0.05512*%
%ADD19R,0.05512X0.04331*%
%ADD20R,0.04331X0.05512*%
%ADD21R,0.03740X0.03740*%
%ADD22R,0.04331X0.01772*%
%ADD23R,0.04331X0.02756*%
%ADD24R,0.02362X0.03150*%
%ADD25R,0.03150X0.02362*%
%ADD26R,0.04724X0.04724*%
%ADD27R,0.04724X0.04724*%
%ADD28R,0.05906X0.09449*%
%ADD29R,0.05512X0.05906*%
%ADD30R,0.07087X0.08465*%
%ADD31R,0.08465X0.07087*%
%ADD32R,0.02362X0.03150*%
%ADD33R,0.03150X0.03150*%
%ADD34R,0.03150X0.03150*%
%ADD35R,0.05000X0.12000*%
%ADD36R,0.12000X0.05000*%
%ADD37R,0.27559X0.15748*%
%ADD38R,0.11417X0.21260*%
%ADD39R,0.03740X0.02559*%
%ADD40R,0.03150X0.02362*%
%ADD41R,0.04921X0.06890*%
%ADD42R,0.02362X0.02165*%
%ADD43R,0.02756X0.04331*%
%ADD44R,0.01772X0.04331*%
%ADD45R,0.09055X0.05906*%
%ADD46R,0.07087X0.13386*%
%ADD47O,0.06496X0.01161*%
%ADD48O,0.01161X0.06496*%
%ADD49R,0.06929X0.11614*%
%ADD50O,0.05315X0.01693*%
%ADD51O,0.05709X0.02362*%
G04:AMPARAMS|DCode=52|XSize=93.7mil|YSize=64.96mil|CornerRadius=16.24mil|HoleSize=0mil|Usage=FLASHONLY|Rotation=270.000|XOffset=0mil|YOffset=0mil|HoleType=Round|Shape=RoundedRectangle|*
%AMROUNDEDRECTD52*
21,1,0.09370,0.03248,0,0,270.0*
21,1,0.06122,0.06496,0,0,270.0*
1,1,0.03248,-0.01624,-0.03061*
1,1,0.03248,-0.01624,0.03061*
1,1,0.03248,0.01624,0.03061*
1,1,0.03248,0.01624,-0.03061*
%
%ADD52ROUNDEDRECTD52*%
%ADD53R,0.02756X0.00984*%
%ADD54R,0.05512X0.01693*%
%ADD55O,0.05315X0.01142*%
%ADD56R,0.06614X0.07402*%
%ADD57R,0.07874X0.21654*%
%ADD58O,0.05118X0.07480*%
%ADD59R,0.05118X0.07480*%
%ADD60O,0.02165X0.04724*%
D11*
X510154Y337281D02*
D03*
Y329481D02*
D03*
Y321581D02*
D03*
Y313781D02*
D03*
Y305781D02*
D03*
Y297981D02*
D03*
Y290181D02*
D03*
Y282281D02*
D03*
X571655Y282181D02*
D03*
Y290081D02*
D03*
Y297881D02*
D03*
X571555Y305781D02*
D03*
Y313681D02*
D03*
Y321481D02*
D03*
Y329481D02*
D03*
Y337281D02*
D03*
D12*
X521154Y274081D02*
D03*
X528955D02*
D03*
X536755D02*
D03*
X544755D02*
D03*
X560555D02*
D03*
X552555D02*
D03*
D13*
X486221Y242126D02*
D03*
X454134Y212205D02*
D03*
Y200394D02*
D03*
X19685Y299213D02*
D03*
X167323Y269685D02*
D03*
X110236Y360236D02*
D03*
X90551Y265748D02*
D03*
X275590D02*
D03*
X19685Y216535D02*
D03*
Y236221D02*
D03*
Y196850D02*
D03*
Y181102D02*
D03*
Y165354D02*
D03*
X319685Y270866D02*
D03*
D14*
X113189Y17717D02*
D03*
X492126D02*
D03*
D15*
X334646Y59055D02*
D03*
X19685Y318898D02*
D03*
X167323Y248031D02*
D03*
X389764Y358268D02*
D03*
X615158Y260827D02*
D03*
D16*
X477559Y279429D02*
D03*
Y268602D02*
D03*
D17*
X108366Y98721D02*
D03*
X148819Y292126D02*
D03*
X114665Y90551D02*
D03*
D18*
X507874Y202756D02*
D03*
X518898D02*
D03*
X507874Y212598D02*
D03*
X518898D02*
D03*
X244488Y309055D02*
D03*
X255512D02*
D03*
X128740Y287402D02*
D03*
X139764D02*
D03*
X408268Y336614D02*
D03*
X419291D02*
D03*
X404331Y272047D02*
D03*
X415354D02*
D03*
D19*
X493504Y207776D02*
D03*
Y200886D02*
D03*
X484646Y207776D02*
D03*
Y200886D02*
D03*
X280512Y55610D02*
D03*
Y62500D02*
D03*
X285433Y26083D02*
D03*
Y32972D02*
D03*
X295276Y26083D02*
D03*
Y32972D02*
D03*
X196850Y26083D02*
D03*
Y32972D02*
D03*
X206693Y26083D02*
D03*
Y32972D02*
D03*
X336614Y203740D02*
D03*
Y196850D02*
D03*
X316929D02*
D03*
Y203740D02*
D03*
X108268Y289862D02*
D03*
Y296752D02*
D03*
X423228Y48720D02*
D03*
Y41831D02*
D03*
X411417Y48720D02*
D03*
Y41831D02*
D03*
X399606Y48720D02*
D03*
Y41831D02*
D03*
X387795Y48720D02*
D03*
Y41831D02*
D03*
X299213Y196850D02*
D03*
Y203740D02*
D03*
X528445Y55413D02*
D03*
Y62303D02*
D03*
X538287D02*
D03*
Y55413D02*
D03*
X548130D02*
D03*
Y62303D02*
D03*
X557972D02*
D03*
Y55413D02*
D03*
D20*
X516240Y163386D02*
D03*
X509350D02*
D03*
X516240Y171260D02*
D03*
X509350D02*
D03*
Y187008D02*
D03*
X516240D02*
D03*
Y179134D02*
D03*
X509350D02*
D03*
X239665Y110236D02*
D03*
X232776D02*
D03*
X239665Y98425D02*
D03*
X232776D02*
D03*
X353839Y242126D02*
D03*
X360728D02*
D03*
X456201Y226378D02*
D03*
X449311D02*
D03*
X94488Y326772D02*
D03*
X87598D02*
D03*
X94488Y316929D02*
D03*
X87598D02*
D03*
X108268Y261811D02*
D03*
X115157D02*
D03*
Y271654D02*
D03*
X108268D02*
D03*
X87598Y307087D02*
D03*
X94488D02*
D03*
X108268Y281496D02*
D03*
X115157D02*
D03*
X87598Y297244D02*
D03*
X94488D02*
D03*
X87598Y287402D02*
D03*
X94488D02*
D03*
X42815Y196850D02*
D03*
X35925D02*
D03*
X42815Y181102D02*
D03*
X35925D02*
D03*
X42815Y165354D02*
D03*
X35925D02*
D03*
X408563Y296457D02*
D03*
X401673D02*
D03*
X417323D02*
D03*
X424213D02*
D03*
Y304724D02*
D03*
X417323D02*
D03*
X384350Y297244D02*
D03*
X391240D02*
D03*
X374508Y136811D02*
D03*
X381398D02*
D03*
X476870Y314961D02*
D03*
X469980D02*
D03*
X492618Y322835D02*
D03*
X485728D02*
D03*
X597933Y297244D02*
D03*
X591043D02*
D03*
X597933Y288386D02*
D03*
X591043D02*
D03*
X597933Y332677D02*
D03*
X591043D02*
D03*
X597933Y306102D02*
D03*
X591043D02*
D03*
X476870Y305118D02*
D03*
X469980D02*
D03*
X597933Y279528D02*
D03*
X591043D02*
D03*
X597933Y323819D02*
D03*
X591043D02*
D03*
X597933Y314961D02*
D03*
X591043D02*
D03*
X476870Y295276D02*
D03*
X469980D02*
D03*
X360728Y234252D02*
D03*
X353839D02*
D03*
Y226378D02*
D03*
X360728D02*
D03*
X261319Y177165D02*
D03*
X254429D02*
D03*
X239567Y172933D02*
D03*
X232677D02*
D03*
Y181791D02*
D03*
X239567D02*
D03*
X353839Y218504D02*
D03*
X360728D02*
D03*
Y210630D02*
D03*
X353839D02*
D03*
X87598Y275590D02*
D03*
X94488D02*
D03*
X72342Y204724D02*
D03*
X65453D02*
D03*
X639665Y69587D02*
D03*
X646555D02*
D03*
X270177Y79724D02*
D03*
X277067D02*
D03*
Y71850D02*
D03*
X270177D02*
D03*
D21*
X519488Y111122D02*
D03*
X513779D02*
D03*
X519488Y117028D02*
D03*
X513779D02*
D03*
X519488Y122933D02*
D03*
X513779D02*
D03*
X519488Y128839D02*
D03*
X513779D02*
D03*
X519488Y134744D02*
D03*
X513779D02*
D03*
X519488Y140650D02*
D03*
X513779D02*
D03*
X519488Y146555D02*
D03*
X513779D02*
D03*
X519488Y152461D02*
D03*
X513779D02*
D03*
D22*
X275000Y197244D02*
D03*
Y200394D02*
D03*
X268307Y197244D02*
D03*
Y200394D02*
D03*
X232874Y151181D02*
D03*
Y148031D02*
D03*
X239567Y151181D02*
D03*
Y148031D02*
D03*
X232874Y131496D02*
D03*
Y128347D02*
D03*
X239567Y131496D02*
D03*
Y128347D02*
D03*
D23*
X275000Y193720D02*
D03*
Y203917D02*
D03*
X268307Y193720D02*
D03*
Y203917D02*
D03*
X232874Y154705D02*
D03*
Y144508D02*
D03*
X239567Y154705D02*
D03*
Y144508D02*
D03*
X232874Y135020D02*
D03*
Y124823D02*
D03*
X239567Y135020D02*
D03*
Y124823D02*
D03*
D24*
X196850Y114173D02*
D03*
Y119291D02*
D03*
Y85236D02*
D03*
Y80118D02*
D03*
X283465Y78740D02*
D03*
Y73622D02*
D03*
X309055Y78740D02*
D03*
Y73622D02*
D03*
X329724Y78740D02*
D03*
Y73622D02*
D03*
X354331Y78740D02*
D03*
Y73622D02*
D03*
X326772Y196850D02*
D03*
Y201969D02*
D03*
X308071Y196850D02*
D03*
Y201969D02*
D03*
X616142Y28150D02*
D03*
Y23031D02*
D03*
X118110Y290748D02*
D03*
Y295866D02*
D03*
D25*
X217815Y170965D02*
D03*
X222933D02*
D03*
X217815Y183760D02*
D03*
X222933D02*
D03*
X250787Y101676D02*
D03*
X255906D02*
D03*
X250787Y96850D02*
D03*
X255906D02*
D03*
X273031Y242126D02*
D03*
X278150D02*
D03*
X255315Y185039D02*
D03*
X260433D02*
D03*
X250787Y129921D02*
D03*
X255906D02*
D03*
X250787Y106501D02*
D03*
X255906D02*
D03*
X374016Y123031D02*
D03*
X379134D02*
D03*
X374016Y144685D02*
D03*
X379134D02*
D03*
X374016Y171260D02*
D03*
X379134D02*
D03*
X374016Y179528D02*
D03*
X379134D02*
D03*
X429528Y226378D02*
D03*
X434646D02*
D03*
X168799Y222050D02*
D03*
X173917D02*
D03*
X168799Y214176D02*
D03*
X173917D02*
D03*
X168799Y229924D02*
D03*
X173917D02*
D03*
X86221Y204724D02*
D03*
X81102D02*
D03*
X624114Y56299D02*
D03*
X618996D02*
D03*
X618898Y81988D02*
D03*
X624016D02*
D03*
X386614Y332677D02*
D03*
X391732D02*
D03*
X416535Y328740D02*
D03*
X411417D02*
D03*
X87795Y165354D02*
D03*
X82677D02*
D03*
X125984D02*
D03*
X120866D02*
D03*
X142323D02*
D03*
X137205D02*
D03*
X158661D02*
D03*
X153543D02*
D03*
X82677Y90551D02*
D03*
X87795D02*
D03*
X120866D02*
D03*
X125984D02*
D03*
X137205D02*
D03*
X142323D02*
D03*
X153543D02*
D03*
X158661D02*
D03*
D26*
X261614Y169291D02*
D03*
X254134D02*
D03*
X381496Y164370D02*
D03*
X374016D02*
D03*
X147244Y324803D02*
D03*
X139764D02*
D03*
X401575Y304724D02*
D03*
X409055D02*
D03*
X406102Y263386D02*
D03*
X413583D02*
D03*
X391535Y305118D02*
D03*
X384055D02*
D03*
X418898Y318898D02*
D03*
X411417D02*
D03*
X485433Y331693D02*
D03*
X492913D02*
D03*
D27*
X361221Y72047D02*
D03*
Y79527D02*
D03*
X307874Y278150D02*
D03*
Y270669D02*
D03*
D28*
X55118Y287402D02*
D03*
X66142D02*
D03*
X55118Y273622D02*
D03*
X66142D02*
D03*
X55118Y259842D02*
D03*
X66142D02*
D03*
D29*
X487205Y279134D02*
D03*
Y268110D02*
D03*
X496063Y279134D02*
D03*
Y268110D02*
D03*
D30*
X145669Y356102D02*
D03*
Y340748D02*
D03*
D31*
X55512Y303150D02*
D03*
X70866D02*
D03*
D32*
X139567Y307776D02*
D03*
X147047D02*
D03*
X143307Y317618D02*
D03*
D33*
X423228Y34449D02*
D03*
Y28543D02*
D03*
X411417Y34449D02*
D03*
Y28543D02*
D03*
X399606Y34449D02*
D03*
Y28543D02*
D03*
X387795Y34449D02*
D03*
Y28543D02*
D03*
D34*
X596850Y64764D02*
D03*
X602756D02*
D03*
X596850Y73425D02*
D03*
X602756D02*
D03*
D35*
X602992Y36748D02*
D03*
X592992D02*
D03*
X602992Y15748D02*
D03*
X592992D02*
D03*
X582992Y36748D02*
D03*
Y15748D02*
D03*
X572992Y36748D02*
D03*
Y15748D02*
D03*
X562992Y36748D02*
D03*
Y15748D02*
D03*
X552992Y36748D02*
D03*
Y15748D02*
D03*
X542992Y36748D02*
D03*
Y15748D02*
D03*
X532992Y36748D02*
D03*
Y15748D02*
D03*
X520354Y232937D02*
D03*
Y253937D02*
D03*
X530354Y232937D02*
D03*
Y253937D02*
D03*
X540354Y232937D02*
D03*
Y253937D02*
D03*
X550354Y232937D02*
D03*
Y253937D02*
D03*
X560354Y232937D02*
D03*
Y253937D02*
D03*
X570354Y232937D02*
D03*
Y253937D02*
D03*
D36*
X396197Y192244D02*
D03*
X375197D02*
D03*
X396197Y202244D02*
D03*
X375197D02*
D03*
X396197Y212244D02*
D03*
X375197D02*
D03*
X396197Y222244D02*
D03*
X375197D02*
D03*
X396197Y232244D02*
D03*
X375197D02*
D03*
X396197Y242244D02*
D03*
X375197D02*
D03*
D37*
X192913Y295276D02*
D03*
Y334646D02*
D03*
D38*
X318110Y320866D02*
D03*
X356299D02*
D03*
D39*
X64665Y239567D02*
D03*
Y246654D02*
D03*
X55413Y243110D02*
D03*
D40*
X484252Y310827D02*
D03*
Y303346D02*
D03*
X494095Y307087D02*
D03*
X484252Y295079D02*
D03*
Y287598D02*
D03*
X494095Y291339D02*
D03*
D41*
X139272Y297244D02*
D03*
X128445D02*
D03*
X255413Y291339D02*
D03*
X244587D02*
D03*
X341732Y268110D02*
D03*
X352559D02*
D03*
X341732Y277953D02*
D03*
X352559D02*
D03*
D42*
X619882Y51279D02*
D03*
X623228D02*
D03*
X623130Y86910D02*
D03*
X619783D02*
D03*
D43*
X290177Y55709D02*
D03*
X300374D02*
D03*
X290177Y62402D02*
D03*
X300374D02*
D03*
X309862Y55709D02*
D03*
X320059D02*
D03*
X309862Y62402D02*
D03*
X320059D02*
D03*
D44*
X293701Y55709D02*
D03*
X296850D02*
D03*
X293701Y62402D02*
D03*
X296850D02*
D03*
X313386Y55709D02*
D03*
X316535D02*
D03*
X313386Y62402D02*
D03*
X316535D02*
D03*
D45*
X291929Y242126D02*
D03*
X318307D02*
D03*
X429724D02*
D03*
X456102D02*
D03*
X481693Y353346D02*
D03*
X455315D02*
D03*
D46*
X344488Y15748D02*
D03*
X364173D02*
D03*
X147638D02*
D03*
X167323D02*
D03*
X423228D02*
D03*
X411417D02*
D03*
X399606D02*
D03*
X387795D02*
D03*
X631791Y53937D02*
D03*
Y84653D02*
D03*
X605315Y354331D02*
D03*
X620079D02*
D03*
D47*
X272342Y172244D02*
D03*
Y170276D02*
D03*
Y168307D02*
D03*
Y166339D02*
D03*
Y164370D02*
D03*
Y162402D02*
D03*
Y160433D02*
D03*
Y158465D02*
D03*
Y156496D02*
D03*
Y154528D02*
D03*
Y152559D02*
D03*
Y150591D02*
D03*
Y148622D02*
D03*
Y146653D02*
D03*
Y144685D02*
D03*
Y142717D02*
D03*
Y140748D02*
D03*
Y138779D02*
D03*
Y136811D02*
D03*
Y134843D02*
D03*
Y132874D02*
D03*
Y130905D02*
D03*
Y128937D02*
D03*
Y126969D02*
D03*
Y125000D02*
D03*
Y123031D02*
D03*
Y121063D02*
D03*
Y119095D02*
D03*
Y117126D02*
D03*
Y115157D02*
D03*
Y113189D02*
D03*
Y111221D02*
D03*
Y109252D02*
D03*
Y107283D02*
D03*
Y105315D02*
D03*
Y103347D02*
D03*
X357579D02*
D03*
Y105315D02*
D03*
Y107283D02*
D03*
Y109252D02*
D03*
Y111221D02*
D03*
Y113189D02*
D03*
Y115157D02*
D03*
Y117126D02*
D03*
Y119095D02*
D03*
Y121063D02*
D03*
Y123031D02*
D03*
Y125000D02*
D03*
Y126969D02*
D03*
Y128937D02*
D03*
Y130905D02*
D03*
Y132874D02*
D03*
Y134843D02*
D03*
Y136811D02*
D03*
Y138779D02*
D03*
Y140748D02*
D03*
Y142717D02*
D03*
Y144685D02*
D03*
Y146653D02*
D03*
Y148622D02*
D03*
Y150591D02*
D03*
Y152559D02*
D03*
Y154528D02*
D03*
Y156496D02*
D03*
Y158465D02*
D03*
Y160433D02*
D03*
Y162402D02*
D03*
Y164370D02*
D03*
Y166339D02*
D03*
Y168307D02*
D03*
Y170276D02*
D03*
Y172244D02*
D03*
D48*
X280512Y95177D02*
D03*
X282480D02*
D03*
X284449D02*
D03*
X286417D02*
D03*
X288386D02*
D03*
X290354D02*
D03*
X292323D02*
D03*
X294291D02*
D03*
X296260D02*
D03*
X298228D02*
D03*
X300197D02*
D03*
X302165D02*
D03*
X304134D02*
D03*
X306102D02*
D03*
X308071D02*
D03*
X310039D02*
D03*
X312008D02*
D03*
X313976D02*
D03*
X315945D02*
D03*
X317913D02*
D03*
X319882D02*
D03*
X321850D02*
D03*
X323819D02*
D03*
X325787D02*
D03*
X327756D02*
D03*
X329724D02*
D03*
X331693D02*
D03*
X333661D02*
D03*
X335630D02*
D03*
X337598D02*
D03*
X339567D02*
D03*
X341535D02*
D03*
X343504D02*
D03*
X345472D02*
D03*
X347441D02*
D03*
X349410D02*
D03*
Y180413D02*
D03*
X347441D02*
D03*
X345472D02*
D03*
X343504D02*
D03*
X341535D02*
D03*
X339567D02*
D03*
X337598D02*
D03*
X335630D02*
D03*
X333661D02*
D03*
X331693D02*
D03*
X329724D02*
D03*
X327756D02*
D03*
X325787D02*
D03*
X323819D02*
D03*
X321850D02*
D03*
X319882D02*
D03*
X317913D02*
D03*
X315945D02*
D03*
X313976D02*
D03*
X312008D02*
D03*
X310039D02*
D03*
X308071D02*
D03*
X306102D02*
D03*
X304134D02*
D03*
X302165D02*
D03*
X300197D02*
D03*
X298228D02*
D03*
X296260D02*
D03*
X294291D02*
D03*
X292323D02*
D03*
X290354D02*
D03*
X288386D02*
D03*
X286417D02*
D03*
X284449D02*
D03*
X282480D02*
D03*
X280512D02*
D03*
D49*
X118110Y314961D02*
D03*
D50*
X126870Y308563D02*
D03*
Y311122D02*
D03*
Y313681D02*
D03*
Y316240D02*
D03*
Y318799D02*
D03*
Y321358D02*
D03*
X109350Y308563D02*
D03*
Y311122D02*
D03*
Y313681D02*
D03*
Y316240D02*
D03*
Y318799D02*
D03*
Y321358D02*
D03*
D51*
X128839Y336988D02*
D03*
Y341988D02*
D03*
Y346988D02*
D03*
Y351988D02*
D03*
X107382Y336988D02*
D03*
Y341988D02*
D03*
Y346988D02*
D03*
Y351988D02*
D03*
X148524Y258248D02*
D03*
Y263248D02*
D03*
Y268248D02*
D03*
Y273248D02*
D03*
X127067Y258248D02*
D03*
Y263248D02*
D03*
Y268248D02*
D03*
Y273248D02*
D03*
D52*
X250000Y278543D02*
D03*
D53*
X244488Y281594D02*
D03*
Y279626D02*
D03*
Y277658D02*
D03*
Y275689D02*
D03*
X255512D02*
D03*
Y277658D02*
D03*
Y279626D02*
D03*
Y281594D02*
D03*
D54*
X203642Y214274D02*
D03*
Y216833D02*
D03*
Y219392D02*
D03*
Y221951D02*
D03*
X186319Y214274D02*
D03*
Y216833D02*
D03*
Y219392D02*
D03*
Y221951D02*
D03*
X75000Y220374D02*
D03*
Y217815D02*
D03*
Y215256D02*
D03*
Y212697D02*
D03*
X92323Y220374D02*
D03*
Y217815D02*
D03*
Y215256D02*
D03*
Y212697D02*
D03*
X630118Y65354D02*
D03*
Y67913D02*
D03*
Y70473D02*
D03*
Y73032D02*
D03*
X612795Y65354D02*
D03*
Y67913D02*
D03*
Y70473D02*
D03*
Y73032D02*
D03*
D55*
X382972Y324803D02*
D03*
Y322835D02*
D03*
Y320866D02*
D03*
Y318898D02*
D03*
Y316929D02*
D03*
X400492Y324803D02*
D03*
Y322835D02*
D03*
Y320866D02*
D03*
Y318898D02*
D03*
Y316929D02*
D03*
D56*
X391732Y320866D02*
D03*
D57*
X212598Y80709D02*
D03*
Y118110D02*
D03*
D58*
X183957Y171161D02*
D03*
X205610D02*
D03*
X183957Y183760D02*
D03*
X156398Y224412D02*
D03*
X134744D02*
D03*
X156398Y211814D02*
D03*
D59*
X205610Y183760D02*
D03*
X134744Y211814D02*
D03*
D60*
X158760Y151575D02*
D03*
X155610D02*
D03*
X152461D02*
D03*
X149311D02*
D03*
X146161D02*
D03*
X143012D02*
D03*
X139862D02*
D03*
X136713D02*
D03*
X133563D02*
D03*
X130413D02*
D03*
X127264D02*
D03*
X124114D02*
D03*
X120965D02*
D03*
X117815D02*
D03*
X114665D02*
D03*
X111516D02*
D03*
X108366D02*
D03*
X105217D02*
D03*
X102067D02*
D03*
X98917D02*
D03*
X95768D02*
D03*
X92618D02*
D03*
X89468D02*
D03*
X86319D02*
D03*
X83169D02*
D03*
X80020D02*
D03*
X76870D02*
D03*
X158760Y106299D02*
D03*
X155610D02*
D03*
X152461D02*
D03*
X149311D02*
D03*
X146161D02*
D03*
X143012D02*
D03*
X139862D02*
D03*
X136713D02*
D03*
X133563D02*
D03*
X130413D02*
D03*
X127264D02*
D03*
X124114D02*
D03*
X120965D02*
D03*
X117815D02*
D03*
X114665D02*
D03*
X111516D02*
D03*
X108366D02*
D03*
X105217D02*
D03*
X102067D02*
D03*
X98917D02*
D03*
X95768D02*
D03*
X92618D02*
D03*
X89468D02*
D03*
X86319D02*
D03*
X83169D02*
D03*
X80020D02*
D03*
X76870D02*
D03*
M02*
