G04 Layer_Color=128*
%FSLAX25Y25*%
%MOIN*%
G70*
G01*
G75*
%ADD10R,0.05512X0.04331*%
%ADD11R,0.04331X0.05512*%
%ADD12R,0.04331X0.02756*%
%ADD13R,0.04331X0.01772*%
%ADD27R,0.05000X0.12000*%
%ADD38R,0.04921X0.06890*%
%ADD46R,0.04724X0.04724*%
%ADD82R,0.12000X0.05000*%
%ADD83O,0.02362X0.05709*%
%ADD84R,0.02559X0.03740*%
D10*
X37795Y156791D02*
D03*
Y163681D02*
D03*
X45669Y156791D02*
D03*
Y163681D02*
D03*
X313780Y165453D02*
D03*
Y172343D02*
D03*
X133858Y194390D02*
D03*
Y187500D02*
D03*
D11*
X354823Y217520D02*
D03*
X361713D02*
D03*
X354823Y209646D02*
D03*
X361713D02*
D03*
X98130Y27008D02*
D03*
X91240D02*
D03*
X98130Y37008D02*
D03*
X91240D02*
D03*
D12*
X213189Y142539D02*
D03*
Y152736D02*
D03*
X219882Y142539D02*
D03*
Y152736D02*
D03*
X213189Y122854D02*
D03*
Y133051D02*
D03*
X219882Y122854D02*
D03*
Y133051D02*
D03*
X219882Y81870D02*
D03*
Y71673D02*
D03*
X213189Y81870D02*
D03*
Y71673D02*
D03*
X213189Y51988D02*
D03*
Y62185D02*
D03*
X219882Y51988D02*
D03*
Y62185D02*
D03*
D13*
X213189Y146063D02*
D03*
Y149213D02*
D03*
X219882Y146063D02*
D03*
Y149213D02*
D03*
X213189Y126378D02*
D03*
Y129528D02*
D03*
X219882Y126378D02*
D03*
Y129528D02*
D03*
X219882Y78347D02*
D03*
Y75197D02*
D03*
X213189Y78347D02*
D03*
Y75197D02*
D03*
X213189Y55512D02*
D03*
Y58661D02*
D03*
X219882Y55512D02*
D03*
Y58661D02*
D03*
D27*
X433071Y59646D02*
D03*
Y80646D02*
D03*
X423071Y59646D02*
D03*
Y80646D02*
D03*
X413071Y59646D02*
D03*
Y80646D02*
D03*
X403071Y59646D02*
D03*
Y80646D02*
D03*
X393071Y59646D02*
D03*
Y80646D02*
D03*
X383071Y59646D02*
D03*
Y80646D02*
D03*
X373071Y59646D02*
D03*
X363071D02*
D03*
X373071Y80646D02*
D03*
X363071D02*
D03*
D38*
X369587Y187992D02*
D03*
X358760D02*
D03*
D46*
X53150Y163976D02*
D03*
Y156496D02*
D03*
D82*
X56756Y27008D02*
D03*
X77756D02*
D03*
X56756Y37008D02*
D03*
X77756D02*
D03*
X501244Y151969D02*
D03*
X522244D02*
D03*
X501244Y161969D02*
D03*
X522244D02*
D03*
X501244Y171968D02*
D03*
X522244D02*
D03*
X501244Y181968D02*
D03*
X522244D02*
D03*
X501244Y191969D02*
D03*
X522244D02*
D03*
X501244Y201969D02*
D03*
X522244D02*
D03*
D83*
X159075Y197933D02*
D03*
X154075D02*
D03*
X149075D02*
D03*
X144075D02*
D03*
X159075Y219390D02*
D03*
X154075D02*
D03*
X149075D02*
D03*
X144075D02*
D03*
D84*
X88583Y209350D02*
D03*
X85039Y200098D02*
D03*
X92126D02*
D03*
M02*
