G04 Layer_Color=8388736*
%FSLAX25Y25*%
%MOIN*%
G70*
G01*
G75*
%ADD94R,0.10600X0.05100*%
%ADD95R,0.06100X0.10600*%
%ADD96R,0.13986X0.07687*%
%ADD97R,0.13986X0.19104*%
%ADD98R,0.19104X0.13986*%
%ADD99R,0.07490X0.05521*%
%ADD100C,0.04537*%
%ADD101R,0.06506X0.06112*%
%ADD102R,0.06112X0.04931*%
%ADD103R,0.04931X0.06112*%
%ADD104R,0.04340X0.04340*%
%ADD105R,0.04931X0.02372*%
%ADD106R,0.04931X0.03356*%
%ADD107R,0.02962X0.03750*%
%ADD108R,0.03750X0.02962*%
%ADD109R,0.05324X0.05324*%
%ADD110R,0.05324X0.05324*%
%ADD111R,0.06506X0.10049*%
%ADD112R,0.06112X0.06506*%
%ADD113R,0.07687X0.09065*%
%ADD114R,0.09065X0.07687*%
%ADD115R,0.02962X0.03750*%
%ADD116R,0.03750X0.03750*%
%ADD117R,0.03750X0.03750*%
%ADD118R,0.05600X0.12600*%
%ADD119R,0.12600X0.05600*%
%ADD120R,0.28159X0.16348*%
%ADD121R,0.12017X0.21860*%
%ADD122R,0.04340X0.03159*%
%ADD123R,0.03750X0.02962*%
%ADD124R,0.05521X0.07490*%
%ADD125R,0.02962X0.02765*%
%ADD126R,0.03356X0.04931*%
%ADD127R,0.02372X0.04931*%
%ADD128R,0.09655X0.06506*%
%ADD129R,0.07687X0.13986*%
%ADD130O,0.07096X0.01761*%
%ADD131O,0.01761X0.07096*%
%ADD132R,0.07529X0.12214*%
%ADD133O,0.05915X0.02293*%
%ADD134O,0.06309X0.02962*%
G04:AMPARAMS|DCode=135|XSize=99.7mil|YSize=70.96mil|CornerRadius=19.24mil|HoleSize=0mil|Usage=FLASHONLY|Rotation=270.000|XOffset=0mil|YOffset=0mil|HoleType=Round|Shape=RoundedRectangle|*
%AMROUNDEDRECTD135*
21,1,0.09970,0.03248,0,0,270.0*
21,1,0.06122,0.07096,0,0,270.0*
1,1,0.03848,-0.01624,-0.03061*
1,1,0.03848,-0.01624,0.03061*
1,1,0.03848,0.01624,0.03061*
1,1,0.03848,0.01624,-0.03061*
%
%ADD135ROUNDEDRECTD135*%
%ADD136R,0.03356X0.01584*%
%ADD137R,0.06112X0.02293*%
%ADD138O,0.05915X0.01742*%
%ADD139R,0.07214X0.08002*%
%ADD140R,0.08474X0.22253*%
%ADD141O,0.05718X0.08080*%
%ADD142R,0.05718X0.08080*%
%ADD143O,0.02765X0.05324*%
%ADD144C,0.22253*%
%ADD145C,0.07200*%
%ADD146R,0.07200X0.07200*%
%ADD147R,0.07200X0.07200*%
%ADD148C,0.08080*%
%ADD149R,0.08080X0.08080*%
%ADD150R,0.06506X0.06506*%
%ADD151C,0.06506*%
%ADD152C,0.26191*%
%ADD153R,0.06506X0.06506*%
%ADD154C,0.00724*%
D94*
X510154Y337281D02*
D03*
Y329481D02*
D03*
Y321581D02*
D03*
Y313781D02*
D03*
Y305781D02*
D03*
Y297981D02*
D03*
Y290181D02*
D03*
Y282281D02*
D03*
X571655Y282181D02*
D03*
Y290081D02*
D03*
Y297881D02*
D03*
X571555Y305781D02*
D03*
Y313681D02*
D03*
Y321481D02*
D03*
Y329481D02*
D03*
Y337281D02*
D03*
D95*
X521154Y274081D02*
D03*
X528955D02*
D03*
X536755D02*
D03*
X544755D02*
D03*
X560555D02*
D03*
X552555D02*
D03*
D96*
X486221Y242126D02*
D03*
X454134Y212205D02*
D03*
Y200394D02*
D03*
X19685Y299213D02*
D03*
X167323Y269685D02*
D03*
X110236Y360236D02*
D03*
X90551Y265748D02*
D03*
X275590D02*
D03*
X19685Y216535D02*
D03*
Y236221D02*
D03*
Y196850D02*
D03*
Y181102D02*
D03*
Y165354D02*
D03*
X319685Y270866D02*
D03*
D97*
X113189Y17717D02*
D03*
X492126D02*
D03*
D98*
X334646Y59055D02*
D03*
X19685Y318898D02*
D03*
X167323Y248031D02*
D03*
X389764Y358268D02*
D03*
X615158Y260827D02*
D03*
D99*
X477559Y279429D02*
D03*
Y268602D02*
D03*
D100*
X108366Y98721D02*
D03*
X148819Y292126D02*
D03*
X114665Y90551D02*
D03*
D101*
X507874Y202756D02*
D03*
X518898D02*
D03*
X507874Y212598D02*
D03*
X518898D02*
D03*
X244488Y309055D02*
D03*
X255512D02*
D03*
X128740Y287402D02*
D03*
X139764D02*
D03*
X408268Y336614D02*
D03*
X419291D02*
D03*
X404331Y272047D02*
D03*
X415354D02*
D03*
D102*
X493504Y207776D02*
D03*
Y200886D02*
D03*
X484646Y207776D02*
D03*
Y200886D02*
D03*
X280512Y55610D02*
D03*
Y62500D02*
D03*
X285433Y26083D02*
D03*
Y32972D02*
D03*
X295276Y26083D02*
D03*
Y32972D02*
D03*
X196850Y26083D02*
D03*
Y32972D02*
D03*
X206693Y26083D02*
D03*
Y32972D02*
D03*
X336614Y203740D02*
D03*
Y196850D02*
D03*
X316929D02*
D03*
Y203740D02*
D03*
X108268Y289862D02*
D03*
Y296752D02*
D03*
X423228Y48720D02*
D03*
Y41831D02*
D03*
X411417Y48720D02*
D03*
Y41831D02*
D03*
X399606Y48720D02*
D03*
Y41831D02*
D03*
X387795Y48720D02*
D03*
Y41831D02*
D03*
X299213Y196850D02*
D03*
Y203740D02*
D03*
X528445Y55413D02*
D03*
Y62303D02*
D03*
X538287D02*
D03*
Y55413D02*
D03*
X548130D02*
D03*
Y62303D02*
D03*
X557972D02*
D03*
Y55413D02*
D03*
D103*
X516240Y163386D02*
D03*
X509350D02*
D03*
X516240Y171260D02*
D03*
X509350D02*
D03*
Y187008D02*
D03*
X516240D02*
D03*
Y179134D02*
D03*
X509350D02*
D03*
X239665Y110236D02*
D03*
X232776D02*
D03*
X239665Y98425D02*
D03*
X232776D02*
D03*
X353839Y242126D02*
D03*
X360728D02*
D03*
X456201Y226378D02*
D03*
X449311D02*
D03*
X94488Y326772D02*
D03*
X87598D02*
D03*
X94488Y316929D02*
D03*
X87598D02*
D03*
X108268Y261811D02*
D03*
X115157D02*
D03*
Y271654D02*
D03*
X108268D02*
D03*
X87598Y307087D02*
D03*
X94488D02*
D03*
X108268Y281496D02*
D03*
X115157D02*
D03*
X87598Y297244D02*
D03*
X94488D02*
D03*
X87598Y287402D02*
D03*
X94488D02*
D03*
X42815Y196850D02*
D03*
X35925D02*
D03*
X42815Y181102D02*
D03*
X35925D02*
D03*
X42815Y165354D02*
D03*
X35925D02*
D03*
X408563Y296457D02*
D03*
X401673D02*
D03*
X417323D02*
D03*
X424213D02*
D03*
Y304724D02*
D03*
X417323D02*
D03*
X384350Y297244D02*
D03*
X391240D02*
D03*
X374508Y136811D02*
D03*
X381398D02*
D03*
X476870Y314961D02*
D03*
X469980D02*
D03*
X492618Y322835D02*
D03*
X485728D02*
D03*
X597933Y297244D02*
D03*
X591043D02*
D03*
X597933Y288386D02*
D03*
X591043D02*
D03*
X597933Y332677D02*
D03*
X591043D02*
D03*
X597933Y306102D02*
D03*
X591043D02*
D03*
X476870Y305118D02*
D03*
X469980D02*
D03*
X597933Y279528D02*
D03*
X591043D02*
D03*
X597933Y323819D02*
D03*
X591043D02*
D03*
X597933Y314961D02*
D03*
X591043D02*
D03*
X476870Y295276D02*
D03*
X469980D02*
D03*
X360728Y234252D02*
D03*
X353839D02*
D03*
Y226378D02*
D03*
X360728D02*
D03*
X261319Y177165D02*
D03*
X254429D02*
D03*
X239567Y172933D02*
D03*
X232677D02*
D03*
Y181791D02*
D03*
X239567D02*
D03*
X353839Y218504D02*
D03*
X360728D02*
D03*
Y210630D02*
D03*
X353839D02*
D03*
X87598Y275590D02*
D03*
X94488D02*
D03*
X72342Y204724D02*
D03*
X65453D02*
D03*
X639665Y69587D02*
D03*
X646555D02*
D03*
X270177Y79724D02*
D03*
X277067D02*
D03*
Y71850D02*
D03*
X270177D02*
D03*
D104*
X519488Y111122D02*
D03*
X513779D02*
D03*
X519488Y117028D02*
D03*
X513779D02*
D03*
X519488Y122933D02*
D03*
X513779D02*
D03*
X519488Y128839D02*
D03*
X513779D02*
D03*
X519488Y134744D02*
D03*
X513779D02*
D03*
X519488Y140650D02*
D03*
X513779D02*
D03*
X519488Y146555D02*
D03*
X513779D02*
D03*
X519488Y152461D02*
D03*
X513779D02*
D03*
D105*
X275000Y197244D02*
D03*
Y200394D02*
D03*
X268307Y197244D02*
D03*
Y200394D02*
D03*
X232874Y151181D02*
D03*
Y148031D02*
D03*
X239567Y151181D02*
D03*
Y148031D02*
D03*
X232874Y131496D02*
D03*
Y128347D02*
D03*
X239567Y131496D02*
D03*
Y128347D02*
D03*
D106*
X275000Y193720D02*
D03*
Y203917D02*
D03*
X268307Y193720D02*
D03*
Y203917D02*
D03*
X232874Y154705D02*
D03*
Y144508D02*
D03*
X239567Y154705D02*
D03*
Y144508D02*
D03*
X232874Y135020D02*
D03*
Y124823D02*
D03*
X239567Y135020D02*
D03*
Y124823D02*
D03*
D107*
X196850Y114173D02*
D03*
Y119291D02*
D03*
Y85236D02*
D03*
Y80118D02*
D03*
X283465Y78740D02*
D03*
Y73622D02*
D03*
X309055Y78740D02*
D03*
Y73622D02*
D03*
X329724Y78740D02*
D03*
Y73622D02*
D03*
X354331Y78740D02*
D03*
Y73622D02*
D03*
X326772Y196850D02*
D03*
Y201969D02*
D03*
X308071Y196850D02*
D03*
Y201969D02*
D03*
X616142Y28150D02*
D03*
Y23031D02*
D03*
X118110Y290748D02*
D03*
Y295866D02*
D03*
D108*
X217815Y170965D02*
D03*
X222933D02*
D03*
X217815Y183760D02*
D03*
X222933D02*
D03*
X250787Y101676D02*
D03*
X255906D02*
D03*
X250787Y96850D02*
D03*
X255906D02*
D03*
X273031Y242126D02*
D03*
X278150D02*
D03*
X255315Y185039D02*
D03*
X260433D02*
D03*
X250787Y129921D02*
D03*
X255906D02*
D03*
X250787Y106501D02*
D03*
X255906D02*
D03*
X374016Y123031D02*
D03*
X379134D02*
D03*
X374016Y144685D02*
D03*
X379134D02*
D03*
X374016Y171260D02*
D03*
X379134D02*
D03*
X374016Y179528D02*
D03*
X379134D02*
D03*
X429528Y226378D02*
D03*
X434646D02*
D03*
X168799Y222050D02*
D03*
X173917D02*
D03*
X168799Y214176D02*
D03*
X173917D02*
D03*
X168799Y229924D02*
D03*
X173917D02*
D03*
X86221Y204724D02*
D03*
X81102D02*
D03*
X624114Y56299D02*
D03*
X618996D02*
D03*
X618898Y81988D02*
D03*
X624016D02*
D03*
X386614Y332677D02*
D03*
X391732D02*
D03*
X416535Y328740D02*
D03*
X411417D02*
D03*
X87795Y165354D02*
D03*
X82677D02*
D03*
X125984D02*
D03*
X120866D02*
D03*
X142323D02*
D03*
X137205D02*
D03*
X158661D02*
D03*
X153543D02*
D03*
X82677Y90551D02*
D03*
X87795D02*
D03*
X120866D02*
D03*
X125984D02*
D03*
X137205D02*
D03*
X142323D02*
D03*
X153543D02*
D03*
X158661D02*
D03*
D109*
X261614Y169291D02*
D03*
X254134D02*
D03*
X381496Y164370D02*
D03*
X374016D02*
D03*
X147244Y324803D02*
D03*
X139764D02*
D03*
X401575Y304724D02*
D03*
X409055D02*
D03*
X406102Y263386D02*
D03*
X413583D02*
D03*
X391535Y305118D02*
D03*
X384055D02*
D03*
X418898Y318898D02*
D03*
X411417D02*
D03*
X485433Y331693D02*
D03*
X492913D02*
D03*
D110*
X361221Y72047D02*
D03*
Y79527D02*
D03*
X307874Y278150D02*
D03*
Y270669D02*
D03*
D111*
X55118Y287402D02*
D03*
X66142D02*
D03*
X55118Y273622D02*
D03*
X66142D02*
D03*
X55118Y259842D02*
D03*
X66142D02*
D03*
D112*
X487205Y279134D02*
D03*
Y268110D02*
D03*
X496063Y279134D02*
D03*
Y268110D02*
D03*
D113*
X145669Y356102D02*
D03*
Y340748D02*
D03*
D114*
X55512Y303150D02*
D03*
X70866D02*
D03*
D115*
X139567Y307776D02*
D03*
X147047D02*
D03*
X143307Y317618D02*
D03*
D116*
X423228Y34449D02*
D03*
Y28543D02*
D03*
X411417Y34449D02*
D03*
Y28543D02*
D03*
X399606Y34449D02*
D03*
Y28543D02*
D03*
X387795Y34449D02*
D03*
Y28543D02*
D03*
D117*
X596850Y64764D02*
D03*
X602756D02*
D03*
X596850Y73425D02*
D03*
X602756D02*
D03*
D118*
X602992Y36748D02*
D03*
X592992D02*
D03*
X602992Y15748D02*
D03*
X592992D02*
D03*
X582992Y36748D02*
D03*
Y15748D02*
D03*
X572992Y36748D02*
D03*
Y15748D02*
D03*
X562992Y36748D02*
D03*
Y15748D02*
D03*
X552992Y36748D02*
D03*
Y15748D02*
D03*
X542992Y36748D02*
D03*
Y15748D02*
D03*
X532992Y36748D02*
D03*
Y15748D02*
D03*
X520354Y232937D02*
D03*
Y253937D02*
D03*
X530354Y232937D02*
D03*
Y253937D02*
D03*
X540354Y232937D02*
D03*
Y253937D02*
D03*
X550354Y232937D02*
D03*
Y253937D02*
D03*
X560354Y232937D02*
D03*
Y253937D02*
D03*
X570354Y232937D02*
D03*
Y253937D02*
D03*
D119*
X396197Y192244D02*
D03*
X375197D02*
D03*
X396197Y202244D02*
D03*
X375197D02*
D03*
X396197Y212244D02*
D03*
X375197D02*
D03*
X396197Y222244D02*
D03*
X375197D02*
D03*
X396197Y232244D02*
D03*
X375197D02*
D03*
X396197Y242244D02*
D03*
X375197D02*
D03*
D120*
X192913Y295276D02*
D03*
Y334646D02*
D03*
D121*
X318110Y320866D02*
D03*
X356299D02*
D03*
D122*
X64665Y239567D02*
D03*
Y246654D02*
D03*
X55413Y243110D02*
D03*
D123*
X484252Y310827D02*
D03*
Y303346D02*
D03*
X494095Y307087D02*
D03*
X484252Y295079D02*
D03*
Y287598D02*
D03*
X494095Y291339D02*
D03*
D124*
X139272Y297244D02*
D03*
X128445D02*
D03*
X255413Y291339D02*
D03*
X244587D02*
D03*
X341732Y268110D02*
D03*
X352559D02*
D03*
X341732Y277953D02*
D03*
X352559D02*
D03*
D125*
X619882Y51279D02*
D03*
X623228D02*
D03*
X623130Y86910D02*
D03*
X619783D02*
D03*
D126*
X290177Y55709D02*
D03*
X300374D02*
D03*
X290177Y62402D02*
D03*
X300374D02*
D03*
X309862Y55709D02*
D03*
X320059D02*
D03*
X309862Y62402D02*
D03*
X320059D02*
D03*
D127*
X293701Y55709D02*
D03*
X296850D02*
D03*
X293701Y62402D02*
D03*
X296850D02*
D03*
X313386Y55709D02*
D03*
X316535D02*
D03*
X313386Y62402D02*
D03*
X316535D02*
D03*
D128*
X291929Y242126D02*
D03*
X318307D02*
D03*
X429724D02*
D03*
X456102D02*
D03*
X481693Y353346D02*
D03*
X455315D02*
D03*
D129*
X344488Y15748D02*
D03*
X364173D02*
D03*
X147638D02*
D03*
X167323D02*
D03*
X423228D02*
D03*
X411417D02*
D03*
X399606D02*
D03*
X387795D02*
D03*
X631791Y53937D02*
D03*
Y84653D02*
D03*
X605315Y354331D02*
D03*
X620079D02*
D03*
D130*
X272342Y172244D02*
D03*
Y170276D02*
D03*
Y168307D02*
D03*
Y166339D02*
D03*
Y164370D02*
D03*
Y162402D02*
D03*
Y160433D02*
D03*
Y158465D02*
D03*
Y156496D02*
D03*
Y154528D02*
D03*
Y152559D02*
D03*
Y150591D02*
D03*
Y148622D02*
D03*
Y146653D02*
D03*
Y144685D02*
D03*
Y142717D02*
D03*
Y140748D02*
D03*
Y138779D02*
D03*
Y136811D02*
D03*
Y134843D02*
D03*
Y132874D02*
D03*
Y130905D02*
D03*
Y128937D02*
D03*
Y126969D02*
D03*
Y125000D02*
D03*
Y123031D02*
D03*
Y121063D02*
D03*
Y119095D02*
D03*
Y117126D02*
D03*
Y115157D02*
D03*
Y113189D02*
D03*
Y111221D02*
D03*
Y109252D02*
D03*
Y107283D02*
D03*
Y105315D02*
D03*
Y103347D02*
D03*
X357579D02*
D03*
Y105315D02*
D03*
Y107283D02*
D03*
Y109252D02*
D03*
Y111221D02*
D03*
Y113189D02*
D03*
Y115157D02*
D03*
Y117126D02*
D03*
Y119095D02*
D03*
Y121063D02*
D03*
Y123031D02*
D03*
Y125000D02*
D03*
Y126969D02*
D03*
Y128937D02*
D03*
Y130905D02*
D03*
Y132874D02*
D03*
Y134843D02*
D03*
Y136811D02*
D03*
Y138779D02*
D03*
Y140748D02*
D03*
Y142717D02*
D03*
Y144685D02*
D03*
Y146653D02*
D03*
Y148622D02*
D03*
Y150591D02*
D03*
Y152559D02*
D03*
Y154528D02*
D03*
Y156496D02*
D03*
Y158465D02*
D03*
Y160433D02*
D03*
Y162402D02*
D03*
Y164370D02*
D03*
Y166339D02*
D03*
Y168307D02*
D03*
Y170276D02*
D03*
Y172244D02*
D03*
D131*
X280512Y95177D02*
D03*
X282480D02*
D03*
X284449D02*
D03*
X286417D02*
D03*
X288386D02*
D03*
X290354D02*
D03*
X292323D02*
D03*
X294291D02*
D03*
X296260D02*
D03*
X298228D02*
D03*
X300197D02*
D03*
X302165D02*
D03*
X304134D02*
D03*
X306102D02*
D03*
X308071D02*
D03*
X310039D02*
D03*
X312008D02*
D03*
X313976D02*
D03*
X315945D02*
D03*
X317913D02*
D03*
X319882D02*
D03*
X321850D02*
D03*
X323819D02*
D03*
X325787D02*
D03*
X327756D02*
D03*
X329724D02*
D03*
X331693D02*
D03*
X333661D02*
D03*
X335630D02*
D03*
X337598D02*
D03*
X339567D02*
D03*
X341535D02*
D03*
X343504D02*
D03*
X345472D02*
D03*
X347441D02*
D03*
X349410D02*
D03*
Y180413D02*
D03*
X347441D02*
D03*
X345472D02*
D03*
X343504D02*
D03*
X341535D02*
D03*
X339567D02*
D03*
X337598D02*
D03*
X335630D02*
D03*
X333661D02*
D03*
X331693D02*
D03*
X329724D02*
D03*
X327756D02*
D03*
X325787D02*
D03*
X323819D02*
D03*
X321850D02*
D03*
X319882D02*
D03*
X317913D02*
D03*
X315945D02*
D03*
X313976D02*
D03*
X312008D02*
D03*
X310039D02*
D03*
X308071D02*
D03*
X306102D02*
D03*
X304134D02*
D03*
X302165D02*
D03*
X300197D02*
D03*
X298228D02*
D03*
X296260D02*
D03*
X294291D02*
D03*
X292323D02*
D03*
X290354D02*
D03*
X288386D02*
D03*
X286417D02*
D03*
X284449D02*
D03*
X282480D02*
D03*
X280512D02*
D03*
D132*
X118110Y314961D02*
D03*
D133*
X126870Y308563D02*
D03*
Y311122D02*
D03*
Y313681D02*
D03*
Y316240D02*
D03*
Y318799D02*
D03*
Y321358D02*
D03*
X109350Y308563D02*
D03*
Y311122D02*
D03*
Y313681D02*
D03*
Y316240D02*
D03*
Y318799D02*
D03*
Y321358D02*
D03*
D134*
X128839Y336988D02*
D03*
Y341988D02*
D03*
Y346988D02*
D03*
Y351988D02*
D03*
X107382Y336988D02*
D03*
Y341988D02*
D03*
Y346988D02*
D03*
Y351988D02*
D03*
X148524Y258248D02*
D03*
Y263248D02*
D03*
Y268248D02*
D03*
Y273248D02*
D03*
X127067Y258248D02*
D03*
Y263248D02*
D03*
Y268248D02*
D03*
Y273248D02*
D03*
D135*
X250000Y278543D02*
D03*
D136*
X244488Y281594D02*
D03*
Y279626D02*
D03*
Y277658D02*
D03*
Y275689D02*
D03*
X255512D02*
D03*
Y277658D02*
D03*
Y279626D02*
D03*
Y281594D02*
D03*
D137*
X203642Y214274D02*
D03*
Y216833D02*
D03*
Y219392D02*
D03*
Y221951D02*
D03*
X186319Y214274D02*
D03*
Y216833D02*
D03*
Y219392D02*
D03*
Y221951D02*
D03*
X75000Y220374D02*
D03*
Y217815D02*
D03*
Y215256D02*
D03*
Y212697D02*
D03*
X92323Y220374D02*
D03*
Y217815D02*
D03*
Y215256D02*
D03*
Y212697D02*
D03*
X630118Y65354D02*
D03*
Y67913D02*
D03*
Y70473D02*
D03*
Y73032D02*
D03*
X612795Y65354D02*
D03*
Y67913D02*
D03*
Y70473D02*
D03*
Y73032D02*
D03*
D138*
X382972Y324803D02*
D03*
Y322835D02*
D03*
Y320866D02*
D03*
Y318898D02*
D03*
Y316929D02*
D03*
X400492Y324803D02*
D03*
Y322835D02*
D03*
Y320866D02*
D03*
Y318898D02*
D03*
Y316929D02*
D03*
D139*
X391732Y320866D02*
D03*
D140*
X212598Y80709D02*
D03*
Y118110D02*
D03*
D141*
X183957Y171161D02*
D03*
X205610D02*
D03*
X183957Y183760D02*
D03*
X156398Y224412D02*
D03*
X134744D02*
D03*
X156398Y211814D02*
D03*
D142*
X205610Y183760D02*
D03*
X134744Y211814D02*
D03*
D143*
X158760Y151575D02*
D03*
X155610D02*
D03*
X152461D02*
D03*
X149311D02*
D03*
X146161D02*
D03*
X143012D02*
D03*
X139862D02*
D03*
X136713D02*
D03*
X133563D02*
D03*
X130413D02*
D03*
X127264D02*
D03*
X124114D02*
D03*
X120965D02*
D03*
X117815D02*
D03*
X114665D02*
D03*
X111516D02*
D03*
X108366D02*
D03*
X105217D02*
D03*
X102067D02*
D03*
X98917D02*
D03*
X95768D02*
D03*
X92618D02*
D03*
X89468D02*
D03*
X86319D02*
D03*
X83169D02*
D03*
X80020D02*
D03*
X76870D02*
D03*
X158760Y106299D02*
D03*
X155610D02*
D03*
X152461D02*
D03*
X149311D02*
D03*
X146161D02*
D03*
X143012D02*
D03*
X139862D02*
D03*
X136713D02*
D03*
X133563D02*
D03*
X130413D02*
D03*
X127264D02*
D03*
X124114D02*
D03*
X120965D02*
D03*
X117815D02*
D03*
X114665D02*
D03*
X111516D02*
D03*
X108366D02*
D03*
X105217D02*
D03*
X102067D02*
D03*
X98917D02*
D03*
X95768D02*
D03*
X92618D02*
D03*
X89468D02*
D03*
X86319D02*
D03*
X83169D02*
D03*
X80020D02*
D03*
X76870D02*
D03*
D144*
X578740Y114724D02*
D03*
X637795Y204724D02*
D03*
D145*
X557244Y154724D02*
D03*
Y164724D02*
D03*
Y174724D02*
D03*
Y184724D02*
D03*
Y194724D02*
D03*
Y204724D02*
D03*
X547244Y154724D02*
D03*
Y164724D02*
D03*
Y174724D02*
D03*
Y184724D02*
D03*
Y194724D02*
D03*
Y144724D02*
D03*
Y134724D02*
D03*
X557244Y144724D02*
D03*
Y134724D02*
D03*
X547244Y124724D02*
D03*
Y114724D02*
D03*
X557244Y124724D02*
D03*
Y114724D02*
D03*
X285591Y13780D02*
D03*
X295590D02*
D03*
X305591D02*
D03*
X315591D02*
D03*
X325590D02*
D03*
X197008D02*
D03*
X207008D02*
D03*
X217008D02*
D03*
X227008D02*
D03*
X237008D02*
D03*
D146*
X547244Y204724D02*
D03*
D147*
X275590Y13780D02*
D03*
X187008D02*
D03*
D148*
X55118Y342520D02*
D03*
X246063D02*
D03*
X259842D02*
D03*
D149*
X68898D02*
D03*
X273622D02*
D03*
D150*
X656496Y324803D02*
D03*
X278543Y320866D02*
D03*
X19685Y275748D02*
D03*
X278543Y295276D02*
D03*
D151*
X656496Y314803D02*
D03*
Y304803D02*
D03*
Y294803D02*
D03*
Y284803D02*
D03*
Y274803D02*
D03*
Y264803D02*
D03*
Y254803D02*
D03*
X60866Y318898D02*
D03*
X278543Y310866D02*
D03*
X19685Y265748D02*
D03*
Y255748D02*
D03*
X278543Y285276D02*
D03*
D152*
X19685Y19685D02*
D03*
Y354331D02*
D03*
X649606D02*
D03*
Y19685D02*
D03*
D153*
X70866Y318898D02*
D03*
D154*
X5906Y33465D02*
D03*
X33465D02*
D03*
Y5906D02*
D03*
X5906D02*
D03*
Y340551D02*
D03*
X33465D02*
D03*
Y368110D02*
D03*
X5906D02*
D03*
X635827D02*
D03*
X663386D02*
D03*
Y340551D02*
D03*
X635827D02*
D03*
Y5906D02*
D03*
X663386D02*
D03*
Y33465D02*
D03*
X635827D02*
D03*
M02*
