G04 Layer_Color=16711935*
%FSLAX25Y25*%
%MOIN*%
G70*
G01*
G75*
%ADD95R,0.06112X0.04931*%
%ADD96R,0.04931X0.06112*%
%ADD97R,0.04931X0.03356*%
%ADD98R,0.04931X0.02372*%
%ADD112R,0.05600X0.12600*%
%ADD123R,0.05521X0.07490*%
%ADD131R,0.05324X0.05324*%
%ADD144C,0.26191*%
%ADD145C,0.07200*%
%ADD146R,0.07200X0.07200*%
%ADD147R,0.07200X0.07200*%
%ADD148R,0.06506X0.06506*%
%ADD149C,0.06506*%
%ADD150R,0.06506X0.06506*%
%ADD151C,0.08080*%
%ADD152R,0.08080X0.08080*%
%ADD153C,0.21600*%
%ADD154C,0.00724*%
%ADD155R,0.12600X0.05600*%
%ADD156O,0.02962X0.06309*%
%ADD157R,0.03159X0.04340*%
D95*
X37795Y156791D02*
D03*
Y163681D02*
D03*
X45669Y156791D02*
D03*
Y163681D02*
D03*
X98032Y163287D02*
D03*
Y156398D02*
D03*
X339370Y201772D02*
D03*
Y194882D02*
D03*
X329232Y201575D02*
D03*
Y194685D02*
D03*
X319193Y201575D02*
D03*
Y194685D02*
D03*
X299311Y201772D02*
D03*
Y194882D02*
D03*
X313780Y165453D02*
D03*
Y172343D02*
D03*
X133858Y194390D02*
D03*
Y187500D02*
D03*
X124803Y202067D02*
D03*
Y208957D02*
D03*
Y187500D02*
D03*
Y194390D02*
D03*
D96*
X354823Y217520D02*
D03*
X361713D02*
D03*
X354823Y209646D02*
D03*
X361713D02*
D03*
X394587Y156398D02*
D03*
X401476D02*
D03*
X98130Y27008D02*
D03*
X91240D02*
D03*
X98130Y37008D02*
D03*
X91240D02*
D03*
D97*
X213189Y142539D02*
D03*
Y152736D02*
D03*
X219882Y142539D02*
D03*
Y152736D02*
D03*
X213189Y122854D02*
D03*
Y133051D02*
D03*
X219882Y122854D02*
D03*
Y133051D02*
D03*
X219882Y81870D02*
D03*
Y71673D02*
D03*
X213189Y81870D02*
D03*
Y71673D02*
D03*
X213189Y51988D02*
D03*
Y62185D02*
D03*
X219882Y51988D02*
D03*
Y62185D02*
D03*
D98*
X213189Y146063D02*
D03*
Y149213D02*
D03*
X219882Y146063D02*
D03*
Y149213D02*
D03*
X213189Y126378D02*
D03*
Y129528D02*
D03*
X219882Y126378D02*
D03*
Y129528D02*
D03*
X219882Y78347D02*
D03*
Y75197D02*
D03*
X213189Y78347D02*
D03*
Y75197D02*
D03*
X213189Y55512D02*
D03*
Y58661D02*
D03*
X219882Y55512D02*
D03*
Y58661D02*
D03*
D112*
X433071Y59646D02*
D03*
Y80646D02*
D03*
X423071Y59646D02*
D03*
Y80646D02*
D03*
X413071Y59646D02*
D03*
Y80646D02*
D03*
X403071Y59646D02*
D03*
Y80646D02*
D03*
X393071Y59646D02*
D03*
Y80646D02*
D03*
X383071Y59646D02*
D03*
Y80646D02*
D03*
X373071Y59646D02*
D03*
X363071D02*
D03*
X373071Y80646D02*
D03*
X363071D02*
D03*
D123*
X369587Y187992D02*
D03*
X358760D02*
D03*
D131*
X53150Y163976D02*
D03*
Y156496D02*
D03*
D144*
X19685Y19685D02*
D03*
Y255906D02*
D03*
X531496D02*
D03*
X393701Y19685D02*
D03*
D145*
X102165Y13780D02*
D03*
X92165D02*
D03*
X82165D02*
D03*
X72165D02*
D03*
X62165D02*
D03*
X13780Y196693D02*
D03*
Y186693D02*
D03*
X525433Y81496D02*
D03*
Y71496D02*
D03*
Y61496D02*
D03*
Y51496D02*
D03*
Y41496D02*
D03*
Y31496D02*
D03*
X535433Y81496D02*
D03*
Y71496D02*
D03*
Y61496D02*
D03*
Y51496D02*
D03*
Y41496D02*
D03*
Y91496D02*
D03*
Y101496D02*
D03*
X525433Y91496D02*
D03*
Y101496D02*
D03*
X535433Y111496D02*
D03*
Y121496D02*
D03*
X525433Y111496D02*
D03*
Y121496D02*
D03*
D146*
X52165Y13780D02*
D03*
D147*
X13780Y206693D02*
D03*
X535433Y31496D02*
D03*
D148*
X538386Y226378D02*
D03*
D149*
Y216378D02*
D03*
Y206378D02*
D03*
Y196378D02*
D03*
Y186378D02*
D03*
Y176378D02*
D03*
Y166378D02*
D03*
Y156378D02*
D03*
X320394Y261811D02*
D03*
X310394D02*
D03*
X300394D02*
D03*
X359252Y172402D02*
D03*
X369252Y162402D02*
D03*
Y172402D02*
D03*
D150*
X330394Y261811D02*
D03*
X359252Y162402D02*
D03*
D151*
X139764Y244094D02*
D03*
X153543D02*
D03*
X167323D02*
D03*
X181103D02*
D03*
D152*
X194882D02*
D03*
D153*
X505433Y121496D02*
D03*
X443433Y31496D02*
D03*
D154*
X5906Y33465D02*
D03*
X33465D02*
D03*
Y5906D02*
D03*
X5906Y242126D02*
D03*
X33465D02*
D03*
Y269685D02*
D03*
X517717D02*
D03*
X545276Y242126D02*
D03*
X517717D02*
D03*
X379921Y5906D02*
D03*
X407480D02*
D03*
Y33465D02*
D03*
X379921D02*
D03*
D155*
X56756Y27008D02*
D03*
X77756D02*
D03*
X56756Y37008D02*
D03*
X77756D02*
D03*
X501244Y151969D02*
D03*
X522244D02*
D03*
X501244Y161969D02*
D03*
X522244D02*
D03*
X501244Y171968D02*
D03*
X522244D02*
D03*
X501244Y181968D02*
D03*
X522244D02*
D03*
X501244Y191969D02*
D03*
X522244D02*
D03*
X501244Y201969D02*
D03*
X522244D02*
D03*
D156*
X159075Y197933D02*
D03*
X154075D02*
D03*
X149075D02*
D03*
X144075D02*
D03*
X159075Y219390D02*
D03*
X154075D02*
D03*
X149075D02*
D03*
X144075D02*
D03*
D157*
X88583Y209350D02*
D03*
X85039Y200098D02*
D03*
X92126D02*
D03*
M02*
