G04 Layer_Color=8388736*
%FSLAX25Y25*%
%MOIN*%
G70*
G01*
G75*
%ADD95R,0.06112X0.04931*%
%ADD96R,0.03750X0.03750*%
%ADD97O,0.02765X0.05324*%
%ADD98R,0.05718X0.08080*%
%ADD99O,0.05718X0.08080*%
%ADD100R,0.08474X0.22253*%
%ADD101R,0.07214X0.08002*%
%ADD102O,0.05915X0.01742*%
%ADD103R,0.06112X0.02293*%
%ADD104R,0.03356X0.01584*%
G04:AMPARAMS|DCode=105|XSize=99.7mil|YSize=70.96mil|CornerRadius=19.24mil|HoleSize=0mil|Usage=FLASHONLY|Rotation=270.000|XOffset=0mil|YOffset=0mil|HoleType=Round|Shape=RoundedRectangle|*
%AMROUNDEDRECTD105*
21,1,0.09970,0.03248,0,0,270.0*
21,1,0.06122,0.07096,0,0,270.0*
1,1,0.03848,-0.01624,-0.03061*
1,1,0.03848,-0.01624,0.03061*
1,1,0.03848,0.01624,0.03061*
1,1,0.03848,0.01624,-0.03061*
%
%ADD105ROUNDEDRECTD105*%
%ADD106O,0.06309X0.02962*%
%ADD107O,0.05915X0.02293*%
%ADD108R,0.07529X0.12214*%
%ADD109O,0.01761X0.07096*%
%ADD110O,0.07096X0.01761*%
%ADD111R,0.07687X0.13986*%
%ADD112C,0.04537*%
%ADD113R,0.13986X0.07687*%
%ADD114R,0.09655X0.06506*%
%ADD115R,0.04931X0.02372*%
%ADD116R,0.04931X0.03356*%
%ADD117R,0.02372X0.04931*%
%ADD118R,0.03356X0.04931*%
%ADD119R,0.04931X0.06112*%
%ADD120R,0.05521X0.07490*%
%ADD121R,0.02962X0.02765*%
%ADD122R,0.03750X0.02962*%
%ADD123R,0.12017X0.21860*%
%ADD124R,0.28159X0.16348*%
%ADD125R,0.05600X0.12600*%
%ADD126R,0.12600X0.05600*%
%ADD127R,0.03750X0.03750*%
%ADD128R,0.02962X0.03750*%
%ADD129R,0.09065X0.07687*%
%ADD130R,0.07687X0.09065*%
%ADD131R,0.06112X0.06506*%
%ADD132R,0.05324X0.05324*%
%ADD133R,0.03750X0.02962*%
%ADD134R,0.06506X0.06112*%
%ADD135R,0.05324X0.05324*%
%ADD136R,0.02962X0.03750*%
%ADD137R,0.06506X0.10049*%
%ADD138R,0.07490X0.05521*%
%ADD139R,0.19104X0.13986*%
%ADD140R,0.13986X0.19104*%
%ADD141R,0.10600X0.05100*%
%ADD142R,0.06100X0.10600*%
%ADD143R,0.04340X0.04340*%
%ADD144C,0.06506*%
%ADD145R,0.06506X0.06506*%
%ADD146R,0.07200X0.07200*%
%ADD147C,0.07200*%
%ADD148P,0.10182X4X360.0*%
%ADD149R,0.06506X0.06506*%
%ADD150C,0.26191*%
%ADD151R,0.08080X0.08080*%
%ADD152C,0.08080*%
%ADD153R,0.07200X0.07200*%
%ADD154C,0.22253*%
%ADD155C,0.00724*%
G36*
X99388Y69406D02*
X99588D01*
X99833Y69361D01*
X100121Y69339D01*
X100433Y69295D01*
X100766Y69228D01*
X101144Y69161D01*
X101543Y69072D01*
X101944Y68961D01*
X102388Y68850D01*
X102832Y68695D01*
X103299Y68539D01*
X103765Y68339D01*
Y65606D01*
X103743Y65628D01*
X103632Y65650D01*
X103499Y65717D01*
X103299Y65806D01*
X103054Y65895D01*
X102788Y66006D01*
X102477Y66117D01*
X102144Y66228D01*
X101432Y66450D01*
X100699Y66650D01*
X99966Y66806D01*
X99610Y66828D01*
X99299Y66850D01*
X99144D01*
X98966Y66828D01*
X98744Y66806D01*
X98522Y66761D01*
X98255Y66717D01*
X98010Y66628D01*
X97788Y66517D01*
X97766Y66495D01*
X97699Y66450D01*
X97611Y66384D01*
X97522Y66295D01*
X97411Y66184D01*
X97322Y66028D01*
X97255Y65873D01*
X97233Y65673D01*
Y65650D01*
Y65606D01*
X97255Y65517D01*
X97277Y65406D01*
X97322Y65295D01*
X97411Y65162D01*
X97500Y65006D01*
X97633Y64873D01*
X97655Y64850D01*
X97722Y64806D01*
X97833Y64739D01*
X98033Y64628D01*
X98277Y64495D01*
X98455Y64406D01*
X98633Y64339D01*
X98833Y64250D01*
X99055Y64139D01*
X99322Y64051D01*
X99588Y63939D01*
X99610D01*
X99655Y63917D01*
X99744Y63873D01*
X99855Y63851D01*
X99988Y63784D01*
X100144Y63740D01*
X100499Y63584D01*
X100899Y63428D01*
X101321Y63251D01*
X101721Y63051D01*
X102099Y62873D01*
X102144Y62851D01*
X102255Y62784D01*
X102432Y62673D01*
X102655Y62517D01*
X102899Y62317D01*
X103188Y62073D01*
X103454Y61806D01*
X103721Y61473D01*
X103743Y61429D01*
X103832Y61317D01*
X103943Y61118D01*
X104077Y60851D01*
X104188Y60540D01*
X104299Y60140D01*
X104388Y59695D01*
X104410Y59207D01*
Y59184D01*
Y59118D01*
Y59007D01*
X104388Y58873D01*
X104366Y58718D01*
X104321Y58518D01*
X104232Y58073D01*
X104032Y57562D01*
X103921Y57318D01*
X103765Y57051D01*
X103610Y56785D01*
X103388Y56540D01*
X103166Y56296D01*
X102899Y56074D01*
X102877Y56051D01*
X102832Y56029D01*
X102743Y55963D01*
X102632Y55896D01*
X102477Y55807D01*
X102299Y55718D01*
X102099Y55607D01*
X101855Y55496D01*
X101588Y55385D01*
X101299Y55274D01*
X100966Y55185D01*
X100633Y55096D01*
X100255Y55029D01*
X99855Y54963D01*
X99433Y54940D01*
X98988Y54918D01*
X98722D01*
X98544Y54940D01*
X98299Y54963D01*
X98033Y54985D01*
X97699Y55029D01*
X97366Y55096D01*
X96988Y55163D01*
X96588Y55251D01*
X96166Y55362D01*
X95722Y55496D01*
X95278Y55651D01*
X94811Y55829D01*
X94367Y56029D01*
X93900Y56274D01*
Y59295D01*
X93922D01*
X93967Y59251D01*
X94033Y59207D01*
X94144Y59140D01*
X94255Y59051D01*
X94411Y58962D01*
X94744Y58762D01*
X95122Y58540D01*
X95544Y58318D01*
X95966Y58096D01*
X96389Y57918D01*
X96411D01*
X96433Y57896D01*
X96500Y57873D01*
X96588Y57851D01*
X96788Y57784D01*
X97077Y57718D01*
X97433Y57629D01*
X97833Y57562D01*
X98255Y57518D01*
X98699Y57496D01*
X98899D01*
X99033Y57518D01*
X99188Y57540D01*
X99366Y57562D01*
X99744Y57651D01*
X100121Y57807D01*
X100299Y57918D01*
X100455Y58051D01*
X100588Y58207D01*
X100699Y58385D01*
X100766Y58584D01*
X100788Y58807D01*
Y58829D01*
Y58873D01*
X100766Y58962D01*
X100744Y59073D01*
X100677Y59207D01*
X100610Y59340D01*
X100499Y59496D01*
X100366Y59629D01*
X100344Y59651D01*
X100277Y59695D01*
X100144Y59784D01*
X99966Y59895D01*
X99699Y60051D01*
X99521Y60118D01*
X99344Y60207D01*
X99144Y60295D01*
X98899Y60407D01*
X98655Y60495D01*
X98366Y60606D01*
X98344D01*
X98299Y60629D01*
X98211Y60673D01*
X98099Y60695D01*
X97966Y60762D01*
X97811Y60806D01*
X97455Y60962D01*
X97055Y61118D01*
X96633Y61295D01*
X96233Y61495D01*
X95855Y61673D01*
X95811Y61695D01*
X95700Y61762D01*
X95522Y61873D01*
X95322Y62028D01*
X95078Y62229D01*
X94811Y62451D01*
X94544Y62740D01*
X94278Y63051D01*
X94255Y63095D01*
X94166Y63206D01*
X94078Y63406D01*
X93944Y63673D01*
X93833Y64006D01*
X93722Y64406D01*
X93633Y64850D01*
X93611Y65361D01*
Y65384D01*
Y65450D01*
Y65539D01*
X93633Y65673D01*
X93655Y65828D01*
X93678Y66006D01*
X93789Y66406D01*
X93967Y66873D01*
X94078Y67117D01*
X94211Y67361D01*
X94389Y67606D01*
X94589Y67850D01*
X94811Y68072D01*
X95055Y68295D01*
X95078Y68317D01*
X95122Y68339D01*
X95211Y68406D01*
X95322Y68472D01*
X95477Y68561D01*
X95655Y68650D01*
X95855Y68761D01*
X96100Y68872D01*
X96366Y68961D01*
X96655Y69072D01*
X96988Y69161D01*
X97344Y69250D01*
X97699Y69317D01*
X98122Y69383D01*
X98544Y69406D01*
X98988Y69428D01*
X99210D01*
X99388Y69406D01*
D02*
G37*
G36*
X25462D02*
X25662D01*
X25907Y69361D01*
X26195Y69339D01*
X26507Y69295D01*
X26840Y69228D01*
X27218Y69161D01*
X27618Y69072D01*
X28018Y68961D01*
X28462Y68850D01*
X28906Y68695D01*
X29373Y68539D01*
X29840Y68339D01*
Y65606D01*
X29817Y65628D01*
X29706Y65650D01*
X29573Y65717D01*
X29373Y65806D01*
X29129Y65895D01*
X28862Y66006D01*
X28551Y66117D01*
X28218Y66228D01*
X27507Y66450D01*
X26773Y66650D01*
X26040Y66806D01*
X25684Y66828D01*
X25373Y66850D01*
X25218D01*
X25040Y66828D01*
X24818Y66806D01*
X24596Y66761D01*
X24329Y66717D01*
X24085Y66628D01*
X23862Y66517D01*
X23840Y66495D01*
X23774Y66450D01*
X23685Y66384D01*
X23596Y66295D01*
X23485Y66184D01*
X23396Y66028D01*
X23329Y65873D01*
X23307Y65673D01*
Y65650D01*
Y65606D01*
X23329Y65517D01*
X23351Y65406D01*
X23396Y65295D01*
X23485Y65162D01*
X23573Y65006D01*
X23707Y64873D01*
X23729Y64850D01*
X23796Y64806D01*
X23907Y64739D01*
X24107Y64628D01*
X24351Y64495D01*
X24529Y64406D01*
X24707Y64339D01*
X24907Y64250D01*
X25129Y64139D01*
X25396Y64051D01*
X25662Y63939D01*
X25684D01*
X25729Y63917D01*
X25818Y63873D01*
X25929Y63851D01*
X26062Y63784D01*
X26218Y63740D01*
X26573Y63584D01*
X26973Y63428D01*
X27395Y63251D01*
X27795Y63051D01*
X28173Y62873D01*
X28218Y62851D01*
X28329Y62784D01*
X28506Y62673D01*
X28729Y62517D01*
X28973Y62317D01*
X29262Y62073D01*
X29528Y61806D01*
X29795Y61473D01*
X29817Y61429D01*
X29906Y61317D01*
X30017Y61118D01*
X30151Y60851D01*
X30262Y60540D01*
X30373Y60140D01*
X30462Y59695D01*
X30484Y59207D01*
Y59184D01*
Y59118D01*
Y59007D01*
X30462Y58873D01*
X30439Y58718D01*
X30395Y58518D01*
X30306Y58073D01*
X30106Y57562D01*
X29995Y57318D01*
X29840Y57051D01*
X29684Y56785D01*
X29462Y56540D01*
X29240Y56296D01*
X28973Y56074D01*
X28951Y56051D01*
X28906Y56029D01*
X28817Y55963D01*
X28706Y55896D01*
X28551Y55807D01*
X28373Y55718D01*
X28173Y55607D01*
X27929Y55496D01*
X27662Y55385D01*
X27373Y55274D01*
X27040Y55185D01*
X26707Y55096D01*
X26329Y55029D01*
X25929Y54963D01*
X25507Y54940D01*
X25062Y54918D01*
X24796D01*
X24618Y54940D01*
X24374Y54963D01*
X24107Y54985D01*
X23774Y55029D01*
X23440Y55096D01*
X23063Y55163D01*
X22662Y55251D01*
X22240Y55362D01*
X21796Y55496D01*
X21351Y55651D01*
X20885Y55829D01*
X20440Y56029D01*
X19974Y56274D01*
Y59295D01*
X19996D01*
X20041Y59251D01*
X20107Y59207D01*
X20218Y59140D01*
X20329Y59051D01*
X20485Y58962D01*
X20818Y58762D01*
X21196Y58540D01*
X21618Y58318D01*
X22040Y58096D01*
X22463Y57918D01*
X22485D01*
X22507Y57896D01*
X22574Y57873D01*
X22662Y57851D01*
X22862Y57784D01*
X23151Y57718D01*
X23507Y57629D01*
X23907Y57562D01*
X24329Y57518D01*
X24773Y57496D01*
X24973D01*
X25107Y57518D01*
X25262Y57540D01*
X25440Y57562D01*
X25818Y57651D01*
X26195Y57807D01*
X26373Y57918D01*
X26529Y58051D01*
X26662Y58207D01*
X26773Y58385D01*
X26840Y58584D01*
X26862Y58807D01*
Y58829D01*
Y58873D01*
X26840Y58962D01*
X26818Y59073D01*
X26751Y59207D01*
X26684Y59340D01*
X26573Y59496D01*
X26440Y59629D01*
X26418Y59651D01*
X26351Y59695D01*
X26218Y59784D01*
X26040Y59895D01*
X25773Y60051D01*
X25596Y60118D01*
X25418Y60207D01*
X25218Y60295D01*
X24973Y60407D01*
X24729Y60495D01*
X24440Y60606D01*
X24418D01*
X24374Y60629D01*
X24285Y60673D01*
X24173Y60695D01*
X24040Y60762D01*
X23885Y60806D01*
X23529Y60962D01*
X23129Y61118D01*
X22707Y61295D01*
X22307Y61495D01*
X21929Y61673D01*
X21885Y61695D01*
X21774Y61762D01*
X21596Y61873D01*
X21396Y62028D01*
X21152Y62229D01*
X20885Y62451D01*
X20618Y62740D01*
X20352Y63051D01*
X20329Y63095D01*
X20241Y63206D01*
X20152Y63406D01*
X20018Y63673D01*
X19907Y64006D01*
X19796Y64406D01*
X19707Y64850D01*
X19685Y65361D01*
Y65384D01*
Y65450D01*
Y65539D01*
X19707Y65673D01*
X19729Y65828D01*
X19752Y66006D01*
X19863Y66406D01*
X20041Y66873D01*
X20152Y67117D01*
X20285Y67361D01*
X20463Y67606D01*
X20663Y67850D01*
X20885Y68072D01*
X21129Y68295D01*
X21152Y68317D01*
X21196Y68339D01*
X21285Y68406D01*
X21396Y68472D01*
X21552Y68561D01*
X21729Y68650D01*
X21929Y68761D01*
X22174Y68872D01*
X22440Y68961D01*
X22729Y69072D01*
X23063Y69161D01*
X23418Y69250D01*
X23774Y69317D01*
X24196Y69383D01*
X24618Y69406D01*
X25062Y69428D01*
X25284D01*
X25462Y69406D01*
D02*
G37*
G36*
X91034Y55118D02*
X88078D01*
X80279Y64139D01*
Y55118D01*
X76768D01*
Y69228D01*
X79968D01*
X87523Y60584D01*
Y69228D01*
X91034D01*
Y55118D01*
D02*
G37*
G36*
X73902Y66650D02*
X67147D01*
Y63673D01*
X73591D01*
Y61095D01*
X67147D01*
Y57696D01*
X74035D01*
Y55118D01*
X63636D01*
Y69228D01*
X73902D01*
Y66650D01*
D02*
G37*
G36*
X54415Y57696D02*
X61659D01*
Y55118D01*
X50904D01*
Y69228D01*
X54415D01*
Y57696D01*
D02*
G37*
G36*
X40594Y69406D02*
X40839Y69383D01*
X41150Y69361D01*
X41505Y69317D01*
X41905Y69250D01*
X42327Y69161D01*
X42794Y69028D01*
X43260Y68894D01*
X43749Y68717D01*
X44238Y68495D01*
X44727Y68250D01*
X45194Y67961D01*
X45660Y67606D01*
X46082Y67228D01*
X46105Y67206D01*
X46171Y67139D01*
X46282Y67006D01*
X46438Y66850D01*
X46593Y66628D01*
X46793Y66384D01*
X46993Y66095D01*
X47216Y65784D01*
X47416Y65428D01*
X47616Y65028D01*
X47816Y64628D01*
X47971Y64184D01*
X48127Y63695D01*
X48238Y63206D01*
X48304Y62695D01*
X48327Y62162D01*
Y62140D01*
Y62028D01*
X48304Y61873D01*
X48282Y61673D01*
X48260Y61406D01*
X48215Y61118D01*
X48127Y60784D01*
X48038Y60429D01*
X47927Y60029D01*
X47771Y59629D01*
X47593Y59207D01*
X47371Y58784D01*
X47104Y58340D01*
X46816Y57918D01*
X46460Y57496D01*
X46060Y57073D01*
X46038Y57051D01*
X45949Y56985D01*
X45838Y56874D01*
X45660Y56740D01*
X45416Y56585D01*
X45149Y56385D01*
X44838Y56207D01*
X44483Y56007D01*
X44083Y55785D01*
X43638Y55607D01*
X43172Y55429D01*
X42638Y55251D01*
X42105Y55118D01*
X41505Y55007D01*
X40883Y54940D01*
X40238Y54918D01*
X40083D01*
X39905Y54940D01*
X39639Y54963D01*
X39350Y54985D01*
X38994Y55029D01*
X38594Y55096D01*
X38172Y55185D01*
X37728Y55296D01*
X37239Y55429D01*
X36772Y55607D01*
X36283Y55829D01*
X35794Y56074D01*
X35306Y56340D01*
X34861Y56674D01*
X34417Y57051D01*
X34395Y57073D01*
X34328Y57140D01*
X34217Y57274D01*
X34061Y57429D01*
X33906Y57651D01*
X33706Y57896D01*
X33506Y58184D01*
X33306Y58496D01*
X33084Y58851D01*
X32884Y59251D01*
X32684Y59673D01*
X32528Y60118D01*
X32373Y60584D01*
X32262Y61095D01*
X32195Y61629D01*
X32173Y62162D01*
Y62206D01*
Y62295D01*
X32195Y62451D01*
X32217Y62651D01*
X32239Y62895D01*
X32284Y63206D01*
X32350Y63539D01*
X32462Y63895D01*
X32573Y64273D01*
X32706Y64695D01*
X32906Y65095D01*
X33106Y65539D01*
X33373Y65984D01*
X33661Y66406D01*
X33995Y66828D01*
X34395Y67250D01*
X34417Y67273D01*
X34506Y67339D01*
X34617Y67450D01*
X34795Y67584D01*
X35017Y67761D01*
X35306Y67939D01*
X35617Y68139D01*
X35972Y68339D01*
X36372Y68539D01*
X36817Y68739D01*
X37283Y68917D01*
X37817Y69095D01*
X38372Y69228D01*
X38950Y69339D01*
X39572Y69406D01*
X40238Y69428D01*
X40394D01*
X40594Y69406D01*
D02*
G37*
%LPC*%
G36*
X40238Y66495D02*
X40039D01*
X39905Y66473D01*
X39728Y66450D01*
X39550Y66428D01*
X39327Y66406D01*
X39083Y66339D01*
X38572Y66206D01*
X38039Y65984D01*
X37772Y65850D01*
X37505Y65695D01*
X37261Y65517D01*
X37017Y65295D01*
X36994Y65273D01*
X36972Y65250D01*
X36906Y65184D01*
X36817Y65073D01*
X36728Y64962D01*
X36639Y64828D01*
X36528Y64650D01*
X36417Y64473D01*
X36283Y64250D01*
X36172Y64006D01*
X35994Y63473D01*
X35839Y62851D01*
X35817Y62517D01*
X35794Y62162D01*
Y62140D01*
Y62073D01*
Y61984D01*
X35817Y61851D01*
X35839Y61673D01*
X35861Y61495D01*
X35950Y61051D01*
X36083Y60540D01*
X36306Y60029D01*
X36461Y59762D01*
X36617Y59518D01*
X36794Y59273D01*
X37017Y59029D01*
X37039Y59007D01*
X37083Y58984D01*
X37150Y58918D01*
X37239Y58851D01*
X37372Y58762D01*
X37505Y58651D01*
X37683Y58540D01*
X37883Y58451D01*
X38105Y58340D01*
X38350Y58229D01*
X38883Y58029D01*
X39527Y57896D01*
X39883Y57873D01*
X40238Y57851D01*
X40439D01*
X40572Y57873D01*
X40750Y57896D01*
X40927Y57918D01*
X41150Y57940D01*
X41394Y58007D01*
X41905Y58140D01*
X42438Y58340D01*
X42705Y58473D01*
X42972Y58651D01*
X43216Y58829D01*
X43460Y59029D01*
X43483Y59051D01*
X43505Y59096D01*
X43571Y59162D01*
X43660Y59251D01*
X43749Y59362D01*
X43860Y59518D01*
X43971Y59673D01*
X44083Y59873D01*
X44194Y60095D01*
X44305Y60318D01*
X44505Y60851D01*
X44660Y61473D01*
X44682Y61806D01*
X44705Y62162D01*
Y62184D01*
Y62251D01*
Y62362D01*
X44682Y62495D01*
X44660Y62651D01*
X44638Y62851D01*
X44549Y63295D01*
X44394Y63784D01*
X44172Y64317D01*
X44038Y64562D01*
X43883Y64828D01*
X43683Y65073D01*
X43460Y65295D01*
X43438Y65317D01*
X43394Y65339D01*
X43327Y65406D01*
X43238Y65473D01*
X43127Y65584D01*
X42972Y65673D01*
X42794Y65784D01*
X42594Y65895D01*
X42372Y66006D01*
X42127Y66117D01*
X41594Y66317D01*
X40950Y66450D01*
X40594Y66473D01*
X40238Y66495D01*
D02*
G37*
%LPD*%
D95*
X375000Y287894D02*
D03*
Y281004D02*
D03*
X299213Y203740D02*
D03*
Y196850D02*
D03*
X387795Y41831D02*
D03*
Y48720D02*
D03*
X399606Y41831D02*
D03*
Y48720D02*
D03*
X411417Y41831D02*
D03*
Y48720D02*
D03*
X423228Y41831D02*
D03*
Y48720D02*
D03*
X88583Y266240D02*
D03*
Y273130D02*
D03*
X78740Y266240D02*
D03*
Y273130D02*
D03*
X108268Y296752D02*
D03*
Y289862D02*
D03*
X316929Y203740D02*
D03*
Y196850D02*
D03*
X336614D02*
D03*
Y203740D02*
D03*
X206693Y32972D02*
D03*
Y26083D02*
D03*
X196850Y32972D02*
D03*
Y26083D02*
D03*
X295276Y32972D02*
D03*
Y26083D02*
D03*
X285433Y32972D02*
D03*
Y26083D02*
D03*
X280512Y62500D02*
D03*
Y55610D02*
D03*
X484646Y200886D02*
D03*
Y207776D02*
D03*
X493504Y200886D02*
D03*
Y207776D02*
D03*
X88583Y281988D02*
D03*
Y288878D02*
D03*
X78740Y281988D02*
D03*
Y288878D02*
D03*
X557972Y55413D02*
D03*
Y62303D02*
D03*
X548130D02*
D03*
Y55413D02*
D03*
X538287D02*
D03*
Y62303D02*
D03*
D96*
X360236Y290354D02*
D03*
X366142D02*
D03*
X57087Y236221D02*
D03*
X51181D02*
D03*
X57087Y216535D02*
D03*
X51181D02*
D03*
X602756Y73425D02*
D03*
X596850D02*
D03*
X602756Y64764D02*
D03*
X596850D02*
D03*
D97*
X76870Y106299D02*
D03*
X80020D02*
D03*
X83169D02*
D03*
X86319D02*
D03*
X89468D02*
D03*
X92618D02*
D03*
X95768D02*
D03*
X98917D02*
D03*
X102067D02*
D03*
X105217D02*
D03*
X108366D02*
D03*
X111516D02*
D03*
X114665D02*
D03*
X117815D02*
D03*
X120965D02*
D03*
X124114D02*
D03*
X127264D02*
D03*
X130413D02*
D03*
X133563D02*
D03*
X136713D02*
D03*
X139862D02*
D03*
X143012D02*
D03*
X146161D02*
D03*
X149311D02*
D03*
X152461D02*
D03*
X155610D02*
D03*
X158760D02*
D03*
X76870Y151575D02*
D03*
X80020D02*
D03*
X83169D02*
D03*
X86319D02*
D03*
X89468D02*
D03*
X92618D02*
D03*
X95768D02*
D03*
X98917D02*
D03*
X102067D02*
D03*
X105217D02*
D03*
X108366D02*
D03*
X111516D02*
D03*
X114665D02*
D03*
X117815D02*
D03*
X120965D02*
D03*
X124114D02*
D03*
X127264D02*
D03*
X130413D02*
D03*
X133563D02*
D03*
X136713D02*
D03*
X139862D02*
D03*
X143012D02*
D03*
X146161D02*
D03*
X149311D02*
D03*
X152461D02*
D03*
X155610D02*
D03*
X158760D02*
D03*
D98*
X134744Y211814D02*
D03*
X205610Y183760D02*
D03*
D99*
X156398Y211814D02*
D03*
X134744Y224412D02*
D03*
X156398D02*
D03*
X183957Y183760D02*
D03*
X205610Y171161D02*
D03*
X183957D02*
D03*
D100*
X212598Y118110D02*
D03*
Y80709D02*
D03*
D101*
X391732Y320866D02*
D03*
D102*
X400492Y316929D02*
D03*
Y318898D02*
D03*
Y320866D02*
D03*
Y322835D02*
D03*
Y324803D02*
D03*
X382972Y316929D02*
D03*
Y318898D02*
D03*
Y320866D02*
D03*
Y322835D02*
D03*
Y324803D02*
D03*
D103*
X612795Y73032D02*
D03*
Y70473D02*
D03*
Y67913D02*
D03*
Y65354D02*
D03*
X630118Y73032D02*
D03*
Y70473D02*
D03*
Y67913D02*
D03*
Y65354D02*
D03*
X92323Y212697D02*
D03*
Y215256D02*
D03*
Y217815D02*
D03*
Y220374D02*
D03*
X75000Y212697D02*
D03*
Y215256D02*
D03*
Y217815D02*
D03*
Y220374D02*
D03*
X186319Y221951D02*
D03*
Y219392D02*
D03*
Y216833D02*
D03*
Y214274D02*
D03*
X203642Y221951D02*
D03*
Y219392D02*
D03*
Y216833D02*
D03*
Y214274D02*
D03*
D104*
X255512Y281594D02*
D03*
Y279626D02*
D03*
Y277658D02*
D03*
Y275689D02*
D03*
X244488D02*
D03*
Y277658D02*
D03*
Y279626D02*
D03*
Y281594D02*
D03*
D105*
X250000Y278543D02*
D03*
D106*
X127067Y273248D02*
D03*
Y268248D02*
D03*
Y263248D02*
D03*
Y258248D02*
D03*
X148524Y273248D02*
D03*
Y268248D02*
D03*
Y263248D02*
D03*
Y258248D02*
D03*
X107382Y351988D02*
D03*
Y346988D02*
D03*
Y341988D02*
D03*
Y336988D02*
D03*
X128839Y351988D02*
D03*
Y346988D02*
D03*
Y341988D02*
D03*
Y336988D02*
D03*
D107*
X109350Y321358D02*
D03*
Y318799D02*
D03*
Y316240D02*
D03*
Y313681D02*
D03*
Y311122D02*
D03*
Y308563D02*
D03*
X126870Y321358D02*
D03*
Y318799D02*
D03*
Y316240D02*
D03*
Y313681D02*
D03*
Y311122D02*
D03*
Y308563D02*
D03*
D108*
X118110Y314961D02*
D03*
D109*
X280512Y180413D02*
D03*
X282480D02*
D03*
X284449D02*
D03*
X286417D02*
D03*
X288386D02*
D03*
X290354D02*
D03*
X292323D02*
D03*
X294291D02*
D03*
X296260D02*
D03*
X298228D02*
D03*
X300197D02*
D03*
X302165D02*
D03*
X304134D02*
D03*
X306102D02*
D03*
X308071D02*
D03*
X310039D02*
D03*
X312008D02*
D03*
X313976D02*
D03*
X315945D02*
D03*
X317913D02*
D03*
X319882D02*
D03*
X321850D02*
D03*
X323819D02*
D03*
X325787D02*
D03*
X327756D02*
D03*
X329724D02*
D03*
X331693D02*
D03*
X333661D02*
D03*
X335630D02*
D03*
X337598D02*
D03*
X339567D02*
D03*
X341535D02*
D03*
X343504D02*
D03*
X345472D02*
D03*
X347441D02*
D03*
X349410D02*
D03*
Y95177D02*
D03*
X347441D02*
D03*
X345472D02*
D03*
X343504D02*
D03*
X341535D02*
D03*
X339567D02*
D03*
X337598D02*
D03*
X335630D02*
D03*
X333661D02*
D03*
X331693D02*
D03*
X329724D02*
D03*
X327756D02*
D03*
X325787D02*
D03*
X323819D02*
D03*
X321850D02*
D03*
X319882D02*
D03*
X317913D02*
D03*
X315945D02*
D03*
X313976D02*
D03*
X312008D02*
D03*
X310039D02*
D03*
X308071D02*
D03*
X306102D02*
D03*
X304134D02*
D03*
X302165D02*
D03*
X300197D02*
D03*
X298228D02*
D03*
X296260D02*
D03*
X294291D02*
D03*
X292323D02*
D03*
X290354D02*
D03*
X288386D02*
D03*
X286417D02*
D03*
X284449D02*
D03*
X282480D02*
D03*
X280512D02*
D03*
D110*
X357579Y172244D02*
D03*
Y170276D02*
D03*
Y168307D02*
D03*
Y166339D02*
D03*
Y164370D02*
D03*
Y162402D02*
D03*
Y160433D02*
D03*
Y158465D02*
D03*
Y156496D02*
D03*
Y154528D02*
D03*
Y152559D02*
D03*
Y150591D02*
D03*
Y148622D02*
D03*
Y146653D02*
D03*
Y144685D02*
D03*
Y142717D02*
D03*
Y140748D02*
D03*
Y138779D02*
D03*
Y136811D02*
D03*
Y134843D02*
D03*
Y132874D02*
D03*
Y130905D02*
D03*
Y128937D02*
D03*
Y126969D02*
D03*
Y125000D02*
D03*
Y123031D02*
D03*
Y121063D02*
D03*
Y119095D02*
D03*
Y117126D02*
D03*
Y115157D02*
D03*
Y113189D02*
D03*
Y111221D02*
D03*
Y109252D02*
D03*
Y107283D02*
D03*
Y105315D02*
D03*
Y103347D02*
D03*
X272342D02*
D03*
Y105315D02*
D03*
Y107283D02*
D03*
Y109252D02*
D03*
Y111221D02*
D03*
Y113189D02*
D03*
Y115157D02*
D03*
Y117126D02*
D03*
Y119095D02*
D03*
Y121063D02*
D03*
Y123031D02*
D03*
Y125000D02*
D03*
Y126969D02*
D03*
Y128937D02*
D03*
Y130905D02*
D03*
Y132874D02*
D03*
Y134843D02*
D03*
Y136811D02*
D03*
Y138779D02*
D03*
Y140748D02*
D03*
Y142717D02*
D03*
Y144685D02*
D03*
Y146653D02*
D03*
Y148622D02*
D03*
Y150591D02*
D03*
Y152559D02*
D03*
Y154528D02*
D03*
Y156496D02*
D03*
Y158465D02*
D03*
Y160433D02*
D03*
Y162402D02*
D03*
Y164370D02*
D03*
Y166339D02*
D03*
Y168307D02*
D03*
Y170276D02*
D03*
Y172244D02*
D03*
D111*
X620079Y354331D02*
D03*
X605315D02*
D03*
X631791Y84653D02*
D03*
Y53937D02*
D03*
X387795Y15748D02*
D03*
X399606D02*
D03*
X411417D02*
D03*
X423228D02*
D03*
X98425Y285433D02*
D03*
X167323Y15748D02*
D03*
X147638D02*
D03*
X364173D02*
D03*
X344488D02*
D03*
D112*
X114665Y90551D02*
D03*
X148819Y292126D02*
D03*
X108366Y98721D02*
D03*
D113*
X319685Y270866D02*
D03*
X19685Y165354D02*
D03*
Y181102D02*
D03*
Y196850D02*
D03*
Y236221D02*
D03*
Y216535D02*
D03*
X275590Y265748D02*
D03*
X110236Y360236D02*
D03*
X167323Y269685D02*
D03*
X19685Y299213D02*
D03*
X454134Y200394D02*
D03*
Y212205D02*
D03*
X486221Y242126D02*
D03*
D114*
X455315Y353346D02*
D03*
X481693D02*
D03*
X456102Y242126D02*
D03*
X429724D02*
D03*
X318307D02*
D03*
X291929D02*
D03*
D115*
X239567Y128347D02*
D03*
Y131496D02*
D03*
X232874Y128347D02*
D03*
Y131496D02*
D03*
X239567Y148031D02*
D03*
Y151181D02*
D03*
X232874Y148031D02*
D03*
Y151181D02*
D03*
X268307Y200394D02*
D03*
Y197244D02*
D03*
X275000Y200394D02*
D03*
Y197244D02*
D03*
D116*
X239567Y124823D02*
D03*
Y135020D02*
D03*
X232874Y124823D02*
D03*
Y135020D02*
D03*
X239567Y144508D02*
D03*
Y154705D02*
D03*
X232874Y144508D02*
D03*
Y154705D02*
D03*
X268307Y203917D02*
D03*
Y193720D02*
D03*
X275000Y203917D02*
D03*
Y193720D02*
D03*
D117*
X316535Y62402D02*
D03*
X313386D02*
D03*
X316535Y55709D02*
D03*
X313386D02*
D03*
X296850Y62402D02*
D03*
X293701D02*
D03*
X296850Y55709D02*
D03*
X293701D02*
D03*
D118*
X320059Y62402D02*
D03*
X309862D02*
D03*
X320059Y55709D02*
D03*
X309862D02*
D03*
X300374Y62402D02*
D03*
X290177D02*
D03*
X300374Y55709D02*
D03*
X290177D02*
D03*
D119*
X469980Y295276D02*
D03*
X476870D02*
D03*
X591043Y314961D02*
D03*
X597933D02*
D03*
X591043Y323819D02*
D03*
X597933D02*
D03*
X591043Y279528D02*
D03*
X597933D02*
D03*
X469980Y305118D02*
D03*
X476870D02*
D03*
X591043Y306102D02*
D03*
X597933D02*
D03*
X591043Y332677D02*
D03*
X597933D02*
D03*
X591043Y288386D02*
D03*
X597933D02*
D03*
X591043Y297244D02*
D03*
X597933D02*
D03*
X485728Y322835D02*
D03*
X492618D02*
D03*
X469980Y314961D02*
D03*
X476870D02*
D03*
X381398Y136811D02*
D03*
X374508D02*
D03*
X391240Y297244D02*
D03*
X384350D02*
D03*
X417323Y304724D02*
D03*
X424213D02*
D03*
Y296457D02*
D03*
X417323D02*
D03*
X401673D02*
D03*
X408563D02*
D03*
X35925Y165354D02*
D03*
X42815D02*
D03*
X35925Y181102D02*
D03*
X42815D02*
D03*
X35925Y196850D02*
D03*
X42815D02*
D03*
X115157Y281496D02*
D03*
X108268D02*
D03*
X94488Y307087D02*
D03*
X87598D02*
D03*
X108268Y271654D02*
D03*
X115157D02*
D03*
Y261811D02*
D03*
X108268D02*
D03*
X87598Y316929D02*
D03*
X94488D02*
D03*
X87598Y326772D02*
D03*
X94488D02*
D03*
X449311Y226378D02*
D03*
X456201D02*
D03*
X360728Y242126D02*
D03*
X353839D02*
D03*
X232776Y98425D02*
D03*
X239665D02*
D03*
X232776Y110236D02*
D03*
X239665D02*
D03*
X509350Y163386D02*
D03*
X516240D02*
D03*
X374508Y153543D02*
D03*
X381398D02*
D03*
X270177Y71850D02*
D03*
X277067D02*
D03*
Y79724D02*
D03*
X270177D02*
D03*
X646555Y69587D02*
D03*
X639665D02*
D03*
X65453Y204724D02*
D03*
X72342D02*
D03*
X87500Y298425D02*
D03*
X94390D02*
D03*
X353839Y210630D02*
D03*
X360728D02*
D03*
Y218504D02*
D03*
X353839D02*
D03*
X239567Y181791D02*
D03*
X232677D02*
D03*
Y172933D02*
D03*
X239567D02*
D03*
X254429Y177165D02*
D03*
X261319D02*
D03*
X360728Y226378D02*
D03*
X353839D02*
D03*
Y234252D02*
D03*
X360728D02*
D03*
X516240Y179134D02*
D03*
X509350D02*
D03*
Y187008D02*
D03*
X516240D02*
D03*
Y171260D02*
D03*
X509350D02*
D03*
D120*
X352559Y277953D02*
D03*
X341732D02*
D03*
X352559Y268110D02*
D03*
X341732D02*
D03*
X244587Y291339D02*
D03*
X255413D02*
D03*
X128445Y297244D02*
D03*
X139272D02*
D03*
D121*
X619783Y86910D02*
D03*
X623130D02*
D03*
X623228Y51279D02*
D03*
X619882D02*
D03*
D122*
X494095Y291339D02*
D03*
X484252Y287598D02*
D03*
Y295079D02*
D03*
X494095Y307087D02*
D03*
X484252Y303346D02*
D03*
Y310827D02*
D03*
D123*
X356299Y330709D02*
D03*
X318110D02*
D03*
D124*
X192913Y334646D02*
D03*
Y295276D02*
D03*
D125*
X570354Y253937D02*
D03*
Y232937D02*
D03*
X560354Y253937D02*
D03*
Y232937D02*
D03*
X550354Y253937D02*
D03*
Y232937D02*
D03*
X540354Y253937D02*
D03*
Y232937D02*
D03*
X530354Y253937D02*
D03*
Y232937D02*
D03*
X520354Y253937D02*
D03*
Y232937D02*
D03*
X532992Y15748D02*
D03*
Y36748D02*
D03*
X542992Y15748D02*
D03*
Y36748D02*
D03*
X552992Y15748D02*
D03*
Y36748D02*
D03*
X562992Y15748D02*
D03*
Y36748D02*
D03*
X572992Y15748D02*
D03*
Y36748D02*
D03*
X582992Y15748D02*
D03*
Y36748D02*
D03*
X592992Y15748D02*
D03*
X602992D02*
D03*
X592992Y36748D02*
D03*
X602992D02*
D03*
D126*
X375197Y242244D02*
D03*
X396197D02*
D03*
X375197Y232244D02*
D03*
X396197D02*
D03*
X375197Y222244D02*
D03*
X396197D02*
D03*
X375197Y212244D02*
D03*
X396197D02*
D03*
X375197Y202244D02*
D03*
X396197D02*
D03*
X375197Y192244D02*
D03*
X396197D02*
D03*
D127*
X387795Y28543D02*
D03*
Y34449D02*
D03*
X399606Y28543D02*
D03*
Y34449D02*
D03*
X411417Y28543D02*
D03*
Y34449D02*
D03*
X423228Y28543D02*
D03*
Y34449D02*
D03*
D128*
X143307Y317618D02*
D03*
X147047Y307776D02*
D03*
X139567D02*
D03*
D129*
X70866Y303150D02*
D03*
X55512D02*
D03*
D130*
X145669Y340748D02*
D03*
Y356102D02*
D03*
D131*
X496063Y268110D02*
D03*
Y279134D02*
D03*
X487205Y268110D02*
D03*
Y279134D02*
D03*
D132*
X492913Y331693D02*
D03*
X485433D02*
D03*
X411417Y318898D02*
D03*
X418898D02*
D03*
X384055Y305118D02*
D03*
X391535D02*
D03*
X413583Y263386D02*
D03*
X406102D02*
D03*
X409055Y304724D02*
D03*
X401575D02*
D03*
X139764Y324803D02*
D03*
X147244D02*
D03*
X374016Y164370D02*
D03*
X381496D02*
D03*
X254134Y169291D02*
D03*
X261614D02*
D03*
D133*
X158661Y90551D02*
D03*
X153543D02*
D03*
X142323D02*
D03*
X137205D02*
D03*
X125984D02*
D03*
X120866D02*
D03*
X87795D02*
D03*
X82677D02*
D03*
X153543Y165354D02*
D03*
X158661D02*
D03*
X137205D02*
D03*
X142323D02*
D03*
X120866D02*
D03*
X125984D02*
D03*
X82677D02*
D03*
X87795D02*
D03*
X411417Y328740D02*
D03*
X416535D02*
D03*
X391732Y332677D02*
D03*
X386614D02*
D03*
X624016Y81988D02*
D03*
X618898D02*
D03*
X618996Y56299D02*
D03*
X624114D02*
D03*
X81102Y204724D02*
D03*
X86221D02*
D03*
X173917Y229924D02*
D03*
X168799D02*
D03*
X173917Y214176D02*
D03*
X168799D02*
D03*
X173917Y222050D02*
D03*
X168799D02*
D03*
X434646Y226378D02*
D03*
X429528D02*
D03*
X379134Y179528D02*
D03*
X374016D02*
D03*
X379134Y171260D02*
D03*
X374016D02*
D03*
X379134Y144685D02*
D03*
X374016D02*
D03*
X379134Y123031D02*
D03*
X374016D02*
D03*
X255906Y106501D02*
D03*
X250787D02*
D03*
X255906Y129921D02*
D03*
X250787D02*
D03*
X260433Y185039D02*
D03*
X255315D02*
D03*
X278150Y242126D02*
D03*
X273031D02*
D03*
X255906Y96850D02*
D03*
X250787D02*
D03*
X255906Y101676D02*
D03*
X250787D02*
D03*
X222933Y183760D02*
D03*
X217815D02*
D03*
X222933Y170965D02*
D03*
X217815D02*
D03*
D134*
X415354Y272047D02*
D03*
X404331D02*
D03*
X419291Y336614D02*
D03*
X408268D02*
D03*
X139764Y287402D02*
D03*
X128740D02*
D03*
X255512Y309055D02*
D03*
X244488D02*
D03*
X518898Y212598D02*
D03*
X507874D02*
D03*
X518898Y202756D02*
D03*
X507874D02*
D03*
D135*
X307874Y270669D02*
D03*
Y278150D02*
D03*
X361221Y79527D02*
D03*
Y72047D02*
D03*
D136*
X118110Y295866D02*
D03*
Y290748D02*
D03*
X616142Y23031D02*
D03*
Y28150D02*
D03*
X308071Y201969D02*
D03*
Y196850D02*
D03*
X326772Y201969D02*
D03*
Y196850D02*
D03*
X354331Y73622D02*
D03*
Y78740D02*
D03*
X329724Y73622D02*
D03*
Y78740D02*
D03*
X309055Y73622D02*
D03*
Y78740D02*
D03*
X283465Y73622D02*
D03*
Y78740D02*
D03*
X196850Y80118D02*
D03*
Y85236D02*
D03*
Y119291D02*
D03*
Y114173D02*
D03*
D137*
X66142Y259842D02*
D03*
X55118D02*
D03*
X66142Y273622D02*
D03*
X55118D02*
D03*
X66142Y287402D02*
D03*
X55118D02*
D03*
D138*
X477559Y268602D02*
D03*
Y279429D02*
D03*
D139*
X629921Y253937D02*
D03*
X383858Y350394D02*
D03*
X167323Y248031D02*
D03*
X19685Y318898D02*
D03*
X334646Y59055D02*
D03*
D140*
X492126Y17717D02*
D03*
X113189D02*
D03*
D141*
X571555Y337281D02*
D03*
Y329481D02*
D03*
Y321481D02*
D03*
Y313681D02*
D03*
Y305781D02*
D03*
X571655Y297881D02*
D03*
Y290081D02*
D03*
Y282181D02*
D03*
X510154Y282281D02*
D03*
Y290181D02*
D03*
Y297981D02*
D03*
Y305781D02*
D03*
Y313781D02*
D03*
Y321581D02*
D03*
Y329481D02*
D03*
Y337281D02*
D03*
D142*
X552555Y274081D02*
D03*
X560555D02*
D03*
X544755D02*
D03*
X536755D02*
D03*
X528955D02*
D03*
X521154D02*
D03*
D143*
X513779Y152461D02*
D03*
X519488D02*
D03*
Y146555D02*
D03*
X513779D02*
D03*
Y140650D02*
D03*
X519488D02*
D03*
Y134744D02*
D03*
X513779D02*
D03*
Y128839D02*
D03*
X519488D02*
D03*
Y122933D02*
D03*
X513779D02*
D03*
Y117028D02*
D03*
X519488D02*
D03*
Y111122D02*
D03*
X513779D02*
D03*
D144*
X393228Y364173D02*
D03*
X403228D02*
D03*
X413228D02*
D03*
X278543Y285276D02*
D03*
Y310866D02*
D03*
X60866Y318898D02*
D03*
X656496Y254803D02*
D03*
Y264803D02*
D03*
Y274803D02*
D03*
Y284803D02*
D03*
Y294803D02*
D03*
Y304803D02*
D03*
Y314803D02*
D03*
D145*
X423228Y364173D02*
D03*
X70866Y318898D02*
D03*
D146*
X19685Y275748D02*
D03*
X547244Y204724D02*
D03*
D147*
X19685Y265748D02*
D03*
Y255748D02*
D03*
X447653Y276394D02*
D03*
X455527Y268519D02*
D03*
X237008Y13780D02*
D03*
X227008D02*
D03*
X217008D02*
D03*
X207008D02*
D03*
X197008D02*
D03*
X325590D02*
D03*
X315591D02*
D03*
X305591D02*
D03*
X295590D02*
D03*
X285591D02*
D03*
X557244Y114724D02*
D03*
Y124724D02*
D03*
X547244Y114724D02*
D03*
Y124724D02*
D03*
X557244Y134724D02*
D03*
Y144724D02*
D03*
X547244Y134724D02*
D03*
Y144724D02*
D03*
Y194724D02*
D03*
Y184724D02*
D03*
Y174724D02*
D03*
Y164724D02*
D03*
Y154724D02*
D03*
X557244Y204724D02*
D03*
Y194724D02*
D03*
Y184724D02*
D03*
Y174724D02*
D03*
Y164724D02*
D03*
Y154724D02*
D03*
D148*
X454724Y283465D02*
D03*
X462598Y275590D02*
D03*
D149*
X278543Y295276D02*
D03*
Y320866D02*
D03*
X656496Y324803D02*
D03*
D150*
X649606Y19685D02*
D03*
Y354331D02*
D03*
X19685D02*
D03*
Y19685D02*
D03*
D151*
X273622Y342520D02*
D03*
X68898D02*
D03*
D152*
X259842D02*
D03*
X246063D02*
D03*
X55118D02*
D03*
D153*
X187008Y13780D02*
D03*
X275590D02*
D03*
D154*
X637795Y204724D02*
D03*
X578740Y114724D02*
D03*
D155*
X635827Y33465D02*
D03*
X663386D02*
D03*
Y5906D02*
D03*
X635827D02*
D03*
Y340551D02*
D03*
X663386D02*
D03*
Y368110D02*
D03*
X635827D02*
D03*
X5906D02*
D03*
X33465D02*
D03*
Y340551D02*
D03*
X5906D02*
D03*
Y5906D02*
D03*
X33465D02*
D03*
Y33465D02*
D03*
X5906D02*
D03*
M02*
