G04 Layer_Color=8388736*
%FSLAX25Y25*%
%MOIN*%
G70*
G01*
G75*
%ADD94R,0.08474X0.22253*%
G04:AMPARAMS|DCode=95|XSize=99.7mil|YSize=70.96mil|CornerRadius=19.24mil|HoleSize=0mil|Usage=FLASHONLY|Rotation=270.000|XOffset=0mil|YOffset=0mil|HoleType=Round|Shape=RoundedRectangle|*
%AMROUNDEDRECTD95*
21,1,0.09970,0.03248,0,0,270.0*
21,1,0.06122,0.07096,0,0,270.0*
1,1,0.03848,-0.01624,-0.03061*
1,1,0.03848,-0.01624,0.03061*
1,1,0.03848,0.01624,0.03061*
1,1,0.03848,0.01624,-0.03061*
%
%ADD95ROUNDEDRECTD95*%
%ADD96R,0.04143X0.01584*%
%ADD97R,0.05718X0.08080*%
%ADD98O,0.05718X0.08080*%
%ADD99R,0.06506X0.09655*%
%ADD100R,0.09655X0.06506*%
%ADD101R,0.10600X0.05100*%
%ADD102R,0.06100X0.10600*%
%ADD103R,0.04931X0.06112*%
%ADD104C,0.04537*%
%ADD105R,0.04143X0.03159*%
%ADD106R,0.03159X0.04143*%
%ADD107R,0.05324X0.05324*%
%ADD108R,0.05324X0.05324*%
%ADD109R,0.06112X0.06506*%
%ADD110R,0.06506X0.06112*%
%ADD111R,0.06506X0.10049*%
%ADD112R,0.03750X0.03750*%
%ADD113R,0.03750X0.03750*%
%ADD114R,0.02962X0.02765*%
%ADD115R,0.06112X0.04931*%
%ADD116R,0.05521X0.07490*%
%ADD117R,0.07490X0.05521*%
%ADD118R,0.13986X0.19104*%
%ADD119R,0.19104X0.13986*%
%ADD120R,0.07687X0.13986*%
%ADD121R,0.13986X0.07687*%
%ADD122R,0.13592X0.05285*%
%ADD123R,0.23000X0.06900*%
%ADD124R,0.07650X0.30100*%
%ADD125R,0.04931X0.02372*%
%ADD126R,0.04931X0.03356*%
%ADD127R,0.02372X0.04931*%
%ADD128R,0.03356X0.04931*%
%ADD129R,0.05600X0.12600*%
%ADD130R,0.06112X0.02293*%
%ADD131R,0.02293X0.06112*%
%ADD132O,0.02765X0.05324*%
%ADD133O,0.01742X0.05915*%
%ADD134R,0.08002X0.07214*%
%ADD135O,0.01761X0.07096*%
%ADD136O,0.07096X0.01761*%
%ADD137R,0.09065X0.07687*%
%ADD138R,0.07687X0.09065*%
%ADD139R,0.03750X0.02962*%
%ADD140R,0.02962X0.03750*%
%ADD141R,0.12214X0.07529*%
%ADD142O,0.02293X0.05915*%
%ADD143C,0.07200*%
%ADD144R,0.07200X0.07200*%
%ADD145C,0.21600*%
%ADD146C,0.06506*%
%ADD147R,0.06506X0.06506*%
%ADD148R,0.08080X0.08080*%
%ADD149C,0.08080*%
%ADD150R,0.06506X0.06506*%
%ADD151C,0.26191*%
%ADD152R,0.07200X0.07200*%
%ADD153C,0.00724*%
G36*
X70772Y95759D02*
X70931D01*
X71124Y95724D01*
X71353Y95706D01*
X71599Y95671D01*
X71863Y95618D01*
X72162Y95566D01*
X72479Y95495D01*
X72795Y95407D01*
X73147Y95319D01*
X73499Y95196D01*
X73868Y95073D01*
X74238Y94915D01*
Y92751D01*
X74220Y92769D01*
X74132Y92787D01*
X74027Y92839D01*
X73868Y92910D01*
X73675Y92980D01*
X73464Y93068D01*
X73217Y93156D01*
X72954Y93244D01*
X72391Y93420D01*
X71810Y93578D01*
X71230Y93701D01*
X70948Y93719D01*
X70702Y93736D01*
X70579D01*
X70438Y93719D01*
X70262Y93701D01*
X70086Y93666D01*
X69875Y93631D01*
X69682Y93560D01*
X69506Y93472D01*
X69488Y93455D01*
X69436Y93420D01*
X69365Y93367D01*
X69295Y93297D01*
X69207Y93209D01*
X69137Y93085D01*
X69084Y92962D01*
X69066Y92804D01*
Y92787D01*
Y92751D01*
X69084Y92681D01*
X69101Y92593D01*
X69137Y92505D01*
X69207Y92400D01*
X69277Y92276D01*
X69383Y92171D01*
X69401Y92153D01*
X69453Y92118D01*
X69541Y92065D01*
X69700Y91977D01*
X69893Y91872D01*
X70034Y91801D01*
X70174Y91749D01*
X70333Y91678D01*
X70509Y91590D01*
X70720Y91520D01*
X70931Y91432D01*
X70948D01*
X70984Y91414D01*
X71054Y91379D01*
X71142Y91362D01*
X71247Y91309D01*
X71371Y91274D01*
X71652Y91151D01*
X71969Y91027D01*
X72303Y90887D01*
X72619Y90728D01*
X72918Y90588D01*
X72954Y90570D01*
X73042Y90517D01*
X73182Y90429D01*
X73358Y90306D01*
X73552Y90148D01*
X73780Y89955D01*
X73991Y89743D01*
X74203Y89480D01*
X74220Y89444D01*
X74291Y89356D01*
X74378Y89198D01*
X74484Y88987D01*
X74572Y88741D01*
X74660Y88424D01*
X74730Y88072D01*
X74748Y87685D01*
Y87668D01*
Y87615D01*
Y87527D01*
X74730Y87422D01*
X74713Y87298D01*
X74677Y87140D01*
X74607Y86788D01*
X74449Y86384D01*
X74361Y86190D01*
X74238Y85979D01*
X74115Y85768D01*
X73939Y85575D01*
X73763Y85381D01*
X73552Y85205D01*
X73534Y85188D01*
X73499Y85170D01*
X73429Y85117D01*
X73341Y85065D01*
X73217Y84994D01*
X73077Y84924D01*
X72918Y84836D01*
X72725Y84748D01*
X72514Y84660D01*
X72285Y84572D01*
X72021Y84502D01*
X71758Y84431D01*
X71459Y84378D01*
X71142Y84326D01*
X70808Y84308D01*
X70456Y84290D01*
X70245D01*
X70104Y84308D01*
X69911Y84326D01*
X69700Y84343D01*
X69436Y84378D01*
X69172Y84431D01*
X68873Y84484D01*
X68556Y84554D01*
X68222Y84642D01*
X67870Y84748D01*
X67518Y84871D01*
X67149Y85012D01*
X66797Y85170D01*
X66428Y85364D01*
Y87756D01*
X66445D01*
X66480Y87721D01*
X66533Y87685D01*
X66621Y87633D01*
X66709Y87562D01*
X66832Y87492D01*
X67096Y87334D01*
X67395Y87158D01*
X67729Y86982D01*
X68064Y86806D01*
X68398Y86665D01*
X68415D01*
X68433Y86648D01*
X68486Y86630D01*
X68556Y86612D01*
X68714Y86560D01*
X68943Y86507D01*
X69225Y86436D01*
X69541Y86384D01*
X69875Y86349D01*
X70227Y86331D01*
X70385D01*
X70491Y86349D01*
X70614Y86366D01*
X70755Y86384D01*
X71054Y86454D01*
X71353Y86577D01*
X71494Y86665D01*
X71617Y86771D01*
X71722Y86894D01*
X71810Y87035D01*
X71863Y87193D01*
X71881Y87369D01*
Y87386D01*
Y87422D01*
X71863Y87492D01*
X71846Y87580D01*
X71793Y87685D01*
X71740Y87791D01*
X71652Y87914D01*
X71546Y88020D01*
X71529Y88037D01*
X71476Y88072D01*
X71371Y88143D01*
X71230Y88231D01*
X71019Y88354D01*
X70878Y88407D01*
X70737Y88477D01*
X70579Y88547D01*
X70385Y88635D01*
X70192Y88706D01*
X69963Y88794D01*
X69946D01*
X69911Y88811D01*
X69840Y88846D01*
X69752Y88864D01*
X69647Y88917D01*
X69524Y88952D01*
X69242Y89075D01*
X68925Y89198D01*
X68591Y89339D01*
X68275Y89497D01*
X67976Y89638D01*
X67940Y89656D01*
X67852Y89708D01*
X67712Y89796D01*
X67554Y89919D01*
X67360Y90078D01*
X67149Y90254D01*
X66938Y90482D01*
X66727Y90728D01*
X66709Y90764D01*
X66639Y90852D01*
X66568Y91010D01*
X66463Y91221D01*
X66375Y91485D01*
X66287Y91801D01*
X66217Y92153D01*
X66199Y92558D01*
Y92575D01*
Y92628D01*
Y92699D01*
X66217Y92804D01*
X66234Y92927D01*
X66252Y93068D01*
X66340Y93385D01*
X66480Y93754D01*
X66568Y93947D01*
X66674Y94141D01*
X66815Y94334D01*
X66973Y94528D01*
X67149Y94704D01*
X67342Y94880D01*
X67360Y94897D01*
X67395Y94915D01*
X67466Y94968D01*
X67554Y95020D01*
X67677Y95091D01*
X67817Y95161D01*
X67976Y95249D01*
X68169Y95337D01*
X68380Y95407D01*
X68609Y95495D01*
X68873Y95566D01*
X69154Y95636D01*
X69436Y95689D01*
X69770Y95742D01*
X70104Y95759D01*
X70456Y95777D01*
X70632D01*
X70772Y95759D01*
D02*
G37*
G36*
X12251D02*
X12409D01*
X12602Y95724D01*
X12831Y95706D01*
X13077Y95671D01*
X13341Y95618D01*
X13640Y95566D01*
X13957Y95495D01*
X14273Y95407D01*
X14625Y95319D01*
X14977Y95196D01*
X15346Y95073D01*
X15716Y94915D01*
Y92751D01*
X15698Y92769D01*
X15610Y92787D01*
X15505Y92839D01*
X15346Y92910D01*
X15153Y92980D01*
X14942Y93068D01*
X14696Y93156D01*
X14432Y93244D01*
X13869Y93420D01*
X13288Y93578D01*
X12708Y93701D01*
X12426Y93719D01*
X12180Y93736D01*
X12057D01*
X11916Y93719D01*
X11740Y93701D01*
X11564Y93666D01*
X11354Y93631D01*
X11160Y93560D01*
X10984Y93472D01*
X10966Y93455D01*
X10914Y93420D01*
X10843Y93367D01*
X10773Y93297D01*
X10685Y93209D01*
X10615Y93085D01*
X10562Y92962D01*
X10544Y92804D01*
Y92787D01*
Y92751D01*
X10562Y92681D01*
X10580Y92593D01*
X10615Y92505D01*
X10685Y92400D01*
X10755Y92276D01*
X10861Y92171D01*
X10879Y92153D01*
X10931Y92118D01*
X11019Y92065D01*
X11178Y91977D01*
X11371Y91872D01*
X11512Y91801D01*
X11653Y91749D01*
X11811Y91678D01*
X11987Y91590D01*
X12198Y91520D01*
X12409Y91432D01*
X12426D01*
X12462Y91414D01*
X12532Y91379D01*
X12620Y91362D01*
X12725Y91309D01*
X12849Y91274D01*
X13130Y91151D01*
X13447Y91027D01*
X13781Y90887D01*
X14097Y90728D01*
X14397Y90588D01*
X14432Y90570D01*
X14520Y90517D01*
X14660Y90429D01*
X14836Y90306D01*
X15030Y90148D01*
X15258Y89955D01*
X15470Y89743D01*
X15681Y89480D01*
X15698Y89444D01*
X15768Y89356D01*
X15856Y89198D01*
X15962Y88987D01*
X16050Y88741D01*
X16138Y88424D01*
X16208Y88072D01*
X16226Y87685D01*
Y87668D01*
Y87615D01*
Y87527D01*
X16208Y87422D01*
X16191Y87298D01*
X16156Y87140D01*
X16085Y86788D01*
X15927Y86384D01*
X15839Y86190D01*
X15716Y85979D01*
X15593Y85768D01*
X15417Y85575D01*
X15241Y85381D01*
X15030Y85205D01*
X15012Y85188D01*
X14977Y85170D01*
X14907Y85117D01*
X14819Y85065D01*
X14696Y84994D01*
X14555Y84924D01*
X14397Y84836D01*
X14203Y84748D01*
X13992Y84660D01*
X13763Y84572D01*
X13499Y84502D01*
X13236Y84431D01*
X12937Y84378D01*
X12620Y84326D01*
X12286Y84308D01*
X11934Y84290D01*
X11723D01*
X11582Y84308D01*
X11389Y84326D01*
X11178Y84343D01*
X10914Y84378D01*
X10650Y84431D01*
X10351Y84484D01*
X10034Y84554D01*
X9700Y84642D01*
X9348Y84748D01*
X8996Y84871D01*
X8627Y85012D01*
X8275Y85170D01*
X7906Y85364D01*
Y87756D01*
X7923D01*
X7959Y87721D01*
X8011Y87685D01*
X8099Y87633D01*
X8187Y87562D01*
X8310Y87492D01*
X8574Y87334D01*
X8873Y87158D01*
X9207Y86982D01*
X9542Y86806D01*
X9876Y86665D01*
X9894D01*
X9911Y86648D01*
X9964Y86630D01*
X10034Y86612D01*
X10193Y86560D01*
X10421Y86507D01*
X10703Y86436D01*
X11019Y86384D01*
X11354Y86349D01*
X11705Y86331D01*
X11864D01*
X11969Y86349D01*
X12092Y86366D01*
X12233Y86384D01*
X12532Y86454D01*
X12831Y86577D01*
X12972Y86665D01*
X13095Y86771D01*
X13200Y86894D01*
X13288Y87035D01*
X13341Y87193D01*
X13359Y87369D01*
Y87386D01*
Y87422D01*
X13341Y87492D01*
X13323Y87580D01*
X13271Y87685D01*
X13218Y87791D01*
X13130Y87914D01*
X13025Y88020D01*
X13007Y88037D01*
X12954Y88072D01*
X12849Y88143D01*
X12708Y88231D01*
X12497Y88354D01*
X12356Y88407D01*
X12215Y88477D01*
X12057Y88547D01*
X11864Y88635D01*
X11670Y88706D01*
X11441Y88794D01*
X11424D01*
X11389Y88811D01*
X11318Y88846D01*
X11230Y88864D01*
X11125Y88917D01*
X11002Y88952D01*
X10720Y89075D01*
X10404Y89198D01*
X10069Y89339D01*
X9753Y89497D01*
X9454Y89638D01*
X9419Y89656D01*
X9331Y89708D01*
X9190Y89796D01*
X9032Y89919D01*
X8838Y90078D01*
X8627Y90254D01*
X8416Y90482D01*
X8205Y90728D01*
X8187Y90764D01*
X8117Y90852D01*
X8046Y91010D01*
X7941Y91221D01*
X7853Y91485D01*
X7765Y91801D01*
X7695Y92153D01*
X7677Y92558D01*
Y92575D01*
Y92628D01*
Y92699D01*
X7695Y92804D01*
X7712Y92927D01*
X7730Y93068D01*
X7818Y93385D01*
X7959Y93754D01*
X8046Y93947D01*
X8152Y94141D01*
X8293Y94334D01*
X8451Y94528D01*
X8627Y94704D01*
X8821Y94880D01*
X8838Y94897D01*
X8873Y94915D01*
X8944Y94968D01*
X9032Y95020D01*
X9155Y95091D01*
X9295Y95161D01*
X9454Y95249D01*
X9647Y95337D01*
X9858Y95407D01*
X10087Y95495D01*
X10351Y95566D01*
X10632Y95636D01*
X10914Y95689D01*
X11248Y95742D01*
X11582Y95759D01*
X11934Y95777D01*
X12110D01*
X12251Y95759D01*
D02*
G37*
G36*
X64159Y84449D02*
X61819D01*
X55645Y91590D01*
Y84449D01*
X52866D01*
Y95618D01*
X55399D01*
X61379Y88776D01*
Y95618D01*
X64159D01*
Y84449D01*
D02*
G37*
G36*
X50597Y93578D02*
X45249D01*
Y91221D01*
X50350D01*
Y89180D01*
X45249D01*
Y86489D01*
X50702D01*
Y84449D01*
X42470D01*
Y95618D01*
X50597D01*
Y93578D01*
D02*
G37*
G36*
X35170Y86489D02*
X40905D01*
Y84449D01*
X32391D01*
Y95618D01*
X35170D01*
Y86489D01*
D02*
G37*
G36*
X24229Y95759D02*
X24423Y95742D01*
X24669Y95724D01*
X24950Y95689D01*
X25267Y95636D01*
X25601Y95566D01*
X25971Y95460D01*
X26340Y95355D01*
X26727Y95214D01*
X27114Y95038D01*
X27501Y94845D01*
X27871Y94616D01*
X28240Y94334D01*
X28574Y94035D01*
X28592Y94018D01*
X28644Y93965D01*
X28732Y93859D01*
X28855Y93736D01*
X28979Y93560D01*
X29137Y93367D01*
X29295Y93138D01*
X29471Y92892D01*
X29629Y92611D01*
X29788Y92294D01*
X29946Y91977D01*
X30069Y91625D01*
X30192Y91239D01*
X30280Y90852D01*
X30333Y90447D01*
X30351Y90025D01*
Y90007D01*
Y89919D01*
X30333Y89796D01*
X30316Y89638D01*
X30298Y89427D01*
X30263Y89198D01*
X30192Y88934D01*
X30122Y88653D01*
X30034Y88336D01*
X29911Y88020D01*
X29770Y87685D01*
X29594Y87351D01*
X29383Y86999D01*
X29155Y86665D01*
X28873Y86331D01*
X28556Y85997D01*
X28539Y85979D01*
X28468Y85926D01*
X28381Y85838D01*
X28240Y85733D01*
X28046Y85610D01*
X27835Y85452D01*
X27589Y85311D01*
X27308Y85152D01*
X26991Y84977D01*
X26639Y84836D01*
X26270Y84695D01*
X25848Y84554D01*
X25425Y84449D01*
X24950Y84361D01*
X24458Y84308D01*
X23948Y84290D01*
X23825D01*
X23684Y84308D01*
X23473Y84326D01*
X23244Y84343D01*
X22963Y84378D01*
X22646Y84431D01*
X22312Y84502D01*
X21960Y84589D01*
X21573Y84695D01*
X21204Y84836D01*
X20817Y85012D01*
X20430Y85205D01*
X20043Y85416D01*
X19691Y85680D01*
X19339Y85979D01*
X19322Y85997D01*
X19269Y86049D01*
X19181Y86155D01*
X19058Y86278D01*
X18935Y86454D01*
X18776Y86648D01*
X18618Y86876D01*
X18460Y87122D01*
X18284Y87404D01*
X18126Y87721D01*
X17967Y88055D01*
X17844Y88407D01*
X17721Y88776D01*
X17633Y89180D01*
X17580Y89603D01*
X17563Y90025D01*
Y90060D01*
Y90130D01*
X17580Y90254D01*
X17598Y90412D01*
X17616Y90605D01*
X17651Y90852D01*
X17704Y91115D01*
X17791Y91397D01*
X17879Y91696D01*
X17985Y92030D01*
X18143Y92347D01*
X18302Y92699D01*
X18513Y93050D01*
X18741Y93385D01*
X19005Y93719D01*
X19322Y94053D01*
X19339Y94071D01*
X19410Y94123D01*
X19498Y94211D01*
X19638Y94317D01*
X19814Y94458D01*
X20043Y94598D01*
X20289Y94757D01*
X20571Y94915D01*
X20887Y95073D01*
X21239Y95231D01*
X21608Y95372D01*
X22031Y95513D01*
X22470Y95618D01*
X22928Y95706D01*
X23420Y95759D01*
X23948Y95777D01*
X24071D01*
X24229Y95759D01*
D02*
G37*
G36*
X37304Y80963D02*
X37404Y80951D01*
X37516Y80929D01*
X37649Y80907D01*
X37793Y80874D01*
Y79985D01*
X37782D01*
X37760Y79996D01*
X37716Y80007D01*
X37660Y80029D01*
X37516Y80052D01*
X37360Y80063D01*
X37271D01*
X37182Y80052D01*
X37071Y80029D01*
X36949Y79985D01*
X36827Y79940D01*
X36704Y79863D01*
X36616Y79763D01*
X36604Y79752D01*
X36582Y79707D01*
X36549Y79629D01*
X36516Y79529D01*
X36482Y79385D01*
X36449Y79207D01*
X36427Y78996D01*
X36416Y78741D01*
Y78463D01*
X37238D01*
Y77630D01*
X36416D01*
Y73819D01*
X35493D01*
Y77630D01*
X34827D01*
Y78463D01*
X35493D01*
Y78741D01*
Y78752D01*
Y78785D01*
Y78852D01*
X35505Y78930D01*
Y79018D01*
X35516Y79129D01*
X35538Y79241D01*
X35549Y79374D01*
X35605Y79641D01*
X35693Y79918D01*
X35805Y80185D01*
X35882Y80307D01*
X35960Y80418D01*
X35971Y80429D01*
X35982Y80440D01*
X36049Y80507D01*
X36149Y80596D01*
X36282Y80696D01*
X36449Y80796D01*
X36649Y80885D01*
X36860Y80951D01*
X36982Y80963D01*
X37104Y80974D01*
X37216D01*
X37304Y80963D01*
D02*
G37*
G36*
X34716D02*
X34816Y80951D01*
X34927Y80929D01*
X35060Y80907D01*
X35205Y80874D01*
Y79985D01*
X35193D01*
X35171Y79996D01*
X35127Y80007D01*
X35071Y80029D01*
X34927Y80052D01*
X34771Y80063D01*
X34683D01*
X34594Y80052D01*
X34482Y80029D01*
X34360Y79985D01*
X34238Y79940D01*
X34116Y79863D01*
X34027Y79763D01*
X34016Y79752D01*
X33994Y79707D01*
X33960Y79629D01*
X33927Y79529D01*
X33894Y79385D01*
X33860Y79207D01*
X33838Y78996D01*
X33827Y78741D01*
Y78463D01*
X34649D01*
Y77630D01*
X33827D01*
Y73819D01*
X32905D01*
Y77630D01*
X32238D01*
Y78463D01*
X32905D01*
Y78741D01*
Y78752D01*
Y78785D01*
Y78852D01*
X32916Y78930D01*
Y79018D01*
X32927Y79129D01*
X32949Y79241D01*
X32960Y79374D01*
X33016Y79641D01*
X33105Y79918D01*
X33216Y80185D01*
X33294Y80307D01*
X33371Y80418D01*
X33383Y80429D01*
X33394Y80440D01*
X33460Y80507D01*
X33560Y80596D01*
X33694Y80696D01*
X33860Y80796D01*
X34060Y80885D01*
X34271Y80951D01*
X34394Y80963D01*
X34516Y80974D01*
X34627D01*
X34716Y80963D01*
D02*
G37*
G36*
X61124Y80407D02*
X61180Y80396D01*
X61235Y80374D01*
X61302Y80352D01*
X61369Y80307D01*
X61435Y80252D01*
X61446Y80240D01*
X61458Y80229D01*
X61491Y80196D01*
X61524Y80152D01*
X61580Y80029D01*
X61591Y79952D01*
X61602Y79874D01*
Y79863D01*
Y79840D01*
X61591Y79796D01*
X61580Y79741D01*
X61558Y79685D01*
X61535Y79618D01*
X61491Y79552D01*
X61435Y79485D01*
X61424Y79474D01*
X61402Y79463D01*
X61369Y79441D01*
X61324Y79407D01*
X61202Y79352D01*
X61124Y79341D01*
X61046Y79330D01*
X61013D01*
X60969Y79341D01*
X60924Y79352D01*
X60802Y79396D01*
X60735Y79429D01*
X60669Y79485D01*
X60658Y79496D01*
X60646Y79518D01*
X60624Y79552D01*
X60591Y79596D01*
X60535Y79718D01*
X60524Y79796D01*
X60513Y79874D01*
Y79885D01*
Y79907D01*
X60524Y79952D01*
X60535Y79996D01*
X60580Y80118D01*
X60613Y80185D01*
X60669Y80252D01*
X60680Y80263D01*
X60702Y80274D01*
X60735Y80307D01*
X60780Y80340D01*
X60902Y80396D01*
X60969Y80407D01*
X61046Y80418D01*
X61080D01*
X61124Y80407D01*
D02*
G37*
G36*
X65091Y78552D02*
X65191Y78541D01*
X65302Y78530D01*
X65524Y78485D01*
X65535D01*
X65579Y78474D01*
X65635Y78452D01*
X65724Y78430D01*
X65824Y78396D01*
X65946Y78352D01*
X66079Y78296D01*
X66235Y78230D01*
Y77263D01*
X66224D01*
X66202Y77285D01*
X66168Y77307D01*
X66113Y77330D01*
X66057Y77363D01*
X65979Y77407D01*
X65813Y77485D01*
X65613Y77563D01*
X65390Y77641D01*
X65168Y77685D01*
X64935Y77707D01*
X64879D01*
X64835Y77696D01*
X64713Y77685D01*
X64579Y77652D01*
X64413Y77596D01*
X64246Y77518D01*
X64068Y77407D01*
X63913Y77263D01*
X63891Y77241D01*
X63846Y77185D01*
X63791Y77085D01*
X63713Y76963D01*
X63635Y76796D01*
X63580Y76608D01*
X63535Y76396D01*
X63513Y76152D01*
Y76141D01*
Y76119D01*
Y76085D01*
X63524Y76030D01*
X63535Y75897D01*
X63568Y75741D01*
X63613Y75552D01*
X63691Y75363D01*
X63791Y75174D01*
X63935Y75008D01*
X63957Y74985D01*
X64013Y74941D01*
X64113Y74874D01*
X64246Y74808D01*
X64413Y74730D01*
X64613Y74663D01*
X64846Y74619D01*
X65113Y74597D01*
X65202D01*
X65313Y74619D01*
X65457Y74641D01*
X65646Y74674D01*
X65846Y74730D01*
X66079Y74808D01*
X66335Y74908D01*
Y73997D01*
X66324D01*
X66302Y73986D01*
X66268Y73974D01*
X66213Y73952D01*
X66157Y73941D01*
X66079Y73919D01*
X65901Y73874D01*
X65690Y73819D01*
X65468Y73786D01*
X65224Y73752D01*
X64968Y73741D01*
X64868D01*
X64790Y73752D01*
X64702Y73763D01*
X64591Y73774D01*
X64468Y73797D01*
X64346Y73819D01*
X64068Y73897D01*
X63924Y73952D01*
X63768Y74019D01*
X63624Y74085D01*
X63491Y74174D01*
X63357Y74274D01*
X63224Y74385D01*
X63213Y74397D01*
X63202Y74419D01*
X63169Y74452D01*
X63124Y74508D01*
X63080Y74563D01*
X63024Y74652D01*
X62957Y74741D01*
X62902Y74841D01*
X62846Y74963D01*
X62780Y75097D01*
X62724Y75230D01*
X62680Y75385D01*
X62635Y75552D01*
X62613Y75730D01*
X62591Y75919D01*
X62580Y76119D01*
Y76130D01*
Y76163D01*
Y76219D01*
X62591Y76296D01*
X62602Y76396D01*
X62613Y76496D01*
X62635Y76619D01*
X62657Y76752D01*
X62735Y77030D01*
X62791Y77174D01*
X62846Y77319D01*
X62924Y77474D01*
X63002Y77618D01*
X63102Y77752D01*
X63213Y77885D01*
X63224Y77896D01*
X63246Y77918D01*
X63280Y77952D01*
X63324Y77996D01*
X63391Y78041D01*
X63468Y78096D01*
X63557Y78163D01*
X63657Y78230D01*
X63768Y78285D01*
X63902Y78352D01*
X64035Y78407D01*
X64179Y78463D01*
X64346Y78496D01*
X64513Y78530D01*
X64691Y78552D01*
X64879Y78563D01*
X65013D01*
X65091Y78552D01*
D02*
G37*
G36*
X38571Y71441D02*
X37549D01*
X39115Y74797D01*
X37327Y78463D01*
X38371D01*
X39615Y75830D01*
X40815Y78463D01*
X41848D01*
X38571Y71441D01*
D02*
G37*
G36*
X13684D02*
X12662D01*
X14229Y74797D01*
X12440Y78463D01*
X13485D01*
X14729Y75830D01*
X15929Y78463D01*
X16962D01*
X13684Y71441D01*
D02*
G37*
G36*
X31516Y73819D02*
X30594D01*
Y74408D01*
X30583Y74397D01*
X30538Y74352D01*
X30483Y74297D01*
X30394Y74230D01*
X30294Y74152D01*
X30183Y74074D01*
X30050Y73997D01*
X29916Y73919D01*
X29905Y73908D01*
X29850Y73897D01*
X29772Y73863D01*
X29683Y73830D01*
X29561Y73797D01*
X29438Y73774D01*
X29305Y73752D01*
X29161Y73741D01*
X29083D01*
X29005Y73752D01*
X28894Y73763D01*
X28772Y73797D01*
X28639Y73830D01*
X28494Y73886D01*
X28350Y73952D01*
X28339Y73963D01*
X28294Y73997D01*
X28227Y74041D01*
X28139Y74108D01*
X28050Y74197D01*
X27961Y74297D01*
X27872Y74419D01*
X27794Y74552D01*
X27783Y74574D01*
X27761Y74630D01*
X27739Y74719D01*
X27705Y74852D01*
X27661Y75019D01*
X27639Y75241D01*
X27628Y75363D01*
X27617Y75497D01*
X27605Y75641D01*
Y75797D01*
Y78463D01*
X28528D01*
Y75808D01*
Y75797D01*
Y75774D01*
Y75741D01*
Y75685D01*
X28539Y75563D01*
X28550Y75408D01*
X28572Y75241D01*
X28616Y75074D01*
X28661Y74919D01*
X28727Y74797D01*
X28739Y74786D01*
X28772Y74752D01*
X28828Y74708D01*
X28905Y74652D01*
X29005Y74597D01*
X29127Y74552D01*
X29283Y74519D01*
X29472Y74508D01*
X29539D01*
X29583Y74519D01*
X29705Y74541D01*
X29861Y74585D01*
X30038Y74663D01*
X30127Y74719D01*
X30227Y74774D01*
X30316Y74852D01*
X30416Y74930D01*
X30505Y75030D01*
X30594Y75141D01*
Y78463D01*
X31516D01*
Y73819D01*
D02*
G37*
G36*
X61513D02*
X60591D01*
Y78463D01*
X61513D01*
Y73819D01*
D02*
G37*
G36*
X46526Y74741D02*
X49703D01*
Y73819D01*
X45515D01*
Y80874D01*
X46526D01*
Y74741D01*
D02*
G37*
G36*
X26294Y73819D02*
X25372D01*
Y80874D01*
X26294D01*
Y73819D01*
D02*
G37*
G36*
X24395Y79974D02*
X21639D01*
Y78007D01*
X24395D01*
Y77108D01*
X21639D01*
Y73819D01*
X20628D01*
Y80874D01*
X24395D01*
Y79974D01*
D02*
G37*
G36*
X52858Y78463D02*
X52947Y78452D01*
X53047Y78441D01*
X53170Y78418D01*
X53292Y78385D01*
X53569Y78307D01*
X53714Y78252D01*
X53869Y78185D01*
X54014Y78107D01*
X54158Y78007D01*
X54303Y77907D01*
X54436Y77785D01*
X54447Y77774D01*
X54469Y77752D01*
X54503Y77719D01*
X54547Y77663D01*
X54603Y77596D01*
X54658Y77518D01*
X54725Y77419D01*
X54791Y77307D01*
X54858Y77196D01*
X54925Y77063D01*
X55036Y76763D01*
X55080Y76608D01*
X55114Y76430D01*
X55136Y76252D01*
X55147Y76063D01*
Y76052D01*
Y76019D01*
Y75963D01*
X55136Y75897D01*
X55125Y75808D01*
X55114Y75708D01*
X55092Y75596D01*
X55058Y75485D01*
X54969Y75219D01*
X54914Y75074D01*
X54847Y74941D01*
X54758Y74797D01*
X54658Y74663D01*
X54547Y74530D01*
X54425Y74397D01*
X54414Y74385D01*
X54392Y74363D01*
X54347Y74341D01*
X54303Y74297D01*
X54225Y74241D01*
X54147Y74186D01*
X54047Y74130D01*
X53936Y74074D01*
X53814Y74008D01*
X53681Y73952D01*
X53525Y73897D01*
X53369Y73841D01*
X53203Y73797D01*
X53025Y73774D01*
X52836Y73752D01*
X52636Y73741D01*
X52536D01*
X52459Y73752D01*
X52370Y73763D01*
X52270Y73774D01*
X52158Y73797D01*
X52025Y73830D01*
X51747Y73908D01*
X51603Y73963D01*
X51459Y74019D01*
X51314Y74097D01*
X51170Y74186D01*
X51025Y74286D01*
X50892Y74408D01*
X50881Y74419D01*
X50859Y74441D01*
X50825Y74474D01*
X50781Y74530D01*
X50725Y74597D01*
X50670Y74674D01*
X50603Y74763D01*
X50547Y74874D01*
X50481Y74985D01*
X50414Y75119D01*
X50303Y75408D01*
X50259Y75563D01*
X50225Y75730D01*
X50203Y75908D01*
X50192Y76096D01*
Y76108D01*
Y76141D01*
Y76196D01*
X50203Y76263D01*
X50214Y76352D01*
X50225Y76452D01*
X50248Y76563D01*
X50281Y76685D01*
X50359Y76952D01*
X50425Y77096D01*
X50492Y77241D01*
X50570Y77374D01*
X50659Y77518D01*
X50770Y77652D01*
X50892Y77785D01*
X50903Y77796D01*
X50925Y77819D01*
X50970Y77852D01*
X51025Y77896D01*
X51092Y77941D01*
X51170Y78007D01*
X51270Y78063D01*
X51381Y78130D01*
X51503Y78196D01*
X51636Y78252D01*
X51792Y78318D01*
X51947Y78363D01*
X52114Y78407D01*
X52292Y78441D01*
X52481Y78463D01*
X52681Y78474D01*
X52781D01*
X52858Y78463D01*
D02*
G37*
G36*
X8796Y78130D02*
X8807D01*
X8818Y78152D01*
X8852Y78174D01*
X8896Y78196D01*
X9018Y78263D01*
X9174Y78352D01*
X9363Y78430D01*
X9574Y78496D01*
X9818Y78541D01*
X10063Y78563D01*
X10152D01*
X10207Y78552D01*
X10285Y78541D01*
X10374Y78530D01*
X10574Y78485D01*
X10807Y78396D01*
X10929Y78352D01*
X11051Y78285D01*
X11163Y78207D01*
X11285Y78118D01*
X11396Y78018D01*
X11507Y77896D01*
X11518Y77885D01*
X11529Y77863D01*
X11563Y77830D01*
X11596Y77774D01*
X11640Y77707D01*
X11685Y77630D01*
X11740Y77541D01*
X11796Y77430D01*
X11840Y77319D01*
X11896Y77185D01*
X11940Y77041D01*
X11985Y76896D01*
X12051Y76563D01*
X12062Y76374D01*
X12074Y76185D01*
Y76174D01*
Y76141D01*
Y76074D01*
X12062Y75997D01*
X12051Y75908D01*
X12040Y75797D01*
X12018Y75674D01*
X11985Y75541D01*
X11907Y75252D01*
X11851Y75108D01*
X11785Y74963D01*
X11707Y74808D01*
X11618Y74663D01*
X11518Y74530D01*
X11396Y74397D01*
X11385Y74385D01*
X11363Y74363D01*
X11329Y74341D01*
X11274Y74297D01*
X11207Y74241D01*
X11129Y74186D01*
X11029Y74130D01*
X10918Y74074D01*
X10796Y74008D01*
X10663Y73952D01*
X10518Y73897D01*
X10363Y73841D01*
X10185Y73797D01*
X10007Y73774D01*
X9807Y73752D01*
X9607Y73741D01*
X9441D01*
X9318Y73752D01*
X9185Y73763D01*
X9018Y73774D01*
X8852Y73797D01*
X8663Y73830D01*
X8641D01*
X8585Y73852D01*
X8485Y73874D01*
X8374Y73897D01*
X8252Y73930D01*
X8118Y73974D01*
X7996Y74019D01*
X7874Y74074D01*
Y80874D01*
X8796D01*
Y78130D01*
D02*
G37*
G36*
X59869Y77741D02*
X58925D01*
X58936Y77730D01*
X58969Y77696D01*
X59013Y77641D01*
X59069Y77574D01*
X59202Y77407D01*
X59258Y77319D01*
X59302Y77230D01*
Y77219D01*
X59324Y77185D01*
X59336Y77141D01*
X59358Y77085D01*
X59380Y77008D01*
X59391Y76919D01*
X59413Y76708D01*
Y76696D01*
Y76641D01*
X59402Y76574D01*
X59391Y76485D01*
X59358Y76374D01*
X59324Y76252D01*
X59269Y76119D01*
X59202Y75985D01*
X59191Y75974D01*
X59169Y75930D01*
X59113Y75863D01*
X59058Y75785D01*
X58980Y75708D01*
X58891Y75619D01*
X58780Y75530D01*
X58669Y75452D01*
X58658Y75441D01*
X58602Y75419D01*
X58525Y75385D01*
X58413Y75352D01*
X58269Y75308D01*
X58080Y75252D01*
X57858Y75208D01*
X57602Y75163D01*
X57580D01*
X57525Y75152D01*
X57436Y75119D01*
X57347Y75085D01*
X57247Y75041D01*
X57158Y74974D01*
X57102Y74897D01*
X57091Y74852D01*
X57080Y74797D01*
Y74786D01*
Y74774D01*
X57102Y74708D01*
X57125Y74663D01*
X57158Y74619D01*
X57202Y74574D01*
X57269Y74530D01*
X57280D01*
X57314Y74508D01*
X57358Y74497D01*
X57436Y74463D01*
X57536Y74430D01*
X57658Y74397D01*
X57802Y74363D01*
X57980Y74319D01*
X57991D01*
X58013Y74308D01*
X58058Y74297D01*
X58113Y74286D01*
X58191Y74274D01*
X58269Y74252D01*
X58436Y74208D01*
X58625Y74163D01*
X58802Y74108D01*
X58958Y74063D01*
X59025Y74041D01*
X59080Y74019D01*
X59091D01*
X59124Y73997D01*
X59169Y73974D01*
X59224Y73941D01*
X59369Y73852D01*
X59513Y73730D01*
X59524Y73719D01*
X59569Y73674D01*
X59624Y73597D01*
X59691Y73497D01*
X59747Y73386D01*
X59802Y73241D01*
X59847Y73075D01*
X59858Y72897D01*
Y72886D01*
Y72863D01*
Y72830D01*
X59847Y72786D01*
X59824Y72663D01*
X59780Y72519D01*
X59713Y72341D01*
X59613Y72175D01*
X59547Y72086D01*
X59469Y71997D01*
X59369Y71919D01*
X59269Y71841D01*
X59258D01*
X59247Y71819D01*
X59213Y71808D01*
X59158Y71775D01*
X59102Y71752D01*
X59036Y71719D01*
X58947Y71675D01*
X58847Y71641D01*
X58747Y71608D01*
X58625Y71564D01*
X58358Y71508D01*
X58047Y71464D01*
X57691Y71441D01*
X57591D01*
X57525Y71452D01*
X57447D01*
X57347Y71464D01*
X57113Y71497D01*
X56869Y71541D01*
X56603Y71608D01*
X56336Y71708D01*
X56103Y71841D01*
X56091D01*
X56080Y71864D01*
X56014Y71919D01*
X55914Y72008D01*
X55814Y72130D01*
X55703Y72275D01*
X55603Y72464D01*
X55536Y72675D01*
X55525Y72786D01*
X55514Y72908D01*
Y72919D01*
Y72952D01*
X55525Y72997D01*
X55536Y73063D01*
X55547Y73130D01*
X55580Y73219D01*
X55614Y73308D01*
X55658Y73408D01*
X55725Y73508D01*
X55791Y73608D01*
X55891Y73708D01*
X56002Y73808D01*
X56136Y73897D01*
X56291Y73986D01*
X56469Y74052D01*
X56669Y74108D01*
X56647Y74119D01*
X56603Y74163D01*
X56525Y74219D01*
X56447Y74297D01*
X56358Y74385D01*
X56280Y74485D01*
X56236Y74597D01*
X56214Y74708D01*
Y74719D01*
Y74741D01*
X56225Y74786D01*
X56236Y74841D01*
X56258Y74908D01*
X56302Y74974D01*
X56347Y75041D01*
X56414Y75108D01*
X56425Y75119D01*
X56447Y75141D01*
X56491Y75174D01*
X56558Y75208D01*
X56636Y75252D01*
X56725Y75296D01*
X56825Y75341D01*
X56947Y75374D01*
X56936Y75385D01*
X56902Y75397D01*
X56858Y75419D01*
X56791Y75463D01*
X56714Y75508D01*
X56625Y75574D01*
X56536Y75641D01*
X56436Y75730D01*
X56336Y75830D01*
X56247Y75941D01*
X56158Y76052D01*
X56080Y76185D01*
X56025Y76341D01*
X55969Y76496D01*
X55936Y76663D01*
X55925Y76852D01*
Y76863D01*
Y76885D01*
Y76919D01*
X55936Y76974D01*
Y77041D01*
X55958Y77108D01*
X55991Y77274D01*
X56058Y77463D01*
X56147Y77663D01*
X56280Y77852D01*
X56369Y77941D01*
X56458Y78030D01*
X56469D01*
X56480Y78052D01*
X56514Y78074D01*
X56558Y78096D01*
X56614Y78130D01*
X56680Y78163D01*
X56758Y78207D01*
X56847Y78252D01*
X57058Y78330D01*
X57314Y78396D01*
X57613Y78441D01*
X57947Y78463D01*
X59869D01*
Y77741D01*
D02*
G37*
%LPC*%
G36*
X23948Y93455D02*
X23790D01*
X23684Y93437D01*
X23543Y93420D01*
X23403Y93402D01*
X23227Y93385D01*
X23033Y93332D01*
X22629Y93226D01*
X22207Y93050D01*
X21995Y92945D01*
X21784Y92822D01*
X21591Y92681D01*
X21397Y92505D01*
X21380Y92488D01*
X21362Y92470D01*
X21309Y92417D01*
X21239Y92329D01*
X21169Y92241D01*
X21098Y92136D01*
X21010Y91995D01*
X20922Y91854D01*
X20817Y91678D01*
X20729Y91485D01*
X20588Y91063D01*
X20465Y90570D01*
X20448Y90306D01*
X20430Y90025D01*
Y90007D01*
Y89955D01*
Y89884D01*
X20448Y89779D01*
X20465Y89638D01*
X20483Y89497D01*
X20553Y89145D01*
X20659Y88741D01*
X20834Y88336D01*
X20958Y88125D01*
X21081Y87932D01*
X21221Y87738D01*
X21397Y87545D01*
X21415Y87527D01*
X21450Y87510D01*
X21503Y87457D01*
X21573Y87404D01*
X21679Y87334D01*
X21784Y87246D01*
X21925Y87158D01*
X22083Y87087D01*
X22259Y86999D01*
X22453Y86911D01*
X22875Y86753D01*
X23385Y86648D01*
X23666Y86630D01*
X23948Y86612D01*
X24106D01*
X24212Y86630D01*
X24352Y86648D01*
X24493Y86665D01*
X24669Y86683D01*
X24863Y86735D01*
X25267Y86841D01*
X25689Y86999D01*
X25900Y87105D01*
X26112Y87246D01*
X26305Y87386D01*
X26498Y87545D01*
X26516Y87562D01*
X26534Y87597D01*
X26586Y87650D01*
X26657Y87721D01*
X26727Y87809D01*
X26815Y87932D01*
X26903Y88055D01*
X26991Y88213D01*
X27079Y88389D01*
X27167Y88565D01*
X27325Y88987D01*
X27448Y89480D01*
X27466Y89743D01*
X27483Y90025D01*
Y90042D01*
Y90095D01*
Y90183D01*
X27466Y90289D01*
X27448Y90412D01*
X27431Y90570D01*
X27360Y90922D01*
X27237Y91309D01*
X27061Y91731D01*
X26956Y91925D01*
X26833Y92136D01*
X26674Y92329D01*
X26498Y92505D01*
X26481Y92523D01*
X26446Y92540D01*
X26393Y92593D01*
X26323Y92646D01*
X26235Y92734D01*
X26112Y92804D01*
X25971Y92892D01*
X25812Y92980D01*
X25637Y93068D01*
X25443Y93156D01*
X25021Y93314D01*
X24511Y93420D01*
X24229Y93437D01*
X23948Y93455D01*
D02*
G37*
G36*
X52625Y77641D02*
X52558D01*
X52514Y77630D01*
X52392Y77618D01*
X52247Y77585D01*
X52070Y77530D01*
X51892Y77452D01*
X51714Y77341D01*
X51547Y77196D01*
X51525Y77174D01*
X51481Y77119D01*
X51414Y77030D01*
X51336Y76896D01*
X51259Y76741D01*
X51192Y76552D01*
X51148Y76341D01*
X51125Y76096D01*
Y76085D01*
Y76063D01*
Y76030D01*
X51136Y75985D01*
X51148Y75863D01*
X51181Y75708D01*
X51236Y75541D01*
X51303Y75352D01*
X51414Y75174D01*
X51559Y75008D01*
X51581Y74985D01*
X51636Y74941D01*
X51736Y74874D01*
X51859Y74808D01*
X52025Y74730D01*
X52214Y74663D01*
X52425Y74619D01*
X52670Y74597D01*
X52736D01*
X52781Y74608D01*
X52903Y74619D01*
X53058Y74652D01*
X53236Y74697D01*
X53425Y74774D01*
X53614Y74874D01*
X53781Y75019D01*
X53803Y75041D01*
X53847Y75097D01*
X53914Y75185D01*
X54003Y75319D01*
X54080Y75474D01*
X54147Y75652D01*
X54192Y75874D01*
X54214Y76108D01*
Y76119D01*
Y76141D01*
Y76174D01*
X54203Y76219D01*
X54192Y76341D01*
X54158Y76485D01*
X54103Y76663D01*
X54025Y76841D01*
X53914Y77030D01*
X53758Y77196D01*
X53736Y77219D01*
X53681Y77263D01*
X53581Y77341D01*
X53447Y77419D01*
X53292Y77496D01*
X53092Y77574D01*
X52869Y77618D01*
X52625Y77641D01*
D02*
G37*
G36*
X9829Y77707D02*
X9807D01*
X9741Y77696D01*
X9640Y77685D01*
X9507Y77652D01*
X9352Y77596D01*
X9174Y77518D01*
X8996Y77407D01*
X8796Y77252D01*
Y74730D01*
X8818D01*
X8874Y74708D01*
X8974Y74686D01*
X9096Y74663D01*
X9229Y74641D01*
X9396Y74619D01*
X9574Y74608D01*
X9752Y74597D01*
X9807D01*
X9852Y74608D01*
X9963Y74619D01*
X10107Y74652D01*
X10263Y74708D01*
X10429Y74774D01*
X10596Y74885D01*
X10751Y75030D01*
X10774Y75052D01*
X10818Y75108D01*
X10874Y75208D01*
X10951Y75330D01*
X11018Y75497D01*
X11085Y75685D01*
X11129Y75897D01*
X11140Y76141D01*
Y76152D01*
Y76174D01*
Y76208D01*
Y76252D01*
X11118Y76385D01*
X11096Y76541D01*
X11051Y76719D01*
X10985Y76907D01*
X10896Y77085D01*
X10774Y77263D01*
X10763Y77285D01*
X10707Y77330D01*
X10629Y77407D01*
X10518Y77485D01*
X10385Y77563D01*
X10229Y77641D01*
X10041Y77685D01*
X9829Y77707D01*
D02*
G37*
G36*
X57658Y77663D02*
X57591D01*
X57525Y77652D01*
X57436Y77630D01*
X57336Y77596D01*
X57225Y77552D01*
X57113Y77496D01*
X57013Y77407D01*
X57002Y77396D01*
X56969Y77363D01*
X56936Y77307D01*
X56891Y77241D01*
X56836Y77141D01*
X56802Y77041D01*
X56769Y76930D01*
X56758Y76796D01*
Y76785D01*
Y76741D01*
X56769Y76674D01*
X56791Y76585D01*
X56825Y76496D01*
X56869Y76396D01*
X56925Y76296D01*
X57013Y76208D01*
X57025Y76196D01*
X57058Y76174D01*
X57113Y76130D01*
X57191Y76096D01*
X57291Y76052D01*
X57402Y76008D01*
X57525Y75985D01*
X57669Y75974D01*
X57736D01*
X57802Y75985D01*
X57891Y76008D01*
X58002Y76030D01*
X58102Y76074D01*
X58213Y76130D01*
X58313Y76208D01*
X58324Y76219D01*
X58358Y76252D01*
X58402Y76307D01*
X58447Y76374D01*
X58491Y76463D01*
X58536Y76563D01*
X58569Y76685D01*
X58580Y76807D01*
Y76819D01*
Y76874D01*
X58569Y76941D01*
X58547Y77019D01*
X58513Y77119D01*
X58469Y77219D01*
X58402Y77319D01*
X58313Y77419D01*
X58302Y77430D01*
X58269Y77452D01*
X58213Y77496D01*
X58136Y77541D01*
X58036Y77585D01*
X57925Y77630D01*
X57802Y77652D01*
X57658Y77663D01*
D02*
G37*
G36*
X57436Y73597D02*
X57358D01*
X57269Y73586D01*
X57169Y73575D01*
X57047Y73552D01*
X56914Y73519D01*
X56791Y73475D01*
X56669Y73408D01*
X56658Y73397D01*
X56625Y73374D01*
X56580Y73330D01*
X56525Y73274D01*
X56469Y73197D01*
X56425Y73108D01*
X56391Y73008D01*
X56380Y72897D01*
Y72886D01*
Y72863D01*
X56391Y72830D01*
X56402Y72786D01*
X56425Y72730D01*
X56447Y72663D01*
X56491Y72608D01*
X56547Y72541D01*
X56614Y72464D01*
X56691Y72408D01*
X56802Y72341D01*
X56925Y72286D01*
X57069Y72241D01*
X57247Y72208D01*
X57447Y72186D01*
X57669Y72175D01*
X57769D01*
X57880Y72186D01*
X58013Y72197D01*
X58169Y72219D01*
X58324Y72252D01*
X58480Y72297D01*
X58613Y72364D01*
X58625Y72375D01*
X58669Y72397D01*
X58724Y72441D01*
X58791Y72497D01*
X58847Y72563D01*
X58902Y72652D01*
X58947Y72752D01*
X58958Y72863D01*
Y72874D01*
X58947Y72919D01*
X58936Y72974D01*
X58902Y73052D01*
X58858Y73130D01*
X58780Y73230D01*
X58669Y73319D01*
X58525Y73397D01*
X58502Y73408D01*
X58447Y73430D01*
X58358Y73463D01*
X58236Y73497D01*
X58069Y73530D01*
X57891Y73563D01*
X57669Y73586D01*
X57436Y73597D01*
D02*
G37*
%LPD*%
D94*
X192913Y88583D02*
D03*
Y51181D02*
D03*
D95*
X177559Y209547D02*
D03*
D96*
X171653Y212598D02*
D03*
Y210630D02*
D03*
Y208661D02*
D03*
Y206693D02*
D03*
X183465D02*
D03*
Y208661D02*
D03*
Y210630D02*
D03*
Y212598D02*
D03*
D97*
X191043Y192520D02*
D03*
X200787Y153543D02*
D03*
D98*
X169390Y192520D02*
D03*
X191043Y179921D02*
D03*
X169390D02*
D03*
X179134Y140945D02*
D03*
X200787D02*
D03*
X179134Y153543D02*
D03*
D99*
X511811Y179724D02*
D03*
Y206102D02*
D03*
D100*
X252362Y193898D02*
D03*
X225984D02*
D03*
X70276Y61024D02*
D03*
X43898D02*
D03*
D101*
X463287Y238856D02*
D03*
Y231056D02*
D03*
Y223056D02*
D03*
Y215256D02*
D03*
Y207356D02*
D03*
X463387Y199456D02*
D03*
Y191656D02*
D03*
Y183756D02*
D03*
X401887Y183856D02*
D03*
Y191756D02*
D03*
Y199556D02*
D03*
Y207356D02*
D03*
Y215356D02*
D03*
Y223156D02*
D03*
Y231056D02*
D03*
Y238856D02*
D03*
D102*
X444287Y175656D02*
D03*
X452287D02*
D03*
X436487D02*
D03*
X428487D02*
D03*
X420687D02*
D03*
X412887D02*
D03*
D103*
X219882Y151772D02*
D03*
X212992D02*
D03*
X219882Y143602D02*
D03*
X212992D02*
D03*
X234744Y147638D02*
D03*
X241634D02*
D03*
X476870Y237402D02*
D03*
X483760D02*
D03*
X388484Y208651D02*
D03*
X381594D02*
D03*
X476870Y229921D02*
D03*
X483760D02*
D03*
Y185529D02*
D03*
X476870D02*
D03*
X388484Y216036D02*
D03*
X381594D02*
D03*
X483760Y215152D02*
D03*
X476870D02*
D03*
X483760Y222537D02*
D03*
X476870D02*
D03*
X483760Y192913D02*
D03*
X476870D02*
D03*
X483760Y200383D02*
D03*
X476870D02*
D03*
X388484Y223420D02*
D03*
X381594D02*
D03*
X388484Y230804D02*
D03*
X381594D02*
D03*
X353248Y105905D02*
D03*
X360138D02*
D03*
X262697Y221654D02*
D03*
X269587D02*
D03*
X38484Y110630D02*
D03*
X31594D02*
D03*
X38484Y125591D02*
D03*
X31594D02*
D03*
X38484Y140157D02*
D03*
X31594D02*
D03*
X221358Y67028D02*
D03*
X214469D02*
D03*
X259842Y38091D02*
D03*
X252953D02*
D03*
X360138Y127559D02*
D03*
X353248D02*
D03*
X464075Y45827D02*
D03*
X470965D02*
D03*
X464075Y53307D02*
D03*
X470965D02*
D03*
X353248Y119291D02*
D03*
X360138D02*
D03*
X304134Y224508D02*
D03*
X297244D02*
D03*
X221358Y75394D02*
D03*
X214469D02*
D03*
D104*
X119685Y64567D02*
D03*
X113583Y69193D02*
D03*
D105*
X156890Y64961D02*
D03*
X162008D02*
D03*
X141142D02*
D03*
X146260D02*
D03*
X125394D02*
D03*
X130512D02*
D03*
X89961D02*
D03*
X95079D02*
D03*
X162008Y133858D02*
D03*
X156890D02*
D03*
X146260D02*
D03*
X141142D02*
D03*
X130512D02*
D03*
X125394D02*
D03*
X95079D02*
D03*
X89961D02*
D03*
X269488Y235433D02*
D03*
X274606D02*
D03*
X238779Y234252D02*
D03*
X233661D02*
D03*
X389075Y116831D02*
D03*
X394193D02*
D03*
X401575D02*
D03*
X406693D02*
D03*
X202461Y188878D02*
D03*
X207579D02*
D03*
X202461Y184055D02*
D03*
X207579D02*
D03*
X130905Y205512D02*
D03*
X125787D02*
D03*
X352756Y69882D02*
D03*
X357874D02*
D03*
X352953Y142126D02*
D03*
X358071D02*
D03*
X352953Y112598D02*
D03*
X358071D02*
D03*
X352854Y95374D02*
D03*
X357972D02*
D03*
X233465Y81988D02*
D03*
X238583D02*
D03*
X233465Y104921D02*
D03*
X238583D02*
D03*
X235630Y155512D02*
D03*
X240748D02*
D03*
X42717Y43307D02*
D03*
X47835D02*
D03*
X233465Y70866D02*
D03*
X238583D02*
D03*
X233465Y76870D02*
D03*
X238583D02*
D03*
X220276Y158661D02*
D03*
X215158D02*
D03*
X220276Y137008D02*
D03*
X215158D02*
D03*
X221752Y60039D02*
D03*
X216634D02*
D03*
X221654Y81988D02*
D03*
X216535D02*
D03*
D106*
X69882Y157874D02*
D03*
Y162992D02*
D03*
X216142Y183661D02*
D03*
Y188779D02*
D03*
X262795Y196457D02*
D03*
Y191339D02*
D03*
X288583Y165059D02*
D03*
Y170177D02*
D03*
X307087Y165059D02*
D03*
Y170177D02*
D03*
X332874Y51673D02*
D03*
Y46555D02*
D03*
X309744Y51673D02*
D03*
Y46555D02*
D03*
X290846Y51673D02*
D03*
Y46555D02*
D03*
X264665Y51673D02*
D03*
Y46555D02*
D03*
D107*
X380906Y237795D02*
D03*
X388386D02*
D03*
X248327Y221358D02*
D03*
X255807D02*
D03*
X312402Y246850D02*
D03*
X319882D02*
D03*
X360827Y135458D02*
D03*
X353346D02*
D03*
X241929Y139764D02*
D03*
X234449D02*
D03*
D108*
X284252Y249803D02*
D03*
Y242323D02*
D03*
X248819Y264370D02*
D03*
Y256890D02*
D03*
X255512Y264370D02*
D03*
Y256890D02*
D03*
X89567Y214764D02*
D03*
Y222244D02*
D03*
X339370Y47146D02*
D03*
Y54626D02*
D03*
D109*
X388878Y188583D02*
D03*
Y199606D02*
D03*
X381496Y188583D02*
D03*
Y199606D02*
D03*
X132283Y196457D02*
D03*
Y185433D02*
D03*
X124409Y196457D02*
D03*
Y185433D02*
D03*
X478346Y37559D02*
D03*
Y26535D02*
D03*
X486221Y37559D02*
D03*
Y26535D02*
D03*
D110*
X323721Y238681D02*
D03*
X334744D02*
D03*
X274803Y229525D02*
D03*
X263779D02*
D03*
D111*
X49606Y222239D02*
D03*
X60630D02*
D03*
X49606Y234151D02*
D03*
X60630D02*
D03*
X49606Y246063D02*
D03*
X60630D02*
D03*
D112*
X395079Y99508D02*
D03*
X400984D02*
D03*
X395079Y105610D02*
D03*
X400984D02*
D03*
X35433Y165354D02*
D03*
X29528D02*
D03*
X35433Y148622D02*
D03*
X29528D02*
D03*
X329626Y225984D02*
D03*
X335531D02*
D03*
D113*
X360039Y53642D02*
D03*
Y47736D02*
D03*
D114*
X394685Y126969D02*
D03*
X391339D02*
D03*
X404429D02*
D03*
X401083D02*
D03*
D115*
X281890Y165453D02*
D03*
Y172343D02*
D03*
X284252Y257579D02*
D03*
Y264469D02*
D03*
X276772Y257579D02*
D03*
Y264469D02*
D03*
X269291Y257579D02*
D03*
Y264469D02*
D03*
X352362Y54232D02*
D03*
Y47343D02*
D03*
X106299Y194390D02*
D03*
Y187500D02*
D03*
X98425Y194390D02*
D03*
Y187500D02*
D03*
X114173D02*
D03*
Y194390D02*
D03*
X90551D02*
D03*
Y187500D02*
D03*
X82677Y194390D02*
D03*
Y187500D02*
D03*
X313779Y165453D02*
D03*
Y172343D02*
D03*
X270669Y197343D02*
D03*
Y190453D02*
D03*
X72146Y24311D02*
D03*
Y31201D02*
D03*
X62205Y24213D02*
D03*
Y31102D02*
D03*
X278543Y197343D02*
D03*
Y190453D02*
D03*
D116*
X309744Y238484D02*
D03*
X298917D02*
D03*
X172146Y222441D02*
D03*
X182973D02*
D03*
D117*
X126378Y214272D02*
D03*
Y225098D02*
D03*
D118*
X511811Y161713D02*
D03*
X66634Y132874D02*
D03*
X359252Y17717D02*
D03*
D119*
X17618Y226279D02*
D03*
X92520Y39370D02*
D03*
D120*
X478346Y164173D02*
D03*
X492126D02*
D03*
X427165Y153543D02*
D03*
X452756D02*
D03*
X369587Y50689D02*
D03*
X364173Y198327D02*
D03*
X407480Y50689D02*
D03*
X393701D02*
D03*
D121*
X14764Y103347D02*
D03*
Y118110D02*
D03*
Y132874D02*
D03*
Y148622D02*
D03*
Y165354D02*
D03*
X197638Y222441D02*
D03*
X147638Y208268D02*
D03*
Y192913D02*
D03*
Y222441D02*
D03*
X14961Y44882D02*
D03*
Y59055D02*
D03*
D122*
X43307Y194675D02*
D03*
X68504Y184675D02*
D03*
Y204675D02*
D03*
D123*
X225179Y263581D02*
D03*
Y245081D02*
D03*
D124*
X94290Y250000D02*
D03*
X116340D02*
D03*
D125*
X219882Y98819D02*
D03*
Y101969D02*
D03*
X213189Y98819D02*
D03*
Y101969D02*
D03*
X219882Y118504D02*
D03*
Y121653D02*
D03*
X213189Y118504D02*
D03*
Y121653D02*
D03*
X255315Y167717D02*
D03*
Y170866D02*
D03*
X248622Y167717D02*
D03*
Y170866D02*
D03*
X485630Y100354D02*
D03*
Y103504D02*
D03*
X478937Y100354D02*
D03*
Y103504D02*
D03*
X485630Y82638D02*
D03*
Y85787D02*
D03*
X478937Y82638D02*
D03*
Y85787D02*
D03*
X485630Y64921D02*
D03*
Y68071D02*
D03*
X478937Y64921D02*
D03*
Y68071D02*
D03*
D126*
X219882Y95295D02*
D03*
Y105492D02*
D03*
X213189Y95295D02*
D03*
Y105492D02*
D03*
X219882Y114980D02*
D03*
Y125177D02*
D03*
X213189Y114980D02*
D03*
Y125177D02*
D03*
X255315Y164193D02*
D03*
Y174390D02*
D03*
X248622Y164193D02*
D03*
Y174390D02*
D03*
X485630Y96831D02*
D03*
Y107027D02*
D03*
X478937Y96831D02*
D03*
Y107027D02*
D03*
X485630Y79114D02*
D03*
Y89311D02*
D03*
X478937Y79114D02*
D03*
Y89311D02*
D03*
X485630Y61398D02*
D03*
Y71595D02*
D03*
X478937Y61398D02*
D03*
Y71595D02*
D03*
D127*
X296850Y36811D02*
D03*
X293701D02*
D03*
X296850Y30118D02*
D03*
X293701D02*
D03*
X277165Y36811D02*
D03*
X274016D02*
D03*
X277165Y30118D02*
D03*
X274016D02*
D03*
D128*
X300374Y36811D02*
D03*
X290177D02*
D03*
X300374Y30118D02*
D03*
X290177D02*
D03*
X280689Y36811D02*
D03*
X270492D02*
D03*
X280689Y30118D02*
D03*
X270492D02*
D03*
D129*
X294291Y187992D02*
D03*
Y208992D02*
D03*
X304291Y187992D02*
D03*
Y208992D02*
D03*
X314291Y187992D02*
D03*
Y208992D02*
D03*
X324291Y187992D02*
D03*
Y208992D02*
D03*
X334291Y187992D02*
D03*
Y208992D02*
D03*
X344291Y187992D02*
D03*
Y208992D02*
D03*
D130*
X389173Y145177D02*
D03*
Y142618D02*
D03*
Y140059D02*
D03*
Y137500D02*
D03*
X406496Y145177D02*
D03*
Y142618D02*
D03*
Y140059D02*
D03*
Y137500D02*
D03*
X197047Y207579D02*
D03*
Y205020D02*
D03*
Y202461D02*
D03*
Y199902D02*
D03*
X214370Y207579D02*
D03*
Y205020D02*
D03*
Y202461D02*
D03*
Y199902D02*
D03*
D131*
X84547Y169095D02*
D03*
X81988D02*
D03*
X79429D02*
D03*
X76870D02*
D03*
X84547Y151772D02*
D03*
X81988D02*
D03*
X79429D02*
D03*
X76870D02*
D03*
D132*
X82087Y76772D02*
D03*
X85236D02*
D03*
X88386D02*
D03*
X91535D02*
D03*
X94685D02*
D03*
X97835D02*
D03*
X100984D02*
D03*
X104134D02*
D03*
X107283D02*
D03*
X110433D02*
D03*
X113583D02*
D03*
X116732D02*
D03*
X119882D02*
D03*
X123031D02*
D03*
X126181D02*
D03*
X129331D02*
D03*
X132480D02*
D03*
X135630D02*
D03*
X138779D02*
D03*
X141929D02*
D03*
X145079D02*
D03*
X148228D02*
D03*
X151378D02*
D03*
X154528D02*
D03*
X157677D02*
D03*
X160827D02*
D03*
X163976D02*
D03*
X82087Y122047D02*
D03*
X85236D02*
D03*
X88386D02*
D03*
X91535D02*
D03*
X94685D02*
D03*
X97835D02*
D03*
X100984D02*
D03*
X104134D02*
D03*
X107283D02*
D03*
X110433D02*
D03*
X113583D02*
D03*
X116732D02*
D03*
X119882D02*
D03*
X123031D02*
D03*
X126181D02*
D03*
X129331D02*
D03*
X132480D02*
D03*
X135630D02*
D03*
X138779D02*
D03*
X141929D02*
D03*
X145079D02*
D03*
X148228D02*
D03*
X151378D02*
D03*
X154528D02*
D03*
X157677D02*
D03*
X160827D02*
D03*
X163976D02*
D03*
D133*
X248031Y231004D02*
D03*
X250000D02*
D03*
X251969D02*
D03*
X253937D02*
D03*
X255906D02*
D03*
X248031Y248524D02*
D03*
X250000D02*
D03*
X251969D02*
D03*
X253937D02*
D03*
X255906D02*
D03*
D134*
X251969Y239764D02*
D03*
D135*
X260827Y150886D02*
D03*
X262795D02*
D03*
X264764D02*
D03*
X266732D02*
D03*
X268701D02*
D03*
X270669D02*
D03*
X272638D02*
D03*
X274606D02*
D03*
X276575D02*
D03*
X278543D02*
D03*
X280512D02*
D03*
X282480D02*
D03*
X284449D02*
D03*
X286417D02*
D03*
X288386D02*
D03*
X290354D02*
D03*
X292323D02*
D03*
X294291D02*
D03*
X296260D02*
D03*
X298228D02*
D03*
X300197D02*
D03*
X302165D02*
D03*
X304134D02*
D03*
X306102D02*
D03*
X308071D02*
D03*
X310039D02*
D03*
X312008D02*
D03*
X313976D02*
D03*
X315945D02*
D03*
X317913D02*
D03*
X319882D02*
D03*
X321850D02*
D03*
X323819D02*
D03*
X325787D02*
D03*
X327756D02*
D03*
X329724D02*
D03*
Y65650D02*
D03*
X327756D02*
D03*
X325787D02*
D03*
X323819D02*
D03*
X321850D02*
D03*
X319882D02*
D03*
X317913D02*
D03*
X315945D02*
D03*
X313976D02*
D03*
X312008D02*
D03*
X310039D02*
D03*
X308071D02*
D03*
X306102D02*
D03*
X304134D02*
D03*
X302165D02*
D03*
X300197D02*
D03*
X298228D02*
D03*
X296260D02*
D03*
X294291D02*
D03*
X292323D02*
D03*
X290354D02*
D03*
X288386D02*
D03*
X286417D02*
D03*
X284449D02*
D03*
X282480D02*
D03*
X280512D02*
D03*
X278543D02*
D03*
X276575D02*
D03*
X274606D02*
D03*
X272638D02*
D03*
X270669D02*
D03*
X268701D02*
D03*
X266732D02*
D03*
X264764D02*
D03*
X262795D02*
D03*
X260827D02*
D03*
D136*
X337894Y142717D02*
D03*
Y140748D02*
D03*
Y138779D02*
D03*
Y136811D02*
D03*
Y134843D02*
D03*
Y132874D02*
D03*
Y130905D02*
D03*
Y128937D02*
D03*
Y126969D02*
D03*
Y125000D02*
D03*
Y123031D02*
D03*
Y121063D02*
D03*
Y119095D02*
D03*
Y117126D02*
D03*
Y115157D02*
D03*
Y113189D02*
D03*
Y111221D02*
D03*
Y109252D02*
D03*
Y107283D02*
D03*
Y105315D02*
D03*
Y103347D02*
D03*
Y101378D02*
D03*
Y99410D02*
D03*
Y97441D02*
D03*
Y95472D02*
D03*
Y93504D02*
D03*
Y91535D02*
D03*
Y89567D02*
D03*
Y87598D02*
D03*
Y85630D02*
D03*
Y83661D02*
D03*
Y81693D02*
D03*
Y79724D02*
D03*
Y77756D02*
D03*
Y75787D02*
D03*
Y73819D02*
D03*
X252658D02*
D03*
Y75787D02*
D03*
Y77756D02*
D03*
Y79724D02*
D03*
Y81693D02*
D03*
Y83661D02*
D03*
Y85630D02*
D03*
Y87598D02*
D03*
Y89567D02*
D03*
Y91535D02*
D03*
Y93504D02*
D03*
Y95472D02*
D03*
Y97441D02*
D03*
Y99410D02*
D03*
Y101378D02*
D03*
Y103347D02*
D03*
Y105315D02*
D03*
Y107283D02*
D03*
Y109252D02*
D03*
Y111221D02*
D03*
Y113189D02*
D03*
Y115157D02*
D03*
Y117126D02*
D03*
Y119095D02*
D03*
Y121063D02*
D03*
Y123031D02*
D03*
Y125000D02*
D03*
Y126969D02*
D03*
Y128937D02*
D03*
Y130905D02*
D03*
Y132874D02*
D03*
Y134843D02*
D03*
Y136811D02*
D03*
Y138779D02*
D03*
Y140748D02*
D03*
Y142717D02*
D03*
D137*
X50394Y260827D02*
D03*
X65748D02*
D03*
D138*
X77756Y249505D02*
D03*
Y234151D02*
D03*
D139*
X358071Y222244D02*
D03*
Y229724D02*
D03*
X348228Y225984D02*
D03*
X358071Y236417D02*
D03*
Y243898D02*
D03*
X348228Y240158D02*
D03*
D140*
X81496Y225394D02*
D03*
X74016D02*
D03*
X77756Y215551D02*
D03*
D141*
X108268Y213386D02*
D03*
D142*
X114665Y222146D02*
D03*
X112106D02*
D03*
X109547D02*
D03*
X106988D02*
D03*
X104429D02*
D03*
X101870D02*
D03*
X114665Y204626D02*
D03*
X112106D02*
D03*
X109547D02*
D03*
X106988D02*
D03*
X104429D02*
D03*
X101870D02*
D03*
D143*
X525433Y121496D02*
D03*
Y111496D02*
D03*
X535433Y121496D02*
D03*
Y111496D02*
D03*
X525433Y101496D02*
D03*
Y91496D02*
D03*
X535433Y101496D02*
D03*
Y91496D02*
D03*
Y41496D02*
D03*
Y51496D02*
D03*
Y61496D02*
D03*
Y71496D02*
D03*
Y81496D02*
D03*
X525433Y31496D02*
D03*
Y41496D02*
D03*
Y51496D02*
D03*
Y61496D02*
D03*
Y71496D02*
D03*
Y81496D02*
D03*
X13780Y186693D02*
D03*
Y196693D02*
D03*
X62165Y13780D02*
D03*
X72165D02*
D03*
X82165D02*
D03*
X92165D02*
D03*
X102165D02*
D03*
D144*
X535433Y31496D02*
D03*
X13780Y206693D02*
D03*
D145*
X443433Y31496D02*
D03*
X505433Y121496D02*
D03*
D146*
X369252Y172402D02*
D03*
Y162402D02*
D03*
X359252Y172402D02*
D03*
X300394Y261811D02*
D03*
X310394D02*
D03*
X320394D02*
D03*
X538386Y156378D02*
D03*
Y166378D02*
D03*
Y176378D02*
D03*
Y186378D02*
D03*
Y196378D02*
D03*
Y206378D02*
D03*
Y216378D02*
D03*
D147*
X359252Y162402D02*
D03*
X330394Y261811D02*
D03*
D148*
X194882Y244094D02*
D03*
D149*
X181103D02*
D03*
X167323D02*
D03*
X153543D02*
D03*
X139764D02*
D03*
D150*
X538386Y226378D02*
D03*
D151*
X393701Y19685D02*
D03*
X531496Y255906D02*
D03*
X19685D02*
D03*
Y19685D02*
D03*
D152*
X52165Y13780D02*
D03*
D153*
X379921Y33465D02*
D03*
X407480D02*
D03*
Y5906D02*
D03*
X379921D02*
D03*
X517717Y242126D02*
D03*
X545276D02*
D03*
X517717Y269685D02*
D03*
X33465D02*
D03*
Y242126D02*
D03*
X5906D02*
D03*
X33465Y5906D02*
D03*
Y33465D02*
D03*
X5906D02*
D03*
M02*
