G04 Layer_Physical_Order=4*
G04 Layer_Color=16711680*
%FSLAX25Y25*%
%MOIN*%
G70*
G01*
G75*
%ADD10C,0.00800*%
%ADD31R,0.04331X0.01772*%
%ADD32R,0.04331X0.02756*%
%ADD60C,0.01200*%
%ADD61C,0.02953*%
%ADD64C,0.00787*%
%ADD66C,0.02000*%
%ADD71C,0.05906*%
%ADD72R,0.05906X0.05906*%
%ADD73R,0.06600X0.06600*%
%ADD74C,0.06600*%
%ADD75P,0.09334X4X360.0*%
%ADD76R,0.05906X0.05906*%
%ADD77C,0.25590*%
%ADD78R,0.07480X0.07480*%
%ADD79C,0.07480*%
%ADD80R,0.06600X0.06600*%
%ADD81C,0.21654*%
%ADD82C,0.02000*%
%ADD83C,0.02400*%
%ADD84C,0.04724*%
%ADD86R,0.03740X0.02559*%
G36*
X403543Y349409D02*
X408465Y344488D01*
X408465Y323105D01*
X407965Y322838D01*
X407789Y322955D01*
X407087Y323095D01*
X406384Y322955D01*
X405789Y322558D01*
X405391Y321962D01*
X405251Y321260D01*
X405391Y320557D01*
X405789Y319962D01*
X406384Y319564D01*
X407087Y319425D01*
X407174Y319442D01*
X408465Y318152D01*
X408465Y295472D01*
X403346Y290354D01*
X378935D01*
X374016Y295273D01*
X374016Y344488D01*
X378937Y349409D01*
X403543Y349409D01*
D02*
G37*
G36*
X137795Y339567D02*
X137795Y310249D01*
X137295Y310097D01*
X137125Y310353D01*
X136529Y310751D01*
X135827Y310890D01*
X135125Y310751D01*
X134529Y310353D01*
X134131Y309757D01*
X133992Y309055D01*
X134131Y308353D01*
X134529Y307757D01*
X134722Y307628D01*
X134570Y307128D01*
X131662D01*
X131612Y307203D01*
X131017Y307600D01*
X130315Y307740D01*
X129612Y307600D01*
X129017Y307203D01*
X128619Y306607D01*
X128479Y305905D01*
X128619Y305203D01*
X129017Y304607D01*
X129612Y304209D01*
X130315Y304070D01*
X131017Y304209D01*
X131612Y304607D01*
X131653Y304668D01*
X132128Y304658D01*
X132383Y304181D01*
X132163Y303852D01*
X132023Y303150D01*
X132163Y302447D01*
X132561Y301852D01*
X133156Y301454D01*
X133858Y301314D01*
X134561Y301454D01*
X135156Y301852D01*
X135554Y302447D01*
X135694Y303150D01*
X135554Y303852D01*
X135334Y304181D01*
X135601Y304681D01*
X137795D01*
X137795Y285433D01*
X132874Y280512D01*
X103346Y280512D01*
X98327Y285531D01*
X98327Y304864D01*
X98731Y305268D01*
X98819Y305251D01*
X99521Y305390D01*
X100116Y305788D01*
X100514Y306384D01*
X100654Y307086D01*
X100514Y307788D01*
X100116Y308384D01*
X100076Y308411D01*
Y308911D01*
X100116Y308938D01*
X100514Y309533D01*
X100654Y310236D01*
X100514Y310938D01*
X100116Y311533D01*
X100076Y311560D01*
Y312060D01*
X100116Y312087D01*
X100514Y312683D01*
X100654Y313385D01*
X100514Y314088D01*
X100116Y314683D01*
X99611Y315021D01*
X99541Y315387D01*
X99554Y315584D01*
X99625Y315631D01*
X100022Y316227D01*
X100162Y316929D01*
X100022Y317632D01*
X99625Y318227D01*
X99029Y318625D01*
X98868Y318657D01*
Y340010D01*
X103346Y344488D01*
X132874Y344488D01*
X137795Y339567D01*
D02*
G37*
G36*
X124114Y272539D02*
X124114Y260925D01*
X102764Y239575D01*
X91683D01*
X88807Y242451D01*
X84744Y246514D01*
Y252067D01*
X109252Y276575D01*
X120079Y276575D01*
X124114Y272539D01*
D02*
G37*
%LPC*%
G36*
X399606Y339631D02*
X398904Y339491D01*
X398309Y339093D01*
X397911Y338498D01*
X397771Y337795D01*
X397911Y337093D01*
X398309Y336498D01*
X398349Y336471D01*
Y335970D01*
X398309Y335943D01*
X397911Y335348D01*
X397771Y334646D01*
X397911Y333943D01*
X398287Y333381D01*
X398349Y333234D01*
Y332908D01*
X398287Y332761D01*
X397911Y332198D01*
X397771Y331496D01*
X397911Y330794D01*
X398309Y330198D01*
X398349Y330171D01*
Y329671D01*
X398309Y329644D01*
X397911Y329049D01*
X397771Y328346D01*
X397911Y327644D01*
X398309Y327049D01*
X398904Y326651D01*
X399606Y326511D01*
X400309Y326651D01*
X400904Y327049D01*
X401302Y327644D01*
X401442Y328346D01*
X401302Y329049D01*
X400904Y329644D01*
X400864Y329671D01*
Y330171D01*
X400904Y330198D01*
X401302Y330794D01*
X401442Y331496D01*
X401302Y332198D01*
X400926Y332761D01*
X400864Y332908D01*
Y333234D01*
X400926Y333381D01*
X401302Y333943D01*
X401442Y334646D01*
X401302Y335348D01*
X400904Y335943D01*
X400864Y335970D01*
Y336471D01*
X400904Y336498D01*
X401302Y337093D01*
X401442Y337795D01*
X401302Y338498D01*
X400904Y339093D01*
X400309Y339491D01*
X399606Y339631D01*
D02*
G37*
G36*
X133858Y314827D02*
X133156Y314688D01*
X132561Y314290D01*
X132163Y313695D01*
X132023Y312992D01*
X132163Y312290D01*
X132561Y311694D01*
X133156Y311297D01*
X133858Y311157D01*
X134561Y311297D01*
X135156Y311694D01*
X135554Y312290D01*
X135694Y312992D01*
X135554Y313695D01*
X135156Y314290D01*
X134561Y314688D01*
X133858Y314827D01*
D02*
G37*
G36*
Y293764D02*
X133156Y293625D01*
X132561Y293227D01*
X132163Y292631D01*
X132023Y291929D01*
X132163Y291227D01*
X132561Y290631D01*
X133156Y290234D01*
X133858Y290094D01*
X134561Y290234D01*
X135156Y290631D01*
X135554Y291227D01*
X135694Y291929D01*
X135554Y292631D01*
X135156Y293227D01*
X134561Y293625D01*
X133858Y293764D01*
D02*
G37*
G36*
X120485Y272355D02*
X115145D01*
Y268196D01*
X116592D01*
Y265268D01*
X115145D01*
Y264412D01*
X111634D01*
X111233Y264653D01*
Y268812D01*
X105893D01*
Y264653D01*
X106703D01*
X106911Y264153D01*
X94606Y251848D01*
X93976D01*
X93616Y252089D01*
X92913Y252229D01*
X92211Y252089D01*
X91616Y251691D01*
X91218Y251096D01*
X91078Y250394D01*
X91218Y249691D01*
X91616Y249096D01*
X92211Y248698D01*
X92913Y248558D01*
X92999Y248575D01*
X93492Y248164D01*
X93580Y247722D01*
X93978Y247127D01*
X94573Y246729D01*
X95275Y246589D01*
X95978Y246729D01*
X96573Y247127D01*
X96971Y247722D01*
X97111Y248425D01*
X97093Y248512D01*
X110547Y261965D01*
X115145D01*
Y261109D01*
X120485D01*
Y265268D01*
X119038D01*
Y268196D01*
X120485D01*
Y272355D01*
D02*
G37*
%LPD*%
D10*
X603150Y75835D02*
G03*
X602487Y77434I-2261J0D01*
G01*
X604158Y73401D02*
G03*
X611229Y70472I7071J7071D01*
G01*
X603150Y75835D02*
G03*
X604158Y73401I3442J0D01*
G01*
X82677Y244488D02*
X90414Y236751D01*
X68898Y244488D02*
X82677D01*
X66142Y247244D02*
X68898Y244488D01*
X388390Y195644D02*
X446038D01*
X446063Y195669D01*
X382790Y190044D02*
X388390Y195644D01*
X436221Y197244D02*
X446850Y207874D01*
X387728Y197244D02*
X436221D01*
X382610Y192126D02*
X387728Y197244D01*
X314961Y192126D02*
X382610D01*
X228740Y85039D02*
X232874D01*
X226934Y83233D02*
X228740Y85039D01*
X162633Y83233D02*
X226934D01*
X231909Y81516D02*
X232874D01*
X227559Y77165D02*
X231909Y81516D01*
X162205Y77165D02*
X227559D01*
X231909Y91713D02*
X232874D01*
X229921Y93701D02*
X231909Y91713D01*
X163091Y93701D02*
X229921D01*
X308268Y127165D02*
X309449Y125984D01*
X278740Y127165D02*
X308268D01*
X272406Y120832D02*
X278740Y127165D01*
X83071Y241732D02*
X89652Y235151D01*
X87942Y241586D02*
X91176Y238351D01*
X206363D01*
X472603Y165980D02*
X509842Y128740D01*
X146161Y99705D02*
X162633Y83233D01*
X81890Y258661D02*
X92913Y269685D01*
X81890Y247638D02*
Y258661D01*
X95275Y248425D02*
X110040Y263189D01*
X117815D01*
X93144Y250625D02*
X95113D01*
X108563Y264075D01*
Y266732D01*
X92913Y250394D02*
X93144Y250625D01*
X117815Y263189D02*
Y270276D01*
X42913Y241732D02*
X83071D01*
X70472Y247638D02*
X81890D01*
X28898Y255748D02*
X42913Y241732D01*
X81890Y247638D02*
X87942Y241586D01*
X81890Y247638D02*
X81890D01*
X89652Y235151D02*
X207688D01*
X90414Y236751D02*
X207026D01*
X76772Y274803D02*
X79134Y277165D01*
X76772Y250000D02*
Y274803D01*
X78740Y277559D02*
X79134Y277165D01*
X83464Y294881D02*
X98819Y310236D01*
X83464Y269685D02*
Y294881D01*
X92913Y269685D02*
Y301181D01*
X98819Y307086D01*
X95435Y313385D02*
X98819D01*
X95399Y313421D02*
X95435Y313385D01*
X93577Y313421D02*
X95399D01*
X93542Y313385D02*
X93577Y313421D01*
X84645Y313385D02*
X93542D01*
X37008Y265748D02*
X84645Y313385D01*
X19685Y265748D02*
X37008D01*
X524409Y87795D02*
X525591Y86614D01*
X444095Y87795D02*
X524409D01*
X395276Y136614D02*
X444095Y87795D01*
X342520Y159449D02*
X343145Y158824D01*
X344463Y164986D02*
X398400D01*
X575927Y317354D02*
X585039Y326378D01*
X494912Y317747D02*
X575927Y317354D01*
X460630Y283465D02*
X494912Y317747D01*
X454724Y283465D02*
X460630D01*
X496063Y314961D02*
X582677D01*
X468504Y287402D02*
X496063Y314961D01*
X468504Y281496D02*
Y287402D01*
X462598Y275590D02*
X468504Y281496D01*
X231299Y309055D02*
X266732D01*
X228149Y305905D02*
X231299Y309055D01*
X130315Y305905D02*
X228149D01*
X209929Y233551D02*
X221457Y245079D01*
X111678Y233551D02*
X209929D01*
X215219Y231951D02*
X225394Y242126D01*
X114136Y231951D02*
X215219D01*
X217485Y227327D02*
X229331Y239173D01*
X164836Y227327D02*
X217485D01*
X482480Y130905D02*
X506299Y107087D01*
X413386Y130905D02*
X482480D01*
X309942Y196457D02*
X320866D01*
X305414Y191929D02*
X309942Y196457D01*
X297441Y191929D02*
X305414D01*
X291339Y185827D02*
X297441Y191929D01*
X315241Y190044D02*
X382790D01*
X333661Y185630D02*
X464764D01*
X471550Y168006D02*
X472441Y168898D01*
X344986Y168006D02*
X471550D01*
X108366Y158661D02*
X143405Y193701D01*
X108366Y156791D02*
Y158661D01*
X240236Y181595D02*
X272342D01*
X239567Y182264D02*
X240236Y181595D01*
X272342D02*
X283366Y170571D01*
X601968Y77953D02*
X602487Y77434D01*
X611229Y70472D02*
X625591D01*
X271575Y81910D02*
X295669Y106004D01*
X335138D01*
X347128Y103427D02*
X352362Y108661D01*
X347128Y81379D02*
Y103427D01*
X293700Y79133D02*
X315453Y100886D01*
X293700Y71259D02*
Y79133D01*
X291339Y73228D02*
Y81693D01*
X313189Y103543D02*
X336122D01*
X291339Y81693D02*
X313189Y103543D01*
X315453Y100886D02*
X336652D01*
X635433Y324803D02*
X656496D01*
X622441Y311811D02*
X635433Y324803D01*
X498819Y311811D02*
X622441D01*
X554099Y259611D02*
X587795Y293307D01*
X532515Y259611D02*
X554099D01*
X327115Y21997D02*
X332677Y27559D01*
X127216Y21997D02*
X327115D01*
X26378Y122835D02*
X127216Y21997D01*
X26378Y122835D02*
Y157480D01*
X128641Y25197D02*
X322441D01*
X33233Y120605D02*
X128641Y25197D01*
X33233Y120605D02*
Y174016D01*
X127978Y23597D02*
X324778D01*
X29528Y122047D02*
X127978Y23597D01*
X29528Y122047D02*
Y186024D01*
X283465Y196850D02*
X297476Y210861D01*
X297638Y203150D02*
X303150Y208661D01*
X297638Y203150D02*
X297638D01*
X337796Y175196D02*
X344986Y168006D01*
X320472Y175196D02*
X337796D01*
X336058Y167879D02*
X341570D01*
X331103Y172834D02*
X336058Y167879D01*
X317716Y172834D02*
X331103D01*
X343307Y175197D02*
X343539Y175428D01*
X341570Y167879D02*
X344463Y164986D01*
X335595Y113646D02*
X337697D01*
X336353Y110665D02*
X339502D01*
X334449Y108760D02*
X336353Y110665D01*
X335138Y106004D02*
X337598Y108465D01*
X336122Y103543D02*
X345571Y112992D01*
X339502Y110665D02*
X339583Y110746D01*
X345571Y112992D02*
Y118466D01*
X348327Y112560D02*
Y118012D01*
X336652Y100886D02*
X348327Y112560D01*
X287007Y88582D02*
X287007D01*
X318012Y170571D02*
X318898Y169685D01*
X282776Y167421D02*
X320866D01*
X259842Y339567D02*
X278543Y320866D01*
X259842Y339567D02*
Y342520D01*
X266732Y309055D02*
X278543Y320866D01*
X248803Y120832D02*
X272406D01*
X248276Y121358D02*
X248803Y120832D01*
X118307Y142126D02*
X132087Y128347D01*
X112795Y154134D02*
X118701Y160039D01*
X112795Y112598D02*
Y154134D01*
X232298Y111973D02*
X232874Y111398D01*
X264624D02*
X265230Y110791D01*
X239567Y111398D02*
X264624D01*
X120965Y101279D02*
Y106398D01*
X127264Y101279D02*
Y106890D01*
X130413Y103347D02*
X139665Y112598D01*
X130413Y101181D02*
Y103347D01*
X136713Y101279D02*
Y104134D01*
X229232Y88189D02*
X232874D01*
X146161Y99705D02*
Y101279D01*
X266929Y163583D02*
X294291Y136221D01*
X240571Y163583D02*
X266929D01*
X239567Y162579D02*
X240571Y163583D01*
X239567Y159055D02*
X266732D01*
X290551Y135236D01*
X265748Y155020D02*
X282446Y138322D01*
X239567Y155020D02*
X265748D01*
X239567D02*
Y155905D01*
X264961Y151378D02*
X280217Y136122D01*
X240571Y151378D02*
X264961D01*
X239567Y152382D02*
X240571Y151378D01*
X294291Y134646D02*
Y136221D01*
X280217Y136122D02*
X283268D01*
X284179Y138322D02*
X286871Y135630D01*
X287008D01*
X282446Y138322D02*
X284179D01*
X376305Y127880D02*
X381398Y132972D01*
X265230Y110791D02*
X268173D01*
X270443Y104301D02*
X284449Y118307D01*
X271476Y101201D02*
X286319Y116043D01*
X334154Y115847D02*
X339602D01*
X267598Y92106D02*
X289272Y113779D01*
X293307Y108760D02*
X334449D01*
X333465Y111516D02*
X335595Y113646D01*
X291437Y111516D02*
X333465D01*
X268504Y88583D02*
X291437Y111516D01*
X348070Y120965D02*
X348228D01*
X345571Y118466D02*
X348070Y120965D01*
X270374Y108760D02*
X282309Y120694D01*
X243898Y108760D02*
X270374D01*
X243012Y107874D02*
X243898Y108760D01*
X239567Y107874D02*
X243012D01*
X258739Y104301D02*
X270443D01*
X239567Y101201D02*
X271476D01*
X239961Y92106D02*
X267598D01*
X239961Y88583D02*
X268504D01*
X339602Y115843D02*
Y115847D01*
X339387Y115628D02*
X339602Y115843D01*
X339387Y115628D02*
X339445Y115569D01*
X339230Y115354D02*
X339445Y115569D01*
X120965Y156791D02*
X122013Y155743D01*
Y154601D02*
Y155743D01*
Y154601D02*
X125924Y150689D01*
X232874Y178740D02*
X232874Y178740D01*
X239567Y104724D02*
X242913D01*
X239567Y88189D02*
X239961Y88583D01*
X239567Y91713D02*
X239961Y92106D01*
X250835Y123031D02*
X266043D01*
X250669Y123197D02*
X250835Y123031D01*
X250669Y123197D02*
X250669D01*
X256904Y106137D02*
X258739Y104301D01*
X244326Y106137D02*
X256904D01*
X242913Y104724D02*
X244326Y106137D01*
X243799Y128347D02*
X245520D01*
X250669Y123197D01*
X137525Y145113D02*
X137560Y145079D01*
X130315D02*
X130350Y145113D01*
X137525D01*
X95768Y95965D02*
X134252Y57480D01*
X307442D02*
X313484Y51438D01*
X293012Y46260D02*
X295177Y48425D01*
X98819Y111909D02*
Y155905D01*
Y111909D02*
X138878Y71850D01*
X102362Y101083D02*
X102756D01*
X141929Y61910D01*
X95866Y157677D02*
Y157870D01*
X137894Y60236D02*
X138779D01*
X82382Y91634D02*
X133563Y40453D01*
X262894Y204528D02*
X263878D01*
X239567Y178740D02*
X271457D01*
X239567Y172067D02*
X267402D01*
X239567Y175591D02*
X240354Y174803D01*
X269291D01*
X256102Y197736D02*
X262894Y204528D01*
X118701Y160039D02*
X147638Y188976D01*
X155610Y156693D02*
X157125D01*
X172499Y172067D01*
X139862Y156791D02*
Y157442D01*
X164684Y182264D01*
X105217Y112008D02*
Y147736D01*
Y112008D02*
X137894Y79331D01*
X92618Y93209D02*
X133957Y51870D01*
X92618Y93209D02*
Y101378D01*
X95768Y95965D02*
Y99213D01*
X95866Y102264D02*
Y157677D01*
Y102264D02*
X137894Y60236D01*
X86024Y94390D02*
Y101575D01*
Y94390D02*
X134153Y46260D01*
X412992Y300394D02*
Y315354D01*
X407087Y321260D02*
X412992Y315354D01*
X228445Y88976D02*
X229232Y88189D01*
X82382Y91634D02*
Y111516D01*
X92618Y121752D01*
Y155807D01*
X530315Y261811D02*
X532515Y259611D01*
X520354Y261929D02*
X524272Y258011D01*
X561554D01*
X588189Y284646D01*
X497244Y291339D02*
X498857D01*
X528385Y261811D01*
X540158D02*
X540758Y261211D01*
X553437D01*
X577559Y285334D01*
Y286614D01*
X528385Y261811D02*
X530315D01*
X502362Y309055D02*
X591968D01*
X512992Y305906D02*
X553150Y265748D01*
X503150Y298031D02*
X514961D01*
X547244Y265748D01*
X503150Y290158D02*
X516929D01*
X541339Y265748D01*
X271457Y178740D02*
X282776Y167421D01*
X230492Y98819D02*
X232874Y101201D01*
X269980Y85433D02*
X293307Y108760D01*
X239567Y85039D02*
X239961Y85433D01*
X269980D01*
X309842Y61910D02*
X320177Y51575D01*
X313484Y51181D02*
Y51438D01*
X306201Y40453D02*
X316929Y51181D01*
X147638Y188976D02*
X266634D01*
X164684Y182264D02*
X232874D01*
X232874Y178740D02*
X232874Y178740D01*
X172499Y172067D02*
X232874D01*
X132087Y128347D02*
X228740D01*
X165748Y121358D02*
X248276D01*
X171063Y98819D02*
X230492D01*
X141929Y61910D02*
X309842D01*
X134252Y57480D02*
X307442D01*
X133957Y51870D02*
X309941D01*
X133563Y40453D02*
X306201D01*
X134153Y46260D02*
X293012D01*
X229744Y152382D02*
X232874D01*
X226083Y153543D02*
X228445Y155905D01*
X232874D01*
X225905Y157991D02*
X226969Y159055D01*
X232874D01*
X226181Y148819D02*
X229744Y152382D01*
X178150Y148819D02*
X226181D01*
X136614Y142913D02*
X138287Y141240D01*
X170571D01*
X178150Y148819D01*
X127264Y147638D02*
X166339D01*
X176692Y157991D01*
X225905D01*
X137560Y145079D02*
X169291D01*
X177756Y153543D01*
X226083D01*
X125924Y150689D02*
X163779D01*
X175669Y162579D01*
X232874D01*
X149311Y156693D02*
X150492D01*
X159414Y165615D01*
Y166266D01*
X168739Y175591D01*
X232874D01*
X146161Y156791D02*
Y158268D01*
X166634Y178740D02*
X232874D01*
X146161Y158268D02*
X153706Y165812D01*
X154455D01*
X155743Y167101D01*
Y167850D01*
X166634Y178740D01*
X101772Y115453D02*
Y159055D01*
X140453Y197736D01*
X256102D01*
X155610Y101181D02*
X163091Y93701D01*
X149409Y101121D02*
X161554Y88976D01*
X149409Y101121D02*
Y101279D01*
X161554Y88976D02*
X228445D01*
X139862Y99508D02*
Y101279D01*
Y99508D02*
X162205Y77165D01*
X172086Y103779D02*
X228779D01*
X229724Y104724D01*
X232874D01*
X120965Y106398D02*
X132480Y117913D01*
X127264Y106890D02*
X135531Y115157D01*
X136713Y104134D02*
X141929Y109350D01*
X160531D01*
X171063Y98819D01*
X132480Y117913D02*
X171161D01*
X177102Y111973D01*
X232298D01*
X135531Y115157D02*
X167618D01*
X174902Y107874D01*
X232874D01*
X139665Y112598D02*
X163266D01*
X172086Y103779D01*
X347539Y123721D02*
X356398D01*
X360557Y127880D01*
X376305D01*
X143405Y193701D02*
X284646D01*
X280768Y181102D02*
X285433Y185767D01*
X277558Y181102D02*
X280768D01*
X273622Y183858D02*
X279921Y190157D01*
X284646D01*
X343539Y175428D02*
X469060D01*
X96457Y215354D02*
X101181D01*
X428740Y217323D02*
X434646Y223228D01*
X350000Y217323D02*
X428740D01*
X345274Y216142D02*
X345275Y216141D01*
X284646Y193701D02*
X294685Y203740D01*
X285433Y185767D02*
Y187402D01*
X284646Y190157D02*
X297638Y203150D01*
X89567Y220472D02*
X96850D01*
X41180Y190945D02*
X42396Y189729D01*
X58824D02*
X89567Y220472D01*
X42396Y189729D02*
X58824D01*
X89172Y217815D02*
X100000D01*
X59486Y188129D02*
X89172Y217815D01*
X35570Y191634D02*
Y191792D01*
Y191634D02*
X39075Y188129D01*
X59486D01*
X35433Y191929D02*
X35570Y191792D01*
X93662Y215354D02*
X96457D01*
X49568Y171260D02*
X93662Y215354D01*
X101181D02*
X113189Y227362D01*
X311555Y220472D02*
X314961D01*
X309485Y225394D02*
X312008D01*
X100000Y217815D02*
X114136Y231951D01*
X96850Y220472D02*
X98599D01*
X111678Y233551D01*
X19685Y255748D02*
X28898D01*
X36417Y171260D02*
X49568D01*
X289763Y29528D02*
X314961D01*
X327953Y42520D01*
X344488Y25984D01*
Y23622D02*
Y25984D01*
X320473Y67322D02*
X327953Y59842D01*
Y42520D02*
Y59842D01*
X322835Y69059D02*
X330709Y61185D01*
Y43307D02*
Y61185D01*
Y43307D02*
X358268Y15748D01*
X363600Y150598D02*
X365154Y149044D01*
X367421D01*
X284449Y118307D02*
X314704D01*
X314738Y118272D01*
X319847D01*
X320374Y118799D01*
X332087Y113779D02*
X334154Y115847D01*
X289272Y113779D02*
X332087D01*
X286319Y116043D02*
X327067D01*
X280807Y123425D02*
X308366D01*
X268173Y110791D02*
X280807Y123425D01*
X282309Y120694D02*
X314592D01*
X314665Y120768D01*
X364665Y133858D02*
X367421Y136614D01*
X384055D01*
X385925Y134744D01*
X368602Y106496D02*
X415751D01*
X371555Y109055D02*
X415455D01*
X373721Y111516D02*
X415257D01*
X385925Y131004D02*
Y134744D01*
X367126Y115157D02*
Y118209D01*
X363484Y113878D02*
Y118209D01*
X366402Y111481D02*
X385925Y131004D01*
X364567Y112598D02*
X367126Y115157D01*
X362598Y112992D02*
X363484Y113878D01*
X333588Y202003D02*
X333623Y201969D01*
X300035Y202003D02*
X333588D01*
X285433Y187402D02*
X300035Y202003D01*
X320866Y196457D02*
X324213Y199803D01*
X332677D01*
X344685Y205906D02*
X351969D01*
X333623Y201969D02*
X338485D01*
X350000Y213483D01*
Y217323D01*
X301969Y186221D02*
X309646Y193898D01*
X332677D02*
X344685Y205906D01*
X309646Y193898D02*
X332677D01*
X283366Y170571D02*
X318012D01*
X290551Y172835D02*
X298031D01*
X315241Y190044D01*
X288189Y175591D02*
X298425D01*
X314961Y192126D01*
X412992Y292913D02*
Y300394D01*
X239567Y81516D02*
X239961Y81910D01*
X271575D01*
X272279Y69059D02*
X322835D01*
X268898Y67322D02*
X320473D01*
X263386Y77953D02*
X272279Y69059D01*
X262992Y77953D02*
X263386D01*
X260236Y75984D02*
X268898Y67322D01*
X273853Y80153D02*
X279134Y85433D01*
X254724Y73584D02*
X261294Y80153D01*
X254724Y70472D02*
Y73584D01*
X261294Y80153D02*
X273853D01*
X419685Y48819D02*
X447476Y21028D01*
X406791Y52362D02*
X410335Y48819D01*
X419685D01*
X395177Y52461D02*
X401575Y46063D01*
X419685D01*
X446457Y19291D01*
X383563Y52165D02*
X391634Y44094D01*
X418504D01*
X444907Y17691D01*
X404493Y54661D02*
X406791Y52362D01*
X418602Y52461D02*
Y52558D01*
X404493Y54661D02*
Y64405D01*
X395177Y52461D02*
Y71358D01*
X366402Y104758D02*
Y111481D01*
Y104758D02*
X418602Y52558D01*
X364567Y104331D02*
Y112598D01*
Y104331D02*
X404493Y64405D01*
X362598Y103937D02*
Y112992D01*
Y103937D02*
X395177Y71358D01*
X383563Y52165D02*
Y80610D01*
X352165Y112008D02*
Y117717D01*
Y112008D02*
X383563Y80610D01*
X418602Y52461D02*
X447835Y23228D01*
X572835D01*
X446457Y19291D02*
X589134D01*
X592992Y23150D01*
X597691Y17691D02*
X602992Y22992D01*
X444907Y17691D02*
X597691D01*
X447476Y21028D02*
X580871D01*
X582992Y23150D01*
X492618Y299311D02*
Y299508D01*
Y299311D02*
X502362Y309055D01*
X486221Y299213D02*
X498819Y311811D01*
X350197Y126969D02*
X352461D01*
X306855Y228024D02*
Y228872D01*
Y228024D02*
X309485Y225394D01*
X285865Y249863D02*
X306855Y228872D01*
X283765Y248263D02*
X311555Y220472D01*
X286528Y251463D02*
X309055Y228935D01*
X113189Y227362D02*
X164801D01*
X164836Y227327D01*
X309449Y125984D02*
X345276D01*
X347539Y123721D01*
X267402Y172067D02*
X310335Y129134D01*
X348031D01*
X350197Y126969D01*
X269291Y174803D02*
X312205Y131890D01*
X350430D01*
X352478Y129842D01*
X322441Y25197D02*
X324803Y27559D01*
X39370Y190945D02*
X41180D01*
X35827Y176609D02*
Y176772D01*
X33233Y174016D02*
X35827Y176609D01*
X29528Y186024D02*
X35433Y191929D01*
X324778Y23597D02*
X328740Y27559D01*
X591968Y309055D02*
X636221Y264803D01*
X656496D01*
X415257Y111516D02*
X442358Y84414D01*
X535271D01*
X415455Y109055D02*
X441696Y82814D01*
X527028D01*
X415751Y106496D02*
X441145Y81102D01*
X518898D01*
X534252Y65748D01*
X527028Y82814D02*
X544095Y65748D01*
X535271Y84414D02*
X553937Y65748D01*
X464764Y185630D02*
X509842Y140551D01*
X469060Y175428D02*
X509842Y134646D01*
X506299Y107087D02*
X529606D01*
X547244Y124724D01*
X206363Y238351D02*
X219474Y251463D01*
X286528D01*
X207026Y236751D02*
X220137Y249863D01*
X285865D01*
X207688Y235151D02*
X220800Y248263D01*
X283765D01*
X345275Y216141D02*
X377166Y248031D01*
X435039D01*
X455527Y268519D01*
X422244Y250984D02*
X447653Y276394D01*
X410433Y290354D02*
X412992Y292913D01*
X297476Y210861D02*
X333893D01*
X374016Y250984D01*
X422244D01*
X341339Y224803D02*
X370472Y253937D01*
X405512D01*
X410433Y258858D01*
Y290354D01*
X424409Y154331D02*
Y154686D01*
X342520Y163386D02*
X415710D01*
X424409Y154686D01*
X399394Y165980D02*
X472603D01*
X398400Y164986D02*
X399394Y165980D01*
X343145Y158824D02*
X415123D01*
X415354Y159055D01*
D31*
X239567Y88189D02*
D03*
Y85039D02*
D03*
X232874Y88189D02*
D03*
Y85039D02*
D03*
X232874Y104724D02*
D03*
Y107874D02*
D03*
X239567Y104724D02*
D03*
Y107874D02*
D03*
X239567Y159055D02*
D03*
Y155905D02*
D03*
X232874Y159055D02*
D03*
Y155905D02*
D03*
X239567Y178740D02*
D03*
Y175591D02*
D03*
X232874Y178740D02*
D03*
Y175591D02*
D03*
D32*
X239567Y91713D02*
D03*
Y81516D02*
D03*
X232874Y91713D02*
D03*
Y81516D02*
D03*
X232874Y101201D02*
D03*
Y111398D02*
D03*
X239567Y101201D02*
D03*
Y111398D02*
D03*
X239567Y162579D02*
D03*
Y152382D02*
D03*
X232874Y162579D02*
D03*
Y152382D02*
D03*
X239567Y182264D02*
D03*
Y172067D02*
D03*
X232874Y182264D02*
D03*
Y172067D02*
D03*
D60*
X97441Y341240D02*
X103051Y346850D01*
X97441Y317815D02*
Y341240D01*
Y317815D02*
X98327Y316929D01*
X503150Y305906D02*
X512992D01*
D61*
X635827Y33465D02*
X641732Y27559D01*
X657480Y11811D02*
X663386Y5906D01*
X657480Y27559D02*
X663386Y33465D01*
X635827Y5906D02*
X641732Y11811D01*
X635827Y340551D02*
X641732Y346457D01*
X657480Y362205D02*
X663386Y368110D01*
X657480Y346457D02*
X663386Y340551D01*
X635827Y368110D02*
X641732Y362205D01*
X5906Y368110D02*
X11811Y362205D01*
X27559Y346457D02*
X33465Y340551D01*
X27559Y362205D02*
X33465Y368110D01*
X5906Y340551D02*
X11811Y346457D01*
X5906Y5906D02*
X11811Y11811D01*
X27559Y27559D02*
X33465Y33465D01*
X27559Y11811D02*
X33465Y5906D01*
X5906Y33465D02*
X11811Y27559D01*
D64*
X367329Y146844D02*
X371682Y142491D01*
X367323Y146844D02*
X367329D01*
X367421Y149044D02*
X368232D01*
X370031Y147244D01*
X367322Y151574D02*
X481103D01*
X509842Y122835D01*
X370031Y147244D02*
X479528D01*
X509842Y116929D01*
X371682Y142491D02*
X478375D01*
X509842Y111024D01*
D66*
X649606Y19685D02*
X649606D01*
X649606Y354331D02*
X649606D01*
X19685D02*
X19685D01*
X19685Y19685D02*
X19685D01*
D71*
X393228Y364173D02*
D03*
X403228D02*
D03*
X413228D02*
D03*
X278543Y285276D02*
D03*
Y310866D02*
D03*
X60866Y318898D02*
D03*
X656496Y254803D02*
D03*
Y264803D02*
D03*
Y274803D02*
D03*
Y284803D02*
D03*
Y294803D02*
D03*
Y304803D02*
D03*
Y314803D02*
D03*
D72*
X423228Y364173D02*
D03*
X70866Y318898D02*
D03*
D73*
X19685Y275748D02*
D03*
X547244Y204724D02*
D03*
D74*
X19685Y265748D02*
D03*
Y255748D02*
D03*
X447653Y276394D02*
D03*
X455527Y268519D02*
D03*
X237008Y13780D02*
D03*
X227008D02*
D03*
X217008D02*
D03*
X207008D02*
D03*
X197008D02*
D03*
X325590D02*
D03*
X315591D02*
D03*
X305591D02*
D03*
X295590D02*
D03*
X285591D02*
D03*
X557244Y114724D02*
D03*
Y124724D02*
D03*
X547244Y114724D02*
D03*
Y124724D02*
D03*
X557244Y134724D02*
D03*
Y144724D02*
D03*
X547244Y134724D02*
D03*
Y144724D02*
D03*
Y194724D02*
D03*
Y184724D02*
D03*
Y174724D02*
D03*
Y164724D02*
D03*
Y154724D02*
D03*
X557244Y204724D02*
D03*
Y194724D02*
D03*
Y184724D02*
D03*
Y174724D02*
D03*
Y164724D02*
D03*
Y154724D02*
D03*
D75*
X454724Y283465D02*
D03*
X462598Y275590D02*
D03*
D76*
X278543Y295276D02*
D03*
Y320866D02*
D03*
X656496Y324803D02*
D03*
D77*
X649606Y19685D02*
D03*
Y354331D02*
D03*
X19685D02*
D03*
Y19685D02*
D03*
D78*
X273622Y342520D02*
D03*
X68898D02*
D03*
D79*
X259842D02*
D03*
X246063D02*
D03*
X55118D02*
D03*
D80*
X187008Y13780D02*
D03*
X275590D02*
D03*
D81*
X637795Y204724D02*
D03*
X578740Y114724D02*
D03*
D82*
X351574Y75590D02*
D03*
X351969Y81102D02*
D03*
X194095Y85433D02*
D03*
X369094Y293307D02*
D03*
X98425Y244094D02*
D03*
X95275Y248425D02*
D03*
X88583Y250984D02*
D03*
X92913Y250394D02*
D03*
X84646Y234252D02*
D03*
X76772Y250000D02*
D03*
X66142Y247244D02*
D03*
X70472Y247638D02*
D03*
X78740Y277559D02*
D03*
X92913Y269685D02*
D03*
X83464Y269685D02*
D03*
X98819Y313385D02*
D03*
Y310236D02*
D03*
Y307086D02*
D03*
X83465Y298425D02*
D03*
X525591Y86614D02*
D03*
X395276Y136614D02*
D03*
X384842Y161024D02*
D03*
X585039Y326378D02*
D03*
X582677Y314961D02*
D03*
X156496Y248031D02*
D03*
X178150D02*
D03*
X221457Y245079D02*
D03*
X225394Y242126D02*
D03*
X229331Y239173D02*
D03*
X413386Y130905D02*
D03*
X108366Y156791D02*
D03*
X601968Y77953D02*
D03*
X625591Y70472D02*
D03*
X294488Y100394D02*
D03*
X298031D02*
D03*
X352362Y108661D02*
D03*
X379921Y94488D02*
D03*
X377953Y97244D02*
D03*
X351969Y97244D02*
D03*
X355511Y97244D02*
D03*
X347128Y81379D02*
D03*
X291339Y88583D02*
D03*
X130315Y305905D02*
D03*
X382283Y179528D02*
D03*
X370866D02*
D03*
X334646Y66929D02*
D03*
X349606Y242126D02*
D03*
X303150Y208661D02*
D03*
X320472Y175196D02*
D03*
X343307Y175197D02*
D03*
X362205Y173228D02*
D03*
X363878Y170206D02*
D03*
X307283Y87795D02*
D03*
X337697Y113646D02*
D03*
X337598Y108465D02*
D03*
X348327Y118012D02*
D03*
X352461Y126969D02*
D03*
X287007Y88582D02*
D03*
X281496Y88583D02*
D03*
X365354Y72047D02*
D03*
X332283Y81496D02*
D03*
Y75984D02*
D03*
X311417Y75590D02*
D03*
Y81496D02*
D03*
X285827D02*
D03*
X285826Y75196D02*
D03*
X279921Y75984D02*
D03*
X342520Y159449D02*
D03*
Y163386D02*
D03*
X333661Y185630D02*
D03*
X317716Y172834D02*
D03*
X318898Y169685D02*
D03*
X320866Y167323D02*
D03*
X370866Y171260D02*
D03*
X382283D02*
D03*
X381299Y120866D02*
D03*
X382087Y144685D02*
D03*
X488976Y211417D02*
D03*
X503150Y202756D02*
D03*
X523622D02*
D03*
Y212598D02*
D03*
X503150D02*
D03*
X383858Y260630D02*
D03*
Y265748D02*
D03*
Y270472D02*
D03*
Y275590D02*
D03*
X399213D02*
D03*
Y270472D02*
D03*
Y265748D02*
D03*
Y260630D02*
D03*
X399606Y328346D02*
D03*
Y331496D02*
D03*
Y334646D02*
D03*
Y337795D02*
D03*
X423228Y340551D02*
D03*
X420079Y328740D02*
D03*
X259449Y305118D02*
D03*
Y312992D02*
D03*
X143701Y283465D02*
D03*
X143701Y291339D02*
D03*
X145669Y361910D02*
D03*
X165748Y121358D02*
D03*
X228740Y128347D02*
D03*
X138779Y60236D02*
D03*
X137894Y79331D02*
D03*
X117815Y102756D02*
D03*
X112795Y112598D02*
D03*
X250000Y286024D02*
D03*
X259055Y279626D02*
D03*
X119095Y281496D02*
D03*
X120276Y288583D02*
D03*
X150787Y361221D02*
D03*
X140453Y361319D02*
D03*
X94488Y311221D02*
D03*
X103051Y346850D02*
D03*
X98327Y316929D02*
D03*
X70965Y259842D02*
D03*
X70965Y273622D02*
D03*
Y287402D02*
D03*
X30610Y318898D02*
D03*
X86024Y101575D02*
D03*
X105217Y147736D02*
D03*
X194291Y114173D02*
D03*
X217815Y186122D02*
D03*
Y168504D02*
D03*
X294291Y134646D02*
D03*
X290551Y135236D02*
D03*
X287008Y135630D02*
D03*
X283268Y136122D02*
D03*
X381398Y132972D02*
D03*
X348228Y120965D02*
D03*
X352478Y129842D02*
D03*
X339583Y110746D02*
D03*
X339602Y115847D02*
D03*
X158760Y155217D02*
D03*
X139862Y156791D02*
D03*
X120965D02*
D03*
X146161Y156791D02*
D03*
X149311Y156693D02*
D03*
X155610Y156693D02*
D03*
X133661Y155315D02*
D03*
X117815Y155413D02*
D03*
X124213Y155512D02*
D03*
X142913Y155413D02*
D03*
X124114Y102461D02*
D03*
X130413Y101181D02*
D03*
X133563Y102756D02*
D03*
X127264Y101279D02*
D03*
X136713D02*
D03*
X139862D02*
D03*
X143012Y102559D02*
D03*
X152461D02*
D03*
X149409Y101279D02*
D03*
X146161D02*
D03*
X120965D02*
D03*
X250787Y127559D02*
D03*
X255906D02*
D03*
X101772Y115453D02*
D03*
X646654Y74410D02*
D03*
X599803Y69193D02*
D03*
X608366Y66732D02*
D03*
X630315Y62992D02*
D03*
X349410Y88878D02*
D03*
X330626Y88796D02*
D03*
X327756Y88878D02*
D03*
X266043Y123031D02*
D03*
X328658Y186833D02*
D03*
X325787Y186811D02*
D03*
X76870Y156004D02*
D03*
Y101870D02*
D03*
X98819Y155905D02*
D03*
X95866Y157677D02*
D03*
X266142Y116142D02*
D03*
X266141Y112991D02*
D03*
X259651Y106501D02*
D03*
X248223Y103937D02*
D03*
X166240Y211617D02*
D03*
X166339Y224510D02*
D03*
X265650Y142421D02*
D03*
X266929Y139665D02*
D03*
X243799Y128347D02*
D03*
X127264Y147638D02*
D03*
X130315Y145079D02*
D03*
X136614Y142913D02*
D03*
X118307Y142126D02*
D03*
X394882Y308465D02*
D03*
X394783Y301870D02*
D03*
X394488Y293996D02*
D03*
X422835Y318898D02*
D03*
X92618Y155807D02*
D03*
X295177Y48425D02*
D03*
X309941Y51870D02*
D03*
X138878Y71850D02*
D03*
X102362Y101083D02*
D03*
X309867Y89985D02*
D03*
X266634Y188976D02*
D03*
X263878Y204528D02*
D03*
X263779Y185039D02*
D03*
X252165D02*
D03*
X152461Y155315D02*
D03*
X153543Y168012D02*
D03*
X161614Y165354D02*
D03*
X142323Y168110D02*
D03*
X137205Y168110D02*
D03*
X129035Y165354D02*
D03*
X120866Y168012D02*
D03*
X82677Y167717D02*
D03*
X91240Y165354D02*
D03*
X79724Y90551D02*
D03*
X89468Y94587D02*
D03*
X129921Y90551D02*
D03*
X158661Y102559D02*
D03*
X155610Y101181D02*
D03*
X92618Y101378D02*
D03*
X95768Y99213D02*
D03*
X268701Y325787D02*
D03*
X275590Y328937D02*
D03*
X279528D02*
D03*
X269685Y303346D02*
D03*
X274606D02*
D03*
X279528D02*
D03*
X424213Y308858D02*
D03*
X412992Y300394D02*
D03*
X407087Y321260D02*
D03*
X304724Y267323D02*
D03*
X311024Y267520D02*
D03*
X419291Y268110D02*
D03*
X419291Y275984D02*
D03*
X417717Y263386D02*
D03*
X601575Y292913D02*
D03*
Y283858D02*
D03*
X481496Y335433D02*
D03*
X482677Y319291D02*
D03*
X466929Y318898D02*
D03*
X483465Y264173D02*
D03*
X491339Y263779D02*
D03*
X499606Y264173D02*
D03*
X473228Y272047D02*
D03*
Y264961D02*
D03*
X497244Y291339D02*
D03*
X530315Y261811D02*
D03*
X588189Y284646D02*
D03*
X587795Y293307D02*
D03*
X520354Y261929D02*
D03*
X540158Y261811D02*
D03*
X577559Y286614D02*
D03*
X550394Y240945D02*
D03*
X560236D02*
D03*
X570472D02*
D03*
X530709D02*
D03*
X577953Y278346D02*
D03*
X565748Y285433D02*
D03*
X503150Y305906D02*
D03*
Y298031D02*
D03*
Y290158D02*
D03*
X553150Y265748D02*
D03*
X547244D02*
D03*
X541339D02*
D03*
X250000Y169291D02*
D03*
X313386Y206693D02*
D03*
X326772Y205118D02*
D03*
X332677Y207087D02*
D03*
X316929Y51181D02*
D03*
X320177Y51575D02*
D03*
X313484Y51181D02*
D03*
X455709Y348425D02*
D03*
X161417Y92224D02*
D03*
X403622Y242244D02*
D03*
X403780Y232244D02*
D03*
X403543Y222244D02*
D03*
X403858Y202244D02*
D03*
Y192244D02*
D03*
X382677Y222244D02*
D03*
X294685Y203740D02*
D03*
X282185Y185630D02*
D03*
X305512Y204724D02*
D03*
X305118Y196850D02*
D03*
X350000Y217323D02*
D03*
X351969Y205906D02*
D03*
X423228Y242126D02*
D03*
X425984Y226378D02*
D03*
X460630D02*
D03*
X434646Y223228D02*
D03*
X277558Y181102D02*
D03*
X278642Y184646D02*
D03*
X273622Y183858D02*
D03*
X88976Y204724D02*
D03*
X87795Y212598D02*
D03*
X66929Y228346D02*
D03*
X284252Y87008D02*
D03*
X639370Y56299D02*
D03*
Y81890D02*
D03*
X615748Y46457D02*
D03*
X276378Y245276D02*
D03*
X96850Y220472D02*
D03*
X96457Y215354D02*
D03*
X100000Y217815D02*
D03*
X291339Y185827D02*
D03*
Y73228D02*
D03*
X293700Y71259D02*
D03*
X248031Y96850D02*
D03*
X403780Y212244D02*
D03*
X181496Y214173D02*
D03*
X306791Y187402D02*
D03*
X301969Y186221D02*
D03*
X320866Y196457D02*
D03*
X61417Y209055D02*
D03*
Y200394D02*
D03*
X43307Y160433D02*
D03*
Y176181D02*
D03*
Y191929D02*
D03*
X39370Y190945D02*
D03*
X35433Y191929D02*
D03*
X36417Y171260D02*
D03*
X309055Y189961D02*
D03*
X314961Y220472D02*
D03*
X240158Y278543D02*
D03*
X309055Y228935D02*
D03*
X312008Y225394D02*
D03*
X477559Y242126D02*
D03*
X289763Y29528D02*
D03*
X344488Y23622D02*
D03*
X358268Y15748D02*
D03*
X330709Y43307D02*
D03*
X616142Y31496D02*
D03*
Y19685D02*
D03*
X533071Y29528D02*
D03*
X543307D02*
D03*
X553150D02*
D03*
X562992D02*
D03*
X583071D02*
D03*
X592913D02*
D03*
X572835D02*
D03*
X603150D02*
D03*
X367322Y151574D02*
D03*
X365963Y144200D02*
D03*
X363305Y146169D02*
D03*
X363600Y150598D02*
D03*
X367323Y146844D02*
D03*
X320374Y118799D02*
D03*
X327067Y116043D02*
D03*
X308366Y123425D02*
D03*
X314665Y120768D02*
D03*
X364665Y133858D02*
D03*
X418602Y52461D02*
D03*
X406791Y52362D02*
D03*
X371850Y121063D02*
D03*
X352165Y117717D02*
D03*
X383563Y52165D02*
D03*
X363878Y125000D02*
D03*
X366535Y123327D02*
D03*
X363484Y118209D02*
D03*
X367126D02*
D03*
X368602Y106496D02*
D03*
X371555Y109055D02*
D03*
X373721Y111516D02*
D03*
X345275Y216141D02*
D03*
X283465Y196850D02*
D03*
X329921Y196850D02*
D03*
X332677Y199803D02*
D03*
X290551Y172835D02*
D03*
X288189Y175591D02*
D03*
X446063Y195669D02*
D03*
X446850Y207874D02*
D03*
X341339Y224803D02*
D03*
X260236Y75984D02*
D03*
X251692Y36338D02*
D03*
X262992Y77953D02*
D03*
X261417Y71653D02*
D03*
X279134Y85433D02*
D03*
X254724Y70472D02*
D03*
X249213Y33071D02*
D03*
X387795Y24409D02*
D03*
X399606D02*
D03*
X411417D02*
D03*
X423228D02*
D03*
X615748Y91732D02*
D03*
X395177Y52461D02*
D03*
X534252Y65748D02*
D03*
X544095D02*
D03*
X553937D02*
D03*
X572835Y23228D02*
D03*
X582992Y23150D02*
D03*
X592992D02*
D03*
X602992Y22992D02*
D03*
X113189Y28543D02*
D03*
X492618Y299508D02*
D03*
X486221Y299213D02*
D03*
X165748Y229527D02*
D03*
X280315Y155118D02*
D03*
X278346Y157874D02*
D03*
X324803Y27559D02*
D03*
X35827Y176772D02*
D03*
X328740Y27559D02*
D03*
X332677D02*
D03*
X26378Y157480D02*
D03*
X509842Y140551D02*
D03*
Y134646D02*
D03*
Y128740D02*
D03*
Y122835D02*
D03*
Y116929D02*
D03*
Y111024D02*
D03*
X505512Y163386D02*
D03*
X472441Y168898D02*
D03*
X424409Y154331D02*
D03*
X509842Y146457D02*
D03*
Y152362D02*
D03*
X492126Y28543D02*
D03*
X133858Y312992D02*
D03*
X135827Y309055D02*
D03*
X133858Y303150D02*
D03*
X240158Y301181D02*
D03*
X236221Y305118D02*
D03*
Y297244D02*
D03*
X133858Y291929D02*
D03*
X374016Y358268D02*
D03*
X393701D02*
D03*
X640748Y253937D02*
D03*
X424016Y163779D02*
D03*
X415354Y159055D02*
D03*
D83*
X389764Y322835D02*
D03*
Y318898D02*
D03*
X393701Y322835D02*
D03*
Y318898D02*
D03*
X115945Y319291D02*
D03*
X120276D02*
D03*
X115945Y314961D02*
D03*
X120276D02*
D03*
X115945Y310630D02*
D03*
X120276D02*
D03*
D84*
X635827Y33465D02*
D03*
X663386D02*
D03*
Y5906D02*
D03*
X635827D02*
D03*
Y340551D02*
D03*
X663386D02*
D03*
Y368110D02*
D03*
X635827D02*
D03*
X5906D02*
D03*
X33465D02*
D03*
Y340551D02*
D03*
X5906D02*
D03*
Y5906D02*
D03*
X33465D02*
D03*
Y33465D02*
D03*
X5906D02*
D03*
D86*
X108563Y266732D02*
D03*
X117815Y263189D02*
D03*
Y270276D02*
D03*
M02*
