G04 Layer_Color=65535*
%FSLAX25Y25*%
%MOIN*%
G70*
G01*
G75*
%ADD59C,0.00800*%
%ADD60C,0.01000*%
%ADD62C,0.01200*%
%ADD64C,0.00787*%
%ADD87C,0.00984*%
%ADD88C,0.00600*%
%ADD89C,0.00394*%
%ADD90C,0.01575*%
%ADD91C,0.02362*%
%ADD92C,0.00500*%
%ADD93C,0.00050*%
D59*
X504933Y26496D02*
X530433D01*
X531433Y27496D01*
X511933Y106496D02*
X530433D01*
X532433Y108496D01*
X511933Y96496D02*
X530433D01*
X532433Y98496D01*
X511933Y86496D02*
X530433D01*
X532433Y88496D01*
X511933Y76496D02*
X530433D01*
X532433Y78496D01*
X504933Y66496D02*
X530433D01*
X532433Y68496D01*
X504933Y56496D02*
X530433D01*
X532433Y58496D01*
X504933Y46496D02*
X530433D01*
X532433Y48496D01*
X504933Y36496D02*
X530433D01*
X532433Y38496D01*
X21654Y199409D02*
Y206693D01*
X8858Y175787D02*
X23622D01*
X8858Y159449D02*
X27559D01*
X21654Y196850D02*
Y199409D01*
X20472Y206693D02*
X21654D01*
X20472Y196850D02*
X21654D01*
X257480Y70472D02*
X333071D01*
X257480Y146063D02*
X333071D01*
Y70472D02*
Y146063D01*
X257480Y70472D02*
Y146063D01*
X511566Y42712D02*
X510983Y43295D01*
X509816D01*
X509233Y42712D01*
Y42129D01*
X509816Y41546D01*
X510983D01*
X511566Y40962D01*
Y40379D01*
X510983Y39796D01*
X509816D01*
X509233Y40379D01*
X512732Y43295D02*
Y39796D01*
X514481D01*
X515064Y40379D01*
Y42712D01*
X514481Y43295D01*
X512732D01*
X516231Y39796D02*
Y42129D01*
X517397Y43295D01*
X518563Y42129D01*
Y39796D01*
Y41546D01*
X516231D01*
X496566Y37212D02*
X495983Y37795D01*
X494816D01*
X494233Y37212D01*
Y36629D01*
X494816Y36046D01*
X495983D01*
X496566Y35462D01*
Y34879D01*
X495983Y34296D01*
X494816D01*
X494233Y34879D01*
X500065Y37212D02*
X499481Y37795D01*
X498315D01*
X497732Y37212D01*
Y34879D01*
X498315Y34296D01*
X499481D01*
X500065Y34879D01*
X501231Y37795D02*
Y34296D01*
X503563D01*
X34387Y199803D02*
X37053D01*
X38386Y201136D01*
X37053Y202469D01*
X34387D01*
X38386Y203802D02*
X34387D01*
Y205801D01*
X35054Y206468D01*
X36386D01*
X37053Y205801D01*
Y203802D01*
Y205135D02*
X38386Y206468D01*
Y210466D02*
Y207801D01*
X35720Y210466D01*
X35054D01*
X34387Y209800D01*
Y208467D01*
X35054Y207801D01*
Y211799D02*
X34387Y212466D01*
Y213799D01*
X35054Y214465D01*
X37719D01*
X38386Y213799D01*
Y212466D01*
X37719Y211799D01*
X35054D01*
Y215798D02*
X34387Y216464D01*
Y217797D01*
X35054Y218464D01*
X37719D01*
X38386Y217797D01*
Y216464D01*
X37719Y215798D01*
X35054D01*
X206805Y74910D02*
X206139Y74243D01*
Y72910D01*
X206805Y72244D01*
X207472D01*
X208138Y72910D01*
Y74243D01*
X208805Y74910D01*
X209471D01*
X210138Y74243D01*
Y72910D01*
X209471Y72244D01*
X206139Y78909D02*
Y77576D01*
Y78242D01*
X209471D01*
X210138Y77576D01*
Y76909D01*
X209471Y76243D01*
X210138Y80242D02*
Y81574D01*
Y80908D01*
X206139D01*
X206805Y80242D01*
Y83574D02*
X206139Y84240D01*
Y85573D01*
X206805Y86240D01*
X209471D01*
X210138Y85573D01*
Y84240D01*
X209471Y83574D01*
X206805D01*
X210138Y90238D02*
Y87572D01*
X207472Y90238D01*
X206805D01*
X206139Y89572D01*
Y88239D01*
X206805Y87572D01*
X455709Y64527D02*
Y68526D01*
X457708D01*
X458375Y67860D01*
Y66527D01*
X457708Y65860D01*
X455709D01*
X457042D02*
X458375Y64527D01*
X459707D02*
Y68526D01*
X461707D01*
X462373Y67860D01*
Y66527D01*
X461707Y65860D01*
X459707D01*
X461040D02*
X462373Y64527D01*
X466372Y68526D02*
X465039Y67860D01*
X463706Y66527D01*
Y65194D01*
X464372Y64527D01*
X465705D01*
X466372Y65194D01*
Y65860D01*
X465705Y66527D01*
X463706D01*
X467705Y67860D02*
X468371Y68526D01*
X469704D01*
X470371Y67860D01*
Y65194D01*
X469704Y64527D01*
X468371D01*
X467705Y65194D01*
Y67860D01*
X474369Y64527D02*
X471703D01*
X474369Y67193D01*
Y67860D01*
X473703Y68526D01*
X472370D01*
X471703Y67860D01*
X455709Y82244D02*
Y86243D01*
X457708D01*
X458375Y85576D01*
Y84243D01*
X457708Y83577D01*
X455709D01*
X457042D02*
X458375Y82244D01*
X459707D02*
Y86243D01*
X461707D01*
X462373Y85576D01*
Y84243D01*
X461707Y83577D01*
X459707D01*
X461040D02*
X462373Y82244D01*
X466372Y86243D02*
X465039Y85576D01*
X463706Y84243D01*
Y82911D01*
X464372Y82244D01*
X465705D01*
X466372Y82911D01*
Y83577D01*
X465705Y84243D01*
X463706D01*
X467705Y85576D02*
X468371Y86243D01*
X469704D01*
X470371Y85576D01*
Y82911D01*
X469704Y82244D01*
X468371D01*
X467705Y82911D01*
Y85576D01*
X471703Y82244D02*
X473036D01*
X472370D01*
Y86243D01*
X471703Y85576D01*
X455709Y99961D02*
Y103959D01*
X457708D01*
X458375Y103293D01*
Y101960D01*
X457708Y101294D01*
X455709D01*
X457042D02*
X458375Y99961D01*
X459707D02*
Y103959D01*
X461707D01*
X462373Y103293D01*
Y101960D01*
X461707Y101294D01*
X459707D01*
X461040D02*
X462373Y99961D01*
X466372Y103959D02*
X465039Y103293D01*
X463706Y101960D01*
Y100627D01*
X464372Y99961D01*
X465705D01*
X466372Y100627D01*
Y101294D01*
X465705Y101960D01*
X463706D01*
X467705Y103293D02*
X468371Y103959D01*
X469704D01*
X470371Y103293D01*
Y100627D01*
X469704Y99961D01*
X468371D01*
X467705Y100627D01*
Y103293D01*
X471703D02*
X472370Y103959D01*
X473703D01*
X474369Y103293D01*
Y100627D01*
X473703Y99961D01*
X472370D01*
X471703Y100627D01*
Y103293D01*
X308169Y221358D02*
Y225357D01*
X310169D01*
X310835Y224691D01*
Y223358D01*
X310169Y222691D01*
X308169D01*
X309502D02*
X310835Y221358D01*
X314167D02*
Y225357D01*
X312168Y223358D01*
X314834D01*
X316167Y224691D02*
X316833Y225357D01*
X318166D01*
X318832Y224691D01*
Y222025D01*
X318166Y221358D01*
X316833D01*
X316167Y222025D01*
Y224691D01*
X322831Y225357D02*
X321498Y224691D01*
X320165Y223358D01*
Y222025D01*
X320832Y221358D01*
X322165D01*
X322831Y222025D01*
Y222691D01*
X322165Y223358D01*
X320165D01*
X365551Y117323D02*
Y121321D01*
X367550D01*
X368217Y120655D01*
Y119322D01*
X367550Y118656D01*
X365551D01*
X366884D02*
X368217Y117323D01*
X369550D02*
X370883D01*
X370216D01*
Y121321D01*
X369550Y120655D01*
X372882Y117323D02*
X374215D01*
X373549D01*
Y121321D01*
X372882Y120655D01*
X376214D02*
X376881Y121321D01*
X378214D01*
X378880Y120655D01*
Y117989D01*
X378214Y117323D01*
X376881D01*
X376214Y117989D01*
Y120655D01*
X356996Y155573D02*
X355664D01*
X356330D01*
Y152241D01*
X355664Y151575D01*
X354997D01*
X354331Y152241D01*
X358329Y151575D02*
Y155573D01*
X360329D01*
X360995Y154907D01*
Y153574D01*
X360329Y152908D01*
X358329D01*
X362328Y155573D02*
X364994D01*
Y154907D01*
X362328Y152241D01*
Y151575D01*
X366327Y154907D02*
X366993Y155573D01*
X368326D01*
X368993Y154907D01*
Y152241D01*
X368326Y151575D01*
X366993D01*
X366327Y152241D01*
Y154907D01*
X370326D02*
X370992Y155573D01*
X372325D01*
X372991Y154907D01*
Y152241D01*
X372325Y151575D01*
X370992D01*
X370326Y152241D01*
Y154907D01*
X13197Y217188D02*
X11864D01*
X12531D01*
Y213855D01*
X11864Y213189D01*
X11198D01*
X10531Y213855D01*
X14530Y213189D02*
Y217188D01*
X16530D01*
X17196Y216521D01*
Y215188D01*
X16530Y214522D01*
X14530D01*
X21195Y213189D02*
X18529D01*
X21195Y215855D01*
Y216521D01*
X20528Y217188D01*
X19195D01*
X18529Y216521D01*
X22528D02*
X23194Y217188D01*
X24527D01*
X25193Y216521D01*
Y213855D01*
X24527Y213189D01*
X23194D01*
X22528Y213855D01*
Y216521D01*
X26526D02*
X27193Y217188D01*
X28526D01*
X29192Y216521D01*
Y213855D01*
X28526Y213189D01*
X27193D01*
X26526Y213855D01*
Y216521D01*
X336946Y254634D02*
Y253301D01*
Y253968D01*
X340278D01*
X340945Y253301D01*
Y252635D01*
X340278Y251969D01*
X340945Y257967D02*
X336946D01*
X338946Y255967D01*
Y258633D01*
X337613Y259966D02*
X336946Y260632D01*
Y261965D01*
X337613Y262632D01*
X340278D01*
X340945Y261965D01*
Y260632D01*
X340278Y259966D01*
X337613D01*
Y263965D02*
X336946Y264631D01*
Y265964D01*
X337613Y266630D01*
X340278D01*
X340945Y265964D01*
Y264631D01*
X340278Y263965D01*
X337613D01*
X339604Y223721D02*
X343602D01*
Y225720D01*
X342936Y226386D01*
X340270D01*
X339604Y225720D01*
Y223721D01*
X343602Y229718D02*
X339604D01*
X341603Y227719D01*
Y230385D01*
X340270Y231718D02*
X339604Y232384D01*
Y233717D01*
X340270Y234384D01*
X342936D01*
X343602Y233717D01*
Y232384D01*
X342936Y231718D01*
X340270D01*
Y235717D02*
X339604Y236383D01*
Y237716D01*
X340270Y238382D01*
X342936D01*
X343602Y237716D01*
Y236383D01*
X342936Y235717D01*
X340270D01*
X41142Y150751D02*
Y146752D01*
X43141D01*
X43808Y147418D01*
Y150084D01*
X43141Y150751D01*
X41142D01*
X47806Y146752D02*
X45140D01*
X47806Y149418D01*
Y150084D01*
X47140Y150751D01*
X45807D01*
X45140Y150084D01*
X49139D02*
X49806Y150751D01*
X51139D01*
X51805Y150084D01*
Y147418D01*
X51139Y146752D01*
X49806D01*
X49139Y147418D01*
Y150084D01*
X55137Y146752D02*
Y150751D01*
X53138Y148751D01*
X55804D01*
X41240Y167385D02*
Y163386D01*
X43240D01*
X43906Y164052D01*
Y166718D01*
X43240Y167385D01*
X41240D01*
X47905Y163386D02*
X45239D01*
X47905Y166052D01*
Y166718D01*
X47238Y167385D01*
X45905D01*
X45239Y166718D01*
X49238D02*
X49904Y167385D01*
X51237D01*
X51903Y166718D01*
Y164052D01*
X51237Y163386D01*
X49904D01*
X49238Y164052D01*
Y166718D01*
X53236D02*
X53903Y167385D01*
X55236D01*
X55902Y166718D01*
Y166052D01*
X55236Y165385D01*
X54569D01*
X55236D01*
X55902Y164719D01*
Y164052D01*
X55236Y163386D01*
X53903D01*
X53236Y164052D01*
X470290Y25894D02*
X469623Y25228D01*
Y23895D01*
X470290Y23228D01*
X472956D01*
X473622Y23895D01*
Y25228D01*
X472956Y25894D01*
X469623Y29893D02*
X470290Y28560D01*
X471623Y27227D01*
X472956D01*
X473622Y27893D01*
Y29226D01*
X472956Y29893D01*
X472289D01*
X471623Y29226D01*
Y27227D01*
X470290Y31226D02*
X469623Y31892D01*
Y33225D01*
X470290Y33892D01*
X472956D01*
X473622Y33225D01*
Y31892D01*
X472956Y31226D01*
X470290D01*
Y35225D02*
X469623Y35891D01*
Y37224D01*
X470290Y37890D01*
X472956D01*
X473622Y37224D01*
Y35891D01*
X472956Y35225D01*
X470290D01*
X464778Y25894D02*
X464112Y25228D01*
Y23895D01*
X464778Y23228D01*
X467444D01*
X468110Y23895D01*
Y25228D01*
X467444Y25894D01*
X464112Y29893D02*
X464778Y28560D01*
X466111Y27227D01*
X467444D01*
X468110Y27893D01*
Y29226D01*
X467444Y29893D01*
X466777D01*
X466111Y29226D01*
Y27227D01*
X464778Y31226D02*
X464112Y31892D01*
Y33225D01*
X464778Y33892D01*
X467444D01*
X468110Y33225D01*
Y31892D01*
X467444Y31226D01*
X464778D01*
X468110Y35225D02*
Y36557D01*
Y35891D01*
X464112D01*
X464778Y35225D01*
X444882Y52716D02*
Y56715D01*
X446881D01*
X447548Y56049D01*
Y54716D01*
X446881Y54049D01*
X444882D01*
X446215D02*
X447548Y52716D01*
X451546Y56715D02*
X450213Y56049D01*
X448881Y54716D01*
Y53383D01*
X449547Y52716D01*
X450880D01*
X451546Y53383D01*
Y54049D01*
X450880Y54716D01*
X448881D01*
X452879Y56049D02*
X453546Y56715D01*
X454879D01*
X455545Y56049D01*
Y53383D01*
X454879Y52716D01*
X453546D01*
X452879Y53383D01*
Y56049D01*
X456878D02*
X457545Y56715D01*
X458877D01*
X459544Y56049D01*
Y53383D01*
X458877Y52716D01*
X457545D01*
X456878Y53383D01*
Y56049D01*
X444882Y44842D02*
Y48841D01*
X446881D01*
X447548Y48175D01*
Y46842D01*
X446881Y46175D01*
X444882D01*
X446215D02*
X447548Y44842D01*
X451546Y48841D02*
X450213Y48175D01*
X448881Y46842D01*
Y45509D01*
X449547Y44842D01*
X450880D01*
X451546Y45509D01*
Y46175D01*
X450880Y46842D01*
X448881D01*
X452879Y48175D02*
X453546Y48841D01*
X454879D01*
X455545Y48175D01*
Y45509D01*
X454879Y44842D01*
X453546D01*
X452879Y45509D01*
Y48175D01*
X456878Y44842D02*
X458211D01*
X457545D01*
Y48841D01*
X456878Y48175D01*
X364567Y125984D02*
Y129983D01*
X366566D01*
X367233Y129316D01*
Y127984D01*
X366566Y127317D01*
X364567D01*
X365900D02*
X367233Y125984D01*
X371231Y129983D02*
X369899Y129316D01*
X368566Y127984D01*
Y126651D01*
X369232Y125984D01*
X370565D01*
X371231Y126651D01*
Y127317D01*
X370565Y127984D01*
X368566D01*
X372564Y129316D02*
X373231Y129983D01*
X374564D01*
X375230Y129316D01*
Y126651D01*
X374564Y125984D01*
X373231D01*
X372564Y126651D01*
Y129316D01*
X379229Y125984D02*
X376563D01*
X379229Y128650D01*
Y129316D01*
X378562Y129983D01*
X377229D01*
X376563Y129316D01*
X391769Y58465D02*
Y61130D01*
Y59798D01*
X395768D01*
Y62463D02*
X391769D01*
Y64463D01*
X392436Y65129D01*
X393768D01*
X394435Y64463D01*
Y62463D01*
X391769Y69128D02*
X392436Y67795D01*
X393768Y66462D01*
X395101D01*
X395768Y67128D01*
Y68461D01*
X395101Y69128D01*
X394435D01*
X393768Y68461D01*
Y66462D01*
X392436Y70461D02*
X391769Y71127D01*
Y72460D01*
X392436Y73127D01*
X395101D01*
X395768Y72460D01*
Y71127D01*
X395101Y70461D01*
X392436D01*
Y74459D02*
X391769Y75126D01*
Y76459D01*
X392436Y77125D01*
X395101D01*
X395768Y76459D01*
Y75126D01*
X395101Y74459D01*
X392436D01*
X405647Y58465D02*
Y61130D01*
Y59798D01*
X409646D01*
Y62463D02*
X405647D01*
Y64463D01*
X406313Y65129D01*
X407646D01*
X408313Y64463D01*
Y62463D01*
X405647Y69128D02*
X406313Y67795D01*
X407646Y66462D01*
X408979D01*
X409646Y67128D01*
Y68461D01*
X408979Y69128D01*
X408313D01*
X407646Y68461D01*
Y66462D01*
X406313Y70461D02*
X405647Y71127D01*
Y72460D01*
X406313Y73127D01*
X408979D01*
X409646Y72460D01*
Y71127D01*
X408979Y70461D01*
X406313D01*
X409646Y74459D02*
Y75792D01*
Y75126D01*
X405647D01*
X406313Y74459D01*
X106237Y54134D02*
Y56800D01*
Y55467D01*
X110236D01*
Y58133D02*
X106237D01*
Y60132D01*
X106904Y60798D01*
X108237D01*
X108903Y60132D01*
Y58133D01*
X106237Y64797D02*
Y62131D01*
X108237D01*
X107570Y63464D01*
Y64131D01*
X108237Y64797D01*
X109570D01*
X110236Y64131D01*
Y62798D01*
X109570Y62131D01*
X106904Y66130D02*
X106237Y66796D01*
Y68129D01*
X106904Y68796D01*
X109570D01*
X110236Y68129D01*
Y66796D01*
X109570Y66130D01*
X106904D01*
X110236Y70129D02*
Y71462D01*
Y70795D01*
X106237D01*
X106904Y70129D01*
X394623Y243110D02*
X397956D01*
X398622Y243777D01*
Y245110D01*
X397956Y245776D01*
X394623D01*
Y247109D02*
Y249775D01*
X395290D01*
X397956Y247109D01*
X398622D01*
X395290Y251108D02*
X394623Y251774D01*
Y253107D01*
X395290Y253773D01*
X397956D01*
X398622Y253107D01*
Y251774D01*
X397956Y251108D01*
X395290D01*
Y255106D02*
X394623Y255773D01*
Y257106D01*
X395290Y257772D01*
X397956D01*
X398622Y257106D01*
Y255773D01*
X397956Y255106D01*
X395290D01*
X244587Y48917D02*
X248585D01*
Y46918D01*
X247919Y46251D01*
X246586D01*
X245919Y46918D01*
Y48917D01*
Y47584D02*
X244587Y46251D01*
X248585Y42253D02*
Y44919D01*
X246586D01*
X247252Y43586D01*
Y42919D01*
X246586Y42253D01*
X245253D01*
X244587Y42919D01*
Y44252D01*
X245253Y44919D01*
X247919Y40920D02*
X248585Y40253D01*
Y38921D01*
X247919Y38254D01*
X245253D01*
X244587Y38921D01*
Y40253D01*
X245253Y40920D01*
X247919D01*
Y36921D02*
X248585Y36255D01*
Y34922D01*
X247919Y34255D01*
X245253D01*
X244587Y34922D01*
Y36255D01*
X245253Y36921D01*
X247919D01*
X226378Y173228D02*
Y177227D01*
X228377D01*
X229044Y176561D01*
Y175228D01*
X228377Y174561D01*
X226378D01*
X227711D02*
X229044Y173228D01*
X230377D02*
Y177227D01*
X232376D01*
X233043Y176561D01*
Y175228D01*
X232376Y174561D01*
X230377D01*
X231710D02*
X233043Y173228D01*
X237041Y177227D02*
X234375D01*
Y175228D01*
X235708Y175894D01*
X236375D01*
X237041Y175228D01*
Y173895D01*
X236375Y173228D01*
X235042D01*
X234375Y173895D01*
X238374Y176561D02*
X239040Y177227D01*
X240373D01*
X241040Y176561D01*
Y173895D01*
X240373Y173228D01*
X239040D01*
X238374Y173895D01*
Y176561D01*
X242373D02*
X243039Y177227D01*
X244372D01*
X245039Y176561D01*
Y173895D01*
X244372Y173228D01*
X243039D01*
X242373Y173895D01*
Y176561D01*
X214871Y89061D02*
X214204Y89727D01*
X212871D01*
X212205Y89061D01*
Y86395D01*
X212871Y85728D01*
X214204D01*
X214871Y86395D01*
X216203Y85728D02*
X217536D01*
X216870D01*
Y89727D01*
X216203Y89061D01*
X219536D02*
X220202Y89727D01*
X221535D01*
X222201Y89061D01*
Y86395D01*
X221535Y85728D01*
X220202D01*
X219536Y86395D01*
Y89061D01*
X223534D02*
X224201Y89727D01*
X225534D01*
X226200Y89061D01*
Y86395D01*
X225534Y85728D01*
X224201D01*
X223534Y86395D01*
Y89061D01*
X219398Y55242D02*
X218732Y55908D01*
X217399D01*
X216732Y55242D01*
Y52576D01*
X217399Y51909D01*
X218732D01*
X219398Y52576D01*
X220731Y51909D02*
X222064D01*
X221397D01*
Y55908D01*
X220731Y55242D01*
X224063D02*
X224730Y55908D01*
X226063D01*
X226729Y55242D01*
Y52576D01*
X226063Y51909D01*
X224730D01*
X224063Y52576D01*
Y55242D01*
X228062Y51909D02*
X229395D01*
X228728D01*
Y55908D01*
X228062Y55242D01*
X215855Y132860D02*
X215188Y133526D01*
X213855D01*
X213189Y132860D01*
Y130194D01*
X213855Y129528D01*
X215188D01*
X215855Y130194D01*
X217188Y129528D02*
X218521D01*
X217854D01*
Y133526D01*
X217188Y132860D01*
X220520D02*
X221186Y133526D01*
X222519D01*
X223186Y132860D01*
Y130194D01*
X222519Y129528D01*
X221186D01*
X220520Y130194D01*
Y132860D01*
X227185Y129528D02*
X224519D01*
X227185Y132193D01*
Y132860D01*
X226518Y133526D01*
X225185D01*
X224519Y132860D01*
X215953Y165143D02*
X215287Y165810D01*
X213954D01*
X213287Y165143D01*
Y162478D01*
X213954Y161811D01*
X215287D01*
X215953Y162478D01*
X217286Y161811D02*
X218619D01*
X217953D01*
Y165810D01*
X217286Y165143D01*
X220618D02*
X221285Y165810D01*
X222618D01*
X223284Y165143D01*
Y162478D01*
X222618Y161811D01*
X221285D01*
X220618Y162478D01*
Y165143D01*
X224617D02*
X225284Y165810D01*
X226616D01*
X227283Y165143D01*
Y164477D01*
X226616Y163810D01*
X225950D01*
X226616D01*
X227283Y163144D01*
Y162478D01*
X226616Y161811D01*
X225284D01*
X224617Y162478D01*
X231504Y67013D02*
X230838Y67680D01*
X229505D01*
X228839Y67013D01*
Y64348D01*
X229505Y63681D01*
X230838D01*
X231504Y64348D01*
X232837Y63681D02*
X234170D01*
X233504D01*
Y67680D01*
X232837Y67013D01*
X236170D02*
X236836Y67680D01*
X238169D01*
X238835Y67013D01*
Y64348D01*
X238169Y63681D01*
X236836D01*
X236170Y64348D01*
Y67013D01*
X242168Y63681D02*
Y67680D01*
X240168Y65680D01*
X242834D01*
X231504Y61600D02*
X230838Y62266D01*
X229505D01*
X228839Y61600D01*
Y58934D01*
X229505Y58268D01*
X230838D01*
X231504Y58934D01*
X232837Y58268D02*
X234170D01*
X233504D01*
Y62266D01*
X232837Y61600D01*
X236170D02*
X236836Y62266D01*
X238169D01*
X238835Y61600D01*
Y58934D01*
X238169Y58268D01*
X236836D01*
X236170Y58934D01*
Y61600D01*
X242834Y62266D02*
X240168D01*
Y60267D01*
X241501Y60934D01*
X242168D01*
X242834Y60267D01*
Y58934D01*
X242168Y58268D01*
X240835D01*
X240168Y58934D01*
X41249Y39159D02*
X40582Y39825D01*
X39249D01*
X38583Y39159D01*
Y36493D01*
X39249Y35827D01*
X40582D01*
X41249Y36493D01*
X42581Y35827D02*
X43914D01*
X43248D01*
Y39825D01*
X42581Y39159D01*
X45914D02*
X46580Y39825D01*
X47913D01*
X48579Y39159D01*
Y36493D01*
X47913Y35827D01*
X46580D01*
X45914Y36493D01*
Y39159D01*
X52578Y39825D02*
X51245Y39159D01*
X49912Y37826D01*
Y36493D01*
X50579Y35827D01*
X51912D01*
X52578Y36493D01*
Y37160D01*
X51912Y37826D01*
X49912D01*
X231603Y161994D02*
X230936Y162660D01*
X229604D01*
X228937Y161994D01*
Y159328D01*
X229604Y158661D01*
X230936D01*
X231603Y159328D01*
X232936Y158661D02*
X234269D01*
X233602D01*
Y162660D01*
X232936Y161994D01*
X236268D02*
X236934Y162660D01*
X238267D01*
X238934Y161994D01*
Y159328D01*
X238267Y158661D01*
X236934D01*
X236268Y159328D01*
Y161994D01*
X240267Y162660D02*
X242933D01*
Y161994D01*
X240267Y159328D01*
Y158661D01*
X231406Y111895D02*
X230739Y112562D01*
X229407D01*
X228740Y111895D01*
Y109229D01*
X229407Y108563D01*
X230739D01*
X231406Y109229D01*
X232739Y108563D02*
X234072D01*
X233405D01*
Y112562D01*
X232739Y111895D01*
X236071D02*
X236738Y112562D01*
X238071D01*
X238737Y111895D01*
Y109229D01*
X238071Y108563D01*
X236738D01*
X236071Y109229D01*
Y111895D01*
X240070D02*
X240736Y112562D01*
X242069D01*
X242736Y111895D01*
Y111229D01*
X242069Y110562D01*
X242736Y109896D01*
Y109229D01*
X242069Y108563D01*
X240736D01*
X240070Y109229D01*
Y109896D01*
X240736Y110562D01*
X240070Y111229D01*
Y111895D01*
X240736Y110562D02*
X242069D01*
X230815Y88765D02*
X230149Y89432D01*
X228816D01*
X228150Y88765D01*
Y86099D01*
X228816Y85433D01*
X230149D01*
X230815Y86099D01*
X232148Y85433D02*
X233481D01*
X232815D01*
Y89432D01*
X232148Y88765D01*
X235481D02*
X236147Y89432D01*
X237480D01*
X238146Y88765D01*
Y86099D01*
X237480Y85433D01*
X236147D01*
X235481Y86099D01*
Y88765D01*
X239479Y86099D02*
X240146Y85433D01*
X241479D01*
X242145Y86099D01*
Y88765D01*
X241479Y89432D01*
X240146D01*
X239479Y88765D01*
Y88099D01*
X240146Y87432D01*
X242145D01*
X271268Y54021D02*
X270602Y54688D01*
X269269D01*
X268602Y54021D01*
Y51355D01*
X269269Y50689D01*
X270602D01*
X271268Y51355D01*
X272601Y50689D02*
X273934D01*
X273268D01*
Y54688D01*
X272601Y54021D01*
X275933Y50689D02*
X277266D01*
X276600D01*
Y54688D01*
X275933Y54021D01*
X279266D02*
X279932Y54688D01*
X281265D01*
X281931Y54021D01*
Y51355D01*
X281265Y50689D01*
X279932D01*
X279266Y51355D01*
Y54021D01*
X294798Y45579D02*
X294131Y44913D01*
Y43580D01*
X294798Y42913D01*
X297463D01*
X298130Y43580D01*
Y44913D01*
X297463Y45579D01*
X298130Y46912D02*
Y48245D01*
Y47578D01*
X294131D01*
X294798Y46912D01*
X298130Y50244D02*
Y51577D01*
Y50911D01*
X294131D01*
X294798Y50244D01*
X298130Y53577D02*
Y54909D01*
Y54243D01*
X294131D01*
X294798Y53577D01*
X313597Y44693D02*
X312930Y44027D01*
Y42694D01*
X313597Y42028D01*
X316263D01*
X316929Y42694D01*
Y44027D01*
X316263Y44693D01*
X316929Y46026D02*
Y47359D01*
Y46693D01*
X312930D01*
X313597Y46026D01*
X316929Y49358D02*
Y50691D01*
Y50025D01*
X312930D01*
X313597Y49358D01*
X316929Y55357D02*
Y52691D01*
X314263Y55357D01*
X313597D01*
X312930Y54690D01*
Y53357D01*
X313597Y52691D01*
X231701Y134730D02*
X231035Y135396D01*
X229702D01*
X229035Y134730D01*
Y132064D01*
X229702Y131398D01*
X231035D01*
X231701Y132064D01*
X233034Y131398D02*
X234367D01*
X233701D01*
Y135396D01*
X233034Y134730D01*
X236366Y131398D02*
X237699D01*
X237033D01*
Y135396D01*
X236366Y134730D01*
X239699D02*
X240365Y135396D01*
X241698D01*
X242365Y134730D01*
Y134063D01*
X241698Y133397D01*
X241032D01*
X241698D01*
X242365Y132730D01*
Y132064D01*
X241698Y131398D01*
X240365D01*
X239699Y132064D01*
X368808Y136822D02*
X368141Y137488D01*
X366808D01*
X366142Y136822D01*
Y134156D01*
X366808Y133490D01*
X368141D01*
X368808Y134156D01*
X370140Y133490D02*
X371473D01*
X370807D01*
Y137488D01*
X370140Y136822D01*
X373473Y133490D02*
X374806D01*
X374139D01*
Y137488D01*
X373473Y136822D01*
X378804Y133490D02*
Y137488D01*
X376805Y135489D01*
X379471D01*
X344305Y46859D02*
X343639Y46192D01*
Y44859D01*
X344305Y44193D01*
X346971D01*
X347638Y44859D01*
Y46192D01*
X346971Y46859D01*
X347638Y48192D02*
Y49525D01*
Y48858D01*
X343639D01*
X344305Y48192D01*
X347638Y51524D02*
Y52857D01*
Y52190D01*
X343639D01*
X344305Y51524D01*
X343639Y57522D02*
Y54856D01*
X345638D01*
X344972Y56189D01*
Y56855D01*
X345638Y57522D01*
X346971D01*
X347638Y56855D01*
Y55523D01*
X346971Y54856D01*
X326392Y44595D02*
X325726Y43929D01*
Y42596D01*
X326392Y41929D01*
X329058D01*
X329724Y42596D01*
Y43929D01*
X329058Y44595D01*
X329724Y45928D02*
Y47261D01*
Y46594D01*
X325726D01*
X326392Y45928D01*
X329724Y49260D02*
Y50593D01*
Y49926D01*
X325726D01*
X326392Y49260D01*
X325726Y55258D02*
X326392Y53925D01*
X327725Y52592D01*
X329058D01*
X329724Y53259D01*
Y54592D01*
X329058Y55258D01*
X328392D01*
X327725Y54592D01*
Y52592D01*
X365363Y96738D02*
X364696Y97404D01*
X363363D01*
X362697Y96738D01*
Y94072D01*
X363363Y93405D01*
X364696D01*
X365363Y94072D01*
X366696Y93405D02*
X368028D01*
X367362D01*
Y97404D01*
X366696Y96738D01*
X370028Y93405D02*
X371361D01*
X370694D01*
Y97404D01*
X370028Y96738D01*
X373360Y97404D02*
X376026D01*
Y96738D01*
X373360Y94072D01*
Y93405D01*
X365461Y113962D02*
X364795Y114629D01*
X363462D01*
X362795Y113962D01*
Y111296D01*
X363462Y110630D01*
X364795D01*
X365461Y111296D01*
X366794Y110630D02*
X368127D01*
X367460D01*
Y114629D01*
X366794Y113962D01*
X370126Y110630D02*
X371459D01*
X370793D01*
Y114629D01*
X370126Y113962D01*
X373459D02*
X374125Y114629D01*
X375458D01*
X376124Y113962D01*
Y113296D01*
X375458Y112629D01*
X376124Y111963D01*
Y111296D01*
X375458Y110630D01*
X374125D01*
X373459Y111296D01*
Y111963D01*
X374125Y112629D01*
X373459Y113296D01*
Y113962D01*
X374125Y112629D02*
X375458D01*
X365461Y143490D02*
X364795Y144156D01*
X363462D01*
X362795Y143490D01*
Y140824D01*
X363462Y140157D01*
X364795D01*
X365461Y140824D01*
X366794Y140157D02*
X368127D01*
X367460D01*
Y144156D01*
X366794Y143490D01*
X370126Y140157D02*
X371459D01*
X370793D01*
Y144156D01*
X370126Y143490D01*
X373459Y140824D02*
X374125Y140157D01*
X375458D01*
X376124Y140824D01*
Y143490D01*
X375458Y144156D01*
X374125D01*
X373459Y143490D01*
Y142823D01*
X374125Y142157D01*
X376124D01*
X300605Y164083D02*
X299938Y163417D01*
Y162084D01*
X300605Y161417D01*
X303271D01*
X303937Y162084D01*
Y163417D01*
X303271Y164083D01*
X303937Y165416D02*
Y166749D01*
Y166083D01*
X299938D01*
X300605Y165416D01*
X303937Y171414D02*
Y168748D01*
X301271Y171414D01*
X300605D01*
X299938Y170748D01*
Y169415D01*
X300605Y168748D01*
Y172747D02*
X299938Y173413D01*
Y174746D01*
X300605Y175413D01*
X303271D01*
X303937Y174746D01*
Y173413D01*
X303271Y172747D01*
X300605D01*
X292731Y164083D02*
X292064Y163417D01*
Y162084D01*
X292731Y161417D01*
X295396D01*
X296063Y162084D01*
Y163417D01*
X295396Y164083D01*
X296063Y165416D02*
Y166749D01*
Y166083D01*
X292064D01*
X292731Y165416D01*
X296063Y171414D02*
Y168748D01*
X293397Y171414D01*
X292731D01*
X292064Y170748D01*
Y169415D01*
X292731Y168748D01*
X296063Y172747D02*
Y174080D01*
Y173413D01*
X292064D01*
X292731Y172747D01*
X351682Y76364D02*
X351015Y77030D01*
X349682D01*
X349016Y76364D01*
Y73698D01*
X349682Y73032D01*
X351015D01*
X351682Y73698D01*
X353014Y73032D02*
X354347D01*
X353681D01*
Y77030D01*
X353014Y76364D01*
X359013Y73032D02*
X356347D01*
X359013Y75697D01*
Y76364D01*
X358346Y77030D01*
X357013D01*
X356347Y76364D01*
X363011Y73032D02*
X360345D01*
X363011Y75697D01*
Y76364D01*
X362345Y77030D01*
X361012D01*
X360345Y76364D01*
X261432Y203453D02*
X260765Y202787D01*
Y201454D01*
X261432Y200787D01*
X264097D01*
X264764Y201454D01*
Y202787D01*
X264097Y203453D01*
X264764Y204786D02*
Y206119D01*
Y205453D01*
X260765D01*
X261432Y204786D01*
X264764Y210784D02*
Y208118D01*
X262098Y210784D01*
X261432D01*
X260765Y210118D01*
Y208785D01*
X261432Y208118D01*
X264764Y214116D02*
X260765D01*
X262764Y212117D01*
Y214783D01*
X89378Y230006D02*
X88712Y230672D01*
X87379D01*
X86713Y230006D01*
Y227340D01*
X87379Y226673D01*
X88712D01*
X89378Y227340D01*
X93377Y226673D02*
X90711D01*
X93377Y229339D01*
Y230006D01*
X92711Y230672D01*
X91378D01*
X90711Y230006D01*
X94710D02*
X95376Y230672D01*
X96709D01*
X97376Y230006D01*
Y227340D01*
X96709Y226673D01*
X95376D01*
X94710Y227340D01*
Y230006D01*
X98709D02*
X99375Y230672D01*
X100708D01*
X101374Y230006D01*
Y227340D01*
X100708Y226673D01*
X99375D01*
X98709Y227340D01*
Y230006D01*
X41353Y246268D02*
X40686Y245602D01*
Y244269D01*
X41353Y243602D01*
X44019D01*
X44685Y244269D01*
Y245602D01*
X44019Y246268D01*
X44685Y250267D02*
Y247601D01*
X42019Y250267D01*
X41353D01*
X40686Y249600D01*
Y248268D01*
X41353Y247601D01*
Y251600D02*
X40686Y252266D01*
Y253599D01*
X41353Y254266D01*
X44019D01*
X44685Y253599D01*
Y252266D01*
X44019Y251600D01*
X41353D01*
X44685Y255598D02*
Y256931D01*
Y256265D01*
X40686D01*
X41353Y255598D01*
Y229831D02*
X40686Y229165D01*
Y227832D01*
X41353Y227165D01*
X44019D01*
X44685Y227832D01*
Y229165D01*
X44019Y229831D01*
X44685Y233830D02*
Y231164D01*
X42019Y233830D01*
X41353D01*
X40686Y233163D01*
Y231831D01*
X41353Y231164D01*
Y235163D02*
X40686Y235829D01*
Y237162D01*
X41353Y237829D01*
X44019D01*
X44685Y237162D01*
Y235829D01*
X44019Y235163D01*
X41353D01*
X44685Y241827D02*
Y239161D01*
X42019Y241827D01*
X41353D01*
X40686Y241161D01*
Y239828D01*
X41353Y239161D01*
Y213296D02*
X40686Y212629D01*
Y211296D01*
X41353Y210630D01*
X44019D01*
X44685Y211296D01*
Y212629D01*
X44019Y213296D01*
X44685Y217294D02*
Y214629D01*
X42019Y217294D01*
X41353D01*
X40686Y216628D01*
Y215295D01*
X41353Y214629D01*
Y218627D02*
X40686Y219294D01*
Y220627D01*
X41353Y221293D01*
X44019D01*
X44685Y220627D01*
Y219294D01*
X44019Y218627D01*
X41353D01*
Y222626D02*
X40686Y223292D01*
Y224625D01*
X41353Y225292D01*
X42019D01*
X42686Y224625D01*
Y223959D01*
Y224625D01*
X43352Y225292D01*
X44019D01*
X44685Y224625D01*
Y223292D01*
X44019Y222626D01*
X132888Y211721D02*
X132222Y211054D01*
Y209722D01*
X132888Y209055D01*
X135554D01*
X136221Y209722D01*
Y211054D01*
X135554Y211721D01*
X136221Y215720D02*
Y213054D01*
X133555Y215720D01*
X132888D01*
X132222Y215053D01*
Y213720D01*
X132888Y213054D01*
Y217053D02*
X132222Y217719D01*
Y219052D01*
X132888Y219718D01*
X135554D01*
X136221Y219052D01*
Y217719D01*
X135554Y217053D01*
X132888D01*
X136221Y223051D02*
X132222D01*
X134221Y221051D01*
Y223717D01*
X123439Y168414D02*
X122773Y167747D01*
Y166414D01*
X123439Y165748D01*
X126105D01*
X126772Y166414D01*
Y167747D01*
X126105Y168414D01*
X126772Y172413D02*
Y169747D01*
X124106Y172413D01*
X123439D01*
X122773Y171746D01*
Y170413D01*
X123439Y169747D01*
Y173746D02*
X122773Y174412D01*
Y175745D01*
X123439Y176411D01*
X126105D01*
X126772Y175745D01*
Y174412D01*
X126105Y173746D01*
X123439D01*
X122773Y180410D02*
Y177744D01*
X124772D01*
X124106Y179077D01*
Y179744D01*
X124772Y180410D01*
X126105D01*
X126772Y179744D01*
Y178411D01*
X126105Y177744D01*
X130920Y168414D02*
X130253Y167747D01*
Y166414D01*
X130920Y165748D01*
X133586D01*
X134252Y166414D01*
Y167747D01*
X133586Y168414D01*
X134252Y172413D02*
Y169747D01*
X131586Y172413D01*
X130920D01*
X130253Y171746D01*
Y170413D01*
X130920Y169747D01*
Y173746D02*
X130253Y174412D01*
Y175745D01*
X130920Y176411D01*
X133586D01*
X134252Y175745D01*
Y174412D01*
X133586Y173746D01*
X130920D01*
X130253Y180410D02*
X130920Y179077D01*
X132253Y177744D01*
X133586D01*
X134252Y178411D01*
Y179744D01*
X133586Y180410D01*
X132919D01*
X132253Y179744D01*
Y177744D01*
X200500Y180006D02*
X199834Y180672D01*
X198501D01*
X197835Y180006D01*
Y177340D01*
X198501Y176673D01*
X199834D01*
X200500Y177340D01*
X201833Y180006D02*
X202500Y180672D01*
X203833D01*
X204499Y180006D01*
Y179339D01*
X203833Y178673D01*
X203166D01*
X203833D01*
X204499Y178006D01*
Y177340D01*
X203833Y176673D01*
X202500D01*
X201833Y177340D01*
X205832Y180006D02*
X206499Y180672D01*
X207831D01*
X208498Y180006D01*
Y177340D01*
X207831Y176673D01*
X206499D01*
X205832Y177340D01*
Y180006D01*
X209831D02*
X210497Y180672D01*
X211830D01*
X212497Y180006D01*
Y177340D01*
X211830Y176673D01*
X210497D01*
X209831Y177340D01*
Y180006D01*
X200500Y195458D02*
X199834Y196125D01*
X198501D01*
X197835Y195458D01*
Y192792D01*
X198501Y192126D01*
X199834D01*
X200500Y192792D01*
X201833Y195458D02*
X202500Y196125D01*
X203833D01*
X204499Y195458D01*
Y194792D01*
X203833Y194125D01*
X203166D01*
X203833D01*
X204499Y193459D01*
Y192792D01*
X203833Y192126D01*
X202500D01*
X201833Y192792D01*
X205832Y195458D02*
X206499Y196125D01*
X207831D01*
X208498Y195458D01*
Y192792D01*
X207831Y192126D01*
X206499D01*
X205832Y192792D01*
Y195458D01*
X209831Y192126D02*
X211164D01*
X210497D01*
Y196125D01*
X209831Y195458D01*
X220093Y174516D02*
X219426Y173850D01*
Y172517D01*
X220093Y171850D01*
X222759D01*
X223425Y172517D01*
Y173850D01*
X222759Y174516D01*
X220093Y175849D02*
X219426Y176516D01*
Y177848D01*
X220093Y178515D01*
X220759D01*
X221426Y177848D01*
Y177182D01*
Y177848D01*
X222092Y178515D01*
X222759D01*
X223425Y177848D01*
Y176516D01*
X222759Y175849D01*
X220093Y179848D02*
X219426Y180514D01*
Y181847D01*
X220093Y182514D01*
X222759D01*
X223425Y181847D01*
Y180514D01*
X222759Y179848D01*
X220093D01*
X223425Y186512D02*
Y183846D01*
X220759Y186512D01*
X220093D01*
X219426Y185846D01*
Y184513D01*
X220093Y183846D01*
X63400Y155815D02*
X62734Y155149D01*
Y153816D01*
X63400Y153150D01*
X66066D01*
X66732Y153816D01*
Y155149D01*
X66066Y155815D01*
X63400Y157148D02*
X62734Y157815D01*
Y159148D01*
X63400Y159814D01*
X64066D01*
X64733Y159148D01*
Y158481D01*
Y159148D01*
X65399Y159814D01*
X66066D01*
X66732Y159148D01*
Y157815D01*
X66066Y157148D01*
X63400Y161147D02*
X62734Y161813D01*
Y163146D01*
X63400Y163813D01*
X66066D01*
X66732Y163146D01*
Y161813D01*
X66066Y161147D01*
X63400D01*
Y165146D02*
X62734Y165812D01*
Y167145D01*
X63400Y167812D01*
X64066D01*
X64733Y167145D01*
Y166479D01*
Y167145D01*
X65399Y167812D01*
X66066D01*
X66732Y167145D01*
Y165812D01*
X66066Y165146D01*
X401977Y112978D02*
X401310Y113644D01*
X399977D01*
X399311Y112978D01*
Y110312D01*
X399977Y109646D01*
X401310D01*
X401977Y110312D01*
X403310Y112978D02*
X403976Y113644D01*
X405309D01*
X405975Y112978D01*
Y112311D01*
X405309Y111645D01*
X404643D01*
X405309D01*
X405975Y110979D01*
Y110312D01*
X405309Y109646D01*
X403976D01*
X403310Y110312D01*
X407308Y112978D02*
X407975Y113644D01*
X409308D01*
X409974Y112978D01*
Y110312D01*
X409308Y109646D01*
X407975D01*
X407308Y110312D01*
Y112978D01*
X413307Y109646D02*
Y113644D01*
X411307Y111645D01*
X413973D01*
X384556Y112978D02*
X383889Y113644D01*
X382556D01*
X381890Y112978D01*
Y110312D01*
X382556Y109646D01*
X383889D01*
X384556Y110312D01*
X385889Y112978D02*
X386555Y113644D01*
X387888D01*
X388554Y112978D01*
Y112311D01*
X387888Y111645D01*
X387221D01*
X387888D01*
X388554Y110979D01*
Y110312D01*
X387888Y109646D01*
X386555D01*
X385889Y110312D01*
X389887Y112978D02*
X390554Y113644D01*
X391887D01*
X392553Y112978D01*
Y110312D01*
X391887Y109646D01*
X390554D01*
X389887Y110312D01*
Y112978D01*
X396552Y113644D02*
X393886D01*
Y111645D01*
X395219Y112311D01*
X395885D01*
X396552Y111645D01*
Y110312D01*
X395885Y109646D01*
X394552D01*
X393886Y110312D01*
X218020Y235616D02*
X217354Y236282D01*
X216021D01*
X215354Y235616D01*
Y232950D01*
X216021Y232283D01*
X217354D01*
X218020Y232950D01*
X221352Y232283D02*
Y236282D01*
X219353Y234283D01*
X222019D01*
X223352Y235616D02*
X224018Y236282D01*
X225351D01*
X226017Y235616D01*
Y232950D01*
X225351Y232283D01*
X224018D01*
X223352Y232950D01*
Y235616D01*
X227350D02*
X228017Y236282D01*
X229350D01*
X230016Y235616D01*
Y232950D01*
X229350Y232283D01*
X228017D01*
X227350Y232950D01*
Y235616D01*
X282390Y228332D02*
X281724Y228999D01*
X280391D01*
X279724Y228332D01*
Y225666D01*
X280391Y225000D01*
X281724D01*
X282390Y225666D01*
X285722Y225000D02*
Y228999D01*
X283723Y226999D01*
X286389D01*
X287722Y228332D02*
X288388Y228999D01*
X289721D01*
X290388Y228332D01*
Y225666D01*
X289721Y225000D01*
X288388D01*
X287722Y225666D01*
Y228332D01*
X291721Y225000D02*
X293053D01*
X292387D01*
Y228999D01*
X291721Y228332D01*
X282390Y234336D02*
X281724Y235003D01*
X280391D01*
X279724Y234336D01*
Y231670D01*
X280391Y231004D01*
X281724D01*
X282390Y231670D01*
X285722Y231004D02*
Y235003D01*
X283723Y233003D01*
X286389D01*
X287722Y234336D02*
X288388Y235003D01*
X289721D01*
X290388Y234336D01*
Y231670D01*
X289721Y231004D01*
X288388D01*
X287722Y231670D01*
Y234336D01*
X294386Y231004D02*
X291721D01*
X294386Y233670D01*
Y234336D01*
X293720Y235003D01*
X292387D01*
X291721Y234336D01*
X260447Y255028D02*
X259781Y254362D01*
Y253029D01*
X260447Y252362D01*
X263113D01*
X263779Y253029D01*
Y254362D01*
X263113Y255028D01*
X263779Y258360D02*
X259781D01*
X261780Y256361D01*
Y259027D01*
X260447Y260360D02*
X259781Y261026D01*
Y262359D01*
X260447Y263025D01*
X263113D01*
X263779Y262359D01*
Y261026D01*
X263113Y260360D01*
X260447D01*
Y264358D02*
X259781Y265025D01*
Y266358D01*
X260447Y267024D01*
X261114D01*
X261780Y266358D01*
Y265691D01*
Y266358D01*
X262447Y267024D01*
X263113D01*
X263779Y266358D01*
Y265025D01*
X263113Y264358D01*
X241156Y254634D02*
X240490Y253968D01*
Y252635D01*
X241156Y251969D01*
X243822D01*
X244488Y252635D01*
Y253968D01*
X243822Y254634D01*
X244488Y257967D02*
X240490D01*
X242489Y255967D01*
Y258633D01*
X241156Y259966D02*
X240490Y260632D01*
Y261965D01*
X241156Y262632D01*
X243822D01*
X244488Y261965D01*
Y260632D01*
X243822Y259966D01*
X241156D01*
X244488Y265964D02*
X240490D01*
X242489Y263965D01*
Y266630D01*
X324418Y233254D02*
X323751Y233920D01*
X322418D01*
X321752Y233254D01*
Y230588D01*
X322418Y229921D01*
X323751D01*
X324418Y230588D01*
X327750Y229921D02*
Y233920D01*
X325751Y231921D01*
X328416D01*
X329749Y233254D02*
X330416Y233920D01*
X331749D01*
X332415Y233254D01*
Y230588D01*
X331749Y229921D01*
X330416D01*
X329749Y230588D01*
Y233254D01*
X336414Y233920D02*
X333748D01*
Y231921D01*
X335081Y232587D01*
X335747D01*
X336414Y231921D01*
Y230588D01*
X335747Y229921D01*
X334415D01*
X333748Y230588D01*
X314778Y230619D02*
X314111Y229952D01*
Y228619D01*
X314778Y227953D01*
X317444D01*
X318110Y228619D01*
Y229952D01*
X317444Y230619D01*
X318110Y233951D02*
X314111D01*
X316111Y231951D01*
Y234617D01*
X314778Y235950D02*
X314111Y236617D01*
Y237949D01*
X314778Y238616D01*
X317444D01*
X318110Y237949D01*
Y236617D01*
X317444Y235950D01*
X314778D01*
X314111Y242615D02*
X314778Y241282D01*
X316111Y239949D01*
X317444D01*
X318110Y240615D01*
Y241948D01*
X317444Y242615D01*
X316777D01*
X316111Y241948D01*
Y239949D01*
X231800Y222624D02*
X231133Y223290D01*
X229800D01*
X229134Y222624D01*
Y219958D01*
X229800Y219291D01*
X231133D01*
X231800Y219958D01*
X235132Y219291D02*
Y223290D01*
X233133Y221291D01*
X235798D01*
X237131Y222624D02*
X237798Y223290D01*
X239131D01*
X239797Y222624D01*
Y219958D01*
X239131Y219291D01*
X237798D01*
X237131Y219958D01*
Y222624D01*
X241130Y223290D02*
X243796D01*
Y222624D01*
X241130Y219958D01*
Y219291D01*
X289187Y239674D02*
X288521Y239007D01*
Y237674D01*
X289187Y237008D01*
X291853D01*
X292520Y237674D01*
Y239007D01*
X291853Y239674D01*
X292520Y243006D02*
X288521D01*
X290520Y241007D01*
Y243672D01*
X289187Y245005D02*
X288521Y245672D01*
Y247005D01*
X289187Y247671D01*
X291853D01*
X292520Y247005D01*
Y245672D01*
X291853Y245005D01*
X289187D01*
Y249004D02*
X288521Y249670D01*
Y251003D01*
X289187Y251670D01*
X289854D01*
X290520Y251003D01*
X291187Y251670D01*
X291853D01*
X292520Y251003D01*
Y249670D01*
X291853Y249004D01*
X291187D01*
X290520Y249670D01*
X289854Y249004D01*
X289187D01*
X290520Y249670D02*
Y251003D01*
X87902Y140340D02*
X87236Y141007D01*
X85903D01*
X85236Y140340D01*
Y137674D01*
X85903Y137008D01*
X87236D01*
X87902Y137674D01*
X91901Y141007D02*
X89235D01*
Y139007D01*
X90568Y139674D01*
X91234D01*
X91901Y139007D01*
Y137674D01*
X91234Y137008D01*
X89901D01*
X89235Y137674D01*
X93234Y140340D02*
X93900Y141007D01*
X95233D01*
X95899Y140340D01*
Y137674D01*
X95233Y137008D01*
X93900D01*
X93234Y137674D01*
Y140340D01*
X97232D02*
X97899Y141007D01*
X99232D01*
X99898Y140340D01*
Y137674D01*
X99232Y137008D01*
X97899D01*
X97232Y137674D01*
Y140340D01*
X122056D02*
X121389Y141007D01*
X120056D01*
X119390Y140340D01*
Y137674D01*
X120056Y137008D01*
X121389D01*
X122056Y137674D01*
X126054Y141007D02*
X123389D01*
Y139007D01*
X124721Y139674D01*
X125388D01*
X126054Y139007D01*
Y137674D01*
X125388Y137008D01*
X124055D01*
X123389Y137674D01*
X127387Y140340D02*
X128054Y141007D01*
X129386D01*
X130053Y140340D01*
Y137674D01*
X129386Y137008D01*
X128054D01*
X127387Y137674D01*
Y140340D01*
X131386Y137008D02*
X132719D01*
X132052D01*
Y141007D01*
X131386Y140340D01*
X138985Y140439D02*
X138318Y141105D01*
X136985D01*
X136319Y140439D01*
Y137773D01*
X136985Y137106D01*
X138318D01*
X138985Y137773D01*
X142983Y141105D02*
X140318D01*
Y139106D01*
X141650Y139772D01*
X142317D01*
X142983Y139106D01*
Y137773D01*
X142317Y137106D01*
X140984D01*
X140318Y137773D01*
X144316Y140439D02*
X144983Y141105D01*
X146316D01*
X146982Y140439D01*
Y137773D01*
X146316Y137106D01*
X144983D01*
X144316Y137773D01*
Y140439D01*
X150981Y137106D02*
X148315D01*
X150981Y139772D01*
Y140439D01*
X150314Y141105D01*
X148981D01*
X148315Y140439D01*
X157390Y140340D02*
X156724Y141007D01*
X155391D01*
X154724Y140340D01*
Y137674D01*
X155391Y137008D01*
X156724D01*
X157390Y137674D01*
X161389Y141007D02*
X158723D01*
Y139007D01*
X160056Y139674D01*
X160722D01*
X161389Y139007D01*
Y137674D01*
X160722Y137008D01*
X159390D01*
X158723Y137674D01*
X162722Y140340D02*
X163388Y141007D01*
X164721D01*
X165388Y140340D01*
Y137674D01*
X164721Y137008D01*
X163388D01*
X162722Y137674D01*
Y140340D01*
X166720D02*
X167387Y141007D01*
X168720D01*
X169386Y140340D01*
Y139674D01*
X168720Y139007D01*
X168053D01*
X168720D01*
X169386Y138341D01*
Y137674D01*
X168720Y137008D01*
X167387D01*
X166720Y137674D01*
X87508Y61108D02*
X86842Y61774D01*
X85509D01*
X84842Y61108D01*
Y58442D01*
X85509Y57776D01*
X86842D01*
X87508Y58442D01*
X91507Y61774D02*
X88841D01*
Y59775D01*
X90174Y60441D01*
X90841D01*
X91507Y59775D01*
Y58442D01*
X90841Y57776D01*
X89508D01*
X88841Y58442D01*
X92840Y61108D02*
X93506Y61774D01*
X94839D01*
X95506Y61108D01*
Y58442D01*
X94839Y57776D01*
X93506D01*
X92840Y58442D01*
Y61108D01*
X98838Y57776D02*
Y61774D01*
X96839Y59775D01*
X99504D01*
X120776Y61108D02*
X120110Y61774D01*
X118777D01*
X118110Y61108D01*
Y58442D01*
X118777Y57776D01*
X120110D01*
X120776Y58442D01*
X124775Y61774D02*
X122109D01*
Y59775D01*
X123442Y60441D01*
X124108D01*
X124775Y59775D01*
Y58442D01*
X124108Y57776D01*
X122775D01*
X122109Y58442D01*
X126108Y61108D02*
X126774Y61774D01*
X128107D01*
X128773Y61108D01*
Y58442D01*
X128107Y57776D01*
X126774D01*
X126108Y58442D01*
Y61108D01*
X132772Y61774D02*
X130106D01*
Y59775D01*
X131439Y60441D01*
X132106D01*
X132772Y59775D01*
Y58442D01*
X132106Y57776D01*
X130773D01*
X130106Y58442D01*
X139674Y61108D02*
X139007Y61774D01*
X137674D01*
X137008Y61108D01*
Y58442D01*
X137674Y57776D01*
X139007D01*
X139674Y58442D01*
X143672Y61774D02*
X141007D01*
Y59775D01*
X142340Y60441D01*
X143006D01*
X143672Y59775D01*
Y58442D01*
X143006Y57776D01*
X141673D01*
X141007Y58442D01*
X145005Y61108D02*
X145672Y61774D01*
X147005D01*
X147671Y61108D01*
Y58442D01*
X147005Y57776D01*
X145672D01*
X145005Y58442D01*
Y61108D01*
X151670Y61774D02*
X150337Y61108D01*
X149004Y59775D01*
Y58442D01*
X149671Y57776D01*
X151003D01*
X151670Y58442D01*
Y59109D01*
X151003Y59775D01*
X149004D01*
X157193Y61108D02*
X156527Y61774D01*
X155194D01*
X154528Y61108D01*
Y58442D01*
X155194Y57776D01*
X156527D01*
X157193Y58442D01*
X161192Y61774D02*
X158526D01*
Y59775D01*
X159859Y60441D01*
X160526D01*
X161192Y59775D01*
Y58442D01*
X160526Y57776D01*
X159193D01*
X158526Y58442D01*
X162525Y61108D02*
X163191Y61774D01*
X164524D01*
X165191Y61108D01*
Y58442D01*
X164524Y57776D01*
X163191D01*
X162525Y58442D01*
Y61108D01*
X166524Y61774D02*
X169190D01*
Y61108D01*
X166524Y58442D01*
Y57776D01*
X364575Y238765D02*
X363909Y239432D01*
X362576D01*
X361910Y238765D01*
Y236100D01*
X362576Y235433D01*
X363909D01*
X364575Y236100D01*
X365908Y239432D02*
X368574D01*
Y238765D01*
X365908Y236100D01*
Y235433D01*
X369907Y238765D02*
X370573Y239432D01*
X371906D01*
X372573Y238765D01*
Y236100D01*
X371906Y235433D01*
X370573D01*
X369907Y236100D01*
Y238765D01*
X373906D02*
X374572Y239432D01*
X375905D01*
X376571Y238765D01*
Y236100D01*
X375905Y235433D01*
X374572D01*
X373906Y236100D01*
Y238765D01*
X380428Y173138D02*
X379761Y172472D01*
Y171139D01*
X380428Y170472D01*
X383093D01*
X383760Y171139D01*
Y172472D01*
X383093Y173138D01*
X379761Y174471D02*
Y177137D01*
X380428D01*
X383093Y174471D01*
X383760D01*
X380428Y178470D02*
X379761Y179136D01*
Y180469D01*
X380428Y181136D01*
X383093D01*
X383760Y180469D01*
Y179136D01*
X383093Y178470D01*
X380428D01*
X383760Y182469D02*
Y183801D01*
Y183135D01*
X379761D01*
X380428Y182469D01*
X387613Y171760D02*
X386946Y171094D01*
Y169761D01*
X387613Y169095D01*
X390278D01*
X390945Y169761D01*
Y171094D01*
X390278Y171760D01*
X386946Y173093D02*
Y175759D01*
X387613D01*
X390278Y173093D01*
X390945D01*
X387613Y177092D02*
X386946Y177758D01*
Y179091D01*
X387613Y179758D01*
X390278D01*
X390945Y179091D01*
Y177758D01*
X390278Y177092D01*
X387613D01*
X390945Y183756D02*
Y181091D01*
X388279Y183756D01*
X387613D01*
X386946Y183090D01*
Y181757D01*
X387613Y181091D01*
X65883Y234252D02*
X69882D01*
Y236251D01*
X69215Y236918D01*
X66550D01*
X65883Y236251D01*
Y234252D01*
X69882Y240916D02*
Y238251D01*
X67216Y240916D01*
X66550D01*
X65883Y240250D01*
Y238917D01*
X66550Y238251D01*
Y242249D02*
X65883Y242916D01*
Y244249D01*
X66550Y244915D01*
X69215D01*
X69882Y244249D01*
Y242916D01*
X69215Y242249D01*
X66550D01*
Y246248D02*
X65883Y246915D01*
Y248247D01*
X66550Y248914D01*
X69215D01*
X69882Y248247D01*
Y246915D01*
X69215Y246248D01*
X66550D01*
X71850Y265810D02*
Y261811D01*
X73850D01*
X74516Y262477D01*
Y265143D01*
X73850Y265810D01*
X71850D01*
X78515Y261811D02*
X75849D01*
X78515Y264477D01*
Y265143D01*
X77849Y265810D01*
X76516D01*
X75849Y265143D01*
X79848D02*
X80514Y265810D01*
X81847D01*
X82514Y265143D01*
Y262477D01*
X81847Y261811D01*
X80514D01*
X79848Y262477D01*
Y265143D01*
X83846Y261811D02*
X85179D01*
X84513D01*
Y265810D01*
X83846Y265143D01*
X65686Y216929D02*
X69685D01*
Y218929D01*
X69019Y219595D01*
X66353D01*
X65686Y218929D01*
Y216929D01*
X69685Y223594D02*
Y220928D01*
X67019Y223594D01*
X66353D01*
X65686Y222927D01*
Y221594D01*
X66353Y220928D01*
Y224926D02*
X65686Y225593D01*
Y226926D01*
X66353Y227592D01*
X69019D01*
X69685Y226926D01*
Y225593D01*
X69019Y224926D01*
X66353D01*
X69685Y231591D02*
Y228925D01*
X67019Y231591D01*
X66353D01*
X65686Y230925D01*
Y229592D01*
X66353Y228925D01*
X350492Y63447D02*
Y59449D01*
X352491D01*
X353158Y60115D01*
Y62781D01*
X352491Y63447D01*
X350492D01*
X354491Y62781D02*
X355157Y63447D01*
X356490D01*
X357157Y62781D01*
Y62115D01*
X356490Y61448D01*
X355824D01*
X356490D01*
X357157Y60782D01*
Y60115D01*
X356490Y59449D01*
X355157D01*
X354491Y60115D01*
X358490Y62781D02*
X359156Y63447D01*
X360489D01*
X361155Y62781D01*
Y60115D01*
X360489Y59449D01*
X359156D01*
X358490Y60115D01*
Y62781D01*
X362488Y59449D02*
X363821D01*
X363155D01*
Y63447D01*
X362488Y62781D01*
X404921Y107542D02*
Y103543D01*
X406921D01*
X407587Y104210D01*
Y106876D01*
X406921Y107542D01*
X404921D01*
X408920Y106876D02*
X409586Y107542D01*
X410919D01*
X411586Y106876D01*
Y106209D01*
X410919Y105543D01*
X410253D01*
X410919D01*
X411586Y104876D01*
Y104210D01*
X410919Y103543D01*
X409586D01*
X408920Y104210D01*
X412919Y106876D02*
X413585Y107542D01*
X414918D01*
X415585Y106876D01*
Y104210D01*
X414918Y103543D01*
X413585D01*
X412919Y104210D01*
Y106876D01*
X416917D02*
X417584Y107542D01*
X418917D01*
X419583Y106876D01*
Y104210D01*
X418917Y103543D01*
X417584D01*
X416917Y104210D01*
Y106876D01*
X404921Y101440D02*
Y97441D01*
X406921D01*
X407587Y98107D01*
Y100773D01*
X406921Y101440D01*
X404921D01*
X408920Y100773D02*
X409586Y101440D01*
X410919D01*
X411586Y100773D01*
Y100107D01*
X410919Y99440D01*
X410253D01*
X410919D01*
X411586Y98774D01*
Y98107D01*
X410919Y97441D01*
X409586D01*
X408920Y98107D01*
X412919Y100773D02*
X413585Y101440D01*
X414918D01*
X415585Y100773D01*
Y98107D01*
X414918Y97441D01*
X413585D01*
X412919Y98107D01*
Y100773D01*
X419583Y101440D02*
X416917D01*
Y99440D01*
X418250Y100107D01*
X418917D01*
X419583Y99440D01*
Y98107D01*
X418917Y97441D01*
X417584D01*
X416917Y98107D01*
X41277Y13493D02*
Y12160D01*
Y12826D01*
X44609D01*
X45276Y12160D01*
Y11493D01*
X44609Y10827D01*
X45276Y14826D02*
Y16158D01*
Y15492D01*
X41277D01*
X41943Y14826D01*
Y18158D02*
X41277Y18824D01*
Y20157D01*
X41943Y20823D01*
X44609D01*
X45276Y20157D01*
Y18824D01*
X44609Y18158D01*
X41943D01*
Y22156D02*
X41277Y22823D01*
Y24156D01*
X41943Y24822D01*
X44609D01*
X45276Y24156D01*
Y22823D01*
X44609Y22156D01*
X41943D01*
X283698Y194103D02*
Y192770D01*
Y193436D01*
X287030D01*
X287697Y192770D01*
Y192104D01*
X287030Y191437D01*
X287697Y195436D02*
Y196769D01*
Y196102D01*
X283698D01*
X284365Y195436D01*
Y198768D02*
X283698Y199434D01*
Y200767D01*
X284365Y201434D01*
X287030D01*
X287697Y200767D01*
Y199434D01*
X287030Y198768D01*
X284365D01*
Y202767D02*
X283698Y203433D01*
Y204766D01*
X284365Y205433D01*
X285031D01*
X285698Y204766D01*
Y204100D01*
Y204766D01*
X286364Y205433D01*
X287030D01*
X287697Y204766D01*
Y203433D01*
X287030Y202767D01*
X125135Y254634D02*
Y253301D01*
Y253968D01*
X128467D01*
X129134Y253301D01*
Y252635D01*
X128467Y251969D01*
X129134Y258633D02*
Y255967D01*
X126468Y258633D01*
X125802D01*
X125135Y257967D01*
Y256634D01*
X125802Y255967D01*
Y259966D02*
X125135Y260632D01*
Y261965D01*
X125802Y262632D01*
X128467D01*
X129134Y261965D01*
Y260632D01*
X128467Y259966D01*
X125802D01*
Y263965D02*
X125135Y264631D01*
Y265964D01*
X125802Y266630D01*
X128467D01*
X129134Y265964D01*
Y264631D01*
X128467Y263965D01*
X125802D01*
X531209Y149668D02*
X529876D01*
X530543D01*
Y146336D01*
X529876Y145669D01*
X529210D01*
X528543Y146336D01*
X532542Y149668D02*
X535208D01*
Y149002D01*
X532542Y146336D01*
Y145669D01*
X536541Y149002D02*
X537207Y149668D01*
X538540D01*
X539207Y149002D01*
Y146336D01*
X538540Y145669D01*
X537207D01*
X536541Y146336D01*
Y149002D01*
X540539D02*
X541206Y149668D01*
X542539D01*
X543205Y149002D01*
Y146336D01*
X542539Y145669D01*
X541206D01*
X540539Y146336D01*
Y149002D01*
X71850Y259904D02*
Y255906D01*
X74516D01*
X78515D02*
X75849D01*
X78515Y258571D01*
Y259238D01*
X77849Y259904D01*
X76516D01*
X75849Y259238D01*
X79848D02*
X80514Y259904D01*
X81847D01*
X82514Y259238D01*
Y256572D01*
X81847Y255906D01*
X80514D01*
X79848Y256572D01*
Y259238D01*
X83846D02*
X84513Y259904D01*
X85846D01*
X86512Y259238D01*
Y256572D01*
X85846Y255906D01*
X84513D01*
X83846Y256572D01*
Y259238D01*
X207025Y241732D02*
X211024D01*
Y244398D01*
Y247730D02*
X207025D01*
X209024Y245731D01*
Y248397D01*
X207691Y249730D02*
X207025Y250396D01*
Y251729D01*
X207691Y252396D01*
X210357D01*
X211024Y251729D01*
Y250396D01*
X210357Y249730D01*
X207691D01*
Y253728D02*
X207025Y254395D01*
Y255728D01*
X207691Y256394D01*
X210357D01*
X211024Y255728D01*
Y254395D01*
X210357Y253728D01*
X207691D01*
X10827Y34449D02*
Y38447D01*
X12160Y37115D01*
X13493Y38447D01*
Y34449D01*
X14826Y38447D02*
X17491D01*
X16158D01*
Y34449D01*
X21490Y37781D02*
X20823Y38447D01*
X19491D01*
X18824Y37781D01*
Y35115D01*
X19491Y34449D01*
X20823D01*
X21490Y35115D01*
Y36448D01*
X20157D01*
X22823Y38447D02*
Y34449D01*
Y36448D01*
X25489D01*
Y38447D01*
Y34449D01*
X26822D02*
X28155D01*
X27488D01*
Y38447D01*
X26822Y37781D01*
X38583Y246850D02*
X34584D01*
X35917Y248183D01*
X34584Y249516D01*
X38583D01*
X34584Y250849D02*
Y253515D01*
Y252182D01*
X38583D01*
X35250Y257514D02*
X34584Y256847D01*
Y255514D01*
X35250Y254848D01*
X37916D01*
X38583Y255514D01*
Y256847D01*
X37916Y257514D01*
X36583D01*
Y256181D01*
X34584Y258846D02*
X38583D01*
X36583D01*
Y261512D01*
X34584D01*
X38583D01*
Y265511D02*
Y262845D01*
X35917Y265511D01*
X35250D01*
X34584Y264845D01*
Y263512D01*
X35250Y262845D01*
X516732Y247047D02*
X512734D01*
X514067Y248380D01*
X512734Y249713D01*
X516732D01*
X512734Y251046D02*
Y253712D01*
Y252379D01*
X516732D01*
X513400Y257711D02*
X512734Y257044D01*
Y255711D01*
X513400Y255045D01*
X516066D01*
X516732Y255711D01*
Y257044D01*
X516066Y257711D01*
X514733D01*
Y256378D01*
X512734Y259043D02*
X516732D01*
X514733D01*
Y261709D01*
X512734D01*
X516732D01*
X513400Y263042D02*
X512734Y263708D01*
Y265041D01*
X513400Y265708D01*
X514067D01*
X514733Y265041D01*
Y264375D01*
Y265041D01*
X515399Y265708D01*
X516066D01*
X516732Y265041D01*
Y263708D01*
X516066Y263042D01*
X378740Y10630D02*
X374741D01*
X376074Y11963D01*
X374741Y13296D01*
X378740D01*
X374741Y14629D02*
Y17294D01*
Y15961D01*
X378740D01*
X375408Y21293D02*
X374741Y20627D01*
Y19294D01*
X375408Y18627D01*
X378074D01*
X378740Y19294D01*
Y20627D01*
X378074Y21293D01*
X376741D01*
Y19960D01*
X374741Y22626D02*
X378740D01*
X376741D01*
Y25292D01*
X374741D01*
X378740D01*
Y28624D02*
X374741D01*
X376741Y26625D01*
Y29291D01*
X349516Y253816D02*
Y256482D01*
X348850Y257148D01*
X347517D01*
X346850Y256482D01*
Y253816D01*
X347517Y253150D01*
X348850D01*
X348183Y254483D02*
X349516Y253150D01*
X348850D02*
X349516Y253816D01*
X350849Y257148D02*
X353515D01*
Y256482D01*
X350849Y253816D01*
Y253150D01*
X354848Y256482D02*
X355514Y257148D01*
X356847D01*
X357514Y256482D01*
Y253816D01*
X356847Y253150D01*
X355514D01*
X354848Y253816D01*
Y256482D01*
X358846D02*
X359513Y257148D01*
X360846D01*
X361512Y256482D01*
Y253816D01*
X360846Y253150D01*
X359513D01*
X358846Y253816D01*
Y256482D01*
X349516Y248304D02*
Y250970D01*
X348850Y251637D01*
X347517D01*
X346850Y250970D01*
Y248304D01*
X347517Y247638D01*
X348850D01*
X348183Y248971D02*
X349516Y247638D01*
X348850D02*
X349516Y248304D01*
X350849Y251637D02*
X353515D01*
Y250970D01*
X350849Y248304D01*
Y247638D01*
X354848Y250970D02*
X355514Y251637D01*
X356847D01*
X357514Y250970D01*
Y248304D01*
X356847Y247638D01*
X355514D01*
X354848Y248304D01*
Y250970D01*
X358846Y247638D02*
X360179D01*
X359513D01*
Y251637D01*
X358846Y250970D01*
X57480Y21260D02*
X53482D01*
Y23259D01*
X54148Y23926D01*
X55481D01*
X56147Y23259D01*
Y21260D01*
Y22593D02*
X57480Y23926D01*
Y25258D02*
Y26591D01*
Y25925D01*
X53482D01*
X54148Y25258D01*
Y28591D02*
X53482Y29257D01*
Y30590D01*
X54148Y31257D01*
X56814D01*
X57480Y30590D01*
Y29257D01*
X56814Y28591D01*
X54148D01*
X57480Y32590D02*
Y33922D01*
Y33256D01*
X53482D01*
X54148Y32590D01*
X81102Y21260D02*
X77104D01*
Y23259D01*
X77770Y23926D01*
X79103D01*
X79769Y23259D01*
Y21260D01*
Y22593D02*
X81102Y23926D01*
Y25258D02*
Y26591D01*
Y25925D01*
X77104D01*
X77770Y25258D01*
Y28591D02*
X77104Y29257D01*
Y30590D01*
X77770Y31257D01*
X80436D01*
X81102Y30590D01*
Y29257D01*
X80436Y28591D01*
X77770D01*
X81102Y35255D02*
Y32590D01*
X78437Y35255D01*
X77770D01*
X77104Y34589D01*
Y33256D01*
X77770Y32590D01*
X210138Y56004D02*
X206139D01*
Y58003D01*
X206805Y58670D01*
X208138D01*
X208805Y58003D01*
Y56004D01*
Y57337D02*
X210138Y58670D01*
Y60003D02*
Y61336D01*
Y60669D01*
X206139D01*
X206805Y60003D01*
Y63335D02*
X206139Y64001D01*
Y65334D01*
X206805Y66001D01*
X209471D01*
X210138Y65334D01*
Y64001D01*
X209471Y63335D01*
X206805D01*
Y67334D02*
X206139Y68000D01*
Y69333D01*
X206805Y69999D01*
X207472D01*
X208138Y69333D01*
Y68666D01*
Y69333D01*
X208805Y69999D01*
X209471D01*
X210138Y69333D01*
Y68000D01*
X209471Y67334D01*
X280512Y201772D02*
X276513D01*
Y203771D01*
X277180Y204437D01*
X278513D01*
X279179Y203771D01*
Y201772D01*
Y203104D02*
X280512Y204437D01*
Y205770D02*
Y207103D01*
Y206437D01*
X276513D01*
X277180Y205770D01*
Y209103D02*
X276513Y209769D01*
Y211102D01*
X277180Y211768D01*
X279845D01*
X280512Y211102D01*
Y209769D01*
X279845Y209103D01*
X277180D01*
X276513Y215767D02*
X277180Y214434D01*
X278513Y213101D01*
X279845D01*
X280512Y213768D01*
Y215101D01*
X279845Y215767D01*
X279179D01*
X278513Y215101D01*
Y213101D01*
X272638Y201772D02*
X268639D01*
Y203771D01*
X269305Y204437D01*
X270638D01*
X271305Y203771D01*
Y201772D01*
Y203105D02*
X272638Y204437D01*
Y205770D02*
Y207103D01*
Y206437D01*
X268639D01*
X269305Y205770D01*
Y209103D02*
X268639Y209769D01*
Y211102D01*
X269305Y211768D01*
X271971D01*
X272638Y211102D01*
Y209769D01*
X271971Y209103D01*
X269305D01*
X268639Y213101D02*
Y215767D01*
X269305D01*
X271971Y213101D01*
X272638D01*
X322638Y161516D02*
X318639D01*
Y163515D01*
X319305Y164181D01*
X320638D01*
X321305Y163515D01*
Y161516D01*
Y162849D02*
X322638Y164181D01*
Y165514D02*
Y166847D01*
Y166181D01*
X318639D01*
X319305Y165514D01*
Y168847D02*
X318639Y169513D01*
Y170846D01*
X319305Y171512D01*
X321971D01*
X322638Y170846D01*
Y169513D01*
X321971Y168847D01*
X319305D01*
X321971Y172845D02*
X322638Y173512D01*
Y174845D01*
X321971Y175511D01*
X319305D01*
X318639Y174845D01*
Y173512D01*
X319305Y172845D01*
X319972D01*
X320638Y173512D01*
Y175511D01*
X128740Y229528D02*
X124741D01*
Y231527D01*
X125408Y232193D01*
X126741D01*
X127407Y231527D01*
Y229528D01*
Y230860D02*
X128740Y232193D01*
Y236192D02*
Y233526D01*
X126074Y236192D01*
X125408D01*
X124741Y235526D01*
Y234193D01*
X125408Y233526D01*
Y237525D02*
X124741Y238191D01*
Y239524D01*
X125408Y240191D01*
X128074D01*
X128740Y239524D01*
Y238191D01*
X128074Y237525D01*
X125408D01*
Y241524D02*
X124741Y242190D01*
Y243523D01*
X125408Y244190D01*
X128074D01*
X128740Y243523D01*
Y242190D01*
X128074Y241524D01*
X125408D01*
X84547Y198524D02*
X80549D01*
Y200523D01*
X81215Y201189D01*
X82548D01*
X83214Y200523D01*
Y198524D01*
Y199856D02*
X84547Y201189D01*
Y205188D02*
Y202522D01*
X81881Y205188D01*
X81215D01*
X80549Y204522D01*
Y203189D01*
X81215Y202522D01*
Y206521D02*
X80549Y207188D01*
Y208520D01*
X81215Y209187D01*
X83881D01*
X84547Y208520D01*
Y207188D01*
X83881Y206521D01*
X81215D01*
X84547Y210520D02*
Y211853D01*
Y211186D01*
X80549D01*
X81215Y210520D01*
X92520Y168504D02*
X88521D01*
Y170503D01*
X89187Y171170D01*
X90520D01*
X91187Y170503D01*
Y168504D01*
Y169837D02*
X92520Y171170D01*
Y175168D02*
Y172503D01*
X89854Y175168D01*
X89187D01*
X88521Y174502D01*
Y173169D01*
X89187Y172503D01*
Y176501D02*
X88521Y177168D01*
Y178501D01*
X89187Y179167D01*
X91853D01*
X92520Y178501D01*
Y177168D01*
X91853Y176501D01*
X89187D01*
X92520Y183166D02*
Y180500D01*
X89854Y183166D01*
X89187D01*
X88521Y182499D01*
Y181167D01*
X89187Y180500D01*
X116142Y168504D02*
X112143D01*
Y170503D01*
X112810Y171170D01*
X114142D01*
X114809Y170503D01*
Y168504D01*
Y169837D02*
X116142Y171170D01*
Y175168D02*
Y172503D01*
X113476Y175168D01*
X112810D01*
X112143Y174502D01*
Y173169D01*
X112810Y172503D01*
Y176501D02*
X112143Y177168D01*
Y178501D01*
X112810Y179167D01*
X115475D01*
X116142Y178501D01*
Y177168D01*
X115475Y176501D01*
X112810D01*
Y180500D02*
X112143Y181167D01*
Y182499D01*
X112810Y183166D01*
X113476D01*
X114142Y182499D01*
Y181833D01*
Y182499D01*
X114809Y183166D01*
X115475D01*
X116142Y182499D01*
Y181167D01*
X115475Y180500D01*
X100394Y168504D02*
X96395D01*
Y170503D01*
X97061Y171170D01*
X98394D01*
X99061Y170503D01*
Y168504D01*
Y169837D02*
X100394Y171170D01*
Y175168D02*
Y172503D01*
X97728Y175168D01*
X97061D01*
X96395Y174502D01*
Y173169D01*
X97061Y172503D01*
Y176501D02*
X96395Y177168D01*
Y178501D01*
X97061Y179167D01*
X99727D01*
X100394Y178501D01*
Y177168D01*
X99727Y176501D01*
X97061D01*
X100394Y182499D02*
X96395D01*
X98394Y180500D01*
Y183166D01*
X108661Y168504D02*
X104663D01*
Y170503D01*
X105329Y171170D01*
X106662D01*
X107328Y170503D01*
Y168504D01*
Y169837D02*
X108661Y171170D01*
Y175168D02*
Y172503D01*
X105996Y175168D01*
X105329D01*
X104663Y174502D01*
Y173169D01*
X105329Y172503D01*
Y176501D02*
X104663Y177168D01*
Y178501D01*
X105329Y179167D01*
X107995D01*
X108661Y178501D01*
Y177168D01*
X107995Y176501D01*
X105329D01*
X104663Y180500D02*
Y183166D01*
X105329D01*
X107995Y180500D01*
X108661D01*
X170473Y227953D02*
Y231951D01*
X172472D01*
X173138Y231285D01*
Y229952D01*
X172472Y229286D01*
X170473D01*
X171805D02*
X173138Y227953D01*
X177137D02*
X174471D01*
X177137Y230619D01*
Y231285D01*
X176470Y231951D01*
X175138D01*
X174471Y231285D01*
X178470Y227953D02*
X179803D01*
X179136D01*
Y231951D01*
X178470Y231285D01*
X181802D02*
X182469Y231951D01*
X183801D01*
X184468Y231285D01*
Y228619D01*
X183801Y227953D01*
X182469D01*
X181802Y228619D01*
Y231285D01*
X42913Y138189D02*
Y142188D01*
X44913D01*
X45579Y141521D01*
Y140188D01*
X44913Y139522D01*
X42913D01*
X44246D02*
X45579Y138189D01*
X46912Y141521D02*
X47578Y142188D01*
X48911D01*
X49578Y141521D01*
Y140855D01*
X48911Y140188D01*
X48245D01*
X48911D01*
X49578Y139522D01*
Y138855D01*
X48911Y138189D01*
X47578D01*
X46912Y138855D01*
X50911Y141521D02*
X51577Y142188D01*
X52910D01*
X53577Y141521D01*
Y138855D01*
X52910Y138189D01*
X51577D01*
X50911Y138855D01*
Y141521D01*
X54909D02*
X55576Y142188D01*
X56909D01*
X57575Y141521D01*
Y138855D01*
X56909Y138189D01*
X55576D01*
X54909Y138855D01*
Y141521D01*
X42913Y123622D02*
Y127621D01*
X44913D01*
X45579Y126954D01*
Y125621D01*
X44913Y124955D01*
X42913D01*
X44246D02*
X45579Y123622D01*
X46912Y126954D02*
X47578Y127621D01*
X48911D01*
X49578Y126954D01*
Y126288D01*
X48911Y125621D01*
X48245D01*
X48911D01*
X49578Y124955D01*
Y124288D01*
X48911Y123622D01*
X47578D01*
X46912Y124288D01*
X50911Y126954D02*
X51577Y127621D01*
X52910D01*
X53577Y126954D01*
Y124288D01*
X52910Y123622D01*
X51577D01*
X50911Y124288D01*
Y126954D01*
X54909Y123622D02*
X56242D01*
X55576D01*
Y127621D01*
X54909Y126954D01*
X42913Y108661D02*
Y112660D01*
X44913D01*
X45579Y111994D01*
Y110661D01*
X44913Y109994D01*
X42913D01*
X44246D02*
X45579Y108661D01*
X46912Y111994D02*
X47578Y112660D01*
X48911D01*
X49578Y111994D01*
Y111327D01*
X48911Y110661D01*
X48245D01*
X48911D01*
X49578Y109994D01*
Y109328D01*
X48911Y108661D01*
X47578D01*
X46912Y109328D01*
X50911Y111994D02*
X51577Y112660D01*
X52910D01*
X53577Y111994D01*
Y109328D01*
X52910Y108661D01*
X51577D01*
X50911Y109328D01*
Y111994D01*
X57575Y108661D02*
X54909D01*
X57575Y111327D01*
Y111994D01*
X56909Y112660D01*
X55576D01*
X54909Y111994D01*
X345374Y38780D02*
Y42778D01*
X347373D01*
X348040Y42112D01*
Y40779D01*
X347373Y40112D01*
X345374D01*
X346707D02*
X348040Y38780D01*
X349373Y42112D02*
X350039Y42778D01*
X351372D01*
X352039Y42112D01*
Y41445D01*
X351372Y40779D01*
X350706D01*
X351372D01*
X352039Y40112D01*
Y39446D01*
X351372Y38780D01*
X350039D01*
X349373Y39446D01*
X353371Y42112D02*
X354038Y42778D01*
X355371D01*
X356037Y42112D01*
Y39446D01*
X355371Y38780D01*
X354038D01*
X353371Y39446D01*
Y42112D01*
X359369Y38780D02*
Y42778D01*
X357370Y40779D01*
X360036D01*
X399410Y119980D02*
Y123979D01*
X401409D01*
X402075Y123313D01*
Y121980D01*
X401409Y121313D01*
X399410D01*
X400742D02*
X402075Y119980D01*
X403408Y123313D02*
X404075Y123979D01*
X405407D01*
X406074Y123313D01*
Y122646D01*
X405407Y121980D01*
X404741D01*
X405407D01*
X406074Y121313D01*
Y120647D01*
X405407Y119980D01*
X404075D01*
X403408Y120647D01*
X407407Y123313D02*
X408073Y123979D01*
X409406D01*
X410073Y123313D01*
Y120647D01*
X409406Y119980D01*
X408073D01*
X407407Y120647D01*
Y123313D01*
X411406D02*
X412072Y123979D01*
X413405D01*
X414071Y123313D01*
Y122646D01*
X413405Y121980D01*
X412739D01*
X413405D01*
X414071Y121313D01*
Y120647D01*
X413405Y119980D01*
X412072D01*
X411406Y120647D01*
X381693Y119980D02*
Y123979D01*
X383692D01*
X384359Y123313D01*
Y121980D01*
X383692Y121313D01*
X381693D01*
X383026D02*
X384359Y119980D01*
X385692Y123313D02*
X386358Y123979D01*
X387691D01*
X388357Y123313D01*
Y122646D01*
X387691Y121980D01*
X387024D01*
X387691D01*
X388357Y121313D01*
Y120647D01*
X387691Y119980D01*
X386358D01*
X385692Y120647D01*
X389690Y123313D02*
X390357Y123979D01*
X391690D01*
X392356Y123313D01*
Y120647D01*
X391690Y119980D01*
X390357D01*
X389690Y120647D01*
Y123313D01*
X393689D02*
X394356Y123979D01*
X395688D01*
X396355Y123313D01*
Y122646D01*
X395688Y121980D01*
X396355Y121313D01*
Y120647D01*
X395688Y119980D01*
X394356D01*
X393689Y120647D01*
Y121313D01*
X394356Y121980D01*
X393689Y122646D01*
Y123313D01*
X394356Y121980D02*
X395688D01*
X296850Y229134D02*
Y233133D01*
X298850D01*
X299516Y232466D01*
Y231133D01*
X298850Y230467D01*
X296850D01*
X298183D02*
X299516Y229134D01*
X302849D02*
Y233133D01*
X300849Y231133D01*
X303515D01*
X304848Y232466D02*
X305514Y233133D01*
X306847D01*
X307514Y232466D01*
Y229800D01*
X306847Y229134D01*
X305514D01*
X304848Y229800D01*
Y232466D01*
X308846D02*
X309513Y233133D01*
X310846D01*
X311512Y232466D01*
Y229800D01*
X310846Y229134D01*
X309513D01*
X308846Y229800D01*
Y232466D01*
X271260Y240158D02*
X267261D01*
Y242157D01*
X267928Y242823D01*
X269261D01*
X269927Y242157D01*
Y240158D01*
Y241490D02*
X271260Y242823D01*
Y246156D02*
X267261D01*
X269261Y244156D01*
Y246822D01*
X267928Y248155D02*
X267261Y248821D01*
Y250154D01*
X267928Y250821D01*
X270593D01*
X271260Y250154D01*
Y248821D01*
X270593Y248155D01*
X267928D01*
X271260Y252154D02*
Y253486D01*
Y252820D01*
X267261D01*
X267928Y252154D01*
X278538Y238583D02*
X274539D01*
Y240582D01*
X275206Y241248D01*
X276539D01*
X277205Y240582D01*
Y238583D01*
Y239916D02*
X278538Y241248D01*
Y244581D02*
X274539D01*
X276539Y242581D01*
Y245247D01*
X275206Y246580D02*
X274539Y247247D01*
Y248579D01*
X275206Y249246D01*
X277872D01*
X278538Y248579D01*
Y247247D01*
X277872Y246580D01*
X275206D01*
X278538Y253245D02*
Y250579D01*
X275872Y253245D01*
X275206D01*
X274539Y252578D01*
Y251245D01*
X275206Y250579D01*
X292913Y253150D02*
X288915D01*
Y255149D01*
X289581Y255815D01*
X290914D01*
X291581Y255149D01*
Y253150D01*
Y254483D02*
X292913Y255815D01*
Y259148D02*
X288915D01*
X290914Y257148D01*
Y259814D01*
X289581Y261147D02*
X288915Y261813D01*
Y263146D01*
X289581Y263813D01*
X292247D01*
X292913Y263146D01*
Y261813D01*
X292247Y261147D01*
X289581D01*
X292913Y267145D02*
X288915D01*
X290914Y265146D01*
Y267811D01*
X273622Y218701D02*
Y222699D01*
X275621D01*
X276288Y222033D01*
Y220700D01*
X275621Y220034D01*
X273622D01*
X274955D02*
X276288Y218701D01*
X279620D02*
Y222699D01*
X277621Y220700D01*
X280287D01*
X281620Y222033D02*
X282286Y222699D01*
X283619D01*
X284285Y222033D01*
Y219367D01*
X283619Y218701D01*
X282286D01*
X281620Y219367D01*
Y222033D01*
X288284Y222699D02*
X285618D01*
Y220700D01*
X286951Y221367D01*
X287617D01*
X288284Y220700D01*
Y219367D01*
X287617Y218701D01*
X286285D01*
X285618Y219367D01*
X277165Y162402D02*
X273167D01*
Y164401D01*
X273833Y165067D01*
X275166D01*
X275833Y164401D01*
Y162402D01*
Y163734D02*
X277165Y165067D01*
X273167Y169066D02*
Y166400D01*
X275166D01*
X274500Y167733D01*
Y168400D01*
X275166Y169066D01*
X276499D01*
X277165Y168400D01*
Y167067D01*
X276499Y166400D01*
X273833Y170399D02*
X273167Y171065D01*
Y172398D01*
X273833Y173065D01*
X276499D01*
X277165Y172398D01*
Y171065D01*
X276499Y170399D01*
X273833D01*
X277165Y174398D02*
Y175731D01*
Y175064D01*
X273167D01*
X273833Y174398D01*
X364567Y103937D02*
Y107936D01*
X366566D01*
X367233Y107269D01*
Y105936D01*
X366566Y105270D01*
X364567D01*
X365900D02*
X367233Y103937D01*
X371231Y107936D02*
X368566D01*
Y105936D01*
X369899Y106603D01*
X370565D01*
X371231Y105936D01*
Y104603D01*
X370565Y103937D01*
X369232D01*
X368566Y104603D01*
X372564Y107269D02*
X373231Y107936D01*
X374564D01*
X375230Y107269D01*
Y104603D01*
X374564Y103937D01*
X373231D01*
X372564Y104603D01*
Y107269D01*
X379229Y103937D02*
X376563D01*
X379229Y106603D01*
Y107269D01*
X378562Y107936D01*
X377229D01*
X376563Y107269D01*
X362598Y228740D02*
Y232739D01*
X364598D01*
X365264Y232072D01*
Y230739D01*
X364598Y230073D01*
X362598D01*
X363931D02*
X365264Y228740D01*
X366597Y232739D02*
X369263D01*
Y232072D01*
X366597Y229407D01*
Y228740D01*
X370596Y232072D02*
X371262Y232739D01*
X372595D01*
X373262Y232072D01*
Y229407D01*
X372595Y228740D01*
X371262D01*
X370596Y229407D01*
Y232072D01*
X374594D02*
X375261Y232739D01*
X376594D01*
X377260Y232072D01*
Y229407D01*
X376594Y228740D01*
X375261D01*
X374594Y229407D01*
Y232072D01*
X362598Y221654D02*
Y225652D01*
X364598D01*
X365264Y224986D01*
Y223653D01*
X364598Y222986D01*
X362598D01*
X363931D02*
X365264Y221654D01*
X366597Y225652D02*
X369263D01*
Y224986D01*
X366597Y222320D01*
Y221654D01*
X370596Y224986D02*
X371262Y225652D01*
X372595D01*
X373262Y224986D01*
Y222320D01*
X372595Y221654D01*
X371262D01*
X370596Y222320D01*
Y224986D01*
X374594Y221654D02*
X375927D01*
X375261D01*
Y225652D01*
X374594Y224986D01*
X488189Y198213D02*
Y202212D01*
X490188D01*
X490855Y201545D01*
Y200212D01*
X490188Y199546D01*
X488189D01*
X489522D02*
X490855Y198213D01*
X492188Y202212D02*
X494853D01*
Y201545D01*
X492188Y198879D01*
Y198213D01*
X496186Y201545D02*
X496853Y202212D01*
X498186D01*
X498852Y201545D01*
Y198879D01*
X498186Y198213D01*
X496853D01*
X496186Y198879D01*
Y201545D01*
X502851Y198213D02*
X500185D01*
X502851Y200879D01*
Y201545D01*
X502184Y202212D01*
X500852D01*
X500185Y201545D01*
X488189Y190647D02*
Y194646D01*
X490188D01*
X490855Y193979D01*
Y192646D01*
X490188Y191980D01*
X488189D01*
X489522D02*
X490855Y190647D01*
X492188Y194646D02*
X494853D01*
Y193979D01*
X492188Y191314D01*
Y190647D01*
X496186Y193979D02*
X496853Y194646D01*
X498186D01*
X498852Y193979D01*
Y191314D01*
X498186Y190647D01*
X496853D01*
X496186Y191314D01*
Y193979D01*
X500185D02*
X500852Y194646D01*
X502184D01*
X502851Y193979D01*
Y193313D01*
X502184Y192646D01*
X501518D01*
X502184D01*
X502851Y191980D01*
Y191314D01*
X502184Y190647D01*
X500852D01*
X500185Y191314D01*
X488189Y220558D02*
Y224557D01*
X490188D01*
X490855Y223890D01*
Y222557D01*
X490188Y221891D01*
X488189D01*
X489522D02*
X490855Y220558D01*
X492188Y224557D02*
X494853D01*
Y223890D01*
X492188Y221224D01*
Y220558D01*
X496186Y223890D02*
X496853Y224557D01*
X498186D01*
X498852Y223890D01*
Y221224D01*
X498186Y220558D01*
X496853D01*
X496186Y221224D01*
Y223890D01*
X502184Y220558D02*
Y224557D01*
X500185Y222557D01*
X502851D01*
X488189Y213078D02*
Y217076D01*
X490188D01*
X490855Y216410D01*
Y215077D01*
X490188Y214411D01*
X488189D01*
X489522D02*
X490855Y213078D01*
X492188Y217076D02*
X494853D01*
Y216410D01*
X492188Y213744D01*
Y213078D01*
X496186Y216410D02*
X496853Y217076D01*
X498186D01*
X498852Y216410D01*
Y213744D01*
X498186Y213078D01*
X496853D01*
X496186Y213744D01*
Y216410D01*
X502851Y217076D02*
X500185D01*
Y215077D01*
X501518Y215743D01*
X502184D01*
X502851Y215077D01*
Y213744D01*
X502184Y213078D01*
X500852D01*
X500185Y213744D01*
X362598Y214173D02*
Y218172D01*
X364598D01*
X365264Y217506D01*
Y216173D01*
X364598Y215506D01*
X362598D01*
X363931D02*
X365264Y214173D01*
X366597Y218172D02*
X369263D01*
Y217506D01*
X366597Y214840D01*
Y214173D01*
X370596Y217506D02*
X371262Y218172D01*
X372595D01*
X373262Y217506D01*
Y214840D01*
X372595Y214173D01*
X371262D01*
X370596Y214840D01*
Y217506D01*
X377260Y218172D02*
X375927Y217506D01*
X374594Y216173D01*
Y214840D01*
X375261Y214173D01*
X376594D01*
X377260Y214840D01*
Y215506D01*
X376594Y216173D01*
X374594D01*
X488189Y183560D02*
Y187559D01*
X490188D01*
X490855Y186893D01*
Y185560D01*
X490188Y184893D01*
X488189D01*
X489522D02*
X490855Y183560D01*
X492188Y187559D02*
X494853D01*
Y186893D01*
X492188Y184227D01*
Y183560D01*
X496186Y186893D02*
X496853Y187559D01*
X498186D01*
X498852Y186893D01*
Y184227D01*
X498186Y183560D01*
X496853D01*
X496186Y184227D01*
Y186893D01*
X500185D02*
X500852Y187559D01*
X502184D01*
X502851Y186893D01*
Y186226D01*
X502184Y185560D01*
X502851Y184893D01*
Y184227D01*
X502184Y183560D01*
X500852D01*
X500185Y184227D01*
Y184893D01*
X500852Y185560D01*
X500185Y186226D01*
Y186893D01*
X500852Y185560D02*
X502184D01*
X488189Y227953D02*
Y231951D01*
X490188D01*
X490855Y231285D01*
Y229952D01*
X490188Y229286D01*
X488189D01*
X489522D02*
X490855Y227953D01*
X492188Y231951D02*
X494853D01*
Y231285D01*
X492188Y228619D01*
Y227953D01*
X496186Y231285D02*
X496853Y231951D01*
X498186D01*
X498852Y231285D01*
Y228619D01*
X498186Y227953D01*
X496853D01*
X496186Y228619D01*
Y231285D01*
X500185Y228619D02*
X500852Y227953D01*
X502184D01*
X502851Y228619D01*
Y231285D01*
X502184Y231951D01*
X500852D01*
X500185Y231285D01*
Y230619D01*
X500852Y229952D01*
X502851D01*
X362598Y206693D02*
Y210692D01*
X364598D01*
X365264Y210025D01*
Y208692D01*
X364598Y208026D01*
X362598D01*
X363931D02*
X365264Y206693D01*
X366597Y210692D02*
X369263D01*
Y210025D01*
X366597Y207359D01*
Y206693D01*
X370596D02*
X371929D01*
X371262D01*
Y210692D01*
X370596Y210025D01*
X373928Y206693D02*
X375261D01*
X374594D01*
Y210692D01*
X373928Y210025D01*
X191043Y122638D02*
Y126637D01*
X193043D01*
X193709Y125970D01*
Y124637D01*
X193043Y123971D01*
X191043D01*
X192376D02*
X193709Y122638D01*
X195042D02*
Y126637D01*
X197041D01*
X197708Y125970D01*
Y124637D01*
X197041Y123971D01*
X195042D01*
X196375D02*
X197708Y122638D01*
X201707Y126637D02*
X199041D01*
Y124637D01*
X200374Y125304D01*
X201040D01*
X201707Y124637D01*
Y123304D01*
X201040Y122638D01*
X199707D01*
X199041Y123304D01*
X203039Y125970D02*
X203706Y126637D01*
X205039D01*
X205705Y125970D01*
Y123304D01*
X205039Y122638D01*
X203706D01*
X203039Y123304D01*
Y125970D01*
X207038Y126637D02*
X209704D01*
Y125970D01*
X207038Y123304D01*
Y122638D01*
X264764Y21260D02*
Y25259D01*
X266763D01*
X267430Y24592D01*
Y23259D01*
X266763Y22593D01*
X264764D01*
X266097D02*
X267430Y21260D01*
X268762D02*
Y25259D01*
X270762D01*
X271428Y24592D01*
Y23259D01*
X270762Y22593D01*
X268762D01*
X270095D02*
X271428Y21260D01*
X275427Y25259D02*
X272761D01*
Y23259D01*
X274094Y23926D01*
X274761D01*
X275427Y23259D01*
Y21926D01*
X274761Y21260D01*
X273428D01*
X272761Y21926D01*
X276760Y24592D02*
X277426Y25259D01*
X278759D01*
X279426Y24592D01*
Y21926D01*
X278759Y21260D01*
X277426D01*
X276760Y21926D01*
Y24592D01*
X280759D02*
X281425Y25259D01*
X282758D01*
X283424Y24592D01*
Y23926D01*
X282758Y23259D01*
X283424Y22593D01*
Y21926D01*
X282758Y21260D01*
X281425D01*
X280759Y21926D01*
Y22593D01*
X281425Y23259D01*
X280759Y23926D01*
Y24592D01*
X281425Y23259D02*
X282758D01*
X287402Y21260D02*
Y25259D01*
X289401D01*
X290067Y24592D01*
Y23259D01*
X289401Y22593D01*
X287402D01*
X288735D02*
X290067Y21260D01*
X291400D02*
Y25259D01*
X293400D01*
X294066Y24592D01*
Y23259D01*
X293400Y22593D01*
X291400D01*
X292733D02*
X294066Y21260D01*
X298065Y25259D02*
X295399D01*
Y23259D01*
X296732Y23926D01*
X297398D01*
X298065Y23259D01*
Y21926D01*
X297398Y21260D01*
X296065D01*
X295399Y21926D01*
X299398Y24592D02*
X300064Y25259D01*
X301397D01*
X302063Y24592D01*
Y21926D01*
X301397Y21260D01*
X300064D01*
X299398Y21926D01*
Y24592D01*
X306062Y21260D02*
X303396D01*
X306062Y23926D01*
Y24592D01*
X305396Y25259D01*
X304063D01*
X303396Y24592D01*
X192618Y102953D02*
Y106951D01*
X194617D01*
X195284Y106285D01*
Y104952D01*
X194617Y104286D01*
X192618D01*
X193951D02*
X195284Y102953D01*
X196617D02*
Y106951D01*
X198616D01*
X199283Y106285D01*
Y104952D01*
X198616Y104286D01*
X196617D01*
X197950D02*
X199283Y102953D01*
X203281Y106951D02*
X200616D01*
Y104952D01*
X201948Y105619D01*
X202615D01*
X203281Y104952D01*
Y103619D01*
X202615Y102953D01*
X201282D01*
X200616Y103619D01*
X204614Y106285D02*
X205281Y106951D01*
X206614D01*
X207280Y106285D01*
Y103619D01*
X206614Y102953D01*
X205281D01*
X204614Y103619D01*
Y106285D01*
X208613Y102953D02*
X209946D01*
X209279D01*
Y106951D01*
X208613Y106285D01*
X226687Y141150D02*
X226021Y140484D01*
Y139151D01*
X226687Y138484D01*
X227354D01*
X228020Y139151D01*
Y140484D01*
X228687Y141150D01*
X229353D01*
X230020Y140484D01*
Y139151D01*
X229353Y138484D01*
X226021Y145149D02*
Y143816D01*
Y144482D01*
X229353D01*
X230020Y143816D01*
Y143149D01*
X229353Y142483D01*
X230020Y146482D02*
Y147815D01*
Y147148D01*
X226021D01*
X226687Y146482D01*
X230020Y149814D02*
Y151147D01*
Y150480D01*
X226021D01*
X226687Y149814D01*
X230020Y155812D02*
Y153146D01*
X227354Y155812D01*
X226687D01*
X226021Y155146D01*
Y153813D01*
X226687Y153146D01*
X195678Y135714D02*
X195011Y136381D01*
X193678D01*
X193012Y135714D01*
Y135048D01*
X193678Y134381D01*
X195011D01*
X195678Y133715D01*
Y133048D01*
X195011Y132382D01*
X193678D01*
X193012Y133048D01*
X199676Y136381D02*
X198343D01*
X199010D01*
Y133048D01*
X198343Y132382D01*
X197677D01*
X197011Y133048D01*
X201009Y132382D02*
X202342D01*
X201676D01*
Y136381D01*
X201009Y135714D01*
X204342D02*
X205008Y136381D01*
X206341D01*
X207007Y135714D01*
Y133048D01*
X206341Y132382D01*
X205008D01*
X204342Y133048D01*
Y135714D01*
X208340D02*
X209007Y136381D01*
X210340D01*
X211006Y135714D01*
Y133048D01*
X210340Y132382D01*
X209007D01*
X208340Y133048D01*
Y135714D01*
X208085Y159162D02*
X207419Y158495D01*
Y157162D01*
X208085Y156496D01*
X208752D01*
X209418Y157162D01*
Y158495D01*
X210084Y159162D01*
X210751D01*
X211417Y158495D01*
Y157162D01*
X210751Y156496D01*
X207419Y163161D02*
Y161828D01*
Y162494D01*
X210751D01*
X211417Y161828D01*
Y161161D01*
X210751Y160495D01*
X211417Y164494D02*
Y165826D01*
Y165160D01*
X207419D01*
X208085Y164494D01*
Y167826D02*
X207419Y168492D01*
Y169825D01*
X208085Y170492D01*
X210751D01*
X211417Y169825D01*
Y168492D01*
X210751Y167826D01*
X208085D01*
X211417Y171825D02*
Y173157D01*
Y172491D01*
X207419D01*
X208085Y171825D01*
X40461Y52151D02*
X39795Y52818D01*
X38462D01*
X37795Y52151D01*
Y51485D01*
X38462Y50818D01*
X39795D01*
X40461Y50152D01*
Y49485D01*
X39795Y48819D01*
X38462D01*
X37795Y49485D01*
X41794Y52818D02*
Y48819D01*
X43127Y50152D01*
X44460Y48819D01*
Y52818D01*
X45793Y48819D02*
X47126D01*
X46459D01*
Y52818D01*
X45793Y52151D01*
X49125D02*
X49791Y52818D01*
X51124D01*
X51791Y52151D01*
Y49485D01*
X51124Y48819D01*
X49791D01*
X49125Y49485D01*
Y52151D01*
X53124D02*
X53790Y52818D01*
X55123D01*
X55790Y52151D01*
Y49485D01*
X55123Y48819D01*
X53790D01*
X53124Y49485D01*
Y52151D01*
X233965Y184435D02*
X233299Y185101D01*
X231966D01*
X231299Y184435D01*
Y183768D01*
X231966Y183102D01*
X233299D01*
X233965Y182435D01*
Y181769D01*
X233299Y181102D01*
X231966D01*
X231299Y181769D01*
X235298Y185101D02*
Y181102D01*
X236631Y182435D01*
X237964Y181102D01*
Y185101D01*
X239297Y181102D02*
X240630D01*
X239963D01*
Y185101D01*
X239297Y184435D01*
X242629D02*
X243295Y185101D01*
X244628D01*
X245295Y184435D01*
Y181769D01*
X244628Y181102D01*
X243295D01*
X242629Y181769D01*
Y184435D01*
X246628Y181102D02*
X247960D01*
X247294D01*
Y185101D01*
X246628Y184435D01*
X521274Y185737D02*
X520608Y185070D01*
Y183737D01*
X521274Y183071D01*
X521941D01*
X522607Y183737D01*
Y185070D01*
X523273Y185737D01*
X523940D01*
X524606Y185070D01*
Y183737D01*
X523940Y183071D01*
X520608Y187070D02*
X524606D01*
X523273Y188402D01*
X524606Y189735D01*
X520608D01*
Y191068D02*
Y193734D01*
X521274D01*
X523940Y191068D01*
X524606D01*
X521274Y195067D02*
X520608Y195733D01*
Y197066D01*
X521274Y197733D01*
X523940D01*
X524606Y197066D01*
Y195733D01*
X523940Y195067D01*
X521274D01*
Y199066D02*
X520608Y199732D01*
Y201065D01*
X521274Y201731D01*
X523940D01*
X524606Y201065D01*
Y199732D01*
X523940Y199066D01*
X521274D01*
X8268Y67778D02*
X10933D01*
X9601D01*
Y63779D01*
X12266D02*
Y67778D01*
X14266D01*
X14932Y67112D01*
Y65779D01*
X14266Y65112D01*
X12266D01*
X16265Y63779D02*
X17598D01*
X16932D01*
Y67778D01*
X16265Y67112D01*
X19597D02*
X20264Y67778D01*
X21597D01*
X22263Y67112D01*
Y64446D01*
X21597Y63779D01*
X20264D01*
X19597Y64446D01*
Y67112D01*
X23596D02*
X24263Y67778D01*
X25596D01*
X26262Y67112D01*
Y64446D01*
X25596Y63779D01*
X24263D01*
X23596Y64446D01*
Y67112D01*
X8268Y53605D02*
X10933D01*
X9601D01*
Y49606D01*
X12266D02*
Y53605D01*
X14266D01*
X14932Y52939D01*
Y51606D01*
X14266Y50939D01*
X12266D01*
X16265Y49606D02*
X17598D01*
X16932D01*
Y53605D01*
X16265Y52939D01*
X19597D02*
X20264Y53605D01*
X21597D01*
X22263Y52939D01*
Y50273D01*
X21597Y49606D01*
X20264D01*
X19597Y50273D01*
Y52939D01*
X23596Y49606D02*
X24929D01*
X24263D01*
Y53605D01*
X23596Y52939D01*
X355352Y191535D02*
Y194201D01*
Y192868D01*
X359350D01*
Y195534D02*
X355352D01*
Y197534D01*
X356018Y198200D01*
X357351D01*
X358017Y197534D01*
Y195534D01*
X359350Y199533D02*
Y200866D01*
Y200199D01*
X355352D01*
X356018Y199533D01*
Y202865D02*
X355352Y203532D01*
Y204865D01*
X356018Y205531D01*
X358684D01*
X359350Y204865D01*
Y203532D01*
X358684Y202865D01*
X356018D01*
X359350Y208863D02*
X355352D01*
X357351Y206864D01*
Y209530D01*
X83465Y51243D02*
X86130D01*
X84798D01*
Y47244D01*
X87463D02*
Y51243D01*
X89463D01*
X90129Y50576D01*
Y49243D01*
X89463Y48577D01*
X87463D01*
X91462Y47244D02*
X92795D01*
X92128D01*
Y51243D01*
X91462Y50576D01*
X94794D02*
X95461Y51243D01*
X96794D01*
X97460Y50576D01*
Y47910D01*
X96794Y47244D01*
X95461D01*
X94794Y47910D01*
Y50576D01*
X101459Y51243D02*
X98793D01*
Y49243D01*
X100126Y49910D01*
X100792D01*
X101459Y49243D01*
Y47910D01*
X100792Y47244D01*
X99459D01*
X98793Y47910D01*
X347379Y8858D02*
Y11524D01*
Y10191D01*
X351378D01*
Y12857D02*
X347379D01*
Y14856D01*
X348046Y15523D01*
X349379D01*
X350045Y14856D01*
Y12857D01*
X351378Y16856D02*
Y18189D01*
Y17522D01*
X347379D01*
X348046Y16856D01*
Y20188D02*
X347379Y20854D01*
Y22187D01*
X348046Y22854D01*
X350711D01*
X351378Y22187D01*
Y20854D01*
X350711Y20188D01*
X348046D01*
X347379Y26853D02*
X348046Y25520D01*
X349379Y24187D01*
X350711D01*
X351378Y24853D01*
Y26186D01*
X350711Y26853D01*
X350045D01*
X349379Y26186D01*
Y24187D01*
X28482Y218898D02*
Y221563D01*
Y220231D01*
X32480D01*
Y222896D02*
X28482D01*
Y224896D01*
X29148Y225562D01*
X30481D01*
X31147Y224896D01*
Y222896D01*
X32480Y229561D02*
Y226895D01*
X29814Y229561D01*
X29148D01*
X28482Y228894D01*
Y227561D01*
X29148Y226895D01*
Y230894D02*
X28482Y231560D01*
Y232893D01*
X29148Y233560D01*
X31814D01*
X32480Y232893D01*
Y231560D01*
X31814Y230894D01*
X29148D01*
Y234893D02*
X28482Y235559D01*
Y236892D01*
X29148Y237558D01*
X31814D01*
X32480Y236892D01*
Y235559D01*
X31814Y234893D01*
X29148D01*
X138976Y231164D02*
X141642D01*
X140309D01*
Y227165D01*
X142975D02*
Y231164D01*
X144974D01*
X145641Y230498D01*
Y229165D01*
X144974Y228498D01*
X142975D01*
X149640Y227165D02*
X146974D01*
X149640Y229831D01*
Y230498D01*
X148973Y231164D01*
X147640D01*
X146974Y230498D01*
X150972D02*
X151639Y231164D01*
X152972D01*
X153638Y230498D01*
Y227832D01*
X152972Y227165D01*
X151639D01*
X150972Y227832D01*
Y230498D01*
X154971D02*
X155638Y231164D01*
X156971D01*
X157637Y230498D01*
Y229831D01*
X156971Y229165D01*
X156304D01*
X156971D01*
X157637Y228498D01*
Y227832D01*
X156971Y227165D01*
X155638D01*
X154971Y227832D01*
X137795Y202030D02*
X140461D01*
X139128D01*
Y198031D01*
X141794D02*
Y202030D01*
X143793D01*
X144460Y201364D01*
Y200031D01*
X143793Y199364D01*
X141794D01*
X148459Y198031D02*
X145793D01*
X148459Y200697D01*
Y201364D01*
X147792Y202030D01*
X146459D01*
X145793Y201364D01*
X149791D02*
X150458Y202030D01*
X151791D01*
X152457Y201364D01*
Y198698D01*
X151791Y198031D01*
X150458D01*
X149791Y198698D01*
Y201364D01*
X155789Y198031D02*
Y202030D01*
X153790Y200031D01*
X156456D01*
X138976Y216991D02*
X141642D01*
X140309D01*
Y212992D01*
X142975D02*
Y216991D01*
X144974D01*
X145641Y216324D01*
Y214991D01*
X144974Y214325D01*
X142975D01*
X149640Y212992D02*
X146974D01*
X149640Y215658D01*
Y216324D01*
X148973Y216991D01*
X147640D01*
X146974Y216324D01*
X150972D02*
X151639Y216991D01*
X152972D01*
X153638Y216324D01*
Y213659D01*
X152972Y212992D01*
X151639D01*
X150972Y213659D01*
Y216324D01*
X157637Y216991D02*
X154971D01*
Y214991D01*
X156304Y215658D01*
X156971D01*
X157637Y214991D01*
Y213659D01*
X156971Y212992D01*
X155638D01*
X154971Y213659D01*
X205512Y224471D02*
X208178D01*
X206845D01*
Y220472D01*
X209510D02*
Y224471D01*
X211510D01*
X212176Y223805D01*
Y222472D01*
X211510Y221805D01*
X209510D01*
X216175Y220472D02*
X213509D01*
X216175Y223138D01*
Y223805D01*
X215509Y224471D01*
X214176D01*
X213509Y223805D01*
X217508D02*
X218174Y224471D01*
X219507D01*
X220174Y223805D01*
Y221139D01*
X219507Y220472D01*
X218174D01*
X217508Y221139D01*
Y223805D01*
X221507Y224471D02*
X224172D01*
Y223805D01*
X221507Y221139D01*
Y220472D01*
X35433Y174274D02*
X38099D01*
X36766D01*
Y170276D01*
X39432D02*
Y174274D01*
X41431D01*
X42098Y173608D01*
Y172275D01*
X41431Y171608D01*
X39432D01*
X46096Y170276D02*
X43431D01*
X46096Y172941D01*
Y173608D01*
X45430Y174274D01*
X44097D01*
X43431Y173608D01*
X47429D02*
X48096Y174274D01*
X49429D01*
X50095Y173608D01*
Y170942D01*
X49429Y170276D01*
X48096D01*
X47429Y170942D01*
Y173608D01*
X51428D02*
X52094Y174274D01*
X53427D01*
X54094Y173608D01*
Y172941D01*
X53427Y172275D01*
X54094Y171608D01*
Y170942D01*
X53427Y170276D01*
X52094D01*
X51428Y170942D01*
Y171608D01*
X52094Y172275D01*
X51428Y172941D01*
Y173608D01*
X52094Y172275D02*
X53427D01*
X35433Y157542D02*
X38099D01*
X36766D01*
Y153543D01*
X39432D02*
Y157542D01*
X41431D01*
X42098Y156876D01*
Y155543D01*
X41431Y154876D01*
X39432D01*
X46096Y153543D02*
X43431D01*
X46096Y156209D01*
Y156876D01*
X45430Y157542D01*
X44097D01*
X43431Y156876D01*
X47429D02*
X48096Y157542D01*
X49429D01*
X50095Y156876D01*
Y154210D01*
X49429Y153543D01*
X48096D01*
X47429Y154210D01*
Y156876D01*
X51428Y154210D02*
X52094Y153543D01*
X53427D01*
X54094Y154210D01*
Y156876D01*
X53427Y157542D01*
X52094D01*
X51428Y156876D01*
Y156209D01*
X52094Y155543D01*
X54094D01*
X22638Y134904D02*
X25304D01*
X23971D01*
Y130905D01*
X26636D02*
Y134904D01*
X28636D01*
X29302Y134238D01*
Y132905D01*
X28636Y132238D01*
X26636D01*
X30635Y134238D02*
X31302Y134904D01*
X32635D01*
X33301Y134238D01*
Y133571D01*
X32635Y132905D01*
X31968D01*
X32635D01*
X33301Y132238D01*
Y131572D01*
X32635Y130905D01*
X31302D01*
X30635Y131572D01*
X34634Y134238D02*
X35300Y134904D01*
X36633D01*
X37300Y134238D01*
Y131572D01*
X36633Y130905D01*
X35300D01*
X34634Y131572D01*
Y134238D01*
X38633D02*
X39299Y134904D01*
X40632D01*
X41298Y134238D01*
Y131572D01*
X40632Y130905D01*
X39299D01*
X38633Y131572D01*
Y134238D01*
X22638Y120140D02*
X25304D01*
X23971D01*
Y116142D01*
X26636D02*
Y120140D01*
X28636D01*
X29302Y119474D01*
Y118141D01*
X28636Y117475D01*
X26636D01*
X30635Y119474D02*
X31302Y120140D01*
X32635D01*
X33301Y119474D01*
Y118807D01*
X32635Y118141D01*
X31968D01*
X32635D01*
X33301Y117475D01*
Y116808D01*
X32635Y116142D01*
X31302D01*
X30635Y116808D01*
X34634Y119474D02*
X35300Y120140D01*
X36633D01*
X37300Y119474D01*
Y116808D01*
X36633Y116142D01*
X35300D01*
X34634Y116808D01*
Y119474D01*
X38633Y116142D02*
X39966D01*
X39299D01*
Y120140D01*
X38633Y119474D01*
X22638Y105377D02*
X25304D01*
X23971D01*
Y101378D01*
X26636D02*
Y105377D01*
X28636D01*
X29302Y104710D01*
Y103377D01*
X28636Y102711D01*
X26636D01*
X30635Y104710D02*
X31302Y105377D01*
X32635D01*
X33301Y104710D01*
Y104044D01*
X32635Y103377D01*
X31968D01*
X32635D01*
X33301Y102711D01*
Y102044D01*
X32635Y101378D01*
X31302D01*
X30635Y102044D01*
X34634Y104710D02*
X35300Y105377D01*
X36633D01*
X37300Y104710D01*
Y102044D01*
X36633Y101378D01*
X35300D01*
X34634Y102044D01*
Y104710D01*
X41298Y101378D02*
X38633D01*
X41298Y104044D01*
Y104710D01*
X40632Y105377D01*
X39299D01*
X38633Y104710D01*
X58071Y147404D02*
X60737D01*
X59404D01*
Y143405D01*
X62070D02*
Y147404D01*
X64069D01*
X64735Y146738D01*
Y145405D01*
X64069Y144738D01*
X62070D01*
X66068Y146738D02*
X66735Y147404D01*
X68068D01*
X68734Y146738D01*
Y146071D01*
X68068Y145405D01*
X67401D01*
X68068D01*
X68734Y144738D01*
Y144072D01*
X68068Y143405D01*
X66735D01*
X66068Y144072D01*
X70067Y146738D02*
X70733Y147404D01*
X72066D01*
X72733Y146738D01*
Y144072D01*
X72066Y143405D01*
X70733D01*
X70067Y144072D01*
Y146738D01*
X74066D02*
X74732Y147404D01*
X76065D01*
X76731Y146738D01*
Y146071D01*
X76065Y145405D01*
X75399D01*
X76065D01*
X76731Y144738D01*
Y144072D01*
X76065Y143405D01*
X74732D01*
X74066Y144072D01*
X367950Y58858D02*
Y61524D01*
Y60191D01*
X371949D01*
Y62857D02*
X367950D01*
Y64856D01*
X368617Y65523D01*
X369950D01*
X370616Y64856D01*
Y62857D01*
X368617Y66856D02*
X367950Y67522D01*
Y68855D01*
X368617Y69521D01*
X369283D01*
X369950Y68855D01*
Y68189D01*
Y68855D01*
X370616Y69521D01*
X371282D01*
X371949Y68855D01*
Y67522D01*
X371282Y66856D01*
X368617Y70854D02*
X367950Y71521D01*
Y72854D01*
X368617Y73520D01*
X371282D01*
X371949Y72854D01*
Y71521D01*
X371282Y70854D01*
X368617D01*
X367950Y77519D02*
X368617Y76186D01*
X369950Y74853D01*
X371282D01*
X371949Y75520D01*
Y76853D01*
X371282Y77519D01*
X370616D01*
X369950Y76853D01*
Y74853D01*
X442913Y165416D02*
X445579D01*
X444246D01*
Y161417D01*
X446912D02*
Y165416D01*
X448911D01*
X449578Y164750D01*
Y163417D01*
X448911Y162750D01*
X446912D01*
X450911Y164750D02*
X451577Y165416D01*
X452910D01*
X453577Y164750D01*
Y164083D01*
X452910Y163417D01*
X452244D01*
X452910D01*
X453577Y162750D01*
Y162084D01*
X452910Y161417D01*
X451577D01*
X450911Y162084D01*
X454910Y164750D02*
X455576Y165416D01*
X456909D01*
X457575Y164750D01*
Y162084D01*
X456909Y161417D01*
X455576D01*
X454910Y162084D01*
Y164750D01*
X461574Y165416D02*
X458908D01*
Y163417D01*
X460241Y164083D01*
X460908D01*
X461574Y163417D01*
Y162084D01*
X460908Y161417D01*
X459575D01*
X458908Y162084D01*
X418504Y165416D02*
X421170D01*
X419837D01*
Y161417D01*
X422503D02*
Y165416D01*
X424502D01*
X425169Y164750D01*
Y163417D01*
X424502Y162750D01*
X422503D01*
X426501Y164750D02*
X427168Y165416D01*
X428501D01*
X429167Y164750D01*
Y164083D01*
X428501Y163417D01*
X427834D01*
X428501D01*
X429167Y162750D01*
Y162084D01*
X428501Y161417D01*
X427168D01*
X426501Y162084D01*
X430500Y164750D02*
X431167Y165416D01*
X432499D01*
X433166Y164750D01*
Y162084D01*
X432499Y161417D01*
X431167D01*
X430500Y162084D01*
Y164750D01*
X436498Y161417D02*
Y165416D01*
X434499Y163417D01*
X437165D01*
X112537Y46063D02*
Y48729D01*
Y47396D01*
X116535D01*
Y50062D02*
X112537D01*
Y52061D01*
X113203Y52728D01*
X114536D01*
X115202Y52061D01*
Y50062D01*
X112537Y56726D02*
Y54060D01*
X114536D01*
X113870Y55393D01*
Y56060D01*
X114536Y56726D01*
X115869D01*
X116535Y56060D01*
Y54727D01*
X115869Y54060D01*
X113203Y58059D02*
X112537Y58726D01*
Y60058D01*
X113203Y60725D01*
X115869D01*
X116535Y60058D01*
Y58726D01*
X115869Y58059D01*
X113203D01*
Y62058D02*
X112537Y62724D01*
Y64057D01*
X113203Y64724D01*
X115869D01*
X116535Y64057D01*
Y62724D01*
X115869Y62058D01*
X113203D01*
X483206Y157283D02*
Y159949D01*
Y158616D01*
X487205D01*
Y161282D02*
X483206D01*
Y163282D01*
X483873Y163948D01*
X485205D01*
X485872Y163282D01*
Y161282D01*
X483206Y165281D02*
Y167947D01*
X483873D01*
X486538Y165281D01*
X487205D01*
X483873Y169280D02*
X483206Y169946D01*
Y171279D01*
X483873Y171945D01*
X486538D01*
X487205Y171279D01*
Y169946D01*
X486538Y169280D01*
X483873D01*
Y173278D02*
X483206Y173945D01*
Y175278D01*
X483873Y175944D01*
X486538D01*
X487205Y175278D01*
Y173945D01*
X486538Y173278D01*
X483873D01*
X469426Y157283D02*
Y159949D01*
Y158616D01*
X473425D01*
Y161282D02*
X469426D01*
Y163282D01*
X470093Y163948D01*
X471426D01*
X472092Y163282D01*
Y161282D01*
X469426Y165281D02*
Y167947D01*
X470093D01*
X472759Y165281D01*
X473425D01*
X470093Y169280D02*
X469426Y169946D01*
Y171279D01*
X470093Y171945D01*
X472759D01*
X473425Y171279D01*
Y169946D01*
X472759Y169280D01*
X470093D01*
X473425Y173278D02*
Y174611D01*
Y173945D01*
X469426D01*
X470093Y173278D01*
X499938Y151772D02*
Y154437D01*
Y153104D01*
X503937D01*
Y155770D02*
X499938D01*
Y157770D01*
X500605Y158436D01*
X501938D01*
X502604Y157770D01*
Y155770D01*
X499938Y159769D02*
Y162435D01*
X500605D01*
X503271Y159769D01*
X503937D01*
X500605Y163768D02*
X499938Y164434D01*
Y165767D01*
X500605Y166434D01*
X503271D01*
X503937Y165767D01*
Y164434D01*
X503271Y163768D01*
X500605D01*
X503937Y170432D02*
Y167766D01*
X501271Y170432D01*
X500605D01*
X499938Y169766D01*
Y168433D01*
X500605Y167766D01*
X246779Y148103D02*
X249135Y145747D01*
X250078D01*
X251020Y146689D01*
Y147632D01*
X248664Y149988D01*
X252434Y148103D02*
X253376Y149046D01*
X252905Y148574D01*
X250078Y151402D01*
Y150459D01*
X252434Y152816D02*
Y153758D01*
X253376Y154701D01*
X254319D01*
X256204Y152816D01*
Y151873D01*
X255261Y150931D01*
X254319D01*
X252434Y152816D01*
X255261Y155643D02*
Y156586D01*
X256204Y157528D01*
X257146D01*
X259031Y155643D01*
Y154701D01*
X258089Y153758D01*
X257146D01*
X255261Y155643D01*
X94820Y206791D02*
X98152D01*
X98819Y207458D01*
Y208791D01*
X98152Y209457D01*
X94820D01*
X98819Y213456D02*
Y210790D01*
X96153Y213456D01*
X95487D01*
X94820Y212789D01*
Y211456D01*
X95487Y210790D01*
Y214789D02*
X94820Y215455D01*
Y216788D01*
X95487Y217455D01*
X98152D01*
X98819Y216788D01*
Y215455D01*
X98152Y214789D01*
X95487D01*
Y218788D02*
X94820Y219454D01*
Y220787D01*
X95487Y221453D01*
X98152D01*
X98819Y220787D01*
Y219454D01*
X98152Y218788D01*
X95487D01*
X170472Y202030D02*
Y198698D01*
X171139Y198031D01*
X172472D01*
X173138Y198698D01*
Y202030D01*
X177137Y198031D02*
X174471D01*
X177137Y200697D01*
Y201364D01*
X176470Y202030D01*
X175138D01*
X174471Y201364D01*
X178470D02*
X179136Y202030D01*
X180469D01*
X181136Y201364D01*
Y198698D01*
X180469Y198031D01*
X179136D01*
X178470Y198698D01*
Y201364D01*
X182469D02*
X183135Y202030D01*
X184468D01*
X185134Y201364D01*
Y200697D01*
X184468Y200031D01*
X183801D01*
X184468D01*
X185134Y199364D01*
Y198698D01*
X184468Y198031D01*
X183135D01*
X182469Y198698D01*
X201969Y215121D02*
Y211789D01*
X202635Y211122D01*
X203968D01*
X204634Y211789D01*
Y215121D01*
X205967Y214454D02*
X206634Y215121D01*
X207967D01*
X208633Y214454D01*
Y213788D01*
X207967Y213121D01*
X207300D01*
X207967D01*
X208633Y212455D01*
Y211789D01*
X207967Y211122D01*
X206634D01*
X205967Y211789D01*
X209966Y214454D02*
X210632Y215121D01*
X211965D01*
X212632Y214454D01*
Y211789D01*
X211965Y211122D01*
X210632D01*
X209966Y211789D01*
Y214454D01*
X213965D02*
X214631Y215121D01*
X215964D01*
X216630Y214454D01*
Y211789D01*
X215964Y211122D01*
X214631D01*
X213965Y211789D01*
Y214454D01*
X88521Y151575D02*
X91853D01*
X92520Y152241D01*
Y153574D01*
X91853Y154241D01*
X88521D01*
X89187Y155573D02*
X88521Y156240D01*
Y157573D01*
X89187Y158239D01*
X89854D01*
X90520Y157573D01*
Y156906D01*
Y157573D01*
X91187Y158239D01*
X91853D01*
X92520Y157573D01*
Y156240D01*
X91853Y155573D01*
X89187Y159572D02*
X88521Y160239D01*
Y161572D01*
X89187Y162238D01*
X91853D01*
X92520Y161572D01*
Y160239D01*
X91853Y159572D01*
X89187D01*
X92520Y163571D02*
Y164904D01*
Y164237D01*
X88521D01*
X89187Y163571D01*
X375000Y151637D02*
Y148304D01*
X375666Y147638D01*
X376999D01*
X377666Y148304D01*
Y151637D01*
X378999Y150970D02*
X379665Y151637D01*
X380998D01*
X381664Y150970D01*
Y150304D01*
X380998Y149637D01*
X380332D01*
X380998D01*
X381664Y148971D01*
Y148304D01*
X380998Y147638D01*
X379665D01*
X378999Y148304D01*
X382997Y150970D02*
X383664Y151637D01*
X384997D01*
X385663Y150970D01*
Y148304D01*
X384997Y147638D01*
X383664D01*
X382997Y148304D01*
Y150970D01*
X389662Y147638D02*
X386996D01*
X389662Y150304D01*
Y150970D01*
X388996Y151637D01*
X387663D01*
X386996Y150970D01*
X259781Y235827D02*
X263113D01*
X263779Y236493D01*
Y237826D01*
X263113Y238493D01*
X259781D01*
X263779Y241825D02*
X259781D01*
X261780Y239826D01*
Y242491D01*
X260447Y243824D02*
X259781Y244491D01*
Y245824D01*
X260447Y246490D01*
X263113D01*
X263779Y245824D01*
Y244491D01*
X263113Y243824D01*
X260447D01*
Y247823D02*
X259781Y248489D01*
Y249822D01*
X260447Y250489D01*
X263113D01*
X263779Y249822D01*
Y248489D01*
X263113Y247823D01*
X260447D01*
X178088Y62598D02*
X178754D01*
X180087Y63931D01*
X178754Y65264D01*
X178088D01*
X180087Y63931D02*
X182087D01*
Y66597D02*
Y67930D01*
Y67264D01*
X178088D01*
X178754Y66597D01*
Y69929D02*
X178088Y70596D01*
Y71929D01*
X178754Y72595D01*
X181420D01*
X182087Y71929D01*
Y70596D01*
X181420Y69929D01*
X178754D01*
Y73928D02*
X178088Y74595D01*
Y75927D01*
X178754Y76594D01*
X181420D01*
X182087Y75927D01*
Y74595D01*
X181420Y73928D01*
X178754D01*
X183465Y159314D02*
Y158647D01*
X184798Y157314D01*
X186130Y158647D01*
Y159314D01*
X184798Y157314D02*
Y155315D01*
X187463D02*
X188796D01*
X188130D01*
Y159314D01*
X187463Y158647D01*
X190796D02*
X191462Y159314D01*
X192795D01*
X193461Y158647D01*
Y155981D01*
X192795Y155315D01*
X191462D01*
X190796Y155981D01*
Y158647D01*
X194794Y155315D02*
X196127D01*
X195461D01*
Y159314D01*
X194794Y158647D01*
X172835Y177424D02*
Y176758D01*
X174168Y175425D01*
X175500Y176758D01*
Y177424D01*
X174168Y175425D02*
Y173425D01*
X176833Y176758D02*
X177500Y177424D01*
X178833D01*
X179499Y176758D01*
Y176091D01*
X178833Y175425D01*
X178166D01*
X178833D01*
X179499Y174758D01*
Y174092D01*
X178833Y173425D01*
X177500D01*
X176833Y174092D01*
X180832Y176758D02*
X181499Y177424D01*
X182831D01*
X183498Y176758D01*
Y174092D01*
X182831Y173425D01*
X181499D01*
X180832Y174092D01*
Y176758D01*
X184831D02*
X185497Y177424D01*
X186830D01*
X187497Y176758D01*
Y174092D01*
X186830Y173425D01*
X185497D01*
X184831Y174092D01*
Y176758D01*
X168799Y116302D02*
Y112970D01*
X169466Y112303D01*
X170799D01*
X171465Y112970D01*
Y116302D01*
X175464D02*
X172798D01*
Y114303D01*
X174131Y114969D01*
X174797D01*
X175464Y114303D01*
Y112970D01*
X174797Y112303D01*
X173464D01*
X172798Y112970D01*
X176797Y115635D02*
X177463Y116302D01*
X178796D01*
X179462Y115635D01*
Y112970D01*
X178796Y112303D01*
X177463D01*
X176797Y112970D01*
Y115635D01*
X180795D02*
X181462Y116302D01*
X182795D01*
X183461Y115635D01*
Y112970D01*
X182795Y112303D01*
X181462D01*
X180795Y112970D01*
Y115635D01*
X488189Y235236D02*
Y239235D01*
X490188D01*
X490855Y238568D01*
Y237236D01*
X490188Y236569D01*
X488189D01*
X489522D02*
X490855Y235236D01*
X492188Y239235D02*
X494853D01*
Y238568D01*
X492188Y235903D01*
Y235236D01*
X496186Y238568D02*
X496853Y239235D01*
X498186D01*
X498852Y238568D01*
Y235903D01*
X498186Y235236D01*
X496853D01*
X496186Y235903D01*
Y238568D01*
X500185Y239235D02*
X502851D01*
Y238568D01*
X500185Y235903D01*
Y235236D01*
X531209Y143073D02*
X529876D01*
X530543D01*
Y139741D01*
X529876Y139075D01*
X529210D01*
X528543Y139741D01*
X535208Y143073D02*
X533875Y142407D01*
X532542Y141074D01*
Y139741D01*
X533209Y139075D01*
X534541D01*
X535208Y139741D01*
Y140408D01*
X534541Y141074D01*
X532542D01*
X536541Y142407D02*
X537207Y143073D01*
X538540D01*
X539207Y142407D01*
Y139741D01*
X538540Y139075D01*
X537207D01*
X536541Y139741D01*
Y142407D01*
X540539D02*
X541206Y143073D01*
X542539D01*
X543205Y142407D01*
Y139741D01*
X542539Y139075D01*
X541206D01*
X540539Y139741D01*
Y142407D01*
X511766Y32412D02*
X511182Y32995D01*
X510016D01*
X509433Y32412D01*
Y30079D01*
X510016Y29496D01*
X511182D01*
X511766Y30079D01*
Y31245D01*
X510599D01*
X512932Y29496D02*
Y32995D01*
X515265Y29496D01*
Y32995D01*
X516431D02*
Y29496D01*
X518180D01*
X518763Y30079D01*
Y32412D01*
X518180Y32995D01*
X516431D01*
X505933Y52995D02*
Y49496D01*
Y51245D01*
X508266D01*
Y52995D01*
Y49496D01*
X509432D02*
Y52995D01*
X511181D01*
X511764Y52412D01*
Y51245D01*
X511181Y50662D01*
X509432D01*
X510598D02*
X511764Y49496D01*
X515263Y52995D02*
X512931D01*
Y49496D01*
X515263D01*
X512931Y51245D02*
X514097D01*
X518762Y52995D02*
X516430D01*
Y51245D01*
X517596D01*
X516430D01*
Y49496D01*
X512933Y83495D02*
Y79996D01*
X514682D01*
X515266Y80579D01*
Y82912D01*
X514682Y83495D01*
X512933D01*
X518764D02*
X517598Y82912D01*
X516432Y81745D01*
Y80579D01*
X517015Y79996D01*
X518181D01*
X518764Y80579D01*
Y81162D01*
X518181Y81745D01*
X516432D01*
X512933Y72995D02*
Y69496D01*
X514682D01*
X515266Y70079D01*
Y72412D01*
X514682Y72995D01*
X512933D01*
X516432Y72412D02*
X517015Y72995D01*
X518181D01*
X518764Y72412D01*
Y71829D01*
X518181Y71245D01*
X518764Y70662D01*
Y70079D01*
X518181Y69496D01*
X517015D01*
X516432Y70079D01*
Y70662D01*
X517015Y71245D01*
X516432Y71829D01*
Y72412D01*
X517015Y71245D02*
X518181D01*
X505933Y63495D02*
X508266Y59996D01*
Y63495D02*
X505933Y59996D01*
X511764Y62912D02*
X511181Y63495D01*
X510015D01*
X509432Y62912D01*
Y60579D01*
X510015Y59996D01*
X511181D01*
X511764Y60579D01*
X512931Y63495D02*
Y59996D01*
X515263D01*
X516430Y63495D02*
Y59996D01*
Y61162D01*
X518762Y63495D01*
X517013Y61746D01*
X518762Y59996D01*
X512933Y103495D02*
Y99996D01*
X514682D01*
X515266Y100579D01*
Y102912D01*
X514682Y103495D01*
X512933D01*
X518764Y99996D02*
X516432D01*
X518764Y102329D01*
Y102912D01*
X518181Y103495D01*
X517015D01*
X516432Y102912D01*
X512933Y92995D02*
Y89496D01*
X514682D01*
X515266Y90079D01*
Y92412D01*
X514682Y92995D01*
X512933D01*
X518181Y89496D02*
Y92995D01*
X516432Y91246D01*
X518764D01*
X504433Y87995D02*
Y84496D01*
X506182D01*
X506766Y85079D01*
Y87412D01*
X506182Y87995D01*
X504433D01*
X510264D02*
X507932D01*
Y86246D01*
X509098Y86829D01*
X509681D01*
X510264Y86246D01*
Y85079D01*
X509681Y84496D01*
X508515D01*
X507932Y85079D01*
X504433Y97995D02*
Y94496D01*
X506182D01*
X506766Y95079D01*
Y97412D01*
X506182Y97995D01*
X504433D01*
X507932Y97412D02*
X508515Y97995D01*
X509681D01*
X510264Y97412D01*
Y96829D01*
X509681Y96245D01*
X509098D01*
X509681D01*
X510264Y95662D01*
Y95079D01*
X509681Y94496D01*
X508515D01*
X507932Y95079D01*
X490933Y54496D02*
Y57995D01*
X492683D01*
X493266Y57412D01*
Y56245D01*
X492683Y55662D01*
X490933D01*
X496765Y57412D02*
X496181Y57995D01*
X495015D01*
X494432Y57412D01*
Y55079D01*
X495015Y54496D01*
X496181D01*
X496765Y55079D01*
X497931Y57995D02*
Y54496D01*
X500263D01*
X501430Y57995D02*
Y54496D01*
Y55662D01*
X503762Y57995D01*
X502013Y56245D01*
X503762Y54496D01*
X497433Y67995D02*
Y64496D01*
X499183D01*
X499766Y65079D01*
Y67412D01*
X499183Y67995D01*
X497433D01*
X500932Y65079D02*
X501515Y64496D01*
X502681D01*
X503265Y65079D01*
Y67412D01*
X502681Y67995D01*
X501515D01*
X500932Y67412D01*
Y66829D01*
X501515Y66246D01*
X503265D01*
X504433Y77995D02*
Y74496D01*
X506182D01*
X506766Y75079D01*
Y77412D01*
X506182Y77995D01*
X504433D01*
X507932D02*
X510264D01*
Y77412D01*
X507932Y75079D01*
Y74496D01*
X487421Y48487D02*
Y46154D01*
X488588Y44988D01*
X489754Y46154D01*
Y48487D01*
X493253Y47904D02*
X492670Y48487D01*
X491503D01*
X490920Y47904D01*
Y47321D01*
X491503Y46738D01*
X492670D01*
X493253Y46154D01*
Y45571D01*
X492670Y44988D01*
X491503D01*
X490920Y45571D01*
X494419Y48487D02*
Y47904D01*
X495585Y46738D01*
X496752Y47904D01*
Y48487D01*
X495585Y46738D02*
Y44988D01*
X497918D02*
Y48487D01*
X500250Y44988D01*
Y48487D01*
X503749Y47904D02*
X503166Y48487D01*
X502000D01*
X501417Y47904D01*
Y45571D01*
X502000Y44988D01*
X503166D01*
X503749Y45571D01*
X494433Y28495D02*
Y26162D01*
X495599Y24996D01*
X496766Y26162D01*
Y28495D01*
X500265Y27912D02*
X499681Y28495D01*
X498515D01*
X497932Y27912D01*
Y25579D01*
X498515Y24996D01*
X499681D01*
X500265Y25579D01*
X503763Y27912D02*
X503180Y28495D01*
X502014D01*
X501431Y27912D01*
Y25579D01*
X502014Y24996D01*
X503180D01*
X503763Y25579D01*
X497433Y105496D02*
Y108995D01*
X499183D01*
X499766Y108412D01*
Y107246D01*
X499183Y106662D01*
X497433D01*
X500932Y108995D02*
Y105496D01*
X502098Y106662D01*
X503265Y105496D01*
Y108995D01*
X504431D02*
Y105496D01*
X506180D01*
X506763Y106079D01*
Y108412D01*
X506180Y108995D01*
X504431D01*
X507930Y105496D02*
Y108995D01*
X510262Y105496D01*
Y108995D01*
X432283Y8268D02*
X433616D01*
X432950D01*
Y12266D01*
X432283Y11600D01*
X437615Y8268D02*
Y12266D01*
X435616Y10267D01*
X438281D01*
X439614Y11600D02*
X440281Y12266D01*
X441614D01*
X442280Y11600D01*
Y8934D01*
X441614Y8268D01*
X440281D01*
X439614Y8934D01*
Y11600D01*
X447612Y10933D02*
X450278Y8268D01*
X448945Y9601D01*
X450278Y10933D01*
X447612Y8268D01*
X455609Y12266D02*
X458275D01*
Y11600D01*
X455609Y8934D01*
Y8268D01*
X459608Y11600D02*
X460274Y12266D01*
X461607D01*
X462274Y11600D01*
Y8934D01*
X461607Y8268D01*
X460274D01*
X459608Y8934D01*
Y11600D01*
X467605Y8268D02*
Y12266D01*
X468938Y10933D01*
X470271Y12266D01*
Y8268D01*
X471604D02*
Y12266D01*
X472937Y10933D01*
X474270Y12266D01*
Y8268D01*
X480934D02*
X479601Y9601D01*
Y10933D01*
X480934Y12266D01*
X485600D02*
X482934D01*
Y10267D01*
X484267Y10933D01*
X484933D01*
X485600Y10267D01*
Y8934D01*
X484933Y8268D01*
X483600D01*
X482934Y8934D01*
X489598Y12266D02*
X486933D01*
Y10267D01*
X488265Y10933D01*
X488932D01*
X489598Y10267D01*
Y8934D01*
X488932Y8268D01*
X487599D01*
X486933Y8934D01*
X490931Y8268D02*
X492264D01*
X491598D01*
Y12266D01*
X490931Y11600D01*
X496929Y8268D02*
X494264D01*
X496929Y10933D01*
Y11600D01*
X496263Y12266D01*
X494930D01*
X494264Y11600D01*
X502261Y10933D02*
X504927Y8268D01*
X503594Y9601D01*
X504927Y10933D01*
X502261Y8268D01*
X512924D02*
X510258D01*
X512924Y10933D01*
Y11600D01*
X512258Y12266D01*
X510925D01*
X510258Y11600D01*
X514257Y12266D02*
X516923D01*
Y11600D01*
X514257Y8934D01*
Y8268D01*
X520922Y12266D02*
X518256D01*
Y10267D01*
X519589Y10933D01*
X520255D01*
X520922Y10267D01*
Y8934D01*
X520255Y8268D01*
X518922D01*
X518256Y8934D01*
X524920Y12266D02*
X523587Y11600D01*
X522254Y10267D01*
Y8934D01*
X522921Y8268D01*
X524254D01*
X524920Y8934D01*
Y9601D01*
X524254Y10267D01*
X522254D01*
X530252Y8268D02*
Y12266D01*
X531585Y10933D01*
X532918Y12266D01*
Y8268D01*
X534251Y12266D02*
X535583D01*
X534917D01*
Y8268D01*
X534251D01*
X535583D01*
X537583Y12266D02*
Y8268D01*
X540249D01*
X541581D02*
X542914Y9601D01*
Y10933D01*
X541581Y12266D01*
D60*
X50637Y191089D02*
G03*
X50637Y198260I4482J3585D01*
G01*
X9080Y213393D02*
G03*
X9080Y213393I-300J0D01*
G01*
X45765Y8779D02*
G03*
X45765Y8779I-300J0D01*
G01*
X290091Y188992D02*
G03*
X290091Y188992I-300J0D01*
G01*
X197933Y93996D02*
X202461D01*
X183563D02*
X187894D01*
X198031Y45965D02*
X202461D01*
X183563D02*
X187795D01*
X183563D02*
Y93996D01*
X202461Y45965D02*
Y93996D01*
X188583Y68898D02*
X197244D01*
X188583Y70866D02*
X197244D01*
X192913Y64961D02*
Y68898D01*
Y70866D02*
Y74410D01*
X171161Y203642D02*
X183957D01*
X173425Y215453D02*
X183957D01*
X163976Y179921D02*
Y192520D01*
X195472Y179921D02*
Y192520D01*
X194783D02*
X195472D01*
X194685Y179921D02*
X195472D01*
X163976Y192520D02*
X165551D01*
X163976Y179921D02*
X165748D01*
X173228D02*
X187500D01*
X173130Y192520D02*
X187500D01*
X182874Y153543D02*
X197244D01*
X182972Y140945D02*
X197244D01*
X173721D02*
X175492D01*
X173721Y153543D02*
X175295D01*
X204429Y140945D02*
X205217D01*
X204528Y153543D02*
X205217D01*
Y140945D02*
Y153543D01*
X173721Y140945D02*
Y153543D01*
X520433Y108996D02*
Y126496D01*
Y98996D02*
Y103996D01*
Y88996D02*
Y93996D01*
Y78996D02*
Y83996D01*
Y68996D02*
Y73996D01*
Y58996D02*
Y63996D01*
Y48996D02*
Y53996D01*
Y38996D02*
Y43996D01*
Y28996D02*
Y33996D01*
X532933Y26496D02*
X540433D01*
X520433Y126496D02*
X540433D01*
Y26496D02*
Y126496D01*
X423433Y17717D02*
X543433D01*
X423433Y137496D02*
X543433D01*
X423433Y17717D02*
Y137496D01*
X543433Y17717D02*
Y137496D01*
X517598Y266614D02*
X521654Y270669D01*
X344488Y270669D02*
X356023Y259135D01*
X356023D01*
X363104Y252054D02*
X374016Y241142D01*
X376969D01*
X408661Y241142D02*
X456693D01*
X492126Y241142D02*
X510827Y259842D01*
X488189Y241142D02*
X492126D01*
X325472Y252953D02*
Y255118D01*
X323504Y252953D02*
X325472D01*
X305787D02*
Y255118D01*
Y252953D02*
X308740D01*
X400687Y272756D02*
X464687D01*
Y242756D02*
Y272756D01*
Y177256D02*
Y180256D01*
X456687Y177256D02*
X464687D01*
X400687D02*
X408687D01*
X400687D02*
Y179756D01*
Y242756D02*
Y272756D01*
X398524Y98032D02*
Y100984D01*
Y104134D02*
Y107087D01*
X358563Y50197D02*
X361516D01*
X31988Y163878D02*
Y166831D01*
Y147146D02*
Y150098D01*
X333071Y224508D02*
Y227461D01*
X41339Y180895D02*
Y190738D01*
Y198612D02*
Y208454D01*
X41339Y180895D02*
X69882D01*
X41339Y208454D02*
X69882D01*
Y188769D02*
Y200580D01*
X8779Y211693D02*
X18779D01*
X8779Y181693D02*
Y211693D01*
Y181693D02*
X18779D01*
Y211693D01*
X47165Y18779D02*
X107165D01*
Y8779D02*
Y18779D01*
X47165Y8779D02*
X107165D01*
X47165D02*
Y18779D01*
X347791Y205992D02*
X349291D01*
X337791D02*
X340791D01*
X327791D02*
X330791D01*
X317791D02*
X320791D01*
X307791D02*
X310791D01*
X297791D02*
X300791D01*
X289291D02*
X290791D01*
X347791Y190992D02*
X349291D01*
X337791D02*
X340791D01*
X327791D02*
X330791D01*
X317791D02*
X320791D01*
X307791D02*
X310791D01*
X297791D02*
X300791D01*
X289291D02*
X290791D01*
X349291D02*
Y205992D01*
X289291Y190992D02*
Y205992D01*
X509858Y237282D02*
Y233283D01*
X511191Y234616D01*
X512524Y233283D01*
Y237282D01*
X513857D02*
X515190D01*
X514523D01*
Y233283D01*
X513857D01*
X515190D01*
X519855Y237282D02*
X517189D01*
Y235283D01*
X518522D01*
X517189D01*
Y233283D01*
X521188Y237282D02*
X522521D01*
X521854D01*
Y233283D01*
X521188D01*
X522521D01*
X528519D02*
Y237282D01*
X530518D01*
X531185Y236616D01*
Y235283D01*
X530518Y234616D01*
X528519D01*
X532518Y233283D02*
Y237282D01*
X534517D01*
X535183Y236616D01*
Y235283D01*
X534517Y234616D01*
X532518D01*
X533850D02*
X535183Y233283D01*
X538516Y237282D02*
X537183D01*
X536516Y236616D01*
Y233950D01*
X537183Y233283D01*
X538516D01*
X539182Y233950D01*
Y236616D01*
X538516Y237282D01*
X543181Y236616D02*
X542514Y237282D01*
X541182D01*
X540515Y236616D01*
Y233950D01*
X541182Y233283D01*
X542514D01*
X543181Y233950D01*
Y235283D01*
X541848D01*
X337662Y172827D02*
Y169495D01*
X338328Y168828D01*
X339661D01*
X340328Y169495D01*
Y172827D01*
X341660Y168828D02*
Y171494D01*
X342993Y172827D01*
X344326Y171494D01*
Y168828D01*
Y170828D01*
X341660D01*
X345659Y168828D02*
Y172827D01*
X347658D01*
X348325Y172161D01*
Y170828D01*
X347658Y170161D01*
X345659D01*
X346992D02*
X348325Y168828D01*
X349658Y172827D02*
X352324D01*
X350991D01*
Y168828D01*
X330331Y165629D02*
Y161630D01*
X332330D01*
X332997Y162296D01*
Y162963D01*
X332330Y163629D01*
X330331D01*
X332330D01*
X332997Y164296D01*
Y164962D01*
X332330Y165629D01*
X330331D01*
X334329Y161630D02*
Y165629D01*
X336329D01*
X336995Y164962D01*
Y163629D01*
X336329Y162963D01*
X334329D01*
X335662D02*
X336995Y161630D01*
X338328Y165629D02*
X339661D01*
X338995D01*
Y161630D01*
X338328D01*
X339661D01*
X341660Y165629D02*
Y161630D01*
X343660D01*
X344326Y162296D01*
Y164962D01*
X343660Y165629D01*
X341660D01*
X348325Y164962D02*
X347658Y165629D01*
X346326D01*
X345659Y164962D01*
Y162296D01*
X346326Y161630D01*
X347658D01*
X348325Y162296D01*
Y163629D01*
X346992D01*
X352324Y165629D02*
X349658D01*
Y161630D01*
X352324D01*
X349658Y163629D02*
X350991D01*
X118717Y29948D02*
Y33947D01*
X120716D01*
X121382Y33280D01*
Y31947D01*
X120716Y31281D01*
X118717D01*
X122715Y33947D02*
Y31281D01*
X124048Y29948D01*
X125381Y31281D01*
Y33947D01*
X130713Y29948D02*
Y33947D01*
X132712D01*
X133379Y33280D01*
Y31947D01*
X132712Y31281D01*
X130713D01*
X134711Y29948D02*
Y32614D01*
X136044Y33947D01*
X137377Y32614D01*
Y29948D01*
Y31947D01*
X134711D01*
X138710Y29948D02*
Y33947D01*
X141376Y29948D01*
Y33947D01*
X145375D02*
X142709D01*
Y29948D01*
X145375D01*
X142709Y31947D02*
X144042D01*
X146707Y33947D02*
Y29948D01*
X149373D01*
X154705Y33947D02*
X156038D01*
X155371D01*
Y29948D01*
X154705D01*
X156038D01*
X158037D02*
Y33947D01*
X160703Y29948D01*
Y33947D01*
X162036Y32614D02*
X162702D01*
Y31947D01*
X162036D01*
Y32614D01*
Y30615D02*
X162702D01*
Y29948D01*
X162036D01*
Y30615D01*
X169367Y29948D02*
X170700D01*
X170033D01*
Y33947D01*
X169367Y33280D01*
X172699D02*
X173366Y33947D01*
X174698D01*
X175365Y33280D01*
Y30615D01*
X174698Y29948D01*
X173366D01*
X172699Y30615D01*
Y33280D01*
X176698Y33947D02*
Y31281D01*
X178031Y29948D01*
X179364Y31281D01*
Y33947D01*
X184695Y31947D02*
X187361D01*
X192693Y33280D02*
X193359Y33947D01*
X194692D01*
X195359Y33280D01*
Y32614D01*
X194692Y31947D01*
X194026D01*
X194692D01*
X195359Y31281D01*
Y30615D01*
X194692Y29948D01*
X193359D01*
X192693Y30615D01*
X199357Y29948D02*
X196691D01*
X199357Y32614D01*
Y33280D01*
X198691Y33947D01*
X197358D01*
X196691Y33280D01*
X200690Y33947D02*
Y31281D01*
X202023Y29948D01*
X203356Y31281D01*
Y33947D01*
X118717Y26748D02*
Y23416D01*
X119383Y22750D01*
X120716D01*
X121382Y23416D01*
Y26748D01*
X125381Y26082D02*
X124715Y26748D01*
X123382D01*
X122715Y26082D01*
Y25416D01*
X123382Y24749D01*
X124715D01*
X125381Y24083D01*
Y23416D01*
X124715Y22750D01*
X123382D01*
X122715Y23416D01*
X129380Y26748D02*
X126714D01*
Y22750D01*
X129380D01*
X126714Y24749D02*
X128047D01*
X137377Y26748D02*
X136044Y26082D01*
X134711Y24749D01*
Y23416D01*
X135378Y22750D01*
X136711D01*
X137377Y23416D01*
Y24083D01*
X136711Y24749D01*
X134711D01*
X138710Y26748D02*
Y24083D01*
X140043Y22750D01*
X141376Y24083D01*
Y26748D01*
X149373Y26082D02*
X148707Y26748D01*
X147374D01*
X146707Y26082D01*
Y25416D01*
X147374Y24749D01*
X148707D01*
X149373Y24083D01*
Y23416D01*
X148707Y22750D01*
X147374D01*
X146707Y23416D01*
X150706Y26748D02*
Y22750D01*
X153372D01*
X154705D02*
Y25416D01*
X156038Y26748D01*
X157371Y25416D01*
Y22750D01*
Y24749D01*
X154705D01*
X162702Y26748D02*
Y22750D01*
X164702D01*
X165368Y23416D01*
Y24083D01*
X164702Y24749D01*
X162702D01*
X164702D01*
X165368Y25416D01*
Y26082D01*
X164702Y26748D01*
X162702D01*
X166701Y22750D02*
Y25416D01*
X168034Y26748D01*
X169367Y25416D01*
Y22750D01*
Y24749D01*
X166701D01*
X170700Y26748D02*
X173366D01*
X172033D01*
Y22750D01*
X174698Y26748D02*
X177364D01*
X176031D01*
Y22750D01*
X181363Y26748D02*
X178697D01*
Y22750D01*
X181363D01*
X178697Y24749D02*
X180030D01*
X182696Y22750D02*
Y26748D01*
X184695D01*
X185362Y26082D01*
Y24749D01*
X184695Y24083D01*
X182696D01*
X184029D02*
X185362Y22750D01*
X186695Y26748D02*
Y26082D01*
X188028Y24749D01*
X189360Y26082D01*
Y26748D01*
X188028Y24749D02*
Y22750D01*
X191360Y22083D02*
X192026Y22750D01*
Y23416D01*
X191360D01*
Y22750D01*
X192026D01*
X191360Y22083D01*
X190693Y21417D01*
X198691Y22750D02*
X200690Y24749D01*
X198691Y26748D01*
X204022Y22750D02*
Y26748D01*
X202023Y24749D01*
X204689D01*
X206022Y22750D02*
Y25416D01*
X207355Y26748D01*
X208687Y25416D01*
Y22750D01*
Y24749D01*
X206022D01*
X210020Y26748D02*
Y22750D01*
Y24749D01*
X212686D01*
Y26748D01*
Y22750D01*
X118717Y15551D02*
Y18217D01*
X120049Y19550D01*
X121382Y18217D01*
Y15551D01*
Y17551D01*
X118717D01*
X122715Y19550D02*
Y15551D01*
X124715D01*
X125381Y16218D01*
Y18883D01*
X124715Y19550D01*
X122715D01*
X129380D02*
X128047D01*
X128713D01*
Y16218D01*
X128047Y15551D01*
X127380D01*
X126714Y16218D01*
X134711Y19550D02*
Y16884D01*
X136044Y15551D01*
X137377Y16884D01*
Y19550D01*
X138710Y15551D02*
Y19550D01*
X140709D01*
X141376Y18883D01*
Y17551D01*
X140709Y16884D01*
X138710D01*
X140043D02*
X141376Y15551D01*
X145375D02*
X142709D01*
X145375Y18217D01*
Y18883D01*
X144708Y19550D01*
X143375D01*
X142709Y18883D01*
X146707D02*
X147374Y19550D01*
X148707D01*
X149373Y18883D01*
Y16218D01*
X148707Y15551D01*
X147374D01*
X146707Y16218D01*
Y18883D01*
X150706D02*
X151373Y19550D01*
X152706D01*
X153372Y18883D01*
Y16218D01*
X152706Y15551D01*
X151373D01*
X150706Y16218D01*
Y18883D01*
X161369Y19550D02*
X158704D01*
Y17551D01*
X160037D01*
X158704D01*
Y15551D01*
X164702Y19550D02*
X163369D01*
X162702Y18883D01*
Y16218D01*
X163369Y15551D01*
X164702D01*
X165368Y16218D01*
Y18883D01*
X164702Y19550D01*
X166701Y15551D02*
Y19550D01*
X168700D01*
X169367Y18883D01*
Y17551D01*
X168700Y16884D01*
X166701D01*
X168034D02*
X169367Y15551D01*
X177364D02*
X174698D01*
X177364Y18217D01*
Y18883D01*
X176698Y19550D01*
X175365D01*
X174698Y18883D01*
X178697Y15551D02*
Y16218D01*
X179364D01*
Y15551D01*
X178697D01*
X182029Y18883D02*
X182696Y19550D01*
X184029D01*
X184695Y18883D01*
Y18217D01*
X184029Y17551D01*
X184695Y16884D01*
Y16218D01*
X184029Y15551D01*
X182696D01*
X182029Y16218D01*
Y16884D01*
X182696Y17551D01*
X182029Y18217D01*
Y18883D01*
X182696Y17551D02*
X184029D01*
X186028Y19550D02*
Y16884D01*
X187361Y15551D01*
X188694Y16884D01*
Y19550D01*
X196025Y16884D02*
Y17551D01*
X195359D01*
Y16884D01*
X196025D01*
X196691Y17551D01*
Y18883D01*
X196025Y19550D01*
X194692D01*
X194026Y18883D01*
Y16218D01*
X194692Y15551D01*
X196691D01*
X202023Y19550D02*
Y16884D01*
X203356Y15551D01*
X204689Y16884D01*
Y19550D01*
X206022D02*
X207355D01*
X206688D01*
Y15551D01*
X206022D01*
X207355D01*
X209354D02*
Y19550D01*
X212020Y15551D01*
Y19550D01*
X216019D02*
X213353D01*
Y17551D01*
X214686D01*
X213353D01*
Y15551D01*
X217351Y19550D02*
Y15551D01*
X219351D01*
X220017Y16218D01*
Y16884D01*
X219351Y17551D01*
X217351D01*
X219351D01*
X220017Y18217D01*
Y18883D01*
X219351Y19550D01*
X217351D01*
X118717Y8353D02*
Y12352D01*
X120716D01*
X121382Y11685D01*
Y10352D01*
X120716Y9686D01*
X118717D01*
X122715Y12352D02*
Y9686D01*
X124048Y8353D01*
X125381Y9686D01*
Y12352D01*
X126714Y8353D02*
X129380Y11019D01*
X130713Y12352D02*
Y8353D01*
X132712D01*
X133379Y9019D01*
Y9686D01*
X132712Y10352D01*
X130713D01*
X132712D01*
X133379Y11019D01*
Y11685D01*
X132712Y12352D01*
X130713D01*
X134711Y8353D02*
Y11019D01*
X136044Y12352D01*
X137377Y11019D01*
Y8353D01*
Y10352D01*
X134711D01*
X138710Y12352D02*
X141376D01*
X140043D01*
Y8353D01*
X149373Y11685D02*
X148707Y12352D01*
X147374D01*
X146707Y11685D01*
Y9019D01*
X147374Y8353D01*
X148707D01*
X149373Y9019D01*
X152706Y12352D02*
X151373D01*
X150706Y11685D01*
Y9019D01*
X151373Y8353D01*
X152706D01*
X153372Y9019D01*
Y11685D01*
X152706Y12352D01*
X154705Y8353D02*
Y12352D01*
X157371Y8353D01*
Y12352D01*
X158704Y8353D02*
Y12352D01*
X161369Y8353D01*
Y12352D01*
X166701D02*
X168034D01*
X167367D01*
Y8353D01*
X166701D01*
X168034D01*
X172699Y11685D02*
X172033Y12352D01*
X170700D01*
X170033Y11685D01*
Y11019D01*
X170700Y10352D01*
X172033D01*
X172699Y9686D01*
Y9019D01*
X172033Y8353D01*
X170700D01*
X170033Y9019D01*
X178031Y11685D02*
X178697Y12352D01*
X180030D01*
X180696Y11685D01*
Y11019D01*
X180030Y10352D01*
X179364D01*
X180030D01*
X180696Y9686D01*
Y9019D01*
X180030Y8353D01*
X178697D01*
X178031Y9019D01*
X182029Y8353D02*
Y9019D01*
X182696D01*
Y8353D01*
X182029D01*
X188028Y12352D02*
X185362D01*
Y10352D01*
X186695Y11019D01*
X187361D01*
X188028Y10352D01*
Y9019D01*
X187361Y8353D01*
X186028D01*
X185362Y9019D01*
X189360Y8353D02*
Y12352D01*
X190693Y11019D01*
X192026Y12352D01*
Y8353D01*
X193359D02*
Y12352D01*
X194692Y11019D01*
X196025Y12352D01*
Y8353D01*
X201357D02*
Y12352D01*
X203356D01*
X204022Y11685D01*
Y10352D01*
X203356Y9686D01*
X201357D01*
X205355Y12352D02*
Y8353D01*
Y10352D01*
X208021D01*
Y12352D01*
Y8353D01*
X212020Y12352D02*
X209354D01*
Y8353D01*
X212020D01*
X209354Y10352D02*
X210687D01*
X215352Y12352D02*
X214019D01*
X213353Y11685D01*
Y9019D01*
X214019Y8353D01*
X215352D01*
X216019Y9019D01*
Y11685D01*
X215352Y12352D01*
X217351Y8353D02*
Y12352D01*
X220017Y8353D01*
Y12352D01*
X221350D02*
X222683D01*
X222017D01*
Y8353D01*
X221350D01*
X222683D01*
X224682Y12352D02*
X227348Y8353D01*
Y12352D02*
X224682Y8353D01*
X524319Y128937D02*
X521654D01*
X524319Y131603D01*
Y132269D01*
X523653Y132936D01*
X522320D01*
X521654Y132269D01*
X525652D02*
X526319Y132936D01*
X527652D01*
X528318Y132269D01*
Y129603D01*
X527652Y128937D01*
X526319D01*
X525652Y129603D01*
Y132269D01*
X532480Y128937D02*
X533813D01*
X533147D01*
Y132936D01*
X532480Y132269D01*
X535813Y129603D02*
X536479Y128937D01*
X537812D01*
X538478Y129603D01*
Y132269D01*
X537812Y132936D01*
X536479D01*
X535813Y132269D01*
Y131603D01*
X536479Y130936D01*
X538478D01*
X526878Y20669D02*
X524213D01*
X526878Y23335D01*
Y24002D01*
X526212Y24668D01*
X524879D01*
X524213Y24002D01*
X535433Y20669D02*
X536766D01*
X536099D01*
Y24668D01*
X535433Y24002D01*
X465432Y135494D02*
X463433D01*
X462433Y134494D01*
Y130496D01*
X463433Y129496D01*
X465432D01*
X466432Y130496D01*
Y134494D01*
X465432Y135494D01*
X468431D02*
Y131495D01*
X470431Y129496D01*
X472430Y131495D01*
Y135494D01*
X478428D02*
X474429D01*
Y132495D01*
X476429Y133495D01*
X477428D01*
X478428Y132495D01*
Y130496D01*
X477428Y129496D01*
X475429D01*
X474429Y130496D01*
X484426Y135494D02*
X482427Y134494D01*
X480427Y132495D01*
Y130496D01*
X481427Y129496D01*
X483426D01*
X484426Y130496D01*
Y131495D01*
X483426Y132495D01*
X480427D01*
X489424Y129496D02*
Y135494D01*
X486425Y132495D01*
X490424D01*
X496422Y129496D02*
X492423D01*
X496422Y133495D01*
Y134494D01*
X495422Y135494D01*
X493423D01*
X492423Y134494D01*
X46555Y214137D02*
Y211471D01*
X47888Y210138D01*
X49221Y211471D01*
Y214137D01*
X50554D02*
X51887D01*
X51220D01*
Y210138D01*
X50554D01*
X51887D01*
X53886D02*
Y214137D01*
X56552Y210138D01*
Y214137D01*
X64549Y213470D02*
X63883Y214137D01*
X62550D01*
X61883Y213470D01*
Y212804D01*
X62550Y212137D01*
X63883D01*
X64549Y211471D01*
Y210804D01*
X63883Y210138D01*
X62550D01*
X61883Y210804D01*
X68548Y214137D02*
X65882D01*
Y210138D01*
X68548D01*
X65882Y212137D02*
X67215D01*
X69881Y214137D02*
X72547D01*
X71214D01*
Y210138D01*
X523335Y177939D02*
X522669Y178605D01*
X521336D01*
X520669Y177939D01*
Y175273D01*
X521336Y174606D01*
X522669D01*
X523335Y175273D01*
Y176606D01*
X522002D01*
X524668Y174606D02*
Y178605D01*
X527334Y174606D01*
Y178605D01*
X528667D02*
Y174606D01*
X530666D01*
X531332Y175273D01*
Y177939D01*
X530666Y178605D01*
X528667D01*
X138583Y188251D02*
Y185585D01*
X139916Y184252D01*
X141249Y185585D01*
Y188251D01*
X142581D02*
X143914D01*
X143248D01*
Y184252D01*
X142581D01*
X143914D01*
X145914D02*
Y188251D01*
X148579Y184252D01*
Y188251D01*
X152578D02*
X149912D01*
Y186251D01*
X151245D01*
X149912D01*
Y184252D01*
X153911Y188251D02*
Y184252D01*
X155910D01*
X156577Y184918D01*
Y185585D01*
X155910Y186251D01*
X153911D01*
X155910D01*
X156577Y186918D01*
Y187584D01*
X155910Y188251D01*
X153911D01*
X155512Y210298D02*
Y207632D01*
X156845Y206299D01*
X158178Y207632D01*
Y210298D01*
X162176D02*
X159511D01*
Y208299D01*
X160843D01*
X159511D01*
Y206299D01*
X163509Y210298D02*
Y206299D01*
X165509D01*
X166175Y206966D01*
Y207632D01*
X165509Y208299D01*
X163509D01*
X165509D01*
X166175Y208965D01*
Y209631D01*
X165509Y210298D01*
X163509D01*
X155512Y224471D02*
Y221805D01*
X156845Y220472D01*
X158178Y221805D01*
Y224471D01*
X159511D02*
Y220472D01*
X161510D01*
X162176Y221139D01*
Y221805D01*
X161510Y222472D01*
X159511D01*
X161510D01*
X162176Y223138D01*
Y223805D01*
X161510Y224471D01*
X159511D01*
X163509D02*
X164842D01*
X164176D01*
Y220472D01*
X163509D01*
X164842D01*
X164477Y237191D02*
X163810Y237857D01*
X162478D01*
X161811Y237191D01*
Y234525D01*
X162478Y233858D01*
X163810D01*
X164477Y234525D01*
Y235858D01*
X163144D01*
X165810Y233858D02*
Y237857D01*
X168475Y233858D01*
Y237857D01*
X169808D02*
Y233858D01*
X171808D01*
X172474Y234525D01*
Y237191D01*
X171808Y237857D01*
X169808D01*
X150394Y233858D02*
Y237857D01*
X152393D01*
X153059Y237191D01*
Y235858D01*
X152393Y235191D01*
X150394D01*
X154392Y237857D02*
Y235191D01*
X155725Y233858D01*
X157058Y235191D01*
Y237857D01*
X136918Y237191D02*
X136251Y237857D01*
X134918D01*
X134252Y237191D01*
Y234525D01*
X134918Y233858D01*
X136251D01*
X136918Y234525D01*
Y235858D01*
X135585D01*
X138251Y233858D02*
Y237857D01*
X140917Y233858D01*
Y237857D01*
X142249D02*
Y233858D01*
X144249D01*
X144915Y234525D01*
Y237191D01*
X144249Y237857D01*
X142249D01*
X329345Y247154D02*
X328678Y246487D01*
Y245155D01*
X329345Y244488D01*
X332011D01*
X332677Y245155D01*
Y246487D01*
X332011Y247154D01*
X330678D01*
Y245821D01*
X332677Y248487D02*
X328678D01*
X332677Y251153D01*
X328678D01*
Y252486D02*
X332677D01*
Y254485D01*
X332011Y255151D01*
X329345D01*
X328678Y254485D01*
Y252486D01*
X310630Y254513D02*
X311296Y255180D01*
X312629D01*
X313296Y254513D01*
Y253847D01*
X312629Y253181D01*
X311963D01*
X312629D01*
X313296Y252514D01*
Y251848D01*
X312629Y251181D01*
X311296D01*
X310630Y251848D01*
X314629Y255180D02*
Y252514D01*
X315962Y251181D01*
X317294Y252514D01*
Y255180D01*
X318627Y254513D02*
X319294Y255180D01*
X320627D01*
X321293Y254513D01*
Y253847D01*
X320627Y253181D01*
X319960D01*
X320627D01*
X321293Y252514D01*
Y251848D01*
X320627Y251181D01*
X319294D01*
X318627Y251848D01*
X189764Y237857D02*
Y233858D01*
X191763D01*
X192430Y234525D01*
Y235191D01*
X191763Y235858D01*
X189764D01*
X191763D01*
X192430Y236524D01*
Y237191D01*
X191763Y237857D01*
X189764D01*
X193763Y233858D02*
Y236524D01*
X195095Y237857D01*
X196428Y236524D01*
Y233858D01*
Y235858D01*
X193763D01*
X197761Y237857D02*
X200427D01*
X199094D01*
Y233858D01*
X175591D02*
Y237857D01*
X178256Y233858D01*
Y237857D01*
X179589D02*
X182255D01*
X180922D01*
Y233858D01*
X186254Y237191D02*
X185587Y237857D01*
X184254D01*
X183588Y237191D01*
Y234525D01*
X184254Y233858D01*
X185587D01*
X186254Y234525D01*
X520866Y164173D02*
Y168172D01*
X522865D01*
X523532Y167506D01*
Y166173D01*
X522865Y165506D01*
X520866D01*
X522199D02*
X523532Y164173D01*
X524865Y168172D02*
X527531D01*
X526198D01*
Y164173D01*
X531529Y167506D02*
X530863Y168172D01*
X529530D01*
X528864Y167506D01*
Y166839D01*
X529530Y166173D01*
X530863D01*
X531529Y165506D01*
Y164840D01*
X530863Y164173D01*
X529530D01*
X528864Y164840D01*
X524606Y208723D02*
X527272D01*
X525939D01*
Y204724D01*
X528605Y208723D02*
X531271Y204724D01*
Y208723D02*
X528605Y204724D01*
X524606Y214567D02*
Y218566D01*
X526606D01*
X527272Y217899D01*
Y216566D01*
X526606Y215900D01*
X524606D01*
X525939D02*
X527272Y214567D01*
X528605Y218566D02*
X531271Y214567D01*
Y218566D02*
X528605Y214567D01*
X520669Y228408D02*
Y224410D01*
X522669D01*
X523335Y225076D01*
Y227742D01*
X522669Y228408D01*
X520669D01*
X524668D02*
X527334D01*
X526001D01*
Y224410D01*
X528667D02*
Y228408D01*
X530666D01*
X531332Y227742D01*
Y226409D01*
X530666Y225742D01*
X528667D01*
X530000D02*
X531332Y224410D01*
X474803Y176046D02*
X477469D01*
X476136D01*
Y172047D01*
X478802Y176046D02*
X481468Y172047D01*
Y176046D02*
X478802Y172047D01*
X489764D02*
Y176046D01*
X491763D01*
X492430Y175380D01*
Y174047D01*
X491763Y173380D01*
X489764D01*
X491097D02*
X492430Y172047D01*
X493762Y176046D02*
X496428Y172047D01*
Y176046D02*
X493762Y172047D01*
X513779Y212205D02*
X509781D01*
Y214204D01*
X510447Y214871D01*
X511780D01*
X512447Y214204D01*
Y212205D01*
Y213538D02*
X513779Y214871D01*
X509781Y218869D02*
Y216203D01*
X513779D01*
Y218869D01*
X511780Y216203D02*
Y217536D01*
X510447Y222868D02*
X509781Y222201D01*
Y220869D01*
X510447Y220202D01*
X511114D01*
X511780Y220869D01*
Y222201D01*
X512447Y222868D01*
X513113D01*
X513779Y222201D01*
Y220869D01*
X513113Y220202D01*
X509781Y226867D02*
Y224201D01*
X513779D01*
Y226867D01*
X511780Y224201D02*
Y225534D01*
X509781Y228200D02*
Y230865D01*
Y229533D01*
X513779D01*
X358563Y189848D02*
X359229Y190515D01*
X360562D01*
X361229Y189848D01*
Y189181D01*
X360562Y188515D01*
X359896D01*
X360562D01*
X361229Y187849D01*
Y187182D01*
X360562Y186516D01*
X359229D01*
X358563Y187182D01*
X362562Y190515D02*
Y187849D01*
X363895Y186516D01*
X365228Y187849D01*
Y190515D01*
X366560Y189848D02*
X367227Y190515D01*
X368560D01*
X369226Y189848D01*
Y189181D01*
X368560Y188515D01*
X367893D01*
X368560D01*
X369226Y187849D01*
Y187182D01*
X368560Y186516D01*
X367227D01*
X366560Y187182D01*
X230315Y202756D02*
Y206755D01*
X232314D01*
X232981Y206088D01*
Y204755D01*
X232314Y204089D01*
X230315D01*
X231648D02*
X232981Y202756D01*
X236980Y206755D02*
X234314D01*
Y202756D01*
X236980D01*
X234314Y204755D02*
X235647D01*
X240978Y206088D02*
X240312Y206755D01*
X238979D01*
X238312Y206088D01*
Y205422D01*
X238979Y204755D01*
X240312D01*
X240978Y204089D01*
Y203422D01*
X240312Y202756D01*
X238979D01*
X238312Y203422D01*
X244977Y206755D02*
X242311D01*
Y202756D01*
X244977D01*
X242311Y204755D02*
X243644D01*
X246310Y206755D02*
X248976D01*
X247643D01*
Y202756D01*
X414099Y213719D02*
X410100D01*
Y207720D01*
X414099D01*
X410100Y210719D02*
X412100D01*
X420097Y212719D02*
X419097Y213719D01*
X417098D01*
X416098Y212719D01*
Y211719D01*
X417098Y210719D01*
X419097D01*
X420097Y209720D01*
Y208720D01*
X419097Y207720D01*
X417098D01*
X416098Y208720D01*
X422096Y207720D02*
Y213719D01*
X425095D01*
X426095Y212719D01*
Y210719D01*
X425095Y209720D01*
X422096D01*
X428094Y210719D02*
X432093D01*
X434092Y207720D02*
X436092D01*
X435092D01*
Y213719D01*
X434092Y212719D01*
X443089Y207720D02*
X439091D01*
X443089Y211719D01*
Y212719D01*
X442090Y213719D01*
X440091D01*
X439091Y212719D01*
X445089Y210719D02*
X449088D01*
X455086Y213719D02*
X451087D01*
Y207720D01*
X455086D01*
X451087Y210719D02*
X453086D01*
X508965Y150872D02*
X508299Y151538D01*
X506966D01*
X506299Y150872D01*
Y148206D01*
X506966Y147539D01*
X508299D01*
X508965Y148206D01*
Y149539D01*
X507632D01*
X510298Y147539D02*
Y151538D01*
X512964Y147539D01*
Y151538D01*
X514297D02*
Y147539D01*
X516296D01*
X516962Y148206D01*
Y150872D01*
X516296Y151538D01*
X514297D01*
X299030Y247154D02*
X298363Y246487D01*
Y245155D01*
X299030Y244488D01*
X301696D01*
X302362Y245155D01*
Y246487D01*
X301696Y247154D01*
X300363D01*
Y245821D01*
X302362Y248487D02*
X298363D01*
X302362Y251153D01*
X298363D01*
Y252486D02*
X302362D01*
Y254485D01*
X301696Y255151D01*
X299030D01*
X298363Y254485D01*
Y252486D01*
X63591Y121639D02*
X62924Y122306D01*
X61592D01*
X60925Y121639D01*
Y118974D01*
X61592Y118307D01*
X62924D01*
X63591Y118974D01*
Y120306D01*
X62258D01*
X64924Y118307D02*
Y122306D01*
X67590Y118307D01*
Y122306D01*
X68923D02*
Y118307D01*
X70922D01*
X71588Y118974D01*
Y121639D01*
X70922Y122306D01*
X68923D01*
X444300Y144966D02*
X443633Y145633D01*
X442300D01*
X441634Y144966D01*
Y144300D01*
X442300Y143633D01*
X443633D01*
X444300Y142967D01*
Y142300D01*
X443633Y141634D01*
X442300D01*
X441634Y142300D01*
X445633Y141634D02*
Y145633D01*
X447632D01*
X448298Y144966D01*
Y143633D01*
X447632Y142967D01*
X445633D01*
X452297Y145633D02*
X449631D01*
Y141634D01*
X452297D01*
X449631Y143633D02*
X450964D01*
X456296Y144966D02*
X455629Y145633D01*
X454296D01*
X453630Y144966D01*
Y142300D01*
X454296Y141634D01*
X455629D01*
X456296Y142300D01*
X457629Y145633D02*
X460294D01*
X458962D01*
Y141634D01*
X461627D02*
X462960D01*
X462294D01*
Y145633D01*
X461627Y144966D01*
X417922D02*
X417255Y145633D01*
X415922D01*
X415256Y144966D01*
Y144300D01*
X415922Y143633D01*
X417255D01*
X417922Y142967D01*
Y142300D01*
X417255Y141634D01*
X415922D01*
X415256Y142300D01*
X419255Y141634D02*
Y145633D01*
X421254D01*
X421920Y144966D01*
Y143633D01*
X421254Y142967D01*
X419255D01*
X425919Y145633D02*
X423253D01*
Y141634D01*
X425919D01*
X423253Y143633D02*
X424586D01*
X429918Y144966D02*
X429251Y145633D01*
X427918D01*
X427252Y144966D01*
Y142300D01*
X427918Y141634D01*
X429251D01*
X429918Y142300D01*
X431251Y145633D02*
X433917D01*
X432584D01*
Y141634D01*
X435250Y144966D02*
X435916Y145633D01*
X437249D01*
X437915Y144966D01*
Y142300D01*
X437249Y141634D01*
X435916D01*
X435250Y142300D01*
Y144966D01*
X103754Y36524D02*
X103088Y35858D01*
Y34525D01*
X103754Y33858D01*
X106420D01*
X107087Y34525D01*
Y35858D01*
X106420Y36524D01*
X105087D01*
Y35191D01*
X107087Y37857D02*
X103088D01*
X107087Y40523D01*
X103088D01*
Y41856D02*
X107087D01*
Y43855D01*
X106420Y44521D01*
X103754D01*
X103088Y43855D01*
Y41856D01*
X14969Y237486D02*
X14302Y238152D01*
X12970D01*
X12303Y237486D01*
Y234820D01*
X12970Y234154D01*
X14302D01*
X14969Y234820D01*
Y236153D01*
X13636D01*
X16302Y234154D02*
Y238152D01*
X18968Y234154D01*
Y238152D01*
X20301D02*
Y234154D01*
X22300D01*
X22966Y234820D01*
Y237486D01*
X22300Y238152D01*
X20301D01*
X11524Y141128D02*
X10858Y141794D01*
X9525D01*
X8858Y141128D01*
Y140461D01*
X9525Y139795D01*
X10858D01*
X11524Y139128D01*
Y138462D01*
X10858Y137795D01*
X9525D01*
X8858Y138462D01*
X12857Y141794D02*
Y137795D01*
X14856D01*
X15523Y138462D01*
Y141128D01*
X14856Y141794D01*
X12857D01*
X16856Y137795D02*
Y140461D01*
X18189Y141794D01*
X19522Y140461D01*
Y137795D01*
Y139795D01*
X16856D01*
X11524Y126364D02*
X10858Y127030D01*
X9525D01*
X8858Y126364D01*
Y125697D01*
X9525Y125031D01*
X10858D01*
X11524Y124364D01*
Y123698D01*
X10858Y123031D01*
X9525D01*
X8858Y123698D01*
X15523Y126364D02*
X14856Y127030D01*
X13523D01*
X12857Y126364D01*
Y123698D01*
X13523Y123031D01*
X14856D01*
X15523Y123698D01*
X16856Y127030D02*
Y123031D01*
X19522D01*
X8661Y108268D02*
Y110933D01*
X9994Y112266D01*
X11327Y110933D01*
Y108268D01*
Y110267D01*
X8661D01*
X12660Y112266D02*
Y108268D01*
X15326D01*
X19325Y112266D02*
X16659D01*
Y108268D01*
X19325D01*
X16659Y110267D02*
X17992D01*
X20658Y108268D02*
Y112266D01*
X22657D01*
X23323Y111600D01*
Y110267D01*
X22657Y109601D01*
X20658D01*
X21991D02*
X23323Y108268D01*
X24656Y112266D02*
X27322D01*
X25989D01*
Y108268D01*
X11524Y173608D02*
X10858Y174274D01*
X9525D01*
X8858Y173608D01*
Y170942D01*
X9525Y170276D01*
X10858D01*
X11524Y170942D01*
X12857Y174274D02*
Y170276D01*
Y172275D01*
X15523D01*
Y174274D01*
Y170276D01*
X16856D02*
Y174274D01*
X18855D01*
X19522Y173608D01*
Y172275D01*
X18855Y171608D01*
X16856D01*
X18189D02*
X19522Y170276D01*
X23520Y173608D02*
X22854Y174274D01*
X21521D01*
X20854Y173608D01*
Y170942D01*
X21521Y170276D01*
X22854D01*
X23520Y170942D01*
Y172275D01*
X22187D01*
X11524Y157542D02*
X8858D01*
Y155543D01*
X10191D01*
X8858D01*
Y153543D01*
X12857D02*
Y156209D01*
X14190Y157542D01*
X15523Y156209D01*
Y153543D01*
Y155543D01*
X12857D01*
X16856Y157542D02*
Y154210D01*
X17522Y153543D01*
X18855D01*
X19522Y154210D01*
Y157542D01*
X20854D02*
Y153543D01*
X23520D01*
X24853Y157542D02*
X27519D01*
X26186D01*
Y153543D01*
X24621Y186524D02*
X23954Y185858D01*
Y184525D01*
X24621Y183858D01*
X25287D01*
X25953Y184525D01*
Y185858D01*
X26620Y186524D01*
X27286D01*
X27953Y185858D01*
Y184525D01*
X27286Y183858D01*
X23954Y187857D02*
X27953D01*
X25953D01*
Y190523D01*
X23954D01*
X27953D01*
X23954Y191856D02*
X27953D01*
Y193855D01*
X27286Y194521D01*
X24621D01*
X23954Y193855D01*
Y191856D01*
X27953Y195854D02*
X23954D01*
X27953Y198520D01*
X23954D01*
X28619Y199853D02*
Y202519D01*
X23954Y206518D02*
Y203852D01*
X27953D01*
Y206518D01*
X25953Y203852D02*
Y205185D01*
X27953Y207851D02*
X23954D01*
X27953Y210516D01*
X23954D01*
X61811Y52818D02*
Y48819D01*
X63810D01*
X64477Y49485D01*
Y50152D01*
X63810Y50818D01*
X61811D01*
X63810D01*
X64477Y51485D01*
Y52151D01*
X63810Y52818D01*
X61811D01*
X65810D02*
X68476D01*
X67143D01*
Y48819D01*
X69808D02*
Y52818D01*
X72474Y48819D01*
Y52818D01*
X73807Y52151D02*
X74474Y52818D01*
X75806D01*
X76473Y52151D01*
Y49485D01*
X75806Y48819D01*
X74474D01*
X73807Y49485D01*
Y52151D01*
X390756Y42013D02*
X390090Y42680D01*
X388757D01*
X388090Y42013D01*
Y41347D01*
X388757Y40681D01*
X390090D01*
X390756Y40014D01*
Y39348D01*
X390090Y38681D01*
X388757D01*
X388090Y39348D01*
X392089Y42680D02*
Y38681D01*
X394089D01*
X394755Y39348D01*
Y42013D01*
X394089Y42680D01*
X392089D01*
X396088Y38681D02*
Y41347D01*
X397421Y42680D01*
X398754Y41347D01*
Y38681D01*
Y40681D01*
X396088D01*
X405619Y42013D02*
X404952Y42680D01*
X403619D01*
X402953Y42013D01*
Y41347D01*
X403619Y40681D01*
X404952D01*
X405619Y40014D01*
Y39348D01*
X404952Y38681D01*
X403619D01*
X402953Y39348D01*
X409617Y42013D02*
X408951Y42680D01*
X407618D01*
X406952Y42013D01*
Y39348D01*
X407618Y38681D01*
X408951D01*
X409617Y39348D01*
X410950Y42680D02*
Y38681D01*
X413616D01*
X190157Y231558D02*
Y228892D01*
X191490Y227559D01*
X192823Y228892D01*
Y231558D01*
X194156D02*
Y227559D01*
X196156D01*
X196822Y228225D01*
Y228892D01*
X196156Y229558D01*
X194156D01*
X196156D01*
X196822Y230225D01*
Y230891D01*
X196156Y231558D01*
X194156D01*
X198155Y227559D02*
Y230225D01*
X199488Y231558D01*
X200821Y230225D01*
Y227559D01*
Y229558D01*
X198155D01*
X202154Y231558D02*
X204819D01*
X203486D01*
Y227559D01*
X356996Y31876D02*
X356330Y32542D01*
X354997D01*
X354331Y31876D01*
Y29210D01*
X354997Y28543D01*
X356330D01*
X356996Y29210D01*
Y30543D01*
X355664D01*
X358329Y28543D02*
Y32542D01*
X360995Y28543D01*
Y32542D01*
X362328D02*
Y28543D01*
X364328D01*
X364994Y29210D01*
Y31876D01*
X364328Y32542D01*
X362328D01*
X68898Y35433D02*
Y39432D01*
X70897D01*
X71563Y38765D01*
Y37432D01*
X70897Y36766D01*
X68898D01*
X70231D02*
X71563Y35433D01*
X72896Y39432D02*
X75562Y35433D01*
Y39432D02*
X72896Y35433D01*
X58661Y39432D02*
X61327D01*
X59994D01*
Y35433D01*
X62660Y39432D02*
X65326Y35433D01*
Y39432D02*
X62660Y35433D01*
X22835Y61085D02*
X25501D01*
X24168D01*
Y57087D01*
X26833Y61085D02*
X29499Y57087D01*
Y61085D02*
X26833Y57087D01*
X24016Y42913D02*
Y46912D01*
X26015D01*
X26682Y46246D01*
Y44913D01*
X26015Y44246D01*
X24016D01*
X25349D02*
X26682Y42913D01*
X28014Y46912D02*
X30680Y42913D01*
Y46912D02*
X28014Y42913D01*
X99910Y23805D02*
X99243Y24471D01*
X97910D01*
X97244Y23805D01*
Y21139D01*
X97910Y20472D01*
X99243D01*
X99910Y21139D01*
Y22472D01*
X98577D01*
X101243Y20472D02*
Y24471D01*
X103909Y20472D01*
Y24471D01*
X105242D02*
Y20472D01*
X107241D01*
X107907Y21139D01*
Y23805D01*
X107241Y24471D01*
X105242D01*
X58661Y45337D02*
Y41339D01*
X60661D01*
X61327Y42005D01*
Y44671D01*
X60661Y45337D01*
X58661D01*
X65326D02*
X62660D01*
Y41339D01*
X65326D01*
X62660Y43338D02*
X63993D01*
X66659Y45337D02*
Y41339D01*
X68658D01*
X69325Y42005D01*
Y42671D01*
X68658Y43338D01*
X66659D01*
X68658D01*
X69325Y44004D01*
Y44671D01*
X68658Y45337D01*
X66659D01*
X70658D02*
Y42005D01*
X71324Y41339D01*
X72657D01*
X73323Y42005D01*
Y45337D01*
X77322Y44671D02*
X76656Y45337D01*
X75323D01*
X74656Y44671D01*
Y42005D01*
X75323Y41339D01*
X76656D01*
X77322Y42005D01*
Y43338D01*
X75989D01*
X362500Y42778D02*
Y38780D01*
X365166D01*
X369164Y42778D02*
X366499D01*
Y38780D01*
X369164D01*
X366499Y40779D02*
X367832D01*
X370497Y42778D02*
Y38780D01*
X372497D01*
X373163Y39446D01*
Y42112D01*
X372497Y42778D01*
X370497D01*
X374496Y42112D02*
X375163Y42778D01*
X376496D01*
X377162Y42112D01*
Y39446D01*
X376496Y38780D01*
X375163D01*
X374496Y39446D01*
Y42112D01*
X282193Y185419D02*
X281527Y186085D01*
X280194D01*
X279528Y185419D01*
Y184752D01*
X280194Y184086D01*
X281527D01*
X282193Y183420D01*
Y182753D01*
X281527Y182087D01*
X280194D01*
X279528Y182753D01*
X283526Y186085D02*
Y182087D01*
X284859Y183420D01*
X286192Y182087D01*
Y186085D01*
X287525D02*
Y182087D01*
X289524D01*
X290191Y182753D01*
Y185419D01*
X289524Y186085D01*
X287525D01*
D62*
X151378Y125886D02*
Y128937D01*
X135728Y125886D02*
Y128937D01*
X119882Y125886D02*
Y128937D01*
X88386Y125984D02*
Y129035D01*
X104134Y126083D02*
Y129134D01*
Y69980D02*
Y73032D01*
X88386Y69882D02*
Y72933D01*
X119882Y69784D02*
Y72835D01*
X135728Y69784D02*
Y72835D01*
X151378Y69784D02*
Y72835D01*
X243898Y134843D02*
X246949D01*
X243898Y125000D02*
X246949D01*
X243898Y105315D02*
X246949D01*
X243898Y115157D02*
X246949D01*
X243898Y75787D02*
X246949D01*
X243898Y85630D02*
X246949D01*
X243898Y95472D02*
X246949D01*
X266732Y56890D02*
Y59941D01*
X276575Y56890D02*
Y59941D01*
X296260Y56890D02*
Y59941D01*
X286417Y56890D02*
Y59941D01*
X325787Y56890D02*
Y59941D01*
X315945Y56890D02*
Y59941D01*
X306102Y56890D02*
Y59941D01*
X288386Y156595D02*
Y159646D01*
X298228Y156595D02*
Y159646D01*
X278543Y156595D02*
Y159646D01*
X268701Y156595D02*
Y159646D01*
X308071Y156595D02*
Y159646D01*
X317913Y156595D02*
Y159646D01*
X327756Y156595D02*
Y159646D01*
X343602Y97441D02*
X346654D01*
X343602Y87598D02*
X346654D01*
X343602Y77756D02*
X346654D01*
X343602Y117126D02*
X346654D01*
X343602Y107283D02*
X346654D01*
X343602Y126969D02*
X346654D01*
X343602Y136811D02*
X346654D01*
D64*
X391535Y99508D02*
G03*
X391535Y99508I-394J0D01*
G01*
Y105610D02*
G03*
X391535Y105610I-394J0D01*
G01*
X360433Y57579D02*
G03*
X360433Y57579I-394J0D01*
G01*
X39764Y165354D02*
G03*
X39764Y165354I-394J0D01*
G01*
Y148622D02*
G03*
X39764Y148622I-394J0D01*
G01*
X326083Y225984D02*
G03*
X326083Y225984I-394J0D01*
G01*
X354252Y177402D02*
X374252D01*
X354252Y157402D02*
Y177402D01*
X374252Y157402D02*
Y177402D01*
X354252Y157402D02*
X374252D01*
X335394Y256811D02*
Y266811D01*
X295394Y256811D02*
X335394D01*
X295394Y266811D02*
X335394D01*
X295394Y256811D02*
Y266811D01*
X543386Y151378D02*
Y231378D01*
X533386D02*
X543386D01*
X533386Y151378D02*
Y231378D01*
Y151378D02*
X543386D01*
X392520Y96949D02*
Y99508D01*
Y96949D02*
X403543D01*
Y102067D01*
X392520D02*
X403543D01*
X392520Y99508D02*
Y102067D01*
Y103051D02*
Y105610D01*
Y103051D02*
X403543D01*
Y108169D01*
X392520D02*
X403543D01*
X392520Y105610D02*
Y108169D01*
X357480Y56201D02*
X360039D01*
X357480Y45177D02*
Y56201D01*
Y45177D02*
X362598D01*
Y56201D01*
X360039D02*
X362598D01*
X37992Y165354D02*
Y167913D01*
X26969D02*
X37992D01*
X26969Y162795D02*
Y167913D01*
Y162795D02*
X37992D01*
Y165354D01*
Y148622D02*
Y151181D01*
X26969D02*
X37992D01*
X26969Y146063D02*
Y151181D01*
Y146063D02*
X37992D01*
Y148622D01*
X327067Y223425D02*
Y225984D01*
Y223425D02*
X338091D01*
Y228543D01*
X327067D02*
X338091D01*
X327067Y225984D02*
Y228543D01*
X393504Y135433D02*
Y147244D01*
X402165Y135433D02*
Y147244D01*
X393504D02*
X402165D01*
X393504Y135433D02*
X402165D01*
X74803Y164764D02*
X86614D01*
X74803Y156102D02*
X86614D01*
Y164764D01*
X74803Y156102D02*
Y164764D01*
X201378Y197835D02*
Y209646D01*
X210039Y197835D02*
Y209646D01*
X201378D02*
X210039D01*
X201378Y197835D02*
X210039D01*
X78937Y80709D02*
Y118110D01*
X167126Y80709D02*
Y118110D01*
X78937Y80709D02*
X167126D01*
X78937Y118110D02*
X167126D01*
X245866Y235236D02*
Y244291D01*
X258071Y235236D02*
Y244291D01*
X49016Y265945D02*
Y266535D01*
X67126Y265945D02*
Y266535D01*
X49016Y255118D02*
Y255709D01*
X67126Y255118D02*
Y255709D01*
X49016Y266535D02*
X67126D01*
X49016Y255118D02*
X67126D01*
X82874Y250883D02*
X83465D01*
X82874Y232773D02*
X83465D01*
X72047Y250883D02*
X72638D01*
X72047Y232773D02*
X72638D01*
X83465D02*
Y250883D01*
X72047Y232773D02*
Y250883D01*
X349803Y220079D02*
X354921D01*
X349803D02*
Y223228D01*
Y231890D02*
X354921D01*
X349803Y228740D02*
Y231890D01*
Y234252D02*
X354921D01*
X349803D02*
Y237402D01*
Y246063D02*
X354921D01*
X349803Y242913D02*
Y246063D01*
X83661Y217126D02*
Y222244D01*
X80512Y217126D02*
X83661D01*
X71850D02*
Y222244D01*
Y217126D02*
X75000D01*
X116339Y208858D02*
Y217913D01*
X100197Y208858D02*
Y217913D01*
D87*
X172047Y215551D02*
G03*
X172047Y215551I-492J0D01*
G01*
X195965Y194980D02*
G03*
X195965Y194980I-492J0D01*
G01*
X205709Y156004D02*
G03*
X205709Y156004I-492J0D01*
G01*
X392618Y148721D02*
G03*
X392618Y148721I-492J0D01*
G01*
X88583Y166142D02*
G03*
X88583Y166142I-492J0D01*
G01*
X200492Y211122D02*
G03*
X200492Y211122I-492J0D01*
G01*
X167717Y122047D02*
G03*
X167717Y122047I-492J0D01*
G01*
X245768Y231004D02*
G03*
X245768Y231004I-492J0D01*
G01*
X253150Y145571D02*
G03*
X253150Y145571I-492J0D01*
G01*
X69390Y255709D02*
G03*
X69390Y255709I-492J0D01*
G01*
X73130Y231001D02*
G03*
X73130Y231001I-492J0D01*
G01*
X358563Y219488D02*
G03*
X358563Y219488I-492J0D01*
G01*
Y233661D02*
G03*
X358563Y233661I-492J0D01*
G01*
X84744Y225394D02*
G03*
X84744Y225394I-492J0D01*
G01*
X99606Y204527D02*
G03*
X99606Y204527I-492J0D01*
G01*
D88*
X214652Y239567D02*
G03*
X214652Y239567I-300J0D01*
G01*
X87898Y264764D02*
G03*
X87898Y264764I-300J0D01*
G01*
X212478Y241631D02*
Y267031D01*
X237878Y241631D02*
Y267031D01*
X88665Y233350D02*
X121965D01*
Y266650D01*
X88665D02*
X121965D01*
X88665Y233350D02*
Y266650D01*
D89*
X213287Y107874D02*
G03*
X213287Y107874I-197J0D01*
G01*
X287992Y30020D02*
G03*
X287992Y30020I-197J0D01*
G01*
X268307D02*
G03*
X268307Y30020I-197J0D01*
G01*
X213287Y127559D02*
G03*
X213287Y127559I-197J0D01*
G01*
X248721Y176772D02*
G03*
X248721Y176772I-197J0D01*
G01*
X479035Y109409D02*
G03*
X479035Y109409I-197J0D01*
G01*
Y91693D02*
G03*
X479035Y91693I-197J0D01*
G01*
Y73976D02*
G03*
X479035Y73976I-197J0D01*
G01*
X210138Y155217D02*
X222736D01*
X210138Y148327D02*
Y155217D01*
Y148327D02*
X222736D01*
Y155217D01*
X210138Y147047D02*
X222736D01*
X210138Y140157D02*
Y147047D01*
Y140157D02*
X222736D01*
Y147047D01*
X231890Y144193D02*
X244488D01*
Y151083D01*
X231890D02*
X244488D01*
X231890Y144193D02*
Y151083D01*
X164469Y62992D02*
Y66929D01*
X154429Y62992D02*
X164469D01*
X154429D02*
Y66929D01*
X164469D01*
X148721Y62992D02*
Y66929D01*
X138681Y62992D02*
X148721D01*
X138681D02*
Y66929D01*
X148721D01*
X132973Y62992D02*
Y66929D01*
X122933Y62992D02*
X132973D01*
X122933D02*
Y66929D01*
X132973D01*
X97539Y62992D02*
Y66929D01*
X87500Y62992D02*
X97539D01*
X87500D02*
Y66929D01*
X97539D01*
X154429Y131890D02*
Y135827D01*
X164469D01*
Y131890D02*
Y135827D01*
X154429Y131890D02*
X164469D01*
X138681D02*
Y135827D01*
X148721D01*
Y131890D02*
Y135827D01*
X138681Y131890D02*
X148721D01*
X122933D02*
Y135827D01*
X132973D01*
Y131890D02*
Y135827D01*
X122933Y131890D02*
X132973D01*
X87500D02*
Y135827D01*
X97539D01*
Y131890D02*
Y135827D01*
X87500Y131890D02*
X97539D01*
X277067Y233465D02*
Y237402D01*
X267028Y233465D02*
X277067D01*
X267028D02*
Y237402D01*
X277067D01*
X231201Y232283D02*
Y236221D01*
X241240D01*
Y232283D02*
Y236221D01*
X231201Y232283D02*
X241240D01*
X396654Y114862D02*
Y118799D01*
X386614Y114862D02*
X396654D01*
X386614D02*
Y118799D01*
X396654D01*
X409154Y114862D02*
Y118799D01*
X399114Y114862D02*
X409154D01*
X399114D02*
Y118799D01*
X409154D01*
X67913Y165453D02*
X71850D01*
Y155413D02*
Y165453D01*
X67913Y155413D02*
X71850D01*
X67913D02*
Y165453D01*
X214173Y191240D02*
X218110D01*
Y181201D02*
Y191240D01*
X214173Y181201D02*
X218110D01*
X214173D02*
Y191240D01*
X210039Y186909D02*
Y190847D01*
X200000Y186909D02*
X210039D01*
X200000D02*
Y190847D01*
X210039D01*
Y182087D02*
Y186024D01*
X200000Y182087D02*
X210039D01*
X200000D02*
Y186024D01*
X210039D01*
X123327Y203543D02*
Y207480D01*
X133366D01*
Y203543D02*
Y207480D01*
X123327Y203543D02*
X133366D01*
X260827Y188878D02*
X264764D01*
X260827D02*
Y198917D01*
X264764D01*
Y188878D02*
Y198917D01*
X360335Y67913D02*
Y71850D01*
X350295Y67913D02*
X360335D01*
X350295D02*
Y71850D01*
X360335D01*
X286614Y172638D02*
X290551D01*
Y162598D02*
Y172638D01*
X286614Y162598D02*
X290551D01*
X286614D02*
Y172638D01*
X305118D02*
X309055D01*
Y162598D02*
Y172638D01*
X305118Y162598D02*
X309055D01*
X305118D02*
Y172638D01*
X360531Y140157D02*
Y144095D01*
X350492Y140157D02*
X360531D01*
X350492D02*
Y144095D01*
X360531D01*
Y110630D02*
Y114567D01*
X350492Y110630D02*
X360531D01*
X350492D02*
Y114567D01*
X360531D01*
X360433Y93405D02*
Y97342D01*
X350394Y93405D02*
X360433D01*
X350394D02*
Y97342D01*
X360433D01*
X330906Y44094D02*
X334842D01*
X330906D02*
Y54134D01*
X334842D01*
Y44094D02*
Y54134D01*
X307776Y44094D02*
X311713D01*
X307776D02*
Y54134D01*
X311713D01*
Y44094D02*
Y54134D01*
X288878Y44094D02*
X292815D01*
X288878D02*
Y54134D01*
X292815D01*
Y44094D02*
Y54134D01*
X262697Y44094D02*
X266634D01*
X262697D02*
Y54134D01*
X266634D01*
Y44094D02*
Y54134D01*
X241043Y80020D02*
Y83957D01*
X231004Y80020D02*
X241043D01*
X231004D02*
Y83957D01*
X241043D01*
Y102953D02*
Y106890D01*
X231004Y102953D02*
X241043D01*
X231004D02*
Y106890D01*
X241043D01*
X243209Y153543D02*
Y157480D01*
X233169Y153543D02*
X243209D01*
X233169D02*
Y157480D01*
X243209D01*
X50295Y41339D02*
Y45276D01*
X40256Y41339D02*
X50295D01*
X40256D02*
Y45276D01*
X50295D01*
X241043Y68898D02*
Y72835D01*
X231004Y68898D02*
X241043D01*
X231004D02*
Y72835D01*
X241043D01*
X241043Y74902D02*
Y78839D01*
X231004Y74902D02*
X241043D01*
X231004D02*
Y78839D01*
X241043D01*
X212697Y156693D02*
Y160630D01*
X222736D01*
Y156693D02*
Y160630D01*
X212697Y156693D02*
X222736D01*
X212697Y135039D02*
Y138976D01*
X222736D01*
Y135039D02*
Y138976D01*
X212697Y135039D02*
X222736D01*
X214173Y58071D02*
Y62008D01*
X224213D01*
Y58071D02*
Y62008D01*
X214173Y58071D02*
X224213D01*
X214075Y80020D02*
Y83957D01*
X224114D01*
Y80020D02*
Y83957D01*
X214075Y80020D02*
X224114D01*
X391437Y234744D02*
Y240846D01*
X377854Y234744D02*
X391437D01*
X377854D02*
Y240846D01*
X391437D01*
X281201Y239272D02*
X287303D01*
X281201D02*
Y252854D01*
X287303D01*
Y239272D02*
Y252854D01*
X258858Y218307D02*
Y224409D01*
X245276Y218307D02*
X258858D01*
X245276D02*
Y224409D01*
X258858D01*
X322933Y243799D02*
Y249902D01*
X309350Y243799D02*
X322933D01*
X309350D02*
Y249902D01*
X322933D01*
X245768Y253839D02*
X251870D01*
X245768D02*
Y267421D01*
X251870D01*
Y253839D02*
Y267421D01*
X252461Y253839D02*
X258563D01*
X252461D02*
Y267421D01*
X258563D01*
Y253839D02*
Y267421D01*
X86516Y225295D02*
X92618D01*
Y211713D02*
Y225295D01*
X86516Y211713D02*
X92618D01*
X86516D02*
Y225295D01*
X336319Y57677D02*
X342421D01*
Y44094D02*
Y57677D01*
X336319Y44094D02*
X342421D01*
X336319D02*
Y57677D01*
X350295Y132407D02*
Y138509D01*
X363878D01*
Y132407D02*
Y138509D01*
X350295Y132407D02*
X363878D01*
X231398Y136713D02*
Y142815D01*
X244980D01*
Y136713D02*
Y142815D01*
X231398Y136713D02*
X244980D01*
X385433Y184941D02*
X392323D01*
Y203248D01*
X385433D02*
X392323D01*
X385433Y184941D02*
Y203248D01*
X378051Y184941D02*
X384941D01*
Y203248D01*
X378051D02*
X384941D01*
X378051Y184941D02*
Y203248D01*
X320079Y235236D02*
Y242126D01*
Y235236D02*
X338386D01*
Y242126D01*
X320079D02*
X338386D01*
X278445Y226080D02*
Y232970D01*
X260138D02*
X278445D01*
X260138Y226080D02*
Y232970D01*
Y226080D02*
X278445D01*
X128839Y200098D02*
X135728D01*
X128839Y181791D02*
Y200098D01*
Y181791D02*
X135728D01*
Y200098D01*
X120965D02*
X127854D01*
X120965Y181791D02*
Y200098D01*
Y181791D02*
X127854D01*
Y200098D01*
X474902Y41201D02*
X481791D01*
X474902Y22894D02*
Y41201D01*
Y22894D02*
X481791D01*
Y41201D01*
X482776D02*
X489665D01*
X482776Y22894D02*
Y41201D01*
Y22894D02*
X489665D01*
Y41201D01*
X64272Y216826D02*
Y227652D01*
X45965Y216826D02*
X64272D01*
X45965D02*
Y227652D01*
X64272D01*
Y228738D02*
Y239564D01*
X45965Y228738D02*
X64272D01*
X45965D02*
Y239564D01*
X64272D01*
Y240650D02*
Y251476D01*
X45965Y240650D02*
X64272D01*
X45965D02*
Y251476D01*
X64272D01*
X396555Y125197D02*
Y128740D01*
X389469D02*
X396555D01*
X389469Y125197D02*
Y128740D01*
Y125197D02*
X396555D01*
X406299D02*
Y128740D01*
X399213D02*
X406299D01*
X399213Y125197D02*
Y128740D01*
Y125197D02*
X406299D01*
X474016Y233957D02*
X486614D01*
Y240846D01*
X474016D02*
X486614D01*
X474016Y233957D02*
Y240846D01*
X378740Y212096D02*
X391339D01*
X378740Y205206D02*
Y212096D01*
Y205206D02*
X391339D01*
Y212096D01*
X474016Y226476D02*
X486614D01*
Y233366D01*
X474016D02*
X486614D01*
X474016Y226476D02*
Y233366D01*
Y188974D02*
X486614D01*
X474016Y182084D02*
Y188974D01*
Y182084D02*
X486614D01*
Y188974D01*
X378740Y219480D02*
X391339D01*
X378740Y212591D02*
Y219480D01*
Y212591D02*
X391339D01*
Y219480D01*
X474016Y218597D02*
X486614D01*
X474016Y211707D02*
Y218597D01*
Y211707D02*
X486614D01*
Y218597D01*
X474016Y225982D02*
X486614D01*
X474016Y219092D02*
Y225982D01*
Y219092D02*
X486614D01*
Y225982D01*
X474016Y196358D02*
X486614D01*
X474016Y189469D02*
Y196358D01*
Y189469D02*
X486614D01*
Y196358D01*
X474016Y203828D02*
X486614D01*
X474016Y196939D02*
Y203828D01*
Y196939D02*
X486614D01*
Y203828D01*
X378740Y226865D02*
X391339D01*
X378740Y219975D02*
Y226865D01*
Y219975D02*
X391339D01*
Y226865D01*
X378740Y234249D02*
X391339D01*
X378740Y227360D02*
Y234249D01*
Y227360D02*
X391339D01*
Y234249D01*
X350394Y102461D02*
X362992D01*
Y109350D01*
X350394D02*
X362992D01*
X350394Y102461D02*
Y109350D01*
X285335Y162598D02*
Y175197D01*
X278445D02*
X285335D01*
X278445Y162598D02*
Y175197D01*
Y162598D02*
X285335D01*
X259842Y218209D02*
X272441D01*
Y225098D01*
X259842D02*
X272441D01*
X259842Y218209D02*
Y225098D01*
X287697Y254724D02*
Y267323D01*
X280807D02*
X287697D01*
X280807Y254724D02*
Y267323D01*
Y254724D02*
X287697D01*
X280217D02*
Y267323D01*
X273327D02*
X280217D01*
X273327Y254724D02*
Y267323D01*
Y254724D02*
X280217D01*
X272736D02*
Y267323D01*
X265846D02*
X272736D01*
X265846Y254724D02*
Y267323D01*
Y254724D02*
X272736D01*
X348917Y44488D02*
Y57087D01*
Y44488D02*
X355807D01*
Y57087D01*
X348917D02*
X355807D01*
X28740Y114075D02*
X41339D01*
X28740Y107185D02*
Y114075D01*
Y107185D02*
X41339D01*
Y114075D01*
X28740Y129035D02*
X41339D01*
X28740Y122146D02*
Y129035D01*
Y122146D02*
X41339D01*
Y129035D01*
X28740Y143602D02*
X41339D01*
X28740Y136713D02*
Y143602D01*
Y136713D02*
X41339D01*
Y143602D01*
X102854Y184646D02*
Y197244D01*
Y184646D02*
X109744D01*
Y197244D01*
X102854D02*
X109744D01*
X94980Y184646D02*
Y197244D01*
Y184646D02*
X101870D01*
Y197244D01*
X94980D02*
X101870D01*
X117618Y184646D02*
Y197244D01*
X110728D02*
X117618D01*
X110728Y184646D02*
Y197244D01*
Y184646D02*
X117618D01*
X87106D02*
Y197244D01*
Y184646D02*
X93996D01*
Y197244D01*
X87106D02*
X93996D01*
X79232Y184646D02*
Y197244D01*
Y184646D02*
X86122D01*
Y197244D01*
X79232D02*
X86122D01*
X317224Y162598D02*
Y175197D01*
X310335D02*
X317224D01*
X310335Y162598D02*
Y175197D01*
Y162598D02*
X317224D01*
X267224Y187598D02*
Y200197D01*
Y187598D02*
X274114D01*
Y200197D01*
X267224D02*
X274114D01*
X211614Y70472D02*
X224213D01*
X211614Y63583D02*
Y70472D01*
Y63583D02*
X224213D01*
Y70472D01*
X75590Y21457D02*
Y34055D01*
X68701D02*
X75590D01*
X68701Y21457D02*
Y34055D01*
Y21457D02*
X75590D01*
X65650Y21358D02*
Y33957D01*
X58760D02*
X65650D01*
X58760Y21358D02*
Y33957D01*
Y21358D02*
X65650D01*
X250098Y41535D02*
X262697D01*
X250098Y34646D02*
Y41535D01*
Y34646D02*
X262697D01*
Y41535D01*
X350394Y131004D02*
X362992D01*
X350394Y124114D02*
Y131004D01*
Y124114D02*
X362992D01*
Y131004D01*
X461221Y42382D02*
X473819D01*
Y49272D01*
X461221D02*
X473819D01*
X461221Y42382D02*
Y49272D01*
Y49862D02*
X473819D01*
Y56752D01*
X461221D02*
X473819D01*
X461221Y49862D02*
Y56752D01*
X350394Y115847D02*
X362992D01*
Y122736D01*
X350394D02*
X362992D01*
X350394Y115847D02*
Y122736D01*
X294390Y227953D02*
X306988D01*
X294390Y221063D02*
Y227953D01*
Y221063D02*
X306988D01*
Y227953D01*
X312894Y234350D02*
Y242618D01*
X295768D02*
X312894D01*
X295768Y234350D02*
Y242618D01*
Y234350D02*
X312894D01*
X168996Y218307D02*
Y226575D01*
Y218307D02*
X186122D01*
Y226575D01*
X168996D02*
X186122D01*
X122244Y211122D02*
X130512D01*
Y228248D01*
X122244D02*
X130512D01*
X122244Y211122D02*
Y228248D01*
X211614Y78839D02*
X224213D01*
X211614Y71949D02*
Y78839D01*
Y71949D02*
X224213D01*
Y78839D01*
X275098Y187598D02*
Y200197D01*
Y187598D02*
X281988D01*
Y200197D01*
X275098D02*
X281988D01*
D90*
X396752Y144783D02*
G03*
X396752Y144783I-787J0D01*
G01*
X84941Y162303D02*
G03*
X84941Y162303I-787J0D01*
G01*
X204626Y207185D02*
G03*
X204626Y207185I-787J0D01*
G01*
D91*
X164370Y114173D02*
G03*
X164370Y114173I-1181J0D01*
G01*
X262605Y142120D02*
G03*
X262605Y142120I-1181J0D01*
G01*
D92*
X130709Y239370D02*
X203937D01*
Y275591D01*
X130709D02*
X203937D01*
X130709Y239370D02*
Y275591D01*
X518451Y181352D02*
Y204474D01*
X505171Y181352D02*
Y204474D01*
Y181352D02*
X508268D01*
X515354D02*
X518451D01*
X515354Y204474D02*
X518451D01*
X505171D02*
X508268D01*
X227612Y200537D02*
X250734D01*
X227612Y187258D02*
X250734D01*
Y190354D01*
Y197441D02*
Y200537D01*
X227612Y197441D02*
Y200537D01*
Y187258D02*
Y190354D01*
X45526Y67663D02*
X68648D01*
X45526Y54384D02*
X68648D01*
Y57480D01*
Y64567D02*
Y67663D01*
X45526Y64567D02*
Y67663D01*
Y54384D02*
Y57480D01*
D93*
X424537Y264756D02*
X443337D01*
X424237Y264706D02*
X443637D01*
X424037Y264656D02*
X443837D01*
X423837Y264606D02*
X444037D01*
X423687Y264556D02*
X444187D01*
X423537Y264506D02*
X444337D01*
X423437Y264456D02*
X444437D01*
X423287Y264406D02*
X444587D01*
X447087D02*
X447587D01*
X423187Y264356D02*
X444687D01*
X446937D02*
X447687D01*
X423087Y264306D02*
X437787D01*
X443437D02*
X444787D01*
X446887D02*
X447787D01*
X422987Y264256D02*
X437487D01*
X443687D02*
X444887D01*
X446837D02*
X447187D01*
X447487D02*
X447837D01*
X422887Y264206D02*
X437337D01*
X443887D02*
X444987D01*
X446737D02*
X447037D01*
X447637D02*
X447887D01*
X422837Y264156D02*
X437137D01*
X444087D02*
X445037D01*
X446737D02*
X446987D01*
X447687D02*
X447937D01*
X422737Y264106D02*
X437037D01*
X444237D02*
X445137D01*
X446687D02*
X446887D01*
X447737D02*
X447987D01*
X422637Y264056D02*
X436887D01*
X444337D02*
X445187D01*
X446637D02*
X446837D01*
X446987D02*
X447437D01*
X447787D02*
X447987D01*
X422587Y264006D02*
X436787D01*
X444487D02*
X445287D01*
X446637D02*
X446837D01*
X446987D02*
X447587D01*
X447837D02*
X448037D01*
X422537Y263956D02*
X436687D01*
X444587D02*
X445337D01*
X446587D02*
X446787D01*
X446987D02*
X447637D01*
X447887D02*
X448037D01*
X422437Y263906D02*
X436587D01*
X444687D02*
X445437D01*
X446587D02*
X446787D01*
X446987D02*
X447137D01*
X447387D02*
X447637D01*
X447887D02*
X448087D01*
X422387Y263856D02*
X436487D01*
X444787D02*
X445487D01*
X446587D02*
X446737D01*
X446987D02*
X447137D01*
X447437D02*
X447637D01*
X447937D02*
X448087D01*
X422337Y263806D02*
X436387D01*
X444837D02*
X445537D01*
X446537D02*
X446737D01*
X446987D02*
X447137D01*
X447437D02*
X447637D01*
X447937D02*
X448087D01*
X422237Y263756D02*
X436337D01*
X444937D02*
X445637D01*
X446537D02*
X446737D01*
X446987D02*
X447137D01*
X447437D02*
X447637D01*
X447937D02*
X448087D01*
X422187Y263706D02*
X436237D01*
X444987D02*
X445687D01*
X446537D02*
X446737D01*
X446987D02*
X447637D01*
X447937D02*
X448137D01*
X422137Y263656D02*
X436187D01*
X445087D02*
X445737D01*
X446537D02*
X446737D01*
X446987D02*
X447587D01*
X447937D02*
X448137D01*
X422087Y263606D02*
X436087D01*
X445137D02*
X445787D01*
X446537D02*
X446687D01*
X446987D02*
X447487D01*
X447937D02*
X448137D01*
X422037Y263556D02*
X436037D01*
X445237D02*
X445837D01*
X446537D02*
X446737D01*
X446987D02*
X447137D01*
X447237D02*
X447487D01*
X447937D02*
X448137D01*
X421987Y263506D02*
X435987D01*
X445287D02*
X445887D01*
X446537D02*
X446737D01*
X446987D02*
X447137D01*
X447337D02*
X447537D01*
X447937D02*
X448087D01*
X421937Y263456D02*
X435937D01*
X445337D02*
X445937D01*
X446537D02*
X446737D01*
X446987D02*
X447137D01*
X447337D02*
X447587D01*
X447937D02*
X448087D01*
X421887Y263406D02*
X435837D01*
X445437D02*
X445987D01*
X446587D02*
X446737D01*
X446987D02*
X447137D01*
X447387D02*
X447587D01*
X447887D02*
X448087D01*
X421837Y263356D02*
X435787D01*
X445487D02*
X446037D01*
X446587D02*
X446787D01*
X446987D02*
X447137D01*
X447437D02*
X447637D01*
X447887D02*
X448087D01*
X421787Y263306D02*
X435737D01*
X445537D02*
X446087D01*
X446637D02*
X446787D01*
X446987D02*
X447137D01*
X447437D02*
X447687D01*
X447837D02*
X448037D01*
X421737Y263256D02*
X435687D01*
X445587D02*
X446137D01*
X446637D02*
X446837D01*
X446987D02*
X447137D01*
X447487D02*
X447687D01*
X447837D02*
X448037D01*
X421687Y263206D02*
X435637D01*
X445637D02*
X446187D01*
X446687D02*
X446887D01*
X447787D02*
X447987D01*
X421637Y263156D02*
X435587D01*
X445687D02*
X446187D01*
X446687D02*
X446937D01*
X447687D02*
X447937D01*
X421637Y263106D02*
X435537D01*
X445737D02*
X446237D01*
X446737D02*
X447037D01*
X447637D02*
X447887D01*
X421587Y263056D02*
X435537D01*
X445787D02*
X446287D01*
X446787D02*
X447137D01*
X447537D02*
X447837D01*
X421537Y263006D02*
X435487D01*
X445837D02*
X446337D01*
X446887D02*
X447787D01*
X421487Y262956D02*
X435437D01*
X445837D02*
X446387D01*
X446937D02*
X447737D01*
X421487Y262906D02*
X435387D01*
X445887D02*
X446387D01*
X447087D02*
X447587D01*
X421437Y262856D02*
X435337D01*
X445937D02*
X446437D01*
X421387Y262806D02*
X435287D01*
X445987D02*
X446487D01*
X421337Y262756D02*
X435287D01*
X446037D02*
X446487D01*
X421337Y262706D02*
X435237D01*
X446037D02*
X446537D01*
X421287Y262656D02*
X435187D01*
X446087D02*
X446587D01*
X421287Y262606D02*
X435187D01*
X446137D02*
X446587D01*
X421237Y262556D02*
X435137D01*
X446137D02*
X446637D01*
X421187Y262506D02*
X435087D01*
X446187D02*
X446637D01*
X421187Y262456D02*
X435087D01*
X446237D02*
X446687D01*
X421137Y262406D02*
X435037D01*
X446237D02*
X446737D01*
X421137Y262356D02*
X435037D01*
X446287D02*
X446737D01*
X421087Y262306D02*
X434987D01*
X446287D02*
X446787D01*
X421087Y262256D02*
X434987D01*
X446337D02*
X446787D01*
X421037Y262206D02*
X434937D01*
X446387D02*
X446837D01*
X421037Y262156D02*
X431987D01*
X432237D02*
X434937D01*
X442587D02*
X442787D01*
X446387D02*
X446837D01*
X420987Y262106D02*
X431787D01*
X432387D02*
X434887D01*
X442387D02*
X442987D01*
X446437D02*
X446837D01*
X420987Y262056D02*
X431687D01*
X432487D02*
X434887D01*
X442287D02*
X443087D01*
X446437D02*
X446887D01*
X420987Y262006D02*
X422987D01*
X423037D02*
X423087D01*
X423987D02*
X424087D01*
X424137D02*
X426287D01*
X427187D02*
X427237D01*
X427287D02*
X427387D01*
X427437D02*
X429537D01*
X430637D02*
X430687D01*
X430737D02*
X431637D01*
X432587D02*
X434837D01*
X442237D02*
X443187D01*
X446437D02*
X446887D01*
X420937Y261956D02*
X422937D01*
X424287D02*
X426287D01*
X427437D02*
X429487D01*
X430737D02*
X431587D01*
X432637D02*
X434837D01*
X436587D02*
X441137D01*
X442187D02*
X443237D01*
X446487D02*
X446937D01*
X420937Y261906D02*
X422937D01*
X424287D02*
X426287D01*
X427487D02*
X429487D01*
X430737D02*
X431537D01*
X432687D02*
X434837D01*
X436587D02*
X441187D01*
X442137D02*
X443287D01*
X446487D02*
X446937D01*
X420887Y261856D02*
X422987D01*
X424287D02*
X426237D01*
X427487D02*
X429487D01*
X430687D02*
X431487D01*
X432737D02*
X434787D01*
X436587D02*
X441137D01*
X442087D02*
X443287D01*
X446537D02*
X446937D01*
X420887Y261806D02*
X422987D01*
X424287D02*
X426237D01*
X427487D02*
X429437D01*
X430687D02*
X431437D01*
X432737D02*
X434787D01*
X436587D02*
X441137D01*
X442037D02*
X443337D01*
X446537D02*
X446987D01*
X420887Y261756D02*
X422987D01*
X424337D02*
X426237D01*
X427487D02*
X429437D01*
X430687D02*
X431437D01*
X432787D02*
X434737D01*
X436587D02*
X441137D01*
X442037D02*
X443387D01*
X446537D02*
X446987D01*
X420837Y261706D02*
X422987D01*
X424337D02*
X426187D01*
X427537D02*
X429437D01*
X430687D02*
X431387D01*
X432787D02*
X434737D01*
X436587D02*
X441137D01*
X441987D02*
X443387D01*
X446587D02*
X447037D01*
X420837Y261656D02*
X423037D01*
X424337D02*
X426187D01*
X427537D02*
X429437D01*
X430637D02*
X431387D01*
X432837D02*
X434737D01*
X436587D02*
X441137D01*
X441987D02*
X443437D01*
X446587D02*
X447037D01*
X420837Y261606D02*
X423037D01*
X424337D02*
X426187D01*
X427537D02*
X429437D01*
X430637D02*
X431387D01*
X432837D02*
X434687D01*
X436587D02*
X441137D01*
X441987D02*
X443437D01*
X446637D02*
X447037D01*
X420787Y261556D02*
X423037D01*
X424387D02*
X426137D01*
X427587D02*
X429387D01*
X430637D02*
X431337D01*
X432837D02*
X434687D01*
X436587D02*
X441137D01*
X441937D02*
X443437D01*
X446637D02*
X447037D01*
X420787Y261506D02*
X423037D01*
X424387D02*
X426137D01*
X427587D02*
X429387D01*
X430637D02*
X431337D01*
X432837D02*
X434687D01*
X436587D02*
X441137D01*
X441937D02*
X443437D01*
X446637D02*
X447087D01*
X420787Y261456D02*
X423087D01*
X424387D02*
X426137D01*
X427587D02*
X429387D01*
X430587D02*
X431337D01*
X432837D02*
X434687D01*
X436587D02*
X441137D01*
X441937D02*
X443437D01*
X446637D02*
X447087D01*
X420787Y261406D02*
X423087D01*
X424387D02*
X426137D01*
X427587D02*
X429387D01*
X430587D02*
X431337D01*
X432887D02*
X434637D01*
X436587D02*
X441137D01*
X441937D02*
X443437D01*
X446687D02*
X447087D01*
X420737Y261356D02*
X423087D01*
X424387D02*
X426087D01*
X427637D02*
X429337D01*
X430587D02*
X431337D01*
X432837D02*
X434637D01*
X436587D02*
X441137D01*
X441937D02*
X443437D01*
X446687D02*
X447137D01*
X420737Y261306D02*
X423087D01*
X424437D02*
X426087D01*
X427637D02*
X429337D01*
X430587D02*
X431337D01*
X432837D02*
X434637D01*
X436587D02*
X441137D01*
X441937D02*
X443437D01*
X446687D02*
X447137D01*
X420737Y261256D02*
X423137D01*
X424437D02*
X426087D01*
X427637D02*
X429337D01*
X430537D02*
X431387D01*
X432837D02*
X434637D01*
X436587D02*
X441137D01*
X441937D02*
X443437D01*
X446687D02*
X447137D01*
X420737Y261206D02*
X423137D01*
X424437D02*
X426037D01*
X427687D02*
X429337D01*
X430537D02*
X431387D01*
X432837D02*
X434587D01*
X436587D02*
X441137D01*
X441987D02*
X443437D01*
X446737D02*
X447137D01*
X420737Y261156D02*
X423137D01*
X424437D02*
X426037D01*
X427687D02*
X429287D01*
X430537D02*
X431387D01*
X432837D02*
X434587D01*
X436587D02*
X441137D01*
X441987D02*
X443387D01*
X446737D02*
X447137D01*
X420687Y261106D02*
X423187D01*
X424487D02*
X426037D01*
X427687D02*
X429287D01*
X430537D02*
X431387D01*
X432787D02*
X434587D01*
X436587D02*
X441137D01*
X441987D02*
X443387D01*
X446737D02*
X447187D01*
X420687Y261056D02*
X423187D01*
X424487D02*
X426037D01*
X427687D02*
X429287D01*
X430487D02*
X431437D01*
X432787D02*
X434587D01*
X436587D02*
X441137D01*
X442037D02*
X443387D01*
X446737D02*
X447187D01*
X420687Y261006D02*
X423187D01*
X424487D02*
X425987D01*
X427737D02*
X429287D01*
X430487D02*
X431437D01*
X432737D02*
X434587D01*
X436587D02*
X441137D01*
X442037D02*
X443337D01*
X446737D02*
X447187D01*
X420687Y260956D02*
X423187D01*
X424487D02*
X425987D01*
X427737D02*
X429237D01*
X430487D02*
X431487D01*
X432687D02*
X434587D01*
X436587D02*
X441137D01*
X442087D02*
X443287D01*
X446787D02*
X447187D01*
X420687Y260906D02*
X423237D01*
X424487D02*
X425987D01*
X427737D02*
X429237D01*
X430437D02*
X431537D01*
X432687D02*
X434587D01*
X436587D02*
X441137D01*
X442137D02*
X443287D01*
X446787D02*
X447187D01*
X420687Y260856D02*
X423237D01*
X424537D02*
X425937D01*
X427787D02*
X429237D01*
X430437D02*
X431587D01*
X432637D02*
X434537D01*
X436587D02*
X441187D01*
X442187D02*
X443237D01*
X446787D02*
X447187D01*
X420687Y260806D02*
X423237D01*
X424537D02*
X425937D01*
X427787D02*
X429237D01*
X430437D02*
X431637D01*
X432587D02*
X434537D01*
X436587D02*
X441137D01*
X442237D02*
X443137D01*
X446787D02*
X447187D01*
X420637Y260756D02*
X423237D01*
X424537D02*
X425937D01*
X427787D02*
X429237D01*
X430437D02*
X431737D01*
X432487D02*
X434537D01*
X436587D02*
X437937D01*
X442287D02*
X443087D01*
X446787D02*
X447237D01*
X420637Y260706D02*
X423287D01*
X424537D02*
X425887D01*
X427787D02*
X429187D01*
X430387D02*
X431837D01*
X432387D02*
X434537D01*
X436587D02*
X437937D01*
X442437D02*
X442987D01*
X446787D02*
X447237D01*
X420637Y260656D02*
X423287D01*
X424587D02*
X425887D01*
X427837D02*
X429187D01*
X430387D02*
X432037D01*
X432087D02*
X434537D01*
X436587D02*
X437937D01*
X442637D02*
X442687D01*
X446787D02*
X447237D01*
X420637Y260606D02*
X423287D01*
X424587D02*
X425887D01*
X427837D02*
X429187D01*
X430387D02*
X434537D01*
X436587D02*
X437937D01*
X446787D02*
X447237D01*
X420637Y260556D02*
X423287D01*
X424587D02*
X425887D01*
X427837D02*
X429187D01*
X430387D02*
X434537D01*
X436587D02*
X437937D01*
X446787D02*
X447237D01*
X420637Y260506D02*
X423337D01*
X424587D02*
X425837D01*
X427887D02*
X429187D01*
X430337D02*
X434537D01*
X436587D02*
X437937D01*
X446787D02*
X447237D01*
X420637Y260456D02*
X423337D01*
X424587D02*
X425837D01*
X427887D02*
X429137D01*
X430337D02*
X434537D01*
X436587D02*
X437937D01*
X446787D02*
X447237D01*
X420637Y260406D02*
X423337D01*
X424637D02*
X425837D01*
X427887D02*
X429137D01*
X430337D02*
X434537D01*
X436587D02*
X437937D01*
X446787D02*
X447237D01*
X420637Y260356D02*
X423387D01*
X424637D02*
X425787D01*
X427887D02*
X429137D01*
X430337D02*
X434537D01*
X436587D02*
X437937D01*
X446787D02*
X447237D01*
X420637Y260306D02*
X423387D01*
X424637D02*
X425787D01*
X427937D02*
X429137D01*
X430287D02*
X434537D01*
X436587D02*
X437937D01*
X446787D02*
X447237D01*
X420637Y260256D02*
X423387D01*
X424637D02*
X425787D01*
X427937D02*
X429087D01*
X430287D02*
X434537D01*
X436587D02*
X437937D01*
X446787D02*
X447237D01*
X420637Y260206D02*
X423387D01*
X424687D02*
X425787D01*
X427937D02*
X429087D01*
X430287D02*
X434537D01*
X436587D02*
X437937D01*
X446787D02*
X447237D01*
X420637Y260156D02*
X423437D01*
X424687D02*
X425737D01*
X427987D02*
X429087D01*
X430287D02*
X434537D01*
X436587D02*
X437937D01*
X446787D02*
X447237D01*
X420637Y260106D02*
X423437D01*
X424687D02*
X425737D01*
X427987D02*
X429087D01*
X430237D02*
X434537D01*
X436587D02*
X437937D01*
X446787D02*
X447237D01*
X420637Y260056D02*
X423437D01*
X424687D02*
X425737D01*
X426787D02*
X426837D01*
X427987D02*
X429037D01*
X430237D02*
X431437D01*
X432737D02*
X434537D01*
X436587D02*
X437937D01*
X442037D02*
X443337D01*
X446787D02*
X447237D01*
X420637Y260006D02*
X423437D01*
X424737D02*
X425687D01*
X426787D02*
X426887D01*
X427987D02*
X429037D01*
X430237D02*
X431437D01*
X432737D02*
X434537D01*
X436587D02*
X437937D01*
X442037D02*
X443337D01*
X446787D02*
X447237D01*
X420637Y259956D02*
X423487D01*
X424737D02*
X425687D01*
X426787D02*
X426887D01*
X428037D02*
X429037D01*
X430187D02*
X431437D01*
X432737D02*
X434537D01*
X436587D02*
X437937D01*
X442037D02*
X443337D01*
X446787D02*
X447237D01*
X420637Y259906D02*
X423487D01*
X424737D02*
X425687D01*
X426787D02*
X426887D01*
X428037D02*
X429037D01*
X430187D02*
X431437D01*
X432737D02*
X434537D01*
X436587D02*
X437937D01*
X442037D02*
X443337D01*
X446787D02*
X447237D01*
X420637Y259856D02*
X423487D01*
X424737D02*
X425637D01*
X426737D02*
X426887D01*
X428037D02*
X428987D01*
X430187D02*
X431437D01*
X432737D02*
X434537D01*
X436587D02*
X437937D01*
X442037D02*
X443337D01*
X446787D02*
X447237D01*
X420637Y259806D02*
X423487D01*
X424737D02*
X425637D01*
X426737D02*
X426937D01*
X428037D02*
X428987D01*
X430187D02*
X431487D01*
X432737D02*
X434537D01*
X436587D02*
X437937D01*
X442037D02*
X443337D01*
X446787D02*
X447237D01*
X420637Y259756D02*
X423537D01*
X424787D02*
X425637D01*
X426737D02*
X426937D01*
X428087D02*
X428987D01*
X430137D02*
X431437D01*
X432737D02*
X434537D01*
X436587D02*
X437937D01*
X442037D02*
X443337D01*
X446787D02*
X447237D01*
X420637Y259706D02*
X423537D01*
X424787D02*
X425637D01*
X426687D02*
X426937D01*
X428087D02*
X428987D01*
X430137D02*
X431437D01*
X432737D02*
X434537D01*
X436587D02*
X437937D01*
X442037D02*
X443337D01*
X446787D02*
X447237D01*
X420637Y259656D02*
X423537D01*
X424787D02*
X425587D01*
X426687D02*
X426987D01*
X428087D02*
X428987D01*
X430137D02*
X431437D01*
X432737D02*
X434537D01*
X436587D02*
X437937D01*
X442037D02*
X443337D01*
X446787D02*
X447237D01*
X420637Y259606D02*
X423587D01*
X424787D02*
X425587D01*
X426687D02*
X426987D01*
X428137D02*
X428937D01*
X430137D02*
X431437D01*
X432737D02*
X434537D01*
X436587D02*
X437937D01*
X442037D02*
X443337D01*
X446787D02*
X447237D01*
X420637Y259556D02*
X423587D01*
X424837D02*
X425587D01*
X426687D02*
X426987D01*
X428137D02*
X428937D01*
X430087D02*
X431437D01*
X432737D02*
X434537D01*
X436587D02*
X437937D01*
X442037D02*
X443337D01*
X446787D02*
X447237D01*
X420637Y259506D02*
X423587D01*
X424837D02*
X425537D01*
X426637D02*
X426987D01*
X428137D02*
X428937D01*
X430087D02*
X431437D01*
X432737D02*
X434537D01*
X436587D02*
X440937D01*
X442037D02*
X443337D01*
X446787D02*
X447237D01*
X420637Y259456D02*
X423587D01*
X424837D02*
X425537D01*
X426637D02*
X427037D01*
X428137D02*
X428937D01*
X430087D02*
X431437D01*
X432737D02*
X434537D01*
X436587D02*
X440937D01*
X442037D02*
X443337D01*
X446787D02*
X447237D01*
X420637Y259406D02*
X423637D01*
X424837D02*
X425537D01*
X426637D02*
X427037D01*
X428187D02*
X428887D01*
X430087D02*
X431437D01*
X432737D02*
X434537D01*
X436587D02*
X440937D01*
X442037D02*
X443337D01*
X446787D02*
X447237D01*
X420637Y259356D02*
X423637D01*
X424837D02*
X425487D01*
X426587D02*
X427037D01*
X428187D02*
X428887D01*
X430037D02*
X431437D01*
X432737D02*
X434537D01*
X436587D02*
X440937D01*
X442037D02*
X443337D01*
X446787D02*
X447237D01*
X420637Y259306D02*
X423637D01*
X424887D02*
X425487D01*
X426587D02*
X427087D01*
X428187D02*
X428887D01*
X430037D02*
X431437D01*
X432737D02*
X434537D01*
X436587D02*
X440937D01*
X442037D02*
X443337D01*
X446787D02*
X447237D01*
X420637Y259256D02*
X423637D01*
X424887D02*
X425487D01*
X426587D02*
X427087D01*
X428237D02*
X428887D01*
X430037D02*
X431437D01*
X432737D02*
X434537D01*
X436587D02*
X440937D01*
X442037D02*
X443337D01*
X446787D02*
X447237D01*
X420637Y259206D02*
X423687D01*
X424887D02*
X425487D01*
X426587D02*
X427087D01*
X428237D02*
X428837D01*
X429987D02*
X431437D01*
X432737D02*
X434537D01*
X436587D02*
X440937D01*
X442037D02*
X443337D01*
X446787D02*
X447237D01*
X420637Y259156D02*
X423687D01*
X424887D02*
X425437D01*
X426537D02*
X427087D01*
X428237D02*
X428837D01*
X429987D02*
X431437D01*
X432737D02*
X434537D01*
X436587D02*
X440937D01*
X442037D02*
X443337D01*
X446787D02*
X447237D01*
X420637Y259106D02*
X423687D01*
X424937D02*
X425437D01*
X426537D02*
X427137D01*
X428237D02*
X428837D01*
X429987D02*
X431437D01*
X432737D02*
X434537D01*
X436587D02*
X440937D01*
X442037D02*
X443337D01*
X446787D02*
X447237D01*
X420637Y259056D02*
X423737D01*
X424937D02*
X425437D01*
X426537D02*
X427137D01*
X428287D02*
X428837D01*
X429987D02*
X431437D01*
X432737D02*
X434537D01*
X436587D02*
X440937D01*
X442037D02*
X443337D01*
X446787D02*
X447237D01*
X420637Y259006D02*
X423737D01*
X424937D02*
X425387D01*
X426487D02*
X427137D01*
X428287D02*
X428837D01*
X429937D02*
X431437D01*
X432737D02*
X434537D01*
X436587D02*
X440937D01*
X442037D02*
X443337D01*
X446787D02*
X447237D01*
X420637Y258956D02*
X423737D01*
X424937D02*
X425387D01*
X426487D02*
X427187D01*
X428287D02*
X428787D01*
X429937D02*
X431437D01*
X432737D02*
X434537D01*
X436587D02*
X440937D01*
X442037D02*
X443337D01*
X446787D02*
X447237D01*
X420637Y258906D02*
X423737D01*
X424937D02*
X425387D01*
X426487D02*
X427187D01*
X428337D02*
X428787D01*
X429937D02*
X431437D01*
X432737D02*
X434537D01*
X436587D02*
X440937D01*
X442037D02*
X443337D01*
X446787D02*
X447237D01*
X420637Y258856D02*
X423787D01*
X424987D02*
X425387D01*
X426487D02*
X427187D01*
X428337D02*
X428787D01*
X429937D02*
X431437D01*
X432737D02*
X434537D01*
X436587D02*
X440937D01*
X442037D02*
X443337D01*
X446787D02*
X447237D01*
X420637Y258806D02*
X423787D01*
X424987D02*
X425337D01*
X426437D02*
X427187D01*
X428337D02*
X428787D01*
X429887D02*
X431437D01*
X432737D02*
X434537D01*
X436587D02*
X440937D01*
X442037D02*
X443337D01*
X446787D02*
X447237D01*
X420637Y258756D02*
X423787D01*
X424987D02*
X425337D01*
X426437D02*
X427237D01*
X428387D02*
X428737D01*
X429887D02*
X431437D01*
X432737D02*
X434537D01*
X436587D02*
X440937D01*
X442037D02*
X443337D01*
X446787D02*
X447237D01*
X420637Y258706D02*
X423787D01*
X424987D02*
X425337D01*
X426437D02*
X427237D01*
X428387D02*
X428737D01*
X429887D02*
X431437D01*
X432737D02*
X434537D01*
X436587D02*
X440937D01*
X442037D02*
X443337D01*
X446787D02*
X447237D01*
X420637Y258656D02*
X423837D01*
X425037D02*
X425287D01*
X426387D02*
X427237D01*
X428387D02*
X428737D01*
X429887D02*
X431437D01*
X432737D02*
X434537D01*
X436587D02*
X440937D01*
X442037D02*
X443337D01*
X446787D02*
X447237D01*
X420637Y258606D02*
X423837D01*
X425037D02*
X425287D01*
X426387D02*
X427287D01*
X428387D02*
X428737D01*
X429837D02*
X431437D01*
X432737D02*
X434537D01*
X436587D02*
X440937D01*
X442037D02*
X443337D01*
X446787D02*
X447237D01*
X420637Y258556D02*
X423837D01*
X425037D02*
X425287D01*
X426387D02*
X427287D01*
X428437D02*
X428687D01*
X429837D02*
X431437D01*
X432737D02*
X434537D01*
X436587D02*
X440937D01*
X442037D02*
X443337D01*
X446787D02*
X447237D01*
X420637Y258506D02*
X423837D01*
X425037D02*
X425237D01*
X426387D02*
X427287D01*
X428437D02*
X428687D01*
X429837D02*
X431437D01*
X432737D02*
X434537D01*
X436587D02*
X440937D01*
X442037D02*
X443337D01*
X446787D02*
X447237D01*
X420637Y258456D02*
X423887D01*
X425037D02*
X425237D01*
X426337D02*
X427287D01*
X428437D02*
X428687D01*
X429837D02*
X431437D01*
X432737D02*
X434537D01*
X436587D02*
X440937D01*
X442037D02*
X443337D01*
X446787D02*
X447237D01*
X420637Y258406D02*
X423887D01*
X425087D02*
X425237D01*
X426337D02*
X427337D01*
X428437D02*
X428687D01*
X429787D02*
X431437D01*
X432737D02*
X434537D01*
X436587D02*
X440937D01*
X442037D02*
X443337D01*
X446787D02*
X447237D01*
X420637Y258356D02*
X423887D01*
X425087D02*
X425237D01*
X426337D02*
X427337D01*
X428487D02*
X428687D01*
X429787D02*
X431437D01*
X432737D02*
X434537D01*
X436587D02*
X440937D01*
X442037D02*
X443337D01*
X446787D02*
X447237D01*
X420637Y258306D02*
X423937D01*
X425087D02*
X425187D01*
X426287D02*
X427337D01*
X428487D02*
X428637D01*
X429787D02*
X431437D01*
X432737D02*
X434537D01*
X436587D02*
X440937D01*
X442037D02*
X443337D01*
X446787D02*
X447237D01*
X420637Y258256D02*
X423937D01*
X425087D02*
X425187D01*
X426287D02*
X427387D01*
X428487D02*
X428637D01*
X429737D02*
X431437D01*
X432737D02*
X434537D01*
X436587D02*
X437937D01*
X442037D02*
X443337D01*
X446787D02*
X447237D01*
X420637Y258206D02*
X423937D01*
X425137D02*
X425187D01*
X426287D02*
X427387D01*
X428537D02*
X428637D01*
X429737D02*
X431437D01*
X432737D02*
X434537D01*
X436587D02*
X437937D01*
X442037D02*
X443337D01*
X446787D02*
X447237D01*
X420637Y258156D02*
X423937D01*
X426287D02*
X427387D01*
X428537D02*
X428637D01*
X429737D02*
X431437D01*
X432737D02*
X434537D01*
X436587D02*
X437937D01*
X442037D02*
X443337D01*
X446787D02*
X447237D01*
X420637Y258106D02*
X423987D01*
X426237D02*
X427387D01*
X428537D02*
X428587D01*
X429737D02*
X431437D01*
X432737D02*
X434537D01*
X436587D02*
X437937D01*
X442037D02*
X443337D01*
X446787D02*
X447237D01*
X420637Y258056D02*
X423987D01*
X426237D02*
X427437D01*
X428537D02*
X428587D01*
X429687D02*
X431437D01*
X432737D02*
X434537D01*
X436587D02*
X437937D01*
X442037D02*
X443337D01*
X446787D02*
X447237D01*
X420637Y258006D02*
X423987D01*
X426237D02*
X427437D01*
X429687D02*
X431437D01*
X432737D02*
X434537D01*
X436587D02*
X437937D01*
X442037D02*
X443337D01*
X446787D02*
X447237D01*
X420637Y257956D02*
X423987D01*
X426187D02*
X427437D01*
X429687D02*
X431437D01*
X432737D02*
X434537D01*
X436587D02*
X437937D01*
X442037D02*
X443337D01*
X446787D02*
X447237D01*
X420637Y257906D02*
X424037D01*
X426187D02*
X427487D01*
X429687D02*
X431437D01*
X432737D02*
X434537D01*
X436587D02*
X437937D01*
X442037D02*
X443337D01*
X446787D02*
X447237D01*
X420637Y257856D02*
X424037D01*
X426187D02*
X427487D01*
X429637D02*
X431437D01*
X432737D02*
X434537D01*
X436587D02*
X437937D01*
X442037D02*
X443337D01*
X446787D02*
X447237D01*
X420637Y257806D02*
X424037D01*
X426137D02*
X427487D01*
X429637D02*
X431437D01*
X432737D02*
X434537D01*
X436587D02*
X437937D01*
X442037D02*
X443337D01*
X446787D02*
X447237D01*
X420637Y257756D02*
X424087D01*
X426137D02*
X427537D01*
X429637D02*
X431437D01*
X432737D02*
X434537D01*
X436587D02*
X437937D01*
X442037D02*
X443337D01*
X446787D02*
X447237D01*
X420637Y257706D02*
X424087D01*
X426137D02*
X427537D01*
X429637D02*
X431437D01*
X432737D02*
X434537D01*
X436587D02*
X437937D01*
X442037D02*
X443337D01*
X446787D02*
X447237D01*
X420637Y257656D02*
X424087D01*
X426137D02*
X427537D01*
X429587D02*
X431437D01*
X432737D02*
X434537D01*
X436587D02*
X437937D01*
X442037D02*
X443337D01*
X446787D02*
X447237D01*
X420637Y257606D02*
X424087D01*
X426087D02*
X427537D01*
X429587D02*
X431437D01*
X432737D02*
X434537D01*
X436587D02*
X437937D01*
X442037D02*
X443337D01*
X446787D02*
X447237D01*
X420637Y257556D02*
X424137D01*
X426087D02*
X427587D01*
X429587D02*
X431437D01*
X432737D02*
X434537D01*
X436587D02*
X437937D01*
X442037D02*
X443337D01*
X446787D02*
X447237D01*
X420637Y257506D02*
X424137D01*
X426087D02*
X427587D01*
X429587D02*
X431437D01*
X432737D02*
X434537D01*
X436587D02*
X437937D01*
X442037D02*
X443337D01*
X446787D02*
X447237D01*
X420637Y257456D02*
X424137D01*
X426037D02*
X427587D01*
X429537D02*
X431437D01*
X432737D02*
X434537D01*
X436587D02*
X437937D01*
X442037D02*
X443337D01*
X446787D02*
X447237D01*
X420637Y257406D02*
X424137D01*
X426037D02*
X427587D01*
X429537D02*
X431437D01*
X432737D02*
X434537D01*
X436587D02*
X437937D01*
X442037D02*
X443337D01*
X446787D02*
X447237D01*
X420637Y257356D02*
X424187D01*
X426037D02*
X427637D01*
X429537D02*
X431437D01*
X432737D02*
X434537D01*
X436587D02*
X437937D01*
X442037D02*
X443337D01*
X446787D02*
X447237D01*
X420637Y257306D02*
X424187D01*
X426037D02*
X427637D01*
X429487D02*
X431437D01*
X432737D02*
X434537D01*
X436587D02*
X437937D01*
X442037D02*
X443337D01*
X446787D02*
X447237D01*
X420637Y257256D02*
X424187D01*
X425987D02*
X427637D01*
X429487D02*
X431437D01*
X432737D02*
X434537D01*
X436587D02*
X437937D01*
X442037D02*
X443337D01*
X446787D02*
X447237D01*
X420637Y257206D02*
X424187D01*
X425987D02*
X427687D01*
X429487D02*
X431437D01*
X432737D02*
X434537D01*
X436587D02*
X437937D01*
X442037D02*
X443337D01*
X446787D02*
X447237D01*
X420637Y257156D02*
X424237D01*
X425987D02*
X427687D01*
X429487D02*
X431437D01*
X432737D02*
X434537D01*
X436587D02*
X437937D01*
X442037D02*
X443337D01*
X446787D02*
X447237D01*
X420637Y257106D02*
X424237D01*
X425937D02*
X427687D01*
X429437D02*
X431437D01*
X432737D02*
X434537D01*
X436587D02*
X437937D01*
X442037D02*
X443337D01*
X446787D02*
X447237D01*
X420687Y257056D02*
X424237D01*
X425937D02*
X427687D01*
X429437D02*
X431437D01*
X432737D02*
X434537D01*
X436587D02*
X437937D01*
X442037D02*
X443337D01*
X446787D02*
X447187D01*
X420687Y257006D02*
X424287D01*
X425937D02*
X427737D01*
X429437D02*
X431437D01*
X432737D02*
X434487D01*
X436587D02*
X437937D01*
X442037D02*
X443337D01*
X446787D02*
X447187D01*
X420687Y256956D02*
X424287D01*
X425937D02*
X427737D01*
X429437D02*
X431437D01*
X432737D02*
X434487D01*
X436587D02*
X437937D01*
X442037D02*
X443337D01*
X446787D02*
X447187D01*
X420687Y256906D02*
X424287D01*
X425887D02*
X427737D01*
X429387D02*
X431437D01*
X432737D02*
X434487D01*
X436587D02*
X437937D01*
X442037D02*
X443337D01*
X446787D02*
X447187D01*
X420687Y256856D02*
X424287D01*
X425887D02*
X427787D01*
X429387D02*
X431437D01*
X432737D02*
X434487D01*
X436587D02*
X437937D01*
X442037D02*
X443337D01*
X446737D02*
X447187D01*
X420687Y256806D02*
X424337D01*
X425887D02*
X427787D01*
X429387D02*
X431437D01*
X432737D02*
X434487D01*
X436587D02*
X437937D01*
X442037D02*
X443337D01*
X446737D02*
X447187D01*
X420687Y256756D02*
X424337D01*
X425837D02*
X427787D01*
X429387D02*
X431437D01*
X432737D02*
X434487D01*
X436587D02*
X437937D01*
X442037D02*
X443337D01*
X446737D02*
X447137D01*
X420737Y256706D02*
X424337D01*
X425837D02*
X427837D01*
X429337D02*
X431437D01*
X432737D02*
X434487D01*
X436587D02*
X437937D01*
X442037D02*
X443337D01*
X446737D02*
X447137D01*
X420737Y256656D02*
X424337D01*
X425837D02*
X427837D01*
X429337D02*
X431437D01*
X432737D02*
X434487D01*
X436587D02*
X437937D01*
X442037D02*
X443337D01*
X446737D02*
X447137D01*
X420737Y256606D02*
X424387D01*
X425837D02*
X427837D01*
X429337D02*
X431437D01*
X432737D02*
X434437D01*
X436587D02*
X437937D01*
X442037D02*
X443337D01*
X446687D02*
X447137D01*
X420737Y256556D02*
X424387D01*
X425787D02*
X427837D01*
X429337D02*
X431437D01*
X432737D02*
X434437D01*
X436587D02*
X437937D01*
X442037D02*
X443337D01*
X446687D02*
X447137D01*
X420737Y256506D02*
X424387D01*
X425787D02*
X427887D01*
X429287D02*
X431437D01*
X432737D02*
X434437D01*
X436587D02*
X437937D01*
X442037D02*
X443337D01*
X446687D02*
X447087D01*
X420787Y256456D02*
X424387D01*
X425787D02*
X427887D01*
X429287D02*
X431437D01*
X432737D02*
X434437D01*
X436587D02*
X437937D01*
X442037D02*
X443337D01*
X446687D02*
X447087D01*
X420787Y256406D02*
X424437D01*
X425737D02*
X427887D01*
X429287D02*
X431437D01*
X432737D02*
X434437D01*
X436587D02*
X437937D01*
X442037D02*
X443337D01*
X446637D02*
X447087D01*
X420787Y256356D02*
X424437D01*
X425737D02*
X427937D01*
X429237D02*
X431437D01*
X432737D02*
X434387D01*
X436587D02*
X437937D01*
X442037D02*
X443337D01*
X446637D02*
X447087D01*
X420837Y256306D02*
X424437D01*
X425737D02*
X427937D01*
X429237D02*
X431437D01*
X432737D02*
X434387D01*
X436587D02*
X437937D01*
X442037D02*
X443337D01*
X446637D02*
X447037D01*
X420837Y256256D02*
X424487D01*
X425737D02*
X427937D01*
X429237D02*
X431437D01*
X432737D02*
X434387D01*
X436587D02*
X437937D01*
X442037D02*
X443337D01*
X446587D02*
X447037D01*
X420837Y256206D02*
X424487D01*
X425687D02*
X427937D01*
X429237D02*
X431437D01*
X432737D02*
X434387D01*
X436587D02*
X437937D01*
X442037D02*
X443337D01*
X446587D02*
X447037D01*
X420837Y256156D02*
X424487D01*
X425687D02*
X427987D01*
X429187D02*
X431487D01*
X432737D02*
X434337D01*
X436587D02*
X437937D01*
X442037D02*
X443337D01*
X446587D02*
X446987D01*
X420887Y256106D02*
X424487D01*
X425687D02*
X427987D01*
X429187D02*
X431487D01*
X432737D02*
X434337D01*
X436587D02*
X437937D01*
X442037D02*
X443337D01*
X446537D02*
X446987D01*
X420887Y256056D02*
X424537D01*
X425637D02*
X427987D01*
X429187D02*
X431437D01*
X432737D02*
X434337D01*
X436587D02*
X437937D01*
X442037D02*
X443337D01*
X446537D02*
X446987D01*
X420937Y256006D02*
X424537D01*
X425637D02*
X428037D01*
X429187D02*
X431437D01*
X432737D02*
X434337D01*
X436587D02*
X437937D01*
X442037D02*
X443337D01*
X446537D02*
X446937D01*
X420937Y255956D02*
X424537D01*
X425637D02*
X428037D01*
X429137D02*
X431437D01*
X432737D02*
X434287D01*
X436587D02*
X437937D01*
X442037D02*
X443337D01*
X446487D02*
X446937D01*
X420937Y255906D02*
X424587D01*
X424687D02*
X424737D01*
X425537D02*
X428037D01*
X428137D02*
X428187D01*
X428237D02*
X428337D01*
X429137D02*
X431487D01*
X432737D02*
X434287D01*
X436687D02*
X437937D01*
X442137D02*
X442237D01*
X442337D02*
X443137D01*
X443287D02*
X443337D01*
X446487D02*
X446937D01*
X420987Y255856D02*
X434287D01*
X446437D02*
X446887D01*
X420987Y255806D02*
X434237D01*
X446437D02*
X446887D01*
X421037Y255756D02*
X434237D01*
X446387D02*
X446837D01*
X421037Y255706D02*
X434237D01*
X446387D02*
X446837D01*
X421037Y255656D02*
X434187D01*
X446337D02*
X446787D01*
X421087Y255606D02*
X434187D01*
X446337D02*
X446787D01*
X421087Y255556D02*
X434137D01*
X446287D02*
X446737D01*
X421137Y255506D02*
X434137D01*
X446287D02*
X446737D01*
X421137Y255456D02*
X434137D01*
X446237D02*
X446687D01*
X421187Y255406D02*
X434087D01*
X446237D02*
X446687D01*
X421237Y255356D02*
X434087D01*
X446187D02*
X446637D01*
X421237Y255306D02*
X434037D01*
X446137D02*
X446637D01*
X421287Y255256D02*
X434037D01*
X446137D02*
X446587D01*
X421287Y255206D02*
X433987D01*
X446087D02*
X446587D01*
X421337Y255156D02*
X433987D01*
X446037D02*
X446537D01*
X421387Y255106D02*
X433937D01*
X445987D02*
X446487D01*
X421387Y255056D02*
X433937D01*
X445987D02*
X446487D01*
X421437Y255006D02*
X433887D01*
X445937D02*
X446437D01*
X421487Y254956D02*
X433887D01*
X445887D02*
X446387D01*
X421537Y254906D02*
X433837D01*
X445837D02*
X446337D01*
X421537Y254856D02*
X433787D01*
X445787D02*
X446337D01*
X421587Y254806D02*
X433787D01*
X445737D02*
X446287D01*
X421637Y254756D02*
X433737D01*
X445737D02*
X446237D01*
X421687Y254706D02*
X433687D01*
X445687D02*
X446187D01*
X421687Y254656D02*
X433687D01*
X445637D02*
X446137D01*
X421737Y254606D02*
X433637D01*
X445587D02*
X446137D01*
X421787Y254556D02*
X433587D01*
X445487D02*
X446087D01*
X421837Y254506D02*
X433587D01*
X445437D02*
X446037D01*
X421887Y254456D02*
X433537D01*
X445387D02*
X445987D01*
X421937Y254406D02*
X433487D01*
X445337D02*
X445937D01*
X421987Y254356D02*
X433437D01*
X445287D02*
X445887D01*
X422037Y254306D02*
X433387D01*
X445187D02*
X445837D01*
X422087Y254256D02*
X433387D01*
X445137D02*
X445787D01*
X422137Y254206D02*
X433337D01*
X445087D02*
X445737D01*
X422237Y254156D02*
X433287D01*
X444987D02*
X445637D01*
X422287Y254106D02*
X433237D01*
X444937D02*
X445587D01*
X422337Y254056D02*
X433187D01*
X444837D02*
X445537D01*
X422387Y254006D02*
X433137D01*
X444737D02*
X445487D01*
X422437Y253956D02*
X433087D01*
X444637D02*
X445387D01*
X422537Y253906D02*
X433037D01*
X444537D02*
X445337D01*
X422587Y253856D02*
X432987D01*
X444437D02*
X445287D01*
X422687Y253806D02*
X432937D01*
X444337D02*
X445187D01*
X422737Y253756D02*
X432887D01*
X444187D02*
X445137D01*
X422837Y253706D02*
X432837D01*
X444037D02*
X445037D01*
X422937Y253656D02*
X432787D01*
X443887D02*
X444937D01*
X423037Y253606D02*
X432687D01*
X443637D02*
X444837D01*
X423137Y253556D02*
X432637D01*
X443287D02*
X444737D01*
X423237Y253506D02*
X444637D01*
X423337Y253456D02*
X444537D01*
X423437Y253406D02*
X444437D01*
X423587Y253356D02*
X444287D01*
X423737Y253306D02*
X444137D01*
X423887Y253256D02*
X443987D01*
X424087Y253206D02*
X443787D01*
X424337Y253156D02*
X443587D01*
X424687Y253106D02*
X443187D01*
M02*
