G04 Layer_Color=8388736*
%FSLAX25Y25*%
%MOIN*%
G70*
G01*
G75*
%ADD60C,0.00800*%
%ADD94C,0.00400*%
%ADD95R,0.06112X0.04931*%
%ADD96R,0.04931X0.06112*%
%ADD97R,0.04931X0.03356*%
%ADD98R,0.04931X0.02372*%
%ADD99O,0.02293X0.05915*%
%ADD100R,0.12214X0.07529*%
%ADD101R,0.02962X0.03750*%
%ADD102R,0.03750X0.02962*%
%ADD103R,0.07687X0.09065*%
%ADD104R,0.09065X0.07687*%
%ADD105O,0.07096X0.01761*%
%ADD106O,0.01761X0.07096*%
%ADD107R,0.08002X0.07214*%
%ADD108O,0.01742X0.05915*%
%ADD109O,0.02765X0.05324*%
%ADD110R,0.06112X0.02293*%
%ADD111R,0.02293X0.06112*%
%ADD112R,0.05600X0.12600*%
%ADD113R,0.03356X0.04931*%
%ADD114R,0.02372X0.04931*%
%ADD115R,0.07650X0.30100*%
%ADD116R,0.23000X0.06900*%
%ADD117R,0.13592X0.05285*%
%ADD118R,0.07687X0.13986*%
%ADD119R,0.13986X0.07687*%
%ADD120R,0.19104X0.13986*%
%ADD121R,0.13986X0.19104*%
%ADD122R,0.07490X0.05521*%
%ADD123R,0.05521X0.07490*%
%ADD124R,0.02962X0.02765*%
%ADD125R,0.03750X0.03750*%
%ADD126R,0.03750X0.03750*%
%ADD127R,0.06506X0.10049*%
%ADD128R,0.06112X0.06506*%
%ADD129R,0.06506X0.06112*%
%ADD130R,0.05324X0.05324*%
%ADD131R,0.05324X0.05324*%
%ADD132R,0.04143X0.03159*%
%ADD133R,0.03159X0.04143*%
%ADD134C,0.04537*%
%ADD135R,0.10600X0.05100*%
%ADD136R,0.06100X0.10600*%
%ADD137R,0.09655X0.06506*%
%ADD138R,0.06506X0.09655*%
%ADD139R,0.05718X0.08080*%
%ADD140O,0.05718X0.08080*%
%ADD141R,0.04143X0.01584*%
G04:AMPARAMS|DCode=142|XSize=99.7mil|YSize=70.96mil|CornerRadius=19.24mil|HoleSize=0mil|Usage=FLASHONLY|Rotation=270.000|XOffset=0mil|YOffset=0mil|HoleType=Round|Shape=RoundedRectangle|*
%AMROUNDEDRECTD142*
21,1,0.09970,0.03248,0,0,270.0*
21,1,0.06122,0.07096,0,0,270.0*
1,1,0.03848,-0.01624,-0.03061*
1,1,0.03848,-0.01624,0.03061*
1,1,0.03848,0.01624,0.03061*
1,1,0.03848,0.01624,-0.03061*
%
%ADD142ROUNDEDRECTD142*%
%ADD143R,0.08474X0.22253*%
%ADD144C,0.26191*%
%ADD145C,0.07200*%
%ADD146R,0.07200X0.07200*%
%ADD147R,0.07200X0.07200*%
%ADD148R,0.06506X0.06506*%
%ADD149C,0.06506*%
%ADD150R,0.06506X0.06506*%
%ADD151C,0.08080*%
%ADD152R,0.08080X0.08080*%
%ADD153C,0.21600*%
%ADD154C,0.00724*%
G36*
X70772Y95759D02*
X70931D01*
X71124Y95724D01*
X71353Y95706D01*
X71599Y95671D01*
X71863Y95618D01*
X72162Y95566D01*
X72479Y95495D01*
X72795Y95407D01*
X73147Y95319D01*
X73499Y95196D01*
X73868Y95073D01*
X74238Y94915D01*
Y92751D01*
X74220Y92769D01*
X74132Y92787D01*
X74027Y92839D01*
X73868Y92910D01*
X73675Y92980D01*
X73464Y93068D01*
X73217Y93156D01*
X72954Y93244D01*
X72391Y93420D01*
X71810Y93578D01*
X71230Y93701D01*
X70948Y93719D01*
X70702Y93736D01*
X70579D01*
X70438Y93719D01*
X70262Y93701D01*
X70086Y93666D01*
X69875Y93631D01*
X69682Y93560D01*
X69506Y93472D01*
X69488Y93455D01*
X69436Y93420D01*
X69365Y93367D01*
X69295Y93297D01*
X69207Y93209D01*
X69137Y93085D01*
X69084Y92962D01*
X69066Y92804D01*
Y92787D01*
Y92751D01*
X69084Y92681D01*
X69101Y92593D01*
X69137Y92505D01*
X69207Y92400D01*
X69277Y92276D01*
X69383Y92171D01*
X69401Y92153D01*
X69453Y92118D01*
X69541Y92065D01*
X69700Y91977D01*
X69893Y91872D01*
X70034Y91801D01*
X70174Y91749D01*
X70333Y91678D01*
X70509Y91590D01*
X70720Y91520D01*
X70931Y91432D01*
X70948D01*
X70984Y91414D01*
X71054Y91379D01*
X71142Y91362D01*
X71247Y91309D01*
X71371Y91274D01*
X71652Y91151D01*
X71969Y91027D01*
X72303Y90887D01*
X72619Y90728D01*
X72918Y90588D01*
X72954Y90570D01*
X73042Y90517D01*
X73182Y90429D01*
X73358Y90306D01*
X73552Y90148D01*
X73780Y89955D01*
X73991Y89743D01*
X74203Y89480D01*
X74220Y89444D01*
X74291Y89356D01*
X74378Y89198D01*
X74484Y88987D01*
X74572Y88741D01*
X74660Y88424D01*
X74730Y88072D01*
X74748Y87685D01*
Y87668D01*
Y87615D01*
Y87527D01*
X74730Y87422D01*
X74713Y87298D01*
X74677Y87140D01*
X74607Y86788D01*
X74449Y86384D01*
X74361Y86190D01*
X74238Y85979D01*
X74115Y85768D01*
X73939Y85575D01*
X73763Y85381D01*
X73552Y85205D01*
X73534Y85188D01*
X73499Y85170D01*
X73429Y85117D01*
X73341Y85065D01*
X73217Y84994D01*
X73077Y84924D01*
X72918Y84836D01*
X72725Y84748D01*
X72514Y84660D01*
X72285Y84572D01*
X72021Y84502D01*
X71758Y84431D01*
X71459Y84378D01*
X71142Y84326D01*
X70808Y84308D01*
X70456Y84290D01*
X70245D01*
X70104Y84308D01*
X69911Y84326D01*
X69700Y84343D01*
X69436Y84378D01*
X69172Y84431D01*
X68873Y84484D01*
X68556Y84554D01*
X68222Y84642D01*
X67870Y84748D01*
X67518Y84871D01*
X67149Y85012D01*
X66797Y85170D01*
X66428Y85364D01*
Y87756D01*
X66445D01*
X66480Y87721D01*
X66533Y87685D01*
X66621Y87633D01*
X66709Y87562D01*
X66832Y87492D01*
X67096Y87334D01*
X67395Y87158D01*
X67729Y86982D01*
X68064Y86806D01*
X68398Y86665D01*
X68415D01*
X68433Y86648D01*
X68486Y86630D01*
X68556Y86612D01*
X68714Y86560D01*
X68943Y86507D01*
X69225Y86436D01*
X69541Y86384D01*
X69875Y86349D01*
X70227Y86331D01*
X70385D01*
X70491Y86349D01*
X70614Y86366D01*
X70755Y86384D01*
X71054Y86454D01*
X71353Y86577D01*
X71494Y86665D01*
X71617Y86771D01*
X71722Y86894D01*
X71810Y87035D01*
X71863Y87193D01*
X71881Y87369D01*
Y87386D01*
Y87422D01*
X71863Y87492D01*
X71846Y87580D01*
X71793Y87685D01*
X71740Y87791D01*
X71652Y87914D01*
X71546Y88020D01*
X71529Y88037D01*
X71476Y88072D01*
X71371Y88143D01*
X71230Y88231D01*
X71019Y88354D01*
X70878Y88407D01*
X70737Y88477D01*
X70579Y88547D01*
X70385Y88635D01*
X70192Y88706D01*
X69963Y88794D01*
X69946D01*
X69911Y88811D01*
X69840Y88846D01*
X69752Y88864D01*
X69647Y88917D01*
X69524Y88952D01*
X69242Y89075D01*
X68925Y89198D01*
X68591Y89339D01*
X68275Y89497D01*
X67976Y89638D01*
X67940Y89656D01*
X67852Y89708D01*
X67712Y89796D01*
X67554Y89919D01*
X67360Y90078D01*
X67149Y90254D01*
X66938Y90482D01*
X66727Y90728D01*
X66709Y90764D01*
X66639Y90852D01*
X66568Y91010D01*
X66463Y91221D01*
X66375Y91485D01*
X66287Y91801D01*
X66217Y92153D01*
X66199Y92558D01*
Y92575D01*
Y92628D01*
Y92699D01*
X66217Y92804D01*
X66234Y92927D01*
X66252Y93068D01*
X66340Y93385D01*
X66480Y93754D01*
X66568Y93947D01*
X66674Y94141D01*
X66815Y94334D01*
X66973Y94528D01*
X67149Y94704D01*
X67342Y94880D01*
X67360Y94897D01*
X67395Y94915D01*
X67466Y94968D01*
X67554Y95020D01*
X67677Y95091D01*
X67817Y95161D01*
X67976Y95249D01*
X68169Y95337D01*
X68380Y95407D01*
X68609Y95495D01*
X68873Y95566D01*
X69154Y95636D01*
X69436Y95689D01*
X69770Y95742D01*
X70104Y95759D01*
X70456Y95777D01*
X70632D01*
X70772Y95759D01*
D02*
G37*
G36*
X12251D02*
X12409D01*
X12602Y95724D01*
X12831Y95706D01*
X13077Y95671D01*
X13341Y95618D01*
X13640Y95566D01*
X13957Y95495D01*
X14273Y95407D01*
X14625Y95319D01*
X14977Y95196D01*
X15346Y95073D01*
X15716Y94915D01*
Y92751D01*
X15698Y92769D01*
X15610Y92787D01*
X15505Y92839D01*
X15346Y92910D01*
X15153Y92980D01*
X14942Y93068D01*
X14696Y93156D01*
X14432Y93244D01*
X13869Y93420D01*
X13288Y93578D01*
X12708Y93701D01*
X12426Y93719D01*
X12180Y93736D01*
X12057D01*
X11916Y93719D01*
X11740Y93701D01*
X11564Y93666D01*
X11354Y93631D01*
X11160Y93560D01*
X10984Y93472D01*
X10966Y93455D01*
X10914Y93420D01*
X10843Y93367D01*
X10773Y93297D01*
X10685Y93209D01*
X10615Y93085D01*
X10562Y92962D01*
X10544Y92804D01*
Y92787D01*
Y92751D01*
X10562Y92681D01*
X10580Y92593D01*
X10615Y92505D01*
X10685Y92400D01*
X10755Y92276D01*
X10861Y92171D01*
X10879Y92153D01*
X10931Y92118D01*
X11019Y92065D01*
X11178Y91977D01*
X11371Y91872D01*
X11512Y91801D01*
X11653Y91749D01*
X11811Y91678D01*
X11987Y91590D01*
X12198Y91520D01*
X12409Y91432D01*
X12426D01*
X12462Y91414D01*
X12532Y91379D01*
X12620Y91362D01*
X12725Y91309D01*
X12849Y91274D01*
X13130Y91151D01*
X13447Y91027D01*
X13781Y90887D01*
X14097Y90728D01*
X14397Y90588D01*
X14432Y90570D01*
X14520Y90517D01*
X14660Y90429D01*
X14836Y90306D01*
X15030Y90148D01*
X15258Y89955D01*
X15470Y89743D01*
X15681Y89480D01*
X15698Y89444D01*
X15768Y89356D01*
X15856Y89198D01*
X15962Y88987D01*
X16050Y88741D01*
X16138Y88424D01*
X16208Y88072D01*
X16226Y87685D01*
Y87668D01*
Y87615D01*
Y87527D01*
X16208Y87422D01*
X16191Y87298D01*
X16156Y87140D01*
X16085Y86788D01*
X15927Y86384D01*
X15839Y86190D01*
X15716Y85979D01*
X15593Y85768D01*
X15417Y85575D01*
X15241Y85381D01*
X15030Y85205D01*
X15012Y85188D01*
X14977Y85170D01*
X14907Y85117D01*
X14819Y85065D01*
X14696Y84994D01*
X14555Y84924D01*
X14397Y84836D01*
X14203Y84748D01*
X13992Y84660D01*
X13763Y84572D01*
X13499Y84502D01*
X13236Y84431D01*
X12937Y84378D01*
X12620Y84326D01*
X12286Y84308D01*
X11934Y84290D01*
X11723D01*
X11582Y84308D01*
X11389Y84326D01*
X11178Y84343D01*
X10914Y84378D01*
X10650Y84431D01*
X10351Y84484D01*
X10034Y84554D01*
X9700Y84642D01*
X9348Y84748D01*
X8996Y84871D01*
X8627Y85012D01*
X8275Y85170D01*
X7906Y85364D01*
Y87756D01*
X7923D01*
X7959Y87721D01*
X8011Y87685D01*
X8099Y87633D01*
X8187Y87562D01*
X8310Y87492D01*
X8574Y87334D01*
X8873Y87158D01*
X9207Y86982D01*
X9542Y86806D01*
X9876Y86665D01*
X9894D01*
X9911Y86648D01*
X9964Y86630D01*
X10034Y86612D01*
X10193Y86560D01*
X10421Y86507D01*
X10703Y86436D01*
X11019Y86384D01*
X11354Y86349D01*
X11705Y86331D01*
X11864D01*
X11969Y86349D01*
X12092Y86366D01*
X12233Y86384D01*
X12532Y86454D01*
X12831Y86577D01*
X12972Y86665D01*
X13095Y86771D01*
X13200Y86894D01*
X13288Y87035D01*
X13341Y87193D01*
X13359Y87369D01*
Y87386D01*
Y87422D01*
X13341Y87492D01*
X13323Y87580D01*
X13271Y87685D01*
X13218Y87791D01*
X13130Y87914D01*
X13025Y88020D01*
X13007Y88037D01*
X12954Y88072D01*
X12849Y88143D01*
X12708Y88231D01*
X12497Y88354D01*
X12356Y88407D01*
X12215Y88477D01*
X12057Y88547D01*
X11864Y88635D01*
X11670Y88706D01*
X11441Y88794D01*
X11424D01*
X11389Y88811D01*
X11318Y88846D01*
X11230Y88864D01*
X11125Y88917D01*
X11002Y88952D01*
X10720Y89075D01*
X10404Y89198D01*
X10069Y89339D01*
X9753Y89497D01*
X9454Y89638D01*
X9419Y89656D01*
X9331Y89708D01*
X9190Y89796D01*
X9032Y89919D01*
X8838Y90078D01*
X8627Y90254D01*
X8416Y90482D01*
X8205Y90728D01*
X8187Y90764D01*
X8117Y90852D01*
X8046Y91010D01*
X7941Y91221D01*
X7853Y91485D01*
X7765Y91801D01*
X7695Y92153D01*
X7677Y92558D01*
Y92575D01*
Y92628D01*
Y92699D01*
X7695Y92804D01*
X7712Y92927D01*
X7730Y93068D01*
X7818Y93385D01*
X7959Y93754D01*
X8046Y93947D01*
X8152Y94141D01*
X8293Y94334D01*
X8451Y94528D01*
X8627Y94704D01*
X8821Y94880D01*
X8838Y94897D01*
X8873Y94915D01*
X8944Y94968D01*
X9032Y95020D01*
X9155Y95091D01*
X9295Y95161D01*
X9454Y95249D01*
X9647Y95337D01*
X9858Y95407D01*
X10087Y95495D01*
X10351Y95566D01*
X10632Y95636D01*
X10914Y95689D01*
X11248Y95742D01*
X11582Y95759D01*
X11934Y95777D01*
X12110D01*
X12251Y95759D01*
D02*
G37*
G36*
X64159Y84449D02*
X61819D01*
X55645Y91590D01*
Y84449D01*
X52866D01*
Y95618D01*
X55399D01*
X61379Y88776D01*
Y95618D01*
X64159D01*
Y84449D01*
D02*
G37*
G36*
X50597Y93578D02*
X45249D01*
Y91221D01*
X50350D01*
Y89180D01*
X45249D01*
Y86489D01*
X50702D01*
Y84449D01*
X42470D01*
Y95618D01*
X50597D01*
Y93578D01*
D02*
G37*
G36*
X35170Y86489D02*
X40905D01*
Y84449D01*
X32391D01*
Y95618D01*
X35170D01*
Y86489D01*
D02*
G37*
G36*
X24229Y95759D02*
X24423Y95742D01*
X24669Y95724D01*
X24950Y95689D01*
X25267Y95636D01*
X25601Y95566D01*
X25971Y95460D01*
X26340Y95355D01*
X26727Y95214D01*
X27114Y95038D01*
X27501Y94845D01*
X27871Y94616D01*
X28240Y94334D01*
X28574Y94035D01*
X28592Y94018D01*
X28644Y93965D01*
X28732Y93859D01*
X28855Y93736D01*
X28979Y93560D01*
X29137Y93367D01*
X29295Y93138D01*
X29471Y92892D01*
X29629Y92611D01*
X29788Y92294D01*
X29946Y91977D01*
X30069Y91625D01*
X30192Y91239D01*
X30280Y90852D01*
X30333Y90447D01*
X30351Y90025D01*
Y90007D01*
Y89919D01*
X30333Y89796D01*
X30316Y89638D01*
X30298Y89427D01*
X30263Y89198D01*
X30192Y88934D01*
X30122Y88653D01*
X30034Y88336D01*
X29911Y88020D01*
X29770Y87685D01*
X29594Y87351D01*
X29383Y86999D01*
X29155Y86665D01*
X28873Y86331D01*
X28556Y85997D01*
X28539Y85979D01*
X28468Y85926D01*
X28381Y85838D01*
X28240Y85733D01*
X28046Y85610D01*
X27835Y85452D01*
X27589Y85311D01*
X27308Y85152D01*
X26991Y84977D01*
X26639Y84836D01*
X26270Y84695D01*
X25848Y84554D01*
X25425Y84449D01*
X24950Y84361D01*
X24458Y84308D01*
X23948Y84290D01*
X23825D01*
X23684Y84308D01*
X23473Y84326D01*
X23244Y84343D01*
X22963Y84378D01*
X22646Y84431D01*
X22312Y84502D01*
X21960Y84589D01*
X21573Y84695D01*
X21204Y84836D01*
X20817Y85012D01*
X20430Y85205D01*
X20043Y85416D01*
X19691Y85680D01*
X19339Y85979D01*
X19322Y85997D01*
X19269Y86049D01*
X19181Y86155D01*
X19058Y86278D01*
X18935Y86454D01*
X18776Y86648D01*
X18618Y86876D01*
X18460Y87122D01*
X18284Y87404D01*
X18126Y87721D01*
X17967Y88055D01*
X17844Y88407D01*
X17721Y88776D01*
X17633Y89180D01*
X17580Y89603D01*
X17563Y90025D01*
Y90060D01*
Y90130D01*
X17580Y90254D01*
X17598Y90412D01*
X17616Y90605D01*
X17651Y90852D01*
X17704Y91115D01*
X17791Y91397D01*
X17879Y91696D01*
X17985Y92030D01*
X18143Y92347D01*
X18302Y92699D01*
X18513Y93050D01*
X18741Y93385D01*
X19005Y93719D01*
X19322Y94053D01*
X19339Y94071D01*
X19410Y94123D01*
X19498Y94211D01*
X19638Y94317D01*
X19814Y94458D01*
X20043Y94598D01*
X20289Y94757D01*
X20571Y94915D01*
X20887Y95073D01*
X21239Y95231D01*
X21608Y95372D01*
X22031Y95513D01*
X22470Y95618D01*
X22928Y95706D01*
X23420Y95759D01*
X23948Y95777D01*
X24071D01*
X24229Y95759D01*
D02*
G37*
G36*
X41667Y78204D02*
X41742Y78197D01*
X41838Y78184D01*
X41960Y78170D01*
X42104Y78150D01*
Y77413D01*
X42090D01*
X42056Y77420D01*
X42001Y77427D01*
X41940Y77434D01*
X41804Y77440D01*
X41742Y77447D01*
X41640D01*
X41606Y77440D01*
X41531Y77420D01*
X41435Y77386D01*
X41388Y77359D01*
X41340Y77318D01*
X41299Y77277D01*
X41265Y77229D01*
X41231Y77167D01*
X41203Y77099D01*
X41190Y77017D01*
X41183Y76929D01*
Y76745D01*
X41599D01*
Y76117D01*
X41183D01*
Y73819D01*
X40262D01*
Y76117D01*
X39846D01*
Y76745D01*
X40262D01*
Y76888D01*
Y76895D01*
Y76915D01*
Y76949D01*
X40269Y76990D01*
X40276Y77045D01*
X40283Y77106D01*
X40303Y77242D01*
X40344Y77399D01*
X40405Y77556D01*
X40446Y77638D01*
X40494Y77713D01*
X40542Y77788D01*
X40603Y77856D01*
X40610Y77863D01*
X40617Y77870D01*
X40637Y77890D01*
X40665Y77911D01*
X40705Y77938D01*
X40746Y77965D01*
X40794Y78000D01*
X40849Y78034D01*
X40917Y78068D01*
X40985Y78102D01*
X41149Y78156D01*
X41333Y78197D01*
X41435Y78204D01*
X41544Y78211D01*
X41613D01*
X41667Y78204D01*
D02*
G37*
G36*
X37984D02*
X38059Y78197D01*
X38155Y78184D01*
X38278Y78170D01*
X38421Y78150D01*
Y77413D01*
X38407D01*
X38373Y77420D01*
X38318Y77427D01*
X38257Y77434D01*
X38121Y77440D01*
X38059Y77447D01*
X37957D01*
X37923Y77440D01*
X37848Y77420D01*
X37752Y77386D01*
X37705Y77359D01*
X37657Y77318D01*
X37616Y77277D01*
X37582Y77229D01*
X37548Y77167D01*
X37521Y77099D01*
X37507Y77017D01*
X37500Y76929D01*
Y76745D01*
X37916D01*
Y76117D01*
X37500D01*
Y73819D01*
X36579D01*
Y76117D01*
X36163D01*
Y76745D01*
X36579D01*
Y76888D01*
Y76895D01*
Y76915D01*
Y76949D01*
X36586Y76990D01*
X36593Y77045D01*
X36600Y77106D01*
X36620Y77242D01*
X36661Y77399D01*
X36723Y77556D01*
X36764Y77638D01*
X36811Y77713D01*
X36859Y77788D01*
X36920Y77856D01*
X36927Y77863D01*
X36934Y77870D01*
X36955Y77890D01*
X36982Y77911D01*
X37023Y77938D01*
X37064Y77965D01*
X37111Y78000D01*
X37166Y78034D01*
X37234Y78068D01*
X37302Y78102D01*
X37466Y78156D01*
X37650Y78197D01*
X37752Y78204D01*
X37862Y78211D01*
X37930D01*
X37984Y78204D01*
D02*
G37*
G36*
X69322D02*
X69370Y78190D01*
X69431Y78177D01*
X69486Y78150D01*
X69547Y78109D01*
X69609Y78061D01*
X69616Y78054D01*
X69629Y78034D01*
X69656Y78000D01*
X69684Y77959D01*
X69711Y77904D01*
X69738Y77843D01*
X69752Y77775D01*
X69759Y77700D01*
Y77693D01*
Y77665D01*
X69752Y77624D01*
X69738Y77577D01*
X69725Y77522D01*
X69697Y77461D01*
X69656Y77406D01*
X69609Y77345D01*
X69602Y77338D01*
X69581Y77324D01*
X69547Y77297D01*
X69506Y77270D01*
X69452Y77242D01*
X69390Y77215D01*
X69322Y77202D01*
X69247Y77195D01*
X69213D01*
X69172Y77202D01*
X69124Y77215D01*
X69070Y77229D01*
X69008Y77256D01*
X68954Y77297D01*
X68893Y77345D01*
X68886Y77352D01*
X68872Y77372D01*
X68845Y77406D01*
X68824Y77447D01*
X68797Y77495D01*
X68770Y77556D01*
X68756Y77624D01*
X68749Y77700D01*
Y77706D01*
Y77734D01*
X68756Y77775D01*
X68770Y77822D01*
X68783Y77884D01*
X68811Y77938D01*
X68845Y78000D01*
X68893Y78061D01*
X68899Y78068D01*
X68920Y78081D01*
X68954Y78109D01*
X68995Y78136D01*
X69043Y78163D01*
X69104Y78190D01*
X69172Y78204D01*
X69247Y78211D01*
X69281D01*
X69322Y78204D01*
D02*
G37*
G36*
X73912Y76799D02*
X73967D01*
X74021Y76792D01*
X74089Y76779D01*
X74233Y76758D01*
X74403Y76724D01*
X74587Y76676D01*
X74778Y76608D01*
Y75926D01*
X74771D01*
X74758Y75933D01*
X74737Y75947D01*
X74710Y75960D01*
X74635Y75988D01*
X74540Y76029D01*
X74424Y76063D01*
X74294Y76097D01*
X74158Y76117D01*
X74021Y76124D01*
X73953D01*
X73878Y76110D01*
X73782Y76097D01*
X73680Y76069D01*
X73564Y76029D01*
X73462Y75967D01*
X73360Y75892D01*
X73346Y75879D01*
X73319Y75851D01*
X73285Y75797D01*
X73237Y75728D01*
X73189Y75640D01*
X73155Y75531D01*
X73128Y75408D01*
X73114Y75272D01*
Y75265D01*
Y75258D01*
Y75238D01*
X73121Y75210D01*
X73128Y75135D01*
X73141Y75046D01*
X73176Y74951D01*
X73216Y74842D01*
X73271Y74740D01*
X73353Y74644D01*
X73366Y74637D01*
X73401Y74610D01*
X73448Y74569D01*
X73523Y74528D01*
X73619Y74487D01*
X73721Y74446D01*
X73851Y74419D01*
X73987Y74412D01*
X74001D01*
X74042Y74419D01*
X74110Y74426D01*
X74199Y74440D01*
X74321Y74460D01*
X74464Y74501D01*
X74628Y74549D01*
X74819Y74617D01*
Y73949D01*
X74812D01*
X74792Y73942D01*
X74765Y73928D01*
X74730Y73921D01*
X74676Y73908D01*
X74621Y73887D01*
X74560Y73874D01*
X74492Y73853D01*
X74335Y73819D01*
X74171Y73785D01*
X73994Y73764D01*
X73823Y73757D01*
X73748D01*
X73694Y73764D01*
X73633Y73771D01*
X73557Y73778D01*
X73469Y73792D01*
X73380Y73812D01*
X73182Y73860D01*
X73080Y73894D01*
X72978Y73928D01*
X72875Y73976D01*
X72773Y74030D01*
X72678Y74092D01*
X72589Y74167D01*
X72582Y74173D01*
X72569Y74187D01*
X72548Y74208D01*
X72521Y74242D01*
X72480Y74283D01*
X72446Y74337D01*
X72405Y74392D01*
X72364Y74460D01*
X72316Y74535D01*
X72275Y74617D01*
X72241Y74705D01*
X72207Y74808D01*
X72173Y74910D01*
X72153Y75019D01*
X72139Y75142D01*
X72132Y75265D01*
Y75272D01*
Y75292D01*
Y75326D01*
X72139Y75374D01*
X72146Y75435D01*
X72159Y75497D01*
X72173Y75572D01*
X72193Y75653D01*
X72248Y75831D01*
X72282Y75920D01*
X72330Y76015D01*
X72384Y76104D01*
X72446Y76199D01*
X72514Y76288D01*
X72596Y76370D01*
X72603Y76376D01*
X72616Y76390D01*
X72644Y76411D01*
X72678Y76438D01*
X72725Y76472D01*
X72780Y76506D01*
X72848Y76547D01*
X72923Y76588D01*
X73005Y76629D01*
X73094Y76670D01*
X73189Y76704D01*
X73298Y76738D01*
X73414Y76765D01*
X73530Y76786D01*
X73660Y76799D01*
X73789Y76806D01*
X73871D01*
X73912Y76799D01*
D02*
G37*
G36*
X44702Y72414D02*
X43727D01*
X44579Y74290D01*
X43440Y76745D01*
X44422D01*
X45036Y75244D01*
X45698Y76745D01*
X46659D01*
X44702Y72414D01*
D02*
G37*
G36*
X14244D02*
X13269D01*
X14121Y74290D01*
X12982Y76745D01*
X13964D01*
X14578Y75244D01*
X15240Y76745D01*
X16201D01*
X14244Y72414D01*
D02*
G37*
G36*
X33920Y73819D02*
X32999D01*
Y74235D01*
X32992Y74228D01*
X32978Y74215D01*
X32958Y74194D01*
X32924Y74160D01*
X32890Y74126D01*
X32842Y74085D01*
X32787Y74044D01*
X32726Y73996D01*
X32590Y73908D01*
X32426Y73832D01*
X32337Y73798D01*
X32249Y73778D01*
X32153Y73764D01*
X32051Y73757D01*
X32003D01*
X31969Y73764D01*
X31928D01*
X31887Y73771D01*
X31778Y73792D01*
X31648Y73832D01*
X31519Y73880D01*
X31396Y73955D01*
X31335Y73996D01*
X31273Y74051D01*
Y74058D01*
X31260Y74064D01*
X31226Y74105D01*
X31178Y74173D01*
X31130Y74262D01*
X31076Y74378D01*
X31028Y74521D01*
X30994Y74685D01*
X30987Y74774D01*
X30980Y74869D01*
Y76745D01*
X31901D01*
Y74924D01*
Y74917D01*
Y74903D01*
Y74876D01*
X31908Y74835D01*
X31928Y74746D01*
X31962Y74651D01*
X32017Y74549D01*
X32051Y74501D01*
X32099Y74460D01*
X32153Y74426D01*
X32215Y74399D01*
X32283Y74378D01*
X32365Y74371D01*
X32406D01*
X32453Y74385D01*
X32515Y74399D01*
X32590Y74419D01*
X32658Y74453D01*
X32733Y74501D01*
X32808Y74569D01*
X32815Y74576D01*
X32835Y74603D01*
X32869Y74637D01*
X32903Y74685D01*
X32937Y74733D01*
X32972Y74780D01*
X32992Y74828D01*
X32999Y74869D01*
Y76745D01*
X33920D01*
Y73819D01*
D02*
G37*
G36*
X69718D02*
X68797D01*
Y76745D01*
X69718D01*
Y73819D01*
D02*
G37*
G36*
X53541Y74610D02*
X55764D01*
Y73819D01*
X52463D01*
Y78150D01*
X53541D01*
Y74610D01*
D02*
G37*
G36*
X28436Y73819D02*
X27516D01*
Y78150D01*
X28436D01*
Y73819D01*
D02*
G37*
G36*
X24985Y77359D02*
X23083D01*
Y76390D01*
X24985D01*
Y75599D01*
X23083D01*
Y73819D01*
X22005D01*
Y78150D01*
X24985D01*
Y77359D01*
D02*
G37*
G36*
X59651Y76799D02*
X59706Y76792D01*
X59774Y76786D01*
X59856Y76772D01*
X59938Y76758D01*
X60115Y76704D01*
X60217Y76676D01*
X60313Y76636D01*
X60409Y76588D01*
X60511Y76533D01*
X60606Y76472D01*
X60695Y76397D01*
X60702Y76390D01*
X60715Y76376D01*
X60743Y76356D01*
X60770Y76322D01*
X60804Y76281D01*
X60845Y76233D01*
X60893Y76172D01*
X60940Y76104D01*
X60981Y76029D01*
X61029Y75947D01*
X61070Y75851D01*
X61104Y75756D01*
X61131Y75647D01*
X61159Y75531D01*
X61172Y75401D01*
X61179Y75272D01*
Y75265D01*
Y75238D01*
Y75203D01*
X61172Y75156D01*
X61165Y75094D01*
X61152Y75019D01*
X61138Y74944D01*
X61118Y74862D01*
X61090Y74774D01*
X61056Y74678D01*
X61022Y74590D01*
X60975Y74494D01*
X60913Y74405D01*
X60852Y74317D01*
X60777Y74228D01*
X60688Y74153D01*
X60681Y74146D01*
X60668Y74139D01*
X60640Y74119D01*
X60599Y74092D01*
X60558Y74064D01*
X60497Y74030D01*
X60436Y73989D01*
X60361Y73955D01*
X60279Y73921D01*
X60197Y73880D01*
X60102Y73846D01*
X59999Y73819D01*
X59890Y73792D01*
X59774Y73778D01*
X59658Y73764D01*
X59535Y73757D01*
X59467D01*
X59413Y73764D01*
X59351Y73771D01*
X59283Y73778D01*
X59201Y73792D01*
X59113Y73812D01*
X58922Y73860D01*
X58826Y73894D01*
X58724Y73935D01*
X58622Y73983D01*
X58526Y74044D01*
X58431Y74105D01*
X58342Y74180D01*
X58335Y74187D01*
X58322Y74201D01*
X58301Y74221D01*
X58274Y74255D01*
X58233Y74296D01*
X58199Y74351D01*
X58158Y74412D01*
X58117Y74474D01*
X58069Y74549D01*
X58028Y74637D01*
X57994Y74726D01*
X57960Y74821D01*
X57926Y74924D01*
X57906Y75040D01*
X57892Y75156D01*
X57885Y75278D01*
Y75285D01*
Y75306D01*
Y75347D01*
X57892Y75394D01*
X57899Y75449D01*
X57912Y75517D01*
X57926Y75592D01*
X57946Y75674D01*
X57967Y75763D01*
X58001Y75851D01*
X58035Y75940D01*
X58083Y76035D01*
X58137Y76124D01*
X58199Y76219D01*
X58274Y76301D01*
X58356Y76383D01*
X58363Y76390D01*
X58376Y76404D01*
X58403Y76424D01*
X58438Y76451D01*
X58485Y76479D01*
X58540Y76520D01*
X58608Y76554D01*
X58683Y76595D01*
X58758Y76636D01*
X58854Y76670D01*
X58949Y76711D01*
X59051Y76738D01*
X59160Y76765D01*
X59283Y76786D01*
X59406Y76799D01*
X59535Y76806D01*
X59604D01*
X59651Y76799D01*
D02*
G37*
G36*
X8795Y76581D02*
X8801D01*
X8808Y76588D01*
X8829Y76601D01*
X8856Y76615D01*
X8931Y76649D01*
X9027Y76697D01*
X9136Y76738D01*
X9265Y76772D01*
X9402Y76799D01*
X9545Y76806D01*
X9606D01*
X9647Y76799D01*
X9702Y76792D01*
X9763Y76786D01*
X9831Y76772D01*
X9906Y76752D01*
X10070Y76704D01*
X10159Y76670D01*
X10241Y76629D01*
X10329Y76581D01*
X10411Y76520D01*
X10493Y76458D01*
X10568Y76383D01*
X10575Y76376D01*
X10588Y76363D01*
X10602Y76342D01*
X10629Y76308D01*
X10663Y76267D01*
X10697Y76213D01*
X10732Y76158D01*
X10773Y76090D01*
X10807Y76015D01*
X10841Y75926D01*
X10875Y75838D01*
X10909Y75742D01*
X10936Y75640D01*
X10950Y75524D01*
X10964Y75408D01*
X10970Y75285D01*
Y75278D01*
Y75258D01*
Y75217D01*
X10964Y75176D01*
X10957Y75115D01*
X10950Y75046D01*
X10936Y74971D01*
X10923Y74897D01*
X10875Y74719D01*
X10807Y74535D01*
X10766Y74440D01*
X10718Y74351D01*
X10657Y74262D01*
X10588Y74180D01*
X10582Y74173D01*
X10568Y74160D01*
X10548Y74139D01*
X10520Y74112D01*
X10479Y74085D01*
X10438Y74044D01*
X10384Y74010D01*
X10322Y73969D01*
X10254Y73928D01*
X10179Y73894D01*
X10016Y73826D01*
X9920Y73798D01*
X9818Y73778D01*
X9715Y73764D01*
X9606Y73757D01*
X9565D01*
X9531Y73764D01*
X9497D01*
X9449Y73771D01*
X9347Y73792D01*
X9218Y73826D01*
X9081Y73874D01*
X8938Y73942D01*
X8795Y74037D01*
Y73819D01*
X7874D01*
Y78150D01*
X8795D01*
Y76581D01*
D02*
G37*
G36*
X66546Y76131D02*
X66124D01*
X66131Y76117D01*
X66144Y76090D01*
X66171Y76035D01*
X66199Y75974D01*
X66226Y75899D01*
X66253Y75817D01*
X66267Y75728D01*
X66274Y75640D01*
Y75633D01*
Y75626D01*
Y75606D01*
X66267Y75585D01*
X66260Y75517D01*
X66240Y75435D01*
X66212Y75333D01*
X66165Y75231D01*
X66103Y75115D01*
X66014Y75006D01*
X66001Y74992D01*
X65967Y74958D01*
X65905Y74910D01*
X65824Y74856D01*
X65721Y74794D01*
X65592Y74740D01*
X65442Y74692D01*
X65264Y74665D01*
X65244D01*
X65217Y74658D01*
X65183D01*
X65101Y74644D01*
X65005Y74637D01*
X64910Y74617D01*
X64814Y74603D01*
X64773Y74590D01*
X64739Y74583D01*
X64719Y74576D01*
X64698Y74562D01*
X64691Y74555D01*
X64671Y74528D01*
X64644Y74487D01*
X64637Y74440D01*
Y74426D01*
X64650Y74399D01*
X64671Y74358D01*
X64691Y74337D01*
X64719Y74317D01*
X64726D01*
X64739Y74310D01*
X64780Y74296D01*
X64807D01*
X64835Y74290D01*
X64876Y74276D01*
X64923Y74269D01*
X64978Y74262D01*
X65046Y74255D01*
X65114Y74242D01*
X65203Y74235D01*
X65298Y74228D01*
X65401Y74215D01*
X65428D01*
X65455Y74208D01*
X65496Y74201D01*
X65544Y74194D01*
X65605Y74187D01*
X65728Y74160D01*
X65864Y74119D01*
X66008Y74064D01*
X66131Y73996D01*
X66185Y73955D01*
X66233Y73908D01*
X66246Y73894D01*
X66274Y73860D01*
X66308Y73812D01*
X66356Y73744D01*
X66396Y73655D01*
X66437Y73560D01*
X66465Y73457D01*
X66471Y73348D01*
Y73342D01*
Y73328D01*
Y73301D01*
X66465Y73267D01*
X66458Y73226D01*
X66451Y73185D01*
X66424Y73075D01*
X66376Y72953D01*
X66342Y72891D01*
X66301Y72837D01*
X66253Y72775D01*
X66206Y72714D01*
X66137Y72659D01*
X66069Y72612D01*
X66062D01*
X66049Y72598D01*
X66028Y72591D01*
X65994Y72571D01*
X65953Y72550D01*
X65905Y72530D01*
X65844Y72509D01*
X65776Y72489D01*
X65701Y72462D01*
X65612Y72441D01*
X65517Y72421D01*
X65414Y72400D01*
X65305Y72380D01*
X65183Y72373D01*
X65053Y72359D01*
X64842D01*
X64794Y72366D01*
X64726D01*
X64657Y72373D01*
X64575Y72380D01*
X64487Y72387D01*
X64296Y72421D01*
X64105Y72462D01*
X63921Y72516D01*
X63832Y72557D01*
X63757Y72598D01*
X63750D01*
X63744Y72612D01*
X63723Y72625D01*
X63696Y72639D01*
X63634Y72694D01*
X63559Y72762D01*
X63484Y72851D01*
X63423Y72953D01*
X63396Y73014D01*
X63382Y73075D01*
X63368Y73144D01*
X63362Y73212D01*
Y73219D01*
Y73232D01*
X63368Y73260D01*
X63375Y73301D01*
X63389Y73342D01*
X63402Y73389D01*
X63430Y73444D01*
X63457Y73505D01*
X63498Y73567D01*
X63552Y73628D01*
X63614Y73689D01*
X63689Y73751D01*
X63778Y73805D01*
X63880Y73860D01*
X64003Y73908D01*
X64139Y73949D01*
X64132D01*
X64125Y73955D01*
X64085Y73969D01*
X64030Y73996D01*
X63962Y74037D01*
X63894Y74085D01*
X63839Y74153D01*
X63798Y74235D01*
X63791Y74283D01*
X63784Y74330D01*
Y74337D01*
Y74344D01*
X63791Y74385D01*
X63812Y74440D01*
X63853Y74508D01*
X63880Y74542D01*
X63914Y74583D01*
X63955Y74617D01*
X64009Y74651D01*
X64071Y74685D01*
X64139Y74719D01*
X64221Y74746D01*
X64316Y74774D01*
X64303D01*
X64282Y74780D01*
X64255Y74787D01*
X64194Y74808D01*
X64112Y74835D01*
X64016Y74876D01*
X63921Y74931D01*
X63819Y74999D01*
X63730Y75081D01*
X63723Y75094D01*
X63696Y75128D01*
X63655Y75176D01*
X63614Y75251D01*
X63573Y75340D01*
X63532Y75435D01*
X63505Y75551D01*
X63498Y75674D01*
Y75681D01*
Y75694D01*
Y75715D01*
X63505Y75742D01*
X63512Y75783D01*
X63518Y75824D01*
X63539Y75926D01*
X63580Y76042D01*
X63641Y76165D01*
X63675Y76233D01*
X63723Y76295D01*
X63771Y76356D01*
X63832Y76417D01*
X63839Y76424D01*
X63846Y76431D01*
X63866Y76445D01*
X63894Y76472D01*
X63928Y76492D01*
X63968Y76520D01*
X64023Y76554D01*
X64078Y76581D01*
X64146Y76615D01*
X64214Y76642D01*
X64296Y76670D01*
X64385Y76697D01*
X64473Y76717D01*
X64575Y76731D01*
X64685Y76738D01*
X64801Y76745D01*
X66546D01*
Y76131D01*
D02*
G37*
%LPC*%
G36*
X23948Y93455D02*
X23790D01*
X23684Y93437D01*
X23543Y93420D01*
X23403Y93402D01*
X23227Y93385D01*
X23033Y93332D01*
X22629Y93226D01*
X22207Y93050D01*
X21995Y92945D01*
X21784Y92822D01*
X21591Y92681D01*
X21397Y92505D01*
X21380Y92488D01*
X21362Y92470D01*
X21309Y92417D01*
X21239Y92329D01*
X21169Y92241D01*
X21098Y92136D01*
X21010Y91995D01*
X20922Y91854D01*
X20817Y91678D01*
X20729Y91485D01*
X20588Y91063D01*
X20465Y90570D01*
X20448Y90306D01*
X20430Y90025D01*
Y90007D01*
Y89955D01*
Y89884D01*
X20448Y89779D01*
X20465Y89638D01*
X20483Y89497D01*
X20553Y89145D01*
X20659Y88741D01*
X20834Y88336D01*
X20958Y88125D01*
X21081Y87932D01*
X21221Y87738D01*
X21397Y87545D01*
X21415Y87527D01*
X21450Y87510D01*
X21503Y87457D01*
X21573Y87404D01*
X21679Y87334D01*
X21784Y87246D01*
X21925Y87158D01*
X22083Y87087D01*
X22259Y86999D01*
X22453Y86911D01*
X22875Y86753D01*
X23385Y86648D01*
X23666Y86630D01*
X23948Y86612D01*
X24106D01*
X24212Y86630D01*
X24352Y86648D01*
X24493Y86665D01*
X24669Y86683D01*
X24863Y86735D01*
X25267Y86841D01*
X25689Y86999D01*
X25900Y87105D01*
X26112Y87246D01*
X26305Y87386D01*
X26498Y87545D01*
X26516Y87562D01*
X26534Y87597D01*
X26586Y87650D01*
X26657Y87721D01*
X26727Y87809D01*
X26815Y87932D01*
X26903Y88055D01*
X26991Y88213D01*
X27079Y88389D01*
X27167Y88565D01*
X27325Y88987D01*
X27448Y89480D01*
X27466Y89743D01*
X27483Y90025D01*
Y90042D01*
Y90095D01*
Y90183D01*
X27466Y90289D01*
X27448Y90412D01*
X27431Y90570D01*
X27360Y90922D01*
X27237Y91309D01*
X27061Y91731D01*
X26956Y91925D01*
X26833Y92136D01*
X26674Y92329D01*
X26498Y92505D01*
X26481Y92523D01*
X26446Y92540D01*
X26393Y92593D01*
X26323Y92646D01*
X26235Y92734D01*
X26112Y92804D01*
X25971Y92892D01*
X25812Y92980D01*
X25637Y93068D01*
X25443Y93156D01*
X25021Y93314D01*
X24511Y93420D01*
X24229Y93437D01*
X23948Y93455D01*
D02*
G37*
G36*
X59529Y76254D02*
X59515D01*
X59474Y76247D01*
X59420Y76240D01*
X59351Y76219D01*
X59269Y76192D01*
X59188Y76144D01*
X59113Y76083D01*
X59038Y76001D01*
X59031Y75988D01*
X59010Y75954D01*
X58983Y75899D01*
X58956Y75817D01*
X58922Y75715D01*
X58894Y75592D01*
X58874Y75442D01*
X58867Y75278D01*
Y75265D01*
Y75238D01*
X58874Y75190D01*
X58881Y75128D01*
X58888Y75053D01*
X58901Y74971D01*
X58922Y74883D01*
X58949Y74794D01*
X58983Y74699D01*
X59031Y74610D01*
X59085Y74528D01*
X59147Y74453D01*
X59222Y74392D01*
X59311Y74344D01*
X59413Y74317D01*
X59529Y74303D01*
X59556D01*
X59590Y74310D01*
X59631Y74317D01*
X59686Y74330D01*
X59740Y74358D01*
X59795Y74385D01*
X59863Y74426D01*
X59924Y74480D01*
X59979Y74549D01*
X60040Y74624D01*
X60088Y74726D01*
X60129Y74835D01*
X60163Y74971D01*
X60183Y75121D01*
X60190Y75299D01*
Y75313D01*
Y75340D01*
X60183Y75388D01*
Y75449D01*
X60170Y75524D01*
X60156Y75599D01*
X60136Y75688D01*
X60108Y75776D01*
X60074Y75865D01*
X60027Y75954D01*
X59979Y76035D01*
X59911Y76104D01*
X59836Y76165D01*
X59747Y76213D01*
X59645Y76240D01*
X59529Y76254D01*
D02*
G37*
G36*
X9320Y76192D02*
X9279D01*
X9224Y76179D01*
X9163Y76165D01*
X9081Y76138D01*
X8992Y76104D01*
X8897Y76049D01*
X8795Y75981D01*
Y74617D01*
X8808Y74603D01*
X8843Y74576D01*
X8897Y74542D01*
X8965Y74494D01*
X9047Y74446D01*
X9136Y74412D01*
X9231Y74385D01*
X9334Y74371D01*
X9347D01*
X9388Y74378D01*
X9449Y74385D01*
X9518Y74405D01*
X9600Y74433D01*
X9688Y74474D01*
X9770Y74535D01*
X9845Y74617D01*
X9852Y74630D01*
X9872Y74665D01*
X9906Y74719D01*
X9940Y74794D01*
X9975Y74890D01*
X10009Y75006D01*
X10029Y75142D01*
X10036Y75299D01*
Y75306D01*
Y75319D01*
Y75340D01*
Y75367D01*
X10029Y75442D01*
X10009Y75538D01*
X9988Y75647D01*
X9954Y75756D01*
X9906Y75858D01*
X9838Y75954D01*
X9831Y75967D01*
X9804Y75994D01*
X9756Y76029D01*
X9702Y76076D01*
X9627Y76117D01*
X9538Y76158D01*
X9436Y76185D01*
X9320Y76192D01*
D02*
G37*
G36*
X64882Y76199D02*
X64848D01*
X64801Y76192D01*
X64753Y76179D01*
X64691Y76158D01*
X64630Y76131D01*
X64569Y76097D01*
X64507Y76042D01*
X64500Y76035D01*
X64487Y76015D01*
X64460Y75981D01*
X64432Y75940D01*
X64405Y75879D01*
X64378Y75817D01*
X64364Y75749D01*
X64357Y75667D01*
Y75660D01*
Y75633D01*
X64364Y75592D01*
X64378Y75538D01*
X64398Y75483D01*
X64425Y75415D01*
X64460Y75353D01*
X64514Y75292D01*
X64521Y75285D01*
X64541Y75272D01*
X64575Y75244D01*
X64616Y75217D01*
X64671Y75190D01*
X64739Y75162D01*
X64807Y75149D01*
X64882Y75142D01*
X64916D01*
X64957Y75149D01*
X65012Y75162D01*
X65073Y75183D01*
X65135Y75210D01*
X65196Y75251D01*
X65258Y75306D01*
X65264Y75313D01*
X65285Y75333D01*
X65305Y75367D01*
X65339Y75415D01*
X65367Y75469D01*
X65387Y75538D01*
X65408Y75613D01*
X65414Y75694D01*
Y75701D01*
Y75728D01*
X65408Y75769D01*
X65394Y75817D01*
X65380Y75872D01*
X65353Y75933D01*
X65312Y75988D01*
X65264Y76049D01*
X65258Y76056D01*
X65237Y76069D01*
X65203Y76097D01*
X65162Y76124D01*
X65108Y76151D01*
X65039Y76179D01*
X64964Y76192D01*
X64882Y76199D01*
D02*
G37*
G36*
X65039Y73594D02*
X64855D01*
X64801Y73587D01*
X64726Y73580D01*
X64644Y73573D01*
X64562Y73560D01*
X64480Y73532D01*
X64405Y73505D01*
X64398Y73498D01*
X64378Y73485D01*
X64344Y73464D01*
X64316Y73437D01*
X64282Y73403D01*
X64248Y73362D01*
X64228Y73307D01*
X64221Y73253D01*
Y73246D01*
Y73239D01*
X64235Y73198D01*
X64262Y73144D01*
X64282Y73110D01*
X64316Y73082D01*
X64350Y73048D01*
X64405Y73014D01*
X64460Y72987D01*
X64535Y72960D01*
X64616Y72939D01*
X64719Y72919D01*
X64835Y72912D01*
X64964Y72905D01*
X65012D01*
X65066Y72912D01*
X65135Y72919D01*
X65210Y72932D01*
X65292Y72953D01*
X65367Y72980D01*
X65442Y73014D01*
X65448Y73021D01*
X65469Y73035D01*
X65503Y73055D01*
X65537Y73089D01*
X65564Y73123D01*
X65598Y73171D01*
X65619Y73219D01*
X65626Y73273D01*
Y73280D01*
Y73287D01*
X65612Y73321D01*
X65585Y73376D01*
X65564Y73403D01*
X65537Y73437D01*
X65496Y73464D01*
X65448Y73492D01*
X65394Y73519D01*
X65326Y73546D01*
X65244Y73567D01*
X65148Y73580D01*
X65039Y73594D01*
D02*
G37*
%LPD*%
D60*
X8268Y80709D02*
X74410D01*
D94*
X427391Y248148D02*
Y246149D01*
Y247148D01*
X428723D01*
Y248148D01*
Y246149D01*
X430723Y247815D02*
X430390Y248148D01*
X429723D01*
X429390Y247815D01*
Y246482D01*
X429723Y246149D01*
X430390D01*
X430723Y246482D01*
X434722Y247815D02*
X434388Y248148D01*
X433722D01*
X433389Y247815D01*
Y247481D01*
X433722Y247148D01*
X434388D01*
X434722Y246815D01*
Y246482D01*
X434388Y246149D01*
X433722D01*
X433389Y246482D01*
X435388Y248148D02*
Y246815D01*
X436055Y246149D01*
X436721Y246815D01*
Y248148D01*
X437387Y246149D02*
Y248148D01*
X438720Y246149D01*
Y248148D01*
X439387D02*
X440720D01*
X440053D01*
Y246149D01*
X426391Y244789D02*
Y242789D01*
X427391D01*
X427724Y243123D01*
Y244456D01*
X427391Y244789D01*
X426391D01*
X428390Y242789D02*
Y244789D01*
X429390D01*
X429723Y244456D01*
Y243789D01*
X429390Y243456D01*
X428390D01*
X429057D02*
X429723Y242789D01*
X430390D02*
Y244122D01*
X431056Y244789D01*
X431722Y244122D01*
Y242789D01*
Y243789D01*
X430390D01*
X433722Y244456D02*
X433389Y244789D01*
X432722D01*
X432389Y244456D01*
Y243123D01*
X432722Y242789D01*
X433389D01*
X433722Y243123D01*
X435388Y244789D02*
X434722D01*
X434388Y244456D01*
Y243123D01*
X434722Y242789D01*
X435388D01*
X435721Y243123D01*
Y244456D01*
X435388Y244789D01*
X436388Y242789D02*
Y244789D01*
X437721Y242789D01*
Y244789D01*
X439720D02*
X438387D01*
Y242789D01*
X439720D01*
X438387Y243789D02*
X439053D01*
X441719Y244456D02*
X441386Y244789D01*
X440720D01*
X440386Y244456D01*
Y244122D01*
X440720Y243789D01*
X441386D01*
X441719Y243456D01*
Y243123D01*
X441386Y242789D01*
X440720D01*
X440386Y243123D01*
D95*
X278543Y190453D02*
D03*
Y197343D02*
D03*
X62205Y31102D02*
D03*
Y24213D02*
D03*
X72146Y31201D02*
D03*
Y24311D02*
D03*
X270669Y190453D02*
D03*
Y197343D02*
D03*
X313779Y172343D02*
D03*
Y165453D02*
D03*
X82677Y187500D02*
D03*
Y194390D02*
D03*
X90551Y187500D02*
D03*
Y194390D02*
D03*
X114173D02*
D03*
Y187500D02*
D03*
X98425D02*
D03*
Y194390D02*
D03*
X106299Y187500D02*
D03*
Y194390D02*
D03*
X352362Y47343D02*
D03*
Y54232D02*
D03*
X269291Y264469D02*
D03*
Y257579D02*
D03*
X276772Y264469D02*
D03*
Y257579D02*
D03*
X284252Y264469D02*
D03*
Y257579D02*
D03*
X281890Y172343D02*
D03*
Y165453D02*
D03*
D96*
X214469Y75394D02*
D03*
X221358D02*
D03*
X297244Y224508D02*
D03*
X304134D02*
D03*
X360138Y119291D02*
D03*
X353248D02*
D03*
X470965Y53307D02*
D03*
X464075D02*
D03*
X470965Y45827D02*
D03*
X464075D02*
D03*
X353248Y127559D02*
D03*
X360138D02*
D03*
X252953Y38091D02*
D03*
X259842D02*
D03*
X214469Y67028D02*
D03*
X221358D02*
D03*
X31594Y140157D02*
D03*
X38484D02*
D03*
X31594Y125591D02*
D03*
X38484D02*
D03*
X31594Y110630D02*
D03*
X38484D02*
D03*
X269587Y221654D02*
D03*
X262697D02*
D03*
X360138Y105905D02*
D03*
X353248D02*
D03*
X381594Y230804D02*
D03*
X388484D02*
D03*
X381594Y223420D02*
D03*
X388484D02*
D03*
X476870Y200383D02*
D03*
X483760D02*
D03*
X476870Y192913D02*
D03*
X483760D02*
D03*
X476870Y222537D02*
D03*
X483760D02*
D03*
X476870Y215152D02*
D03*
X483760D02*
D03*
X381594Y216036D02*
D03*
X388484D02*
D03*
X476870Y185529D02*
D03*
X483760D02*
D03*
Y229921D02*
D03*
X476870D02*
D03*
X381594Y208651D02*
D03*
X388484D02*
D03*
X483760Y237402D02*
D03*
X476870D02*
D03*
X241634Y147638D02*
D03*
X234744D02*
D03*
X212992Y143602D02*
D03*
X219882D02*
D03*
X212992Y151772D02*
D03*
X219882D02*
D03*
D97*
X478937Y71595D02*
D03*
Y61398D02*
D03*
X485630Y71595D02*
D03*
Y61398D02*
D03*
X478937Y89311D02*
D03*
Y79114D02*
D03*
X485630Y89311D02*
D03*
Y79114D02*
D03*
X478937Y107027D02*
D03*
Y96831D02*
D03*
X485630Y107027D02*
D03*
Y96831D02*
D03*
X248622Y174390D02*
D03*
Y164193D02*
D03*
X255315Y174390D02*
D03*
Y164193D02*
D03*
X213189Y125177D02*
D03*
Y114980D02*
D03*
X219882Y125177D02*
D03*
Y114980D02*
D03*
X213189Y105492D02*
D03*
Y95295D02*
D03*
X219882Y105492D02*
D03*
Y95295D02*
D03*
D98*
X478937Y68071D02*
D03*
Y64921D02*
D03*
X485630Y68071D02*
D03*
Y64921D02*
D03*
X478937Y85787D02*
D03*
Y82638D02*
D03*
X485630Y85787D02*
D03*
Y82638D02*
D03*
X478937Y103504D02*
D03*
Y100354D02*
D03*
X485630Y103504D02*
D03*
Y100354D02*
D03*
X248622Y170866D02*
D03*
Y167717D02*
D03*
X255315Y170866D02*
D03*
Y167717D02*
D03*
X213189Y121653D02*
D03*
Y118504D02*
D03*
X219882Y121653D02*
D03*
Y118504D02*
D03*
X213189Y101969D02*
D03*
Y98819D02*
D03*
X219882Y101969D02*
D03*
Y98819D02*
D03*
D99*
X101870Y204626D02*
D03*
X104429D02*
D03*
X106988D02*
D03*
X109547D02*
D03*
X112106D02*
D03*
X114665D02*
D03*
X101870Y222146D02*
D03*
X104429D02*
D03*
X106988D02*
D03*
X109547D02*
D03*
X112106D02*
D03*
X114665D02*
D03*
D100*
X108268Y213386D02*
D03*
D101*
X77756Y215551D02*
D03*
X74016Y225394D02*
D03*
X81496D02*
D03*
D102*
X348228Y240158D02*
D03*
X358071Y243898D02*
D03*
Y236417D02*
D03*
X348228Y225984D02*
D03*
X358071Y229724D02*
D03*
Y222244D02*
D03*
D103*
X77756Y234151D02*
D03*
Y249505D02*
D03*
D104*
X65748Y260827D02*
D03*
X50394D02*
D03*
D105*
X252658Y142717D02*
D03*
Y140748D02*
D03*
Y138779D02*
D03*
Y136811D02*
D03*
Y134843D02*
D03*
Y132874D02*
D03*
Y130905D02*
D03*
Y128937D02*
D03*
Y126969D02*
D03*
Y125000D02*
D03*
Y123031D02*
D03*
Y121063D02*
D03*
Y119095D02*
D03*
Y117126D02*
D03*
Y115157D02*
D03*
Y113189D02*
D03*
Y111221D02*
D03*
Y109252D02*
D03*
Y107283D02*
D03*
Y105315D02*
D03*
Y103347D02*
D03*
Y101378D02*
D03*
Y99410D02*
D03*
Y97441D02*
D03*
Y95472D02*
D03*
Y93504D02*
D03*
Y91535D02*
D03*
Y89567D02*
D03*
Y87598D02*
D03*
Y85630D02*
D03*
Y83661D02*
D03*
Y81693D02*
D03*
Y79724D02*
D03*
Y77756D02*
D03*
Y75787D02*
D03*
Y73819D02*
D03*
X337894D02*
D03*
Y75787D02*
D03*
Y77756D02*
D03*
Y79724D02*
D03*
Y81693D02*
D03*
Y83661D02*
D03*
Y85630D02*
D03*
Y87598D02*
D03*
Y89567D02*
D03*
Y91535D02*
D03*
Y93504D02*
D03*
Y95472D02*
D03*
Y97441D02*
D03*
Y99410D02*
D03*
Y101378D02*
D03*
Y103347D02*
D03*
Y105315D02*
D03*
Y107283D02*
D03*
Y109252D02*
D03*
Y111221D02*
D03*
Y113189D02*
D03*
Y115157D02*
D03*
Y117126D02*
D03*
Y119095D02*
D03*
Y121063D02*
D03*
Y123031D02*
D03*
Y125000D02*
D03*
Y126969D02*
D03*
Y128937D02*
D03*
Y130905D02*
D03*
Y132874D02*
D03*
Y134843D02*
D03*
Y136811D02*
D03*
Y138779D02*
D03*
Y140748D02*
D03*
Y142717D02*
D03*
D106*
X260827Y65650D02*
D03*
X262795D02*
D03*
X264764D02*
D03*
X266732D02*
D03*
X268701D02*
D03*
X270669D02*
D03*
X272638D02*
D03*
X274606D02*
D03*
X276575D02*
D03*
X278543D02*
D03*
X280512D02*
D03*
X282480D02*
D03*
X284449D02*
D03*
X286417D02*
D03*
X288386D02*
D03*
X290354D02*
D03*
X292323D02*
D03*
X294291D02*
D03*
X296260D02*
D03*
X298228D02*
D03*
X300197D02*
D03*
X302165D02*
D03*
X304134D02*
D03*
X306102D02*
D03*
X308071D02*
D03*
X310039D02*
D03*
X312008D02*
D03*
X313976D02*
D03*
X315945D02*
D03*
X317913D02*
D03*
X319882D02*
D03*
X321850D02*
D03*
X323819D02*
D03*
X325787D02*
D03*
X327756D02*
D03*
X329724D02*
D03*
Y150886D02*
D03*
X327756D02*
D03*
X325787D02*
D03*
X323819D02*
D03*
X321850D02*
D03*
X319882D02*
D03*
X317913D02*
D03*
X315945D02*
D03*
X313976D02*
D03*
X312008D02*
D03*
X310039D02*
D03*
X308071D02*
D03*
X306102D02*
D03*
X304134D02*
D03*
X302165D02*
D03*
X300197D02*
D03*
X298228D02*
D03*
X296260D02*
D03*
X294291D02*
D03*
X292323D02*
D03*
X290354D02*
D03*
X288386D02*
D03*
X286417D02*
D03*
X284449D02*
D03*
X282480D02*
D03*
X280512D02*
D03*
X278543D02*
D03*
X276575D02*
D03*
X274606D02*
D03*
X272638D02*
D03*
X270669D02*
D03*
X268701D02*
D03*
X266732D02*
D03*
X264764D02*
D03*
X262795D02*
D03*
X260827D02*
D03*
D107*
X251969Y239764D02*
D03*
D108*
X255906Y248524D02*
D03*
X253937D02*
D03*
X251969D02*
D03*
X250000D02*
D03*
X248031D02*
D03*
X255906Y231004D02*
D03*
X253937D02*
D03*
X251969D02*
D03*
X250000D02*
D03*
X248031D02*
D03*
D109*
X163976Y122047D02*
D03*
X160827D02*
D03*
X157677D02*
D03*
X154528D02*
D03*
X151378D02*
D03*
X148228D02*
D03*
X145079D02*
D03*
X141929D02*
D03*
X138779D02*
D03*
X135630D02*
D03*
X132480D02*
D03*
X129331D02*
D03*
X126181D02*
D03*
X123031D02*
D03*
X119882D02*
D03*
X116732D02*
D03*
X113583D02*
D03*
X110433D02*
D03*
X107283D02*
D03*
X104134D02*
D03*
X100984D02*
D03*
X97835D02*
D03*
X94685D02*
D03*
X91535D02*
D03*
X88386D02*
D03*
X85236D02*
D03*
X82087D02*
D03*
X163976Y76772D02*
D03*
X160827D02*
D03*
X157677D02*
D03*
X154528D02*
D03*
X151378D02*
D03*
X148228D02*
D03*
X145079D02*
D03*
X141929D02*
D03*
X138779D02*
D03*
X135630D02*
D03*
X132480D02*
D03*
X129331D02*
D03*
X126181D02*
D03*
X123031D02*
D03*
X119882D02*
D03*
X116732D02*
D03*
X113583D02*
D03*
X110433D02*
D03*
X107283D02*
D03*
X104134D02*
D03*
X100984D02*
D03*
X97835D02*
D03*
X94685D02*
D03*
X91535D02*
D03*
X88386D02*
D03*
X85236D02*
D03*
X82087D02*
D03*
D110*
X214370Y199902D02*
D03*
Y202461D02*
D03*
Y205020D02*
D03*
Y207579D02*
D03*
X197047Y199902D02*
D03*
Y202461D02*
D03*
Y205020D02*
D03*
Y207579D02*
D03*
X406496Y137500D02*
D03*
Y140059D02*
D03*
Y142618D02*
D03*
Y145177D02*
D03*
X389173Y137500D02*
D03*
Y140059D02*
D03*
Y142618D02*
D03*
Y145177D02*
D03*
D111*
X76870Y151772D02*
D03*
X79429D02*
D03*
X81988D02*
D03*
X84547D02*
D03*
X76870Y169095D02*
D03*
X79429D02*
D03*
X81988D02*
D03*
X84547D02*
D03*
D112*
X344291Y208992D02*
D03*
Y187992D02*
D03*
X334291Y208992D02*
D03*
Y187992D02*
D03*
X324291Y208992D02*
D03*
Y187992D02*
D03*
X314291Y208992D02*
D03*
Y187992D02*
D03*
X304291Y208992D02*
D03*
Y187992D02*
D03*
X294291Y208992D02*
D03*
Y187992D02*
D03*
D113*
X270492Y30118D02*
D03*
X280689D02*
D03*
X270492Y36811D02*
D03*
X280689D02*
D03*
X290177Y30118D02*
D03*
X300374D02*
D03*
X290177Y36811D02*
D03*
X300374D02*
D03*
D114*
X274016Y30118D02*
D03*
X277165D02*
D03*
X274016Y36811D02*
D03*
X277165D02*
D03*
X293701Y30118D02*
D03*
X296850D02*
D03*
X293701Y36811D02*
D03*
X296850D02*
D03*
D115*
X116340Y250000D02*
D03*
X94290D02*
D03*
D116*
X225179Y245081D02*
D03*
Y263581D02*
D03*
D117*
X68504Y204675D02*
D03*
Y184675D02*
D03*
X43307Y194675D02*
D03*
D118*
X393701Y50689D02*
D03*
X407480D02*
D03*
X364173Y198327D02*
D03*
X369587Y50689D02*
D03*
X452756Y153543D02*
D03*
X427165D02*
D03*
X492126Y164173D02*
D03*
X478346D02*
D03*
D119*
X14961Y59055D02*
D03*
Y44882D02*
D03*
X147638Y222441D02*
D03*
Y192913D02*
D03*
Y208268D02*
D03*
X197638Y222441D02*
D03*
X14764Y165354D02*
D03*
Y148622D02*
D03*
Y132874D02*
D03*
Y118110D02*
D03*
Y103347D02*
D03*
D120*
X92520Y39370D02*
D03*
X17618Y226279D02*
D03*
D121*
X359252Y17717D02*
D03*
X66634Y132874D02*
D03*
X511811Y161713D02*
D03*
D122*
X126378Y225098D02*
D03*
Y214272D02*
D03*
D123*
X182973Y222441D02*
D03*
X172146D02*
D03*
X298917Y238484D02*
D03*
X309744D02*
D03*
D124*
X401083Y126969D02*
D03*
X404429D02*
D03*
X391339D02*
D03*
X394685D02*
D03*
D125*
X335531Y225984D02*
D03*
X329626D02*
D03*
X29528Y148622D02*
D03*
X35433D02*
D03*
X29528Y165354D02*
D03*
X35433D02*
D03*
X400984Y105610D02*
D03*
X395079D02*
D03*
X400984Y99508D02*
D03*
X395079D02*
D03*
D126*
X360039Y47736D02*
D03*
Y53642D02*
D03*
D127*
X60630Y246063D02*
D03*
X49606D02*
D03*
X60630Y234151D02*
D03*
X49606D02*
D03*
X60630Y222239D02*
D03*
X49606D02*
D03*
D128*
X486221Y26535D02*
D03*
Y37559D02*
D03*
X478346Y26535D02*
D03*
Y37559D02*
D03*
X124409Y185433D02*
D03*
Y196457D02*
D03*
X132283Y185433D02*
D03*
Y196457D02*
D03*
X381496Y199606D02*
D03*
Y188583D02*
D03*
X388878Y199606D02*
D03*
Y188583D02*
D03*
D129*
X263779Y229525D02*
D03*
X274803D02*
D03*
X334744Y238681D02*
D03*
X323721D02*
D03*
D130*
X234449Y139764D02*
D03*
X241929D02*
D03*
X353346Y135458D02*
D03*
X360827D02*
D03*
X319882Y246850D02*
D03*
X312402D02*
D03*
X255807Y221358D02*
D03*
X248327D02*
D03*
X388386Y237795D02*
D03*
X380906D02*
D03*
D131*
X339370Y54626D02*
D03*
Y47146D02*
D03*
X89567Y222244D02*
D03*
Y214764D02*
D03*
X255512Y256890D02*
D03*
Y264370D02*
D03*
X248819Y256890D02*
D03*
Y264370D02*
D03*
X284252Y242323D02*
D03*
Y249803D02*
D03*
D132*
X216535Y81988D02*
D03*
X221654D02*
D03*
X216634Y60039D02*
D03*
X221752D02*
D03*
X215158Y137008D02*
D03*
X220276D02*
D03*
X215158Y158661D02*
D03*
X220276D02*
D03*
X238583Y76870D02*
D03*
X233465D02*
D03*
X238583Y70866D02*
D03*
X233465D02*
D03*
X47835Y43307D02*
D03*
X42717D02*
D03*
X240748Y155512D02*
D03*
X235630D02*
D03*
X238583Y104921D02*
D03*
X233465D02*
D03*
X238583Y81988D02*
D03*
X233465D02*
D03*
X357972Y95374D02*
D03*
X352854D02*
D03*
X358071Y112598D02*
D03*
X352953D02*
D03*
X358071Y142126D02*
D03*
X352953D02*
D03*
X357874Y69882D02*
D03*
X352756D02*
D03*
X125787Y205512D02*
D03*
X130905D02*
D03*
X207579Y184055D02*
D03*
X202461D02*
D03*
X207579Y188878D02*
D03*
X202461D02*
D03*
X406693Y116831D02*
D03*
X401575D02*
D03*
X394193D02*
D03*
X389075D02*
D03*
X233661Y234252D02*
D03*
X238779D02*
D03*
X274606Y235433D02*
D03*
X269488D02*
D03*
X89961Y133858D02*
D03*
X95079D02*
D03*
X125394D02*
D03*
X130512D02*
D03*
X141142D02*
D03*
X146260D02*
D03*
X156890D02*
D03*
X162008D02*
D03*
X95079Y64961D02*
D03*
X89961D02*
D03*
X130512D02*
D03*
X125394D02*
D03*
X146260D02*
D03*
X141142D02*
D03*
X162008D02*
D03*
X156890D02*
D03*
D133*
X264665Y46555D02*
D03*
Y51673D02*
D03*
X290846Y46555D02*
D03*
Y51673D02*
D03*
X309744Y46555D02*
D03*
Y51673D02*
D03*
X332874Y46555D02*
D03*
Y51673D02*
D03*
X307087Y170177D02*
D03*
Y165059D02*
D03*
X288583Y170177D02*
D03*
Y165059D02*
D03*
X262795Y191339D02*
D03*
Y196457D02*
D03*
X216142Y188779D02*
D03*
Y183661D02*
D03*
X69882Y162992D02*
D03*
Y157874D02*
D03*
D134*
X113583Y69193D02*
D03*
X119685Y64567D02*
D03*
D135*
X401887Y238856D02*
D03*
Y231056D02*
D03*
Y223156D02*
D03*
Y215356D02*
D03*
Y207356D02*
D03*
Y199556D02*
D03*
Y191756D02*
D03*
Y183856D02*
D03*
X463387Y183756D02*
D03*
Y191656D02*
D03*
Y199456D02*
D03*
X463287Y207356D02*
D03*
Y215256D02*
D03*
Y223056D02*
D03*
Y231056D02*
D03*
Y238856D02*
D03*
D136*
X412887Y175656D02*
D03*
X420687D02*
D03*
X428487D02*
D03*
X436487D02*
D03*
X452287D02*
D03*
X444287D02*
D03*
D137*
X43898Y61024D02*
D03*
X70276D02*
D03*
X225984Y193898D02*
D03*
X252362D02*
D03*
D138*
X511811Y206102D02*
D03*
Y179724D02*
D03*
D139*
X200787Y153543D02*
D03*
X191043Y192520D02*
D03*
D140*
X179134Y153543D02*
D03*
X200787Y140945D02*
D03*
X179134D02*
D03*
X169390Y179921D02*
D03*
X191043D02*
D03*
X169390Y192520D02*
D03*
D141*
X183465Y212598D02*
D03*
Y210630D02*
D03*
Y208661D02*
D03*
Y206693D02*
D03*
X171653D02*
D03*
Y208661D02*
D03*
Y210630D02*
D03*
Y212598D02*
D03*
D142*
X177559Y209547D02*
D03*
D143*
X192913Y51181D02*
D03*
Y88583D02*
D03*
D144*
X19685Y19685D02*
D03*
Y255906D02*
D03*
X531496D02*
D03*
X393701Y19685D02*
D03*
D145*
X102165Y13780D02*
D03*
X92165D02*
D03*
X82165D02*
D03*
X72165D02*
D03*
X62165D02*
D03*
X13780Y196693D02*
D03*
Y186693D02*
D03*
X525433Y81496D02*
D03*
Y71496D02*
D03*
Y61496D02*
D03*
Y51496D02*
D03*
Y41496D02*
D03*
Y31496D02*
D03*
X535433Y81496D02*
D03*
Y71496D02*
D03*
Y61496D02*
D03*
Y51496D02*
D03*
Y41496D02*
D03*
Y91496D02*
D03*
Y101496D02*
D03*
X525433Y91496D02*
D03*
Y101496D02*
D03*
X535433Y111496D02*
D03*
Y121496D02*
D03*
X525433Y111496D02*
D03*
Y121496D02*
D03*
D146*
X52165Y13780D02*
D03*
D147*
X13780Y206693D02*
D03*
X535433Y31496D02*
D03*
D148*
X538386Y226378D02*
D03*
D149*
Y216378D02*
D03*
Y206378D02*
D03*
Y196378D02*
D03*
Y186378D02*
D03*
Y176378D02*
D03*
Y166378D02*
D03*
Y156378D02*
D03*
X320394Y261811D02*
D03*
X310394D02*
D03*
X300394D02*
D03*
X359252Y172402D02*
D03*
X369252Y162402D02*
D03*
Y172402D02*
D03*
D150*
X330394Y261811D02*
D03*
X359252Y162402D02*
D03*
D151*
X139764Y244094D02*
D03*
X153543D02*
D03*
X167323D02*
D03*
X181103D02*
D03*
D152*
X194882D02*
D03*
D153*
X505433Y121496D02*
D03*
X443433Y31496D02*
D03*
D154*
X5906Y33465D02*
D03*
X33465D02*
D03*
Y5906D02*
D03*
X5906Y242126D02*
D03*
X33465D02*
D03*
Y269685D02*
D03*
X517717D02*
D03*
X545276Y242126D02*
D03*
X517717D02*
D03*
X379921Y5906D02*
D03*
X407480D02*
D03*
Y33465D02*
D03*
X379921D02*
D03*
M02*
