G04 Layer_Physical_Order=2*
G04 Layer_Color=36540*
%FSLAX25Y25*%
%MOIN*%
G70*
G01*
G75*
%ADD10C,0.00800*%
%ADD64C,0.01200*%
%ADD74R,0.06600X0.06600*%
%ADD77R,0.07480X0.07480*%
%ADD78R,0.05906X0.05906*%
%ADD82C,0.02000*%
G36*
X487205Y339567D02*
X600394Y339567D01*
X629921Y369094D01*
X631984D01*
X632661Y368295D01*
X632637Y368110D01*
X632746Y367285D01*
X633065Y366515D01*
X633571Y365855D01*
X634232Y365348D01*
X635001Y365029D01*
X635827Y364921D01*
X636652Y365029D01*
X637422Y365348D01*
X638082Y365855D01*
X638589Y366515D01*
X638908Y367285D01*
X639016Y368110D01*
X638992Y368295D01*
X639669Y369094D01*
X659543Y369094D01*
X660221Y368295D01*
X660196Y368110D01*
X660305Y367285D01*
X660624Y366515D01*
X661131Y365855D01*
X661791Y365348D01*
X662560Y365029D01*
X663386Y364921D01*
X663570Y364945D01*
X664370Y364268D01*
X664370Y344394D01*
X663570Y343716D01*
X663386Y343741D01*
X662560Y343632D01*
X661791Y343313D01*
X661131Y342807D01*
X660624Y342146D01*
X660305Y341377D01*
X660196Y340551D01*
X660305Y339726D01*
X660624Y338956D01*
X661131Y338296D01*
X661791Y337789D01*
X662560Y337470D01*
X663386Y337362D01*
X663570Y337386D01*
X664370Y336709D01*
X664370Y37307D01*
X663570Y36630D01*
X663386Y36654D01*
X662560Y36545D01*
X661791Y36227D01*
X661131Y35720D01*
X660624Y35059D01*
X660305Y34290D01*
X660196Y33465D01*
X660305Y32639D01*
X660624Y31870D01*
X661131Y31209D01*
X661791Y30702D01*
X662560Y30384D01*
X663386Y30275D01*
X663570Y30299D01*
X664370Y29622D01*
X664370Y9748D01*
X663570Y9071D01*
X663386Y9095D01*
X662560Y8986D01*
X661791Y8668D01*
X661131Y8161D01*
X660624Y7500D01*
X660305Y6731D01*
X660196Y5906D01*
X660305Y5080D01*
X660447Y4737D01*
X659952Y3937D01*
X639260D01*
X638765Y4737D01*
X638908Y5080D01*
X639016Y5906D01*
X638908Y6731D01*
X638589Y7500D01*
X638082Y8161D01*
X637422Y8668D01*
X636652Y8986D01*
X635827Y9095D01*
X635001Y8986D01*
X634232Y8668D01*
X633571Y8161D01*
X633065Y7500D01*
X632746Y6731D01*
X632637Y5906D01*
X632746Y5080D01*
X632888Y4737D01*
X632393Y3937D01*
X36898D01*
X36403Y4737D01*
X36545Y5080D01*
X36654Y5906D01*
X36545Y6731D01*
X36227Y7500D01*
X35720Y8161D01*
X35059Y8668D01*
X34290Y8986D01*
X33465Y9095D01*
X32639Y8986D01*
X31870Y8668D01*
X31209Y8161D01*
X30702Y7500D01*
X30384Y6731D01*
X30275Y5906D01*
X30384Y5080D01*
X30526Y4737D01*
X30031Y3937D01*
X9339D01*
X8844Y4737D01*
X8986Y5080D01*
X9095Y5906D01*
X8986Y6731D01*
X8668Y7500D01*
X8161Y8161D01*
X7500Y8668D01*
X6731Y8986D01*
X5906Y9095D01*
X5721Y9071D01*
X4921Y9748D01*
Y29622D01*
X5721Y30299D01*
X5906Y30275D01*
X6731Y30384D01*
X7500Y30702D01*
X8161Y31209D01*
X8668Y31870D01*
X8986Y32639D01*
X9095Y33465D01*
X8986Y34290D01*
X8668Y35059D01*
X8161Y35720D01*
X7500Y36227D01*
X6731Y36545D01*
X5906Y36654D01*
X5721Y36630D01*
X4921Y37307D01*
X4921Y206693D01*
X41339Y206693D01*
X73819Y239173D01*
X204724D01*
X221457Y255906D01*
X344488D01*
X348425Y259842D01*
X348425Y281496D01*
X352362Y285433D01*
X425197D01*
X435039Y295276D01*
X435039Y369094D01*
X457677Y369094D01*
X487205Y339567D01*
D02*
G37*
G36*
X433071Y369094D02*
X433071Y297244D01*
X423228Y287401D01*
X350394Y287402D01*
X346457Y283465D01*
Y261811D01*
X342520Y257874D01*
X250984Y257874D01*
X250984Y284516D01*
X251298Y284726D01*
X251696Y285321D01*
X251835Y286024D01*
X251696Y286726D01*
X251298Y287321D01*
X250984Y287531D01*
X250984Y369094D01*
X433071Y369094D01*
D02*
G37*
G36*
X139987Y310013D02*
X140945Y309055D01*
Y306299D01*
X140945Y286220D01*
X142403Y284762D01*
X142005Y284167D01*
X141866Y283465D01*
X142005Y282762D01*
X142403Y282167D01*
X142999Y281769D01*
X143701Y281629D01*
X144403Y281769D01*
X144999Y282167D01*
X145669Y281496D01*
X226378Y281496D01*
X232283Y287402D01*
X232283Y310236D01*
X234252Y312205D01*
X247638Y312205D01*
X250000Y309842D01*
X250000Y287859D01*
X249298Y287719D01*
X248702Y287321D01*
X248304Y286726D01*
X248165Y286024D01*
X248175Y285971D01*
X241970Y279766D01*
X241473Y279815D01*
X241455Y279841D01*
X240860Y280239D01*
X240158Y280379D01*
X239455Y280239D01*
X238860Y279841D01*
X238462Y279246D01*
X238322Y278543D01*
X238462Y277841D01*
X238860Y277246D01*
X238886Y277228D01*
X238935Y276730D01*
X213189Y250984D01*
X137795Y250984D01*
X131890Y256890D01*
X131890Y273622D01*
X125591Y279921D01*
X125591Y284646D01*
Y301181D01*
X125591Y311417D01*
Y314567D01*
X135433D01*
X139987Y310013D01*
D02*
G37*
%LPC*%
G36*
X455709Y350260D02*
X455006Y350121D01*
X454411Y349723D01*
X454013Y349128D01*
X453873Y348425D01*
X454013Y347723D01*
X454411Y347128D01*
X455006Y346730D01*
X455709Y346590D01*
X456411Y346730D01*
X457006Y347128D01*
X457404Y347723D01*
X457544Y348425D01*
X457404Y349128D01*
X457006Y349723D01*
X456411Y350121D01*
X455709Y350260D01*
D02*
G37*
G36*
X649606Y365006D02*
X647936Y364875D01*
X646307Y364484D01*
X644760Y363843D01*
X643331Y362967D01*
X642058Y361879D01*
X640970Y360606D01*
X640094Y359177D01*
X639453Y357630D01*
X639062Y356001D01*
X638931Y354331D01*
X639062Y352661D01*
X639453Y351032D01*
X640094Y349484D01*
X640970Y348056D01*
X642058Y346782D01*
X643331Y345694D01*
X644760Y344819D01*
X646307Y344178D01*
X647936Y343787D01*
X649606Y343655D01*
X651276Y343787D01*
X652905Y344178D01*
X654453Y344819D01*
X655881Y345694D01*
X657155Y346782D01*
X658243Y348056D01*
X659118Y349484D01*
X659759Y351032D01*
X660150Y352661D01*
X660282Y354331D01*
X660150Y356001D01*
X659759Y357630D01*
X659118Y359177D01*
X658243Y360606D01*
X657155Y361879D01*
X655881Y362967D01*
X654453Y363843D01*
X652905Y364484D01*
X651276Y364875D01*
X649606Y365006D01*
D02*
G37*
G36*
X635827Y343741D02*
X635001Y343632D01*
X634232Y343313D01*
X633571Y342807D01*
X633065Y342146D01*
X632746Y341377D01*
X632637Y340551D01*
X632746Y339726D01*
X633065Y338956D01*
X633571Y338296D01*
X634232Y337789D01*
X635001Y337470D01*
X635827Y337362D01*
X636652Y337470D01*
X637422Y337789D01*
X638082Y338296D01*
X638589Y338956D01*
X638908Y339726D01*
X639016Y340551D01*
X638908Y341377D01*
X638589Y342146D01*
X638082Y342807D01*
X637422Y343313D01*
X636652Y343632D01*
X635827Y343741D01*
D02*
G37*
G36*
X481496Y337268D02*
X480794Y337129D01*
X480198Y336731D01*
X479801Y336135D01*
X479661Y335433D01*
X479801Y334731D01*
X480198Y334135D01*
X480794Y333737D01*
X481496Y333598D01*
X482198Y333737D01*
X482794Y334135D01*
X483192Y334731D01*
X483331Y335433D01*
X483192Y336135D01*
X482794Y336731D01*
X482198Y337129D01*
X481496Y337268D01*
D02*
G37*
G36*
X582283Y330575D02*
X581581Y330436D01*
X580986Y330038D01*
X580588Y329443D01*
X580448Y328740D01*
X580588Y328038D01*
X580986Y327442D01*
X581581Y327045D01*
X582283Y326905D01*
X582986Y327045D01*
X583581Y327442D01*
X583979Y328038D01*
X584119Y328740D01*
X583979Y329443D01*
X583581Y330038D01*
X582986Y330436D01*
X582283Y330575D01*
D02*
G37*
G36*
X660249Y328556D02*
X652743D01*
Y321050D01*
X660249D01*
Y328556D01*
D02*
G37*
G36*
X582283Y316796D02*
X581581Y316656D01*
X580986Y316258D01*
X580588Y315663D01*
X580448Y314961D01*
X580588Y314258D01*
X580986Y313663D01*
X581581Y313265D01*
X582283Y313125D01*
X582986Y313265D01*
X583581Y313663D01*
X583979Y314258D01*
X584119Y314961D01*
X583979Y315663D01*
X583581Y316258D01*
X582986Y316656D01*
X582283Y316796D01*
D02*
G37*
G36*
X656496Y318588D02*
X655516Y318459D01*
X654603Y318081D01*
X653820Y317480D01*
X653218Y316696D01*
X652840Y315783D01*
X652711Y314803D01*
X652840Y313824D01*
X653218Y312911D01*
X653820Y312127D01*
X654603Y311525D01*
X655516Y311147D01*
X656496Y311018D01*
X657476Y311147D01*
X658389Y311525D01*
X659172Y312127D01*
X659774Y312911D01*
X660152Y313824D01*
X660281Y314803D01*
X660152Y315783D01*
X659774Y316696D01*
X659172Y317480D01*
X658389Y318081D01*
X657476Y318459D01*
X656496Y318588D01*
D02*
G37*
G36*
X503150Y307741D02*
X502447Y307601D01*
X501852Y307203D01*
X501454Y306608D01*
X501314Y305906D01*
X501454Y305203D01*
X501852Y304608D01*
X502447Y304210D01*
X503150Y304070D01*
X503852Y304210D01*
X504447Y304608D01*
X504845Y305203D01*
X504985Y305906D01*
X504845Y306608D01*
X504447Y307203D01*
X503852Y307601D01*
X503150Y307741D01*
D02*
G37*
G36*
X656496Y308588D02*
X655516Y308459D01*
X654603Y308081D01*
X653820Y307480D01*
X653218Y306696D01*
X652840Y305783D01*
X652711Y304803D01*
X652840Y303823D01*
X653218Y302911D01*
X653820Y302127D01*
X654603Y301525D01*
X655516Y301147D01*
X656496Y301018D01*
X657476Y301147D01*
X658389Y301525D01*
X659172Y302127D01*
X659774Y302911D01*
X660152Y303823D01*
X660281Y304803D01*
X660152Y305783D01*
X659774Y306696D01*
X659172Y307480D01*
X658389Y308081D01*
X657476Y308459D01*
X656496Y308588D01*
D02*
G37*
G36*
X492618Y301343D02*
X491916Y301203D01*
X491320Y300806D01*
X490922Y300210D01*
X490783Y299508D01*
X490922Y298805D01*
X491320Y298210D01*
X491916Y297812D01*
X492618Y297673D01*
X493320Y297812D01*
X493916Y298210D01*
X494314Y298805D01*
X494453Y299508D01*
X494314Y300210D01*
X493916Y300806D01*
X493320Y301203D01*
X492618Y301343D01*
D02*
G37*
G36*
X486221Y301048D02*
X485518Y300908D01*
X484923Y300510D01*
X484525Y299915D01*
X484385Y299213D01*
X484525Y298510D01*
X484923Y297915D01*
X485518Y297517D01*
X486221Y297377D01*
X486923Y297517D01*
X487518Y297915D01*
X487916Y298510D01*
X488056Y299213D01*
X487916Y299915D01*
X487518Y300510D01*
X486923Y300908D01*
X486221Y301048D01*
D02*
G37*
G36*
X503150Y299867D02*
X502447Y299727D01*
X501852Y299329D01*
X501454Y298734D01*
X501314Y298031D01*
X501454Y297329D01*
X501852Y296734D01*
X502447Y296336D01*
X503150Y296196D01*
X503852Y296336D01*
X504447Y296734D01*
X504845Y297329D01*
X504985Y298031D01*
X504845Y298734D01*
X504447Y299329D01*
X503852Y299727D01*
X503150Y299867D01*
D02*
G37*
G36*
X587795Y295142D02*
X587093Y295003D01*
X586498Y294605D01*
X586100Y294009D01*
X585960Y293307D01*
X586100Y292605D01*
X586498Y292009D01*
X587093Y291612D01*
X587795Y291472D01*
X588498Y291612D01*
X589093Y292009D01*
X589491Y292605D01*
X589631Y293307D01*
X589491Y294009D01*
X589093Y294605D01*
X588498Y295003D01*
X587795Y295142D01*
D02*
G37*
G36*
X656496Y298588D02*
X655516Y298459D01*
X654603Y298081D01*
X653820Y297480D01*
X653218Y296696D01*
X652840Y295783D01*
X652711Y294803D01*
X652840Y293824D01*
X653218Y292911D01*
X653820Y292127D01*
X654603Y291525D01*
X655516Y291147D01*
X656496Y291018D01*
X657476Y291147D01*
X658389Y291525D01*
X659172Y292127D01*
X659774Y292911D01*
X660152Y293824D01*
X660281Y294803D01*
X660152Y295783D01*
X659774Y296696D01*
X659172Y297480D01*
X658389Y298081D01*
X657476Y298459D01*
X656496Y298588D01*
D02*
G37*
G36*
X497244Y293174D02*
X496542Y293034D01*
X495946Y292636D01*
X495549Y292041D01*
X495409Y291339D01*
X495549Y290636D01*
X495946Y290041D01*
X496542Y289643D01*
X497244Y289503D01*
X497947Y289643D01*
X498542Y290041D01*
X498940Y290636D01*
X499079Y291339D01*
X498940Y292041D01*
X498542Y292636D01*
X497947Y293034D01*
X497244Y293174D01*
D02*
G37*
G36*
X503150Y291993D02*
X502447Y291853D01*
X501852Y291455D01*
X501454Y290860D01*
X501314Y290158D01*
X501454Y289455D01*
X501852Y288860D01*
X502447Y288462D01*
X503150Y288322D01*
X503852Y288462D01*
X504447Y288860D01*
X504845Y289455D01*
X504985Y290158D01*
X504845Y290860D01*
X504447Y291455D01*
X503852Y291853D01*
X503150Y291993D01*
D02*
G37*
G36*
X577559Y288449D02*
X576857Y288310D01*
X576261Y287912D01*
X575864Y287316D01*
X575724Y286614D01*
X575864Y285912D01*
X576261Y285316D01*
X576857Y284919D01*
X577559Y284779D01*
X578261Y284919D01*
X578857Y285316D01*
X579255Y285912D01*
X579394Y286614D01*
X579255Y287316D01*
X578857Y287912D01*
X578261Y288310D01*
X577559Y288449D01*
D02*
G37*
G36*
X565748Y287268D02*
X565046Y287129D01*
X564450Y286731D01*
X564052Y286135D01*
X563913Y285433D01*
X564052Y284731D01*
X564450Y284135D01*
X565046Y283737D01*
X565748Y283598D01*
X566450Y283737D01*
X567046Y284135D01*
X567444Y284731D01*
X567583Y285433D01*
X567444Y286135D01*
X567046Y286731D01*
X566450Y287129D01*
X565748Y287268D01*
D02*
G37*
G36*
X588189Y286481D02*
X587487Y286341D01*
X586891Y285943D01*
X586493Y285348D01*
X586354Y284646D01*
X586493Y283943D01*
X586891Y283348D01*
X587487Y282950D01*
X588189Y282810D01*
X588891Y282950D01*
X589487Y283348D01*
X589885Y283943D01*
X590024Y284646D01*
X589885Y285348D01*
X589487Y285943D01*
X588891Y286341D01*
X588189Y286481D01*
D02*
G37*
G36*
X601575Y285694D02*
X600873Y285554D01*
X600277Y285156D01*
X599879Y284561D01*
X599740Y283858D01*
X599879Y283156D01*
X600277Y282561D01*
X600873Y282163D01*
X601575Y282023D01*
X602277Y282163D01*
X602873Y282561D01*
X603270Y283156D01*
X603410Y283858D01*
X603270Y284561D01*
X602873Y285156D01*
X602277Y285554D01*
X601575Y285694D01*
D02*
G37*
G36*
X656496Y288588D02*
X655516Y288459D01*
X654603Y288081D01*
X653820Y287480D01*
X653218Y286696D01*
X652840Y285783D01*
X652711Y284803D01*
X652840Y283823D01*
X653218Y282911D01*
X653820Y282127D01*
X654603Y281525D01*
X655516Y281147D01*
X656496Y281018D01*
X657476Y281147D01*
X658389Y281525D01*
X659172Y282127D01*
X659774Y282911D01*
X660152Y283823D01*
X660281Y284803D01*
X660152Y285783D01*
X659774Y286696D01*
X659172Y287480D01*
X658389Y288081D01*
X657476Y288459D01*
X656496Y288588D01*
D02*
G37*
G36*
X577953Y280182D02*
X577250Y280042D01*
X576655Y279644D01*
X576257Y279049D01*
X576118Y278346D01*
X576257Y277644D01*
X576655Y277049D01*
X577250Y276651D01*
X577953Y276511D01*
X578655Y276651D01*
X579250Y277049D01*
X579648Y277644D01*
X579788Y278346D01*
X579648Y279049D01*
X579250Y279644D01*
X578655Y280042D01*
X577953Y280182D01*
D02*
G37*
G36*
X419291Y277819D02*
X418589Y277680D01*
X417994Y277282D01*
X417596Y276687D01*
X417456Y275984D01*
X417596Y275282D01*
X417994Y274687D01*
X418589Y274289D01*
X419291Y274149D01*
X419994Y274289D01*
X420589Y274687D01*
X420987Y275282D01*
X421127Y275984D01*
X420987Y276687D01*
X420589Y277282D01*
X419994Y277680D01*
X419291Y277819D01*
D02*
G37*
G36*
X656496Y278588D02*
X655516Y278459D01*
X654603Y278081D01*
X653820Y277480D01*
X653218Y276696D01*
X652840Y275783D01*
X652711Y274803D01*
X652840Y273823D01*
X653218Y272911D01*
X653820Y272127D01*
X654603Y271525D01*
X655516Y271147D01*
X656496Y271018D01*
X657476Y271147D01*
X658389Y271525D01*
X659172Y272127D01*
X659774Y272911D01*
X660152Y273823D01*
X660281Y274803D01*
X660152Y275783D01*
X659774Y276696D01*
X659172Y277480D01*
X658389Y278081D01*
X657476Y278459D01*
X656496Y278588D01*
D02*
G37*
G36*
X615354Y270733D02*
X614652Y270593D01*
X614057Y270195D01*
X613659Y269600D01*
X613519Y268898D01*
X613659Y268195D01*
X614057Y267600D01*
X614652Y267202D01*
X615354Y267062D01*
X616057Y267202D01*
X616652Y267600D01*
X617050Y268195D01*
X617190Y268898D01*
X617050Y269600D01*
X616652Y270195D01*
X616057Y270593D01*
X615354Y270733D01*
D02*
G37*
G36*
X419291Y269946D02*
X418589Y269806D01*
X417994Y269408D01*
X417596Y268813D01*
X417456Y268110D01*
X417596Y267408D01*
X417994Y266812D01*
X418589Y266415D01*
X419291Y266275D01*
X419994Y266415D01*
X420589Y266812D01*
X420987Y267408D01*
X421127Y268110D01*
X420987Y268813D01*
X420589Y269408D01*
X419994Y269806D01*
X419291Y269946D01*
D02*
G37*
G36*
X553150Y267583D02*
X552447Y267444D01*
X551852Y267046D01*
X551454Y266450D01*
X551314Y265748D01*
X551454Y265046D01*
X551852Y264450D01*
X552447Y264053D01*
X553150Y263913D01*
X553852Y264053D01*
X554447Y264450D01*
X554845Y265046D01*
X554985Y265748D01*
X554845Y266450D01*
X554447Y267046D01*
X553852Y267444D01*
X553150Y267583D01*
D02*
G37*
G36*
X547244D02*
X546542Y267444D01*
X545946Y267046D01*
X545548Y266450D01*
X545409Y265748D01*
X545548Y265046D01*
X545946Y264450D01*
X546542Y264053D01*
X547244Y263913D01*
X547946Y264053D01*
X548542Y264450D01*
X548940Y265046D01*
X549079Y265748D01*
X548940Y266450D01*
X548542Y267046D01*
X547946Y267444D01*
X547244Y267583D01*
D02*
G37*
G36*
X499606Y266008D02*
X498904Y265869D01*
X498309Y265471D01*
X497911Y264876D01*
X497771Y264173D01*
X497911Y263471D01*
X498309Y262876D01*
X498904Y262478D01*
X499606Y262338D01*
X500309Y262478D01*
X500904Y262876D01*
X501302Y263471D01*
X501442Y264173D01*
X501302Y264876D01*
X500904Y265471D01*
X500309Y265869D01*
X499606Y266008D01*
D02*
G37*
G36*
X483465D02*
X482762Y265869D01*
X482167Y265471D01*
X481769Y264876D01*
X481629Y264173D01*
X481769Y263471D01*
X482167Y262876D01*
X482762Y262478D01*
X483465Y262338D01*
X484167Y262478D01*
X484762Y262876D01*
X485160Y263471D01*
X485300Y264173D01*
X485160Y264876D01*
X484762Y265471D01*
X484167Y265869D01*
X483465Y266008D01*
D02*
G37*
G36*
X491339Y265615D02*
X490636Y265475D01*
X490041Y265077D01*
X489643Y264482D01*
X489503Y263779D01*
X489643Y263077D01*
X490041Y262482D01*
X490636Y262084D01*
X491339Y261944D01*
X492041Y262084D01*
X492636Y262482D01*
X493034Y263077D01*
X493174Y263779D01*
X493034Y264482D01*
X492636Y265077D01*
X492041Y265475D01*
X491339Y265615D01*
D02*
G37*
G36*
X417717Y265221D02*
X417014Y265081D01*
X416419Y264684D01*
X416021Y264088D01*
X415881Y263386D01*
X416021Y262684D01*
X416419Y262088D01*
X417014Y261690D01*
X417717Y261551D01*
X418419Y261690D01*
X419014Y262088D01*
X419412Y262684D01*
X419552Y263386D01*
X419412Y264088D01*
X419014Y264684D01*
X418419Y265081D01*
X417717Y265221D01*
D02*
G37*
G36*
X656496Y268588D02*
X655516Y268459D01*
X654603Y268081D01*
X653820Y267480D01*
X653218Y266696D01*
X652840Y265783D01*
X652711Y264803D01*
X652840Y263824D01*
X653218Y262911D01*
X653820Y262127D01*
X654603Y261525D01*
X655516Y261147D01*
X656496Y261018D01*
X657476Y261147D01*
X658389Y261525D01*
X659172Y262127D01*
X659774Y262911D01*
X660152Y263824D01*
X660281Y264803D01*
X660152Y265783D01*
X659774Y266696D01*
X659172Y267480D01*
X658389Y268081D01*
X657476Y268459D01*
X656496Y268588D01*
D02*
G37*
G36*
X520354Y263764D02*
X519652Y263625D01*
X519057Y263227D01*
X518659Y262632D01*
X518519Y261929D01*
X518659Y261227D01*
X519057Y260631D01*
X519652Y260234D01*
X520354Y260094D01*
X521057Y260234D01*
X521652Y260631D01*
X522050Y261227D01*
X522190Y261929D01*
X522050Y262632D01*
X521652Y263227D01*
X521057Y263625D01*
X520354Y263764D01*
D02*
G37*
G36*
X541339Y267583D02*
X540636Y267444D01*
X540041Y267046D01*
X539643Y266450D01*
X539503Y265748D01*
X539643Y265046D01*
X540041Y264450D01*
X540099Y264411D01*
X539885Y263592D01*
X539455Y263507D01*
X538860Y263109D01*
X538462Y262513D01*
X538322Y261811D01*
X538462Y261109D01*
X538860Y260513D01*
X539455Y260116D01*
X540158Y259976D01*
X540860Y260116D01*
X541455Y260513D01*
X541853Y261109D01*
X541993Y261811D01*
X541853Y262513D01*
X541455Y263109D01*
X541397Y263147D01*
X541611Y263967D01*
X542041Y264053D01*
X542636Y264450D01*
X543034Y265046D01*
X543174Y265748D01*
X543034Y266450D01*
X542636Y267046D01*
X542041Y267444D01*
X541339Y267583D01*
D02*
G37*
G36*
X530315Y263646D02*
X529613Y263507D01*
X529017Y263109D01*
X528619Y262513D01*
X528480Y261811D01*
X528619Y261109D01*
X529017Y260513D01*
X529613Y260116D01*
X530315Y259976D01*
X531017Y260116D01*
X531613Y260513D01*
X532011Y261109D01*
X532150Y261811D01*
X532011Y262513D01*
X531613Y263109D01*
X531017Y263507D01*
X530315Y263646D01*
D02*
G37*
G36*
X656496Y258588D02*
X655516Y258459D01*
X654603Y258081D01*
X653820Y257480D01*
X653218Y256696D01*
X652840Y255783D01*
X652711Y254803D01*
X652840Y253823D01*
X653218Y252911D01*
X653820Y252127D01*
X654603Y251525D01*
X655516Y251147D01*
X656496Y251018D01*
X657476Y251147D01*
X658389Y251525D01*
X659172Y252127D01*
X659774Y252911D01*
X660152Y253823D01*
X660281Y254803D01*
X660152Y255783D01*
X659774Y256696D01*
X659172Y257480D01*
X658389Y258081D01*
X657476Y258459D01*
X656496Y258588D01*
D02*
G37*
G36*
X276378Y247111D02*
X275676Y246971D01*
X275080Y246573D01*
X274682Y245978D01*
X274543Y245276D01*
X274682Y244573D01*
X275080Y243978D01*
X275676Y243580D01*
X276378Y243440D01*
X277080Y243580D01*
X277676Y243978D01*
X278074Y244573D01*
X278213Y245276D01*
X278074Y245978D01*
X277676Y246573D01*
X277080Y246971D01*
X276378Y247111D01*
D02*
G37*
G36*
X221457Y246914D02*
X220754Y246774D01*
X220159Y246376D01*
X219761Y245781D01*
X219621Y245079D01*
X219761Y244376D01*
X220159Y243781D01*
X220754Y243383D01*
X221457Y243244D01*
X222159Y243383D01*
X222754Y243781D01*
X223152Y244376D01*
X223292Y245079D01*
X223152Y245781D01*
X222754Y246376D01*
X222159Y246774D01*
X221457Y246914D01*
D02*
G37*
G36*
X403622Y244079D02*
X402920Y243940D01*
X402324Y243542D01*
X401927Y242946D01*
X401787Y242244D01*
X401927Y241542D01*
X402324Y240946D01*
X402920Y240548D01*
X403622Y240409D01*
X404324Y240548D01*
X404920Y240946D01*
X405318Y241542D01*
X405457Y242244D01*
X405318Y242946D01*
X404920Y243542D01*
X404324Y243940D01*
X403622Y244079D01*
D02*
G37*
G36*
X423228Y243961D02*
X422526Y243822D01*
X421931Y243424D01*
X421533Y242828D01*
X421393Y242126D01*
X421533Y241424D01*
X421931Y240828D01*
X422526Y240430D01*
X423228Y240291D01*
X423931Y240430D01*
X424526Y240828D01*
X424924Y241424D01*
X425064Y242126D01*
X424924Y242828D01*
X424526Y243424D01*
X423931Y243822D01*
X423228Y243961D01*
D02*
G37*
G36*
X225394Y243961D02*
X224691Y243822D01*
X224096Y243424D01*
X223698Y242828D01*
X223558Y242126D01*
X223698Y241424D01*
X224096Y240828D01*
X224691Y240430D01*
X225394Y240291D01*
X226096Y240430D01*
X226691Y240828D01*
X227089Y241424D01*
X227229Y242126D01*
X227089Y242828D01*
X226691Y243424D01*
X226096Y243822D01*
X225394Y243961D01*
D02*
G37*
G36*
X570472Y242780D02*
X569770Y242640D01*
X569175Y242243D01*
X568777Y241647D01*
X568637Y240945D01*
X568777Y240243D01*
X569175Y239647D01*
X569770Y239249D01*
X570472Y239110D01*
X571175Y239249D01*
X571770Y239647D01*
X572168Y240243D01*
X572308Y240945D01*
X572168Y241647D01*
X571770Y242243D01*
X571175Y242640D01*
X570472Y242780D01*
D02*
G37*
G36*
X560236D02*
X559534Y242640D01*
X558939Y242243D01*
X558541Y241647D01*
X558401Y240945D01*
X558541Y240243D01*
X558939Y239647D01*
X559534Y239249D01*
X560236Y239110D01*
X560939Y239249D01*
X561534Y239647D01*
X561932Y240243D01*
X562072Y240945D01*
X561932Y241647D01*
X561534Y242243D01*
X560939Y242640D01*
X560236Y242780D01*
D02*
G37*
G36*
X550394D02*
X549691Y242640D01*
X549096Y242243D01*
X548698Y241647D01*
X548558Y240945D01*
X548698Y240243D01*
X549096Y239647D01*
X549691Y239249D01*
X550394Y239110D01*
X551096Y239249D01*
X551691Y239647D01*
X552089Y240243D01*
X552229Y240945D01*
X552089Y241647D01*
X551691Y242243D01*
X551096Y242640D01*
X550394Y242780D01*
D02*
G37*
G36*
X530709D02*
X530006Y242640D01*
X529411Y242243D01*
X529013Y241647D01*
X528873Y240945D01*
X529013Y240243D01*
X529411Y239647D01*
X530006Y239249D01*
X530709Y239110D01*
X531411Y239249D01*
X532006Y239647D01*
X532404Y240243D01*
X532544Y240945D01*
X532404Y241647D01*
X532006Y242243D01*
X531411Y242640D01*
X530709Y242780D01*
D02*
G37*
G36*
X229331Y241008D02*
X228628Y240869D01*
X228033Y240471D01*
X227635Y239876D01*
X227495Y239173D01*
X227635Y238471D01*
X228033Y237876D01*
X228628Y237478D01*
X229331Y237338D01*
X230033Y237478D01*
X230628Y237876D01*
X231026Y238471D01*
X231166Y239173D01*
X231026Y239876D01*
X230628Y240471D01*
X230033Y240869D01*
X229331Y241008D01*
D02*
G37*
G36*
X403780Y234079D02*
X403077Y233940D01*
X402482Y233542D01*
X402084Y232946D01*
X401944Y232244D01*
X402084Y231542D01*
X402482Y230946D01*
X403077Y230549D01*
X403780Y230409D01*
X404482Y230549D01*
X405077Y230946D01*
X405475Y231542D01*
X405615Y232244D01*
X405475Y232946D01*
X405077Y233542D01*
X404482Y233940D01*
X403780Y234079D01*
D02*
G37*
G36*
X165748Y231362D02*
X165045Y231223D01*
X164450Y230825D01*
X164052Y230229D01*
X163912Y229527D01*
X164052Y228825D01*
X164450Y228229D01*
X165045Y227832D01*
X165748Y227692D01*
X166450Y227832D01*
X167045Y228229D01*
X167443Y228825D01*
X167583Y229527D01*
X167443Y230229D01*
X167045Y230825D01*
X166450Y231223D01*
X165748Y231362D01*
D02*
G37*
G36*
X309055Y230770D02*
X308353Y230630D01*
X307757Y230233D01*
X307360Y229637D01*
X307220Y228935D01*
X307360Y228233D01*
X307757Y227637D01*
X308353Y227239D01*
X309055Y227100D01*
X309757Y227239D01*
X310353Y227637D01*
X310751Y228233D01*
X310890Y228935D01*
X310751Y229637D01*
X310353Y230233D01*
X309757Y230630D01*
X309055Y230770D01*
D02*
G37*
G36*
X66929Y230182D02*
X66227Y230042D01*
X65631Y229644D01*
X65234Y229049D01*
X65094Y228346D01*
X65234Y227644D01*
X65631Y227049D01*
X66227Y226651D01*
X66929Y226511D01*
X67632Y226651D01*
X68227Y227049D01*
X68625Y227644D01*
X68764Y228346D01*
X68625Y229049D01*
X68227Y229644D01*
X67632Y230042D01*
X66929Y230182D01*
D02*
G37*
G36*
X425984Y228213D02*
X425282Y228074D01*
X424686Y227676D01*
X424289Y227080D01*
X424149Y226378D01*
X424289Y225676D01*
X424686Y225080D01*
X425282Y224682D01*
X425984Y224543D01*
X426687Y224682D01*
X427282Y225080D01*
X427680Y225676D01*
X427819Y226378D01*
X427680Y227080D01*
X427282Y227676D01*
X426687Y228074D01*
X425984Y228213D01*
D02*
G37*
G36*
X312008Y227229D02*
X311305Y227089D01*
X310710Y226691D01*
X310312Y226096D01*
X310173Y225394D01*
X310312Y224691D01*
X310710Y224096D01*
X311305Y223698D01*
X312008Y223558D01*
X312710Y223698D01*
X313306Y224096D01*
X313703Y224691D01*
X313843Y225394D01*
X313703Y226096D01*
X313306Y226691D01*
X312710Y227089D01*
X312008Y227229D01*
D02*
G37*
G36*
X341339Y226638D02*
X340636Y226499D01*
X340041Y226101D01*
X339643Y225505D01*
X339503Y224803D01*
X339643Y224101D01*
X340041Y223505D01*
X340636Y223108D01*
X341339Y222968D01*
X342041Y223108D01*
X342636Y223505D01*
X343034Y224101D01*
X343174Y224803D01*
X343034Y225505D01*
X342636Y226101D01*
X342041Y226499D01*
X341339Y226638D01*
D02*
G37*
G36*
X166339Y226346D02*
X165636Y226206D01*
X165041Y225808D01*
X164643Y225213D01*
X164503Y224510D01*
X164643Y223808D01*
X165041Y223213D01*
X165636Y222815D01*
X166339Y222675D01*
X167041Y222815D01*
X167636Y223213D01*
X168034Y223808D01*
X168174Y224510D01*
X168034Y225213D01*
X167636Y225808D01*
X167041Y226206D01*
X166339Y226346D01*
D02*
G37*
G36*
X434646Y225064D02*
X433943Y224924D01*
X433348Y224526D01*
X432950Y223931D01*
X432810Y223228D01*
X432950Y222526D01*
X433348Y221931D01*
X433943Y221533D01*
X434646Y221393D01*
X435348Y221533D01*
X435943Y221931D01*
X436341Y222526D01*
X436481Y223228D01*
X436341Y223931D01*
X435943Y224526D01*
X435348Y224924D01*
X434646Y225064D01*
D02*
G37*
G36*
X403543Y224079D02*
X402841Y223940D01*
X402246Y223542D01*
X401848Y222946D01*
X401708Y222244D01*
X401848Y221542D01*
X402246Y220946D01*
X402841Y220549D01*
X403543Y220409D01*
X404246Y220549D01*
X404841Y220946D01*
X405239Y221542D01*
X405379Y222244D01*
X405239Y222946D01*
X404841Y223542D01*
X404246Y223940D01*
X403543Y224079D01*
D02*
G37*
G36*
X382677D02*
X381975Y223940D01*
X381379Y223542D01*
X380982Y222946D01*
X380842Y222244D01*
X380982Y221542D01*
X381379Y220946D01*
X381975Y220549D01*
X382677Y220409D01*
X383380Y220549D01*
X383975Y220946D01*
X384373Y221542D01*
X384512Y222244D01*
X384373Y222946D01*
X383975Y223542D01*
X383380Y223940D01*
X382677Y224079D01*
D02*
G37*
G36*
X314961Y222308D02*
X314258Y222168D01*
X313663Y221770D01*
X313265Y221175D01*
X313125Y220472D01*
X313265Y219770D01*
X313663Y219175D01*
X314258Y218777D01*
X314961Y218637D01*
X315663Y218777D01*
X316258Y219175D01*
X316656Y219770D01*
X316796Y220472D01*
X316656Y221175D01*
X316258Y221770D01*
X315663Y222168D01*
X314961Y222308D01*
D02*
G37*
G36*
X96850D02*
X96148Y222168D01*
X95553Y221770D01*
X95155Y221175D01*
X95015Y220472D01*
X95155Y219770D01*
X95553Y219175D01*
X96148Y218777D01*
X96850Y218637D01*
X97553Y218777D01*
X97610Y218815D01*
X97640Y218802D01*
X98259Y218286D01*
X98165Y217815D01*
X98290Y217183D01*
X98264Y217156D01*
X98023Y216957D01*
X97625Y216738D01*
X97159Y217050D01*
X96457Y217190D01*
X95754Y217050D01*
X95159Y216652D01*
X94761Y216057D01*
X94621Y215354D01*
X94761Y214652D01*
X95159Y214057D01*
X95754Y213659D01*
X96457Y213519D01*
X97159Y213659D01*
X97754Y214057D01*
X98152Y214652D01*
X98292Y215354D01*
X98166Y215986D01*
X98193Y216013D01*
X98434Y216212D01*
X98831Y216431D01*
X99298Y216119D01*
X100000Y215980D01*
X100702Y216119D01*
X101298Y216517D01*
X101696Y217113D01*
X101835Y217815D01*
X101696Y218517D01*
X101298Y219113D01*
X100702Y219511D01*
X100000Y219650D01*
X99298Y219511D01*
X99240Y219472D01*
X99210Y219485D01*
X98592Y220001D01*
X98686Y220472D01*
X98546Y221175D01*
X98148Y221770D01*
X97553Y222168D01*
X96850Y222308D01*
D02*
G37*
G36*
X350000Y219158D02*
X349298Y219018D01*
X348702Y218621D01*
X348304Y218025D01*
X348165Y217323D01*
X348304Y216620D01*
X348702Y216025D01*
X349298Y215627D01*
X350000Y215488D01*
X350702Y215627D01*
X351298Y216025D01*
X351696Y216620D01*
X351835Y217323D01*
X351696Y218025D01*
X351298Y218621D01*
X350702Y219018D01*
X350000Y219158D01*
D02*
G37*
G36*
X345275Y217976D02*
X344573Y217836D01*
X343977Y217439D01*
X343579Y216843D01*
X343440Y216141D01*
X343579Y215439D01*
X343977Y214843D01*
X344573Y214445D01*
X345275Y214305D01*
X345977Y214445D01*
X346573Y214843D01*
X346971Y215439D01*
X347110Y216141D01*
X346971Y216843D01*
X346573Y217439D01*
X345977Y217836D01*
X345275Y217976D01*
D02*
G37*
G36*
X181496Y216008D02*
X180794Y215869D01*
X180198Y215471D01*
X179800Y214876D01*
X179661Y214173D01*
X179800Y213471D01*
X180198Y212876D01*
X180794Y212478D01*
X181496Y212338D01*
X182198Y212478D01*
X182794Y212876D01*
X183192Y213471D01*
X183331Y214173D01*
X183192Y214876D01*
X182794Y215471D01*
X182198Y215869D01*
X181496Y216008D01*
D02*
G37*
G36*
X87795Y214434D02*
X87093Y214294D01*
X86498Y213896D01*
X86100Y213301D01*
X85960Y212598D01*
X86100Y211896D01*
X86498Y211301D01*
X87093Y210903D01*
X87795Y210763D01*
X88498Y210903D01*
X89093Y211301D01*
X89491Y211896D01*
X89631Y212598D01*
X89491Y213301D01*
X89093Y213896D01*
X88498Y214294D01*
X87795Y214434D01*
D02*
G37*
G36*
X523622Y214434D02*
X522920Y214294D01*
X522324Y213896D01*
X521926Y213301D01*
X521787Y212598D01*
X521926Y211896D01*
X522324Y211301D01*
X522920Y210903D01*
X523622Y210763D01*
X524324Y210903D01*
X524920Y211301D01*
X525318Y211896D01*
X525457Y212598D01*
X525318Y213301D01*
X524920Y213896D01*
X524324Y214294D01*
X523622Y214434D01*
D02*
G37*
G36*
X403780Y214079D02*
X403077Y213940D01*
X402482Y213542D01*
X402084Y212946D01*
X401944Y212244D01*
X402084Y211542D01*
X402482Y210946D01*
X403077Y210548D01*
X403780Y210409D01*
X404482Y210548D01*
X405077Y210946D01*
X405475Y211542D01*
X405615Y212244D01*
X405475Y212946D01*
X405077Y213542D01*
X404482Y213940D01*
X403780Y214079D01*
D02*
G37*
G36*
X166240Y213452D02*
X165538Y213312D01*
X164942Y212914D01*
X164545Y212319D01*
X164405Y211617D01*
X164545Y210914D01*
X164942Y210319D01*
X165538Y209921D01*
X166240Y209782D01*
X166943Y209921D01*
X167538Y210319D01*
X167936Y210914D01*
X168075Y211617D01*
X167936Y212319D01*
X167538Y212914D01*
X166943Y213312D01*
X166240Y213452D01*
D02*
G37*
G36*
X303150Y210497D02*
X302447Y210357D01*
X301852Y209959D01*
X301454Y209364D01*
X301314Y208661D01*
X301454Y207959D01*
X301852Y207364D01*
X302447Y206966D01*
X303150Y206826D01*
X303852Y206966D01*
X304447Y207364D01*
X304845Y207959D01*
X304985Y208661D01*
X304845Y209364D01*
X304447Y209959D01*
X303852Y210357D01*
X303150Y210497D01*
D02*
G37*
G36*
X446850Y209709D02*
X446148Y209570D01*
X445553Y209172D01*
X445155Y208576D01*
X445015Y207874D01*
X445155Y207172D01*
X445553Y206576D01*
X446148Y206178D01*
X446850Y206039D01*
X447553Y206178D01*
X448148Y206576D01*
X448546Y207172D01*
X448686Y207874D01*
X448546Y208576D01*
X448148Y209172D01*
X447553Y209570D01*
X446850Y209709D01*
D02*
G37*
G36*
X313386Y208528D02*
X312684Y208388D01*
X312088Y207991D01*
X311690Y207395D01*
X311551Y206693D01*
X311690Y205991D01*
X312088Y205395D01*
X312684Y204997D01*
X313386Y204858D01*
X314088Y204997D01*
X314684Y205395D01*
X315081Y205991D01*
X315221Y206693D01*
X315081Y207395D01*
X314684Y207991D01*
X314088Y208388D01*
X313386Y208528D01*
D02*
G37*
G36*
X351969Y207741D02*
X351266Y207601D01*
X350671Y207203D01*
X350273Y206608D01*
X350133Y205906D01*
X350273Y205203D01*
X350671Y204608D01*
X351266Y204210D01*
X351969Y204070D01*
X352671Y204210D01*
X353266Y204608D01*
X353664Y205203D01*
X353804Y205906D01*
X353664Y206608D01*
X353266Y207203D01*
X352671Y207601D01*
X351969Y207741D01*
D02*
G37*
G36*
X88976Y206560D02*
X88274Y206420D01*
X87679Y206022D01*
X87281Y205427D01*
X87141Y204724D01*
X87281Y204022D01*
X87679Y203427D01*
X88274Y203029D01*
X88976Y202889D01*
X89679Y203029D01*
X90274Y203427D01*
X90672Y204022D01*
X90812Y204724D01*
X90672Y205427D01*
X90274Y206022D01*
X89679Y206420D01*
X88976Y206560D01*
D02*
G37*
G36*
X263878Y206363D02*
X263176Y206223D01*
X262580Y205825D01*
X262182Y205230D01*
X262043Y204528D01*
X262182Y203825D01*
X262580Y203230D01*
X263176Y202832D01*
X263878Y202692D01*
X264580Y202832D01*
X265176Y203230D01*
X265574Y203825D01*
X265713Y204528D01*
X265574Y205230D01*
X265176Y205825D01*
X264580Y206223D01*
X263878Y206363D01*
D02*
G37*
G36*
X294685Y205575D02*
X293983Y205436D01*
X293387Y205038D01*
X292989Y204443D01*
X292850Y203740D01*
X292989Y203038D01*
X293387Y202442D01*
X293983Y202045D01*
X294685Y201905D01*
X295387Y202045D01*
X295983Y202442D01*
X296381Y203038D01*
X296520Y203740D01*
X296381Y204443D01*
X295983Y205038D01*
X295387Y205436D01*
X294685Y205575D01*
D02*
G37*
G36*
X523622Y204591D02*
X522920Y204451D01*
X522324Y204054D01*
X521926Y203458D01*
X521787Y202756D01*
X521926Y202054D01*
X522324Y201458D01*
X522920Y201060D01*
X523622Y200921D01*
X524324Y201060D01*
X524920Y201458D01*
X525318Y202054D01*
X525457Y202756D01*
X525318Y203458D01*
X524920Y204054D01*
X524324Y204451D01*
X523622Y204591D01*
D02*
G37*
G36*
X557244Y208860D02*
X556174Y208719D01*
X555176Y208306D01*
X554320Y207649D01*
X553663Y206792D01*
X553250Y205795D01*
X553109Y204724D01*
X553250Y203654D01*
X553663Y202657D01*
X554320Y201800D01*
X555176Y201143D01*
X556174Y200730D01*
X557244Y200589D01*
X558314Y200730D01*
X559312Y201143D01*
X560168Y201800D01*
X560825Y202657D01*
X561239Y203654D01*
X561379Y204724D01*
X561239Y205795D01*
X560825Y206792D01*
X560168Y207649D01*
X559312Y208306D01*
X558314Y208719D01*
X557244Y208860D01*
D02*
G37*
G36*
X403858Y204079D02*
X403156Y203940D01*
X402561Y203542D01*
X402163Y202946D01*
X402023Y202244D01*
X402163Y201542D01*
X402561Y200946D01*
X403156Y200549D01*
X403858Y200409D01*
X404561Y200549D01*
X405156Y200946D01*
X405554Y201542D01*
X405693Y202244D01*
X405554Y202946D01*
X405156Y203542D01*
X404561Y203940D01*
X403858Y204079D01*
D02*
G37*
G36*
X332677Y201638D02*
X331975Y201499D01*
X331379Y201101D01*
X330982Y200505D01*
X330842Y199803D01*
X330955Y199232D01*
X330921Y199162D01*
X330650Y198835D01*
X330355Y198598D01*
X329921Y198685D01*
X329218Y198545D01*
X328623Y198147D01*
X328225Y197552D01*
X328085Y196850D01*
X328225Y196147D01*
X328623Y195552D01*
X329218Y195154D01*
X329921Y195014D01*
X330623Y195154D01*
X331218Y195552D01*
X331616Y196147D01*
X331756Y196850D01*
X331642Y197420D01*
X331677Y197491D01*
X331948Y197818D01*
X332242Y198054D01*
X332677Y197968D01*
X333380Y198108D01*
X333975Y198505D01*
X334373Y199101D01*
X334512Y199803D01*
X334373Y200505D01*
X333975Y201101D01*
X333380Y201499D01*
X332677Y201638D01*
D02*
G37*
G36*
X305118Y198686D02*
X304416Y198546D01*
X303820Y198148D01*
X303423Y197553D01*
X303283Y196850D01*
X303423Y196148D01*
X303820Y195553D01*
X304416Y195155D01*
X305118Y195015D01*
X305820Y195155D01*
X306416Y195553D01*
X306814Y196148D01*
X306953Y196850D01*
X306814Y197553D01*
X306416Y198148D01*
X305820Y198546D01*
X305118Y198686D01*
D02*
G37*
G36*
X283465D02*
X282762Y198546D01*
X282167Y198148D01*
X281769Y197553D01*
X281629Y196850D01*
X281769Y196148D01*
X282167Y195553D01*
X282762Y195155D01*
X283465Y195015D01*
X284167Y195155D01*
X284762Y195553D01*
X285160Y196148D01*
X285300Y196850D01*
X285160Y197553D01*
X284762Y198148D01*
X284167Y198546D01*
X283465Y198686D01*
D02*
G37*
G36*
X320866Y198292D02*
X320164Y198152D01*
X319568Y197754D01*
X319171Y197159D01*
X319031Y196457D01*
X319171Y195754D01*
X319568Y195159D01*
X320164Y194761D01*
X320866Y194621D01*
X321568Y194761D01*
X322164Y195159D01*
X322562Y195754D01*
X322701Y196457D01*
X322562Y197159D01*
X322164Y197754D01*
X321568Y198152D01*
X320866Y198292D01*
D02*
G37*
G36*
X446063Y197504D02*
X445361Y197365D01*
X444765Y196967D01*
X444367Y196372D01*
X444228Y195669D01*
X444367Y194967D01*
X444765Y194372D01*
X445361Y193974D01*
X446063Y193834D01*
X446765Y193974D01*
X447361Y194372D01*
X447759Y194967D01*
X447898Y195669D01*
X447759Y196372D01*
X447361Y196967D01*
X446765Y197365D01*
X446063Y197504D01*
D02*
G37*
G36*
X637795Y216387D02*
X635971Y216244D01*
X634191Y215816D01*
X632501Y215116D01*
X630940Y214160D01*
X629549Y212971D01*
X628360Y211580D01*
X627404Y210019D01*
X626703Y208328D01*
X626276Y206549D01*
X626132Y204724D01*
X626276Y202900D01*
X626703Y201120D01*
X627404Y199430D01*
X628360Y197869D01*
X629549Y196478D01*
X630940Y195289D01*
X632501Y194333D01*
X634191Y193632D01*
X635971Y193205D01*
X637795Y193062D01*
X639620Y193205D01*
X641399Y193632D01*
X643090Y194333D01*
X644650Y195289D01*
X646042Y196478D01*
X647231Y197869D01*
X648187Y199430D01*
X648887Y201120D01*
X649314Y202900D01*
X649458Y204724D01*
X649314Y206549D01*
X648887Y208328D01*
X648187Y210019D01*
X647231Y211580D01*
X646042Y212971D01*
X644650Y214160D01*
X643090Y215116D01*
X641399Y215816D01*
X639620Y216244D01*
X637795Y216387D01*
D02*
G37*
G36*
X557244Y198860D02*
X556174Y198719D01*
X555176Y198306D01*
X554320Y197649D01*
X553663Y196792D01*
X553250Y195795D01*
X553109Y194724D01*
X553250Y193654D01*
X553663Y192657D01*
X554320Y191800D01*
X555176Y191143D01*
X556174Y190730D01*
X557244Y190589D01*
X558314Y190730D01*
X559312Y191143D01*
X560168Y191800D01*
X560825Y192657D01*
X561239Y193654D01*
X561379Y194724D01*
X561239Y195795D01*
X560825Y196792D01*
X560168Y197649D01*
X559312Y198306D01*
X558314Y198719D01*
X557244Y198860D01*
D02*
G37*
G36*
X547244D02*
X546174Y198719D01*
X545176Y198306D01*
X544320Y197649D01*
X543663Y196792D01*
X543250Y195795D01*
X543109Y194724D01*
X543250Y193654D01*
X543663Y192657D01*
X544320Y191800D01*
X545176Y191143D01*
X546174Y190730D01*
X547244Y190589D01*
X548314Y190730D01*
X549312Y191143D01*
X550168Y191800D01*
X550825Y192657D01*
X551239Y193654D01*
X551379Y194724D01*
X551239Y195795D01*
X550825Y196792D01*
X550168Y197649D01*
X549312Y198306D01*
X548314Y198719D01*
X547244Y198860D01*
D02*
G37*
G36*
X403858Y194079D02*
X403156Y193940D01*
X402561Y193542D01*
X402163Y192946D01*
X402023Y192244D01*
X402163Y191542D01*
X402561Y190946D01*
X403156Y190549D01*
X403858Y190409D01*
X404561Y190549D01*
X405156Y190946D01*
X405554Y191542D01*
X405693Y192244D01*
X405554Y192946D01*
X405156Y193542D01*
X404561Y193940D01*
X403858Y194079D01*
D02*
G37*
G36*
X35433Y193764D02*
X34731Y193625D01*
X34135Y193227D01*
X33737Y192631D01*
X33598Y191929D01*
X33737Y191227D01*
X34135Y190631D01*
X34731Y190234D01*
X35433Y190094D01*
X36135Y190234D01*
X36731Y190631D01*
X36770Y190690D01*
X37619Y190521D01*
X37674Y190243D01*
X38072Y189647D01*
X38668Y189249D01*
X39370Y189110D01*
X40072Y189249D01*
X40668Y189647D01*
X41066Y190243D01*
X41205Y190945D01*
X41066Y191647D01*
X40668Y192243D01*
X40072Y192640D01*
X39370Y192780D01*
X38668Y192640D01*
X38072Y192243D01*
X38033Y192184D01*
X37184Y192353D01*
X37129Y192631D01*
X36731Y193227D01*
X36135Y193625D01*
X35433Y193764D01*
D02*
G37*
G36*
X309055Y191796D02*
X308353Y191656D01*
X307757Y191258D01*
X307360Y190663D01*
X307220Y189961D01*
X307360Y189258D01*
X307757Y188663D01*
X308353Y188265D01*
X309055Y188125D01*
X309757Y188265D01*
X310353Y188663D01*
X310751Y189258D01*
X310890Y189961D01*
X310751Y190663D01*
X310353Y191258D01*
X309757Y191656D01*
X309055Y191796D01*
D02*
G37*
G36*
X266634Y190812D02*
X265932Y190672D01*
X265336Y190274D01*
X264938Y189679D01*
X264799Y188976D01*
X264938Y188274D01*
X265336Y187679D01*
X265932Y187281D01*
X266634Y187141D01*
X267336Y187281D01*
X267932Y187679D01*
X268329Y188274D01*
X268469Y188976D01*
X268329Y189679D01*
X267932Y190274D01*
X267336Y190672D01*
X266634Y190812D01*
D02*
G37*
G36*
X328658Y188668D02*
X327956Y188528D01*
X327360Y188130D01*
X326962Y187535D01*
X326822Y186833D01*
X326962Y186130D01*
X327360Y185535D01*
X327956Y185137D01*
X328658Y184997D01*
X329360Y185137D01*
X329956Y185535D01*
X330353Y186130D01*
X330493Y186833D01*
X330353Y187535D01*
X329956Y188130D01*
X329360Y188528D01*
X328658Y188668D01*
D02*
G37*
G36*
X301969Y188056D02*
X301266Y187916D01*
X300671Y187518D01*
X300273Y186923D01*
X300133Y186221D01*
X300273Y185518D01*
X300671Y184923D01*
X301266Y184525D01*
X301969Y184385D01*
X302671Y184525D01*
X303266Y184923D01*
X303664Y185518D01*
X303804Y186221D01*
X303664Y186923D01*
X303266Y187518D01*
X302671Y187916D01*
X301969Y188056D01*
D02*
G37*
G36*
X217815Y187957D02*
X217113Y187818D01*
X216517Y187420D01*
X216119Y186824D01*
X215980Y186122D01*
X216119Y185420D01*
X216517Y184824D01*
X217113Y184426D01*
X217815Y184287D01*
X218517Y184426D01*
X219113Y184824D01*
X219511Y185420D01*
X219650Y186122D01*
X219511Y186824D01*
X219113Y187420D01*
X218517Y187818D01*
X217815Y187957D01*
D02*
G37*
G36*
X291339Y187662D02*
X290636Y187522D01*
X290041Y187125D01*
X289643Y186529D01*
X289503Y185827D01*
X289643Y185125D01*
X290041Y184529D01*
X290636Y184131D01*
X291339Y183992D01*
X292041Y184131D01*
X292636Y184529D01*
X293034Y185125D01*
X293174Y185827D01*
X293034Y186529D01*
X292636Y187125D01*
X292041Y187522D01*
X291339Y187662D01*
D02*
G37*
G36*
X333661Y187465D02*
X332959Y187326D01*
X332364Y186928D01*
X331966Y186332D01*
X331826Y185630D01*
X331966Y184928D01*
X332364Y184332D01*
X332959Y183934D01*
X333661Y183795D01*
X334364Y183934D01*
X334959Y184332D01*
X335357Y184928D01*
X335497Y185630D01*
X335357Y186332D01*
X334959Y186928D01*
X334364Y187326D01*
X333661Y187465D01*
D02*
G37*
G36*
X252165Y186875D02*
X251463Y186735D01*
X250868Y186337D01*
X250470Y185742D01*
X250330Y185039D01*
X250470Y184337D01*
X250868Y183742D01*
X251463Y183344D01*
X252165Y183204D01*
X252868Y183344D01*
X253463Y183742D01*
X253861Y184337D01*
X254001Y185039D01*
X253861Y185742D01*
X253463Y186337D01*
X252868Y186735D01*
X252165Y186875D01*
D02*
G37*
G36*
X557244Y188860D02*
X556174Y188719D01*
X555176Y188306D01*
X554320Y187649D01*
X553663Y186792D01*
X553250Y185795D01*
X553109Y184724D01*
X553250Y183654D01*
X553663Y182657D01*
X554320Y181800D01*
X555176Y181143D01*
X556174Y180730D01*
X557244Y180589D01*
X558314Y180730D01*
X559312Y181143D01*
X560168Y181800D01*
X560825Y182657D01*
X561239Y183654D01*
X561379Y184724D01*
X561239Y185795D01*
X560825Y186792D01*
X560168Y187649D01*
X559312Y188306D01*
X558314Y188719D01*
X557244Y188860D01*
D02*
G37*
G36*
X547244D02*
X546174Y188719D01*
X545176Y188306D01*
X544320Y187649D01*
X543663Y186792D01*
X543250Y185795D01*
X543109Y184724D01*
X543250Y183654D01*
X543663Y182657D01*
X544320Y181800D01*
X545176Y181143D01*
X546174Y180730D01*
X547244Y180589D01*
X548314Y180730D01*
X549312Y181143D01*
X550168Y181800D01*
X550825Y182657D01*
X551239Y183654D01*
X551379Y184724D01*
X551239Y185795D01*
X550825Y186792D01*
X550168Y187649D01*
X549312Y188306D01*
X548314Y188719D01*
X547244Y188860D01*
D02*
G37*
G36*
X370866Y181363D02*
X370164Y181223D01*
X369568Y180825D01*
X369171Y180230D01*
X369031Y179528D01*
X369171Y178825D01*
X369568Y178230D01*
X370164Y177832D01*
X370866Y177692D01*
X371568Y177832D01*
X372164Y178230D01*
X372562Y178825D01*
X372701Y179528D01*
X372562Y180230D01*
X372164Y180825D01*
X371568Y181223D01*
X370866Y181363D01*
D02*
G37*
G36*
X35827Y178607D02*
X35124Y178467D01*
X34529Y178069D01*
X34131Y177474D01*
X33992Y176772D01*
X34131Y176069D01*
X34529Y175474D01*
X35124Y175076D01*
X35827Y174936D01*
X36529Y175076D01*
X37124Y175474D01*
X37522Y176069D01*
X37662Y176772D01*
X37522Y177474D01*
X37124Y178069D01*
X36529Y178467D01*
X35827Y178607D01*
D02*
G37*
G36*
X320472Y177031D02*
X319770Y176892D01*
X319174Y176494D01*
X318776Y175898D01*
X318650Y175263D01*
X318626Y175187D01*
X317934Y174626D01*
X317716Y174669D01*
X317014Y174529D01*
X316418Y174132D01*
X316020Y173536D01*
X315881Y172834D01*
X316020Y172132D01*
X316418Y171536D01*
X316876Y171230D01*
X317014Y171138D01*
X317202Y170387D01*
X317062Y169685D01*
X317202Y168983D01*
X317600Y168387D01*
X318195Y167990D01*
X318898Y167850D01*
X319081Y167071D01*
X319171Y166621D01*
X319568Y166025D01*
X320164Y165627D01*
X320866Y165488D01*
X321568Y165627D01*
X322164Y166025D01*
X322562Y166621D01*
X322701Y167323D01*
X322562Y168025D01*
X322164Y168621D01*
X321568Y169018D01*
X320866Y169158D01*
X320683Y169937D01*
X320593Y170387D01*
X320195Y170983D01*
X319737Y171289D01*
X319600Y171381D01*
X319411Y172132D01*
X319538Y172766D01*
X319562Y172842D01*
X320253Y173404D01*
X320472Y173361D01*
X321174Y173500D01*
X321769Y173898D01*
X322167Y174494D01*
X322307Y175196D01*
X322167Y175898D01*
X321769Y176494D01*
X321174Y176892D01*
X320472Y177031D01*
D02*
G37*
G36*
X343307Y177032D02*
X342605Y176892D01*
X342009Y176495D01*
X341612Y175899D01*
X341472Y175197D01*
X341612Y174495D01*
X342009Y173899D01*
X342605Y173501D01*
X343307Y173362D01*
X344009Y173501D01*
X344605Y173899D01*
X345003Y174495D01*
X345142Y175197D01*
X345003Y175899D01*
X344605Y176495D01*
X344009Y176892D01*
X343307Y177032D01*
D02*
G37*
G36*
X288189Y177426D02*
X287487Y177286D01*
X286891Y176888D01*
X286493Y176293D01*
X286354Y175591D01*
X286493Y174888D01*
X286891Y174293D01*
X287487Y173895D01*
X288122Y173769D01*
X288198Y173745D01*
X288759Y173053D01*
X288716Y172835D01*
X288856Y172132D01*
X289253Y171537D01*
X289849Y171139D01*
X290551Y170999D01*
X291253Y171139D01*
X291849Y171537D01*
X292247Y172132D01*
X292386Y172835D01*
X292247Y173537D01*
X291849Y174132D01*
X291253Y174530D01*
X290619Y174656D01*
X290543Y174680D01*
X289981Y175372D01*
X290024Y175591D01*
X289884Y176293D01*
X289487Y176888D01*
X288891Y177286D01*
X288189Y177426D01*
D02*
G37*
G36*
X557244Y178860D02*
X556174Y178719D01*
X555176Y178306D01*
X554320Y177649D01*
X553663Y176792D01*
X553250Y175795D01*
X553109Y174724D01*
X553250Y173654D01*
X553663Y172657D01*
X554320Y171800D01*
X555176Y171143D01*
X556174Y170730D01*
X557244Y170589D01*
X558314Y170730D01*
X559312Y171143D01*
X560168Y171800D01*
X560825Y172657D01*
X561239Y173654D01*
X561379Y174724D01*
X561239Y175795D01*
X560825Y176792D01*
X560168Y177649D01*
X559312Y178306D01*
X558314Y178719D01*
X557244Y178860D01*
D02*
G37*
G36*
X547244D02*
X546174Y178719D01*
X545176Y178306D01*
X544320Y177649D01*
X543663Y176792D01*
X543250Y175795D01*
X543109Y174724D01*
X543250Y173654D01*
X543663Y172657D01*
X544320Y171800D01*
X545176Y171143D01*
X546174Y170730D01*
X547244Y170589D01*
X548314Y170730D01*
X549312Y171143D01*
X550168Y171800D01*
X550825Y172657D01*
X551239Y173654D01*
X551379Y174724D01*
X551239Y175795D01*
X550825Y176792D01*
X550168Y177649D01*
X549312Y178306D01*
X548314Y178719D01*
X547244Y178860D01*
D02*
G37*
G36*
X370866Y173095D02*
X370164Y172955D01*
X369568Y172558D01*
X369171Y171962D01*
X369031Y171260D01*
X369171Y170557D01*
X369568Y169962D01*
X370164Y169564D01*
X370866Y169425D01*
X371568Y169564D01*
X372164Y169962D01*
X372562Y170557D01*
X372701Y171260D01*
X372562Y171962D01*
X372164Y172558D01*
X371568Y172955D01*
X370866Y173095D01*
D02*
G37*
G36*
X36417D02*
X35715Y172955D01*
X35120Y172558D01*
X34722Y171962D01*
X34582Y171260D01*
X34722Y170557D01*
X35120Y169962D01*
X35715Y169564D01*
X36417Y169425D01*
X37120Y169564D01*
X37715Y169962D01*
X38113Y170557D01*
X38253Y171260D01*
X38113Y171962D01*
X37715Y172558D01*
X37120Y172955D01*
X36417Y173095D01*
D02*
G37*
G36*
X363878Y172042D02*
X363176Y171902D01*
X362580Y171504D01*
X362182Y170909D01*
X362043Y170206D01*
X362182Y169504D01*
X362580Y168909D01*
X363176Y168511D01*
X363878Y168371D01*
X364580Y168511D01*
X365176Y168909D01*
X365574Y169504D01*
X365713Y170206D01*
X365574Y170909D01*
X365176Y171504D01*
X364580Y171902D01*
X363878Y172042D01*
D02*
G37*
G36*
X250000Y171127D02*
X249298Y170987D01*
X248702Y170589D01*
X248304Y169994D01*
X248165Y169291D01*
X248304Y168589D01*
X248702Y167994D01*
X249298Y167596D01*
X250000Y167456D01*
X250702Y167596D01*
X251298Y167994D01*
X251696Y168589D01*
X251835Y169291D01*
X251696Y169994D01*
X251298Y170589D01*
X250702Y170987D01*
X250000Y171127D01*
D02*
G37*
G36*
X472441Y170733D02*
X471739Y170593D01*
X471143Y170195D01*
X470745Y169600D01*
X470606Y168898D01*
X470745Y168195D01*
X471143Y167600D01*
X471739Y167202D01*
X472441Y167062D01*
X473143Y167202D01*
X473739Y167600D01*
X474136Y168195D01*
X474276Y168898D01*
X474136Y169600D01*
X473739Y170195D01*
X473143Y170593D01*
X472441Y170733D01*
D02*
G37*
G36*
X217815Y170339D02*
X217113Y170200D01*
X216517Y169802D01*
X216119Y169206D01*
X215980Y168504D01*
X216119Y167802D01*
X216517Y167206D01*
X217113Y166808D01*
X217815Y166669D01*
X218517Y166808D01*
X219113Y167206D01*
X219511Y167802D01*
X219650Y168504D01*
X219511Y169206D01*
X219113Y169802D01*
X218517Y170200D01*
X217815Y170339D01*
D02*
G37*
G36*
X142323Y169946D02*
X141621Y169806D01*
X141025Y169408D01*
X140627Y168813D01*
X140488Y168110D01*
X140627Y167408D01*
X141025Y166813D01*
X141621Y166415D01*
X142323Y166275D01*
X143025Y166415D01*
X143621Y166813D01*
X144018Y167408D01*
X144158Y168110D01*
X144018Y168813D01*
X143621Y169408D01*
X143025Y169806D01*
X142323Y169946D01*
D02*
G37*
G36*
X505512Y165221D02*
X504810Y165081D01*
X504214Y164683D01*
X504165Y164609D01*
X424969D01*
X424920Y164683D01*
X424324Y165081D01*
X423622Y165221D01*
X422920Y165081D01*
X422324Y164683D01*
X421926Y164088D01*
X421787Y163386D01*
X421926Y162683D01*
X422324Y162088D01*
X422920Y161690D01*
X423622Y161551D01*
X424324Y161690D01*
X424920Y162088D01*
X424969Y162162D01*
X504165D01*
X504214Y162088D01*
X504810Y161690D01*
X505512Y161551D01*
X506214Y161690D01*
X506810Y162088D01*
X507207Y162683D01*
X507347Y163386D01*
X507207Y164088D01*
X506810Y164683D01*
X506214Y165081D01*
X505512Y165221D01*
D02*
G37*
G36*
X161614Y167190D02*
X160912Y167050D01*
X160317Y166652D01*
X159919Y166057D01*
X159779Y165354D01*
X159919Y164652D01*
X160317Y164057D01*
X160912Y163659D01*
X161614Y163519D01*
X162317Y163659D01*
X162912Y164057D01*
X163310Y164652D01*
X163449Y165354D01*
X163310Y166057D01*
X162912Y166652D01*
X162317Y167050D01*
X161614Y167190D01*
D02*
G37*
G36*
X129035D02*
X128333Y167050D01*
X127738Y166652D01*
X127340Y166057D01*
X127200Y165354D01*
X127340Y164652D01*
X127738Y164057D01*
X128333Y163659D01*
X129035Y163519D01*
X129738Y163659D01*
X130333Y164057D01*
X130731Y164652D01*
X130871Y165354D01*
X130731Y166057D01*
X130333Y166652D01*
X129738Y167050D01*
X129035Y167190D01*
D02*
G37*
G36*
X91240D02*
X90538Y167050D01*
X89942Y166652D01*
X89545Y166057D01*
X89405Y165354D01*
X89545Y164652D01*
X89942Y164057D01*
X90538Y163659D01*
X91240Y163519D01*
X91943Y163659D01*
X92538Y164057D01*
X92936Y164652D01*
X93075Y165354D01*
X92936Y166057D01*
X92538Y166652D01*
X91943Y167050D01*
X91240Y167190D01*
D02*
G37*
G36*
X557244Y168860D02*
X556174Y168719D01*
X555176Y168306D01*
X554320Y167649D01*
X553663Y166792D01*
X553250Y165795D01*
X553109Y164724D01*
X553250Y163654D01*
X553663Y162657D01*
X554320Y161800D01*
X555176Y161143D01*
X556174Y160730D01*
X557244Y160589D01*
X558314Y160730D01*
X559312Y161143D01*
X560168Y161800D01*
X560825Y162657D01*
X561239Y163654D01*
X561379Y164724D01*
X561239Y165795D01*
X560825Y166792D01*
X560168Y167649D01*
X559312Y168306D01*
X558314Y168719D01*
X557244Y168860D01*
D02*
G37*
G36*
X547244D02*
X546174Y168719D01*
X545176Y168306D01*
X544320Y167649D01*
X543663Y166792D01*
X543250Y165795D01*
X543109Y164724D01*
X543250Y163654D01*
X543663Y162657D01*
X544320Y161800D01*
X545176Y161143D01*
X546174Y160730D01*
X547244Y160589D01*
X548314Y160730D01*
X549312Y161143D01*
X550168Y161800D01*
X550825Y162657D01*
X551239Y163654D01*
X551379Y164724D01*
X551239Y165795D01*
X550825Y166792D01*
X550168Y167649D01*
X549312Y168306D01*
X548314Y168719D01*
X547244Y168860D01*
D02*
G37*
G36*
X384842Y162859D02*
X384140Y162719D01*
X383545Y162321D01*
X383147Y161726D01*
X383007Y161024D01*
X383147Y160321D01*
X383545Y159726D01*
X384140Y159328D01*
X384842Y159188D01*
X385545Y159328D01*
X386140Y159726D01*
X386538Y160321D01*
X386678Y161024D01*
X386538Y161726D01*
X386140Y162321D01*
X385545Y162719D01*
X384842Y162859D01*
D02*
G37*
G36*
X342520Y165221D02*
X341817Y165081D01*
X341222Y164683D01*
X340824Y164088D01*
X340684Y163386D01*
X340824Y162683D01*
X341222Y162088D01*
X341561Y161862D01*
X341578Y161814D01*
Y161021D01*
X341561Y160973D01*
X341222Y160747D01*
X340824Y160151D01*
X340684Y159449D01*
X340824Y158747D01*
X341222Y158151D01*
X341817Y157753D01*
X342520Y157614D01*
X343222Y157753D01*
X343817Y158151D01*
X344215Y158747D01*
X344355Y159449D01*
X344215Y160151D01*
X343817Y160747D01*
X343479Y160973D01*
X343461Y161021D01*
Y161814D01*
X343479Y161862D01*
X343817Y162088D01*
X344215Y162683D01*
X344355Y163386D01*
X344215Y164088D01*
X343817Y164683D01*
X343222Y165081D01*
X342520Y165221D01*
D02*
G37*
G36*
X95866Y159512D02*
X95164Y159373D01*
X94568Y158975D01*
X94171Y158379D01*
X94086Y157953D01*
X93397Y157548D01*
X93247Y157517D01*
X92618Y157642D01*
X91916Y157503D01*
X91320Y157105D01*
X90923Y156509D01*
X90783Y155807D01*
X90923Y155105D01*
X91320Y154509D01*
X91916Y154112D01*
X92618Y153972D01*
X93320Y154112D01*
X93916Y154509D01*
X94314Y155105D01*
X94398Y155531D01*
X95087Y155936D01*
X95237Y155967D01*
X95866Y155842D01*
X96228Y155914D01*
X96630Y155910D01*
X97091Y155368D01*
X97123Y155203D01*
X97521Y154608D01*
X98117Y154210D01*
X98819Y154070D01*
X99521Y154210D01*
X100117Y154608D01*
X100514Y155203D01*
X100654Y155905D01*
X100514Y156608D01*
X100117Y157203D01*
X99521Y157601D01*
X98819Y157741D01*
X98457Y157669D01*
X98055Y157673D01*
X97594Y158214D01*
X97562Y158379D01*
X97164Y158975D01*
X96569Y159373D01*
X95866Y159512D01*
D02*
G37*
G36*
X26378Y159316D02*
X25676Y159176D01*
X25080Y158778D01*
X24682Y158183D01*
X24543Y157480D01*
X24682Y156778D01*
X25080Y156183D01*
X25676Y155785D01*
X26378Y155645D01*
X27080Y155785D01*
X27676Y156183D01*
X28073Y156778D01*
X28213Y157480D01*
X28073Y158183D01*
X27676Y158778D01*
X27080Y159176D01*
X26378Y159316D01*
D02*
G37*
G36*
X108366Y158627D02*
X107664Y158487D01*
X107068Y158089D01*
X106671Y157494D01*
X106531Y156791D01*
X106671Y156089D01*
X107068Y155494D01*
X107664Y155096D01*
X108366Y154956D01*
X109069Y155096D01*
X109664Y155494D01*
X110062Y156089D01*
X110201Y156791D01*
X110062Y157494D01*
X109664Y158089D01*
X109069Y158487D01*
X108366Y158627D01*
D02*
G37*
G36*
X155610Y158528D02*
X154908Y158388D01*
X154313Y157991D01*
X153915Y157395D01*
X153775Y156693D01*
X153915Y155991D01*
X154313Y155395D01*
X154908Y154997D01*
X155610Y154858D01*
X156313Y154997D01*
X156908Y155395D01*
X157306Y155991D01*
X157446Y156693D01*
X157306Y157395D01*
X156908Y157991D01*
X156313Y158388D01*
X155610Y158528D01*
D02*
G37*
G36*
X139862Y158627D02*
X139160Y158487D01*
X138565Y158089D01*
X138167Y157494D01*
X138027Y156791D01*
X138167Y156089D01*
X138565Y155494D01*
X139160Y155096D01*
X139862Y154956D01*
X140394Y155062D01*
X140565Y155096D01*
X140910Y154892D01*
X141283Y154614D01*
X141616Y154116D01*
X142211Y153718D01*
X142913Y153578D01*
X143616Y153718D01*
X144211Y154116D01*
X144609Y154711D01*
X145459Y155096D01*
X146161Y154956D01*
X146864Y155096D01*
X147459Y155494D01*
X147948D01*
X148013Y155395D01*
X148609Y154997D01*
X149311Y154858D01*
X150013Y154997D01*
X150609Y155395D01*
X151007Y155991D01*
X151146Y156693D01*
X151007Y157395D01*
X150609Y157991D01*
X150013Y158388D01*
X149311Y158528D01*
X148609Y158388D01*
X148013Y157991D01*
X147525D01*
X147459Y158089D01*
X146864Y158487D01*
X146161Y158627D01*
X145459Y158487D01*
X144864Y158089D01*
X144466Y157494D01*
X143616Y157109D01*
X142913Y157249D01*
X142381Y157143D01*
X142211Y157109D01*
X141865Y157313D01*
X141493Y157591D01*
X141160Y158089D01*
X140565Y158487D01*
X139862Y158627D01*
D02*
G37*
G36*
X120965D02*
X120262Y158487D01*
X119667Y158089D01*
X119269Y157494D01*
X119129Y156791D01*
X119269Y156089D01*
X119667Y155494D01*
X120262Y155096D01*
X120965Y154956D01*
X121667Y155096D01*
X122517Y154809D01*
X122915Y154214D01*
X123510Y153816D01*
X124213Y153676D01*
X124915Y153816D01*
X125510Y154214D01*
X125908Y154809D01*
X126048Y155512D01*
X125908Y156214D01*
X125510Y156809D01*
X124915Y157207D01*
X124213Y157347D01*
X123510Y157207D01*
X122660Y157494D01*
X122262Y158089D01*
X121667Y158487D01*
X120965Y158627D01*
D02*
G37*
G36*
X273622Y185694D02*
X272920Y185554D01*
X272324Y185156D01*
X271926Y184561D01*
X271787Y183858D01*
X271926Y183156D01*
X272324Y182561D01*
X272398Y182511D01*
Y179824D01*
X272492Y179356D01*
X272757Y178959D01*
X277517Y174199D01*
Y159484D01*
X277049Y159172D01*
X276651Y158576D01*
X276511Y157874D01*
X276651Y157172D01*
X277049Y156576D01*
X277644Y156178D01*
X277926Y156122D01*
X278369Y155930D01*
X278507Y155255D01*
X278480Y155118D01*
X278619Y154416D01*
X279017Y153820D01*
X279613Y153423D01*
X280315Y153283D01*
X281017Y153423D01*
X281613Y153820D01*
X282011Y154416D01*
X282150Y155118D01*
X282011Y155820D01*
X281618Y156407D01*
X281677Y156494D01*
X281770Y156963D01*
Y158785D01*
X281677Y159254D01*
X281564Y159423D01*
Y175368D01*
X281471Y175837D01*
X281205Y176234D01*
X278782Y178657D01*
Y179754D01*
X278856Y179804D01*
X279254Y180399D01*
X279394Y181102D01*
X279254Y181804D01*
X278856Y182399D01*
X278261Y182797D01*
X277558Y182937D01*
X276856Y182797D01*
X276261Y182399D01*
X275863Y181804D01*
X275723Y181102D01*
X275005Y180613D01*
X274846Y180711D01*
Y182511D01*
X274920Y182561D01*
X275318Y183156D01*
X275457Y183858D01*
X275318Y184561D01*
X274920Y185156D01*
X274324Y185554D01*
X273622Y185694D01*
D02*
G37*
G36*
X367322Y153409D02*
X366620Y153270D01*
X366024Y152872D01*
X365627Y152276D01*
X365622Y152252D01*
X365339Y152113D01*
X364754Y151992D01*
X364303Y152294D01*
X363600Y152433D01*
X362898Y152294D01*
X362303Y151896D01*
X361905Y151300D01*
X361765Y150598D01*
X361905Y149896D01*
X362303Y149300D01*
X362898Y148902D01*
X363600Y148763D01*
X364303Y148902D01*
X364898Y149300D01*
X365296Y149896D01*
X365301Y149919D01*
X365584Y150059D01*
X366168Y150180D01*
X366620Y149878D01*
X367322Y149739D01*
X368024Y149878D01*
X368620Y150276D01*
X369018Y150872D01*
X369157Y151574D01*
X369018Y152276D01*
X368620Y152872D01*
X368024Y153270D01*
X367322Y153409D01*
D02*
G37*
G36*
X557244Y158860D02*
X556174Y158719D01*
X555176Y158306D01*
X554320Y157649D01*
X553663Y156792D01*
X553250Y155795D01*
X553109Y154724D01*
X553250Y153654D01*
X553663Y152657D01*
X554320Y151800D01*
X555176Y151143D01*
X556174Y150730D01*
X557244Y150589D01*
X558314Y150730D01*
X559312Y151143D01*
X560168Y151800D01*
X560825Y152657D01*
X561239Y153654D01*
X561379Y154724D01*
X561239Y155795D01*
X560825Y156792D01*
X560168Y157649D01*
X559312Y158306D01*
X558314Y158719D01*
X557244Y158860D01*
D02*
G37*
G36*
X547244D02*
X546174Y158719D01*
X545176Y158306D01*
X544320Y157649D01*
X543663Y156792D01*
X543250Y155795D01*
X543109Y154724D01*
X543250Y153654D01*
X543663Y152657D01*
X544320Y151800D01*
X545176Y151143D01*
X546174Y150730D01*
X547244Y150589D01*
X548314Y150730D01*
X549312Y151143D01*
X550168Y151800D01*
X550825Y152657D01*
X551239Y153654D01*
X551379Y154724D01*
X551239Y155795D01*
X550825Y156792D01*
X550168Y157649D01*
X549312Y158306D01*
X548314Y158719D01*
X547244Y158860D01*
D02*
G37*
G36*
X415354Y161284D02*
X414652Y161144D01*
X414057Y160747D01*
X413659Y160151D01*
X413519Y159449D01*
X413659Y158747D01*
X414057Y158151D01*
X414652Y157753D01*
X415354Y157614D01*
X416057Y157753D01*
X416652Y158151D01*
X416702Y158225D01*
X502249D01*
X508025Y152450D01*
X508007Y152362D01*
X508147Y151660D01*
X508545Y151065D01*
X509140Y150667D01*
X509842Y150527D01*
X510545Y150667D01*
X511140Y151065D01*
X511538Y151660D01*
X511678Y152362D01*
X511538Y153065D01*
X511140Y153660D01*
X510545Y154058D01*
X509842Y154198D01*
X509755Y154180D01*
X503621Y160314D01*
X503224Y160579D01*
X502756Y160672D01*
X416702D01*
X416652Y160747D01*
X416057Y161144D01*
X415354Y161284D01*
D02*
G37*
G36*
X105217Y149572D02*
X104514Y149432D01*
X103919Y149034D01*
X103521Y148439D01*
X103381Y147736D01*
X103521Y147034D01*
X103919Y146439D01*
X104514Y146041D01*
X105217Y145901D01*
X105919Y146041D01*
X106514Y146439D01*
X106912Y147034D01*
X107052Y147736D01*
X106912Y148439D01*
X106514Y149034D01*
X105919Y149432D01*
X105217Y149572D01*
D02*
G37*
G36*
X424409Y156166D02*
X423707Y156026D01*
X423112Y155628D01*
X422714Y155033D01*
X422574Y154331D01*
X422714Y153628D01*
X423112Y153033D01*
X423707Y152635D01*
X424409Y152496D01*
X425112Y152635D01*
X425707Y153033D01*
X425757Y153107D01*
X501462D01*
X508025Y146544D01*
X508007Y146457D01*
X508147Y145754D01*
X508545Y145159D01*
X509140Y144761D01*
X509842Y144621D01*
X510545Y144761D01*
X511140Y145159D01*
X511538Y145754D01*
X511678Y146457D01*
X511538Y147159D01*
X511140Y147754D01*
X510545Y148152D01*
X509842Y148292D01*
X509755Y148275D01*
X502834Y155196D01*
X502437Y155461D01*
X501968Y155554D01*
X425757D01*
X425707Y155628D01*
X425112Y156026D01*
X424409Y156166D01*
D02*
G37*
G36*
X127264Y149473D02*
X126561Y149333D01*
X125966Y148935D01*
X125568Y148340D01*
X125428Y147638D01*
X125568Y146935D01*
X125966Y146340D01*
X126561Y145942D01*
X127264Y145802D01*
X127830Y145915D01*
X128278Y145624D01*
X128536Y145361D01*
X128480Y145079D01*
X128619Y144376D01*
X129017Y143781D01*
X129613Y143383D01*
X130315Y143244D01*
X131017Y143383D01*
X131613Y143781D01*
X132010Y144376D01*
X132150Y145079D01*
X132010Y145781D01*
X131613Y146377D01*
X131017Y146774D01*
X130315Y146914D01*
X129748Y146801D01*
X129301Y147092D01*
X129043Y147356D01*
X129099Y147638D01*
X128959Y148340D01*
X128561Y148935D01*
X127966Y149333D01*
X127264Y149473D01*
D02*
G37*
G36*
X367323Y148679D02*
X366620Y148540D01*
X366025Y148142D01*
X365627Y147546D01*
X365488Y146844D01*
X365627Y146142D01*
X364963Y145696D01*
X364665Y145498D01*
X364267Y144902D01*
X364127Y144200D01*
X364267Y143498D01*
X364665Y142902D01*
X365260Y142504D01*
X365963Y142365D01*
X366665Y142504D01*
X367261Y142902D01*
X367658Y143498D01*
X367798Y144200D01*
X367658Y144902D01*
X368323Y145347D01*
X368621Y145546D01*
X369018Y146142D01*
X369158Y146844D01*
X369018Y147546D01*
X368621Y148142D01*
X368025Y148540D01*
X367323Y148679D01*
D02*
G37*
G36*
X136614Y144749D02*
X135912Y144609D01*
X135317Y144211D01*
X134919Y143616D01*
X134779Y142913D01*
X134919Y142211D01*
X135317Y141616D01*
X135912Y141218D01*
X136614Y141078D01*
X137317Y141218D01*
X137912Y141616D01*
X138310Y142211D01*
X138449Y142913D01*
X138310Y143616D01*
X137912Y144211D01*
X137317Y144609D01*
X136614Y144749D01*
D02*
G37*
G36*
X557244Y148860D02*
X556174Y148719D01*
X555176Y148306D01*
X554320Y147649D01*
X553663Y146792D01*
X553250Y145795D01*
X553109Y144724D01*
X553250Y143654D01*
X553663Y142657D01*
X554320Y141800D01*
X555176Y141143D01*
X556174Y140730D01*
X557244Y140589D01*
X558314Y140730D01*
X559312Y141143D01*
X560168Y141800D01*
X560825Y142657D01*
X561239Y143654D01*
X561379Y144724D01*
X561239Y145795D01*
X560825Y146792D01*
X560168Y147649D01*
X559312Y148306D01*
X558314Y148719D01*
X557244Y148860D01*
D02*
G37*
G36*
X547244D02*
X546174Y148719D01*
X545176Y148306D01*
X544320Y147649D01*
X543663Y146792D01*
X543250Y145795D01*
X543109Y144724D01*
X543250Y143654D01*
X543663Y142657D01*
X544320Y141800D01*
X545176Y141143D01*
X546174Y140730D01*
X547244Y140589D01*
X548314Y140730D01*
X549312Y141143D01*
X550168Y141800D01*
X550825Y142657D01*
X551239Y143654D01*
X551379Y144724D01*
X551239Y145795D01*
X550825Y146792D01*
X550168Y147649D01*
X549312Y148306D01*
X548314Y148719D01*
X547244Y148860D01*
D02*
G37*
G36*
X265650Y144256D02*
X264947Y144117D01*
X264352Y143719D01*
X263954Y143124D01*
X263814Y142421D01*
X263954Y141719D01*
X264352Y141123D01*
X264947Y140726D01*
X265650Y140586D01*
X266352Y140726D01*
X266947Y141123D01*
X267345Y141719D01*
X267485Y142421D01*
X267345Y143124D01*
X266947Y143719D01*
X266352Y144117D01*
X265650Y144256D01*
D02*
G37*
G36*
X118307Y143961D02*
X117605Y143822D01*
X117009Y143424D01*
X116612Y142828D01*
X116472Y142126D01*
X116612Y141424D01*
X117009Y140828D01*
X117605Y140430D01*
X118307Y140291D01*
X119009Y140430D01*
X119605Y140828D01*
X120003Y141424D01*
X120142Y142126D01*
X120003Y142828D01*
X119605Y143424D01*
X119009Y143822D01*
X118307Y143961D01*
D02*
G37*
G36*
X509842Y142386D02*
X509140Y142247D01*
X508545Y141849D01*
X508147Y141253D01*
X508007Y140551D01*
X508147Y139849D01*
X508545Y139253D01*
X509140Y138856D01*
X509842Y138716D01*
X510545Y138856D01*
X511140Y139253D01*
X511538Y139849D01*
X511678Y140551D01*
X511538Y141253D01*
X511140Y141849D01*
X510545Y142247D01*
X509842Y142386D01*
D02*
G37*
G36*
X391535Y139335D02*
X390833Y139196D01*
X390238Y138798D01*
X389840Y138202D01*
X389700Y137500D01*
X389840Y136798D01*
X390238Y136202D01*
X390833Y135804D01*
X391535Y135665D01*
X392238Y135804D01*
X392833Y136202D01*
X393231Y136798D01*
X393371Y137500D01*
X393231Y138202D01*
X392833Y138798D01*
X392238Y139196D01*
X391535Y139335D01*
D02*
G37*
G36*
X509842Y136481D02*
X509140Y136341D01*
X508545Y135943D01*
X508147Y135348D01*
X508007Y134646D01*
X508147Y133943D01*
X508545Y133348D01*
X509140Y132950D01*
X509842Y132810D01*
X510545Y132950D01*
X511140Y133348D01*
X511538Y133943D01*
X511678Y134646D01*
X511538Y135348D01*
X511140Y135943D01*
X510545Y136341D01*
X509842Y136481D01*
D02*
G37*
G36*
X283268Y137957D02*
X282565Y137818D01*
X281970Y137420D01*
X281572Y136824D01*
X281433Y136122D01*
X281572Y135420D01*
X281970Y134824D01*
X282565Y134426D01*
X283268Y134287D01*
X283970Y134426D01*
X284565Y134824D01*
X284628Y134833D01*
X285455Y134715D01*
X285710Y134332D01*
X286306Y133934D01*
X287008Y133795D01*
X287710Y133934D01*
X288164Y134238D01*
X288355Y134320D01*
X289129Y134125D01*
X289253Y133939D01*
X289849Y133541D01*
X290551Y133401D01*
X291253Y133541D01*
X291789Y133898D01*
X292001Y133910D01*
X292705Y133780D01*
X292994Y133348D01*
X293589Y132950D01*
X294291Y132810D01*
X294994Y132950D01*
X295589Y133348D01*
X295987Y133943D01*
X296127Y134646D01*
X295987Y135348D01*
X295589Y135943D01*
X294994Y136341D01*
X294291Y136481D01*
X293589Y136341D01*
X293054Y135983D01*
X292841Y135972D01*
X292138Y136102D01*
X291849Y136534D01*
X291253Y136932D01*
X290551Y137072D01*
X289849Y136932D01*
X289395Y136628D01*
X289204Y136547D01*
X288430Y136741D01*
X288306Y136928D01*
X287710Y137326D01*
X287008Y137465D01*
X286306Y137326D01*
X285710Y136928D01*
X285648Y136919D01*
X284821Y137037D01*
X284565Y137420D01*
X283970Y137818D01*
X283268Y137957D01*
D02*
G37*
G36*
X364665Y135694D02*
X363963Y135554D01*
X363368Y135156D01*
X362970Y134561D01*
X362830Y133858D01*
X362970Y133156D01*
X363368Y132561D01*
X363963Y132163D01*
X364665Y132023D01*
X365368Y132163D01*
X365963Y132561D01*
X366361Y133156D01*
X366501Y133858D01*
X366361Y134561D01*
X365963Y135156D01*
X365368Y135554D01*
X364665Y135694D01*
D02*
G37*
G36*
X381398Y134808D02*
X380695Y134668D01*
X380100Y134270D01*
X379702Y133675D01*
X379562Y132972D01*
X379702Y132270D01*
X380100Y131675D01*
X380695Y131277D01*
X381398Y131137D01*
X382100Y131277D01*
X382695Y131675D01*
X383093Y132270D01*
X383233Y132972D01*
X383093Y133675D01*
X382695Y134270D01*
X382100Y134668D01*
X381398Y134808D01*
D02*
G37*
G36*
X557244Y138860D02*
X556174Y138719D01*
X555176Y138306D01*
X554320Y137649D01*
X553663Y136792D01*
X553250Y135795D01*
X553109Y134724D01*
X553250Y133654D01*
X553663Y132657D01*
X554320Y131800D01*
X555176Y131143D01*
X556174Y130730D01*
X557244Y130589D01*
X558314Y130730D01*
X559312Y131143D01*
X560168Y131800D01*
X560825Y132657D01*
X561239Y133654D01*
X561379Y134724D01*
X561239Y135795D01*
X560825Y136792D01*
X560168Y137649D01*
X559312Y138306D01*
X558314Y138719D01*
X557244Y138860D01*
D02*
G37*
G36*
X547244D02*
X546174Y138719D01*
X545176Y138306D01*
X544320Y137649D01*
X543663Y136792D01*
X543250Y135795D01*
X543109Y134724D01*
X543250Y133654D01*
X543663Y132657D01*
X544320Y131800D01*
X545176Y131143D01*
X546174Y130730D01*
X547244Y130589D01*
X548314Y130730D01*
X549312Y131143D01*
X550168Y131800D01*
X550825Y132657D01*
X551239Y133654D01*
X551379Y134724D01*
X551239Y135795D01*
X550825Y136792D01*
X550168Y137649D01*
X549312Y138306D01*
X548314Y138719D01*
X547244Y138860D01*
D02*
G37*
G36*
X413386Y132741D02*
X412683Y132601D01*
X412088Y132203D01*
X411690Y131608D01*
X411551Y130905D01*
X411690Y130203D01*
X412088Y129608D01*
X412683Y129210D01*
X413386Y129070D01*
X414088Y129210D01*
X414684Y129608D01*
X415081Y130203D01*
X415221Y130905D01*
X415081Y131608D01*
X414684Y132203D01*
X414088Y132601D01*
X413386Y132741D01*
D02*
G37*
G36*
X509842Y130575D02*
X509140Y130436D01*
X508545Y130038D01*
X508147Y129443D01*
X508007Y128740D01*
X508147Y128038D01*
X508545Y127442D01*
X509140Y127045D01*
X509842Y126905D01*
X510545Y127045D01*
X511140Y127442D01*
X511538Y128038D01*
X511678Y128740D01*
X511538Y129443D01*
X511140Y130038D01*
X510545Y130436D01*
X509842Y130575D01*
D02*
G37*
G36*
X243799Y130182D02*
X243097Y130042D01*
X242501Y129644D01*
X242104Y129049D01*
X241964Y128347D01*
X242104Y127644D01*
X242501Y127049D01*
X243097Y126651D01*
X243799Y126511D01*
X244501Y126651D01*
X245097Y127049D01*
X245495Y127644D01*
X245635Y128347D01*
X245495Y129049D01*
X245097Y129644D01*
X244501Y130042D01*
X243799Y130182D01*
D02*
G37*
G36*
X228740D02*
X228038Y130042D01*
X227442Y129644D01*
X227045Y129049D01*
X226905Y128347D01*
X227045Y127644D01*
X227442Y127049D01*
X228038Y126651D01*
X228740Y126511D01*
X229443Y126651D01*
X230038Y127049D01*
X230436Y127644D01*
X230575Y128347D01*
X230436Y129049D01*
X230038Y129644D01*
X229443Y130042D01*
X228740Y130182D01*
D02*
G37*
G36*
X250787Y129394D02*
X250085Y129255D01*
X249490Y128857D01*
X249092Y128261D01*
X248952Y127559D01*
X249092Y126857D01*
X249490Y126261D01*
X250085Y125864D01*
X250787Y125724D01*
X251490Y125864D01*
X252085Y126261D01*
X252483Y126857D01*
X252623Y127559D01*
X252483Y128261D01*
X252085Y128857D01*
X251490Y129255D01*
X250787Y129394D01*
D02*
G37*
G36*
X352478Y131677D02*
X351776Y131537D01*
X351180Y131139D01*
X350782Y130544D01*
X350643Y129842D01*
X350782Y129139D01*
X350859Y129025D01*
X351163Y128266D01*
X350765Y127671D01*
X350625Y126969D01*
X350765Y126266D01*
X351163Y125671D01*
X351758Y125273D01*
X352461Y125133D01*
X353163Y125273D01*
X353758Y125671D01*
X354156Y126266D01*
X354296Y126969D01*
X354156Y127671D01*
X354080Y127785D01*
X353776Y128544D01*
X354173Y129139D01*
X354313Y129842D01*
X354173Y130544D01*
X353776Y131139D01*
X353180Y131537D01*
X352478Y131677D01*
D02*
G37*
G36*
X308366Y125260D02*
X307664Y125121D01*
X307068Y124723D01*
X306671Y124127D01*
X306531Y123425D01*
X306671Y122723D01*
X307068Y122127D01*
X307664Y121730D01*
X308366Y121590D01*
X309068Y121730D01*
X309664Y122127D01*
X310062Y122723D01*
X310201Y123425D01*
X310062Y124127D01*
X309664Y124723D01*
X309068Y125121D01*
X308366Y125260D01*
D02*
G37*
G36*
X366535Y125162D02*
X365833Y125022D01*
X365238Y124625D01*
X364840Y124029D01*
X364700Y123327D01*
X364840Y122625D01*
X365238Y122029D01*
X365833Y121631D01*
X366535Y121492D01*
X367238Y121631D01*
X367833Y122029D01*
X368231Y122625D01*
X368371Y123327D01*
X368231Y124029D01*
X367833Y124625D01*
X367238Y125022D01*
X366535Y125162D01*
D02*
G37*
G36*
X266043Y124867D02*
X265341Y124727D01*
X264746Y124329D01*
X264348Y123734D01*
X264208Y123031D01*
X264348Y122329D01*
X264746Y121734D01*
X265341Y121336D01*
X266043Y121196D01*
X266746Y121336D01*
X267341Y121734D01*
X267739Y122329D01*
X267879Y123031D01*
X267739Y123734D01*
X267341Y124329D01*
X266746Y124727D01*
X266043Y124867D01*
D02*
G37*
G36*
X509842Y124670D02*
X509140Y124530D01*
X508545Y124132D01*
X508147Y123537D01*
X508007Y122835D01*
X508147Y122132D01*
X508545Y121537D01*
X509140Y121139D01*
X509842Y120999D01*
X510545Y121139D01*
X511140Y121537D01*
X511538Y122132D01*
X511678Y122835D01*
X511538Y123537D01*
X511140Y124132D01*
X510545Y124530D01*
X509842Y124670D01*
D02*
G37*
G36*
X557244Y128860D02*
X556174Y128719D01*
X555176Y128306D01*
X554320Y127649D01*
X553663Y126792D01*
X553250Y125795D01*
X553109Y124724D01*
X553250Y123654D01*
X553663Y122657D01*
X554320Y121800D01*
X555176Y121143D01*
X556174Y120730D01*
X557244Y120589D01*
X558314Y120730D01*
X559312Y121143D01*
X560168Y121800D01*
X560825Y122657D01*
X561239Y123654D01*
X561379Y124724D01*
X561239Y125795D01*
X560825Y126792D01*
X560168Y127649D01*
X559312Y128306D01*
X558314Y128719D01*
X557244Y128860D01*
D02*
G37*
G36*
X547244D02*
X546174Y128719D01*
X545176Y128306D01*
X544320Y127649D01*
X543663Y126792D01*
X543250Y125795D01*
X543109Y124724D01*
X543250Y123654D01*
X543663Y122657D01*
X544320Y121800D01*
X545176Y121143D01*
X546174Y120730D01*
X547244Y120589D01*
X548314Y120730D01*
X549312Y121143D01*
X550168Y121800D01*
X550825Y122657D01*
X551239Y123654D01*
X551379Y124724D01*
X551239Y125795D01*
X550825Y126792D01*
X550168Y127649D01*
X549312Y128306D01*
X548314Y128719D01*
X547244Y128860D01*
D02*
G37*
G36*
X165748Y123194D02*
X165046Y123054D01*
X164450Y122656D01*
X164052Y122061D01*
X163913Y121358D01*
X164052Y120656D01*
X164450Y120061D01*
X165046Y119663D01*
X165748Y119523D01*
X166450Y119663D01*
X167046Y120061D01*
X167444Y120656D01*
X167583Y121358D01*
X167444Y122061D01*
X167046Y122656D01*
X166450Y123054D01*
X165748Y123194D01*
D02*
G37*
G36*
X367126Y120044D02*
X366424Y119904D01*
X365828Y119506D01*
X365786Y119443D01*
X364824D01*
X364782Y119506D01*
X364187Y119904D01*
X363484Y120044D01*
X362782Y119904D01*
X362187Y119506D01*
X361789Y118911D01*
X361649Y118209D01*
X361789Y117506D01*
X362187Y116911D01*
X362782Y116513D01*
X363484Y116373D01*
X364187Y116513D01*
X364782Y116911D01*
X364824Y116974D01*
X365786D01*
X365828Y116911D01*
X366424Y116513D01*
X367126Y116373D01*
X367828Y116513D01*
X368424Y116911D01*
X368822Y117506D01*
X368961Y118209D01*
X368822Y118911D01*
X368424Y119506D01*
X367828Y119904D01*
X367126Y120044D01*
D02*
G37*
G36*
X371850Y122898D02*
X371148Y122758D01*
X370553Y122361D01*
X370155Y121765D01*
X370015Y121063D01*
X370155Y120361D01*
X370553Y119765D01*
X371148Y119367D01*
X371850Y119228D01*
X372553Y119367D01*
X373148Y119765D01*
X373546Y120361D01*
X373686Y121063D01*
X373546Y121765D01*
X373148Y122361D01*
X372553Y122758D01*
X371850Y122898D01*
D02*
G37*
G36*
X314665Y122603D02*
X313963Y122463D01*
X313368Y122065D01*
X312970Y121470D01*
X312830Y120768D01*
X312970Y120065D01*
X313368Y119470D01*
X313963Y119072D01*
X314665Y118932D01*
X315368Y119072D01*
X315963Y119470D01*
X316361Y120065D01*
X316501Y120768D01*
X316361Y121470D01*
X315963Y122065D01*
X315368Y122463D01*
X314665Y122603D01*
D02*
G37*
G36*
X320374Y120634D02*
X319672Y120495D01*
X319076Y120097D01*
X318678Y119501D01*
X318539Y118799D01*
X318678Y118097D01*
X319076Y117501D01*
X319672Y117104D01*
X320374Y116964D01*
X321076Y117104D01*
X321672Y117501D01*
X322070Y118097D01*
X322209Y118799D01*
X322070Y119501D01*
X321672Y120097D01*
X321076Y120495D01*
X320374Y120634D01*
D02*
G37*
G36*
X348228Y122800D02*
X347526Y122660D01*
X346931Y122262D01*
X346533Y121667D01*
X346393Y120965D01*
X346533Y120262D01*
X346931Y119667D01*
X346719Y118846D01*
X346631Y118714D01*
X346492Y118012D01*
X346631Y117309D01*
X347029Y116714D01*
X347624Y116316D01*
X348327Y116176D01*
X349029Y116316D01*
X349624Y116714D01*
X349703Y116832D01*
X349873Y116872D01*
X350628Y116777D01*
X350868Y116419D01*
X351463Y116021D01*
X352165Y115881D01*
X352868Y116021D01*
X353463Y116419D01*
X353861Y117014D01*
X354001Y117717D01*
X353861Y118419D01*
X353463Y119014D01*
X352868Y119412D01*
X352165Y119552D01*
X351463Y119412D01*
X350868Y119014D01*
X350084Y119140D01*
X349720Y119678D01*
X349836Y120131D01*
X349924Y120262D01*
X350064Y120965D01*
X349924Y121667D01*
X349526Y122262D01*
X348931Y122660D01*
X348228Y122800D01*
D02*
G37*
G36*
X509842Y118764D02*
X509140Y118625D01*
X508545Y118227D01*
X508147Y117631D01*
X508007Y116929D01*
X508147Y116227D01*
X508545Y115631D01*
X509140Y115234D01*
X509842Y115094D01*
X510545Y115234D01*
X511140Y115631D01*
X511538Y116227D01*
X511678Y116929D01*
X511538Y117631D01*
X511140Y118227D01*
X510545Y118625D01*
X509842Y118764D01*
D02*
G37*
G36*
X327067Y117879D02*
X326365Y117739D01*
X325769Y117341D01*
X325371Y116746D01*
X325232Y116043D01*
X325371Y115341D01*
X325769Y114746D01*
X326365Y114348D01*
X327067Y114208D01*
X327769Y114348D01*
X328365Y114746D01*
X328763Y115341D01*
X328902Y116043D01*
X328763Y116746D01*
X328365Y117341D01*
X327769Y117739D01*
X327067Y117879D01*
D02*
G37*
G36*
X101772Y117288D02*
X101069Y117148D01*
X100474Y116751D01*
X100076Y116155D01*
X99936Y115453D01*
X100076Y114750D01*
X100474Y114155D01*
X101069Y113757D01*
X101772Y113618D01*
X102474Y113757D01*
X103069Y114155D01*
X103467Y114750D01*
X103607Y115453D01*
X103467Y116155D01*
X103069Y116751D01*
X102474Y117148D01*
X101772Y117288D01*
D02*
G37*
G36*
X194291Y116008D02*
X193589Y115869D01*
X192994Y115471D01*
X192596Y114875D01*
X192456Y114173D01*
X192596Y113471D01*
X192994Y112875D01*
X193589Y112478D01*
X194291Y112338D01*
X194994Y112478D01*
X195589Y112875D01*
X195987Y113471D01*
X196127Y114173D01*
X195987Y114875D01*
X195589Y115471D01*
X194994Y115869D01*
X194291Y116008D01*
D02*
G37*
G36*
X266141Y114827D02*
X265439Y114687D01*
X264844Y114289D01*
X264446Y113694D01*
X264306Y112991D01*
X264446Y112289D01*
X264844Y111694D01*
X265439Y111296D01*
X266141Y111156D01*
X266844Y111296D01*
X267439Y111694D01*
X267837Y112289D01*
X267976Y112991D01*
X267837Y113694D01*
X267439Y114289D01*
X266844Y114687D01*
X266141Y114827D01*
D02*
G37*
G36*
X112795Y114434D02*
X112093Y114294D01*
X111498Y113896D01*
X111100Y113301D01*
X110960Y112598D01*
X111100Y111896D01*
X111498Y111301D01*
X112093Y110903D01*
X112795Y110763D01*
X113498Y110903D01*
X114093Y111301D01*
X114491Y111896D01*
X114630Y112598D01*
X114491Y113301D01*
X114093Y113896D01*
X113498Y114294D01*
X112795Y114434D01*
D02*
G37*
G36*
X557244Y118860D02*
X556174Y118719D01*
X555176Y118306D01*
X554320Y117649D01*
X553663Y116792D01*
X553250Y115795D01*
X553109Y114724D01*
X553250Y113654D01*
X553663Y112657D01*
X554320Y111800D01*
X555176Y111143D01*
X556174Y110730D01*
X557244Y110589D01*
X558314Y110730D01*
X559312Y111143D01*
X560168Y111800D01*
X560825Y112657D01*
X561239Y113654D01*
X561379Y114724D01*
X561239Y115795D01*
X560825Y116792D01*
X560168Y117649D01*
X559312Y118306D01*
X558314Y118719D01*
X557244Y118860D01*
D02*
G37*
G36*
X547244D02*
X546174Y118719D01*
X545176Y118306D01*
X544320Y117649D01*
X543663Y116792D01*
X543250Y115795D01*
X543109Y114724D01*
X543250Y113654D01*
X543663Y112657D01*
X544320Y111800D01*
X545176Y111143D01*
X546174Y110730D01*
X547244Y110589D01*
X548314Y110730D01*
X549312Y111143D01*
X550168Y111800D01*
X550825Y112657D01*
X551239Y113654D01*
X551379Y114724D01*
X551239Y115795D01*
X550825Y116792D01*
X550168Y117649D01*
X549312Y118306D01*
X548314Y118719D01*
X547244Y118860D01*
D02*
G37*
G36*
X509842Y112859D02*
X509140Y112719D01*
X508545Y112321D01*
X508147Y111726D01*
X508007Y111024D01*
X508147Y110321D01*
X508545Y109726D01*
X509140Y109328D01*
X509842Y109188D01*
X510545Y109328D01*
X511140Y109726D01*
X511538Y110321D01*
X511678Y111024D01*
X511538Y111726D01*
X511140Y112321D01*
X510545Y112719D01*
X509842Y112859D01*
D02*
G37*
G36*
X373721Y113351D02*
X373018Y113211D01*
X372423Y112813D01*
X372025Y112218D01*
X371909Y111636D01*
X371555Y110890D01*
X370853Y110751D01*
X370257Y110353D01*
X369860Y109757D01*
X369720Y109055D01*
X369761Y108849D01*
X369623Y108650D01*
X369067Y108239D01*
X368602Y108331D01*
X367900Y108192D01*
X367305Y107794D01*
X366907Y107198D01*
X366767Y106496D01*
X366907Y105794D01*
X367305Y105198D01*
X367900Y104800D01*
X368602Y104661D01*
X369305Y104800D01*
X369900Y105198D01*
X370298Y105794D01*
X370438Y106496D01*
X370397Y106702D01*
X370535Y106901D01*
X371091Y107312D01*
X371555Y107220D01*
X372257Y107360D01*
X372853Y107757D01*
X373251Y108353D01*
X373366Y108935D01*
X373721Y109680D01*
X374423Y109820D01*
X375018Y110218D01*
X375416Y110813D01*
X375556Y111516D01*
X375416Y112218D01*
X375018Y112813D01*
X374423Y113211D01*
X373721Y113351D01*
D02*
G37*
G36*
X578740Y126387D02*
X576916Y126243D01*
X575136Y125816D01*
X573445Y125116D01*
X571885Y124160D01*
X570493Y122971D01*
X569305Y121580D01*
X568349Y120019D01*
X567648Y118328D01*
X567221Y116549D01*
X567077Y114724D01*
X567221Y112900D01*
X567648Y111120D01*
X568349Y109430D01*
X569305Y107869D01*
X570493Y106478D01*
X571885Y105289D01*
X573445Y104333D01*
X575136Y103632D01*
X576916Y103205D01*
X578740Y103062D01*
X580565Y103205D01*
X582344Y103632D01*
X584035Y104333D01*
X585595Y105289D01*
X586987Y106478D01*
X588175Y107869D01*
X589132Y109430D01*
X589832Y111120D01*
X590259Y112900D01*
X590403Y114724D01*
X590259Y116549D01*
X589832Y118328D01*
X589132Y120019D01*
X588175Y121580D01*
X586987Y122971D01*
X585595Y124160D01*
X584035Y125116D01*
X582344Y125816D01*
X580565Y126243D01*
X578740Y126387D01*
D02*
G37*
G36*
X133563Y104591D02*
X132861Y104452D01*
X132265Y104054D01*
X131867Y103458D01*
X131846Y103351D01*
X131116Y102877D01*
X131003Y102899D01*
X130413Y103016D01*
X129711Y102877D01*
X129116Y102479D01*
X128627D01*
X128561Y102577D01*
X127966Y102975D01*
X127264Y103115D01*
X126561Y102975D01*
X125966Y102577D01*
X125568Y101982D01*
X125428Y101279D01*
X125568Y100577D01*
X125966Y99982D01*
X126561Y99584D01*
X127264Y99444D01*
X127966Y99584D01*
X128561Y99982D01*
X129050D01*
X129116Y99883D01*
X129711Y99485D01*
X130413Y99346D01*
X131116Y99485D01*
X131711Y99883D01*
X132109Y100479D01*
X132130Y100586D01*
X132861Y101060D01*
X132974Y101038D01*
X133563Y100921D01*
X134265Y101060D01*
X135013Y100598D01*
X135017Y100577D01*
X135415Y99982D01*
X136010Y99584D01*
X136713Y99444D01*
X137415Y99584D01*
X137728Y99793D01*
X138287Y99919D01*
X138847Y99793D01*
X139160Y99584D01*
X139862Y99444D01*
X140565Y99584D01*
X141160Y99982D01*
X141558Y100577D01*
X141698Y101279D01*
X141558Y101982D01*
X141160Y102577D01*
X140565Y102975D01*
X139862Y103115D01*
X139160Y102975D01*
X138847Y102766D01*
X138287Y102640D01*
X137728Y102766D01*
X137415Y102975D01*
X136713Y103115D01*
X136010Y102975D01*
X135263Y103438D01*
X135258Y103458D01*
X134861Y104054D01*
X134265Y104452D01*
X133563Y104591D01*
D02*
G37*
G36*
X158661Y104394D02*
X157959Y104255D01*
X157364Y103857D01*
X157031Y103359D01*
X156658Y103080D01*
X156313Y102877D01*
X156142Y102910D01*
X155610Y103016D01*
X154908Y102877D01*
X154156Y103261D01*
X153758Y103857D01*
X153163Y104255D01*
X152461Y104394D01*
X151758Y104255D01*
X151163Y103857D01*
X150765Y103261D01*
X149901Y103017D01*
X149409Y103115D01*
X148707Y102975D01*
X148326Y102720D01*
X147785Y102631D01*
X147245Y102720D01*
X146864Y102975D01*
X146161Y103115D01*
X145459Y102975D01*
X144864Y102577D01*
X144466Y101982D01*
X144326Y101279D01*
X144466Y100577D01*
X144864Y99982D01*
X145459Y99584D01*
X146161Y99444D01*
X146864Y99584D01*
X147245Y99839D01*
X147785Y99928D01*
X148326Y99839D01*
X148707Y99584D01*
X149409Y99444D01*
X150112Y99584D01*
X150707Y99982D01*
X151105Y100577D01*
X151969Y100821D01*
X152461Y100724D01*
X153163Y100864D01*
X153915Y100479D01*
X154313Y99883D01*
X154908Y99485D01*
X155610Y99346D01*
X156313Y99485D01*
X156908Y99883D01*
X157241Y100381D01*
X157613Y100660D01*
X157959Y100864D01*
X158129Y100830D01*
X158661Y100724D01*
X159364Y100864D01*
X159959Y101261D01*
X160357Y101857D01*
X160497Y102559D01*
X160357Y103261D01*
X159959Y103857D01*
X159364Y104255D01*
X158661Y104394D01*
D02*
G37*
G36*
X248223Y105772D02*
X247521Y105633D01*
X246925Y105235D01*
X246528Y104639D01*
X246388Y103937D01*
X246528Y103235D01*
X246925Y102639D01*
X247521Y102241D01*
X248223Y102102D01*
X248925Y102241D01*
X249521Y102639D01*
X249919Y103235D01*
X250059Y103937D01*
X249919Y104639D01*
X249521Y105235D01*
X248925Y105633D01*
X248223Y105772D01*
D02*
G37*
G36*
X76870Y103705D02*
X76168Y103566D01*
X75572Y103168D01*
X75174Y102572D01*
X75035Y101870D01*
X75174Y101168D01*
X75572Y100572D01*
X76168Y100174D01*
X76870Y100035D01*
X77572Y100174D01*
X78168Y100572D01*
X78566Y101168D01*
X78705Y101870D01*
X78566Y102572D01*
X78168Y103168D01*
X77572Y103566D01*
X76870Y103705D01*
D02*
G37*
G36*
X86024Y103410D02*
X85321Y103270D01*
X84726Y102873D01*
X84328Y102277D01*
X84188Y101575D01*
X84328Y100873D01*
X84726Y100277D01*
X85321Y99879D01*
X86024Y99739D01*
X86726Y99879D01*
X87321Y100277D01*
X87719Y100873D01*
X87859Y101575D01*
X87719Y102277D01*
X87321Y102873D01*
X86726Y103270D01*
X86024Y103410D01*
D02*
G37*
G36*
X117815Y104591D02*
X117113Y104452D01*
X116517Y104054D01*
X116119Y103458D01*
X115980Y102756D01*
X116119Y102054D01*
X116517Y101458D01*
X117113Y101060D01*
X117815Y100921D01*
X118517Y101060D01*
X119265Y100598D01*
X119269Y100577D01*
X119667Y99982D01*
X120262Y99584D01*
X120965Y99444D01*
X121667Y99584D01*
X122262Y99982D01*
X122660Y100577D01*
X122800Y101279D01*
X122660Y101982D01*
X122262Y102577D01*
X121667Y102975D01*
X120965Y103115D01*
X120262Y102975D01*
X119515Y103438D01*
X119510Y103458D01*
X119113Y104054D01*
X118517Y104452D01*
X117815Y104591D01*
D02*
G37*
G36*
X102362Y102918D02*
X101660Y102778D01*
X101065Y102380D01*
X100667Y101785D01*
X100527Y101083D01*
X100667Y100380D01*
X101065Y99785D01*
X101660Y99387D01*
X102362Y99247D01*
X103065Y99387D01*
X103660Y99785D01*
X104058Y100380D01*
X104198Y101083D01*
X104058Y101785D01*
X103660Y102380D01*
X103065Y102778D01*
X102362Y102918D01*
D02*
G37*
G36*
X92618Y103213D02*
X91916Y103074D01*
X91320Y102676D01*
X90923Y102080D01*
X90783Y101378D01*
X90923Y100676D01*
X91320Y100080D01*
X91916Y99682D01*
X92618Y99543D01*
X93206Y99660D01*
X93691Y99361D01*
X93947Y99139D01*
X94072Y98510D01*
X94470Y97915D01*
X95065Y97517D01*
X95768Y97377D01*
X96470Y97517D01*
X97065Y97915D01*
X97463Y98510D01*
X97603Y99213D01*
X97463Y99915D01*
X97065Y100510D01*
X96470Y100908D01*
X95768Y101048D01*
X95180Y100931D01*
X94695Y101229D01*
X94439Y101452D01*
X94314Y102080D01*
X93916Y102676D01*
X93320Y103074D01*
X92618Y103213D01*
D02*
G37*
G36*
X248031Y98686D02*
X247329Y98546D01*
X246734Y98148D01*
X246336Y97553D01*
X246196Y96850D01*
X246336Y96148D01*
X246734Y95553D01*
X247329Y95155D01*
X248031Y95015D01*
X248734Y95155D01*
X249329Y95553D01*
X249727Y96148D01*
X249867Y96850D01*
X249727Y97553D01*
X249329Y98148D01*
X248734Y98546D01*
X248031Y98686D01*
D02*
G37*
G36*
X339602Y117682D02*
X338899Y117542D01*
X338304Y117144D01*
X337906Y116549D01*
X337766Y115847D01*
X337767Y115842D01*
X337697Y115482D01*
X336995Y115342D01*
X336399Y114944D01*
X336001Y114349D01*
X335862Y113646D01*
X336001Y112944D01*
X336399Y112349D01*
X336995Y111951D01*
X337230Y111904D01*
X337733Y111556D01*
X337806Y111036D01*
X337748Y110746D01*
X337107Y110202D01*
X336896Y110160D01*
X336301Y109762D01*
X335903Y109167D01*
X335763Y108465D01*
X335786Y108348D01*
X335157Y107548D01*
X300851D01*
X300383Y107455D01*
X299986Y107190D01*
X294936Y102140D01*
X294488Y102229D01*
X293786Y102089D01*
X293191Y101691D01*
X292793Y101096D01*
X292653Y100394D01*
X292793Y99691D01*
X293191Y99096D01*
X293786Y98698D01*
X294488Y98558D01*
X295191Y98698D01*
X295786Y99096D01*
X296734D01*
X297329Y98698D01*
X298031Y98558D01*
X298557Y98663D01*
X299007Y98055D01*
X299029Y98003D01*
X291426Y90400D01*
X291339Y90418D01*
X290636Y90278D01*
X290041Y89880D01*
X289643Y89285D01*
X289581Y88972D01*
X288765D01*
X288703Y89284D01*
X288305Y89880D01*
X287710Y90277D01*
X287007Y90417D01*
X286305Y90277D01*
X285710Y89880D01*
X285312Y89284D01*
X285172Y88582D01*
X285312Y87880D01*
X285710Y87284D01*
X286305Y86886D01*
X287007Y86747D01*
X287095Y86764D01*
X288504Y85355D01*
X288901Y85090D01*
X289369Y84997D01*
X292717D01*
X293185Y85090D01*
X293582Y85355D01*
X305822Y97595D01*
X349438D01*
X350133Y97244D01*
X350273Y96542D01*
X350671Y95946D01*
X351266Y95548D01*
X351969Y95409D01*
X352671Y95548D01*
X353266Y95946D01*
X354213Y95946D01*
X354809Y95548D01*
X355511Y95409D01*
X356213Y95548D01*
X356809Y95946D01*
X357207Y96542D01*
X357346Y97244D01*
X357207Y97946D01*
X356809Y98542D01*
X356213Y98940D01*
X355511Y99079D01*
X355423Y99062D01*
X353036Y101450D01*
X352639Y101715D01*
X352170Y101808D01*
X303341D01*
X302872Y101715D01*
X302475Y101450D01*
X300755Y99730D01*
X299954Y100059D01*
X299951Y100583D01*
X302869Y103501D01*
X335724D01*
X336024Y103441D01*
X339172D01*
X339473Y103501D01*
X354218D01*
X364095Y93623D01*
X364492Y93358D01*
X364961Y93265D01*
X378574D01*
X378624Y93190D01*
X379219Y92793D01*
X379921Y92653D01*
X380624Y92793D01*
X381219Y93190D01*
X381617Y93786D01*
X381756Y94488D01*
X381617Y95191D01*
X381219Y95786D01*
X380624Y96184D01*
X380342Y96240D01*
X379899Y96433D01*
X379761Y97107D01*
X379788Y97244D01*
X379648Y97946D01*
X379251Y98542D01*
X378655Y98940D01*
X377953Y99079D01*
X377250Y98940D01*
X376655Y98542D01*
X376605Y98468D01*
X364974D01*
X356252Y107190D01*
X355855Y107455D01*
X355387Y107548D01*
X354672D01*
X354135Y108348D01*
X354198Y108661D01*
X354058Y109364D01*
X353660Y109959D01*
X353064Y110357D01*
X352362Y110497D01*
X351660Y110357D01*
X351064Y109959D01*
X350667Y109364D01*
X350527Y108661D01*
X350589Y108348D01*
X350052Y107548D01*
X340040D01*
X339556Y108163D01*
X339753Y108735D01*
X340075Y109009D01*
X340286Y109051D01*
X340881Y109449D01*
X341279Y110044D01*
X341419Y110746D01*
X341279Y111449D01*
X340881Y112044D01*
X340286Y112442D01*
X340050Y112489D01*
X339548Y112837D01*
X339475Y113357D01*
X339532Y113646D01*
X339531Y113651D01*
X339602Y114011D01*
X340304Y114151D01*
X340899Y114549D01*
X341297Y115144D01*
X341437Y115847D01*
X341297Y116549D01*
X340899Y117144D01*
X340304Y117542D01*
X339602Y117682D01*
D02*
G37*
G36*
X615748Y93568D02*
X615046Y93428D01*
X614450Y93030D01*
X614052Y92435D01*
X613913Y91732D01*
X614052Y91030D01*
X614450Y90435D01*
X615046Y90037D01*
X615748Y89897D01*
X616450Y90037D01*
X617046Y90435D01*
X617444Y91030D01*
X617583Y91732D01*
X617444Y92435D01*
X617046Y93030D01*
X616450Y93428D01*
X615748Y93568D01*
D02*
G37*
G36*
X79724Y92386D02*
X79022Y92247D01*
X78427Y91849D01*
X78029Y91254D01*
X77889Y90551D01*
X78029Y89849D01*
X78427Y89253D01*
X79022Y88856D01*
X79724Y88716D01*
X80427Y88856D01*
X81022Y89253D01*
X81420Y89849D01*
X81560Y90551D01*
X81420Y91254D01*
X81022Y91849D01*
X80427Y92247D01*
X79724Y92386D01*
D02*
G37*
G36*
X281496Y90418D02*
X280794Y90278D01*
X280198Y89880D01*
X279801Y89285D01*
X279661Y88583D01*
X279786Y87954D01*
X279594Y87635D01*
X279265Y87242D01*
X279134Y87268D01*
X278432Y87129D01*
X277836Y86731D01*
X277438Y86135D01*
X277299Y85433D01*
X277438Y84731D01*
X277836Y84135D01*
X278432Y83737D01*
X279134Y83598D01*
X279836Y83737D01*
X280432Y84135D01*
X280829Y84731D01*
X280969Y85433D01*
X280844Y86061D01*
X281035Y86381D01*
X281365Y86773D01*
X281496Y86747D01*
X282198Y86887D01*
X282794Y87285D01*
X283192Y87880D01*
X283331Y88583D01*
X283192Y89285D01*
X282794Y89880D01*
X282198Y90278D01*
X281496Y90418D01*
D02*
G37*
G36*
X327756Y90713D02*
X327054Y90574D01*
X326458Y90176D01*
X326060Y89580D01*
X325921Y88878D01*
X326060Y88176D01*
X326458Y87580D01*
X327054Y87182D01*
X327756Y87043D01*
X328458Y87182D01*
X329054Y87580D01*
X329451Y88176D01*
X329591Y88878D01*
X329451Y89580D01*
X329054Y90176D01*
X328458Y90574D01*
X327756Y90713D01*
D02*
G37*
G36*
X307283Y89631D02*
X306581Y89491D01*
X305986Y89093D01*
X305588Y88498D01*
X305448Y87795D01*
X305588Y87093D01*
X305986Y86498D01*
X306581Y86100D01*
X307283Y85960D01*
X307986Y86100D01*
X308581Y86498D01*
X308979Y87093D01*
X309119Y87795D01*
X308979Y88498D01*
X308581Y89093D01*
X307986Y89491D01*
X307283Y89631D01*
D02*
G37*
G36*
X521654Y88449D02*
X520951Y88310D01*
X520356Y87912D01*
X519958Y87317D01*
X519818Y86614D01*
X519958Y85912D01*
X520356Y85316D01*
X520951Y84919D01*
X521654Y84779D01*
X522356Y84919D01*
X522951Y85316D01*
X523349Y85912D01*
X523489Y86614D01*
X523349Y87317D01*
X522951Y87912D01*
X522356Y88310D01*
X521654Y88449D01*
D02*
G37*
G36*
X639370Y83725D02*
X638668Y83585D01*
X638072Y83188D01*
X637675Y82592D01*
X637535Y81890D01*
X637675Y81187D01*
X638072Y80592D01*
X638668Y80194D01*
X639370Y80054D01*
X640072Y80194D01*
X640668Y80592D01*
X641066Y81187D01*
X641205Y81890D01*
X641066Y82592D01*
X640668Y83188D01*
X640072Y83585D01*
X639370Y83725D01*
D02*
G37*
G36*
X351969Y83331D02*
X351266Y83192D01*
X350671Y82794D01*
X350273Y82198D01*
X350133Y81496D01*
X350273Y80794D01*
X350671Y80198D01*
X351266Y79800D01*
X351969Y79661D01*
X352671Y79800D01*
X353266Y80198D01*
X353664Y80794D01*
X353804Y81496D01*
X353664Y82198D01*
X353266Y82794D01*
X352671Y83192D01*
X351969Y83331D01*
D02*
G37*
G36*
X332283D02*
X331581Y83192D01*
X330986Y82794D01*
X330588Y82198D01*
X330448Y81496D01*
X330588Y80794D01*
X330986Y80198D01*
X331581Y79800D01*
X332283Y79661D01*
X332986Y79800D01*
X333581Y80198D01*
X333979Y80794D01*
X334119Y81496D01*
X333979Y82198D01*
X333581Y82794D01*
X332986Y83192D01*
X332283Y83331D01*
D02*
G37*
G36*
X311417D02*
X310715Y83192D01*
X310120Y82794D01*
X309722Y82198D01*
X309582Y81496D01*
X309722Y80794D01*
X310120Y80198D01*
X310715Y79800D01*
X311417Y79661D01*
X312120Y79800D01*
X312715Y80198D01*
X313113Y80794D01*
X313253Y81496D01*
X313113Y82198D01*
X312715Y82794D01*
X312120Y83192D01*
X311417Y83331D01*
D02*
G37*
G36*
X285827D02*
X285124Y83192D01*
X284529Y82794D01*
X284131Y82198D01*
X283992Y81496D01*
X284131Y80794D01*
X284529Y80198D01*
X285124Y79800D01*
X285827Y79661D01*
X286529Y79800D01*
X287124Y80198D01*
X287522Y80794D01*
X287662Y81496D01*
X287522Y82198D01*
X287124Y82794D01*
X286529Y83192D01*
X285827Y83331D01*
D02*
G37*
G36*
X347128Y83215D02*
X346425Y83075D01*
X345830Y82677D01*
X345432Y82082D01*
X345292Y81379D01*
X345432Y80677D01*
X345830Y80082D01*
X346425Y79684D01*
X347128Y79544D01*
X347830Y79684D01*
X348425Y80082D01*
X348823Y80677D01*
X348963Y81379D01*
X348823Y82082D01*
X348425Y82677D01*
X347830Y83075D01*
X347128Y83215D01*
D02*
G37*
G36*
X192028Y82249D02*
X191325Y82109D01*
X190730Y81711D01*
X190332Y81116D01*
X190192Y80413D01*
X190332Y79711D01*
X190730Y79116D01*
X191325Y78718D01*
X192028Y78578D01*
X192730Y78718D01*
X193325Y79116D01*
X193723Y79711D01*
X193863Y80413D01*
X193723Y81116D01*
X193325Y81711D01*
X192730Y82109D01*
X192028Y82249D01*
D02*
G37*
G36*
X262992Y79788D02*
X262290Y79648D01*
X261694Y79251D01*
X261297Y78655D01*
X261241Y78373D01*
X261048Y77930D01*
X260373Y77792D01*
X260236Y77820D01*
X259534Y77680D01*
X258939Y77282D01*
X258541Y76687D01*
X258401Y75984D01*
X258541Y75282D01*
X258939Y74686D01*
X259534Y74289D01*
X260236Y74149D01*
X260939Y74289D01*
X261534Y74686D01*
X261932Y75282D01*
X261988Y75564D01*
X262181Y76007D01*
X262855Y76145D01*
X262992Y76117D01*
X263695Y76257D01*
X264290Y76655D01*
X264688Y77250D01*
X264827Y77953D01*
X264688Y78655D01*
X264290Y79251D01*
X263695Y79648D01*
X262992Y79788D01*
D02*
G37*
G36*
X137894Y81166D02*
X137191Y81026D01*
X136596Y80628D01*
X136198Y80033D01*
X136058Y79331D01*
X136198Y78628D01*
X136596Y78033D01*
X137191Y77635D01*
X137894Y77495D01*
X138596Y77635D01*
X139191Y78033D01*
X139589Y78628D01*
X139729Y79331D01*
X139589Y80033D01*
X139191Y80628D01*
X138596Y81026D01*
X137894Y81166D01*
D02*
G37*
G36*
X601968Y79788D02*
X601266Y79648D01*
X600671Y79251D01*
X600273Y78655D01*
X600133Y77953D01*
X600273Y77250D01*
X600671Y76655D01*
X601266Y76257D01*
X601968Y76117D01*
X602671Y76257D01*
X603266Y76655D01*
X603664Y77250D01*
X603804Y77953D01*
X603664Y78655D01*
X603266Y79251D01*
X602671Y79648D01*
X601968Y79788D01*
D02*
G37*
G36*
X365354Y73883D02*
X364652Y73743D01*
X364057Y73345D01*
X363659Y72750D01*
X363519Y72047D01*
X363659Y71345D01*
X364057Y70749D01*
X364652Y70352D01*
X365354Y70212D01*
X366057Y70352D01*
X366652Y70749D01*
X367050Y71345D01*
X367190Y72047D01*
X367050Y72750D01*
X366652Y73345D01*
X366057Y73743D01*
X365354Y73883D01*
D02*
G37*
G36*
X138878Y73686D02*
X138176Y73546D01*
X137580Y73148D01*
X137182Y72553D01*
X137043Y71850D01*
X137182Y71148D01*
X137580Y70553D01*
X138176Y70155D01*
X138878Y70015D01*
X139580Y70155D01*
X140176Y70553D01*
X140574Y71148D01*
X140713Y71850D01*
X140574Y72553D01*
X140176Y73148D01*
X139580Y73546D01*
X138878Y73686D01*
D02*
G37*
G36*
X291339Y75064D02*
X290636Y74924D01*
X290041Y74526D01*
X289643Y73931D01*
X289503Y73228D01*
X289643Y72526D01*
X290041Y71931D01*
X290636Y71533D01*
X291339Y71393D01*
X291975Y70704D01*
X292005Y70557D01*
X292403Y69962D01*
X292998Y69564D01*
X293700Y69424D01*
X294403Y69564D01*
X294998Y69962D01*
X295396Y70557D01*
X295535Y71259D01*
X295396Y71961D01*
X294998Y72557D01*
X294403Y72955D01*
X293700Y73094D01*
X293063Y73783D01*
X293034Y73931D01*
X292636Y74526D01*
X292041Y74924D01*
X291339Y75064D01*
D02*
G37*
G36*
X625591Y72308D02*
X624888Y72168D01*
X624293Y71770D01*
X623895Y71175D01*
X623755Y70472D01*
X623895Y69770D01*
X624293Y69175D01*
X624888Y68777D01*
X625591Y68637D01*
X626293Y68777D01*
X626888Y69175D01*
X627286Y69770D01*
X627426Y70472D01*
X627286Y71175D01*
X626888Y71770D01*
X626293Y72168D01*
X625591Y72308D01*
D02*
G37*
G36*
X261417Y73489D02*
X260715Y73349D01*
X260120Y72951D01*
X259722Y72356D01*
X259582Y71653D01*
X259599Y71566D01*
X251516Y63482D01*
X250716Y63814D01*
Y64733D01*
X254637Y68655D01*
X254724Y68637D01*
X255427Y68777D01*
X256022Y69175D01*
X256420Y69770D01*
X256560Y70472D01*
X256420Y71175D01*
X256022Y71770D01*
X255427Y72168D01*
X254724Y72308D01*
X254022Y72168D01*
X253427Y71770D01*
X253029Y71175D01*
X252889Y70472D01*
X252907Y70385D01*
X248627Y66105D01*
X248362Y65708D01*
X248269Y65240D01*
Y34605D01*
X247915Y34369D01*
X247517Y33773D01*
X247377Y33071D01*
X247517Y32368D01*
X247915Y31773D01*
X248510Y31375D01*
X249213Y31236D01*
X249915Y31375D01*
X250510Y31773D01*
X250908Y32368D01*
X251048Y33071D01*
X250908Y33773D01*
X251328Y34426D01*
X251516Y34538D01*
X251692Y34503D01*
X252395Y34642D01*
X252990Y35040D01*
X253388Y35636D01*
X253527Y36338D01*
X253388Y37040D01*
X252990Y37635D01*
X252916Y37685D01*
Y61422D01*
X261330Y69836D01*
X261417Y69818D01*
X262120Y69958D01*
X262715Y70356D01*
X263113Y70951D01*
X263253Y71653D01*
X263113Y72356D01*
X262715Y72951D01*
X262120Y73349D01*
X261417Y73489D01*
D02*
G37*
G36*
X599803Y71028D02*
X599101Y70889D01*
X598505Y70491D01*
X598108Y69895D01*
X597968Y69193D01*
X598108Y68491D01*
X598505Y67895D01*
X599101Y67497D01*
X599803Y67358D01*
X600505Y67497D01*
X601101Y67895D01*
X601499Y68491D01*
X601638Y69193D01*
X601499Y69895D01*
X601101Y70491D01*
X600505Y70889D01*
X599803Y71028D01*
D02*
G37*
G36*
X334646Y68764D02*
X333943Y68625D01*
X333348Y68227D01*
X332950Y67631D01*
X332810Y66929D01*
X332950Y66227D01*
X333348Y65631D01*
X333943Y65234D01*
X334646Y65094D01*
X335348Y65234D01*
X335943Y65631D01*
X336341Y66227D01*
X336481Y66929D01*
X336341Y67631D01*
X335943Y68227D01*
X335348Y68625D01*
X334646Y68764D01*
D02*
G37*
G36*
X608366Y68568D02*
X607664Y68428D01*
X607068Y68030D01*
X606671Y67435D01*
X606531Y66732D01*
X606671Y66030D01*
X607068Y65435D01*
X607664Y65037D01*
X608366Y64897D01*
X609068Y65037D01*
X609664Y65435D01*
X610062Y66030D01*
X610201Y66732D01*
X610062Y67435D01*
X609664Y68030D01*
X609068Y68428D01*
X608366Y68568D01*
D02*
G37*
G36*
X553937Y67583D02*
X553235Y67444D01*
X552639Y67046D01*
X552241Y66450D01*
X552102Y65748D01*
X552241Y65046D01*
X552639Y64450D01*
X553235Y64052D01*
X553937Y63913D01*
X554639Y64052D01*
X555235Y64450D01*
X555633Y65046D01*
X555772Y65748D01*
X555633Y66450D01*
X555235Y67046D01*
X554639Y67444D01*
X553937Y67583D01*
D02*
G37*
G36*
X544095D02*
X543392Y67444D01*
X542797Y67046D01*
X542399Y66450D01*
X542259Y65748D01*
X542399Y65046D01*
X542797Y64450D01*
X543392Y64052D01*
X544095Y63913D01*
X544797Y64052D01*
X545392Y64450D01*
X545790Y65046D01*
X545930Y65748D01*
X545790Y66450D01*
X545392Y67046D01*
X544797Y67444D01*
X544095Y67583D01*
D02*
G37*
G36*
X534252D02*
X533550Y67444D01*
X532954Y67046D01*
X532556Y66450D01*
X532417Y65748D01*
X532556Y65046D01*
X532954Y64450D01*
X533550Y64052D01*
X534252Y63913D01*
X534954Y64052D01*
X535550Y64450D01*
X535948Y65046D01*
X536087Y65748D01*
X535948Y66450D01*
X535550Y67046D01*
X534954Y67444D01*
X534252Y67583D01*
D02*
G37*
G36*
X630315Y64827D02*
X629613Y64688D01*
X629017Y64290D01*
X628619Y63694D01*
X628480Y62992D01*
X628619Y62290D01*
X629017Y61694D01*
X629613Y61297D01*
X630315Y61157D01*
X631017Y61297D01*
X631613Y61694D01*
X632011Y62290D01*
X632150Y62992D01*
X632011Y63694D01*
X631613Y64290D01*
X631017Y64688D01*
X630315Y64827D01*
D02*
G37*
G36*
X138779Y62072D02*
X138077Y61932D01*
X137482Y61534D01*
X137084Y60939D01*
X136944Y60236D01*
X137084Y59534D01*
X137482Y58938D01*
X138077Y58541D01*
X138779Y58401D01*
X139482Y58541D01*
X140077Y58938D01*
X140475Y59534D01*
X140615Y60236D01*
X140475Y60939D01*
X140077Y61534D01*
X139482Y61932D01*
X138779Y62072D01*
D02*
G37*
G36*
X639370Y58135D02*
X638668Y57995D01*
X638072Y57597D01*
X637675Y57002D01*
X637535Y56299D01*
X637675Y55597D01*
X638072Y55001D01*
X638668Y54604D01*
X639370Y54464D01*
X640072Y54604D01*
X640668Y55001D01*
X641066Y55597D01*
X641205Y56299D01*
X641066Y57002D01*
X640668Y57597D01*
X640072Y57995D01*
X639370Y58135D01*
D02*
G37*
G36*
X418602Y54296D02*
X417900Y54156D01*
X417305Y53758D01*
X416907Y53163D01*
X416767Y52461D01*
X416907Y51758D01*
X417305Y51163D01*
X417900Y50765D01*
X418602Y50625D01*
X419305Y50765D01*
X419900Y51163D01*
X420298Y51758D01*
X420438Y52461D01*
X420298Y53163D01*
X419900Y53758D01*
X419305Y54156D01*
X418602Y54296D01*
D02*
G37*
G36*
X395177D02*
X394475Y54156D01*
X393879Y53758D01*
X393482Y53163D01*
X393342Y52461D01*
X393482Y51758D01*
X393879Y51163D01*
X394475Y50765D01*
X395177Y50625D01*
X395880Y50765D01*
X396475Y51163D01*
X396873Y51758D01*
X397012Y52461D01*
X396873Y53163D01*
X396475Y53758D01*
X395880Y54156D01*
X395177Y54296D01*
D02*
G37*
G36*
X406791Y54198D02*
X406089Y54058D01*
X405494Y53660D01*
X405096Y53065D01*
X404956Y52362D01*
X405096Y51660D01*
X405494Y51064D01*
X406089Y50667D01*
X406791Y50527D01*
X407494Y50667D01*
X408089Y51064D01*
X408487Y51660D01*
X408627Y52362D01*
X408487Y53065D01*
X408089Y53660D01*
X407494Y54058D01*
X406791Y54198D01*
D02*
G37*
G36*
X383563Y54001D02*
X382861Y53861D01*
X382265Y53463D01*
X381867Y52868D01*
X381728Y52165D01*
X381867Y51463D01*
X382265Y50868D01*
X382861Y50470D01*
X383563Y50330D01*
X384265Y50470D01*
X384861Y50868D01*
X385259Y51463D01*
X385398Y52165D01*
X385259Y52868D01*
X384861Y53463D01*
X384265Y53861D01*
X383563Y54001D01*
D02*
G37*
G36*
X309941Y53705D02*
X309239Y53566D01*
X308643Y53168D01*
X308245Y52572D01*
X308106Y51870D01*
X308245Y51168D01*
X308643Y50572D01*
X309239Y50174D01*
X309941Y50035D01*
X310643Y50174D01*
X310988Y50405D01*
X311487Y50451D01*
X311964Y50217D01*
X312187Y49883D01*
X312782Y49485D01*
X313484Y49346D01*
X314187Y49485D01*
X314782Y49883D01*
X315631D01*
X316227Y49485D01*
X316929Y49346D01*
X317631Y49485D01*
X318227Y49883D01*
X318880Y50277D01*
X319475Y49879D01*
X320177Y49740D01*
X320880Y49879D01*
X321475Y50277D01*
X321873Y50872D01*
X322012Y51575D01*
X321873Y52277D01*
X321475Y52873D01*
X320880Y53270D01*
X320177Y53410D01*
X319475Y53270D01*
X318912Y52894D01*
X318227Y52479D01*
X317631Y52877D01*
X316929Y53016D01*
X316227Y52877D01*
X315631Y52479D01*
X314782D01*
X314187Y52877D01*
X313484Y53016D01*
X312782Y52877D01*
X312437Y52646D01*
X311939Y52600D01*
X311462Y52834D01*
X311239Y53168D01*
X310643Y53566D01*
X309941Y53705D01*
D02*
G37*
G36*
X295177Y50261D02*
X294475Y50121D01*
X293879Y49723D01*
X293482Y49128D01*
X293342Y48425D01*
X293482Y47723D01*
X293879Y47128D01*
X294475Y46730D01*
X295177Y46590D01*
X295880Y46730D01*
X296475Y47128D01*
X296873Y47723D01*
X297012Y48425D01*
X296873Y49128D01*
X296475Y49723D01*
X295880Y50121D01*
X295177Y50261D01*
D02*
G37*
G36*
X615748Y48292D02*
X615046Y48152D01*
X614450Y47754D01*
X614052Y47159D01*
X613913Y46457D01*
X614052Y45754D01*
X614450Y45159D01*
X615046Y44761D01*
X615748Y44621D01*
X616450Y44761D01*
X617046Y45159D01*
X617444Y45754D01*
X617583Y46457D01*
X617444Y47159D01*
X617046Y47754D01*
X616450Y48152D01*
X615748Y48292D01*
D02*
G37*
G36*
X330709Y45142D02*
X330006Y45003D01*
X329411Y44605D01*
X329013Y44009D01*
X328873Y43307D01*
X329013Y42605D01*
X329411Y42009D01*
X330006Y41611D01*
X330709Y41472D01*
X331411Y41611D01*
X332006Y42009D01*
X332404Y42605D01*
X332544Y43307D01*
X332404Y44009D01*
X332006Y44605D01*
X331411Y45003D01*
X330709Y45142D01*
D02*
G37*
G36*
X635827Y36654D02*
X635001Y36545D01*
X634232Y36227D01*
X633571Y35720D01*
X633065Y35059D01*
X632746Y34290D01*
X632637Y33465D01*
X632746Y32639D01*
X633065Y31870D01*
X633571Y31209D01*
X634232Y30702D01*
X635001Y30384D01*
X635827Y30275D01*
X636652Y30384D01*
X637422Y30702D01*
X638082Y31209D01*
X638589Y31870D01*
X638908Y32639D01*
X639016Y33465D01*
X638908Y34290D01*
X638589Y35059D01*
X638082Y35720D01*
X637422Y36227D01*
X636652Y36545D01*
X635827Y36654D01*
D02*
G37*
G36*
X33465D02*
X32639Y36545D01*
X31870Y36227D01*
X31209Y35720D01*
X30702Y35059D01*
X30384Y34290D01*
X30275Y33465D01*
X30384Y32639D01*
X30702Y31870D01*
X31209Y31209D01*
X31870Y30702D01*
X32639Y30384D01*
X33465Y30275D01*
X34290Y30384D01*
X35059Y30702D01*
X35720Y31209D01*
X36227Y31870D01*
X36545Y32639D01*
X36654Y33465D01*
X36545Y34290D01*
X36227Y35059D01*
X35720Y35720D01*
X35059Y36227D01*
X34290Y36545D01*
X33465Y36654D01*
D02*
G37*
G36*
X616142Y33331D02*
X615439Y33192D01*
X614844Y32794D01*
X614446Y32198D01*
X614306Y31496D01*
X614446Y30794D01*
X614844Y30198D01*
X615439Y29801D01*
X616142Y29661D01*
X616844Y29801D01*
X617440Y30198D01*
X617837Y30794D01*
X617977Y31496D01*
X617837Y32198D01*
X617440Y32794D01*
X616844Y33192D01*
X616142Y33331D01*
D02*
G37*
G36*
X332677Y29394D02*
X331975Y29255D01*
X331379Y28857D01*
X331153Y28518D01*
X331105Y28501D01*
X330312D01*
X330264Y28518D01*
X330038Y28857D01*
X329443Y29255D01*
X328740Y29394D01*
X328038Y29255D01*
X327442Y28857D01*
X327216Y28518D01*
X327168Y28501D01*
X326375D01*
X326327Y28518D01*
X326101Y28857D01*
X325505Y29255D01*
X324803Y29394D01*
X324101Y29255D01*
X323505Y28857D01*
X323108Y28261D01*
X322968Y27559D01*
X323108Y26857D01*
X323505Y26261D01*
X324101Y25864D01*
X324803Y25724D01*
X325505Y25864D01*
X326101Y26261D01*
X326327Y26600D01*
X326375Y26617D01*
X327168D01*
X327216Y26600D01*
X327442Y26261D01*
X328038Y25864D01*
X328740Y25724D01*
X329443Y25864D01*
X330038Y26261D01*
X330264Y26600D01*
X330312Y26617D01*
X331105D01*
X331153Y26600D01*
X331379Y26261D01*
X331975Y25864D01*
X332677Y25724D01*
X333380Y25864D01*
X333975Y26261D01*
X334373Y26857D01*
X334512Y27559D01*
X334373Y28261D01*
X333975Y28857D01*
X333380Y29255D01*
X332677Y29394D01*
D02*
G37*
G36*
X289763Y31363D02*
X289061Y31224D01*
X288465Y30826D01*
X288068Y30231D01*
X287928Y29528D01*
X288068Y28826D01*
X288465Y28230D01*
X289061Y27833D01*
X289763Y27693D01*
X290465Y27833D01*
X291061Y28230D01*
X291459Y28826D01*
X291599Y29528D01*
X291459Y30231D01*
X291061Y30826D01*
X290465Y31224D01*
X289763Y31363D01*
D02*
G37*
G36*
X603150Y31363D02*
X602447Y31223D01*
X601852Y30825D01*
X601454Y30230D01*
X601314Y29528D01*
X601454Y28825D01*
X601852Y28230D01*
X602447Y27832D01*
X603150Y27692D01*
X603852Y27832D01*
X604447Y28230D01*
X604845Y28825D01*
X604985Y29528D01*
X604845Y30230D01*
X604447Y30825D01*
X603852Y31223D01*
X603150Y31363D01*
D02*
G37*
G36*
X583071D02*
X582369Y31223D01*
X581773Y30825D01*
X581375Y30230D01*
X581236Y29528D01*
X581375Y28825D01*
X581773Y28230D01*
X582369Y27832D01*
X583071Y27692D01*
X583773Y27832D01*
X584369Y28230D01*
X584766Y28825D01*
X584906Y29528D01*
X584766Y30230D01*
X584369Y30825D01*
X583773Y31223D01*
X583071Y31363D01*
D02*
G37*
G36*
X562992D02*
X562290Y31223D01*
X561694Y30825D01*
X561297Y30230D01*
X561157Y29528D01*
X561297Y28825D01*
X561694Y28230D01*
X562290Y27832D01*
X562992Y27692D01*
X563694Y27832D01*
X564290Y28230D01*
X564688Y28825D01*
X564827Y29528D01*
X564688Y30230D01*
X564290Y30825D01*
X563694Y31223D01*
X562992Y31363D01*
D02*
G37*
G36*
X553150D02*
X552447Y31223D01*
X551852Y30825D01*
X551454Y30230D01*
X551314Y29528D01*
X551454Y28825D01*
X551852Y28230D01*
X552447Y27832D01*
X553150Y27692D01*
X553852Y27832D01*
X554447Y28230D01*
X554845Y28825D01*
X554985Y29528D01*
X554845Y30230D01*
X554447Y30825D01*
X553852Y31223D01*
X553150Y31363D01*
D02*
G37*
G36*
X543307D02*
X542605Y31223D01*
X542009Y30825D01*
X541611Y30230D01*
X541472Y29528D01*
X541611Y28825D01*
X542009Y28230D01*
X542605Y27832D01*
X543307Y27692D01*
X544009Y27832D01*
X544605Y28230D01*
X545003Y28825D01*
X545142Y29528D01*
X545003Y30230D01*
X544605Y30825D01*
X544009Y31223D01*
X543307Y31363D01*
D02*
G37*
G36*
X533071D02*
X532369Y31223D01*
X531773Y30825D01*
X531375Y30230D01*
X531236Y29528D01*
X531375Y28825D01*
X531773Y28230D01*
X532369Y27832D01*
X533071Y27692D01*
X533773Y27832D01*
X534369Y28230D01*
X534766Y28825D01*
X534906Y29528D01*
X534766Y30230D01*
X534369Y30825D01*
X533773Y31223D01*
X533071Y31363D01*
D02*
G37*
G36*
X492126Y30379D02*
X491424Y30239D01*
X490828Y29841D01*
X490430Y29246D01*
X490291Y28543D01*
X490430Y27841D01*
X490828Y27246D01*
X491424Y26848D01*
X492126Y26708D01*
X492828Y26848D01*
X493424Y27246D01*
X493821Y27841D01*
X493961Y28543D01*
X493821Y29246D01*
X493424Y29841D01*
X492828Y30239D01*
X492126Y30379D01*
D02*
G37*
G36*
X113189D02*
X112487Y30239D01*
X111891Y29841D01*
X111493Y29246D01*
X111354Y28543D01*
X111493Y27841D01*
X111891Y27246D01*
X112487Y26848D01*
X113189Y26708D01*
X113891Y26848D01*
X114487Y27246D01*
X114884Y27841D01*
X115024Y28543D01*
X114884Y29246D01*
X114487Y29841D01*
X113891Y30239D01*
X113189Y30379D01*
D02*
G37*
G36*
X423228Y26245D02*
X422526Y26105D01*
X421931Y25707D01*
X421533Y25112D01*
X421393Y24409D01*
X421533Y23707D01*
X421931Y23112D01*
X422526Y22714D01*
X423228Y22574D01*
X423931Y22714D01*
X424526Y23112D01*
X424924Y23707D01*
X425064Y24409D01*
X424924Y25112D01*
X424526Y25707D01*
X423931Y26105D01*
X423228Y26245D01*
D02*
G37*
G36*
X411417D02*
X410715Y26105D01*
X410120Y25707D01*
X409722Y25112D01*
X409582Y24409D01*
X409722Y23707D01*
X410120Y23112D01*
X410715Y22714D01*
X411417Y22574D01*
X412120Y22714D01*
X412715Y23112D01*
X413113Y23707D01*
X413253Y24409D01*
X413113Y25112D01*
X412715Y25707D01*
X412120Y26105D01*
X411417Y26245D01*
D02*
G37*
G36*
X399606D02*
X398904Y26105D01*
X398309Y25707D01*
X397911Y25112D01*
X397771Y24409D01*
X397911Y23707D01*
X398309Y23112D01*
X398904Y22714D01*
X399606Y22574D01*
X400309Y22714D01*
X400904Y23112D01*
X401302Y23707D01*
X401442Y24409D01*
X401302Y25112D01*
X400904Y25707D01*
X400309Y26105D01*
X399606Y26245D01*
D02*
G37*
G36*
X387795D02*
X387093Y26105D01*
X386498Y25707D01*
X386100Y25112D01*
X385960Y24409D01*
X386100Y23707D01*
X386498Y23112D01*
X387093Y22714D01*
X387795Y22574D01*
X388498Y22714D01*
X389093Y23112D01*
X389491Y23707D01*
X389631Y24409D01*
X389491Y25112D01*
X389093Y25707D01*
X388498Y26105D01*
X387795Y26245D01*
D02*
G37*
G36*
X344488Y25457D02*
X343786Y25318D01*
X343191Y24920D01*
X342793Y24324D01*
X342653Y23622D01*
X342793Y22920D01*
X343191Y22324D01*
X343786Y21926D01*
X344488Y21787D01*
X345191Y21926D01*
X345786Y22324D01*
X346184Y22920D01*
X346323Y23622D01*
X346184Y24324D01*
X345786Y24920D01*
X345191Y25318D01*
X344488Y25457D01*
D02*
G37*
G36*
X572835Y25064D02*
X572132Y24924D01*
X571537Y24526D01*
X571139Y23931D01*
X570999Y23228D01*
X571139Y22526D01*
X571537Y21931D01*
X572132Y21533D01*
X572835Y21393D01*
X573537Y21533D01*
X574132Y21931D01*
X574530Y22526D01*
X574670Y23228D01*
X574530Y23931D01*
X574132Y24526D01*
X573537Y24924D01*
X572835Y25064D01*
D02*
G37*
G36*
X592992Y24985D02*
X592290Y24845D01*
X591694Y24447D01*
X591297Y23852D01*
X591157Y23150D01*
X591297Y22447D01*
X591694Y21852D01*
X592290Y21454D01*
X592992Y21314D01*
X593694Y21454D01*
X594290Y21852D01*
X594688Y22447D01*
X594827Y23150D01*
X594688Y23852D01*
X594290Y24447D01*
X593694Y24845D01*
X592992Y24985D01*
D02*
G37*
G36*
X582992D02*
X582290Y24845D01*
X581694Y24447D01*
X581297Y23852D01*
X581157Y23150D01*
X581297Y22447D01*
X581694Y21852D01*
X582290Y21454D01*
X582992Y21314D01*
X583694Y21454D01*
X584290Y21852D01*
X584688Y22447D01*
X584827Y23150D01*
X584688Y23852D01*
X584290Y24447D01*
X583694Y24845D01*
X582992Y24985D01*
D02*
G37*
G36*
X602992Y24827D02*
X602290Y24688D01*
X601694Y24290D01*
X601297Y23695D01*
X601157Y22992D01*
X601297Y22290D01*
X601694Y21694D01*
X602290Y21297D01*
X602992Y21157D01*
X603694Y21297D01*
X604290Y21694D01*
X604688Y22290D01*
X604827Y22992D01*
X604688Y23695D01*
X604290Y24290D01*
X603694Y24688D01*
X602992Y24827D01*
D02*
G37*
G36*
X358268Y17583D02*
X357565Y17444D01*
X356970Y17046D01*
X356572Y16450D01*
X356433Y15748D01*
X356572Y15046D01*
X356970Y14450D01*
X357565Y14052D01*
X358268Y13913D01*
X358970Y14052D01*
X359565Y14450D01*
X359963Y15046D01*
X360103Y15748D01*
X359963Y16450D01*
X359565Y17046D01*
X358970Y17444D01*
X358268Y17583D01*
D02*
G37*
G36*
X279691Y17879D02*
X271491D01*
Y9680D01*
X279691D01*
Y17879D01*
D02*
G37*
G36*
X191108D02*
X182908D01*
Y9680D01*
X191108D01*
Y17879D01*
D02*
G37*
G36*
X325590Y17915D02*
X324520Y17774D01*
X323523Y17361D01*
X322666Y16704D01*
X322009Y15847D01*
X321596Y14850D01*
X321455Y13780D01*
X321596Y12709D01*
X322009Y11712D01*
X322666Y10855D01*
X323523Y10198D01*
X324520Y9785D01*
X325590Y9644D01*
X326661Y9785D01*
X327658Y10198D01*
X328515Y10855D01*
X329172Y11712D01*
X329585Y12709D01*
X329726Y13780D01*
X329585Y14850D01*
X329172Y15847D01*
X328515Y16704D01*
X327658Y17361D01*
X326661Y17774D01*
X325590Y17915D01*
D02*
G37*
G36*
X315591D02*
X314520Y17774D01*
X313523Y17361D01*
X312666Y16704D01*
X312009Y15847D01*
X311596Y14850D01*
X311455Y13780D01*
X311596Y12709D01*
X312009Y11712D01*
X312666Y10855D01*
X313523Y10198D01*
X314520Y9785D01*
X315591Y9644D01*
X316661Y9785D01*
X317658Y10198D01*
X318515Y10855D01*
X319172Y11712D01*
X319585Y12709D01*
X319726Y13780D01*
X319585Y14850D01*
X319172Y15847D01*
X318515Y16704D01*
X317658Y17361D01*
X316661Y17774D01*
X315591Y17915D01*
D02*
G37*
G36*
X305591D02*
X304520Y17774D01*
X303523Y17361D01*
X302666Y16704D01*
X302009Y15847D01*
X301596Y14850D01*
X301455Y13780D01*
X301596Y12709D01*
X302009Y11712D01*
X302666Y10855D01*
X303523Y10198D01*
X304520Y9785D01*
X305591Y9644D01*
X306661Y9785D01*
X307658Y10198D01*
X308515Y10855D01*
X309172Y11712D01*
X309585Y12709D01*
X309726Y13780D01*
X309585Y14850D01*
X309172Y15847D01*
X308515Y16704D01*
X307658Y17361D01*
X306661Y17774D01*
X305591Y17915D01*
D02*
G37*
G36*
X295590D02*
X294520Y17774D01*
X293523Y17361D01*
X292666Y16704D01*
X292009Y15847D01*
X291596Y14850D01*
X291455Y13780D01*
X291596Y12709D01*
X292009Y11712D01*
X292666Y10855D01*
X293523Y10198D01*
X294520Y9785D01*
X295590Y9644D01*
X296661Y9785D01*
X297658Y10198D01*
X298515Y10855D01*
X299172Y11712D01*
X299585Y12709D01*
X299726Y13780D01*
X299585Y14850D01*
X299172Y15847D01*
X298515Y16704D01*
X297658Y17361D01*
X296661Y17774D01*
X295590Y17915D01*
D02*
G37*
G36*
X285591D02*
X284520Y17774D01*
X283523Y17361D01*
X282666Y16704D01*
X282009Y15847D01*
X281596Y14850D01*
X281455Y13780D01*
X281596Y12709D01*
X282009Y11712D01*
X282666Y10855D01*
X283523Y10198D01*
X284520Y9785D01*
X285591Y9644D01*
X286661Y9785D01*
X287658Y10198D01*
X288515Y10855D01*
X289172Y11712D01*
X289585Y12709D01*
X289726Y13780D01*
X289585Y14850D01*
X289172Y15847D01*
X288515Y16704D01*
X287658Y17361D01*
X286661Y17774D01*
X285591Y17915D01*
D02*
G37*
G36*
X237008D02*
X235938Y17774D01*
X234940Y17361D01*
X234084Y16704D01*
X233426Y15847D01*
X233013Y14850D01*
X232873Y13780D01*
X233013Y12709D01*
X233426Y11712D01*
X234084Y10855D01*
X234940Y10198D01*
X235938Y9785D01*
X237008Y9644D01*
X238078Y9785D01*
X239076Y10198D01*
X239932Y10855D01*
X240589Y11712D01*
X241002Y12709D01*
X241143Y13780D01*
X241002Y14850D01*
X240589Y15847D01*
X239932Y16704D01*
X239076Y17361D01*
X238078Y17774D01*
X237008Y17915D01*
D02*
G37*
G36*
X227008D02*
X225938Y17774D01*
X224940Y17361D01*
X224084Y16704D01*
X223427Y15847D01*
X223013Y14850D01*
X222872Y13780D01*
X223013Y12709D01*
X223427Y11712D01*
X224084Y10855D01*
X224940Y10198D01*
X225938Y9785D01*
X227008Y9644D01*
X228078Y9785D01*
X229076Y10198D01*
X229932Y10855D01*
X230589Y11712D01*
X231002Y12709D01*
X231143Y13780D01*
X231002Y14850D01*
X230589Y15847D01*
X229932Y16704D01*
X229076Y17361D01*
X228078Y17774D01*
X227008Y17915D01*
D02*
G37*
G36*
X217008D02*
X215938Y17774D01*
X214940Y17361D01*
X214084Y16704D01*
X213426Y15847D01*
X213013Y14850D01*
X212873Y13780D01*
X213013Y12709D01*
X213426Y11712D01*
X214084Y10855D01*
X214940Y10198D01*
X215938Y9785D01*
X217008Y9644D01*
X218078Y9785D01*
X219076Y10198D01*
X219932Y10855D01*
X220589Y11712D01*
X221002Y12709D01*
X221143Y13780D01*
X221002Y14850D01*
X220589Y15847D01*
X219932Y16704D01*
X219076Y17361D01*
X218078Y17774D01*
X217008Y17915D01*
D02*
G37*
G36*
X207008D02*
X205938Y17774D01*
X204940Y17361D01*
X204084Y16704D01*
X203427Y15847D01*
X203013Y14850D01*
X202872Y13780D01*
X203013Y12709D01*
X203427Y11712D01*
X204084Y10855D01*
X204940Y10198D01*
X205938Y9785D01*
X207008Y9644D01*
X208078Y9785D01*
X209076Y10198D01*
X209932Y10855D01*
X210589Y11712D01*
X211002Y12709D01*
X211143Y13780D01*
X211002Y14850D01*
X210589Y15847D01*
X209932Y16704D01*
X209076Y17361D01*
X208078Y17774D01*
X207008Y17915D01*
D02*
G37*
G36*
X197008D02*
X195938Y17774D01*
X194940Y17361D01*
X194084Y16704D01*
X193427Y15847D01*
X193013Y14850D01*
X192873Y13780D01*
X193013Y12709D01*
X193427Y11712D01*
X194084Y10855D01*
X194940Y10198D01*
X195938Y9785D01*
X197008Y9644D01*
X198078Y9785D01*
X199076Y10198D01*
X199932Y10855D01*
X200589Y11712D01*
X201002Y12709D01*
X201143Y13780D01*
X201002Y14850D01*
X200589Y15847D01*
X199932Y16704D01*
X199076Y17361D01*
X198078Y17774D01*
X197008Y17915D01*
D02*
G37*
G36*
X649606Y30360D02*
X647936Y30229D01*
X646307Y29838D01*
X644760Y29197D01*
X643331Y28322D01*
X642058Y27234D01*
X640970Y25960D01*
X640094Y24532D01*
X639453Y22984D01*
X639062Y21355D01*
X638931Y19685D01*
X639062Y18015D01*
X639453Y16386D01*
X640094Y14839D01*
X640970Y13410D01*
X642058Y12136D01*
X643331Y11048D01*
X644760Y10173D01*
X646307Y9532D01*
X647936Y9141D01*
X649606Y9010D01*
X651276Y9141D01*
X652905Y9532D01*
X654453Y10173D01*
X655881Y11048D01*
X657155Y12136D01*
X658243Y13410D01*
X659118Y14839D01*
X659759Y16386D01*
X660150Y18015D01*
X660282Y19685D01*
X660150Y21355D01*
X659759Y22984D01*
X659118Y24532D01*
X658243Y25960D01*
X657155Y27234D01*
X655881Y28322D01*
X654453Y29197D01*
X652905Y29838D01*
X651276Y30229D01*
X649606Y30360D01*
D02*
G37*
G36*
X19685D02*
X18015Y30229D01*
X16386Y29838D01*
X14839Y29197D01*
X13410Y28322D01*
X12136Y27234D01*
X11048Y25960D01*
X10173Y24532D01*
X9532Y22984D01*
X9141Y21355D01*
X9010Y19685D01*
X9141Y18015D01*
X9532Y16386D01*
X10173Y14839D01*
X11048Y13410D01*
X12136Y12136D01*
X13410Y11048D01*
X14839Y10173D01*
X16386Y9532D01*
X18015Y9141D01*
X19685Y9010D01*
X21355Y9141D01*
X22984Y9532D01*
X24532Y10173D01*
X25960Y11048D01*
X27234Y12136D01*
X28322Y13410D01*
X29197Y14839D01*
X29838Y16386D01*
X30229Y18015D01*
X30360Y19685D01*
X30229Y21355D01*
X29838Y22984D01*
X29197Y24532D01*
X28322Y25960D01*
X27234Y27234D01*
X25960Y28322D01*
X24532Y29197D01*
X22984Y29838D01*
X21355Y30229D01*
X19685Y30360D01*
D02*
G37*
G36*
X389764Y351835D02*
X389061Y351696D01*
X388466Y351298D01*
X388068Y350702D01*
X387929Y350000D01*
X388068Y349298D01*
X388466Y348702D01*
X389061Y348304D01*
X389764Y348165D01*
X390466Y348304D01*
X391061Y348702D01*
X391459Y349298D01*
X391599Y350000D01*
X391459Y350702D01*
X391061Y351298D01*
X390466Y351696D01*
X389764Y351835D01*
D02*
G37*
G36*
X423228Y342386D02*
X422526Y342247D01*
X421931Y341849D01*
X421533Y341253D01*
X421393Y340551D01*
X421533Y339849D01*
X421931Y339253D01*
X422526Y338856D01*
X423228Y338716D01*
X423931Y338856D01*
X424526Y339253D01*
X424924Y339849D01*
X425064Y340551D01*
X424924Y341253D01*
X424526Y341849D01*
X423931Y342247D01*
X423228Y342386D01*
D02*
G37*
G36*
X259842Y347099D02*
X258657Y346943D01*
X257552Y346485D01*
X256604Y345758D01*
X255876Y344809D01*
X255419Y343705D01*
X255263Y342520D01*
X255419Y341335D01*
X255876Y340230D01*
X256604Y339282D01*
X257552Y338554D01*
X258657Y338096D01*
X259842Y337940D01*
X261027Y338096D01*
X262132Y338554D01*
X263080Y339282D01*
X263808Y340230D01*
X264265Y341335D01*
X264421Y342520D01*
X264265Y343705D01*
X263808Y344809D01*
X263080Y345758D01*
X262132Y346485D01*
X261027Y346943D01*
X259842Y347099D01*
D02*
G37*
G36*
X420079Y330575D02*
X419376Y330436D01*
X418781Y330038D01*
X418383Y329443D01*
X418244Y328740D01*
X418383Y328038D01*
X418781Y327442D01*
X419376Y327045D01*
X420079Y326905D01*
X420781Y327045D01*
X421377Y327442D01*
X421774Y328038D01*
X421914Y328740D01*
X421774Y329443D01*
X421377Y330038D01*
X420781Y330436D01*
X420079Y330575D01*
D02*
G37*
G36*
X393701Y324874D02*
X392920Y324719D01*
X392259Y324277D01*
X392033Y323938D01*
X391432D01*
X391206Y324277D01*
X390544Y324719D01*
X389764Y324874D01*
X388983Y324719D01*
X388322Y324277D01*
X387880Y323615D01*
X387725Y322835D01*
X387880Y322054D01*
X388322Y321393D01*
X388660Y321167D01*
Y320566D01*
X388322Y320340D01*
X387880Y319678D01*
X387725Y318898D01*
X387880Y318117D01*
X388322Y317456D01*
X388983Y317014D01*
X389764Y316859D01*
X390544Y317014D01*
X391206Y317456D01*
X391432Y317794D01*
X392033D01*
X392259Y317456D01*
X392920Y317014D01*
X393701Y316859D01*
X394481Y317014D01*
X395143Y317456D01*
X395585Y318117D01*
X395740Y318898D01*
X395585Y319678D01*
X395143Y320340D01*
X394805Y320566D01*
Y321167D01*
X395143Y321393D01*
X395585Y322054D01*
X395740Y322835D01*
X395585Y323615D01*
X395143Y324277D01*
X394481Y324719D01*
X393701Y324874D01*
D02*
G37*
G36*
X407087Y323095D02*
X406384Y322955D01*
X405789Y322558D01*
X405391Y321962D01*
X405251Y321260D01*
X405391Y320557D01*
X405789Y319962D01*
X406384Y319564D01*
X407087Y319425D01*
X407789Y319564D01*
X408384Y319962D01*
X408782Y320557D01*
X408922Y321260D01*
X408782Y321962D01*
X408384Y322558D01*
X407789Y322955D01*
X407087Y323095D01*
D02*
G37*
G36*
X282296Y324619D02*
X274791D01*
Y317113D01*
X282296D01*
Y324619D01*
D02*
G37*
G36*
X422835Y320733D02*
X422132Y320593D01*
X421537Y320195D01*
X421139Y319600D01*
X420999Y318898D01*
X421139Y318195D01*
X421537Y317600D01*
X422132Y317202D01*
X422835Y317062D01*
X423537Y317202D01*
X424132Y317600D01*
X424530Y318195D01*
X424670Y318898D01*
X424530Y319600D01*
X424132Y320195D01*
X423537Y320593D01*
X422835Y320733D01*
D02*
G37*
G36*
X259449Y314827D02*
X258747Y314688D01*
X258151Y314290D01*
X257753Y313695D01*
X257614Y312992D01*
X257753Y312290D01*
X258151Y311694D01*
X258747Y311297D01*
X259449Y311157D01*
X260151Y311297D01*
X260747Y311694D01*
X261144Y312290D01*
X261284Y312992D01*
X261144Y313695D01*
X260747Y314290D01*
X260151Y314688D01*
X259449Y314827D01*
D02*
G37*
G36*
X278543Y314651D02*
X277564Y314522D01*
X276651Y314144D01*
X275867Y313543D01*
X275265Y312759D01*
X274887Y311846D01*
X274758Y310866D01*
X274887Y309887D01*
X275265Y308974D01*
X275867Y308190D01*
X276651Y307588D01*
X277564Y307210D01*
X278543Y307081D01*
X279523Y307210D01*
X280436Y307588D01*
X281220Y308190D01*
X281821Y308974D01*
X282200Y309887D01*
X282328Y310866D01*
X282200Y311846D01*
X281821Y312759D01*
X281220Y313543D01*
X280436Y314144D01*
X279523Y314522D01*
X278543Y314651D01*
D02*
G37*
G36*
X424213Y310694D02*
X423510Y310554D01*
X422915Y310156D01*
X422517Y309561D01*
X422377Y308858D01*
X422517Y308156D01*
X422915Y307560D01*
X423510Y307163D01*
X424213Y307023D01*
X424915Y307163D01*
X425510Y307560D01*
X425908Y308156D01*
X426048Y308858D01*
X425908Y309561D01*
X425510Y310156D01*
X424915Y310554D01*
X424213Y310694D01*
D02*
G37*
G36*
X394882Y310300D02*
X394180Y310160D01*
X393584Y309762D01*
X393186Y309167D01*
X393047Y308465D01*
X393186Y307762D01*
X393584Y307167D01*
X394180Y306769D01*
X394882Y306629D01*
X395584Y306769D01*
X396180Y307167D01*
X396577Y307762D01*
X396717Y308465D01*
X396577Y309167D01*
X396180Y309762D01*
X395584Y310160D01*
X394882Y310300D01*
D02*
G37*
G36*
X259449Y306953D02*
X258747Y306814D01*
X258151Y306416D01*
X257753Y305820D01*
X257614Y305118D01*
X257753Y304416D01*
X258151Y303820D01*
X258747Y303423D01*
X259449Y303283D01*
X260151Y303423D01*
X260747Y303820D01*
X261144Y304416D01*
X261284Y305118D01*
X261144Y305820D01*
X260747Y306416D01*
X260151Y306814D01*
X259449Y306953D01*
D02*
G37*
G36*
X394783Y303705D02*
X394081Y303566D01*
X393486Y303168D01*
X393088Y302572D01*
X392948Y301870D01*
X393088Y301168D01*
X393486Y300572D01*
X394081Y300174D01*
X394783Y300035D01*
X395486Y300174D01*
X396081Y300572D01*
X396479Y301168D01*
X396619Y301870D01*
X396479Y302572D01*
X396081Y303168D01*
X395486Y303566D01*
X394783Y303705D01*
D02*
G37*
G36*
X412992Y302229D02*
X412290Y302089D01*
X411694Y301691D01*
X411297Y301096D01*
X411157Y300394D01*
X411297Y299691D01*
X411694Y299096D01*
X412290Y298698D01*
X412992Y298558D01*
X413694Y298698D01*
X414290Y299096D01*
X414688Y299691D01*
X414827Y300394D01*
X414688Y301096D01*
X414290Y301691D01*
X413694Y302089D01*
X412992Y302229D01*
D02*
G37*
G36*
X394488Y295831D02*
X393786Y295692D01*
X393191Y295294D01*
X392793Y294698D01*
X392653Y293996D01*
X392793Y293294D01*
X393191Y292698D01*
X393786Y292301D01*
X394488Y292161D01*
X395191Y292301D01*
X395786Y292698D01*
X396184Y293294D01*
X396323Y293996D01*
X396184Y294698D01*
X395786Y295294D01*
X395191Y295692D01*
X394488Y295831D01*
D02*
G37*
G36*
X278543Y289061D02*
X277564Y288932D01*
X276651Y288554D01*
X275867Y287952D01*
X275265Y287168D01*
X274887Y286255D01*
X274758Y285276D01*
X274887Y284296D01*
X275265Y283383D01*
X275867Y282599D01*
X276651Y281998D01*
X277564Y281619D01*
X278543Y281490D01*
X279523Y281619D01*
X280436Y281998D01*
X281220Y282599D01*
X281821Y283383D01*
X282200Y284296D01*
X282328Y285276D01*
X282200Y286255D01*
X281821Y287168D01*
X281220Y287952D01*
X280436Y288554D01*
X279523Y288932D01*
X278543Y289061D01*
D02*
G37*
G36*
X259055Y281461D02*
X258353Y281322D01*
X257757Y280924D01*
X257360Y280328D01*
X257220Y279626D01*
X257360Y278924D01*
X257757Y278328D01*
X258353Y277930D01*
X259055Y277791D01*
X259757Y277930D01*
X260353Y278328D01*
X260751Y278924D01*
X260890Y279626D01*
X260751Y280328D01*
X260353Y280924D01*
X259757Y281322D01*
X259055Y281461D01*
D02*
G37*
G36*
X311024Y269355D02*
X310321Y269215D01*
X309726Y268817D01*
X309328Y268222D01*
X309188Y267520D01*
X309328Y266817D01*
X309726Y266222D01*
X310321Y265824D01*
X311024Y265684D01*
X311726Y265824D01*
X312321Y266222D01*
X312719Y266817D01*
X312859Y267520D01*
X312719Y268222D01*
X312321Y268817D01*
X311726Y269215D01*
X311024Y269355D01*
D02*
G37*
G36*
X304724Y269158D02*
X304022Y269018D01*
X303427Y268621D01*
X303029Y268025D01*
X302889Y267323D01*
X303029Y266620D01*
X303427Y266025D01*
X304022Y265627D01*
X304724Y265488D01*
X305427Y265627D01*
X306022Y266025D01*
X306420Y266620D01*
X306560Y267323D01*
X306420Y268025D01*
X306022Y268621D01*
X305427Y269018D01*
X304724Y269158D01*
D02*
G37*
G36*
X130315Y307740D02*
X129612Y307600D01*
X129017Y307203D01*
X128619Y306607D01*
X128479Y305905D01*
X128619Y305203D01*
X129017Y304607D01*
X129612Y304209D01*
X130315Y304070D01*
X131017Y304209D01*
X131612Y304607D01*
X132010Y305203D01*
X132150Y305905D01*
X132010Y306607D01*
X131612Y307203D01*
X131017Y307600D01*
X130315Y307740D01*
D02*
G37*
%LPD*%
D10*
X502756Y159449D02*
X509842Y152362D01*
X415354Y159449D02*
X502756D01*
X501968Y154331D02*
X509842Y146457D01*
X424409Y154331D02*
X501968D01*
X423622Y163386D02*
X505512D01*
X277558Y178150D02*
X280340Y175368D01*
Y158992D02*
Y175368D01*
Y158992D02*
X280546Y158785D01*
Y156963D02*
Y158785D01*
X280315Y156731D02*
X280546Y156963D01*
X280315Y155118D02*
Y156731D01*
X273622Y179824D02*
X278740Y174706D01*
Y157874D02*
Y174706D01*
X278346Y157874D02*
X278740D01*
X273622Y179824D02*
Y183858D01*
X277558Y178150D02*
Y181102D01*
X249213Y33071D02*
X249492Y33350D01*
Y65240D01*
X254724Y70472D01*
X251692Y61928D02*
X261417Y71653D01*
X251692Y36338D02*
Y61928D01*
X266574Y139665D02*
X266929D01*
X266358Y139882D02*
X266574Y139665D01*
X328658Y186833D02*
Y187287D01*
X266358Y139882D02*
X266615D01*
X352266Y130054D02*
X352478Y129842D01*
X363681Y170403D02*
X363878Y170206D01*
X287007Y88582D02*
X289369Y86221D01*
X292717D01*
X305315Y98819D01*
X350394D01*
X351969Y97244D01*
X303341Y100585D02*
X352170D01*
X291339Y88583D02*
X303341Y100585D01*
X352170D02*
X355511Y97244D01*
X364468Y97244D02*
X377953D01*
X336627Y106324D02*
X336687Y106265D01*
X338510D01*
X338569Y106324D01*
X355387D01*
X302362Y104724D02*
X335965D01*
X336024Y104665D01*
X339172D01*
X339232Y104724D01*
X354724D01*
X355387Y106324D02*
X364468Y97244D01*
X300851Y106324D02*
X336627D01*
X294920Y100394D02*
X300851Y106324D01*
X298031Y100394D02*
X302362Y104724D01*
X294488Y100394D02*
X294920D01*
X354724Y104724D02*
X364961Y94488D01*
X379921D01*
D64*
X61417Y209055D02*
Y216929D01*
X74803Y230315D01*
Y278543D01*
X83661Y287402D01*
D74*
X547244Y204724D02*
D03*
D77*
X273622Y342520D02*
D03*
D78*
X278543Y295276D02*
D03*
D82*
X133858Y291929D02*
D03*
X236221Y297244D02*
D03*
Y305118D02*
D03*
X240158Y301181D02*
D03*
X133858Y303150D02*
D03*
X135827Y309055D02*
D03*
X133858Y312992D02*
D03*
X509842Y152362D02*
D03*
X415354Y159449D02*
D03*
X509842Y146457D02*
D03*
X424409Y154331D02*
D03*
X505512Y163386D02*
D03*
X423622D02*
D03*
X278346Y157874D02*
D03*
X280315Y155118D02*
D03*
X249213Y33071D02*
D03*
X254724Y70472D02*
D03*
X261417Y71653D02*
D03*
X251692Y36338D02*
D03*
X363878Y125000D02*
D03*
X363305Y146169D02*
D03*
X572835Y29528D02*
D03*
X592913D02*
D03*
X616142Y19685D02*
D03*
X477559Y242126D02*
D03*
X43307Y191929D02*
D03*
Y176181D02*
D03*
Y160433D02*
D03*
X61417Y200394D02*
D03*
Y209055D02*
D03*
X306791Y187402D02*
D03*
X284252Y87008D02*
D03*
X273622Y183858D02*
D03*
X278642Y184646D02*
D03*
X277558Y181102D02*
D03*
X460630Y226378D02*
D03*
X305512Y204724D02*
D03*
X282185Y185630D02*
D03*
X161417Y92224D02*
D03*
X332677Y207087D02*
D03*
X326772Y205118D02*
D03*
X473228Y264961D02*
D03*
Y272047D02*
D03*
X466929Y318898D02*
D03*
X482677Y319291D02*
D03*
X601575Y292913D02*
D03*
X279528Y303346D02*
D03*
X274606D02*
D03*
X269685D02*
D03*
X279528Y328937D02*
D03*
X275590D02*
D03*
X268701Y325787D02*
D03*
X129921Y90551D02*
D03*
X89468Y94587D02*
D03*
X82677Y167717D02*
D03*
X120866Y168012D02*
D03*
X137205Y168110D02*
D03*
X153543Y168012D02*
D03*
X152461Y155315D02*
D03*
X263779Y185039D02*
D03*
X309867Y89985D02*
D03*
X266929Y139665D02*
D03*
X259651Y106501D02*
D03*
X266142Y116142D02*
D03*
X76870Y156004D02*
D03*
X325787Y186811D02*
D03*
X328658Y186833D02*
D03*
X330626Y88796D02*
D03*
X349410Y88878D02*
D03*
X646654Y74410D02*
D03*
X255906Y127559D02*
D03*
X143012Y102559D02*
D03*
X124114Y102461D02*
D03*
X117815Y155413D02*
D03*
X133661Y155315D02*
D03*
X158760Y155217D02*
D03*
X352478Y129842D02*
D03*
X83661Y287402D02*
D03*
X399606Y337795D02*
D03*
Y334646D02*
D03*
Y331496D02*
D03*
Y328346D02*
D03*
X399213Y260630D02*
D03*
Y265748D02*
D03*
Y270472D02*
D03*
Y275590D02*
D03*
X383858D02*
D03*
Y270472D02*
D03*
Y265748D02*
D03*
Y260630D02*
D03*
X503150Y212598D02*
D03*
Y202756D02*
D03*
X488976Y211417D02*
D03*
X382087Y144685D02*
D03*
X381299Y120866D02*
D03*
X382283Y171260D02*
D03*
X279921Y75984D02*
D03*
X285826Y75196D02*
D03*
X311417Y75590D02*
D03*
X332283Y75984D02*
D03*
X351574Y75984D02*
D03*
X287007Y88582D02*
D03*
X363878Y170206D02*
D03*
X362205Y173228D02*
D03*
X349606Y242126D02*
D03*
X382283Y179528D02*
D03*
X291339Y88583D02*
D03*
X355511Y97244D02*
D03*
X351969Y97244D02*
D03*
X377953Y97244D02*
D03*
X379921Y94488D02*
D03*
X298031Y100394D02*
D03*
X294488D02*
D03*
M02*
